<?xml version="1.0" encoding="UTF-8" standalone="no"?>
<!-- Created with Inkscape (http://www.inkscape.org/) -->
<svg id="svg2" xmlns:rdf="http://www.w3.org/1999/02/22-rdf-syntax-ns#" xmlns="http://www.w3.org/2000/svg" height="167.49" width="316.06" version="1.1" xmlns:cc="http://creativecommons.org/ns#" xmlns:dc="http://purl.org/dc/elements/1.1/" viewBox="73 45 169.48037 89.813415">
 <metadata id="metadata56">
  <rdf:RDF>
   <cc:Work rdf:about="">
    <dc:format>image/svg+xml</dc:format>
    <dc:type rdf:resource="http://purl.org/dc/dcmitype/StillImage"/>
   </cc:Work>
  </rdf:RDF>
 </metadata>
 <g id="text4">
  <path id="path3007" style="" d="m117 55.418h5.4405v1.3119h-7.3157v-1.3119c0.59163-0.61221 1.3968-1.4328 2.4154-2.4617 1.0238-1.0341 1.6669-1.7003 1.9292-1.9987 0.49902-0.56076 0.84629-1.0341 1.0418-1.4199 0.20064-0.39099 0.30096-0.77426 0.30096-1.1498 0-0.61221-0.21608-1.1112-0.64822-1.4971-0.42702-0.38584-0.98521-0.57876-1.6746-0.57878-0.48875 0.000011-1.0058 0.0849-1.5511 0.25466-0.54019 0.16978-1.119 0.42702-1.7363 0.7717v-1.5743c0.62765-0.25208 1.2141-0.44243 1.7595-0.57106 0.54533-0.1286 1.0444-0.19291 1.4971-0.19292 1.1936 0.000012 2.1453 0.2984 2.8553 0.89517 0.70995 0.59679 1.0649 1.3942 1.0649 2.3923-0.00001 0.47332-0.09 0.92347-0.27009 1.3505-0.17493 0.42187-0.49647 0.9209-0.96463 1.4971-0.12862 0.1492-0.53762 0.58135-1.227 1.2965-0.68939 0.70997-1.6617 1.7055-2.917 2.9865"/>
 </g>
 <g id="text8">
  <path id="path3010" style="" d="m160.38 50.518c0.74597 0.15949 1.3273 0.49132 1.744 0.99549 0.42186 0.50418 0.63279 1.1267 0.6328 1.8675-0.00001 1.137-0.39101 2.0167-1.173 2.6392s-1.8932 0.93376-3.3337 0.93376c-0.4836-0.000001-0.98263-0.04887-1.4971-0.14662-0.50933-0.0926-1.0367-0.23408-1.582-0.42444v-1.5048c0.43215 0.25209 0.90546 0.44244 1.4199 0.57106 0.51446 0.12862 1.0521 0.19293 1.6128 0.19292 0.97748 0.000001 1.7209-0.19292 2.2302-0.57877 0.51446-0.38585 0.77169-0.94662 0.7717-1.6823-0.00001-0.67909-0.23923-1.209-0.71768-1.5897-0.47332-0.38584-1.1344-0.57877-1.9833-0.57878h-1.3428v-1.281h1.4045c0.76655 0.000006 1.353-0.15176 1.7595-0.4553 0.40642-0.30867 0.60964-0.75111 0.60965-1.3273-0.00001-0.59163-0.21094-1.0444-0.6328-1.3582-0.41672-0.31896-1.0161-0.47844-1.7981-0.47845-0.42701 0.000011-0.88488 0.04631-1.3736 0.13891-0.48875 0.09261-1.0264 0.23666-1.6128 0.43215v-1.3891c0.59163-0.16462 1.1447-0.28809 1.6592-0.37042 0.51961-0.0823 1.0084-0.12346 1.4662-0.12347 1.1833 0.000012 2.1196 0.27011 2.809 0.81028 0.68938 0.53506 1.0341 1.2605 1.0341 2.1762-0.00001 0.63795-0.18264 1.1781-0.54791 1.6206-0.36527 0.4373-0.88488 0.74084-1.5588 0.9106"/>
 </g>
 <g id="text12">
  <path id="path3013" style="" d="m199.65 46.821v4.2984h4.2984v1.3119h-4.2984v4.2984h-1.2965v-4.2984h-4.2984v-1.3119h4.2984v-4.2984h1.2965"/>
 </g>
 <g id="g16" stroke="#000" stroke-width="2" fill="none" transform="translate(-1 -3.2702)">
  <path id="polyline18" d="m200 68v20h-40v-15.528"/>
  <path id="polyline20" d="m165 80.236-5-10-5 10"/>
 </g>
 <g id="g22" stroke="#000" stroke-width="2" fill="none" transform="translate(-1 -3.2702)">
  <path id="polyline24" d="m160 88h-40v-15.528"/>
  <path id="polyline26" d="m125 80.236-5-10-5 10"/>
 </g>
 <g id="text28">
  <path id="path3020" style="" d="m75.674 45.208h6.1196v1.3119h-4.6919v2.8244c0.22636-0.07716 0.45273-0.13375 0.6791-0.16977 0.22636-0.04115 0.45273-0.06173 0.6791-0.06174 1.2862 0.000008 2.3048 0.35242 3.0559 1.0572 0.75111 0.70482 1.1267 1.6592 1.1267 2.863-0.000008 1.2399-0.38586 2.2045-1.1575 2.8939-0.77171 0.68424-1.8598 1.0264-3.2643 1.0264-0.4836-0.000001-0.97749-0.04116-1.4817-0.12347-0.49903-0.08232-1.0161-0.20579-1.5511-0.37042v-1.5665c0.46302 0.25209 0.94147 0.43987 1.4354 0.56334 0.49388 0.12347 1.0161 0.18521 1.5666 0.18521 0.89002 0.000001 1.5948-0.23408 2.1145-0.70225 0.5196-0.46816 0.77941-1.1035 0.77942-1.9061-0.000007-0.80256-0.25981-1.4379-0.77942-1.9061-0.51962-0.46816-1.2244-0.70224-2.1145-0.70225-0.41672 0.000006-0.83344 0.04631-1.2502 0.13891-0.41158 0.09261-0.83344 0.23666-1.2656 0.43215v-5.7877"/>
 </g>
 <g id="text32">
  <path id="path3023" style="" d="m242.48 47.107-2.7704 1.4971 2.7704 1.5048-0.44758 0.75627-2.5929-1.5666v2.9093h-0.87974v-2.9093l-2.5929 1.5666-0.44758-0.75627 2.7704-1.5048-2.7704-1.4971 0.44758-0.76398 2.5929 1.5666v-2.9093h0.87974v2.9093l2.5929-1.5666 0.44758 0.76398"/>
 </g>
 <g id="g36" stroke="#000" stroke-width="2" fill="none" transform="translate(-1 -3.2702)">
  <path id="polyline38" d="m240 68v48h-40v-15.528"/>
  <path id="polyline40" d="m205 108.24-5-9.9999-5 9.9999"/>
 </g>
 <g id="g42" stroke="#000" stroke-width="2" fill="none" transform="translate(-1 -3.2702)">
  <path id="polyline44" d="m200 116h-120v-43.528"/>
  <path id="polyline46" d="m85 80.236-5-10-5 10"/>
 </g>
 <g id="text48">
  <path id="path3030" style="" d="m132.87 121.21h6.1196v1.3119h-4.6919v2.8244c0.22636-0.0772 0.45272-0.13376 0.67909-0.16978 0.22636-0.0412 0.45273-0.0617 0.6791-0.0617 1.2862 0 2.3048 0.35241 3.0559 1.0572 0.75111 0.70483 1.1267 1.6592 1.1267 2.863-0.00001 1.2399-0.38586 2.2045-1.1576 2.8939-0.77171 0.68424-1.8598 1.0264-3.2643 1.0264-0.4836 0-0.97749-0.0412-1.4817-0.12347-0.49903-0.0823-1.0161-0.20579-1.5511-0.37042v-1.5666c0.46302 0.25209 0.94148 0.43987 1.4354 0.56334 0.49389 0.12348 1.0161 0.18521 1.5666 0.18521 0.89003 0 1.5948-0.23408 2.1145-0.70224 0.5196-0.46817 0.77941-1.1035 0.77942-1.9061-0.00001-0.80256-0.25982-1.4379-0.77942-1.9061-0.51962-0.46816-1.2244-0.70224-2.1145-0.70224-0.41672 0-0.83343 0.0463-1.2502 0.1389-0.41157 0.0926-0.83344 0.23666-1.2656 0.43215v-5.7877"/>
  <path id="path3032" style="" d="m148.65 123.11-2.7704 1.4971 2.7704 1.5048-0.44758 0.75626-2.5929-1.5666v2.9093h-0.87974v-2.9093l-2.5929 1.5666-0.44759-0.75626 2.7704-1.5048-2.7704-1.4971 0.44759-0.76398 2.5929 1.5666v-2.9093h0.87974v2.9093l2.5929-1.5666 0.44758 0.76398"/>
  <path id="path3034" style="" d="m154.03 120.74c-0.68939 1.1833-1.2013 2.3537-1.5357 3.5112-0.33441 1.1576-0.50161 2.3305-0.50161 3.519 0 1.1884 0.1672 2.3666 0.50161 3.5344 0.33954 1.1627 0.85143 2.3331 1.5357 3.5112h-1.2347c-0.7717-1.209-1.3505-2.3974-1.7363-3.5652-0.38071-1.1678-0.57106-2.328-0.57106-3.4804 0-1.1472 0.19035-2.3022 0.57106-3.4649 0.3807-1.1627 0.95947-2.3511 1.7363-3.5652h1.2347"/>
  <path id="path3036" style="" d="m158.33 131.42h5.4405v1.3119h-7.3157v-1.3119c0.59163-0.61221 1.3968-1.4328 2.4154-2.4617 1.0238-1.0341 1.6669-1.7003 1.9292-1.9987 0.49902-0.56076 0.84629-1.0341 1.0418-1.4199 0.20064-0.39099 0.30096-0.77426 0.30096-1.1498 0-0.61221-0.21608-1.1112-0.64822-1.4971-0.42702-0.38584-0.98521-0.57876-1.6746-0.57877-0.48875 0.00001-1.0058 0.0849-1.5511 0.25466-0.54019 0.16978-1.119 0.42702-1.7363 0.7717v-1.5743c0.62765-0.25208 1.2141-0.44243 1.7595-0.57106 0.54533-0.1286 1.0444-0.19291 1.4971-0.19292 1.1936 0.00001 2.1453 0.2984 2.8553 0.89517 0.70995 0.59679 1.0649 1.3942 1.0649 2.3923-0.00001 0.47332-0.09 0.92347-0.27009 1.3505-0.17493 0.42187-0.49647 0.9209-0.96463 1.4971-0.12862 0.1492-0.53762 0.58135-1.227 1.2964-0.68939 0.70997-1.6617 1.7055-2.917 2.9865"/>
  <path id="path3038" style="" d="m172.63 122.82v4.2984h4.2984v1.3119h-4.2984v4.2984h-1.2965v-4.2984h-4.2984v-1.3119h4.2984v-4.2984h1.2965"/>
  <path id="path3040" style="" d="m185.02 126.52c0.74597 0.15949 1.3273 0.49132 1.744 0.99549 0.42185 0.50418 0.63278 1.1267 0.63279 1.8675-0.00001 1.137-0.391 2.0167-1.173 2.6392-0.782 0.62251-1.8932 0.93376-3.3337 0.93376-0.4836 0-0.98263-0.0489-1.4971-0.14662-0.50932-0.0926-1.0366-0.23408-1.582-0.42444v-1.5048c0.43215 0.25209 0.90546 0.44244 1.4199 0.57106 0.51446 0.12861 1.0521 0.19292 1.6128 0.19292 0.97748 0 1.7209-0.19292 2.2302-0.57877 0.51446-0.38585 0.77169-0.94662 0.7717-1.6823-0.00001-0.67909-0.23924-1.209-0.71768-1.5897-0.47332-0.38584-1.1344-0.57877-1.9833-0.57877h-1.3428v-1.281h1.4045c0.76654 0 1.353-0.15176 1.7595-0.4553 0.40642-0.30868 0.60964-0.75112 0.60964-1.3273 0-0.59162-0.21094-1.0444-0.63279-1.3582-0.41672-0.31896-1.0161-0.47844-1.7981-0.47845-0.42701 0.00001-0.88489 0.0463-1.3736 0.1389-0.48875 0.0926-1.0264 0.23667-1.6129 0.43216v-1.3891c0.59164-0.16462 1.1447-0.28809 1.6592-0.37042 0.5196-0.0823 1.0084-0.12346 1.4662-0.12347 1.1833 0.00001 2.1196 0.27011 2.809 0.81028 0.68938 0.53506 1.0341 1.2605 1.0341 2.1762-0.00001 0.63794-0.18265 1.1781-0.54791 1.6206-0.36528 0.43731-0.88489 0.74084-1.5588 0.91061"/>
  <path id="path3042" style="" d="m189.93 120.74h1.2347c0.7717 1.2142 1.3479 2.4026 1.7286 3.5652 0.38584 1.1627 0.57877 2.3177 0.57877 3.4649 0 1.1524-0.19293 2.3125-0.57877 3.4804-0.38071 1.1678-0.95691 2.3562-1.7286 3.5652h-1.2347c0.68424-1.1781 1.1936-2.3485 1.528-3.5112 0.33954-1.1678 0.50932-2.346 0.50932-3.5344s-0.16978-2.3614-0.50932-3.519c-0.33441-1.1575-0.84373-2.328-1.528-3.5112"/>
 </g>
</svg>
