<?xml version="1.0" encoding="UTF-8" standalone="no"?>
<!-- Created with Inkscape (http://www.inkscape.org/) -->
<svg id="svg2" xmlns:rdf="http://www.w3.org/1999/02/22-rdf-syntax-ns#" xmlns="http://www.w3.org/2000/svg" height="187.19" width="921.26" version="1.1" xmlns:cc="http://creativecommons.org/ns#" xmlns:dc="http://purl.org/dc/elements/1.1/" viewBox="299 139 502 90.689242">
 <metadata id="metadata88">
  <rdf:RDF>
   <cc:Work rdf:about="">
    <dc:format>image/svg+xml</dc:format>
    <dc:type rdf:resource="http://purl.org/dc/dcmitype/StillImage"/>
   </cc:Work>
  </rdf:RDF>
 </metadata>
 <g id="g4" transform="translate(0 -5.6554)">
  <path id="rect6" fill="#fff" d="m300 140h80v100h-80z"/>
  <path id="rect8" d="m300 140h80v100h-80z" stroke="#000" stroke-width="2" fill="none"/>
 </g>
 <g id="text10">
  <path id="path3025" style="" d="m311.93 179.58v8.9594h1.8829c1.5897 0 2.7524-0.36013 3.4881-1.0804 0.74082-0.72025 1.1112-1.8572 1.1112-3.4109-0.00001-1.5434-0.37042-2.6726-1.1112-3.3878-0.7357-0.72025-1.8984-1.0804-3.4881-1.0804h-1.8829m-1.5588-1.281h3.2026c2.2328 0.00001 3.8714 0.4656 4.9157 1.3968 1.0444 0.92605 1.5665 2.3768 1.5666 4.3524-0.00001 1.9858-0.52476 3.4444-1.5743 4.3755-1.0495 0.93118-2.6855 1.3968-4.908 1.3968h-3.2026v-11.521"/>
  <path id="path3027" style="" d="m322.33 186.41v-5.2321h1.4199v5.1781c0 0.818 0.15949 1.4328 0.47846 1.8444 0.31896 0.40643 0.79742 0.60964 1.4354 0.60964 0.76655 0 1.371-0.24437 1.8135-0.73311 0.44758-0.48875 0.67137-1.155 0.67138-1.9987v-4.9003h1.4199v8.643h-1.4199v-1.3273c-0.3447 0.52476-0.74598 0.91575-1.2038 1.173-0.45274 0.25208-0.98006 0.37813-1.582 0.37813-0.99293 0-1.7466-0.30868-2.2611-0.92604-0.51447-0.61736-0.7717-1.5202-0.7717-2.7087m3.573-5.4405"/>
  <path id="path3029" style="" d="m339.24 182.84c0.35497-0.63793 0.7794-1.1087 1.2733-1.4122 0.49388-0.30353 1.0752-0.4553 1.744-0.4553 0.9003 0 1.5948 0.3164 2.0836 0.94919 0.48873 0.62765 0.7331 1.5228 0.73311 2.6855v5.2167h-1.4276v-5.1704c-0.00001-0.82828-0.14664-1.4431-0.43987-1.8444-0.29326-0.40128-0.74084-0.60192-1.3428-0.60193-0.73569 0.00001-1.317 0.24438-1.744 0.73312-0.42701 0.48875-0.64052 1.155-0.64051 1.9987v4.8849h-1.4276v-5.1704c-0.00001-0.83343-0.14663-1.4482-0.43987-1.8444-0.29325-0.40128-0.74598-0.60192-1.3582-0.60193-0.7254 0.00001-1.3016 0.24696-1.7286 0.74084-0.42701 0.48874-0.64051 1.1524-0.64051 1.991v4.8849h-1.4276v-8.643h1.4276v1.3428c0.32411-0.52989 0.71254-0.92089 1.1653-1.173 0.45273-0.25208 0.99034-0.37813 1.6128-0.37813 0.62764 0 1.1601 0.15949 1.5974 0.47845 0.44243 0.31898 0.76912 0.782 0.98006 1.3891"/>
  <path id="path3031" style="" d="m354.64 182.84c0.35498-0.63793 0.77941-1.1087 1.2733-1.4122 0.49388-0.30353 1.0752-0.4553 1.744-0.4553 0.9003 0 1.5948 0.3164 2.0836 0.94919 0.48873 0.62765 0.7331 1.5228 0.73311 2.6855v5.2167h-1.4276v-5.1704c-0.00002-0.82828-0.14664-1.4431-0.43987-1.8444-0.29326-0.40128-0.74084-0.60192-1.3428-0.60193-0.73569 0.00001-1.317 0.24438-1.744 0.73312-0.42701 0.48875-0.64052 1.155-0.64051 1.9987v4.8849h-1.4276v-5.1704c-0.00001-0.83343-0.14663-1.4482-0.43987-1.8444-0.29325-0.40128-0.74598-0.60192-1.3582-0.60193-0.7254 0.00001-1.3016 0.24696-1.7286 0.74084-0.42701 0.48874-0.64051 1.1524-0.64051 1.991v4.8849h-1.4276v-8.643h1.4276v1.3428c0.32411-0.52989 0.71253-0.92089 1.1653-1.173 0.45272-0.25208 0.99034-0.37813 1.6128-0.37813 0.62764 0 1.1601 0.15949 1.5974 0.47845 0.44243 0.31898 0.76912 0.782 0.98005 1.3891"/>
  <path id="path3033" style="" d="m366.91 190.62c-0.40128 1.0289-0.79228 1.7003-1.173 2.0141-0.38071 0.31382-0.89003 0.47073-1.528 0.47073h-1.1344v-1.1884h0.83343c0.391 0 0.69453-0.0926 0.91061-0.27781 0.21607-0.18521 0.4553-0.62251 0.71768-1.3119l0.25466-0.64823-3.4958-8.5041h1.5048l2.7009 6.7601 2.701-6.7601h1.5048l-3.7968 9.4456"/>
 </g>
 <g id="g14" transform="translate(0 -5.6554)">
  <path id="rect16" fill="#fff" d="m440 140h80v100h-80z"/>
  <path id="rect18" d="m440 140h80v100h-80z" stroke="#000" stroke-width="2" fill="none"/>
 </g>
 <g id="text20">
  <path id="path3038" style="" d="m466.85 168.8v1.5202c-0.59164-0.28295-1.1498-0.49388-1.6746-0.63279-0.52476-0.1389-1.0315-0.20835-1.5202-0.20836-0.84887 0.00001-1.5048 0.16464-1.9678 0.49389-0.45788 0.32926-0.68682 0.79743-0.68682 1.4045 0 0.50933 0.15177 0.89518 0.45531 1.1576 0.30867 0.25724 0.89002 0.4656 1.744 0.62507l0.94147 0.19293c1.1627 0.22123 2.0193 0.61222 2.5698 1.173 0.55561 0.55563 0.83343 1.3016 0.83343 2.2379 0 1.1164-0.37556 1.9627-1.1267 2.5389-0.74598 0.5762-1.8418 0.8643-3.2874 0.8643-0.54533 0-1.1267-0.0617-1.744-0.18521-0.61221-0.12347-1.2476-0.3061-1.9061-0.5479v-1.6051c0.63279 0.35499 1.2527 0.62251 1.8598 0.80257 0.60707 0.18007 1.2038 0.2701 1.7903 0.2701 0.89003 0 1.5768-0.17492 2.0604-0.52476 0.48359-0.34983 0.72539-0.84887 0.7254-1.4971-0.00001-0.56591-0.17493-1.0084-0.52476-1.3273-0.3447-0.31896-0.91318-0.55819-1.7054-0.71768l-0.94919-0.18521c-1.1627-0.2315-2.0038-0.5942-2.5235-1.0881-0.51961-0.49388-0.77942-1.1807-0.77941-2.0604-0.00001-1.0186 0.35755-1.8212 1.0727-2.4077 0.72025-0.58648 1.7106-0.87973 2.971-0.87974 0.54018 0.00001 1.0907 0.0489 1.6514 0.14662 0.56076 0.0978 1.1344 0.24439 1.7209 0.43987"/>
  <path id="path3040" style="" d="m469.91 171.3h1.4199v8.643h-1.4199v-8.643m0-3.3646h1.4199v1.7981h-1.4199v-1.7981"/>
  <path id="path3042" style="" d="m481.69 175.27v0.69453h-6.5286c0.0617 0.97749 0.35498 1.7235 0.87973 2.2379 0.5299 0.50932 1.2656 0.76398 2.2071 0.76398 0.54533 0 1.0727-0.0669 1.582-0.20064 0.51446-0.13376 1.0238-0.3344 1.528-0.60193v1.3428c-0.50933 0.21608-1.0315 0.38071-1.5666 0.49389-0.53505 0.11318-1.0778 0.16977-1.6283 0.16977-1.3788 0-2.472-0.40128-3.2797-1.2038-0.80256-0.80256-1.2038-1.8881-1.2038-3.2566 0-1.4148 0.38071-2.5363 1.1421-3.3646 0.76655-0.83342 1.798-1.2501 3.0945-1.2502 1.1627 0.00001 2.081 0.37557 2.755 1.1267 0.67909 0.74598 1.0186 1.762 1.0186 3.0482m-1.4199-0.41672c-0.0103-0.77683-0.22895-1.3968-0.65595-1.8598-0.42187-0.46301-0.98264-0.69452-1.6823-0.69453-0.79229 0.00001-1.4276 0.2238-1.9061 0.67138-0.47331 0.44759-0.74598 1.0778-0.818 1.8907l5.0624-0.008"/>
  <path id="path3044" style="" d="m483 171.3h1.5048l2.701 7.254 2.701-7.254h1.5048l-3.2411 8.643h-1.9292l-3.2411-8.643"/>
  <path id="path3046" style="" d="m500.77 175.27v0.69453h-6.5286c0.0617 0.97749 0.35498 1.7235 0.87974 2.2379 0.5299 0.50932 1.2656 0.76398 2.2071 0.76398 0.54533 0 1.0727-0.0669 1.582-0.20064 0.51446-0.13376 1.0238-0.3344 1.528-0.60193v1.3428c-0.50933 0.21608-1.0315 0.38071-1.5666 0.49389-0.53505 0.11318-1.0778 0.16977-1.6283 0.16977-1.3788 0-2.472-0.40128-3.2797-1.2038-0.80257-0.80256-1.2038-1.8881-1.2038-3.2566 0-1.4148 0.3807-2.5363 1.1421-3.3646 0.76655-0.83342 1.798-1.2501 3.0945-1.2502 1.1627 0.00001 2.081 0.37557 2.755 1.1267 0.67908 0.74598 1.0186 1.762 1.0186 3.0482m-1.4199-0.41672c-0.0103-0.77683-0.22894-1.3968-0.65594-1.8598-0.42187-0.46301-0.98264-0.69452-1.6823-0.69453-0.79228 0.00001-1.4276 0.2238-1.9061 0.67138-0.47332 0.44759-0.74598 1.0778-0.81801 1.8907l5.0624-0.008"/>
  <path id="path3048" style="" d="m478 198.39h5.4405v1.3119h-7.3157v-1.3119c0.59163-0.61221 1.3968-1.4328 2.4154-2.4617 1.0238-1.0341 1.6669-1.7003 1.9292-1.9987 0.49902-0.56077 0.84629-1.0341 1.0418-1.4199 0.20064-0.39099 0.30096-0.77426 0.30096-1.1498 0-0.61221-0.21608-1.1112-0.64822-1.4971-0.42702-0.38584-0.98521-0.57876-1.6746-0.57877-0.48875 0.00001-1.0058 0.0849-1.5511 0.25466-0.54019 0.16978-1.119 0.42701-1.7363 0.7717v-1.5743c0.62765-0.25208 1.2141-0.44243 1.7595-0.57106 0.54533-0.1286 1.0444-0.19291 1.4971-0.19292 1.1936 0.00001 2.1453 0.2984 2.8553 0.89517 0.70995 0.59679 1.0649 1.3942 1.0649 2.3923-0.00001 0.47331-0.09 0.92347-0.27009 1.3505-0.17493 0.42187-0.49647 0.9209-0.96463 1.4971-0.12862 0.1492-0.53762 0.58135-1.227 1.2964-0.68939 0.70997-1.6617 1.7055-2.917 2.9865"/>
 </g>
 <g id="g26" transform="translate(0 -5.6554)">
  <path id="rect28" fill="#fff" d="m580 140h80v100h-80z"/>
  <path id="rect30" d="m580 140h80v100h-80z" stroke="#000" stroke-width="2" fill="none"/>
 </g>
 <g id="text32">
  <path id="path3053" style="" d="m606.85 168.8v1.5202c-0.59164-0.28295-1.1498-0.49388-1.6746-0.63279-0.52476-0.1389-1.0315-0.20835-1.5202-0.20836-0.84887 0.00001-1.5048 0.16464-1.9678 0.49389-0.45788 0.32926-0.68682 0.79743-0.68682 1.4045 0 0.50933 0.15177 0.89518 0.45531 1.1576 0.30867 0.25724 0.89002 0.4656 1.744 0.62507l0.94147 0.19293c1.1627 0.22123 2.0193 0.61222 2.5698 1.173 0.55561 0.55563 0.83343 1.3016 0.83343 2.2379 0 1.1164-0.37556 1.9627-1.1267 2.5389-0.74598 0.5762-1.8418 0.8643-3.2874 0.8643-0.54533 0-1.1267-0.0617-1.744-0.18521-0.61221-0.12347-1.2476-0.3061-1.9061-0.5479v-1.6051c0.63279 0.35499 1.2527 0.62251 1.8598 0.80257 0.60707 0.18007 1.2038 0.2701 1.7903 0.2701 0.89003 0 1.5768-0.17492 2.0604-0.52476 0.48359-0.34983 0.72539-0.84887 0.7254-1.4971-0.00001-0.56591-0.17493-1.0084-0.52476-1.3273-0.3447-0.31896-0.91318-0.55819-1.7054-0.71768l-0.94919-0.18521c-1.1627-0.2315-2.0038-0.5942-2.5235-1.0881-0.51961-0.49388-0.77942-1.1807-0.77941-2.0604-0.00001-1.0186 0.35755-1.8212 1.0727-2.4077 0.72025-0.58648 1.7106-0.87973 2.971-0.87974 0.54018 0.00001 1.0907 0.0489 1.6514 0.14662 0.56076 0.0978 1.1344 0.24439 1.7209 0.43987"/>
  <path id="path3055" style="" d="m609.91 171.3h1.4199v8.643h-1.4199v-8.643m0-3.3646h1.4199v1.7981h-1.4199v-1.7981"/>
  <path id="path3057" style="" d="m621.69 175.27v0.69453h-6.5286c0.0617 0.97749 0.35498 1.7235 0.87973 2.2379 0.5299 0.50932 1.2656 0.76398 2.2071 0.76398 0.54533 0 1.0727-0.0669 1.582-0.20064 0.51446-0.13376 1.0238-0.3344 1.528-0.60193v1.3428c-0.50933 0.21608-1.0315 0.38071-1.5666 0.49389-0.53505 0.11318-1.0778 0.16977-1.6283 0.16977-1.3788 0-2.472-0.40128-3.2797-1.2038-0.80256-0.80256-1.2038-1.8881-1.2038-3.2566 0-1.4148 0.38071-2.5363 1.1421-3.3646 0.76655-0.83342 1.798-1.2501 3.0945-1.2502 1.1627 0.00001 2.081 0.37557 2.755 1.1267 0.67909 0.74598 1.0186 1.762 1.0186 3.0482m-1.4199-0.41672c-0.0103-0.77683-0.22895-1.3968-0.65595-1.8598-0.42187-0.46301-0.98264-0.69452-1.6823-0.69453-0.79229 0.00001-1.4276 0.2238-1.9061 0.67138-0.47331 0.44759-0.74598 1.0778-0.818 1.8907l5.0624-0.008"/>
  <path id="path3059" style="" d="m623 171.3h1.5048l2.701 7.254 2.701-7.254h1.5048l-3.2411 8.643h-1.9292l-3.2411-8.643"/>
  <path id="path3061" style="" d="m640.77 175.27v0.69453h-6.5286c0.0617 0.97749 0.35498 1.7235 0.87974 2.2379 0.5299 0.50932 1.2656 0.76398 2.2071 0.76398 0.54533 0 1.0727-0.0669 1.582-0.20064 0.51446-0.13376 1.0238-0.3344 1.528-0.60193v1.3428c-0.50933 0.21608-1.0315 0.38071-1.5666 0.49389-0.53505 0.11318-1.0778 0.16977-1.6283 0.16977-1.3788 0-2.472-0.40128-3.2797-1.2038-0.80257-0.80256-1.2038-1.8881-1.2038-3.2566 0-1.4148 0.3807-2.5363 1.1421-3.3646 0.76655-0.83342 1.798-1.2501 3.0945-1.2502 1.1627 0.00001 2.081 0.37557 2.755 1.1267 0.67908 0.74598 1.0186 1.762 1.0186 3.0482m-1.4199-0.41672c-0.0103-0.77683-0.22894-1.3968-0.65594-1.8598-0.42187-0.46301-0.98264-0.69452-1.6823-0.69453-0.79228 0.00001-1.4276 0.2238-1.9061 0.67138-0.47332 0.44759-0.74598 1.0778-0.81801 1.8907l5.0624-0.008"/>
  <path id="path3063" style="" d="m621.38 193.49c0.74597 0.15949 1.3273 0.49132 1.744 0.99549 0.42186 0.50418 0.63279 1.1267 0.6328 1.8675-0.00001 1.137-0.39101 2.0167-1.173 2.6392-0.78199 0.62251-1.8932 0.93376-3.3337 0.93376-0.4836 0-0.98263-0.0489-1.4971-0.14662-0.50933-0.0926-1.0367-0.23409-1.582-0.42444v-1.5048c0.43215 0.25209 0.90546 0.44244 1.4199 0.57106 0.51446 0.12861 1.0521 0.19292 1.6128 0.19292 0.97748 0 1.7209-0.19292 2.2302-0.57877 0.51446-0.38585 0.77169-0.94662 0.7717-1.6823-0.00001-0.67909-0.23923-1.209-0.71768-1.5897-0.47332-0.38584-1.1344-0.57877-1.9833-0.57877h-1.3428v-1.281h1.4045c0.76655 0 1.353-0.15176 1.7595-0.45531 0.40642-0.30867 0.60964-0.75111 0.60965-1.3273-0.00001-0.59163-0.21094-1.0444-0.6328-1.3582-0.41672-0.31896-1.0161-0.47844-1.7981-0.47845-0.42701 0.00001-0.88488 0.0463-1.3736 0.1389-0.48875 0.0926-1.0264 0.23667-1.6128 0.43215v-1.389c0.59163-0.16462 1.1447-0.28809 1.6592-0.37042 0.51961-0.0823 1.0084-0.12346 1.4662-0.12347 1.1833 0.00001 2.1196 0.2701 2.809 0.81028 0.68938 0.53506 1.0341 1.2604 1.0341 2.1762-0.00001 0.63795-0.18264 1.1781-0.54791 1.6206-0.36527 0.43731-0.88488 0.74084-1.5588 0.91061"/>
 </g>
 <g id="g38" transform="translate(0 -5.6554)">
  <path id="rect40" fill="#fff" d="m720 140h80v100h-80z"/>
  <path id="rect42" d="m720 140h80v100h-80z" stroke="#000" stroke-width="2" fill="none"/>
 </g>
 <g id="text44">
  <path id="path3068" style="" d="m736.06 184.32v4.2212h2.5003c0.83857 0 1.4585-0.17235 1.8598-0.51704 0.40642-0.34984 0.60964-0.88231 0.60964-1.5974 0-0.72025-0.20322-1.2502-0.60964-1.5897-0.40129-0.34469-1.0212-0.51703-1.8598-0.51704h-2.5003m0-4.7382v3.4726h2.3074c0.76141 0.00001 1.3273-0.14147 1.6977-0.42443 0.37555-0.28809 0.56333-0.72539 0.56334-1.3119-0.00001-0.58134-0.18779-1.0161-0.56334-1.3042-0.37042-0.28809-0.93633-0.43214-1.6977-0.43215h-2.3074m-1.5588-1.281h3.982c1.1884 0.00001 2.1042 0.24695 2.7472 0.74083 0.64307 0.4939 0.96461 1.1961 0.96462 2.1067-0.00001 0.70482-0.16464 1.2656-0.49389 1.6823-0.32926 0.41672-0.81286 0.67653-1.4508 0.77942 0.76654 0.16463 1.3608 0.50932 1.7826 1.0341 0.427 0.51962 0.6405 1.1704 0.64051 1.9524-0.00001 1.0289-0.34984 1.8238-1.0495 2.3846-0.69968 0.56077-1.6952 0.84116-2.9865 0.84116h-4.1363v-11.521"/>
  <path id="path3070" style="" d="m745.13 186.41v-5.2321h1.4199v5.1781c0 0.818 0.15949 1.4328 0.47846 1.8444 0.31896 0.40643 0.79742 0.60964 1.4354 0.60964 0.76655 0 1.371-0.24437 1.8135-0.73311 0.44758-0.48875 0.67137-1.155 0.67138-1.9987v-4.9003h1.4199v8.643h-1.4199v-1.3273c-0.3447 0.52476-0.74598 0.91575-1.2038 1.173-0.45274 0.25208-0.98006 0.37813-1.582 0.37813-0.99293 0-1.7466-0.30868-2.2611-0.92604-0.51447-0.61736-0.7717-1.5202-0.7717-2.7087m3.573-5.4405"/>
  <path id="path3072" style="" d="m761.52 181.51v1.3273c-0.40129-0.22122-0.80515-0.38584-1.2116-0.49389-0.40129-0.11317-0.80772-0.16977-1.2193-0.16977-0.92089 0-1.636 0.29325-2.1453 0.87973-0.50932 0.58136-0.76398 1.3994-0.76398 2.454 0 1.0547 0.25466 1.8752 0.76398 2.4617 0.50932 0.58135 1.2244 0.87202 2.1453 0.87202 0.41157 0 0.818-0.054 1.2193-0.16206 0.40642-0.11318 0.81028-0.28038 1.2116-0.5016v1.3119c-0.39615 0.1852-0.80772 0.32411-1.2347 0.41671-0.42187 0.0926-0.87203 0.13891-1.3505 0.13891-1.3016 0-2.3357-0.409-3.1022-1.227-0.76655-0.818-1.1498-1.9215-1.1498-3.3106 0-1.4096 0.38585-2.5183 1.1576-3.326 0.77684-0.8077 1.8392-1.2116 3.1871-1.2116 0.43729 0 0.8643 0.0463 1.281 0.1389 0.41671 0.0875 0.82057 0.22123 1.2116 0.40129"/>
  <path id="path3074" style="" d="m763.95 177.81h1.4276v7.0919l4.2366-3.7273h1.8135l-4.5839 4.0437 4.7768 4.5993h-1.8521l-4.391-4.2212v4.2212h-1.4276v-12.008"/>
  <path id="path3076" style="" d="m780.01 185.14v0.69453h-6.5286c0.0617 0.97749 0.35498 1.7235 0.87973 2.2379 0.5299 0.50932 1.2656 0.76398 2.2071 0.76398 0.54533 0 1.0727-0.0669 1.582-0.20064 0.51446-0.13376 1.0238-0.33441 1.528-0.60193v1.3428c-0.50933 0.21607-1.0315 0.3807-1.5666 0.49388-0.53505 0.11319-1.0778 0.16978-1.6283 0.16978-1.3788 0-2.472-0.40128-3.2797-1.2038-0.80256-0.80257-1.2038-1.8881-1.2038-3.2566 0-1.4148 0.38071-2.5363 1.1421-3.3646 0.76655-0.83343 1.798-1.2502 3.0945-1.2502 1.1627 0 2.081 0.37556 2.755 1.1267 0.67909 0.74598 1.0186 1.762 1.0186 3.0482m-1.4199-0.41672c-0.0103-0.77684-0.22895-1.3968-0.65595-1.8598-0.42187-0.46302-0.98264-0.69453-1.6823-0.69453-0.79229 0-1.4276 0.2238-1.9061 0.67137-0.47331 0.4476-0.74598 1.0778-0.818 1.8907l5.0624-0.008"/>
  <path id="path3078" style="" d="m783.74 178.72v2.454h2.9247v1.1035h-2.9247v4.6919c-0.00001 0.70482 0.0952 1.1576 0.28553 1.3582 0.19549 0.20064 0.58906 0.30096 1.1807 0.30096h1.4585v1.1884h-1.4585c-1.0958 0-1.8521-0.20322-2.2688-0.60965-0.41672-0.41157-0.62508-1.1575-0.62508-2.2379v-4.6919h-1.0418v-1.1035h1.0418v-2.454h1.4276"/>
 </g>
 <g id="g48" stroke="#000" stroke-width="2" fill="none" transform="translate(0 -5.6554)">
  <path id="line50" d="m380 180h55.528"/>
  <path id="polyline52" d="m427.76 185 10-5-10-5"/>
 </g>
 <g id="g54" stroke="#000" stroke-width="2" fill="none" transform="translate(0 -5.6554)">
  <path id="line56" d="m440 200h-55.528"/>
  <path id="polyline58" d="m392.24 195-10 5 10 5"/>
 </g>
 <g id="g60" stroke="#000" stroke-width="2" fill="none" transform="translate(0 -5.6554)">
  <path id="line62" d="m520 180h55.528"/>
  <path id="polyline64" d="m567.76 185 10-5-10-5"/>
 </g>
 <g id="g66" stroke="#000" stroke-width="2" fill="none" transform="translate(0 -5.6554)">
  <path id="line68" d="m580 200h-55.528"/>
  <path id="polyline70" d="m532.24 195-10 5 10 5"/>
 </g>
 <g id="g72" stroke="#000" stroke-width="2" fill="none" transform="translate(0 -5.6554)">
  <path id="line74" d="m660 180h55.528"/>
  <path id="polyline76" d="m707.76 185 10-5-10-5"/>
 </g>
 <g id="g78" stroke="#000" stroke-width="2" fill="none" transform="translate(0 -5.6554)">
  <path id="line80" d="m720 200h-55.528"/>
  <path id="polyline82" d="m672.24 195-10 5 10 5"/>
 </g>
</svg>
