<?xml version="1.0" encoding="UTF-8"?>
<svg id="svg85" width="10.794cm" height="13.947cm" version="1.1" viewBox="479 259 198.22 261" xmlns="http://www.w3.org/2000/svg" xmlns:cc="http://creativecommons.org/ns#" xmlns:dc="http://purl.org/dc/elements/1.1/" xmlns:rdf="http://www.w3.org/1999/02/22-rdf-syntax-ns#">
 <metadata id="metadata89">
  <rdf:RDF>
   <cc:Work rdf:about="">
    <dc:format>image/svg+xml</dc:format>
    <dc:type rdf:resource="http://purl.org/dc/dcmitype/StillImage"/>
   </cc:Work>
  </rdf:RDF>
 </metadata>
 <g id="Háttér" transform="translate(-1.8924 -1)">
  <path id="rect4" d="m480 420h40v40h-40z" fill="#fff" stroke="#000" stroke-width="2"/>
  <path id="rect6" d="m560 460h40v40h-40z" fill="#fff" stroke="#000" stroke-width="2"/>
  <path id="rect8" d="m640 440h40v30h-40z" fill="#fff" stroke="#000" stroke-width="2"/>
  <path id="rect10" d="m640 490h40v30h-40z" fill="#fff" stroke="#000" stroke-width="2"/>
  <g id="text14" aria-label="2">
   <path id="path52" d="m657.72 459.75h6.2177v1.4993h-8.3608v-1.4993q1.0142-1.0495 2.7605-2.8134 1.7551-1.7727 2.2049-2.2842 0.85548-0.96131 1.1906-1.6228 0.34396-0.67028 0.34396-1.3141 0-1.0495-0.74084-1.711-0.73201-0.66146-1.9138-0.66146-0.83785 0-1.7727 0.29105-0.92604 0.29104-1.9844 0.88194v-1.7992q1.076-0.43215 2.0108-0.65263 0.93486-0.22049 1.711-0.22049 2.0461 0 3.2632 1.023 1.2171 1.0231 1.2171 2.734 0 0.81139-0.30868 1.5434-0.29986 0.72319-1.1024 1.711-0.22048 0.25576-1.4023 1.4817-1.1818 1.2171-3.3337 3.4131z" style=""/>
  </g>
  <g id="text18" aria-label="x">
   <path id="path55" d="m664.57 501.37-3.5719 4.8066 3.7571 5.0712h-1.9138l-2.8751-3.8806-2.8751 3.8806h-1.9138l3.8364-5.1682-3.5101-4.7096h1.9138l2.6194 3.519 2.6194-3.519z" style=""/>
  </g>
  <g id="text22" aria-label="+">
   <path id="path58" d="m580.74 474.93v4.9124h4.9124v1.4993h-4.9124v4.9124h-1.4817v-4.9124h-4.9124v-1.4993h4.9124v-4.9124z" style=""/>
  </g>
  <path id="rect24" d="m560 340h40v40h-40z" fill="#fff" stroke="#000" stroke-width="2"/>
  <path id="rect26" d="m640 320h40v30h-40z" fill="#fff" stroke="#000" stroke-width="2"/>
  <path id="rect28" d="m640 370h40v30h-40z" fill="#fff" stroke="#000" stroke-width="2"/>
  <g id="text32" aria-label="8">
   <path id="path64" d="m659.99 335q-1.27 0-2.002 0.6791-0.72319 0.67909-0.72319 1.8697 0 1.1906 0.72319 1.8697 0.73201 0.67909 2.002 0.67909t2.002-0.67909q0.73202-0.68792 0.73202-1.8697 0-1.1906-0.73202-1.8697-0.72319-0.6791-2.002-0.6791zm-1.7815-0.75847q-1.1465-0.28222-1.7903-1.0672-0.635-0.78493-0.635-1.9138 0-1.5787 1.1201-2.4959 1.1289-0.91722 3.0868-0.91722 1.9667 0 3.0868 0.91722t1.1201 2.4959q0 1.1289-0.64382 1.9138-0.635 0.78493-1.7727 1.0672 1.2876 0.29986 2.002 1.173 0.72319 0.87313 0.72319 2.1343 0 1.9138-1.173 2.9369-1.1642 1.023-3.3426 1.023t-3.3514-1.023q-1.1642-1.0231-1.1642-2.9369 0-1.2612 0.72319-2.1343 0.7232-0.87312 2.0108-1.173zm-0.65263-2.8134q0 1.0231 0.635 1.5963 0.64381 0.57326 1.7992 0.57326 1.1465 0 1.7904-0.57326 0.65263-0.57326 0.65263-1.5963 0-1.023-0.65263-1.5963-0.64382-0.57326-1.7904-0.57326-1.1554 0-1.7992 0.57326-0.635 0.57327-0.635 1.5963z" style=""/>
  </g>
  <g id="text36" aria-label="x">
   <path id="path67" d="m664.57 381.37-3.5719 4.8066 3.7571 5.0712h-1.9138l-2.8751-3.8806-2.8751 3.8806h-1.9138l3.8364-5.1682-3.5101-4.7096h1.9138l2.6194 3.519 2.6194-3.519z" style=""/>
  </g>
  <g id="text40" aria-label="+">
   <path id="path70" d="m580.74 354.93v4.9124h4.9124v1.4993h-4.9124v4.9124h-1.4817v-4.9124h-4.9124v-1.4993h4.9124v-4.9124z" style=""/>
  </g>
  <g id="g46" fill="none" stroke="#000" stroke-width="2">
   <path id="line42" d="m600.98 353.45 33.778-10.556"/>
   <path id="polyline44" d="m628.84 349.98 8.053-7.755-11.036-1.79"/>
  </g>
  <g id="g52" fill="none" stroke="#000" stroke-width="2">
   <path id="line48" d="m600.98 366.55 33.778 10.556"/>
   <path id="polyline50" d="m625.85 379.57 11.036-1.79-8.053-7.755"/>
  </g>
  <g id="g58" fill="none" stroke="#000" stroke-width="2">
   <path id="line54" d="m600.98 473.45 33.778-10.556"/>
   <path id="polyline56" d="m628.84 469.98 8.053-7.755-11.036-1.79"/>
  </g>
  <g id="g64" fill="none" stroke="#000" stroke-width="2">
   <path id="line60" d="m600.98 486.55 33.778 10.556"/>
   <path id="polyline62" d="m625.85 499.57 11.036-1.79-8.053-7.755"/>
  </g>
  <path id="rect66" d="m480 380h40v40h-40z" fill="#fff" stroke="#000" stroke-width="2"/>
  <path id="line68" d="m480 380v-120" fill="none" stroke="#000" stroke-width="2"/>
  <path id="line70" d="m520 380v-120" fill="none" stroke="#000" stroke-width="2"/>
  <g id="g76" fill="none" stroke="#000" stroke-width="2">
   <path id="line72" d="m520 450 35.009 17.504"/>
   <path id="polyline74" d="m545.83 468.5h11.181l-6.708-8.944"/>
  </g>
  <g id="g82" fill="none" stroke="#000" stroke-width="2">
   <path id="line78" d="m520 400 35.288-23.525"/>
   <path id="polyline80" d="m551.6 384.94 5.547-9.708-11.094 1.387"/>
  </g>
 </g>
</svg>
