<?xml version="1.0" encoding="UTF-8"?>
<svg id="svg115" width="21.674cm" height="34cm" version="1.1" viewBox="179 59 415.74 662" xmlns="http://www.w3.org/2000/svg" xmlns:cc="http://creativecommons.org/ns#" xmlns:dc="http://purl.org/dc/elements/1.1/" xmlns:rdf="http://www.w3.org/1999/02/22-rdf-syntax-ns#">
 <metadata id="metadata119">
  <rdf:RDF>
   <cc:Work rdf:about="">
    <dc:format>image/svg+xml</dc:format>
    <dc:type rdf:resource="http://purl.org/dc/dcmitype/StillImage"/>
   </cc:Work>
  </rdf:RDF>
 </metadata>
 <g id="Háttér" transform="translate(-3.1293)">
  <path id="rect4" d="m300 60h180v40h-180z" fill="#fff" stroke="#000" stroke-width="2"/>
  <g id="text8" aria-label="iterator">
   <path id="path872" d="m358.05 76.372h1.6228v9.8778h-1.6228zm0-3.8453h1.6228v2.0549h-1.6228z"/>
   <path id="path874" d="m364.66 73.568v2.8046h3.3426v1.2612h-3.3426v5.3622q0 1.2083 0.32632 1.5522 0.33513 0.34396 1.3494 0.34396h1.6669v1.3582h-1.6669q-1.8785 0-2.5929-0.69674-0.71438-0.70556-0.71438-2.5576v-5.3622h-1.1906v-1.2612h1.1906v-2.8046z"/>
   <path id="path876" d="m378.6 80.905v0.79375h-7.4612q0.10583 1.6757 1.0054 2.5576 0.9084 0.87312 2.5224 0.87312 0.93486 0 1.808-0.2293 0.88194-0.22931 1.7462-0.68792v1.5346q-0.87313 0.37042-1.7904 0.56444t-1.8609 0.19403q-2.3636 0-3.7483-1.3758-1.3758-1.3758-1.3758-3.7218 0-2.4253 1.3053-3.8453 1.3141-1.4287 3.5366-1.4287 1.9932 0 3.1485 1.2876 1.1642 1.2788 1.1642 3.4837zm-1.6228-0.47625q-0.0176-1.3317-0.74966-2.1255-0.72319-0.79375-1.9226-0.79375-1.3582 0-2.1784 0.76729-0.81139 0.76729-0.93486 2.1608z"/>
   <path id="path878" d="m386.98 77.889q-0.2734-0.15875-0.59972-0.22931-0.3175-0.07937-0.70555-0.07937-1.3758 0-2.1167 0.89958-0.73201 0.89076-0.73201 2.5665v5.2035h-1.6316v-9.8778h1.6316v1.5346q0.51153-0.89958 1.3317-1.3317 0.82021-0.44097 1.9932-0.44097 0.16757 0 0.37041 0.02646 0.20285 0.01764 0.44979 0.06174z"/>
   <path id="path880" d="m393.19 81.285q-1.9667 0-2.7252 0.44979t-0.75847 1.5346q0 0.8643 0.56444 1.3758 0.57327 0.50271 1.5522 0.50271 1.3494 0 2.1608-0.9525 0.8202-0.96132 0.8202-2.5488v-0.3616zm3.2367-0.67028v5.6356h-1.6228v-1.4993q-0.55562 0.89958-1.3846 1.3317-0.82903 0.42333-2.0285 0.42333-1.5169 0-2.4165-0.84667-0.89077-0.85548-0.89077-2.2842 0-1.6669 1.1112-2.5135 1.1201-0.84667 3.3338-0.84667h2.2754v-0.15875q0-1.1201-0.74083-1.7286-0.73201-0.61736-2.0638-0.61736-0.84666 0-1.6492 0.20285t-1.5434 0.60854v-1.4993q0.89076-0.34396 1.7286-0.51153 0.83784-0.17639 1.6316-0.17639 2.1431 0 3.2015 1.1112 1.0583 1.1112 1.0583 3.369z"/>
   <path id="path882" d="m401.39 73.568v2.8046h3.3426v1.2612h-3.3426v5.3622q0 1.2083 0.32632 1.5522 0.33513 0.34396 1.3494 0.34396h1.6669v1.3582h-1.6669q-1.8785 0-2.5929-0.69674-0.71438-0.70556-0.71438-2.5576v-5.3622h-1.1906v-1.2612h1.1906v-2.8046z"/>
   <path id="path884" d="m410.7 77.51q-1.3053 0-2.0638 1.0231-0.75847 1.0142-0.75847 2.7869 0 1.7727 0.74966 2.7958 0.75847 1.0142 2.0726 1.0142 1.2965 0 2.0549-1.0231 0.75847-1.0231 0.75847-2.7869 0-1.7551-0.75847-2.7781-0.75847-1.0319-2.0549-1.0319zm0-1.3758q2.1167 0 3.3249 1.3758t1.2083 3.81q0 2.4253-1.2083 3.81-1.2083 1.3758-3.3249 1.3758-2.1255 0-3.3337-1.3758-1.1994-1.3847-1.1994-3.81 0-2.4342 1.1994-3.81 1.2083-1.3758 3.3337-1.3758z"/>
   <path id="path886" d="m423.64 77.889q-0.2734-0.15875-0.59972-0.22931-0.3175-0.07937-0.70555-0.07937-1.3758 0-2.1167 0.89958-0.73201 0.89076-0.73201 2.5665v5.2035h-1.6316v-9.8778h1.6316v1.5346q0.51153-0.89958 1.3317-1.3317 0.82021-0.44097 1.9932-0.44097 0.16757 0 0.37042 0.02646 0.20285 0.01764 0.44979 0.06174z"/>
  </g>
  <path id="rect10" d="m300 100h180v40h-180z" fill="#fff" stroke="#000" stroke-width="2"/>
  <g id="text14" aria-label="operator++">
   <path id="path890" d="m341.54 117.51q-1.3053 0-2.0638 1.0231-0.75847 1.0142-0.75847 2.7869 0 1.7727 0.74965 2.7958 0.75848 1.0142 2.0726 1.0142 1.2965 0 2.0549-1.023 0.75847-1.0231 0.75847-2.7869 0-1.7551-0.75847-2.7781-0.75847-1.0319-2.0549-1.0319zm0-1.3758q2.1167 0 3.3249 1.3758t1.2083 3.81q0 2.4253-1.2083 3.81-1.2083 1.3758-3.3249 1.3758-2.1255 0-3.3338-1.3758-1.1994-1.3846-1.1994-3.81 0-2.4342 1.1994-3.81 1.2083-1.3758 3.3338-1.3758z"/>
   <path id="path892" d="m350.32 124.77v5.2387h-1.6316v-13.635h1.6316v1.4993q0.51152-0.88195 1.2876-1.3053 0.78493-0.43215 1.8697-0.43215 1.7992 0 2.9192 1.4288 1.1289 1.4288 1.1289 3.7571t-1.1289 3.7571q-1.1201 1.4287-2.9192 1.4287-1.0848 0-1.8697-0.42333-0.77611-0.43215-1.2876-1.3141zm5.521-3.4484q0-1.7904-0.74083-2.8046-0.73201-1.0231-2.0196-1.0231t-2.0285 1.0231q-0.73201 1.0142-0.73201 2.8046 0 1.7903 0.73201 2.8134 0.74083 1.0142 2.0285 1.0142t2.0196-1.0142q0.74083-1.0231 0.74083-2.8134z"/>
   <path id="path894" d="m368.67 120.91v0.79375h-7.4612q0.10583 1.6757 1.0054 2.5576 0.9084 0.87312 2.5224 0.87312 0.93486 0 1.808-0.2293 0.88194-0.22931 1.7462-0.68792v1.5346q-0.87312 0.37042-1.7903 0.56445-0.91722 0.19402-1.8609 0.19402-2.3636 0-3.7483-1.3758-1.3758-1.3758-1.3758-3.7218 0-2.4253 1.3053-3.8453 1.3141-1.4288 3.5366-1.4288 1.9932 0 3.1485 1.2876 1.1642 1.2788 1.1642 3.4837zm-1.6228-0.47625q-0.0176-1.3317-0.74965-2.1255-0.72319-0.79375-1.9226-0.79375-1.3582 0-2.1784 0.76729-0.81138 0.76729-0.93486 2.1608z"/>
   <path id="path896" d="m377.05 117.89q-0.2734-0.15875-0.59972-0.22931-0.3175-0.0794-0.70555-0.0794-1.3758 0-2.1167 0.89958-0.73201 0.89076-0.73201 2.5664v5.2035h-1.6316v-9.8778h1.6316v1.5346q0.51153-0.89959 1.3317-1.3317 0.82021-0.44097 1.9932-0.44097 0.16757 0 0.37042 0.0265 0.20285 0.0176 0.44979 0.0617z"/>
   <path id="path898" d="m383.26 121.28q-1.9667 0-2.7252 0.44979t-0.75847 1.5346q0 0.86431 0.56444 1.3758 0.57326 0.50271 1.5522 0.50271 1.3494 0 2.1608-0.9525 0.82021-0.96132 0.82021-2.5488v-0.3616zm3.2367-0.67028v5.6356h-1.6228v-1.4993q-0.55562 0.89958-1.3846 1.3317-0.82903 0.42333-2.0285 0.42333-1.5169 0-2.4165-0.84666-0.89076-0.85549-0.89076-2.2842 0-1.6669 1.1112-2.5135 1.1201-0.84667 3.3338-0.84667h2.2754v-0.15875q0-1.1201-0.74083-1.7286-0.73201-0.61736-2.0638-0.61736-0.84666 0-1.6492 0.20285t-1.5434 0.60854v-1.4993q0.89076-0.34396 1.7286-0.51153 0.83785-0.17639 1.6316-0.17639 2.1431 0 3.2014 1.1112 1.0583 1.1112 1.0583 3.369z"/>
   <path id="path900" d="m391.46 113.57v2.8046h3.3426v1.2612h-3.3426v5.3622q0 1.2083 0.32631 1.5522 0.33514 0.34396 1.3494 0.34396h1.6669v1.3582h-1.6669q-1.8785 0-2.5929-0.69674-0.71437-0.70555-0.71437-2.5576v-5.3622h-1.1906v-1.2612h1.1906v-2.8046z"/>
   <path id="path902" d="m400.77 117.51q-1.3053 0-2.0638 1.0231-0.75847 1.0142-0.75847 2.7869 0 1.7727 0.74965 2.7958 0.75847 1.0142 2.0726 1.0142 1.2964 0 2.0549-1.023 0.75848-1.0231 0.75848-2.7869 0-1.7551-0.75848-2.7781-0.75847-1.0319-2.0549-1.0319zm0-1.3758q2.1167 0 3.3249 1.3758 1.2083 1.3758 1.2083 3.81 0 2.4253-1.2083 3.81-1.2083 1.3758-3.3249 1.3758-2.1255 0-3.3338-1.3758-1.1994-1.3846-1.1994-3.81 0-2.4342 1.1994-3.81 1.2083-1.3758 3.3338-1.3758z"/>
   <path id="path904" d="m413.71 117.89q-0.27341-0.15875-0.59973-0.22931-0.3175-0.0794-0.70555-0.0794-1.3758 0-2.1167 0.89958-0.73202 0.89076-0.73202 2.5664v5.2035h-1.6316v-9.8778h1.6316v1.5346q0.51153-0.89959 1.3317-1.3317 0.8202-0.44097 1.9932-0.44097 0.16757 0 0.37042 0.0265 0.20284 0.0176 0.44979 0.0617z"/>
   <path id="path906" d="m422.03 114.93v4.9124h4.9124v1.4993h-4.9124v4.9124h-1.4817v-4.9124h-4.9124v-1.4993h4.9124v-4.9124z"/>
   <path id="path908" d="m437.17 114.93v4.9124h4.9124v1.4993h-4.9124v4.9124h-1.4817v-4.9124h-4.9124v-1.4993h4.9124v-4.9124z"/>
  </g>
  <path id="rect16" d="m180 200h160v40h-160z" fill="#fff" stroke="#000" stroke-width="2"/>
  <g id="text20" aria-label="input_iterator">
   <path id="path912" d="m200.28 216.37h1.6228v9.8778h-1.6228zm0-3.8453h1.6228v2.0549h-1.6228z"/>
   <path id="path914" d="m213.5 220.29v5.9619h-1.6228v-5.909q0-1.4023-0.54681-2.099-0.5468-0.69673-1.6404-0.69673-1.3141 0-2.0726 0.83784-0.75847 0.83785-0.75847 2.2842v5.5827h-1.6316v-9.8778h1.6316v1.5346q0.58208-0.89077 1.367-1.3317 0.79375-0.44097 1.8256-0.44097 1.7022 0 2.5753 1.0583 0.87312 1.0495 0.87312 3.0956z"/>
   <path id="path916" d="m218.33 224.77v5.2387h-1.6316v-13.635h1.6316v1.4993q0.51152-0.88195 1.2876-1.3053 0.78493-0.43215 1.8697-0.43215 1.7992 0 2.9192 1.4288 1.1289 1.4288 1.1289 3.7571t-1.1289 3.7571q-1.1201 1.4287-2.9192 1.4287-1.0848 0-1.8697-0.42333-0.77611-0.43215-1.2876-1.3141zm5.521-3.4484q0-1.7904-0.74083-2.8046-0.73201-1.0231-2.0196-1.0231t-2.0285 1.0231q-0.73201 1.0142-0.73201 2.8046 0 1.7903 0.73201 2.8134 0.74083 1.0142 2.0285 1.0142t2.0196-1.0142q0.74083-1.0231 0.74083-2.8134z"/>
   <path id="path918" d="m228.06 222.35v-5.9796h1.6228v5.9178q0 1.4023 0.5468 2.1078 0.54681 0.69673 1.6404 0.69673 1.3141 0 2.0726-0.83784 0.7673-0.83785 0.7673-2.2842v-5.6003h1.6228v9.8778h-1.6228v-1.5169q-0.59091 0.89958-1.3758 1.3406-0.77611 0.43215-1.808 0.43215-1.7022 0-2.5841-1.0583-0.88195-1.0583-0.88195-3.0956zm4.0834-6.2177z"/>
   <path id="path920" d="m241.29 213.57v2.8046h3.3426v1.2612h-3.3426v5.3622q0 1.2083 0.32632 1.5522 0.33514 0.34396 1.3494 0.34396h1.6669v1.3582h-1.6669q-1.8785 0-2.5929-0.69674-0.71437-0.70555-0.71437-2.5576v-5.3622h-1.1906v-1.2612h1.1906v-2.8046z"/>
   <path id="path922" d="m254.29 229.25v1.2612h-9.3839v-1.2612z"/>
   <path id="path924" d="m255.81 216.37h1.6228v9.8778h-1.6228zm0-3.8453h1.6228v2.0549h-1.6228z"/>
   <path id="path926" d="m262.43 213.57v2.8046h3.3426v1.2612h-3.3426v5.3622q0 1.2083 0.32632 1.5522 0.33514 0.34396 1.3494 0.34396h1.6669v1.3582h-1.6669q-1.8785 0-2.5929-0.69674-0.71437-0.70555-0.71437-2.5576v-5.3622h-1.1906v-1.2612h1.1906v-2.8046z"/>
   <path id="path928" d="m276.36 220.91v0.79375h-7.4612q0.10583 1.6757 1.0054 2.5576 0.90841 0.87312 2.5224 0.87312 0.93486 0 1.808-0.2293 0.88194-0.22931 1.7462-0.68792v1.5346q-0.87312 0.37042-1.7903 0.56445-0.91722 0.19402-1.8609 0.19402-2.3636 0-3.7483-1.3758-1.3758-1.3758-1.3758-3.7218 0-2.4253 1.3053-3.8453 1.3141-1.4288 3.5366-1.4288 1.9932 0 3.1485 1.2876 1.1642 1.2788 1.1642 3.4837zm-1.6228-0.47625q-0.0176-1.3317-0.74965-2.1255-0.72319-0.79375-1.9226-0.79375-1.3582 0-2.1784 0.76729-0.81139 0.76729-0.93486 2.1608z"/>
   <path id="path930" d="m284.75 217.89q-0.2734-0.15875-0.59972-0.22931-0.3175-0.0794-0.70555-0.0794-1.3758 0-2.1167 0.89958-0.73201 0.89076-0.73201 2.5664v5.2035h-1.6316v-9.8778h1.6316v1.5346q0.51153-0.89959 1.3317-1.3317 0.82021-0.44097 1.9932-0.44097 0.16756 0 0.37041 0.0265 0.20285 0.0176 0.44979 0.0617z"/>
   <path id="path932" d="m290.96 221.28q-1.9667 0-2.7252 0.44979t-0.75847 1.5346q0 0.86431 0.56444 1.3758 0.57327 0.50271 1.5522 0.50271 1.3494 0 2.1608-0.9525 0.82021-0.96132 0.82021-2.5488v-0.3616zm3.2367-0.67028v5.6356h-1.6228v-1.4993q-0.55562 0.89958-1.3846 1.3317-0.82903 0.42333-2.0285 0.42333-1.5169 0-2.4165-0.84666-0.89077-0.85549-0.89077-2.2842 0-1.6669 1.1112-2.5135 1.1201-0.84667 3.3338-0.84667h2.2754v-0.15875q0-1.1201-0.74083-1.7286-0.73201-0.61736-2.0638-0.61736-0.84666 0-1.6492 0.20285t-1.5434 0.60854v-1.4993q0.89076-0.34396 1.7286-0.51153 0.83784-0.17639 1.6316-0.17639 2.1431 0 3.2015 1.1112 1.0583 1.1112 1.0583 3.369z"/>
   <path id="path934" d="m299.15 213.57v2.8046h3.3426v1.2612h-3.3426v5.3622q0 1.2083 0.32632 1.5522 0.33514 0.34396 1.3494 0.34396h1.6669v1.3582h-1.6669q-1.8785 0-2.5929-0.69674-0.71438-0.70555-0.71438-2.5576v-5.3622h-1.1906v-1.2612h1.1906v-2.8046z"/>
   <path id="path936" d="m308.46 217.51q-1.3053 0-2.0638 1.0231-0.75847 1.0142-0.75847 2.7869 0 1.7727 0.74965 2.7958 0.75847 1.0142 2.0726 1.0142 1.2964 0 2.0549-1.023 0.75847-1.0231 0.75847-2.7869 0-1.7551-0.75847-2.7781-0.75848-1.0319-2.0549-1.0319zm0-1.3758q2.1167 0 3.3249 1.3758 1.2083 1.3758 1.2083 3.81 0 2.4253-1.2083 3.81-1.2083 1.3758-3.3249 1.3758-2.1255 0-3.3338-1.3758-1.1994-1.3846-1.1994-3.81 0-2.4342 1.1994-3.81 1.2083-1.3758 3.3338-1.3758z"/>
   <path id="path938" d="m321.4 217.89q-0.27341-0.15875-0.59972-0.22931-0.3175-0.0794-0.70556-0.0794-1.3758 0-2.1167 0.89958-0.73202 0.89076-0.73202 2.5664v5.2035h-1.6316v-9.8778h1.6316v1.5346q0.51153-0.89959 1.3317-1.3317 0.82021-0.44097 1.9932-0.44097 0.16757 0 0.37042 0.0265 0.20284 0.0176 0.44979 0.0617z"/>
  </g>
  <path id="rect22" d="m180 240h160v40h-160z" fill="#fff" stroke="#000" stroke-width="2"/>
  <g id="text26" aria-label="x = *it">
   <path id="path942" d="m240.69 256.37-3.5719 4.8066 3.7571 5.0712h-1.9138l-2.8751-3.8806-2.8751 3.8806h-1.9138l3.8365-5.1682-3.5101-4.7096h1.9138l2.6194 3.519 2.6194-3.519z"/>
   <path id="path944" d="m249.13 258.05h11.307v1.4817h-11.307zm0 3.5983h11.307v1.4993h-11.307z"/>
   <path id="path946" d="m276.59 255.25-3.1662 1.711 3.1662 1.7198-0.51153 0.8643-2.9633-1.7903v3.3249h-1.0054v-3.3249l-2.9633 1.7903-0.51152-0.8643 3.1662-1.7198-3.1662-1.711 0.51152-0.87313 2.9633 1.7904v-3.3249h1.0054v3.3249l2.9633-1.7904z"/>
   <path id="path948" d="m278.83 256.37h1.6228v9.8778h-1.6228zm0-3.8453h1.6228v2.0549h-1.6228z"/>
   <path id="path950" d="m285.44 253.57v2.8046h3.3426v1.2612h-3.3426v5.3622q0 1.2083 0.32632 1.5522 0.33514 0.34396 1.3494 0.34396h1.6669v1.3582h-1.6669q-1.8785 0-2.5929-0.69674-0.71438-0.70555-0.71438-2.5576v-5.3622h-1.1906v-1.2612h1.1906v-2.8046z"/>
  </g>
  <path id="rect28" d="m440 200h160v40h-160z" fill="#fff" stroke="#000" stroke-width="2"/>
  <g id="text32" aria-label="output_iterator">
   <path id="path954" d="m457.55 217.51q-1.3053 0-2.0638 1.0231-0.75847 1.0142-0.75847 2.7869 0 1.7727 0.74965 2.7958 0.75847 1.0142 2.0726 1.0142 1.2965 0 2.0549-1.023 0.75847-1.0231 0.75847-2.7869 0-1.7551-0.75847-2.7781-0.75847-1.0319-2.0549-1.0319zm0-1.3758q2.1167 0 3.3249 1.3758 1.2083 1.3758 1.2083 3.81 0 2.4253-1.2083 3.81-1.2083 1.3758-3.3249 1.3758-2.1255 0-3.3338-1.3758-1.1994-1.3846-1.1994-3.81 0-2.4342 1.1994-3.81 1.2083-1.3758 3.3338-1.3758z"/>
   <path id="path956" d="m464.6 222.35v-5.9796h1.6228v5.9178q0 1.4023 0.54681 2.1078 0.5468 0.69673 1.6404 0.69673 1.3141 0 2.0726-0.83784 0.76729-0.83785 0.76729-2.2842v-5.6003h1.6228v9.8778h-1.6228v-1.5169q-0.5909 0.89958-1.3758 1.3406-0.77611 0.43215-1.808 0.43215-1.7022 0-2.5841-1.0583t-0.88194-3.0956zm4.0834-6.2177z"/>
   <path id="path958" d="m477.83 213.57v2.8046h3.3426v1.2612h-3.3426v5.3622q0 1.2083 0.32632 1.5522 0.33513 0.34396 1.3494 0.34396h1.6669v1.3582h-1.6669q-1.8785 0-2.5929-0.69674-0.71437-0.70555-0.71437-2.5576v-5.3622h-1.1906v-1.2612h1.1906v-2.8046z"/>
   <path id="path960" d="m484.89 224.77v5.2387h-1.6316v-13.635h1.6316v1.4993q0.51153-0.88195 1.2876-1.3053 0.78493-0.43215 1.8697-0.43215 1.7992 0 2.9192 1.4288 1.1289 1.4288 1.1289 3.7571t-1.1289 3.7571q-1.1201 1.4287-2.9192 1.4287-1.0848 0-1.8697-0.42333-0.77611-0.43215-1.2876-1.3141zm5.521-3.4484q0-1.7904-0.74083-2.8046-0.73202-1.0231-2.0196-1.0231-1.2876 0-2.0285 1.0231-0.73202 1.0142-0.73202 2.8046 0 1.7903 0.73202 2.8134 0.74083 1.0142 2.0285 1.0142 1.2876 0 2.0196-1.0142 0.74083-1.0231 0.74083-2.8134z"/>
   <path id="path962" d="m494.62 222.35v-5.9796h1.6228v5.9178q0 1.4023 0.5468 2.1078 0.54681 0.69673 1.6404 0.69673 1.3141 0 2.0726-0.83784 0.76729-0.83785 0.76729-2.2842v-5.6003h1.6228v9.8778h-1.6228v-1.5169q-0.5909 0.89958-1.3758 1.3406-0.77611 0.43215-1.808 0.43215-1.7022 0-2.5841-1.0583-0.88194-1.0583-0.88194-3.0956zm4.0834-6.2177z"/>
   <path id="path964" d="m507.86 213.57v2.8046h3.3426v1.2612h-3.3426v5.3622q0 1.2083 0.32632 1.5522 0.33514 0.34396 1.3494 0.34396h1.6669v1.3582h-1.6669q-1.8785 0-2.5929-0.69674-0.71437-0.70555-0.71437-2.5576v-5.3622h-1.1906v-1.2612h1.1906v-2.8046z"/>
   <path id="path966" d="m520.85 229.25v1.2612h-9.3839v-1.2612z"/>
   <path id="path968" d="m522.37 216.37h1.6228v9.8778h-1.6228zm0-3.8453h1.6228v2.0549h-1.6228z"/>
   <path id="path970" d="m528.99 213.57v2.8046h3.3426v1.2612h-3.3426v5.3622q0 1.2083 0.32632 1.5522 0.33514 0.34396 1.3494 0.34396h1.6669v1.3582h-1.6669q-1.8785 0-2.5929-0.69674-0.71437-0.70555-0.71437-2.5576v-5.3622h-1.1906v-1.2612h1.1906v-2.8046z"/>
   <path id="path972" d="m542.92 220.91v0.79375h-7.4612q0.10583 1.6757 1.0054 2.5576 0.9084 0.87312 2.5224 0.87312 0.93486 0 1.808-0.2293 0.88194-0.22931 1.7462-0.68792v1.5346q-0.87313 0.37042-1.7904 0.56445-0.91722 0.19402-1.8609 0.19402-2.3636 0-3.7483-1.3758-1.3758-1.3758-1.3758-3.7218 0-2.4253 1.3053-3.8453 1.3141-1.4288 3.5366-1.4288 1.9932 0 3.1485 1.2876 1.1642 1.2788 1.1642 3.4837zm-1.6228-0.47625q-0.0176-1.3317-0.74966-2.1255-0.72319-0.79375-1.9226-0.79375-1.3582 0-2.1784 0.76729-0.81139 0.76729-0.93486 2.1608z"/>
   <path id="path974" d="m551.31 217.89q-0.27341-0.15875-0.59972-0.22931-0.3175-0.0794-0.70556-0.0794-1.3758 0-2.1167 0.89958-0.73202 0.89076-0.73202 2.5664v5.2035h-1.6316v-9.8778h1.6316v1.5346q0.51153-0.89959 1.3317-1.3317 0.82021-0.44097 1.9932-0.44097 0.16757 0 0.37042 0.0265 0.20284 0.0176 0.44979 0.0617z"/>
   <path id="path976" d="m557.52 221.28q-1.9667 0-2.7252 0.44979-0.75848 0.44979-0.75848 1.5346 0 0.86431 0.56445 1.3758 0.57326 0.50271 1.5522 0.50271 1.3494 0 2.1608-0.9525 0.82021-0.96132 0.82021-2.5488v-0.3616zm3.2367-0.67028v5.6356h-1.6228v-1.4993q-0.55563 0.89958-1.3846 1.3317-0.82903 0.42333-2.0285 0.42333-1.517 0-2.4165-0.84666-0.89076-0.85549-0.89076-2.2842 0-1.6669 1.1112-2.5135 1.1201-0.84667 3.3337-0.84667h2.2754v-0.15875q0-1.1201-0.74084-1.7286-0.73201-0.61736-2.0637-0.61736-0.84667 0-1.6492 0.20285t-1.5434 0.60854v-1.4993q0.89076-0.34396 1.7286-0.51153 0.83785-0.17639 1.6316-0.17639 2.1431 0 3.2014 1.1112t1.0583 3.369z"/>
   <path id="path978" d="m565.71 213.57v2.8046h3.3426v1.2612h-3.3426v5.3622q0 1.2083 0.32632 1.5522 0.33514 0.34396 1.3494 0.34396h1.6669v1.3582h-1.6669q-1.8785 0-2.5929-0.69674-0.71437-0.70555-0.71437-2.5576v-5.3622h-1.1906v-1.2612h1.1906v-2.8046z"/>
   <path id="path980" d="m575.02 217.51q-1.3053 0-2.0638 1.0231-0.75847 1.0142-0.75847 2.7869 0 1.7727 0.74965 2.7958 0.75847 1.0142 2.0726 1.0142 1.2965 0 2.0549-1.023 0.75847-1.0231 0.75847-2.7869 0-1.7551-0.75847-2.7781-0.75847-1.0319-2.0549-1.0319zm0-1.3758q2.1167 0 3.3249 1.3758 1.2083 1.3758 1.2083 3.81 0 2.4253-1.2083 3.81-1.2083 1.3758-3.3249 1.3758-2.1255 0-3.3338-1.3758-1.1994-1.3846-1.1994-3.81 0-2.4342 1.1994-3.81 1.2083-1.3758 3.3338-1.3758z"/>
   <path id="path982" d="m587.96 217.89q-0.2734-0.15875-0.59972-0.22931-0.3175-0.0794-0.70555-0.0794-1.3758 0-2.1167 0.89958-0.73201 0.89076-0.73201 2.5664v5.2035h-1.6316v-9.8778h1.6316v1.5346q0.51153-0.89959 1.3317-1.3317 0.82021-0.44097 1.9932-0.44097 0.16757 0 0.37042 0.0265 0.20285 0.0176 0.44979 0.0617z"/>
  </g>
  <path id="rect34" d="m440 240h160v40h-160z" fill="#fff" stroke="#000" stroke-width="2"/>
  <g id="text38" aria-label="*it = x">
   <path id="path986" d="m499.27 255.25-3.1662 1.711 3.1662 1.7198-0.51153 0.8643-2.9633-1.7903v3.3249h-1.0054v-3.3249l-2.9633 1.7903-0.51153-0.8643 3.1662-1.7198-3.1662-1.711 0.51153-0.87313 2.9633 1.7904v-3.3249h1.0054v3.3249l2.9633-1.7904z"/>
   <path id="path988" d="m501.51 256.37h1.6228v9.8778h-1.6228zm0-3.8453h1.6228v2.0549h-1.6228z"/>
   <path id="path990" d="m508.12 253.57v2.8046h3.3426v1.2612h-3.3426v5.3622q0 1.2083 0.32632 1.5522 0.33514 0.34396 1.3494 0.34396h1.6669v1.3582h-1.6669q-1.8785 0-2.5929-0.69674-0.71437-0.70555-0.71437-2.5576v-5.3622h-1.1906v-1.2612h1.1906v-2.8046z"/>
   <path id="path992" d="m519.57 258.05h11.307v1.4817h-11.307zm0 3.5983h11.307v1.4993h-11.307z"/>
   <path id="path994" d="m548.45 256.37-3.5719 4.8066 3.7571 5.0712h-1.9138l-2.8751-3.8806-2.8751 3.8806h-1.9138l3.8364-5.1682-3.5101-4.7096h1.9138l2.6194 3.519 2.6194-3.519z"/>
  </g>
  <path id="rect40" d="m280 340h220v40h-220z" fill="#fff" stroke="#000" stroke-width="2"/>
  <g id="text44" aria-label="forward_iterator">
   <path id="path998" d="m323.89 352.53v1.3494h-1.5522q-0.87312 0-1.2171 0.35278-0.33514 0.35278-0.33514 1.27v0.87312h2.6723v1.2612h-2.6723v8.6166h-1.6316v-8.6166h-1.5522v-1.2612h1.5522v-0.68791q0-1.6492 0.76729-2.3989 0.76729-0.75847 2.4342-0.75847z"/>
   <path id="path1000" d="m329.07 357.51q-1.3053 0-2.0638 1.0231-0.75847 1.0142-0.75847 2.7869 0 1.7727 0.74965 2.7958 0.75848 1.0142 2.0726 1.0142 1.2965 0 2.0549-1.023 0.75847-1.0231 0.75847-2.7869 0-1.7551-0.75847-2.7781-0.75847-1.0319-2.0549-1.0319zm0-1.3758q2.1167 0 3.3249 1.3758t1.2083 3.81q0 2.4253-1.2083 3.81-1.2083 1.3758-3.3249 1.3758-2.1255 0-3.3337-1.3758-1.1994-1.3846-1.1994-3.81 0-2.4342 1.1994-3.81 1.2083-1.3758 3.3337-1.3758z"/>
   <path id="path1002" d="m342 357.89q-0.2734-0.15875-0.59972-0.22931-0.3175-0.0794-0.70555-0.0794-1.3758 0-2.1167 0.89958-0.73201 0.89076-0.73201 2.5664v5.2035h-1.6316v-9.8778h1.6316v1.5346q0.51153-0.89959 1.3317-1.3317 0.82021-0.44097 1.9932-0.44097 0.16757 0 0.37042 0.0265 0.20285 0.0176 0.44979 0.0617z"/>
   <path id="path1004" d="m342.78 356.37h1.6228l2.0285 7.7082 2.0196-7.7082h1.9138l2.0285 7.7082 2.0196-7.7082h1.6228l-2.5841 9.8778h-1.9138l-2.1255-8.0962-2.1343 8.0962h-1.9138z"/>
   <path id="path1006" d="m362.99 361.28q-1.9667 0-2.7252 0.44979t-0.75847 1.5346q0 0.86431 0.56444 1.3758 0.57326 0.50271 1.5522 0.50271 1.3494 0 2.1608-0.9525 0.82021-0.96132 0.82021-2.5488v-0.3616zm3.2367-0.67028v5.6356h-1.6228v-1.4993q-0.55562 0.89958-1.3846 1.3317-0.82903 0.42333-2.0285 0.42333-1.5169 0-2.4165-0.84666-0.89076-0.85549-0.89076-2.2842 0-1.6669 1.1112-2.5135 1.1201-0.84667 3.3338-0.84667h2.2754v-0.15875q0-1.1201-0.74083-1.7286-0.73201-0.61736-2.0638-0.61736-0.84667 0-1.6492 0.20285-0.80257 0.20285-1.5434 0.60854v-1.4993q0.89076-0.34396 1.7286-0.51153 0.83785-0.17639 1.6316-0.17639 2.1431 0 3.2014 1.1112 1.0583 1.1112 1.0583 3.369z"/>
   <path id="path1008" d="m375.31 357.89q-0.2734-0.15875-0.59972-0.22931-0.3175-0.0794-0.70555-0.0794-1.3758 0-2.1167 0.89958-0.73201 0.89076-0.73201 2.5664v5.2035h-1.6316v-9.8778h1.6316v1.5346q0.51153-0.89959 1.3317-1.3317 0.8202-0.44097 1.9932-0.44097 0.16757 0 0.37041 0.0265 0.20285 0.0176 0.44979 0.0617z"/>
   <path id="path1010" d="m383.21 357.87v-5.3446h1.6228v13.723h-1.6228v-1.4817q-0.51152 0.88194-1.2964 1.3141-0.77611 0.42333-1.8697 0.42333-1.7904 0-2.9192-1.4287-1.1201-1.4288-1.1201-3.7571t1.1201-3.7571q1.1289-1.4288 2.9192-1.4288 1.0936 0 1.8697 0.43215 0.78493 0.42333 1.2964 1.3053zm-5.5298 3.4484q0 1.7903 0.73201 2.8134 0.74083 1.0142 2.0285 1.0142t2.0285-1.0142q0.74083-1.0231 0.74083-2.8134 0-1.7904-0.74083-2.8046-0.74083-1.0231-2.0285-1.0231t-2.0285 1.0231q-0.73201 1.0142-0.73201 2.8046z"/>
   <path id="path1012" d="m395.68 369.25v1.2612h-9.3839v-1.2612z"/>
   <path id="path1014" d="m397.21 356.37h1.6228v9.8778h-1.6228zm0-3.8453h1.6228v2.0549h-1.6228z"/>
   <path id="path1016" d="m403.82 353.57v2.8046h3.3426v1.2612h-3.3426v5.3622q0 1.2083 0.32632 1.5522 0.33514 0.34396 1.3494 0.34396h1.6669v1.3582h-1.6669q-1.8785 0-2.5929-0.69674-0.71437-0.70555-0.71437-2.5576v-5.3622h-1.1906v-1.2612h1.1906v-2.8046z"/>
   <path id="path1018" d="m417.75 360.91v0.79375h-7.4612q0.10584 1.6757 1.0054 2.5576 0.9084 0.87312 2.5224 0.87312 0.93486 0 1.808-0.2293 0.88194-0.22931 1.7462-0.68792v1.5346q-0.87313 0.37042-1.7904 0.56445-0.91722 0.19402-1.8609 0.19402-2.3636 0-3.7483-1.3758-1.3758-1.3758-1.3758-3.7218 0-2.4253 1.3053-3.8453 1.3141-1.4288 3.5366-1.4288 1.9932 0 3.1485 1.2876 1.1642 1.2788 1.1642 3.4837zm-1.6228-0.47625q-0.0176-1.3317-0.74965-2.1255-0.7232-0.79375-1.9226-0.79375-1.3582 0-2.1784 0.76729-0.81139 0.76729-0.93486 2.1608z"/>
   <path id="path1020" d="m426.14 357.89q-0.27341-0.15875-0.59972-0.22931-0.3175-0.0794-0.70556-0.0794-1.3758 0-2.1167 0.89958-0.73202 0.89076-0.73202 2.5664v5.2035h-1.6316v-9.8778h1.6316v1.5346q0.51153-0.89959 1.3317-1.3317 0.82021-0.44097 1.9932-0.44097 0.16757 0 0.37042 0.0265 0.20284 0.0176 0.44979 0.0617z"/>
   <path id="path1022" d="m432.35 361.28q-1.9667 0-2.7252 0.44979-0.75847 0.44979-0.75847 1.5346 0 0.86431 0.56445 1.3758 0.57326 0.50271 1.5522 0.50271 1.3494 0 2.1608-0.9525 0.82021-0.96132 0.82021-2.5488v-0.3616zm3.2367-0.67028v5.6356h-1.6228v-1.4993q-0.55563 0.89958-1.3846 1.3317-0.82903 0.42333-2.0285 0.42333-1.517 0-2.4165-0.84666-0.89076-0.85549-0.89076-2.2842 0-1.6669 1.1112-2.5135 1.1201-0.84667 3.3337-0.84667h2.2754v-0.15875q0-1.1201-0.74084-1.7286-0.73201-0.61736-2.0637-0.61736-0.84667 0-1.6492 0.20285t-1.5434 0.60854v-1.4993q0.89076-0.34396 1.7286-0.51153 0.83785-0.17639 1.6316-0.17639 2.1431 0 3.2014 1.1112t1.0583 3.369z"/>
   <path id="path1024" d="m440.54 353.57v2.8046h3.3426v1.2612h-3.3426v5.3622q0 1.2083 0.32632 1.5522 0.33514 0.34396 1.3494 0.34396h1.6669v1.3582h-1.6669q-1.8785 0-2.5929-0.69674-0.71437-0.70555-0.71437-2.5576v-5.3622h-1.1906v-1.2612h1.1906v-2.8046z"/>
   <path id="path1026" d="m449.86 357.51q-1.3053 0-2.0638 1.0231-0.75847 1.0142-0.75847 2.7869 0 1.7727 0.74965 2.7958 0.75847 1.0142 2.0726 1.0142 1.2965 0 2.0549-1.023 0.75847-1.0231 0.75847-2.7869 0-1.7551-0.75847-2.7781-0.75847-1.0319-2.0549-1.0319zm0-1.3758q2.1167 0 3.3249 1.3758 1.2083 1.3758 1.2083 3.81 0 2.4253-1.2083 3.81-1.2083 1.3758-3.3249 1.3758-2.1255 0-3.3338-1.3758-1.1994-1.3846-1.1994-3.81 0-2.4342 1.1994-3.81 1.2083-1.3758 3.3338-1.3758z"/>
   <path id="path1028" d="m462.8 357.89q-0.2734-0.15875-0.59972-0.22931-0.3175-0.0794-0.70556-0.0794-1.3758 0-2.1167 0.89958-0.73201 0.89076-0.73201 2.5664v5.2035h-1.6316v-9.8778h1.6316v1.5346q0.51152-0.89959 1.3317-1.3317 0.82021-0.44097 1.9932-0.44097 0.16757 0 0.37042 0.0265 0.20285 0.0176 0.44979 0.0617z"/>
  </g>
  <path id="rect46" d="m280 380h220v40h-220z" fill="#fff" stroke="#000" stroke-width="2"/>
  <path id="rect48" d="m280 480h220v40h-220z" fill="#fff" stroke="#000" stroke-width="2"/>
  <g id="text52" aria-label="bidirectional_iterator">
   <path id="path1033" d="m304.74 501.32q0-1.7904-0.74083-2.8046-0.73201-1.0231-2.0196-1.0231t-2.0285 1.0231q-0.73201 1.0142-0.73201 2.8046 0 1.7903 0.73201 2.8134 0.74083 1.0142 2.0285 1.0142t2.0196-1.0142q0.74083-1.0231 0.74083-2.8134zm-5.521-3.4484q0.51152-0.88195 1.2876-1.3053 0.78493-0.43215 1.8697-0.43215 1.7992 0 2.9192 1.4288 1.1289 1.4288 1.1289 3.7571t-1.1289 3.7571q-1.1201 1.4287-2.9192 1.4287-1.0848 0-1.8697-0.42333-0.77611-0.43215-1.2876-1.3141v1.4817h-1.6316v-13.723h1.6316z"/>
   <path id="path1035" d="m309.12 496.37h1.6228v9.8778h-1.6228zm0-3.8453h1.6228v2.0549h-1.6228z"/>
   <path id="path1037" d="m320.63 497.87v-5.3446h1.6228v13.723h-1.6228v-1.4817q-0.51152 0.88194-1.2964 1.3141-0.77611 0.42333-1.8697 0.42333-1.7904 0-2.9192-1.4287-1.1201-1.4288-1.1201-3.7571t1.1201-3.7571q1.1289-1.4288 2.9192-1.4288 1.0936 0 1.8697 0.43215 0.78493 0.42333 1.2964 1.3053zm-5.5298 3.4484q0 1.7903 0.73201 2.8134 0.74083 1.0142 2.0285 1.0142t2.0285-1.0142q0.74083-1.0231 0.74083-2.8134 0-1.7904-0.74083-2.8046-0.74083-1.0231-2.0285-1.0231t-2.0285 1.0231q-0.73201 1.0142-0.73201 2.8046z"/>
   <path id="path1039" d="m325.59 496.37h1.6228v9.8778h-1.6228zm0-3.8453h1.6228v2.0549h-1.6228z"/>
   <path id="path1041" d="m336.32 497.89q-0.27341-0.15875-0.59973-0.22931-0.31749-0.0794-0.70555-0.0794-1.3758 0-2.1167 0.89958-0.73202 0.89076-0.73202 2.5664v5.2035h-1.6316v-9.8778h1.6316v1.5346q0.51153-0.89959 1.3317-1.3317 0.8202-0.44097 1.9932-0.44097 0.16757 0 0.37042 0.0265 0.20284 0.0176 0.44979 0.0617z"/>
   <path id="path1043" d="m346.11 500.91v0.79375h-7.4612q0.10583 1.6757 1.0054 2.5576 0.9084 0.87312 2.5224 0.87312 0.93486 0 1.808-0.2293 0.88195-0.22931 1.7462-0.68792v1.5346q-0.87312 0.37042-1.7903 0.56445-0.91722 0.19402-1.8609 0.19402-2.3636 0-3.7483-1.3758-1.3758-1.3758-1.3758-3.7218 0-2.4253 1.3053-3.8453 1.3141-1.4288 3.5366-1.4288 1.9932 0 3.1485 1.2876 1.1642 1.2788 1.1642 3.4837zm-1.6228-0.47625q-0.0176-1.3317-0.74965-2.1255-0.72319-0.79375-1.9226-0.79375-1.3582 0-2.1784 0.76729-0.81139 0.76729-0.93486 2.1608z"/>
   <path id="path1045" d="m355.88 496.75v1.5169q-0.68791-0.37923-1.3846-0.56444-0.68792-0.19403-1.3935-0.19403-1.5787 0-2.4518 1.0054-0.87313 0.99659-0.87313 2.8046 0 1.808 0.87313 2.8134 0.87312 0.99659 2.4518 0.99659 0.70555 0 1.3935-0.18521 0.69674-0.19402 1.3846-0.57326v1.4993q-0.6791 0.3175-1.4111 0.47625-0.72319 0.15875-1.5434 0.15875-2.2313 0-3.5454-1.4023-1.3141-1.4023-1.3141-3.7835 0-2.4165 1.3229-3.8012 1.3317-1.3846 3.6424-1.3846 0.74966 0 1.464 0.15875 0.71437 0.14993 1.3846 0.45861z"/>
   <path id="path1047" d="m360.32 493.57v2.8046h3.3426v1.2612h-3.3426v5.3622q0 1.2083 0.32632 1.5522 0.33513 0.34396 1.3494 0.34396h1.6669v1.3582h-1.6669q-1.8785 0-2.5929-0.69674-0.71438-0.70555-0.71438-2.5576v-5.3622h-1.1906v-1.2612h1.1906v-2.8046z"/>
   <path id="path1049" d="m365.81 496.37h1.6228v9.8778h-1.6228zm0-3.8453h1.6228v2.0549h-1.6228z"/>
   <path id="path1051" d="m374.65 497.51q-1.3053 0-2.0638 1.0231-0.75847 1.0142-0.75847 2.7869 0 1.7727 0.74965 2.7958 0.75847 1.0142 2.0726 1.0142 1.2964 0 2.0549-1.023 0.75847-1.0231 0.75847-2.7869 0-1.7551-0.75847-2.7781-0.75847-1.0319-2.0549-1.0319zm0-1.3758q2.1167 0 3.3249 1.3758t1.2083 3.81q0 2.4253-1.2083 3.81-1.2083 1.3758-3.3249 1.3758-2.1255 0-3.3338-1.3758-1.1994-1.3846-1.1994-3.81 0-2.4342 1.1994-3.81 1.2083-1.3758 3.3338-1.3758z"/>
   <path id="path1053" d="m390.07 500.29v5.9619h-1.6228v-5.909q0-1.4023-0.54681-2.099-0.5468-0.69673-1.6404-0.69673-1.3141 0-2.0726 0.83784-0.75847 0.83785-0.75847 2.2842v5.5827h-1.6316v-9.8778h1.6316v1.5346q0.58208-0.89077 1.367-1.3317 0.79375-0.44097 1.8256-0.44097 1.7022 0 2.5753 1.0583 0.87313 1.0495 0.87313 3.0956z"/>
   <path id="path1055" d="m397.81 501.28q-1.9667 0-2.7252 0.44979t-0.75847 1.5346q0 0.86431 0.56445 1.3758 0.57326 0.50271 1.5522 0.50271 1.3494 0 2.1608-0.9525 0.8202-0.96132 0.8202-2.5488v-0.3616zm3.2367-0.67028v5.6356h-1.6228v-1.4993q-0.55562 0.89958-1.3846 1.3317-0.82902 0.42333-2.0285 0.42333-1.5169 0-2.4165-0.84666-0.89076-0.85549-0.89076-2.2842 0-1.6669 1.1112-2.5135 1.1201-0.84667 3.3338-0.84667h2.2754v-0.15875q0-1.1201-0.74083-1.7286-0.73201-0.61736-2.0638-0.61736-0.84666 0-1.6492 0.20285t-1.5434 0.60854v-1.4993q0.89076-0.34396 1.7286-0.51153 0.83784-0.17639 1.6316-0.17639 2.1431 0 3.2015 1.1112t1.0583 3.369z"/>
   <path id="path1057" d="m404.4 492.53h1.6228v13.723h-1.6228z"/>
   <path id="path1059" d="m416.92 509.25v1.2612h-9.3839v-1.2612z"/>
   <path id="path1061" d="m418.44 496.37h1.6228v9.8778h-1.6228zm0-3.8453h1.6228v2.0549h-1.6228z"/>
   <path id="path1063" d="m425.06 493.57v2.8046h3.3426v1.2612h-3.3426v5.3622q0 1.2083 0.32632 1.5522 0.33514 0.34396 1.3494 0.34396h1.6669v1.3582h-1.6669q-1.8785 0-2.5929-0.69674-0.71437-0.70555-0.71437-2.5576v-5.3622h-1.1906v-1.2612h1.1906v-2.8046z"/>
   <path id="path1065" d="m438.99 500.91v0.79375h-7.4612q0.10583 1.6757 1.0054 2.5576 0.9084 0.87312 2.5224 0.87312 0.93486 0 1.808-0.2293 0.88194-0.22931 1.7462-0.68792v1.5346q-0.87313 0.37042-1.7904 0.56445-0.91722 0.19402-1.8609 0.19402-2.3636 0-3.7483-1.3758-1.3758-1.3758-1.3758-3.7218 0-2.4253 1.3053-3.8453 1.3141-1.4288 3.5366-1.4288 1.9932 0 3.1485 1.2876 1.1642 1.2788 1.1642 3.4837zm-1.6228-0.47625q-0.0176-1.3317-0.74966-2.1255-0.72319-0.79375-1.9226-0.79375-1.3582 0-2.1784 0.76729-0.81139 0.76729-0.93486 2.1608z"/>
   <path id="path1067" d="m447.38 497.89q-0.2734-0.15875-0.59972-0.22931-0.3175-0.0794-0.70555-0.0794-1.3758 0-2.1167 0.89958-0.73201 0.89076-0.73201 2.5664v5.2035h-1.6316v-9.8778h1.6316v1.5346q0.51153-0.89959 1.3317-1.3317 0.82021-0.44097 1.9932-0.44097 0.16757 0 0.37041 0.0265 0.20285 0.0176 0.44979 0.0617z"/>
   <path id="path1069" d="m453.59 501.28q-1.9667 0-2.7252 0.44979t-0.75847 1.5346q0 0.86431 0.56444 1.3758 0.57327 0.50271 1.5522 0.50271 1.3494 0 2.1608-0.9525 0.8202-0.96132 0.8202-2.5488v-0.3616zm3.2367-0.67028v5.6356h-1.6228v-1.4993q-0.55562 0.89958-1.3846 1.3317-0.82902 0.42333-2.0285 0.42333-1.5169 0-2.4165-0.84666-0.89077-0.85549-0.89077-2.2842 0-1.6669 1.1112-2.5135 1.1201-0.84667 3.3338-0.84667h2.2754v-0.15875q0-1.1201-0.74083-1.7286-0.73201-0.61736-2.0638-0.61736-0.84666 0-1.6492 0.20285t-1.5434 0.60854v-1.4993q0.89076-0.34396 1.7286-0.51153 0.83784-0.17639 1.6316-0.17639 2.1431 0 3.2015 1.1112 1.0583 1.1112 1.0583 3.369z"/>
   <path id="path1071" d="m461.78 493.57v2.8046h3.3426v1.2612h-3.3426v5.3622q0 1.2083 0.32631 1.5522 0.33514 0.34396 1.3494 0.34396h1.6669v1.3582h-1.6669q-1.8785 0-2.5929-0.69674-0.71437-0.70555-0.71437-2.5576v-5.3622h-1.1906v-1.2612h1.1906v-2.8046z"/>
   <path id="path1073" d="m471.09 497.51q-1.3053 0-2.0638 1.0231-0.75847 1.0142-0.75847 2.7869 0 1.7727 0.74965 2.7958 0.75847 1.0142 2.0726 1.0142 1.2965 0 2.0549-1.023 0.75847-1.0231 0.75847-2.7869 0-1.7551-0.75847-2.7781-0.75847-1.0319-2.0549-1.0319zm0-1.3758q2.1167 0 3.3249 1.3758 1.2083 1.3758 1.2083 3.81 0 2.4253-1.2083 3.81-1.2083 1.3758-3.3249 1.3758-2.1255 0-3.3338-1.3758-1.1994-1.3846-1.1994-3.81 0-2.4342 1.1994-3.81 1.2083-1.3758 3.3338-1.3758z"/>
   <path id="path1075" d="m484.03 497.89q-0.2734-0.15875-0.59972-0.22931-0.3175-0.0794-0.70556-0.0794-1.3758 0-2.1167 0.89958-0.73202 0.89076-0.73202 2.5664v5.2035h-1.6316v-9.8778h1.6316v1.5346q0.51153-0.89959 1.3317-1.3317 0.82021-0.44097 1.9932-0.44097 0.16757 0 0.37042 0.0265 0.20284 0.0176 0.44979 0.0617z"/>
  </g>
  <path id="rect54" d="m280 520h220v40h-220z" fill="#fff" stroke="#000" stroke-width="2"/>
  <g id="text58" aria-label="operator--">
   <path id="path1079" d="m350.73 537.51q-1.3053 0-2.0638 1.0231-0.75847 1.0142-0.75847 2.7869 0 1.7727 0.74965 2.7958 0.75848 1.0142 2.0726 1.0142 1.2965 0 2.0549-1.023 0.75847-1.0231 0.75847-2.7869 0-1.7551-0.75847-2.7781-0.75847-1.0319-2.0549-1.0319zm0-1.3758q2.1167 0 3.3249 1.3758t1.2083 3.81q0 2.4253-1.2083 3.81-1.2083 1.3758-3.3249 1.3758-2.1255 0-3.3337-1.3758-1.1994-1.3846-1.1994-3.81 0-2.4342 1.1994-3.81 1.2083-1.3758 3.3337-1.3758z"/>
   <path id="path1081" d="m359.51 544.77v5.2387h-1.6316v-13.635h1.6316v1.4993q0.51152-0.88195 1.2876-1.3053 0.78493-0.43215 1.8697-0.43215 1.7992 0 2.9192 1.4288 1.1289 1.4288 1.1289 3.7571t-1.1289 3.7571q-1.1201 1.4287-2.9192 1.4287-1.0848 0-1.8697-0.42333-0.77611-0.43215-1.2876-1.3141zm5.521-3.4484q0-1.7904-0.74083-2.8046-0.73201-1.0231-2.0196-1.0231t-2.0285 1.0231q-0.73201 1.0142-0.73201 2.8046 0 1.7903 0.73201 2.8134 0.74083 1.0142 2.0285 1.0142t2.0196-1.0142q0.74083-1.0231 0.74083-2.8134z"/>
   <path id="path1083" d="m377.86 540.91v0.79375h-7.4612q0.10583 1.6757 1.0054 2.5576 0.9084 0.87312 2.5224 0.87312 0.93486 0 1.808-0.2293 0.88194-0.22931 1.7462-0.68792v1.5346q-0.87312 0.37042-1.7903 0.56445-0.91722 0.19402-1.8609 0.19402-2.3636 0-3.7483-1.3758-1.3758-1.3758-1.3758-3.7218 0-2.4253 1.3053-3.8453 1.3141-1.4288 3.5366-1.4288 1.9932 0 3.1485 1.2876 1.1642 1.2788 1.1642 3.4837zm-1.6228-0.47625q-0.0176-1.3317-0.74965-2.1255-0.72319-0.79375-1.9226-0.79375-1.3582 0-2.1784 0.76729-0.81138 0.76729-0.93486 2.1608z"/>
   <path id="path1085" d="m386.24 537.89q-0.2734-0.15875-0.59972-0.22931-0.3175-0.0794-0.70555-0.0794-1.3758 0-2.1167 0.89958-0.73201 0.89076-0.73201 2.5664v5.2035h-1.6316v-9.8778h1.6316v1.5346q0.51153-0.89959 1.3317-1.3317 0.82021-0.44097 1.9932-0.44097 0.16757 0 0.37042 0.0265 0.20285 0.0176 0.44979 0.0617z"/>
   <path id="path1087" d="m392.45 541.28q-1.9667 0-2.7252 0.44979t-0.75847 1.5346q0 0.86431 0.56444 1.3758 0.57326 0.50271 1.5522 0.50271 1.3494 0 2.1608-0.9525 0.82021-0.96132 0.82021-2.5488v-0.3616zm3.2367-0.67028v5.6356h-1.6228v-1.4993q-0.55562 0.89958-1.3846 1.3317-0.82903 0.42333-2.0285 0.42333-1.5169 0-2.4165-0.84666-0.89077-0.85549-0.89077-2.2842 0-1.6669 1.1112-2.5135 1.1201-0.84667 3.3338-0.84667h2.2754v-0.15875q0-1.1201-0.74083-1.7286-0.73201-0.61736-2.0638-0.61736-0.84666 0-1.6492 0.20285t-1.5434 0.60854v-1.4993q0.89076-0.34396 1.7286-0.51153 0.83785-0.17639 1.6316-0.17639 2.1431 0 3.2014 1.1112 1.0583 1.1112 1.0583 3.369z"/>
   <path id="path1089" d="m400.65 533.57v2.8046h3.3426v1.2612h-3.3426v5.3622q0 1.2083 0.32631 1.5522 0.33514 0.34396 1.3494 0.34396h1.6669v1.3582h-1.6669q-1.8785 0-2.5929-0.69674-0.71437-0.70555-0.71437-2.5576v-5.3622h-1.1906v-1.2612h1.1906v-2.8046z"/>
   <path id="path1091" d="m409.96 537.51q-1.3053 0-2.0638 1.0231-0.75847 1.0142-0.75847 2.7869 0 1.7727 0.74965 2.7958 0.75847 1.0142 2.0726 1.0142 1.2964 0 2.0549-1.023 0.75848-1.0231 0.75848-2.7869 0-1.7551-0.75848-2.7781-0.75847-1.0319-2.0549-1.0319zm0-1.3758q2.1167 0 3.3249 1.3758 1.2083 1.3758 1.2083 3.81 0 2.4253-1.2083 3.81-1.2083 1.3758-3.3249 1.3758-2.1255 0-3.3338-1.3758-1.1994-1.3846-1.1994-3.81 0-2.4342 1.1994-3.81 1.2083-1.3758 3.3338-1.3758z"/>
   <path id="path1093" d="m422.9 537.89q-0.27341-0.15875-0.59973-0.22931-0.3175-0.0794-0.70555-0.0794-1.3758 0-2.1167 0.89958-0.73202 0.89076-0.73202 2.5664v5.2035h-1.6316v-9.8778h1.6316v1.5346q0.51153-0.89959 1.3317-1.3317 0.8202-0.44097 1.9932-0.44097 0.16757 0 0.37042 0.0265 0.20284 0.0176 0.44979 0.0617z"/>
   <path id="path1095" d="m422.63 540.58h4.7537v1.4464h-4.7537z"/>
   <path id="path1097" d="m429.16 540.58h4.7537v1.4464h-4.7537z"/>
  </g>
  <path id="rect60" d="m260 620h260v40h-260z" fill="#fff" stroke="#000" stroke-width="2"/>
  <g id="text64" aria-label="random_access_iterator">
   <path id="path1101" d="m289.23 637.89q-0.2734-0.15875-0.59972-0.22931-0.3175-0.0794-0.70556-0.0794-1.3758 0-2.1167 0.89958-0.73201 0.89076-0.73201 2.5664v5.2035h-1.6316v-9.8778h1.6316v1.5346q0.51152-0.89959 1.3317-1.3317 0.82021-0.44097 1.9932-0.44097 0.16757 0 0.37042 0.0265 0.20285 0.0176 0.44979 0.0617z"/>
   <path id="path1103" d="m295.44 641.28q-1.9667 0-2.7252 0.44979-0.75847 0.44979-0.75847 1.5346 0 0.86431 0.56445 1.3758 0.57326 0.50271 1.5522 0.50271 1.3494 0 2.1608-0.9525 0.82021-0.96132 0.82021-2.5488v-0.3616zm3.2367-0.67028v5.6356h-1.6228v-1.4993q-0.55563 0.89958-1.3846 1.3317-0.82903 0.42333-2.0285 0.42333-1.517 0-2.4165-0.84666-0.89076-0.85549-0.89076-2.2842 0-1.6669 1.1112-2.5135 1.1201-0.84667 3.3337-0.84667h2.2754v-0.15875q0-1.1201-0.74084-1.7286-0.73201-0.61736-2.0637-0.61736-0.84667 0-1.6492 0.20285t-1.5434 0.60854v-1.4993q0.89076-0.34396 1.7286-0.51153 0.83785-0.17639 1.6316-0.17639 2.1431 0 3.2014 1.1112t1.0583 3.369z"/>
   <path id="path1105" d="m310.24 640.29v5.9619h-1.6228v-5.909q0-1.4023-0.5468-2.099-0.54681-0.69673-1.6404-0.69673-1.3141 0-2.0726 0.83784-0.75847 0.83785-0.75847 2.2842v5.5827h-1.6316v-9.8778h1.6316v1.5346q0.58208-0.89077 1.367-1.3317 0.79375-0.44097 1.8256-0.44097 1.7022 0 2.5753 1.0583 0.87312 1.0495 0.87312 3.0956z"/>
   <path id="path1107" d="m319.99 637.87v-5.3446h1.6228v13.723h-1.6228v-1.4817q-0.51152 0.88194-1.2964 1.3141-0.77611 0.42333-1.8697 0.42333-1.7904 0-2.9192-1.4287-1.1201-1.4288-1.1201-3.7571t1.1201-3.7571q1.1289-1.4288 2.9192-1.4288 1.0936 0 1.8697 0.43215 0.78493 0.42333 1.2964 1.3053zm-5.5298 3.4484q0 1.7903 0.73201 2.8134 0.74083 1.0142 2.0285 1.0142t2.0285-1.0142q0.74083-1.0231 0.74083-2.8134 0-1.7904-0.74083-2.8046-0.74083-1.0231-2.0285-1.0231t-2.0285 1.0231q-0.73201 1.0142-0.73201 2.8046z"/>
   <path id="path1109" d="m328.78 637.51q-1.3053 0-2.0638 1.0231-0.75847 1.0142-0.75847 2.7869 0 1.7727 0.74965 2.7958 0.75847 1.0142 2.0726 1.0142 1.2965 0 2.0549-1.023 0.75847-1.0231 0.75847-2.7869 0-1.7551-0.75847-2.7781-0.75847-1.0319-2.0549-1.0319zm0-1.3758q2.1167 0 3.3249 1.3758 1.2083 1.3758 1.2083 3.81 0 2.4253-1.2083 3.81-1.2083 1.3758-3.3249 1.3758-2.1255 0-3.3338-1.3758-1.1994-1.3846-1.1994-3.81 0-2.4342 1.1994-3.81 1.2083-1.3758 3.3338-1.3758z"/>
   <path id="path1111" d="m343.69 638.27q0.60854-1.0936 1.4552-1.614 0.84667-0.52035 1.9932-0.52035 1.5434 0 2.3812 1.0848 0.83785 1.076 0.83785 3.0692v5.9619h-1.6316v-5.909q0-1.4199-0.50271-2.1078-0.50271-0.68791-1.5346-0.68791-1.2612 0-1.9932 0.83784-0.73201 0.83785-0.73201 2.2842v5.5827h-1.6316v-5.909q0-1.4288-0.50271-2.1078-0.5027-0.68791-1.5522-0.68791-1.2435 0-1.9756 0.84666-0.73201 0.83785-0.73201 2.2754v5.5827h-1.6316v-9.8778h1.6316v1.5346q0.55562-0.90841 1.3317-1.3406t1.8433-0.43215q1.076 0 1.8256 0.5468 0.75847 0.54681 1.1201 1.5875z"/>
   <path id="path1113" d="m361.11 649.25v1.2612h-9.3839v-1.2612z"/>
   <path id="path1115" d="m367.12 641.28q-1.9667 0-2.7252 0.44979t-0.75847 1.5346q0 0.86431 0.56445 1.3758 0.57326 0.50271 1.5522 0.50271 1.3494 0 2.1608-0.9525 0.8202-0.96132 0.8202-2.5488v-0.3616zm3.2367-0.67028v5.6356h-1.6228v-1.4993q-0.55562 0.89958-1.3846 1.3317-0.82902 0.42333-2.0285 0.42333-1.5169 0-2.4165-0.84666-0.89076-0.85549-0.89076-2.2842 0-1.6669 1.1112-2.5135 1.1201-0.84667 3.3338-0.84667h2.2754v-0.15875q0-1.1201-0.74083-1.7286-0.73201-0.61736-2.0638-0.61736-0.84666 0-1.6492 0.20285t-1.5434 0.60854v-1.4993q0.89076-0.34396 1.7286-0.51153 0.83784-0.17639 1.6316-0.17639 2.1431 0 3.2015 1.1112t1.0583 3.369z"/>
   <path id="path1117" d="m380.82 636.75v1.5169q-0.68792-0.37923-1.3846-0.56444-0.68792-0.19403-1.3935-0.19403-1.5787 0-2.4518 1.0054-0.87313 0.99659-0.87313 2.8046 0 1.808 0.87313 2.8134 0.87312 0.99659 2.4518 0.99659 0.70555 0 1.3935-0.18521 0.69673-0.19402 1.3846-0.57326v1.4993q-0.6791 0.3175-1.4111 0.47625-0.72319 0.15875-1.5434 0.15875-2.2313 0-3.5454-1.4023-1.3141-1.4023-1.3141-3.7835 0-2.4165 1.3229-3.8012 1.3317-1.3846 3.6424-1.3846 0.74965 0 1.464 0.15875 0.71437 0.14993 1.3846 0.45861z"/>
   <path id="path1119" d="m390.77 636.75v1.5169q-0.68792-0.37923-1.3846-0.56444-0.68792-0.19403-1.3935-0.19403-1.5787 0-2.4518 1.0054-0.87312 0.99659-0.87312 2.8046 0 1.808 0.87312 2.8134 0.87313 0.99659 2.4518 0.99659 0.70555 0 1.3935-0.18521 0.69673-0.19402 1.3846-0.57326v1.4993q-0.6791 0.3175-1.4111 0.47625-0.7232 0.15875-1.5434 0.15875-2.2313 0-3.5454-1.4023-1.3141-1.4023-1.3141-3.7835 0-2.4165 1.3229-3.8012 1.3317-1.3846 3.6424-1.3846 0.74965 0 1.464 0.15875 0.71437 0.14993 1.3846 0.45861z"/>
   <path id="path1121" d="m402.06 640.91v0.79375h-7.4612q0.10583 1.6757 1.0054 2.5576 0.9084 0.87312 2.5224 0.87312 0.93486 0 1.808-0.2293 0.88195-0.22931 1.7462-0.68792v1.5346q-0.87312 0.37042-1.7903 0.56445-0.91722 0.19402-1.8609 0.19402-2.3636 0-3.7483-1.3758-1.3758-1.3758-1.3758-3.7218 0-2.4253 1.3053-3.8453 1.3141-1.4288 3.5366-1.4288 1.9932 0 3.1485 1.2876 1.1642 1.2788 1.1642 3.4837zm-1.6228-0.47625q-0.0176-1.3317-0.74965-2.1255-0.72319-0.79375-1.9226-0.79375-1.3582 0-2.1784 0.76729-0.81138 0.76729-0.93486 2.1608z"/>
   <path id="path1123" d="m411.02 636.66v1.5346q-0.68791-0.35278-1.4287-0.52917-0.74084-0.17639-1.5346-0.17639-1.2083 0-1.8168 0.37042-0.59972 0.37041-0.59972 1.1112 0 0.56444 0.43215 0.89076 0.43215 0.3175 1.7374 0.60854l0.55562 0.12347q1.7286 0.37042 2.4518 1.0495 0.73201 0.67027 0.73201 1.8785 0 1.3758-1.0936 2.1784-1.0848 0.80256-2.9898 0.80256-0.79375 0-1.658-0.15875-0.85549-0.14993-1.808-0.45861v-1.6757q0.89959 0.46743 1.7727 0.70556 0.87312 0.2293 1.7286 0.2293 1.1465 0 1.7639-0.38805 0.61736-0.39688 0.61736-1.1112 0-0.66146-0.44979-1.0142-0.44098-0.35278-1.9491-0.67909l-0.56444-0.1323q-1.5081-0.3175-2.1784-0.97013-0.67028-0.66146-0.67028-1.808 0-1.3935 0.98778-2.1519 0.98777-0.75847 2.8046-0.75847 0.89958 0 1.6933 0.13229t1.464 0.39688z"/>
   <path id="path1125" d="m420.44 636.66v1.5346q-0.68792-0.35278-1.4288-0.52917-0.74084-0.17639-1.5346-0.17639-1.2083 0-1.8168 0.37042-0.59972 0.37041-0.59972 1.1112 0 0.56444 0.43215 0.89076 0.43216 0.3175 1.7374 0.60854l0.55563 0.12347q1.7286 0.37042 2.4518 1.0495 0.73201 0.67027 0.73201 1.8785 0 1.3758-1.0936 2.1784-1.0848 0.80256-2.9898 0.80256-0.79375 0-1.658-0.15875-0.85549-0.14993-1.808-0.45861v-1.6757q0.89958 0.46743 1.7727 0.70556 0.87313 0.2293 1.7286 0.2293 1.1465 0 1.7639-0.38805 0.61736-0.39688 0.61736-1.1112 0-0.66146-0.44979-1.0142-0.44097-0.35278-1.9491-0.67909l-0.56444-0.1323q-1.5081-0.3175-2.1784-0.97013-0.67028-0.66146-0.67028-1.808 0-1.3935 0.98778-2.1519 0.98777-0.75847 2.8046-0.75847 0.89958 0 1.6933 0.13229t1.464 0.39688z"/>
   <path id="path1127" d="m431.06 649.25v1.2612h-9.3839v-1.2612z"/>
   <path id="path1129" d="m432.59 636.37h1.6228v9.8778h-1.6228zm0-3.8453h1.6228v2.0549h-1.6228z"/>
   <path id="path1131" d="m439.2 633.57v2.8046h3.3426v1.2612h-3.3426v5.3622q0 1.2083 0.32632 1.5522 0.33514 0.34396 1.3494 0.34396h1.6669v1.3582h-1.6669q-1.8785 0-2.5929-0.69674-0.71438-0.70555-0.71438-2.5576v-5.3622h-1.1906v-1.2612h1.1906v-2.8046z"/>
   <path id="path1133" d="m453.14 640.91v0.79375h-7.4612q0.10583 1.6757 1.0054 2.5576 0.90841 0.87312 2.5224 0.87312 0.93486 0 1.808-0.2293 0.88194-0.22931 1.7462-0.68792v1.5346q-0.87312 0.37042-1.7903 0.56445-0.91722 0.19402-1.8609 0.19402-2.3636 0-3.7483-1.3758-1.3758-1.3758-1.3758-3.7218 0-2.4253 1.3053-3.8453 1.3141-1.4288 3.5366-1.4288 1.9932 0 3.1485 1.2876 1.1642 1.2788 1.1642 3.4837zm-1.6228-0.47625q-0.0176-1.3317-0.74965-2.1255-0.72319-0.79375-1.9226-0.79375-1.3582 0-2.1784 0.76729-0.81138 0.76729-0.93486 2.1608z"/>
   <path id="path1135" d="m461.53 637.89q-0.2734-0.15875-0.59972-0.22931-0.3175-0.0794-0.70555-0.0794-1.3758 0-2.1167 0.89958-0.73201 0.89076-0.73201 2.5664v5.2035h-1.6316v-9.8778h1.6316v1.5346q0.51153-0.89959 1.3317-1.3317 0.82021-0.44097 1.9932-0.44097 0.16757 0 0.37042 0.0265 0.20285 0.0176 0.44979 0.0617z"/>
   <path id="path1137" d="m467.73 641.28q-1.9667 0-2.7252 0.44979t-0.75847 1.5346q0 0.86431 0.56444 1.3758 0.57327 0.50271 1.5522 0.50271 1.3494 0 2.1608-0.9525 0.82021-0.96132 0.82021-2.5488v-0.3616zm3.2367-0.67028v5.6356h-1.6228v-1.4993q-0.55562 0.89958-1.3846 1.3317-0.82903 0.42333-2.0285 0.42333-1.5169 0-2.4165-0.84666-0.89077-0.85549-0.89077-2.2842 0-1.6669 1.1112-2.5135 1.1201-0.84667 3.3338-0.84667h2.2754v-0.15875q0-1.1201-0.74083-1.7286-0.73201-0.61736-2.0638-0.61736-0.84666 0-1.6492 0.20285t-1.5434 0.60854v-1.4993q0.89076-0.34396 1.7286-0.51153 0.83785-0.17639 1.6316-0.17639 2.1431 0 3.2014 1.1112 1.0583 1.1112 1.0583 3.369z"/>
   <path id="path1139" d="m475.93 633.57v2.8046h3.3426v1.2612h-3.3426v5.3622q0 1.2083 0.32632 1.5522 0.33514 0.34396 1.3494 0.34396h1.6669v1.3582h-1.6669q-1.8785 0-2.5929-0.69674-0.71438-0.70555-0.71438-2.5576v-5.3622h-1.1906v-1.2612h1.1906v-2.8046z"/>
   <path id="path1141" d="m485.24 637.51q-1.3053 0-2.0638 1.0231-0.75847 1.0142-0.75847 2.7869 0 1.7727 0.74965 2.7958 0.75847 1.0142 2.0726 1.0142 1.2964 0 2.0549-1.023 0.75848-1.0231 0.75848-2.7869 0-1.7551-0.75848-2.7781-0.75847-1.0319-2.0549-1.0319zm0-1.3758q2.1167 0 3.3249 1.3758 1.2083 1.3758 1.2083 3.81 0 2.4253-1.2083 3.81-1.2083 1.3758-3.3249 1.3758-2.1255 0-3.3338-1.3758-1.1994-1.3846-1.1994-3.81 0-2.4342 1.1994-3.81 1.2083-1.3758 3.3338-1.3758z"/>
   <path id="path1143" d="m498.18 637.89q-0.27341-0.15875-0.59973-0.22931-0.31749-0.0794-0.70555-0.0794-1.3758 0-2.1167 0.89958-0.73202 0.89076-0.73202 2.5664v5.2035h-1.6316v-9.8778h1.6316v1.5346q0.51153-0.89959 1.3317-1.3317 0.8202-0.44097 1.9932-0.44097 0.16757 0 0.37042 0.0265 0.20284 0.0176 0.44979 0.0617z"/>
  </g>
  <path id="rect66" d="m260 660h260v60h-260z" fill="#fff" stroke="#000" stroke-width="2"/>
  <g id="text72" aria-label="iter + intiter - iter">
   <path id="path1147" d="m351.27 675.08h1.6228v9.8778h-1.6228zm0-3.8453h1.6228v2.0549h-1.6228z"/>
   <path id="path1149" d="m357.89 672.28v2.8046h3.3426v1.2612h-3.3426v5.3622q0 1.2083 0.32632 1.5522 0.33514 0.34396 1.3494 0.34396h1.6669v1.3582h-1.6669q-1.8785 0-2.5929-0.69674-0.71437-0.70555-0.71437-2.5576v-5.3622h-1.1906v-1.2612h1.1906v-2.8046z"/>
   <path id="path1151" d="m371.82 679.62v0.79375h-7.4612q0.10583 1.6757 1.0054 2.5576 0.9084 0.87312 2.5224 0.87312 0.93486 0 1.808-0.2293 0.88195-0.22931 1.7462-0.68792v1.5346q-0.87312 0.37042-1.7903 0.56444-0.91722 0.19403-1.8609 0.19403-2.3636 0-3.7483-1.3758-1.3758-1.3758-1.3758-3.7218 0-2.4253 1.3053-3.8453 1.3141-1.4288 3.5366-1.4288 1.9932 0 3.1485 1.2876 1.1642 1.2788 1.1642 3.4837zm-1.6228-0.47625q-0.0176-1.3317-0.74965-2.1255-0.72319-0.79375-1.9226-0.79375-1.3582 0-2.1784 0.76729-0.81139 0.76729-0.93486 2.1608z"/>
   <path id="path1153" d="m380.21 676.6q-0.2734-0.15875-0.59972-0.22931-0.3175-0.0794-0.70556-0.0794-1.3758 0-2.1167 0.89958-0.73202 0.89076-0.73202 2.5664v5.2035h-1.6316v-9.8778h1.6316v1.5346q0.51153-0.89958 1.3317-1.3317 0.82021-0.44097 1.9932-0.44097 0.16757 0 0.37042 0.0265 0.20284 0.0176 0.44979 0.0617z"/>
   <path id="path1155" d="m394.29 673.64v4.9124h4.9124v1.4993h-4.9124v4.9124h-1.4817v-4.9124h-4.9124v-1.4993h4.9124v-4.9124z"/>
   <path id="path1157" d="m408.56 675.08h1.6228v9.8778h-1.6228zm0-3.8453h1.6228v2.0549h-1.6228z"/>
   <path id="path1159" d="m421.79 679v5.9619h-1.6228v-5.909q0-1.4023-0.5468-2.099-0.54681-0.69673-1.6404-0.69673-1.3141 0-2.0726 0.83784-0.75847 0.83785-0.75847 2.2842v5.5827h-1.6316v-9.8778h1.6316v1.5346q0.58208-0.89076 1.367-1.3317 0.79375-0.44097 1.8256-0.44097 1.7022 0 2.5753 1.0583 0.87313 1.0495 0.87313 3.0956z"/>
   <path id="path1161" d="m426.64 672.28v2.8046h3.3426v1.2612h-3.3426v5.3622q0 1.2083 0.32632 1.5522 0.33514 0.34396 1.3494 0.34396h1.6669v1.3582h-1.6669q-1.8785 0-2.5929-0.69674-0.71438-0.70555-0.71438-2.5576v-5.3622h-1.1906v-1.2612h1.1906v-2.8046z"/>
   <path id="path1163" d="m352.03 697.66h1.6228v9.8778h-1.6228zm0-3.8453h1.6228v2.0549h-1.6228z"/>
   <path id="path1165" d="m358.65 694.86v2.8046h3.3426v1.2612h-3.3426v5.3622q0 1.2083 0.32632 1.5522 0.33514 0.34396 1.3494 0.34396h1.6669v1.3582h-1.6669q-1.8785 0-2.5929-0.69673-0.71437-0.70556-0.71437-2.5576v-5.3622h-1.1906v-1.2612h1.1906v-2.8046z"/>
   <path id="path1167" d="m372.58 702.19v0.79375h-7.4612q0.10583 1.6757 1.0054 2.5576 0.9084 0.87312 2.5224 0.87312 0.93486 0 1.808-0.2293 0.88195-0.22931 1.7462-0.68792v1.5346q-0.87312 0.37042-1.7903 0.56445t-1.8609 0.19403q-2.3636 0-3.7483-1.3758-1.3758-1.3758-1.3758-3.7218 0-2.4253 1.3053-3.8453 1.3141-1.4288 3.5366-1.4288 1.9932 0 3.1485 1.2876 1.1642 1.2788 1.1642 3.4837zm-1.6228-0.47624q-0.0176-1.3317-0.74965-2.1255-0.72319-0.79375-1.9226-0.79375-1.3582 0-2.1784 0.76729-0.81138 0.76729-0.93486 2.1608z"/>
   <path id="path1169" d="m380.97 699.18q-0.2734-0.15875-0.59972-0.22931-0.3175-0.0794-0.70556-0.0794-1.3758 0-2.1167 0.89958-0.73201 0.89076-0.73201 2.5665v5.2035h-1.6316v-9.8778h1.6316v1.5346q0.51152-0.89959 1.3317-1.3317 0.82021-0.44097 1.9932-0.44097 0.16757 0 0.37042 0.0265 0.20285 0.0176 0.44979 0.0617z"/>
   <path id="path1171" d="m387.62 701.87h4.7537v1.4464h-4.7537z"/>
   <path id="path1173" d="m400.72 697.66h1.6228v9.8778h-1.6228zm0-3.8453h1.6228v2.0549h-1.6228z"/>
   <path id="path1175" d="m407.33 694.86v2.8046h3.3426v1.2612h-3.3426v5.3622q0 1.2083 0.32632 1.5522 0.33514 0.34396 1.3494 0.34396h1.6669v1.3582h-1.6669q-1.8785 0-2.5929-0.69673-0.71438-0.70556-0.71438-2.5576v-5.3622h-1.1906v-1.2612h1.1906v-2.8046z"/>
   <path id="path1177" d="m421.26 702.19v0.79375h-7.4612q0.10584 1.6757 1.0054 2.5576 0.9084 0.87312 2.5224 0.87312 0.93486 0 1.808-0.2293 0.88194-0.22931 1.7462-0.68792v1.5346q-0.87313 0.37042-1.7904 0.56445t-1.8609 0.19403q-2.3636 0-3.7483-1.3758-1.3758-1.3758-1.3758-3.7218 0-2.4253 1.3053-3.8453 1.3141-1.4288 3.5366-1.4288 1.9932 0 3.1485 1.2876 1.1642 1.2788 1.1642 3.4837zm-1.6228-0.47624q-0.0176-1.3317-0.74965-2.1255-0.7232-0.79375-1.9226-0.79375-1.3582 0-2.1784 0.76729-0.81139 0.76729-0.93486 2.1608z"/>
   <path id="path1179" d="m429.65 699.18q-0.27341-0.15875-0.59973-0.22931-0.31749-0.0794-0.70555-0.0794-1.3758 0-2.1167 0.89958-0.73202 0.89076-0.73202 2.5665v5.2035h-1.6316v-9.8778h1.6316v1.5346q0.51153-0.89959 1.3317-1.3317 0.8202-0.44097 1.9932-0.44097 0.16757 0 0.37042 0.0265 0.20284 0.0176 0.44979 0.0617z"/>
  </g>
  <g id="g78" fill="none" stroke="#000" stroke-width="2">
   <path id="line74" d="m287.3 199 65.696-50.535"/>
   <path id="polygon76" d="m356.05 152.43 4.878-10.06-10.975 2.134z"/>
  </g>
  <g id="g84" fill="none" stroke="#000" stroke-width="2">
   <path id="line80" d="m492.7 199-65.696-50.535"/>
   <path id="polygon82" d="m430.05 144.5-10.975-2.134 4.878 10.06z"/>
  </g>
  <g id="g90" fill="none" stroke="#000" stroke-width="2">
   <path id="line86" d="m362.7 339-65.696-50.535"/>
   <path id="polygon88" d="m300.05 284.5-10.975-2.134 4.878 10.06z"/>
  </g>
  <g id="g96" fill="none" stroke="#000" stroke-width="2">
   <path id="line92" d="m417.3 339 65.696-50.535"/>
   <path id="polygon94" d="m486.05 292.43 4.878-10.06-10.975 2.134z"/>
  </g>
  <g id="g102" fill="none" stroke="#000" stroke-width="2">
   <path id="line98" d="m390 479v-45.76"/>
   <path id="polygon100" d="m395 433.24-5-10-5 10z"/>
  </g>
  <g id="g108" fill="none" stroke="#000" stroke-width="2">
   <path id="line104" d="m390 619v-45.76"/>
   <path id="polygon106" d="m395 573.24-5-10-5 10z"/>
  </g>
  <g id="text112" aria-label="többszöri bejárás">
   <path id="path1194" d="m315.4 393.57v2.8046h3.3426v1.2612h-3.3426v5.3622q0 1.2083 0.32632 1.5522 0.33514 0.34396 1.3494 0.34396h1.6669v1.3582h-1.6669q-1.8785 0-2.5929-0.69674-0.71438-0.70555-0.71438-2.5576v-5.3622h-1.1906v-1.2612h1.1906v-2.8046z"/>
   <path id="path1196" d="m324.71 397.51q-1.3053 0-2.0638 1.0231-0.75847 1.0142-0.75847 2.7869 0 1.7727 0.74965 2.7958 0.75848 1.0142 2.0726 1.0142 1.2965 0 2.0549-1.023 0.75847-1.0231 0.75847-2.7869 0-1.7551-0.75847-2.7781-0.75847-1.0319-2.0549-1.0319zm0-1.3758q2.1167 0 3.3249 1.3758t1.2083 3.81q0 2.4253-1.2083 3.81-1.2083 1.3758-3.3249 1.3758-2.1255 0-3.3338-1.3758-1.1994-1.3846-1.1994-3.81 0-2.4342 1.1994-3.81 1.2083-1.3758 3.3338-1.3758zm0.82903-3.5719h1.7903v1.7815h-1.7903zm-3.4484 0h1.7903v1.7815h-1.7903z"/>
   <path id="path1198" d="m339.01 401.32q0-1.7904-0.74083-2.8046-0.73201-1.0231-2.0196-1.0231t-2.0285 1.0231q-0.73201 1.0142-0.73201 2.8046 0 1.7903 0.73201 2.8134 0.74083 1.0142 2.0285 1.0142t2.0196-1.0142q0.74083-1.0231 0.74083-2.8134zm-5.521-3.4484q0.51152-0.88195 1.2876-1.3053 0.78493-0.43215 1.8697-0.43215 1.7992 0 2.9192 1.4288 1.1289 1.4288 1.1289 3.7571t-1.1289 3.7571q-1.1201 1.4287-2.9192 1.4287-1.0848 0-1.8697-0.42333-0.77611-0.43215-1.2876-1.3141v1.4817h-1.6316v-13.723h1.6316z"/>
   <path id="path1200" d="m350.48 401.32q0-1.7904-0.74084-2.8046-0.73201-1.0231-2.0196-1.0231-1.2876 0-2.0285 1.0231-0.73201 1.0142-0.73201 2.8046 0 1.7903 0.73201 2.8134 0.74084 1.0142 2.0285 1.0142 1.2876 0 2.0196-1.0142 0.74084-1.0231 0.74084-2.8134zm-5.521-3.4484q0.51153-0.88195 1.2876-1.3053 0.78493-0.43215 1.8697-0.43215 1.7992 0 2.9192 1.4288 1.1289 1.4288 1.1289 3.7571t-1.1289 3.7571q-1.1201 1.4287-2.9192 1.4287-1.0848 0-1.8697-0.42333-0.77611-0.43215-1.2876-1.3141v1.4817h-1.6316v-13.723h1.6316z"/>
   <path id="path1202" d="m361.15 396.66v1.5346q-0.68791-0.35278-1.4287-0.52917-0.74084-0.17639-1.5346-0.17639-1.2083 0-1.8168 0.37042-0.59972 0.37041-0.59972 1.1112 0 0.56444 0.43215 0.89076 0.43215 0.3175 1.7374 0.60854l0.55562 0.12347q1.7286 0.37042 2.4518 1.0495 0.73201 0.67027 0.73201 1.8785 0 1.3758-1.0936 2.1784-1.0848 0.80256-2.9898 0.80256-0.79375 0-1.658-0.15875-0.85549-0.14993-1.808-0.45861v-1.6757q0.89959 0.46743 1.7727 0.70556 0.87312 0.2293 1.7286 0.2293 1.1465 0 1.7639-0.38805 0.61736-0.39688 0.61736-1.1112 0-0.66146-0.44979-1.0142-0.44098-0.35278-1.9491-0.67909l-0.56444-0.1323q-1.5081-0.3175-2.1784-0.97013-0.67028-0.66146-0.67028-1.808 0-1.3935 0.98778-2.1519 0.98777-0.75847 2.8046-0.75847 0.89958 0 1.6933 0.13229t1.464 0.39688z"/>
   <path id="path1204" d="m363.57 396.37h7.7082v1.4817l-6.103 7.0996h6.103v1.2965h-7.9287v-1.4817l6.103-7.0996h-5.8826z"/>
   <path id="path1206" d="m377.59 397.51q-1.3053 0-2.0638 1.0231-0.75847 1.0142-0.75847 2.7869 0 1.7727 0.74965 2.7958 0.75847 1.0142 2.0726 1.0142 1.2964 0 2.0549-1.023 0.75847-1.0231 0.75847-2.7869 0-1.7551-0.75847-2.7781-0.75847-1.0319-2.0549-1.0319zm0-1.3758q2.1167 0 3.3249 1.3758t1.2083 3.81q0 2.4253-1.2083 3.81-1.2083 1.3758-3.3249 1.3758-2.1255 0-3.3338-1.3758-1.1994-1.3846-1.1994-3.81 0-2.4342 1.1994-3.81 1.2083-1.3758 3.3338-1.3758zm0.82902-3.5719h1.7904v1.7815h-1.7904zm-3.4484 0h1.7904v1.7815h-1.7904z"/>
   <path id="path1208" d="m390.53 397.89q-0.2734-0.15875-0.59972-0.22931-0.3175-0.0794-0.70556-0.0794-1.3758 0-2.1167 0.89958-0.73201 0.89076-0.73201 2.5664v5.2035h-1.6316v-9.8778h1.6316v1.5346q0.51152-0.89959 1.3317-1.3317 0.82021-0.44097 1.9932-0.44097 0.16757 0 0.37042 0.0265 0.20284 0.0176 0.44979 0.0617z"/>
   <path id="path1210" d="m392.25 396.37h1.6228v9.8778h-1.6228zm0-3.8453h1.6228v2.0549h-1.6228z"/>
   <path id="path1212" d="m410.1 401.32q0-1.7904-0.74083-2.8046-0.73202-1.0231-2.0196-1.0231-1.2876 0-2.0285 1.0231-0.73202 1.0142-0.73202 2.8046 0 1.7903 0.73202 2.8134 0.74083 1.0142 2.0285 1.0142 1.2876 0 2.0196-1.0142 0.74083-1.0231 0.74083-2.8134zm-5.521-3.4484q0.51153-0.88195 1.2876-1.3053 0.78493-0.43215 1.8697-0.43215 1.7992 0 2.9192 1.4288 1.1289 1.4288 1.1289 3.7571t-1.1289 3.7571q-1.1201 1.4287-2.9192 1.4287-1.0848 0-1.8697-0.42333-0.77611-0.43215-1.2876-1.3141v1.4817h-1.6316v-13.723h1.6316z"/>
   <path id="path1214" d="m422.92 400.91v0.79375h-7.4612q0.10584 1.6757 1.0054 2.5576 0.9084 0.87312 2.5224 0.87312 0.93486 0 1.808-0.2293 0.88194-0.22931 1.7462-0.68792v1.5346q-0.87312 0.37042-1.7904 0.56445-0.91722 0.19402-1.8609 0.19402-2.3636 0-3.7483-1.3758-1.3758-1.3758-1.3758-3.7218 0-2.4253 1.3053-3.8453 1.3141-1.4288 3.5366-1.4288 1.9932 0 3.1485 1.2876 1.1642 1.2788 1.1642 3.4837zm-1.6228-0.47625q-0.0176-1.3317-0.74965-2.1255-0.7232-0.79375-1.9226-0.79375-1.3582 0-2.1784 0.76729-0.81139 0.76729-0.93486 2.1608z"/>
   <path id="path1216" d="m425.59 396.37h1.6228v10.054q0 1.8874-0.72319 2.734-0.71438 0.84667-2.3107 0.84667h-0.61736v-1.3758h0.43215q0.92604 0 1.2612-0.43216 0.33514-0.42333 0.33514-1.7727zm0-3.8453h1.6228v2.0549h-1.6228z"/>
   <path id="path1218" d="m435.08 401.28q-1.9667 0-2.7252 0.44979t-0.75847 1.5346q0 0.86431 0.56444 1.3758 0.57327 0.50271 1.5522 0.50271 1.3494 0 2.1608-0.9525 0.82021-0.96132 0.82021-2.5488v-0.3616zm3.2367-0.67028v5.6356h-1.6228v-1.4993q-0.55562 0.89958-1.3846 1.3317-0.82903 0.42333-2.0285 0.42333-1.5169 0-2.4165-0.84666-0.89077-0.85549-0.89077-2.2842 0-1.6669 1.1112-2.5135 1.1201-0.84667 3.3338-0.84667h2.2754v-0.15875q0-1.1201-0.74083-1.7286-0.73201-0.61736-2.0638-0.61736-0.84666 0-1.6492 0.20285t-1.5434 0.60854v-1.4993q0.89076-0.34396 1.7286-0.51153 0.83785-0.17639 1.6316-0.17639 2.1431 0 3.2014 1.1112 1.0583 1.1112 1.0583 3.369zm-2.9633-8.8106h1.7551l-2.8751 3.3161h-1.3494z"/>
   <path id="path1220" d="m447.4 397.89q-0.2734-0.15875-0.59972-0.22931-0.3175-0.0794-0.70555-0.0794-1.3758 0-2.1167 0.89958-0.73201 0.89076-0.73201 2.5664v5.2035h-1.6316v-9.8778h1.6316v1.5346q0.51153-0.89959 1.3317-1.3317 0.8202-0.44097 1.9932-0.44097 0.16757 0 0.37041 0.0265 0.20285 0.0176 0.4498 0.0617z"/>
   <path id="path1222" d="m453.61 401.28q-1.9667 0-2.7252 0.44979t-0.75847 1.5346q0 0.86431 0.56444 1.3758 0.57327 0.50271 1.5522 0.50271 1.3494 0 2.1608-0.9525 0.8202-0.96132 0.8202-2.5488v-0.3616zm3.2367-0.67028v5.6356h-1.6228v-1.4993q-0.55562 0.89958-1.3846 1.3317-0.82902 0.42333-2.0285 0.42333-1.5169 0-2.4165-0.84666-0.89076-0.85549-0.89076-2.2842 0-1.6669 1.1112-2.5135 1.1201-0.84667 3.3338-0.84667h2.2754v-0.15875q0-1.1201-0.74083-1.7286-0.73201-0.61736-2.0638-0.61736-0.84666 0-1.6492 0.20285t-1.5434 0.60854v-1.4993q0.89076-0.34396 1.7286-0.51153 0.83784-0.17639 1.6316-0.17639 2.1431 0 3.2015 1.1112t1.0583 3.369zm-2.9633-8.8106h1.7551l-2.8751 3.3161h-1.3494z"/>
   <path id="path1224" d="m466.49 396.66v1.5346q-0.68791-0.35278-1.4288-0.52917-0.74083-0.17639-1.5346-0.17639-1.2083 0-1.8168 0.37042-0.59972 0.37041-0.59972 1.1112 0 0.56444 0.43215 0.89076 0.43215 0.3175 1.7374 0.60854l0.55562 0.12347q1.7286 0.37042 2.4518 1.0495 0.73202 0.67027 0.73202 1.8785 0 1.3758-1.0936 2.1784-1.0848 0.80256-2.9898 0.80256-0.79375 0-1.658-0.15875-0.85549-0.14993-1.808-0.45861v-1.6757q0.89958 0.46743 1.7727 0.70556 0.87312 0.2293 1.7286 0.2293 1.1465 0 1.7639-0.38805 0.61736-0.39688 0.61736-1.1112 0-0.66146-0.44979-1.0142-0.44097-0.35278-1.9491-0.67909l-0.56445-0.1323q-1.5081-0.3175-2.1784-0.97013-0.67027-0.66146-0.67027-1.808 0-1.3935 0.98777-2.1519 0.98778-0.75847 2.8046-0.75847 0.89959 0 1.6933 0.13229 0.79375 0.13229 1.464 0.39688z"/>
  </g>
 </g>
</svg>
