<?xml version="1.0" encoding="UTF-8" standalone="no"?>
<!-- Created with Inkscape (http://www.inkscape.org/) -->
<svg id="svg2" xmlns:rdf="http://www.w3.org/1999/02/22-rdf-syntax-ns#" xmlns="http://www.w3.org/2000/svg" height="260.97" width="423.37" version="1.1" xmlns:cc="http://creativecommons.org/ns#" xmlns:dc="http://purl.org/dc/elements/1.1/" viewBox="399 75 231.99999 134.4149">
 <metadata id="metadata80">
  <rdf:RDF>
   <cc:Work rdf:about="">
    <dc:format>image/svg+xml</dc:format>
    <dc:type rdf:resource="http://purl.org/dc/dcmitype/StillImage"/>
   </cc:Work>
  </rdf:RDF>
 </metadata>
 <path id="line4" d="m480 92.711h70" stroke="#7f7f7f" stroke-dasharray="4" stroke-width="2" fill="none"/>
 <path id="line6" d="m480 152.71h70" stroke="#7f7f7f" stroke-dasharray="4" stroke-width="2" fill="none"/>
 <g id="g8" transform="translate(0 -7.2887)">
  <path id="rect10" fill="#fff" d="m400 100h80v30h-80z"/>
  <path id="rect12" d="m400 100h80v30h-80z" stroke="#000" stroke-width="2" fill="none"/>
 </g>
 <g id="g14" transform="translate(0 -7.2887)">
  <path id="rect16" fill="#fff" d="m400 130h80v30h-80z"/>
  <path id="rect18" d="m400 130h80v30h-80z" stroke="#000" stroke-width="2" fill="none"/>
 </g>
 <g id="text20">
  <path id="path3025" style="" d="m444 104.54-3.1254 4.2058 3.2874 4.4373h-1.6746l-2.5157-3.3955-2.5157 3.3955h-1.6746l3.3569-4.5222-3.0714-4.1209h1.6746l2.292 3.0791 2.2919-3.0791h1.6746"/>
 </g>
 <g id="text24">
  <path id="path3028" style="" d="m440.41 143.99c-0.40129 1.0289-0.79228 1.7003-1.173 2.0141-0.38071 0.31382-0.89003 0.47073-1.528 0.47074h-1.1344v-1.1884h0.83343c0.39099 0 0.69453-0.0926 0.91061-0.27781 0.21607-0.18521 0.45529-0.62251 0.71768-1.3119l0.25466-0.64823-3.4958-8.5041h1.5048l2.701 6.7601 2.701-6.7601h1.5048l-3.7968 9.4456"/>
 </g>
 <g id="text28">
  <path id="path3031" style="" d="m408.46 71.568v1.5202c-0.59164-0.28295-1.1498-0.49388-1.6746-0.63279-0.52477-0.1389-1.0315-0.20835-1.5202-0.20836-0.84887 0.000011-1.5048 0.16464-1.9678 0.49389-0.45788 0.32927-0.68682 0.79743-0.68682 1.4045 0 0.50933 0.15177 0.89518 0.45531 1.1575 0.30867 0.25724 0.89002 0.4656 1.744 0.62508l0.94147 0.19292c1.1627 0.22123 2.0193 0.61222 2.5698 1.173 0.55561 0.55563 0.83342 1.3016 0.83343 2.2379-0.00001 1.1164-0.37557 1.9627-1.1267 2.5389-0.74598 0.5762-1.8418 0.8643-3.2874 0.8643-0.54533 0-1.1267-0.06174-1.744-0.18521-0.61221-0.12347-1.2476-0.30611-1.9061-0.54791v-1.6051c0.63279 0.35498 1.2527 0.62251 1.8598 0.80257 0.60707 0.18006 1.2038 0.2701 1.7903 0.2701 0.89002 0.000001 1.5768-0.17492 2.0604-0.52476 0.48359-0.34984 0.72539-0.84887 0.7254-1.4971-0.00001-0.56591-0.17493-1.0083-0.52476-1.3273-0.3447-0.31896-0.91318-0.55819-1.7054-0.71768l-0.94919-0.18521c-1.1627-0.2315-2.0038-0.5942-2.5235-1.0881-0.51961-0.49388-0.77942-1.1807-0.77942-2.0604 0-1.0186 0.35756-1.8212 1.0727-2.4077 0.72025-0.58648 1.7106-0.87973 2.971-0.87974 0.54018 0.000011 1.0907 0.04889 1.6514 0.14662 0.56077 0.09776 1.1344 0.24438 1.7209 0.43987"/>
  <path id="path3033" style="" d="m418.71 77.495v5.2167h-1.4199v-5.1704c0-0.818-0.15949-1.4302-0.47845-1.8366-0.31898-0.40642-0.79743-0.60964-1.4354-0.60964-0.76656 0.000007-1.3711 0.24438-1.8135 0.73311-0.44245 0.48875-0.66367 1.155-0.66367 1.9987v4.8849h-1.4276v-12.008h1.4276v4.7074c0.33955-0.5196 0.73826-0.90802 1.1961-1.1653 0.46301-0.25722 0.99549-0.38584 1.5974-0.38585 0.99291 0.000009 1.744 0.30869 2.2534 0.92604 0.50931 0.61222 0.76397 1.5151 0.76398 2.7087"/>
  <path id="path3035" style="" d="m425.48 78.367c-1.1473 0.000005-1.9421 0.13119-2.3846 0.39357-0.44245 0.26238-0.66367 0.70997-0.66366 1.3428-0.00001 0.50418 0.16462 0.90546 0.49388 1.2039 0.3344 0.29325 0.78713 0.43987 1.3582 0.43987 0.78712 0.000001 1.4173-0.27781 1.8907-0.83344 0.47845-0.56077 0.71767-1.3042 0.71768-2.2302v-0.3164h-1.4122m2.8321-0.58649v4.9312h-1.4199v-1.3119c-0.32412 0.52476-0.72798 0.91318-1.2116 1.1653-0.4836 0.24694-1.0752 0.37042-1.7749 0.37042-0.88488 0-1.5897-0.24694-2.1144-0.74083-0.51962-0.49903-0.77942-1.1653-0.77942-1.9987 0-0.97234 0.32411-1.7055 0.97234-2.1993 0.65337-0.49388 1.6257-0.74083 2.917-0.74083h1.991v-0.13891c-0.00001-0.65337-0.21608-1.1575-0.64823-1.5125-0.42701-0.36012-1.0289-0.54018-1.8058-0.54019-0.4939 0.000007-0.97492 0.05917-1.4431 0.17749-0.46817 0.11833-0.91833 0.29582-1.3505 0.53247v-1.3119c0.51961-0.20063 1.0238-0.34983 1.5125-0.44758 0.48874-0.10288 0.96462-0.15433 1.4276-0.15434 1.2501 0.000009 2.1839 0.32412 2.8013 0.97234 0.61735 0.64824 0.92603 1.6309 0.92604 2.9479"/>
  <path id="path3037" style="" d="m432.62 81.415v4.5839h-1.4276v-11.93h1.4276v1.3119c0.29838-0.51446 0.67394-0.89516 1.1267-1.1421 0.45787-0.25208 1.0032-0.37812 1.636-0.37813 1.0495 0.000009 1.9009 0.41673 2.5543 1.2502 0.65851 0.83344 0.98777 1.9293 0.98778 3.2874-0.00001 1.3582-0.32927 2.454-0.98778 3.2874-0.65338 0.83344-1.5048 1.2502-2.5543 1.2502-0.6328 0-1.1781-0.12347-1.636-0.37042-0.45274-0.25209-0.8283-0.63536-1.1267-1.1498m4.8308-3.0173c0-1.0444-0.21608-1.8624-0.64822-2.454-0.42702-0.59677-1.0161-0.89516-1.7672-0.89517-0.75112 0.000007-1.3428 0.2984-1.7749 0.89517-0.42701 0.59164-0.64052 1.4096-0.64051 2.454-0.00001 1.0444 0.2135 1.8649 0.64051 2.4617 0.43214 0.59164 1.0238 0.88746 1.7749 0.88745 0.75112 0.000001 1.3402-0.29582 1.7672-0.88745 0.43214-0.59678 0.64822-1.4174 0.64822-2.4617"/>
  <path id="path3039" style="" d="m448.67 78.035v0.69453h-6.5286c0.0617 0.97749 0.35498 1.7235 0.87974 2.2379 0.5299 0.50932 1.2656 0.76398 2.2071 0.76398 0.54533 0.000001 1.0727-0.06688 1.582-0.20064 0.51446-0.13376 1.0238-0.3344 1.528-0.60192v1.3428c-0.50933 0.21608-1.0315 0.3807-1.5666 0.49389-0.53505 0.11318-1.0778 0.16977-1.6283 0.16977-1.3788 0-2.472-0.40128-3.2797-1.2039-0.80257-0.80256-1.2038-1.8881-1.2038-3.2566 0-1.4148 0.3807-2.5363 1.1421-3.3646 0.76655-0.83343 1.798-1.2501 3.0945-1.2502 1.1627 0.000009 2.081 0.37557 2.755 1.1267 0.67908 0.74598 1.0186 1.7621 1.0186 3.0482m-1.4199-0.41672c-0.0103-0.77684-0.22894-1.3968-0.65594-1.8598-0.42187-0.46301-0.98264-0.69452-1.6823-0.69453-0.79228 0.000007-1.4276 0.2238-1.9061 0.67138-0.47332 0.44759-0.74598 1.0778-0.818 1.8907l5.0623-0.0077"/>
 </g>
 <g id="text32">
  <path id="path3042" style="" d="m557.01 77.309c0.33439 0.11319 0.65851 0.35499 0.97234 0.7254 0.31896 0.37042 0.63793 0.87974 0.9569 1.528l1.582 3.1485h-1.6746l-1.474-2.9556c-0.38071-0.7717-0.75112-1.2836-1.1112-1.5357-0.35499-0.25208-0.84116-0.37813-1.4585-0.37813h-1.6977v4.8694h-1.5588v-11.521h3.5189c1.317 0.000011 2.2997 0.27525 2.9479 0.82572 0.64821 0.55049 0.97233 1.3814 0.97234 2.4926-0.00001 0.7254-0.16979 1.3273-0.50933 1.8058-0.33441 0.47846-0.82315 0.81029-1.4662 0.99549m-3.9048-4.8386v4.09h1.9601c0.75112 0.000006 1.317-0.17234 1.6977-0.51704 0.38584-0.34983 0.57877-0.86172 0.57878-1.5357-0.00001-0.67394-0.19294-1.1807-0.57878-1.5202-0.38071-0.34468-0.94662-0.51703-1.6977-0.51704h-1.9601"/>
  <path id="path3044" style="" d="m569.16 78.035v0.69453h-6.5286c0.0617 0.97749 0.35498 1.7235 0.87973 2.2379 0.5299 0.50932 1.2656 0.76398 2.2071 0.76398 0.54533 0.000001 1.0727-0.06688 1.582-0.20064 0.51446-0.13376 1.0238-0.3344 1.528-0.60192v1.3428c-0.50933 0.21608-1.0315 0.3807-1.5666 0.49389-0.53505 0.11318-1.0778 0.16977-1.6283 0.16977-1.3788 0-2.472-0.40128-3.2797-1.2039-0.80256-0.80256-1.2038-1.8881-1.2038-3.2566 0-1.4148 0.38071-2.5363 1.1421-3.3646 0.76655-0.83343 1.798-1.2501 3.0945-1.2502 1.1627 0.000009 2.081 0.37557 2.755 1.1267 0.67909 0.74598 1.0186 1.7621 1.0186 3.0482m-1.4199-0.41672c-0.0103-0.77684-0.22895-1.3968-0.65595-1.8598-0.42187-0.46301-0.98264-0.69452-1.6823-0.69453-0.79229 0.000007-1.4276 0.2238-1.9061 0.67138-0.47331 0.44759-0.74598 1.0778-0.818 1.8907l5.0624-0.0077"/>
  <path id="path3046" style="" d="m577.71 74.4v1.3273c-0.40129-0.22121-0.80515-0.38584-1.2116-0.49389-0.40129-0.11318-0.80771-0.16977-1.2193-0.16977-0.9209 0.000007-1.636 0.29325-2.1453 0.87974-0.50932 0.58135-0.76398 1.3994-0.76398 2.454 0 1.0547 0.25466 1.8752 0.76398 2.4617 0.50932 0.58135 1.2244 0.87202 2.1453 0.87202 0.41157 0.000001 0.81799-0.05402 1.2193-0.16206 0.40642-0.11318 0.81028-0.28038 1.2116-0.5016v1.3119c-0.39615 0.18521-0.80772 0.32411-1.2347 0.41672-0.42187 0.0926-0.87202 0.13891-1.3505 0.13891-1.3016 0-2.3357-0.409-3.1022-1.227-0.76656-0.818-1.1498-1.9215-1.1498-3.3106-0.00001-1.4096 0.38584-2.5183 1.1575-3.326 0.77685-0.8077 1.8392-1.2116 3.1871-1.2116 0.43729 0.000009 0.8643 0.04631 1.281 0.13891 0.41671 0.08747 0.82057 0.22123 1.2116 0.40128"/>
  <path id="path3048" style="" d="m581.6 71.614v2.454h2.9247v1.1035h-2.9247v4.6919c0 0.70482 0.0952 1.1576 0.28553 1.3582 0.1955 0.20064 0.58906 0.30096 1.1807 0.30096h1.4585v1.1884h-1.4585c-1.0958 0-1.8521-0.20321-2.2688-0.60964-0.41672-0.41157-0.62508-1.1575-0.62508-2.2379v-4.6919h-1.0418v-1.1035h1.0418v-2.454h1.4276"/>
  <path id="path3050" style="" d="m590.33 78.367c-1.1473 0.000005-1.9421 0.13119-2.3846 0.39357-0.44244 0.26238-0.66366 0.70997-0.66366 1.3428 0 0.50418 0.16463 0.90546 0.49389 1.2039 0.3344 0.29325 0.78713 0.43987 1.3582 0.43987 0.78713 0.000001 1.4174-0.27781 1.8907-0.83344 0.47845-0.56077 0.71768-1.3042 0.71768-2.2302v-0.3164h-1.4122m2.8321-0.58649v4.9312h-1.4199v-1.3119c-0.32412 0.52476-0.72797 0.91318-1.2116 1.1653-0.4836 0.24694-1.0752 0.37042-1.7749 0.37042-0.88489 0-1.5897-0.24694-2.1145-0.74083-0.51961-0.49903-0.77942-1.1653-0.77942-1.9987 0-0.97234 0.32412-1.7055 0.97235-2.1993 0.65337-0.49388 1.6257-0.74083 2.917-0.74083h1.991v-0.13891c0-0.65337-0.21608-1.1575-0.64822-1.5125-0.42702-0.36012-1.0289-0.54018-1.8058-0.54019-0.49389 0.000007-0.97492 0.05917-1.4431 0.17749-0.46817 0.11833-0.91832 0.29582-1.3505 0.53247v-1.3119c0.51961-0.20063 1.0238-0.34983 1.5125-0.44758 0.48874-0.10288 0.96462-0.15433 1.4276-0.15434 1.2502 0.000009 2.1839 0.32412 2.8013 0.97234 0.61735 0.64824 0.92603 1.6309 0.92604 2.9479"/>
  <path id="path3052" style="" d="m603.28 77.495v5.2167h-1.4199v-5.1704c-0.00001-0.818-0.15949-1.4302-0.47845-1.8366-0.31898-0.40642-0.79743-0.60964-1.4354-0.60964-0.76656 0.000007-1.3711 0.24438-1.8135 0.73311-0.44244 0.48875-0.66366 1.155-0.66366 1.9987v4.8849h-1.4276v-8.643h1.4276v1.3428c0.33955-0.5196 0.73826-0.90802 1.1961-1.1653 0.46301-0.25722 0.99548-0.38584 1.5974-0.38585 0.99292 0.000009 1.744 0.30869 2.2534 0.92604 0.50932 0.61222 0.76398 1.5151 0.76399 2.7087"/>
  <path id="path3054" style="" d="m611.81 78.289c-0.00001-1.0289-0.21351-1.8263-0.64051-2.3923-0.42187-0.5659-1.0161-0.84886-1.7826-0.84887-0.76141 0.000007-1.3556 0.28296-1.7826 0.84887-0.42187 0.56592-0.6328 1.3633-0.63279 2.3923-0.00001 1.0238 0.21092 1.8186 0.63279 2.3846 0.427 0.56591 1.0212 0.84887 1.7826 0.84887 0.76655 0.000002 1.3608-0.28296 1.7826-0.84887 0.427-0.56591 0.6405-1.3608 0.64051-2.3846m1.4199 3.3492c-0.00001 1.4714-0.3267 2.5646-0.98006 3.2797-0.65338 0.72025-1.654 1.0804-3.0019 1.0804-0.49904-0.000003-0.96977-0.03859-1.4122-0.11576-0.44245-0.07203-0.87202-0.18521-1.2887-0.33955v-1.3813c0.41672 0.22636 0.82829 0.39356 1.2347 0.5016 0.40642 0.10804 0.82057 0.16206 1.2424 0.16206 0.93117-0.000002 1.6283-0.24437 2.0913-0.73311 0.46301-0.4836 0.69452-1.2167 0.69453-2.1993v-0.70225c-0.29325 0.50932-0.66881 0.89003-1.1267 1.1421-0.45788 0.25209-1.0058 0.37813-1.6437 0.37813-1.0598 0-1.9138-0.40386-2.562-1.2116-0.64823-0.80771-0.97234-1.8778-0.97234-3.2103 0-1.3376 0.32411-2.4103 0.97234-3.218 0.64822-0.8077 1.5022-1.2116 2.562-1.2116 0.63793 0.000009 1.1858 0.12605 1.6437 0.37813 0.45787 0.2521 0.83343 0.6328 1.1267 1.1421v-1.3119h1.4199v7.5704"/>
  <path id="path3056" style="" d="m616.16 70.704h1.4199v12.008h-1.4199v-12.008"/>
  <path id="path3058" style="" d="m627.93 78.035v0.69453h-6.5286c0.0617 0.97749 0.35498 1.7235 0.87974 2.2379 0.5299 0.50932 1.2656 0.76398 2.2071 0.76398 0.54533 0.000001 1.0727-0.06688 1.582-0.20064 0.51446-0.13376 1.0238-0.3344 1.528-0.60192v1.3428c-0.50933 0.21608-1.0315 0.3807-1.5666 0.49389-0.53505 0.11318-1.0778 0.16977-1.6283 0.16977-1.3788 0-2.472-0.40128-3.2797-1.2039-0.80257-0.80256-1.2038-1.8881-1.2038-3.2566 0-1.4148 0.3807-2.5363 1.1421-3.3646 0.76655-0.83343 1.798-1.2501 3.0945-1.2502 1.1627 0.000009 2.081 0.37557 2.755 1.1267 0.67908 0.74598 1.0186 1.7621 1.0186 3.0482m-1.4199-0.41672c-0.0103-0.77684-0.22894-1.3968-0.65594-1.8598-0.42187-0.46301-0.98264-0.69452-1.6823-0.69453-0.79228 0.000007-1.4276 0.2238-1.9061 0.67138-0.47331 0.44759-0.74598 1.0778-0.818 1.8907l5.0623-0.0077"/>
 </g>
 <g id="g36" transform="translate(0 -7.2887)">
  <path id="rect38" fill="#fff" d="m550 100h80v30h-80z"/>
  <path id="rect40" d="m550 100h80v30h-80z" stroke="#000" stroke-width="2" fill="none"/>
 </g>
 <g id="g42" transform="translate(0 -7.2887)">
  <path id="rect44" fill="#fff" d="m550 130h80v30h-80z"/>
  <path id="rect46" d="m550 130h80v30h-80z" stroke="#000" stroke-width="2" fill="none"/>
 </g>
 <g id="text48">
  <path id="path3065" style="" d="m594 104.54-3.1254 4.2058 3.2874 4.4373h-1.6746l-2.5157-3.3955-2.5157 3.3955h-1.6746l3.3569-4.5222-3.0714-4.1209h1.6746l2.292 3.0791 2.2919-3.0791h1.6746"/>
 </g>
 <g id="text52">
  <path id="path3068" style="" d="m590.41 143.99c-0.40129 1.0289-0.79228 1.7003-1.173 2.0141-0.38071 0.31382-0.89003 0.47073-1.528 0.47074h-1.1344v-1.1884h0.83343c0.39099 0 0.69453-0.0926 0.91061-0.27781 0.21607-0.18521 0.45529-0.62251 0.71768-1.3119l0.25466-0.64823-3.4958-8.5041h1.5048l2.701 6.7601 2.701-6.7601h1.5048l-3.7968 9.4456"/>
 </g>
 <g id="g56" transform="translate(0 -7.2887)">
  <path id="rect58" fill="#fff" d="m550 160h80v30h-80z"/>
  <path id="rect60" d="m550 160h80v30h-80z" stroke="#000" stroke-width="2" fill="none"/>
 </g>
 <g id="g62" transform="translate(0 -7.2887)">
  <path id="rect64" fill="#fff" d="m550 190h80v30h-80z"/>
  <path id="rect66" d="m550 190h80v30h-80z" stroke="#000" stroke-width="2" fill="none"/>
 </g>
 <g id="text68">
  <path id="path3075" style="" d="m568.87 164.54h1.4199l1.7749 6.7446 1.7672-6.7446h1.6746l1.7749 6.7446 1.7672-6.7446h1.4199l-2.2611 8.643h-1.6746l-1.8598-7.0842-1.8675 7.0842h-1.6746l-2.2611-8.643"/>
  <path id="path3077" style="" d="m582.63 164.54h1.4199v8.643h-1.4199v-8.643m0-3.3646h1.4199v1.7981h-1.4199v-1.7981"/>
  <path id="path3079" style="" d="m592.7 165.86v-4.6765h1.4199v12.008h-1.4199v-1.2965c-0.2984 0.51447-0.67653 0.89775-1.1344 1.1498-0.45274 0.24694-0.99807 0.37041-1.636 0.37041-1.0444 0-1.8958-0.41672-2.5543-1.2502-0.65337-0.83343-0.98006-1.9292-0.98006-3.2874s0.32669-2.454 0.98006-3.2874c0.65852-0.83342 1.51-1.2501 2.5543-1.2502 0.63793 0.00001 1.1833 0.12605 1.636 0.37813 0.45787 0.24695 0.836 0.62766 1.1344 1.1421m-4.8386 3.0173c0 1.0444 0.2135 1.8649 0.64051 2.4617 0.43215 0.59164 1.0238 0.88746 1.7749 0.88746 0.75112 0 1.3428-0.29582 1.7749-0.88746 0.43214-0.59678 0.64822-1.4174 0.64823-2.4617-0.00001-1.0444-0.21609-1.8624-0.64823-2.454-0.43216-0.59678-1.0238-0.89517-1.7749-0.89517-0.75112 0-1.3428 0.29839-1.7749 0.89517-0.42701 0.59164-0.64051 1.4096-0.64051 2.454"/>
  <path id="path3081" style="" d="m598.45 162.09v2.454h2.9247v1.1035h-2.9247v4.6919c-0.00001 0.70482 0.0952 1.1576 0.28553 1.3582 0.19549 0.20064 0.58906 0.30096 1.1807 0.30096h1.4585v1.1884h-1.4585c-1.0958 0-1.8521-0.20321-2.2688-0.60964-0.41672-0.41158-0.62508-1.1576-0.62508-2.2379v-4.6919h-1.0418v-1.1035h1.0418v-2.454h1.4276"/>
  <path id="path3083" style="" d="m610.43 167.97v5.2167h-1.4199v-5.1704c-0.00001-0.81799-0.15949-1.4302-0.47846-1.8366-0.31897-0.40642-0.79742-0.60963-1.4354-0.60964-0.76655 0.00001-1.371 0.24438-1.8135 0.73311-0.44244 0.48875-0.66366 1.155-0.66366 1.9987v4.8849h-1.4276v-12.008h1.4276v4.7074c0.33954-0.5196 0.73826-0.90802 1.1961-1.1653 0.46302-0.25723 0.99549-0.38584 1.5974-0.38585 0.99291 0.00001 1.744 0.30869 2.2534 0.92604 0.50932 0.61222 0.76398 1.5151 0.76398 2.7087"/>
 </g>
 <g id="text72">
  <path id="path3086" style="" d="m573.47 197.97v5.2167h-1.4199v-5.1704c-0.00001-0.81799-0.1595-1.4302-0.47846-1.8366-0.31897-0.40642-0.79743-0.60963-1.4354-0.60964-0.76656 0.00001-1.371 0.24438-1.8135 0.73311-0.44245 0.48875-0.66367 1.155-0.66366 1.9987v4.8849h-1.4276v-12.008h1.4276v4.7074c0.33954-0.5196 0.73825-0.90802 1.1961-1.1653 0.46302-0.25723 0.99549-0.38584 1.5974-0.38585 0.99291 0.00001 1.744 0.30869 2.2534 0.92604 0.50931 0.61222 0.76397 1.5151 0.76398 2.7087"/>
  <path id="path3088" style="" d="m583.71 198.51v0.69453h-6.5286c0.0617 0.97749 0.35497 1.7235 0.87973 2.2379 0.5299 0.50932 1.2656 0.76398 2.2071 0.76398 0.54533 0 1.0727-0.0669 1.582-0.20064 0.51445-0.13376 1.0238-0.3344 1.528-0.60193v1.3428c-0.50933 0.21608-1.0315 0.38071-1.5666 0.49389-0.53505 0.11318-1.0778 0.16977-1.6283 0.16977-1.3788 0-2.472-0.40128-3.2797-1.2038-0.80256-0.80256-1.2038-1.8881-1.2038-3.2566 0-1.4148 0.38071-2.5363 1.1421-3.3646 0.76655-0.83342 1.798-1.2501 3.0945-1.2502 1.1627 0.00001 2.081 0.37557 2.755 1.1267 0.67909 0.74598 1.0186 1.762 1.0186 3.0482m-1.4199-0.41672c-0.0103-0.77683-0.22894-1.3968-0.65594-1.8598-0.42187-0.46301-0.98264-0.69452-1.6823-0.69453-0.79229 0.00001-1.4276 0.2238-1.9061 0.67138-0.47331 0.44759-0.74598 1.0778-0.818 1.8907l5.0623-0.008"/>
  <path id="path3090" style="" d="m586.04 194.54h1.4199v8.643h-1.4199v-8.643m0-3.3646h1.4199v1.7981h-1.4199v-1.7981"/>
  <path id="path3092" style="" d="m596.11 198.76c-0.00001-1.0289-0.21351-1.8264-0.64051-2.3923-0.42187-0.56591-1.0161-0.84887-1.7826-0.84887-0.76141 0-1.3556 0.28296-1.7826 0.84887-0.42187 0.56591-0.6328 1.3633-0.6328 2.3923 0 1.0238 0.21093 1.8186 0.6328 2.3846 0.427 0.56592 1.0212 0.84887 1.7826 0.84887 0.76655 0 1.3608-0.28295 1.7826-0.84887 0.427-0.56591 0.6405-1.3608 0.64051-2.3846m1.4199 3.3492c0 1.4714-0.32669 2.5646-0.98005 3.2797-0.65338 0.72025-1.654 1.0804-3.0019 1.0804-0.49904-0.00001-0.96978-0.0386-1.4122-0.11576-0.44245-0.072-0.87203-0.18521-1.2887-0.33954v-1.3814c0.41671 0.22637 0.82829 0.39357 1.2347 0.50161 0.40642 0.10803 0.82057 0.16205 1.2424 0.16206 0.93118-0.00001 1.6283-0.24438 2.0913-0.73312 0.46301-0.4836 0.69452-1.2167 0.69453-2.1993v-0.70225c-0.29325 0.50932-0.66881 0.89003-1.1267 1.1421-0.45788 0.25209-1.0058 0.37813-1.6437 0.37813-1.0598 0-1.9138-0.40386-2.562-1.2116-0.64823-0.80771-0.97235-1.8778-0.97235-3.2103 0-1.3376 0.32412-2.4103 0.97235-3.218 0.64822-0.80771 1.5022-1.2116 2.562-1.2116 0.63793 0.00001 1.1858 0.12605 1.6437 0.37813 0.45787 0.2521 0.83343 0.6328 1.1267 1.1421v-1.3119h1.4199v7.5704"/>
  <path id="path3094" style="" d="m607.64 197.97v5.2167h-1.4199v-5.1704c-0.00001-0.81799-0.15949-1.4302-0.47846-1.8366-0.31897-0.40642-0.79743-0.60963-1.4354-0.60964-0.76656 0.00001-1.371 0.24438-1.8135 0.73311-0.44244 0.48875-0.66366 1.155-0.66366 1.9987v4.8849h-1.4276v-12.008h1.4276v4.7074c0.33954-0.5196 0.73825-0.90802 1.1961-1.1653 0.46302-0.25723 0.99549-0.38584 1.5974-0.38585 0.99291 0.00001 1.744 0.30869 2.2534 0.92604 0.50931 0.61222 0.76397 1.5151 0.76398 2.7087"/>
  <path id="path3096" style="" d="m611.89 192.09v2.454h2.9247v1.1035h-2.9247v4.6919c0 0.70482 0.0952 1.1576 0.28553 1.3582 0.19549 0.20064 0.58906 0.30096 1.1807 0.30096h1.4585v1.1884h-1.4585c-1.0958 0-1.8521-0.20321-2.2688-0.60964-0.41672-0.41158-0.62508-1.1576-0.62507-2.2379v-4.6919h-1.0418v-1.1035h1.0418v-2.454h1.4276"/>
 </g>
</svg>
