<?xml version="1.0" encoding="UTF-8" standalone="no"?>
<!-- Created with Inkscape (http://www.inkscape.org/) -->
<svg id="svg2" xmlns:rdf="http://www.w3.org/1999/02/22-rdf-syntax-ns#" xmlns="http://www.w3.org/2000/svg" height="371.46" width="563.86" version="1.1" xmlns:cc="http://creativecommons.org/ns#" xmlns:dc="http://purl.org/dc/elements/1.1/" viewBox="368 75 312.29998 199.18287">
 <metadata id="metadata120">
  <rdf:RDF>
   <cc:Work rdf:about="">
    <dc:format>image/svg+xml</dc:format>
    <dc:type rdf:resource="http://purl.org/dc/dcmitype/StillImage"/>
   </cc:Work>
  </rdf:RDF>
 </metadata>
 <path id="line4" d="m479.58 93.732h70" stroke="#7f7f7f" stroke-dasharray="4" stroke-width="2" fill="none"/>
 <path id="line6" d="m479.58 183.73h70" stroke="#7f7f7f" stroke-dasharray="4" stroke-width="2" fill="none"/>
 <g id="g8" transform="translate(-.41684 -6.2684)">
  <path id="rect10" fill="#fff" d="m400 130h80v30h-80z"/>
  <path id="rect12" d="m400 130h80v30h-80z" stroke="#000" stroke-width="2" fill="none"/>
 </g>
 <g id="g14" transform="translate(-.41684 -6.2684)">
  <path id="rect16" fill="#fff" d="m400 160h80v30h-80z"/>
  <path id="rect18" d="m400 160h80v30h-80z" stroke="#000" stroke-width="2" fill="none"/>
 </g>
 <g id="text20">
  <path id="path3045" style="" d="m443.58 135.56-3.1254 4.2058 3.2874 4.4373h-1.6746l-2.5157-3.3955-2.5157 3.3955h-1.6746l3.3569-4.5222-3.0714-4.1209h1.6746l2.292 3.0791 2.292-3.0791h1.6746"/>
 </g>
 <g id="text24">
  <path id="path3048" style="" d="m439.99 175.01c-0.40129 1.0289-0.79228 1.7003-1.173 2.0141-0.38071 0.31382-0.89003 0.47073-1.528 0.47073h-1.1344v-1.1884h0.83343c0.39099-0.00001 0.69453-0.0926 0.91061-0.27782 0.21607-0.18521 0.4553-0.6225 0.71768-1.3119l0.25466-0.64823-3.4958-8.5041h1.5048l2.701 6.7601 2.701-6.7601h1.5048l-3.7968 9.4456"/>
 </g>
 <g id="text28">
  <path id="path3051" style="" d="m408.04 72.588v1.5202c-0.59164-0.28295-1.1498-0.49388-1.6746-0.63279-0.52477-0.1389-1.0315-0.20835-1.5202-0.20836-0.84887 0.00001-1.5048 0.16464-1.9678 0.49389-0.45788 0.32927-0.68682 0.79743-0.68682 1.4045 0 0.50933 0.15177 0.89518 0.45531 1.1575 0.30867 0.25724 0.89002 0.4656 1.744 0.62508l0.94147 0.19292c1.1627 0.22123 2.0193 0.61222 2.5698 1.173 0.55561 0.55563 0.83342 1.3016 0.83343 2.2379-0.00001 1.1164-0.37557 1.9627-1.1267 2.5389-0.74598 0.5762-1.8418 0.8643-3.2874 0.8643-0.54533 0-1.1267-0.06174-1.744-0.18521-0.61221-0.12347-1.2476-0.30611-1.9061-0.54791v-1.6051c0.63279 0.35498 1.2527 0.6225 1.8598 0.80257 0.60707 0.18006 1.2038 0.2701 1.7903 0.2701 0.89002 0.000001 1.5768-0.17492 2.0604-0.52476 0.48359-0.34984 0.72539-0.84887 0.7254-1.4971-0.00001-0.56591-0.17493-1.0084-0.52476-1.3273-0.3447-0.31896-0.91318-0.55819-1.7054-0.71768l-0.94919-0.18521c-1.1627-0.2315-2.0038-0.5942-2.5235-1.0881-0.51961-0.49388-0.77942-1.1807-0.77942-2.0604 0-1.0186 0.35756-1.8212 1.0727-2.4077 0.72025-0.58648 1.7106-0.87972 2.971-0.87974 0.54018 0.000012 1.0907 0.04889 1.6514 0.14662 0.56077 0.09776 1.1344 0.24438 1.7209 0.43987"/>
  <path id="path3053" style="" d="m418.29 78.515v5.2167h-1.4199v-5.1704c0-0.818-0.15949-1.4302-0.47845-1.8366-0.31898-0.40642-0.79743-0.60963-1.4354-0.60964-0.76656 0.000008-1.3711 0.24438-1.8135 0.73311-0.44245 0.48875-0.66367 1.155-0.66367 1.9987v4.8849h-1.4276v-12.008h1.4276v4.7074c0.33955-0.5196 0.73826-0.90802 1.1961-1.1653 0.46301-0.25722 0.99549-0.38584 1.5974-0.38585 0.99291 0.000009 1.744 0.30869 2.2534 0.92604 0.50931 0.61222 0.76397 1.5151 0.76398 2.7087"/>
  <path id="path3055" style="" d="m425.06 79.387c-1.1473 0.000004-1.9421 0.13119-2.3846 0.39357-0.44244 0.26238-0.66366 0.70997-0.66366 1.3428 0 0.50418 0.16462 0.90546 0.49388 1.2039 0.3344 0.29325 0.78713 0.43987 1.3582 0.43987 0.78712 0.000001 1.4173-0.27781 1.8907-0.83344 0.47845-0.56076 0.71767-1.3042 0.71768-2.2302v-0.3164h-1.4122m2.8321-0.58649v4.9312h-1.4199v-1.3119c-0.32412 0.52476-0.72798 0.91318-1.2116 1.1653-0.4836 0.24694-1.0752 0.37042-1.7749 0.37042-0.88488 0-1.5897-0.24694-2.1144-0.74083-0.51961-0.49903-0.77942-1.1653-0.77942-1.9987 0-0.97234 0.32411-1.7055 0.97234-2.1993 0.65337-0.49388 1.6257-0.74083 2.917-0.74083h1.991v-0.13891c-0.00001-0.65337-0.21608-1.1575-0.64823-1.5125-0.42701-0.36012-1.0289-0.54018-1.8058-0.54019-0.4939 0.000008-0.97492 0.05917-1.4431 0.17749-0.46817 0.11833-0.91833 0.29582-1.3505 0.53247v-1.3119c0.51961-0.20063 1.0238-0.34983 1.5125-0.44759 0.48874-0.10288 0.96462-0.15433 1.4276-0.15434 1.2502 0.000009 2.1839 0.32412 2.8013 0.97234 0.61735 0.64824 0.92603 1.6309 0.92604 2.9479"/>
  <path id="path3057" style="" d="m432.2 82.435v4.5839h-1.4276v-11.93h1.4276v1.3119c0.29838-0.51446 0.67394-0.89516 1.1267-1.1421 0.45787-0.25208 1.0032-0.37812 1.636-0.37813 1.0495 0.000009 1.9009 0.41673 2.5543 1.2502 0.65851 0.83344 0.98777 1.9293 0.98778 3.2874-0.00001 1.3582-0.32927 2.454-0.98778 3.2874-0.65338 0.83344-1.5048 1.2502-2.5543 1.2502-0.6328 0-1.1781-0.12347-1.636-0.37042-0.45274-0.25209-0.8283-0.63536-1.1267-1.1498m4.8308-3.0173c0-1.0444-0.21608-1.8624-0.64822-2.454-0.42702-0.59677-1.0161-0.89516-1.7672-0.89517-0.75112 0.000008-1.3428 0.2984-1.7749 0.89517-0.42701 0.59164-0.64052 1.4096-0.64051 2.454-0.00001 1.0444 0.2135 1.8649 0.64051 2.4617 0.43214 0.59164 1.0238 0.88746 1.7749 0.88745 0.75112 0.000001 1.3402-0.29582 1.7672-0.88745 0.43214-0.59678 0.64822-1.4174 0.64822-2.4617"/>
  <path id="path3059" style="" d="m448.25 79.055v0.69453h-6.5286c0.0617 0.97749 0.35498 1.7235 0.87974 2.2379 0.5299 0.50932 1.2656 0.76398 2.2071 0.76398 0.54533 0.000001 1.0727-0.06688 1.582-0.20064 0.51446-0.13376 1.0238-0.3344 1.528-0.60193v1.3428c-0.50933 0.21608-1.0315 0.3807-1.5666 0.49389-0.53505 0.11318-1.0778 0.16977-1.6283 0.16977-1.3788 0-2.472-0.40128-3.2797-1.2039-0.80257-0.80256-1.2038-1.8881-1.2038-3.2566 0-1.4148 0.3807-2.5363 1.1421-3.3646 0.76655-0.83343 1.798-1.2501 3.0945-1.2502 1.1627 0.000009 2.081 0.37557 2.755 1.1267 0.67908 0.74598 1.0186 1.7621 1.0186 3.0482m-1.4199-0.41672c-0.0103-0.77684-0.22894-1.3968-0.65594-1.8598-0.42187-0.46301-0.98264-0.69452-1.6823-0.69453-0.79228 0.000008-1.4276 0.2238-1.9061 0.67138-0.47331 0.44759-0.74598 1.0778-0.818 1.8907l5.0623-0.0077"/>
 </g>
 <g id="text32">
  <path id="path3062" style="" d="m556.6 78.33c0.33439 0.11319 0.6585 0.35499 0.97234 0.7254 0.31896 0.37042 0.63793 0.87974 0.9569 1.528l1.582 3.1485h-1.6746l-1.474-2.9556c-0.38071-0.7717-0.75112-1.2836-1.1112-1.5357-0.35499-0.25208-0.84116-0.37813-1.4585-0.37813h-1.6977v4.8694h-1.5588v-11.521h3.5189c1.317 0.000011 2.2997 0.27525 2.9479 0.82572 0.64822 0.55049 0.97234 1.3814 0.97235 2.4926-0.00001 0.7254-0.16979 1.3273-0.50933 1.8058-0.33441 0.47846-0.82315 0.81029-1.4662 0.99549m-3.9048-4.8386v4.09h1.9601c0.75112 0.000006 1.317-0.17234 1.6977-0.51704 0.38584-0.34983 0.57877-0.86172 0.57878-1.5357-0.00001-0.67394-0.19294-1.1807-0.57878-1.5202-0.38071-0.34468-0.94662-0.51703-1.6977-0.51704h-1.9601"/>
  <path id="path3064" style="" d="m568.74 79.055v0.69453h-6.5286c0.0617 0.97749 0.35498 1.7235 0.87973 2.2379 0.5299 0.50932 1.2656 0.76398 2.2071 0.76398 0.54533 0.000001 1.0727-0.06688 1.582-0.20064 0.51446-0.13376 1.0238-0.3344 1.528-0.60193v1.3428c-0.50933 0.21608-1.0315 0.3807-1.5666 0.49389-0.53505 0.11318-1.0778 0.16977-1.6283 0.16977-1.3788 0-2.472-0.40128-3.2797-1.2039-0.80256-0.80256-1.2038-1.8881-1.2038-3.2566 0-1.4148 0.38071-2.5363 1.1421-3.3646 0.76655-0.83343 1.798-1.2501 3.0945-1.2502 1.1627 0.000009 2.081 0.37557 2.755 1.1267 0.67909 0.74598 1.0186 1.7621 1.0186 3.0482m-1.4199-0.41672c-0.0103-0.77684-0.22895-1.3968-0.65595-1.8598-0.42187-0.46301-0.98264-0.69452-1.6823-0.69453-0.79229 0.000008-1.4276 0.2238-1.9061 0.67138-0.47331 0.44759-0.74598 1.0778-0.818 1.8907l5.0624-0.0077"/>
  <path id="path3066" style="" d="m577.29 75.42v1.3273c-0.40129-0.22121-0.80515-0.38584-1.2116-0.49389-0.40129-0.11318-0.80771-0.16977-1.2193-0.16977-0.9209 0.000008-1.636 0.29325-2.1453 0.87974-0.50932 0.58135-0.76398 1.3994-0.76398 2.454 0 1.0547 0.25466 1.8752 0.76398 2.4617 0.50932 0.58135 1.2244 0.87202 2.1453 0.87202 0.41157 0.000001 0.81799-0.05402 1.2193-0.16206 0.40642-0.11318 0.81028-0.28038 1.2116-0.5016v1.3119c-0.39615 0.18521-0.80772 0.32411-1.2347 0.41672-0.42187 0.0926-0.87202 0.13891-1.3505 0.13891-1.3016 0-2.3357-0.409-3.1022-1.227-0.76656-0.818-1.1498-1.9215-1.1498-3.3106-0.00001-1.4096 0.38584-2.5183 1.1575-3.326 0.77685-0.8077 1.8392-1.2116 3.1871-1.2116 0.43729 0.000009 0.8643 0.04631 1.281 0.13891 0.41671 0.08747 0.82057 0.22123 1.2116 0.40128"/>
  <path id="path3068" style="" d="m581.18 72.635v2.454h2.9247v1.1035h-2.9247v4.6919c0 0.70482 0.0952 1.1576 0.28553 1.3582 0.1955 0.20064 0.58906 0.30096 1.1807 0.30096h1.4585v1.1884h-1.4585c-1.0958 0-1.8521-0.20321-2.2688-0.60964-0.41672-0.41157-0.62508-1.1575-0.62508-2.2379v-4.6919h-1.0418v-1.1035h1.0418v-2.454h1.4276"/>
  <path id="path3070" style="" d="m589.91 79.387c-1.1473 0.000004-1.9421 0.13119-2.3846 0.39357-0.44244 0.26238-0.66366 0.70997-0.66366 1.3428 0 0.50418 0.16463 0.90546 0.49389 1.2039 0.3344 0.29325 0.78713 0.43987 1.3582 0.43987 0.78713 0.000001 1.4174-0.27781 1.8907-0.83344 0.47845-0.56076 0.71768-1.3042 0.71768-2.2302v-0.3164h-1.4122m2.8321-0.58649v4.9312h-1.4199v-1.3119c-0.32412 0.52476-0.72797 0.91318-1.2116 1.1653-0.4836 0.24694-1.0752 0.37042-1.7749 0.37042-0.88489 0-1.5897-0.24694-2.1145-0.74083-0.51961-0.49903-0.77942-1.1653-0.77942-1.9987 0-0.97234 0.32412-1.7055 0.97235-2.1993 0.65336-0.49388 1.6257-0.74083 2.917-0.74083h1.991v-0.13891c0-0.65337-0.21608-1.1575-0.64822-1.5125-0.42702-0.36012-1.0289-0.54018-1.8058-0.54019-0.49389 0.000008-0.97492 0.05917-1.4431 0.17749-0.46817 0.11833-0.91832 0.29582-1.3505 0.53247v-1.3119c0.51961-0.20063 1.0238-0.34983 1.5125-0.44759 0.48874-0.10288 0.96462-0.15433 1.4276-0.15434 1.2502 0.000009 2.1839 0.32412 2.8013 0.97234 0.61735 0.64824 0.92603 1.6309 0.92604 2.9479"/>
  <path id="path3072" style="" d="m602.86 78.515v5.2167h-1.4199v-5.1704c-0.00001-0.818-0.15949-1.4302-0.47845-1.8366-0.31898-0.40642-0.79743-0.60963-1.4354-0.60964-0.76656 0.000008-1.3711 0.24438-1.8135 0.73311-0.44244 0.48875-0.66366 1.155-0.66366 1.9987v4.8849h-1.4276v-8.643h1.4276v1.3428c0.33955-0.5196 0.73826-0.90802 1.1961-1.1653 0.46301-0.25722 0.99548-0.38584 1.5974-0.38585 0.99292 0.000009 1.744 0.30869 2.2534 0.92604 0.50932 0.61222 0.76398 1.5151 0.76399 2.7087"/>
  <path id="path3074" style="" d="m611.4 79.31c-0.00001-1.0289-0.21351-1.8263-0.64051-2.3923-0.42187-0.5659-1.0161-0.84886-1.7826-0.84887-0.76141 0.000008-1.3556 0.28296-1.7826 0.84887-0.42187 0.56592-0.6328 1.3633-0.63279 2.3923-0.00001 1.0238 0.21092 1.8186 0.63279 2.3846 0.427 0.56591 1.0212 0.84887 1.7826 0.84887 0.76655 0.000001 1.3608-0.28296 1.7826-0.84887 0.427-0.56591 0.6405-1.3608 0.64051-2.3846m1.4199 3.3492c-0.00001 1.4714-0.3267 2.5646-0.98006 3.2797-0.65338 0.72025-1.654 1.0804-3.0019 1.0804-0.49904-0.000003-0.96977-0.03859-1.4122-0.11576-0.44245-0.07203-0.87202-0.18521-1.2887-0.33955v-1.3813c0.41672 0.22636 0.82829 0.39356 1.2347 0.5016 0.40642 0.10804 0.82057 0.16205 1.2424 0.16206 0.93117-0.000002 1.6283-0.24437 2.0913-0.73311 0.46301-0.4836 0.69452-1.2167 0.69453-2.1993v-0.70225c-0.29325 0.50932-0.66881 0.89003-1.1267 1.1421-0.45788 0.25209-1.0058 0.37813-1.6437 0.37813-1.0598 0-1.9138-0.40386-2.562-1.2116-0.64823-0.80771-0.97234-1.8778-0.97234-3.2103 0-1.3376 0.32411-2.4103 0.97234-3.218 0.64822-0.8077 1.5022-1.2116 2.562-1.2116 0.63793 0.000009 1.1858 0.12605 1.6437 0.37813 0.45787 0.2521 0.83343 0.6328 1.1267 1.1421v-1.3119h1.4199v7.5704"/>
  <path id="path3076" style="" d="m615.74 71.724h1.4199v12.008h-1.4199v-12.008"/>
  <path id="path3078" style="" d="m627.52 79.055v0.69453h-6.5286c0.0617 0.97749 0.35498 1.7235 0.87974 2.2379 0.5299 0.50932 1.2656 0.76398 2.2071 0.76398 0.54533 0.000001 1.0727-0.06688 1.582-0.20064 0.51446-0.13376 1.0238-0.3344 1.528-0.60193v1.3428c-0.50933 0.21608-1.0315 0.3807-1.5666 0.49389-0.53505 0.11318-1.0778 0.16977-1.6283 0.16977-1.3788 0-2.472-0.40128-3.2797-1.2039-0.80257-0.80256-1.2038-1.8881-1.2038-3.2566 0-1.4148 0.3807-2.5363 1.1421-3.3646 0.76655-0.83343 1.798-1.2501 3.0945-1.2502 1.1627 0.000009 2.081 0.37557 2.755 1.1267 0.67908 0.74598 1.0186 1.7621 1.0186 3.0482m-1.4199-0.41672c-0.0103-0.77684-0.22894-1.3968-0.65594-1.8598-0.42187-0.46301-0.98264-0.69452-1.6823-0.69453-0.79228 0.000008-1.4276 0.2238-1.9061 0.67138-0.47331 0.44759-0.74598 1.0778-0.818 1.8907l5.0623-0.0077"/>
 </g>
 <g id="g36" transform="translate(-.41684 -6.2684)">
  <path id="rect38" fill="#fff" d="m550 160h80v30h-80z"/>
  <path id="rect40" d="m550 160h80v30h-80z" stroke="#000" stroke-width="2" fill="none"/>
 </g>
 <g id="text42">
  <path id="path3083" style="" d="m589.99 175.01c-0.40129 1.0289-0.79228 1.7003-1.173 2.0141-0.38071 0.31382-0.89003 0.47073-1.528 0.47073h-1.1344v-1.1884h0.83343c0.39099-0.00001 0.69453-0.0926 0.91061-0.27782 0.21607-0.18521 0.45529-0.6225 0.71768-1.3119l0.25466-0.64823-3.4958-8.5041h1.5048l2.701 6.7601 2.701-6.7601h1.5048l-3.7968 9.4456"/>
 </g>
 <g id="g46" transform="translate(-.41684 -6.2684)">
  <path id="rect48" fill="#fff" d="m550 190h80v30h-80z"/>
  <path id="rect50" d="m550 190h80v30h-80z" stroke="#000" stroke-width="2" fill="none"/>
 </g>
 <g id="g52" transform="translate(-.41684 -6.2684)">
  <path id="rect54" fill="#fff" d="m550 220h80v30h-80z"/>
  <path id="rect56" d="m550 220h80v30h-80z" stroke="#000" stroke-width="2" fill="none"/>
 </g>
 <g id="text58">
  <path id="path3090" style="" d="m568.45 195.56h1.4199l1.7749 6.7446 1.7672-6.7446h1.6746l1.7749 6.7446 1.7672-6.7446h1.4199l-2.2611 8.643h-1.6746l-1.8598-7.0842-1.8675 7.0842h-1.6746l-2.2611-8.643"/>
  <path id="path3092" style="" d="m582.21 195.56h1.4199v8.643h-1.4199v-8.643m0-3.3646h1.4199v1.7981h-1.4199v-1.7981"/>
  <path id="path3094" style="" d="m592.28 196.88v-4.6765h1.4199v12.008h-1.4199v-1.2964c-0.2984 0.51447-0.67653 0.89774-1.1344 1.1498-0.45274 0.24694-0.99807 0.37042-1.636 0.37042-1.0444 0-1.8958-0.41672-2.5543-1.2502-0.65337-0.83343-0.98006-1.9292-0.98006-3.2874s0.32669-2.454 0.98006-3.2874c0.65852-0.83343 1.51-1.2502 2.5543-1.2502 0.63793 0.00001 1.1833 0.12606 1.636 0.37814 0.45787 0.24695 0.836 0.62765 1.1344 1.1421m-4.8386 3.0174c0 1.0444 0.2135 1.8649 0.64051 2.4617 0.43215 0.59163 1.0238 0.88745 1.7749 0.88745 0.75112 0 1.3428-0.29582 1.7749-0.88745 0.43214-0.59678 0.64822-1.4174 0.64823-2.4617-0.00001-1.0444-0.21609-1.8624-0.64823-2.454-0.43216-0.59677-1.0238-0.89516-1.7749-0.89517-0.75112 0.00001-1.3428 0.2984-1.7749 0.89517-0.42701 0.59164-0.64051 1.4096-0.64051 2.454"/>
  <path id="path3096" style="" d="m598.03 193.11v2.454h2.9247v1.1035h-2.9247v4.6919c-0.00001 0.70482 0.0952 1.1576 0.28553 1.3582 0.19549 0.20065 0.58906 0.30097 1.1807 0.30097h1.4585v1.1884h-1.4585c-1.0958 0-1.8521-0.20321-2.2688-0.60964-0.41672-0.41157-0.62508-1.1576-0.62508-2.2379v-4.6919h-1.0418v-1.1035h1.0418v-2.454h1.4276"/>
  <path id="path3098" style="" d="m610.02 198.99v5.2167h-1.4199v-5.1704c-0.00001-0.818-0.15949-1.4302-0.47846-1.8366-0.31897-0.40642-0.79742-0.60963-1.4354-0.60964-0.76656 0.00001-1.371 0.24438-1.8135 0.73312-0.44244 0.48875-0.66366 1.155-0.66366 1.9987v4.8848h-1.4276v-12.008h1.4276v4.7074c0.33954-0.5196 0.73825-0.90803 1.1961-1.1653 0.46302-0.25722 0.99549-0.38584 1.5974-0.38585 0.99291 0.00001 1.744 0.30869 2.2534 0.92604 0.50932 0.61222 0.76398 1.5151 0.76398 2.7087"/>
 </g>
 <g id="text62">
  <path id="path3101" style="" d="m573.05 228.99v5.2167h-1.4199v-5.1704c-0.00001-0.818-0.1595-1.4302-0.47846-1.8366-0.31897-0.40642-0.79743-0.60963-1.4354-0.60964-0.76656 0.00001-1.371 0.24438-1.8135 0.73312-0.44245 0.48875-0.66367 1.155-0.66366 1.9987v4.8848h-1.4276v-12.008h1.4276v4.7074c0.33954-0.5196 0.73825-0.90803 1.1961-1.1653 0.46302-0.25722 0.99549-0.38584 1.5974-0.38585 0.99291 0.00001 1.744 0.30869 2.2534 0.92604 0.50931 0.61222 0.76397 1.5151 0.76398 2.7087"/>
  <path id="path3103" style="" d="m583.29 229.53v0.69453h-6.5286c0.0617 0.97748 0.35497 1.7235 0.87973 2.2379 0.5299 0.50933 1.2656 0.76399 2.2071 0.76399 0.54533 0 1.0727-0.0669 1.582-0.20065 0.51445-0.13376 1.0238-0.3344 1.528-0.60192v1.3428c-0.50933 0.21607-1.0315 0.3807-1.5666 0.49388-0.53505 0.11319-1.0778 0.16978-1.6283 0.16978-1.3788 0-2.472-0.40129-3.2797-1.2038-0.80256-0.80257-1.2038-1.8881-1.2038-3.2566 0-1.4148 0.38071-2.5363 1.1421-3.3646 0.76655-0.83343 1.798-1.2502 3.0945-1.2502 1.1627 0.00001 2.081 0.37557 2.755 1.1267 0.67908 0.74599 1.0186 1.7621 1.0186 3.0482m-1.4199-0.41672c-0.0103-0.77684-0.22894-1.3968-0.65594-1.8598-0.42187-0.46301-0.98264-0.69452-1.6823-0.69453-0.79229 0.00001-1.4276 0.2238-1.9061 0.67138-0.47331 0.44759-0.74598 1.0778-0.818 1.8907l5.0623-0.008"/>
  <path id="path3105" style="" d="m585.62 225.56h1.4199v8.643h-1.4199v-8.643m0-3.3646h1.4199v1.7981h-1.4199v-1.7981"/>
  <path id="path3107" style="" d="m595.69 229.78c-0.00001-1.0289-0.21351-1.8264-0.64051-2.3923-0.42187-0.56591-1.0161-0.84886-1.7826-0.84887-0.76141 0.00001-1.3556 0.28296-1.7826 0.84887-0.42187 0.56592-0.6328 1.3633-0.6328 2.3923 0 1.0238 0.21093 1.8186 0.6328 2.3846 0.427 0.56591 1.0212 0.84887 1.7826 0.84887 0.76655 0 1.3608-0.28296 1.7826-0.84887 0.427-0.56591 0.6405-1.3608 0.64051-2.3846m1.4199 3.3492c0 1.4714-0.32669 2.5646-0.98005 3.2797-0.65338 0.72025-1.654 1.0804-3.0019 1.0804-0.49904 0-0.96978-0.0386-1.4122-0.11575-0.44245-0.072-0.87203-0.18521-1.2887-0.33955v-1.3813c0.41671 0.22636 0.82829 0.39356 1.2347 0.5016 0.40642 0.10804 0.82057 0.16206 1.2424 0.16206 0.93118 0 1.6283-0.24437 2.0913-0.73311 0.46301-0.4836 0.69452-1.2167 0.69453-2.1994v-0.70224c-0.29325 0.50932-0.66881 0.89002-1.1267 1.1421-0.45788 0.25209-1.0058 0.37813-1.6437 0.37813-1.0598 0-1.9138-0.40385-2.562-1.2116-0.64823-0.80771-0.97235-1.8778-0.97235-3.2103 0-1.3376 0.32412-2.4103 0.97235-3.218 0.64822-0.8077 1.5022-1.2116 2.562-1.2116 0.63793 0.00001 1.1858 0.12606 1.6437 0.37814 0.45787 0.25209 0.83343 0.6328 1.1267 1.1421v-1.3119h1.4199v7.5704"/>
  <path id="path3109" style="" d="m607.22 228.99v5.2167h-1.4199v-5.1704c-0.00001-0.818-0.15949-1.4302-0.47846-1.8366-0.31897-0.40642-0.79743-0.60963-1.4354-0.60964-0.76656 0.00001-1.371 0.24438-1.8135 0.73312-0.44244 0.48875-0.66366 1.155-0.66366 1.9987v4.8848h-1.4276v-12.008h1.4276v4.7074c0.33954-0.5196 0.73825-0.90803 1.1961-1.1653 0.46302-0.25722 0.99549-0.38584 1.5974-0.38585 0.99291 0.00001 1.744 0.30869 2.2534 0.92604 0.50931 0.61222 0.76397 1.5151 0.76398 2.7087"/>
  <path id="path3111" style="" d="m611.48 223.11v2.454h2.9247v1.1035h-2.9247v4.6919c0 0.70482 0.0952 1.1576 0.28553 1.3582 0.19549 0.20065 0.58906 0.30097 1.1807 0.30097h1.4585v1.1884h-1.4585c-1.0958 0-1.8521-0.20321-2.2688-0.60964-0.41672-0.41157-0.62508-1.1576-0.62507-2.2379v-4.6919h-1.0418v-1.1035h1.0418v-2.454h1.4276"/>
 </g>
 <g id="g66" transform="translate(-.41684 -6.2684)">
  <path id="rect68" fill="#fff" d="m400 100h80v30h-80z"/>
  <path id="rect70" d="m400 100h80v30h-80z" stroke="#000" stroke-width="2" fill="none"/>
 </g>
 <g id="text72">
  <path id="path3116" style="" d="m427.17 106.88v-4.6765h1.4199v12.008h-1.4199v-1.2964c-0.2984 0.51446-0.67653 0.89774-1.1344 1.1498-0.45274 0.24694-0.99807 0.37041-1.636 0.37041-1.0444 0-1.8958-0.41671-2.5543-1.2502-0.65337-0.83343-0.98006-1.9292-0.98006-3.2874s0.32669-2.454 0.98006-3.2874c0.65852-0.83342 1.51-1.2501 2.5543-1.2502 0.63793 0.00001 1.1833 0.12605 1.636 0.37813 0.45787 0.24696 0.836 0.62766 1.1344 1.1421m-4.8386 3.0173c0 1.0444 0.2135 1.865 0.64051 2.4617 0.43215 0.59164 1.0238 0.88746 1.7749 0.88746 0.75112 0 1.3428-0.29582 1.7749-0.88746 0.43214-0.59677 0.64822-1.4174 0.64823-2.4617-0.00001-1.0444-0.21609-1.8624-0.64823-2.454-0.43216-0.59677-1.0238-0.89516-1.7749-0.89517-0.75112 0.00001-1.3428 0.2984-1.7749 0.89517-0.42701 0.59164-0.64051 1.4096-0.64051 2.454"/>
  <path id="path3118" style="" d="m436.53 106.89c-0.15949-0.0926-0.33441-0.15947-0.52475-0.20064-0.18522-0.0463-0.391-0.0694-0.61736-0.0694-0.80258 0.00001-1.4199 0.26238-1.8521 0.78713-0.42701 0.51962-0.64051 1.2682-0.64051 2.2456v4.553h-1.4276v-8.643h1.4276v1.3428c0.29839-0.52475 0.68681-0.91317 1.1653-1.1653 0.47845-0.25722 1.0598-0.38584 1.744-0.38585 0.0978 0.00001 0.20578 0.008 0.32412 0.0232 0.11832 0.0103 0.24951 0.0283 0.39356 0.054l0.008 1.4585"/>
  <path id="path3120" style="" d="m441.96 109.86c-1.1473 0.00001-1.9421 0.1312-2.3846 0.39357-0.44244 0.26238-0.66366 0.70997-0.66366 1.3428 0 0.50418 0.16463 0.90546 0.49389 1.2038 0.3344 0.29325 0.78713 0.43987 1.3582 0.43987 0.78713 0 1.4174-0.27781 1.8907-0.83344 0.47845-0.56076 0.71768-1.3042 0.71768-2.2302v-0.3164h-1.4122m2.8321-0.58649v4.9312h-1.4199v-1.3119c-0.32412 0.52476-0.72797 0.91318-1.2116 1.1653-0.48361 0.24694-1.0752 0.37041-1.7749 0.37041-0.88489 0-1.5897-0.24694-2.1145-0.74083-0.51961-0.49903-0.77942-1.1653-0.77942-1.9987 0-0.97234 0.32412-1.7054 0.97235-2.1993 0.65337-0.49388 1.6257-0.74083 2.917-0.74083h1.991v-0.13891c0-0.65336-0.21608-1.1575-0.64822-1.5125-0.42702-0.36012-1.0289-0.54018-1.8058-0.54019-0.49389 0.00001-0.97492 0.0592-1.4431 0.17749-0.46817 0.11834-0.91832 0.29583-1.3505 0.53248v-1.3119c0.51961-0.20064 1.0238-0.34983 1.5125-0.44759 0.48874-0.10288 0.96462-0.15433 1.4276-0.15434 1.2502 0.00001 2.1839 0.32412 2.8013 0.97234 0.61735 0.64824 0.92603 1.6309 0.92604 2.9479"/>
  <path id="path3122" style="" d="m446.9 105.56h1.4199l1.7749 6.7446 1.7672-6.7446h1.6746l1.7749 6.7446 1.7672-6.7446h1.4199l-2.2611 8.643h-1.6746l-1.8598-7.0842-1.8675 7.0842h-1.6746l-2.2611-8.643"/>
 </g>
 <g id="g76" transform="translate(-.41684 -6.2684)">
  <path id="rect78" fill="#fff" d="m550 100h80v30h-80z"/>
  <path id="rect80" d="m550 100h80v30h-80z" stroke="#000" stroke-width="2" fill="none"/>
 </g>
 <g id="text82">
  <path id="path3127" style="" d="m577.17 106.88v-4.6765h1.4199v12.008h-1.4199v-1.2964c-0.2984 0.51446-0.67653 0.89774-1.1344 1.1498-0.45274 0.24694-0.99807 0.37041-1.636 0.37041-1.0444 0-1.8958-0.41671-2.5543-1.2502-0.65337-0.83343-0.98006-1.9292-0.98006-3.2874s0.32669-2.454 0.98006-3.2874c0.65852-0.83342 1.51-1.2501 2.5543-1.2502 0.63793 0.00001 1.1833 0.12605 1.636 0.37813 0.45787 0.24696 0.836 0.62766 1.1344 1.1421m-4.8386 3.0173c0 1.0444 0.2135 1.865 0.64051 2.4617 0.43215 0.59164 1.0238 0.88746 1.7749 0.88746 0.75112 0 1.3428-0.29582 1.7749-0.88746 0.43214-0.59677 0.64822-1.4174 0.64823-2.4617-0.00001-1.0444-0.21609-1.8624-0.64823-2.454-0.43216-0.59677-1.0238-0.89516-1.7749-0.89517-0.75112 0.00001-1.3428 0.2984-1.7749 0.89517-0.42701 0.59164-0.64051 1.4096-0.64051 2.454"/>
  <path id="path3129" style="" d="m586.53 106.89c-0.15949-0.0926-0.33441-0.15947-0.52475-0.20064-0.18522-0.0463-0.391-0.0694-0.61736-0.0694-0.80258 0.00001-1.4199 0.26238-1.8521 0.78713-0.42701 0.51962-0.64052 1.2682-0.64051 2.2456v4.553h-1.4276v-8.643h1.4276v1.3428c0.29838-0.52475 0.68681-0.91317 1.1653-1.1653 0.47845-0.25722 1.0598-0.38584 1.744-0.38585 0.0978 0.00001 0.20578 0.008 0.32412 0.0232 0.11832 0.0103 0.24951 0.0283 0.39356 0.054l0.008 1.4585"/>
  <path id="path3131" style="" d="m591.96 109.86c-1.1473 0.00001-1.9421 0.1312-2.3846 0.39357-0.44244 0.26238-0.66366 0.70997-0.66366 1.3428 0 0.50418 0.16463 0.90546 0.49389 1.2038 0.3344 0.29325 0.78713 0.43987 1.3582 0.43987 0.78713 0 1.4174-0.27781 1.8907-0.83344 0.47845-0.56076 0.71768-1.3042 0.71768-2.2302v-0.3164h-1.4122m2.8321-0.58649v4.9312h-1.4199v-1.3119c-0.32412 0.52476-0.72797 0.91318-1.2116 1.1653-0.4836 0.24694-1.0752 0.37041-1.7749 0.37041-0.88489 0-1.5897-0.24694-2.1145-0.74083-0.51961-0.49903-0.77942-1.1653-0.77942-1.9987 0-0.97234 0.32412-1.7054 0.97235-2.1993 0.65336-0.49388 1.6257-0.74083 2.917-0.74083h1.991v-0.13891c0-0.65336-0.21608-1.1575-0.64823-1.5125-0.42701-0.36012-1.0289-0.54018-1.8058-0.54019-0.49389 0.00001-0.97492 0.0592-1.4431 0.17749-0.46817 0.11834-0.91832 0.29583-1.3505 0.53248v-1.3119c0.51961-0.20064 1.0238-0.34983 1.5125-0.44759 0.48874-0.10288 0.96462-0.15433 1.4276-0.15434 1.2502 0.00001 2.1839 0.32412 2.8013 0.97234 0.61735 0.64824 0.92603 1.6309 0.92604 2.9479"/>
  <path id="path3133" style="" d="m596.9 105.56h1.4199l1.7749 6.7446 1.7672-6.7446h1.6746l1.7749 6.7446 1.7672-6.7446h1.4199l-2.2611 8.643h-1.6746l-1.8598-7.0842-1.8675 7.0842h-1.6746l-2.2611-8.643"/>
 </g>
 <g id="g86" transform="translate(-.41684 -6.2684)">
  <path id="rect88" fill="#fff" d="m550 130h80v30h-80z"/>
  <path id="rect90" d="m550 130h80v30h-80z" stroke="#000" stroke-width="2" fill="none"/>
 </g>
 <g id="text92">
  <path id="path3138" style="" d="m593.58 135.56-3.1254 4.2058 3.2874 4.4373h-1.6746l-2.5157-3.3955-2.5157 3.3955h-1.6746l3.3569-4.5222-3.0714-4.1209h1.6746l2.292 3.0791 2.2919-3.0791h1.6746"/>
 </g>
 <g id="text96">
  <path id="path3141" style="" d="m406.58 265.34v1.3428c-0.40129-0.20578-0.818-0.36012-1.2502-0.46302-0.43216-0.10288-0.87974-0.15433-1.3428-0.15434-0.70482 0.00001-1.2347 0.10805-1.5897 0.32412-0.34984 0.21608-0.52476 0.54019-0.52475 0.97234-0.00001 0.32926 0.12604 0.58907 0.37813 0.77942 0.25209 0.18521 0.75883 0.3627 1.5202 0.53247l0.48617 0.10804c1.0084 0.21608 1.7234 0.52218 2.1453 0.91832 0.427 0.391 0.6405 0.9389 0.64051 1.6437-0.00001 0.80257-0.31897 1.4379-0.95691 1.9061-0.63279 0.46817-1.5048 0.70225-2.6161 0.70225-0.46302 0-0.94662-0.0463-1.4508-0.13891-0.49903-0.0874-1.0264-0.22122-1.582-0.40128v-1.4662c0.52475 0.27267 1.0418 0.47846 1.5511 0.61736 0.50932 0.13376 1.0135 0.20064 1.5125 0.20064 0.6688 0 1.1833-0.11318 1.5434-0.33954 0.36012-0.23151 0.54018-0.55563 0.54019-0.97234-0.00001-0.38585-0.13119-0.68167-0.39357-0.88746-0.25723-0.20578-0.82572-0.40385-1.7054-0.59421l-0.49389-0.11575c-0.87974-0.18521-1.5151-0.46816-1.9061-0.84887-0.39099-0.38585-0.58649-0.91317-0.58649-1.582 0-0.81285 0.2881-1.4405 0.86431-1.883 0.5762-0.44243 1.3942-0.66365 2.454-0.66366 0.52475 0.00001 1.0186 0.0386 1.4817 0.11575 0.46302 0.0772 0.89002 0.19294 1.281 0.34727"/>
  <path id="path3143" style="" d="m416.5 268.51v5.2167h-1.4199v-5.1704c-0.00001-0.81799-0.15949-1.4302-0.47845-1.8366-0.31898-0.40642-0.79743-0.60964-1.4354-0.60964-0.76656 0-1.3711 0.24438-1.8135 0.73311-0.44244 0.48875-0.66366 1.155-0.66366 1.9987v4.8849h-1.4276v-12.008h1.4276v4.7074c0.33955-0.5196 0.73826-0.90802 1.1961-1.1653 0.46301-0.25723 0.99548-0.38584 1.5974-0.38585 0.99292 0.00001 1.744 0.30869 2.2534 0.92604 0.50931 0.61222 0.76397 1.5151 0.76398 2.7087"/>
  <path id="path3145" style="" d="m423.27 269.39c-1.1473 0.00001-1.9421 0.13119-2.3846 0.39357-0.44245 0.26238-0.66367 0.70996-0.66366 1.3428-0.00001 0.50418 0.16462 0.90547 0.49388 1.2039 0.3344 0.29324 0.78713 0.43986 1.3582 0.43986 0.78713 0 1.4174-0.27781 1.8907-0.83343 0.47844-0.56077 0.71767-1.3042 0.71768-2.2302v-0.3164h-1.4122m2.8321-0.58649v4.9312h-1.4199v-1.3119c-0.32412 0.52476-0.72798 0.91318-1.2116 1.1653-0.4836 0.24694-1.0752 0.37041-1.7749 0.37041-0.88488 0-1.5897-0.24694-2.1145-0.74083-0.51961-0.49903-0.77941-1.1653-0.77941-1.9987 0-0.97234 0.32411-1.7054 0.97234-2.1993 0.65337-0.49389 1.6257-0.74083 2.917-0.74084h1.991v-0.1389c-0.00001-0.65337-0.21609-1.1575-0.64823-1.5125-0.42701-0.36012-1.0289-0.54018-1.8058-0.54019-0.49389 0.00001-0.97491 0.0592-1.4431 0.17749-0.46817 0.11833-0.91833 0.29582-1.3505 0.53247v-1.3119c0.51961-0.20063 1.0238-0.34983 1.5125-0.44758 0.48874-0.10289 0.96462-0.15433 1.4276-0.15434 1.2501 0.00001 2.1839 0.32412 2.8013 0.97234 0.61736 0.64823 0.92604 1.6309 0.92604 2.9479"/>
  <path id="path3147" style="" d="m430.41 272.44v4.5839h-1.4276v-11.93h1.4276v1.3119c0.29838-0.51446 0.67394-0.89517 1.1267-1.1421 0.45787-0.25208 1.0032-0.37812 1.636-0.37813 1.0495 0.00001 1.9009 0.41672 2.5543 1.2502 0.65851 0.83344 0.98777 1.9292 0.98778 3.2874-0.00001 1.3582-0.32927 2.454-0.98778 3.2874-0.65338 0.83343-1.5048 1.2502-2.5543 1.2502-0.6328 0-1.1781-0.12347-1.636-0.37041-0.45274-0.25209-0.8283-0.63537-1.1267-1.1498m4.8308-3.0173c0-1.0444-0.21608-1.8624-0.64822-2.454-0.42702-0.59678-1.0161-0.89517-1.7672-0.89518-0.75112 0.00001-1.3428 0.2984-1.7749 0.89518-0.42701 0.59164-0.64052 1.4096-0.64051 2.454-0.00001 1.0444 0.2135 1.8649 0.64051 2.4617 0.43214 0.59164 1.0238 0.88745 1.7749 0.88745 0.75112 0 1.3402-0.29581 1.7672-0.88745 0.43214-0.59678 0.64822-1.4174 0.64822-2.4617"/>
  <path id="path3149" style="" d="m446.46 269.06v0.69453h-6.5286c0.0617 0.97749 0.35498 1.7235 0.87974 2.2379 0.5299 0.50932 1.2656 0.76398 2.2071 0.76398 0.54533 0 1.0727-0.0669 1.582-0.20064 0.51446-0.13376 1.0238-0.3344 1.528-0.60193v1.3428c-0.50933 0.21608-1.0315 0.3807-1.5666 0.49389-0.53505 0.11318-1.0778 0.16977-1.6283 0.16977-1.3788 0-2.472-0.40128-3.2797-1.2038-0.80257-0.80257-1.2038-1.8881-1.2038-3.2566 0-1.4148 0.3807-2.5363 1.1421-3.3646 0.76655-0.83343 1.798-1.2501 3.0945-1.2502 1.1627 0.00001 2.081 0.37557 2.755 1.1267 0.67908 0.74598 1.0186 1.762 1.0186 3.0482m-1.4199-0.41672c-0.0103-0.77684-0.22894-1.3968-0.65594-1.8598-0.42187-0.46301-0.98264-0.69452-1.6823-0.69453-0.79228 0.00001-1.4276 0.2238-1.9061 0.67138-0.47332 0.44759-0.74598 1.0778-0.818 1.8907l5.0623-0.008"/>
  <path id="path3151" style="" d="m455.36 276.36v1.1035h-8.2109v-1.1035h8.2109"/>
  <path id="path3153" style="" d="m462.38 266.4v-4.6765h1.4199v12.008h-1.4199v-1.2965c-0.29839 0.51447-0.67653 0.89775-1.1344 1.1498-0.45274 0.24694-0.99807 0.37041-1.636 0.37041-1.0444 0-1.8958-0.41672-2.5543-1.2502-0.65337-0.83344-0.98006-1.9292-0.98006-3.2874s0.32669-2.454 0.98006-3.2874c0.65851-0.83343 1.51-1.2501 2.5543-1.2502 0.63794 0.00001 1.1833 0.12605 1.636 0.37813 0.45786 0.24695 0.836 0.62766 1.1344 1.1421m-4.8386 3.0173c0 1.0444 0.2135 1.8649 0.64051 2.4617 0.43215 0.59164 1.0238 0.88745 1.7749 0.88745 0.75111 0 1.3428-0.29581 1.7749-0.88745 0.43214-0.59678 0.64822-1.4174 0.64822-2.4617 0-1.0444-0.21608-1.8624-0.64822-2.454-0.43216-0.59678-1.0238-0.89517-1.7749-0.89518-0.75113 0.00001-1.3428 0.2984-1.7749 0.89518-0.42701 0.59164-0.64051 1.4096-0.64051 2.454"/>
  <path id="path3155" style="" d="m471.74 266.42c-0.15949-0.0926-0.33441-0.15948-0.52475-0.20064-0.18522-0.0463-0.391-0.0695-0.61736-0.0695-0.80257 0.00001-1.4199 0.26239-1.8521 0.78714-0.42701 0.51961-0.64051 1.2682-0.64051 2.2456v4.553h-1.4276v-8.643h1.4276v1.3428c0.29839-0.52474 0.68681-0.91317 1.1653-1.1653 0.47845-0.25723 1.0598-0.38584 1.744-0.38585 0.0978 0.00001 0.20578 0.008 0.32412 0.0232 0.11832 0.0103 0.24951 0.0283 0.39356 0.054l0.008 1.4585"/>
  <path id="path3157" style="" d="m477.17 269.39c-1.1473 0.00001-1.9421 0.13119-2.3846 0.39357-0.44244 0.26238-0.66366 0.70996-0.66366 1.3428 0 0.50418 0.16463 0.90547 0.49389 1.2039 0.3344 0.29324 0.78713 0.43986 1.3582 0.43986 0.78712 0 1.4174-0.27781 1.8907-0.83343 0.47845-0.56077 0.71767-1.3042 0.71768-2.2302v-0.3164h-1.4122m2.8321-0.58649v4.9312h-1.4199v-1.3119c-0.32412 0.52476-0.72798 0.91318-1.2116 1.1653-0.4836 0.24694-1.0752 0.37041-1.7749 0.37041-0.88488 0-1.5897-0.24694-2.1144-0.74083-0.51961-0.49903-0.77942-1.1653-0.77942-1.9987 0-0.97234 0.32411-1.7054 0.97234-2.1993 0.65337-0.49389 1.6257-0.74083 2.917-0.74084h1.991v-0.1389c-0.00001-0.65337-0.21608-1.1575-0.64823-1.5125-0.42701-0.36012-1.0289-0.54018-1.8058-0.54019-0.49389 0.00001-0.97492 0.0592-1.4431 0.17749-0.46817 0.11833-0.91833 0.29582-1.3505 0.53247v-1.3119c0.5196-0.20063 1.0238-0.34983 1.5125-0.44758 0.48874-0.10289 0.96462-0.15433 1.4276-0.15434 1.2502 0.00001 2.1839 0.32412 2.8013 0.97234 0.61735 0.64823 0.92603 1.6309 0.92604 2.9479"/>
  <path id="path3159" style="" d="m482.11 265.09h1.4199l1.7749 6.7446 1.7672-6.7446h1.6746l1.7749 6.7446 1.7672-6.7446h1.4199l-2.2611 8.643h-1.6746l-1.8598-7.0842-1.8675 7.0842h-1.6746l-2.2611-8.643"/>
  <path id="path3161" style="" d="m499.28 261.74c-0.68939 1.1833-1.2013 2.3537-1.5357 3.5112-0.3344 1.1576-0.50161 2.3305-0.5016 3.519-0.00001 1.1884 0.1672 2.3666 0.5016 3.5344 0.33955 1.1627 0.85144 2.3331 1.5357 3.5112h-1.2347c-0.7717-1.209-1.3505-2.3974-1.7363-3.5652-0.38071-1.1678-0.57106-2.328-0.57106-3.4804 0-1.1472 0.19035-2.3022 0.57106-3.4649 0.3807-1.1627 0.95948-2.3511 1.7363-3.5652h1.2347"/>
  <path id="path3163" style="" d="m501.82 261.74h1.2347c0.77169 1.2142 1.3479 2.4026 1.7286 3.5652 0.38585 1.1627 0.57877 2.3177 0.57878 3.4649-0.00001 1.1524-0.19293 2.3125-0.57878 3.4804-0.38071 1.1678-0.95691 2.3562-1.7286 3.5652h-1.2347c0.68424-1.1781 1.1936-2.3485 1.528-3.5112 0.33955-1.1678 0.50932-2.346 0.50932-3.5344s-0.16977-2.3614-0.50932-3.519c-0.3344-1.1575-0.84372-2.328-1.528-3.5112"/>
 </g>
 <g id="text100">
  <path id="path3166" style="" d="m554.08 266.42c-0.15949-0.0926-0.33441-0.15948-0.52476-0.20064-0.18521-0.0463-0.391-0.0695-0.61736-0.0695-0.80257 0.00001-1.4199 0.26239-1.8521 0.78714-0.42701 0.51961-0.64051 1.2682-0.64051 2.2456v4.553h-1.4276v-8.643h1.4276v1.3428c0.29839-0.52474 0.68681-0.91317 1.1653-1.1653 0.47845-0.25723 1.0598-0.38584 1.744-0.38585 0.0977 0.00001 0.20578 0.008 0.32411 0.0232 0.11832 0.0103 0.24951 0.0283 0.39357 0.054l0.008 1.4585"/>
  <path id="path3168" style="" d="m562.63 269.06v0.69453h-6.5286c0.0617 0.97749 0.35498 1.7235 0.87974 2.2379 0.52989 0.50932 1.2656 0.76398 2.2071 0.76398 0.54532 0 1.0726-0.0669 1.582-0.20064 0.51446-0.13376 1.0238-0.3344 1.528-0.60193v1.3428c-0.50933 0.21608-1.0315 0.3807-1.5666 0.49389-0.53505 0.11318-1.0778 0.16977-1.6283 0.16977-1.3788 0-2.472-0.40128-3.2797-1.2038-0.80257-0.80257-1.2038-1.8881-1.2038-3.2566 0-1.4148 0.3807-2.5363 1.1421-3.3646 0.76655-0.83343 1.7981-1.2501 3.0945-1.2502 1.1627 0.00001 2.081 0.37557 2.755 1.1267 0.67909 0.74598 1.0186 1.762 1.0186 3.0482m-1.4199-0.41672c-0.0103-0.77684-0.22895-1.3968-0.65595-1.8598-0.42186-0.46301-0.98263-0.69452-1.6823-0.69453-0.79228 0.00001-1.4276 0.2238-1.9061 0.67138-0.47331 0.44759-0.74598 1.0778-0.818 1.8907l5.0624-0.008"/>
  <path id="path3170" style="" d="m571.18 265.42v1.3273c-0.40129-0.22121-0.80514-0.38584-1.2116-0.49389-0.40129-0.11317-0.80772-0.16976-1.2193-0.16977-0.9209 0.00001-1.636 0.29325-2.1453 0.87974-0.50933 0.58135-0.76399 1.3994-0.76399 2.454 0 1.0547 0.25466 1.8752 0.76399 2.4617 0.50931 0.58135 1.2244 0.87202 2.1453 0.87202 0.41157 0 0.818-0.054 1.2193-0.16206 0.40642-0.11318 0.81027-0.28038 1.2116-0.5016v1.3119c-0.39614 0.18521-0.80772 0.32411-1.2347 0.41671-0.42186 0.0926-0.87202 0.13891-1.3505 0.13891-1.3016 0-2.3357-0.409-3.1022-1.227-0.76656-0.818-1.1498-1.9215-1.1498-3.3106 0-1.4096 0.38585-2.5183 1.1576-3.326 0.77684-0.80771 1.8392-1.2116 3.1871-1.2116 0.4373 0.00001 0.8643 0.0463 1.281 0.1389 0.41671 0.0875 0.82056 0.22123 1.2116 0.40129"/>
  <path id="path3172" style="" d="m575.07 262.63v2.454h2.9247v1.1035h-2.9247v4.6919c-0.00001 0.70482 0.0952 1.1576 0.28553 1.3582 0.19549 0.20064 0.58906 0.30096 1.1807 0.30096h1.4585v1.1884h-1.4585c-1.0958 0-1.8521-0.20322-2.2688-0.60964-0.41672-0.41158-0.62508-1.1576-0.62508-2.2379v-4.6919h-1.0418v-1.1035h1.0418v-2.454h1.4276"/>
  <path id="path3174" style="" d="m583.8 269.39c-1.1473 0.00001-1.9421 0.13119-2.3846 0.39357-0.44245 0.26238-0.66367 0.70996-0.66367 1.3428 0 0.50418 0.16463 0.90547 0.49389 1.2039 0.3344 0.29324 0.78713 0.43986 1.3582 0.43986 0.78713 0 1.4174-0.27781 1.8907-0.83343 0.47844-0.56077 0.71767-1.3042 0.71768-2.2302v-0.3164h-1.4122m2.8321-0.58649v4.9312h-1.4199v-1.3119c-0.32412 0.52476-0.72798 0.91318-1.2116 1.1653-0.48361 0.24694-1.0752 0.37041-1.7749 0.37041-0.88489 0-1.5897-0.24694-2.1145-0.74083-0.51961-0.49903-0.77941-1.1653-0.77941-1.9987 0-0.97234 0.32411-1.7054 0.97234-2.1993 0.65337-0.49389 1.6257-0.74083 2.917-0.74084h1.991v-0.1389c-0.00001-0.65337-0.21609-1.1575-0.64823-1.5125-0.42701-0.36012-1.0289-0.54018-1.8058-0.54019-0.49389 0.00001-0.97491 0.0592-1.4431 0.17749-0.46816 0.11833-0.91832 0.29582-1.3505 0.53247v-1.3119c0.51961-0.20063 1.0238-0.34983 1.5125-0.44758 0.48874-0.10289 0.96462-0.15433 1.4276-0.15434 1.2502 0.00001 2.1839 0.32412 2.8013 0.97234 0.61735 0.64823 0.92603 1.6309 0.92604 2.9479"/>
  <path id="path3176" style="" d="m596.75 268.51v5.2167h-1.4199v-5.1704c-0.00001-0.81799-0.15949-1.4302-0.47845-1.8366-0.31898-0.40642-0.79743-0.60964-1.4354-0.60964-0.76656 0-1.3711 0.24438-1.8135 0.73311-0.44244 0.48875-0.66366 1.155-0.66366 1.9987v4.8849h-1.4276v-8.643h1.4276v1.3428c0.33955-0.5196 0.73826-0.90802 1.1961-1.1653 0.46301-0.25723 0.99548-0.38584 1.5974-0.38585 0.99292 0.00001 1.744 0.30869 2.2534 0.92604 0.50931 0.61222 0.76397 1.5151 0.76398 2.7087"/>
  <path id="path3178" style="" d="m605.28 269.31c-0.00001-1.0289-0.21351-1.8264-0.64051-2.3923-0.42187-0.5659-1.0161-0.84886-1.7826-0.84887-0.76141 0.00001-1.3556 0.28297-1.7826 0.84887-0.42187 0.56592-0.6328 1.3633-0.63279 2.3923-0.00001 1.0238 0.21092 1.8186 0.63279 2.3846 0.427 0.56592 1.0212 0.84887 1.7826 0.84887 0.76655 0 1.3608-0.28295 1.7826-0.84887 0.427-0.56591 0.6405-1.3608 0.64051-2.3846m1.4199 3.3492c-0.00001 1.4714-0.3267 2.5646-0.98006 3.2797-0.65338 0.72025-1.654 1.0804-3.0019 1.0804-0.49904-0.00001-0.96977-0.0386-1.4122-0.11576-0.44244-0.072-0.87202-0.18521-1.2887-0.33955v-1.3813c0.41672 0.22637 0.82829 0.39357 1.2347 0.50161 0.40643 0.10803 0.82057 0.16205 1.2424 0.16205 0.93117 0 1.6283-0.24437 2.0913-0.73311 0.46301-0.4836 0.69452-1.2167 0.69453-2.1993v-0.70225c-0.29325 0.50932-0.66881 0.89003-1.1267 1.1421-0.45788 0.25208-1.0058 0.37813-1.6437 0.37813-1.0598 0-1.9138-0.40386-2.562-1.2116-0.64823-0.80771-0.97234-1.8778-0.97234-3.2103 0-1.3376 0.32411-2.4103 0.97234-3.218 0.64822-0.80771 1.5022-1.2116 2.562-1.2116 0.63793 0.00001 1.1858 0.12605 1.6437 0.37813 0.45787 0.2521 0.83343 0.6328 1.1267 1.1421v-1.3119h1.4199v7.5704"/>
  <path id="path3180" style="" d="m609.63 261.72h1.4199v12.008h-1.4199v-12.008"/>
  <path id="path3182" style="" d="m621.4 269.06v0.69453h-6.5286c0.0617 0.97749 0.35498 1.7235 0.87974 2.2379 0.5299 0.50932 1.2656 0.76398 2.2071 0.76398 0.54533 0 1.0727-0.0669 1.582-0.20064 0.51446-0.13376 1.0238-0.3344 1.528-0.60193v1.3428c-0.50933 0.21608-1.0315 0.3807-1.5666 0.49389-0.53505 0.11318-1.0778 0.16977-1.6283 0.16977-1.3788 0-2.472-0.40128-3.2797-1.2038-0.80257-0.80257-1.2038-1.8881-1.2038-3.2566 0-1.4148 0.38071-2.5363 1.1421-3.3646 0.76655-0.83343 1.798-1.2501 3.0945-1.2502 1.1627 0.00001 2.081 0.37557 2.755 1.1267 0.67908 0.74598 1.0186 1.762 1.0186 3.0482m-1.4199-0.41672c-0.0103-0.77684-0.22894-1.3968-0.65594-1.8598-0.42187-0.46301-0.98264-0.69452-1.6823-0.69453-0.79228 0.00001-1.4276 0.2238-1.9061 0.67138-0.47331 0.44759-0.74598 1.0778-0.818 1.8907l5.0623-0.008"/>
  <path id="path3184" style="" d="m630.3 276.36v1.1035h-8.2109v-1.1035h8.2109"/>
  <path id="path3186" style="" d="m637.32 266.4v-4.6765h1.4199v12.008h-1.4199v-1.2965c-0.29839 0.51447-0.67652 0.89775-1.1344 1.1498-0.45274 0.24694-0.99807 0.37041-1.636 0.37041-1.0444 0-1.8958-0.41672-2.5543-1.2502-0.65337-0.83344-0.98006-1.9292-0.98006-3.2874s0.32669-2.454 0.98006-3.2874c0.65851-0.83343 1.51-1.2501 2.5543-1.2502 0.63794 0.00001 1.1833 0.12605 1.636 0.37813 0.45787 0.24695 0.836 0.62766 1.1344 1.1421m-4.8386 3.0173c0 1.0444 0.2135 1.8649 0.64051 2.4617 0.43215 0.59164 1.0238 0.88745 1.7749 0.88745 0.75111 0 1.3428-0.29581 1.7749-0.88745 0.43214-0.59678 0.64822-1.4174 0.64822-2.4617 0-1.0444-0.21608-1.8624-0.64822-2.454-0.43216-0.59678-1.0238-0.89517-1.7749-0.89518-0.75113 0.00001-1.3428 0.2984-1.7749 0.89518-0.42701 0.59164-0.64051 1.4096-0.64051 2.454"/>
  <path id="path3188" style="" d="m646.68 266.42c-0.15949-0.0926-0.33441-0.15948-0.52476-0.20064-0.18521-0.0463-0.391-0.0695-0.61736-0.0695-0.80257 0.00001-1.4199 0.26239-1.8521 0.78714-0.42701 0.51961-0.64052 1.2682-0.64051 2.2456v4.553h-1.4276v-8.643h1.4276v1.3428c0.29838-0.52474 0.6868-0.91317 1.1653-1.1653 0.47845-0.25723 1.0598-0.38584 1.744-0.38585 0.0977 0.00001 0.20578 0.008 0.32412 0.0232 0.11832 0.0103 0.24951 0.0283 0.39356 0.054l0.008 1.4585"/>
  <path id="path3190" style="" d="m652.11 269.39c-1.1473 0.00001-1.9421 0.13119-2.3846 0.39357-0.44244 0.26238-0.66366 0.70996-0.66366 1.3428 0 0.50418 0.16463 0.90547 0.49389 1.2039 0.3344 0.29324 0.78713 0.43986 1.3582 0.43986 0.78713 0 1.4174-0.27781 1.8907-0.83343 0.47845-0.56077 0.71768-1.3042 0.71769-2.2302v-0.3164h-1.4122m2.8321-0.58649v4.9312h-1.4199v-1.3119c-0.32413 0.52476-0.72798 0.91318-1.2116 1.1653-0.48361 0.24694-1.0752 0.37041-1.7749 0.37041-0.88489 0-1.5897-0.24694-2.1145-0.74083-0.51961-0.49903-0.77941-1.1653-0.77941-1.9987 0-0.97234 0.32411-1.7054 0.97234-2.1993 0.65337-0.49389 1.6257-0.74083 2.917-0.74084h1.991v-0.1389c-0.00001-0.65337-0.21609-1.1575-0.64823-1.5125-0.42702-0.36012-1.0289-0.54018-1.8058-0.54019-0.49389 0.00001-0.97492 0.0592-1.4431 0.17749-0.46816 0.11833-0.91832 0.29582-1.3505 0.53247v-1.3119c0.51961-0.20063 1.0238-0.34983 1.5125-0.44758 0.48874-0.10289 0.96462-0.15433 1.4276-0.15434 1.2502 0.00001 2.1839 0.32412 2.8013 0.97234 0.61735 0.64823 0.92603 1.6309 0.92604 2.9479"/>
  <path id="path3192" style="" d="m657.05 265.09h1.4199l1.7749 6.7446 1.7672-6.7446h1.6746l1.7749 6.7446 1.7672-6.7446h1.4199l-2.2611 8.643h-1.6746l-1.8598-7.0842-1.8675 7.0842h-1.6746l-2.2611-8.643"/>
  <path id="path3194" style="" d="m674.22 261.74c-0.68939 1.1833-1.2013 2.3537-1.5357 3.5112-0.33441 1.1576-0.50161 2.3305-0.50161 3.519 0 1.1884 0.1672 2.3666 0.50161 3.5344 0.33954 1.1627 0.85143 2.3331 1.5357 3.5112h-1.2347c-0.7717-1.209-1.3505-2.3974-1.7363-3.5652-0.38071-1.1678-0.57106-2.328-0.57106-3.4804 0-1.1472 0.19035-2.3022 0.57106-3.4649 0.3807-1.1627 0.95947-2.3511 1.7363-3.5652h1.2347"/>
  <path id="path3196" style="" d="m676.76 261.74h1.2347c0.7717 1.2142 1.3479 2.4026 1.7286 3.5652 0.38585 1.1627 0.57877 2.3177 0.57878 3.4649-0.00001 1.1524-0.19293 2.3125-0.57878 3.4804-0.38071 1.1678-0.95691 2.3562-1.7286 3.5652h-1.2347c0.68423-1.1781 1.1936-2.3485 1.528-3.5112 0.33954-1.1678 0.50932-2.346 0.50932-3.5344s-0.16978-2.3614-0.50932-3.519c-0.33441-1.1575-0.84373-2.328-1.528-3.5112"/>
 </g>
 <g id="g104" stroke="#000" stroke-width="2" fill="none" transform="translate(-.41684 -6.2684)">
  <path id="path106" d="m400 115c-40 1-40 159-4.467 160.78"/>
  <path id="polyline108" d="m387.53 280.38 10.237-4.495-9.738-5.493"/>
 </g>
 <g id="g110" stroke="#000" stroke-width="2" fill="none" transform="translate(-.41684 -6.2684)">
  <path id="path112" d="m550 115c-40 1-42 160-6.467 161.78"/>
  <path id="polyline114" d="m535.53 281.38 10.237-4.495-9.738-5.493"/>
 </g>
</svg>
