<?xml version="1.0" encoding="UTF-8" standalone="no"?>
<!-- Created with Inkscape (http://www.inkscape.org/) -->
<svg id="svg2" xmlns:rdf="http://www.w3.org/1999/02/22-rdf-syntax-ns#" xmlns="http://www.w3.org/2000/svg" height="506.24" width="847.2" version="1.1" xmlns:cc="http://creativecommons.org/ns#" xmlns:dc="http://purl.org/dc/elements/1.1/" viewBox="387 75 465.2438 267.64932">
 <metadata id="metadata128">
  <rdf:RDF>
   <cc:Work rdf:about="">
    <dc:format>image/svg+xml</dc:format>
    <dc:type rdf:resource="http://purl.org/dc/dcmitype/StillImage"/>
   </cc:Work>
  </rdf:RDF>
 </metadata>
 <g id="text4">
  <path id="path3043" style="" d="m556.8 76.427c0.3344 0.11319 0.65851 0.35499 0.97234 0.7254 0.31896 0.37042 0.63793 0.87974 0.95691 1.528l1.582 3.1485h-1.6746l-1.4739-2.9556c-0.38071-0.7717-0.75113-1.2836-1.1112-1.5357-0.35499-0.25208-0.84116-0.37813-1.4585-0.37813h-1.6977v4.8694h-1.5588v-11.521h3.519c1.317 0.000011 2.2996 0.27525 2.9479 0.82572 0.64822 0.55049 0.97233 1.3814 0.97234 2.4926-0.00001 0.7254-0.16978 1.3273-0.50932 1.8058-0.33441 0.47846-0.82315 0.81029-1.4662 0.99549m-3.9048-4.8386v4.09h1.9601c0.75111 0.000006 1.317-0.17234 1.6977-0.51704 0.38584-0.34983 0.57876-0.86172 0.57877-1.5357-0.00001-0.67394-0.19293-1.1807-0.57877-1.5202-0.38072-0.34468-0.94663-0.51703-1.6977-0.51704h-1.9601"/>
  <path id="path3045" style="" d="m568.95 77.152v0.69453h-6.5286c0.0617 0.97749 0.35498 1.7235 0.87974 2.2379 0.52989 0.50932 1.2656 0.76398 2.2071 0.76398 0.54533 0.000001 1.0726-0.06688 1.582-0.20064 0.51446-0.13376 1.0238-0.3344 1.528-0.60193v1.3428c-0.50933 0.21608-1.0315 0.3807-1.5666 0.49389-0.53506 0.11318-1.0778 0.16977-1.6283 0.16977-1.3788 0-2.472-0.40128-3.2797-1.2038-0.80257-0.80257-1.2038-1.8881-1.2038-3.2566 0-1.4148 0.3807-2.5363 1.1421-3.3646 0.76655-0.83343 1.7981-1.2501 3.0945-1.2502 1.1627 0.000009 2.081 0.37557 2.755 1.1267 0.67909 0.74598 1.0186 1.7621 1.0186 3.0482m-1.4199-0.41672c-0.0103-0.77684-0.22895-1.3968-0.65595-1.8598-0.42186-0.46301-0.98263-0.69452-1.6823-0.69453-0.79228 0.000008-1.4276 0.2238-1.9061 0.67138-0.47331 0.44759-0.74598 1.0778-0.818 1.8907l5.0624-0.0077"/>
  <path id="path3047" style="" d="m577.5 73.517v1.3273c-0.40129-0.22121-0.80514-0.38584-1.2116-0.49389-0.40129-0.11318-0.80772-0.16977-1.2193-0.16977-0.9209 0.000008-1.636 0.29325-2.1453 0.87974-0.50933 0.58135-0.76399 1.3994-0.76398 2.454-0.00001 1.0547 0.25465 1.8752 0.76398 2.4617 0.50932 0.58135 1.2244 0.87202 2.1453 0.87202 0.41157 0.000001 0.818-0.05402 1.2193-0.16206 0.40642-0.11318 0.81027-0.28038 1.2116-0.5016v1.3119c-0.39614 0.18521-0.80771 0.32411-1.2347 0.41672-0.42187 0.0926-0.87203 0.13891-1.3505 0.13891-1.3016 0-2.3357-0.409-3.1022-1.227-0.76655-0.818-1.1498-1.9215-1.1498-3.3106 0-1.4096 0.38585-2.5183 1.1576-3.326 0.77684-0.8077 1.8392-1.2116 3.1871-1.2116 0.43729 0.000009 0.86429 0.04631 1.281 0.13891 0.41671 0.08747 0.82056 0.22123 1.2116 0.40128"/>
  <path id="path3049" style="" d="m581.39 70.731v2.454h2.9247v1.1035h-2.9247v4.6919c-0.00001 0.70482 0.0952 1.1576 0.28553 1.3582 0.19549 0.20064 0.58906 0.30096 1.1807 0.30096h1.4585v1.1884h-1.4585c-1.0958 0-1.8521-0.20321-2.2688-0.60964-0.41672-0.41157-0.62508-1.1575-0.62508-2.2379v-4.6919h-1.0418v-1.1035h1.0418v-2.454h1.4276"/>
  <path id="path3051" style="" d="m590.12 77.484c-1.1473 0.000004-1.9421 0.13119-2.3846 0.39357-0.44245 0.26238-0.66367 0.70997-0.66366 1.3428-0.00001 0.50418 0.16462 0.90546 0.49388 1.2039 0.3344 0.29325 0.78713 0.43987 1.3582 0.43987 0.78713 0 1.4174-0.27781 1.8907-0.83344 0.47844-0.56076 0.71767-1.3042 0.71768-2.2302v-0.3164h-1.4122m2.8321-0.58649v4.9312h-1.4199v-1.3119c-0.32412 0.52476-0.72798 0.91318-1.2116 1.1653-0.4836 0.24694-1.0752 0.37042-1.7749 0.37042-0.88488 0-1.5897-0.24694-2.1145-0.74083-0.51961-0.49903-0.77941-1.1653-0.77941-1.9987 0-0.97234 0.32411-1.7055 0.97234-2.1993 0.65337-0.49388 1.6257-0.74083 2.917-0.74083h1.991v-0.13891c-0.00001-0.65337-0.21609-1.1575-0.64823-1.5125-0.42701-0.36012-1.0289-0.54018-1.8058-0.54019-0.49389 0.000008-0.97491 0.05917-1.4431 0.17749-0.46817 0.11834-0.91833 0.29582-1.3505 0.53247v-1.3119c0.51961-0.20063 1.0238-0.34983 1.5125-0.44759 0.48874-0.10288 0.96462-0.15433 1.4276-0.15434 1.2501 0.000009 2.1839 0.32412 2.8013 0.97234 0.61736 0.64824 0.92604 1.6309 0.92604 2.9479"/>
  <path id="path3053" style="" d="m603.07 76.612v5.2167h-1.4199v-5.1704c0-0.818-0.15949-1.4302-0.47845-1.8366-0.31897-0.40642-0.79743-0.60963-1.4354-0.60964-0.76656 0.000008-1.3711 0.24438-1.8135 0.73311-0.44245 0.48875-0.66367 1.155-0.66366 1.9987v4.8849h-1.4276v-8.643h1.4276v1.3428c0.33954-0.5196 0.73825-0.90802 1.1961-1.1653 0.46301-0.25722 0.99549-0.38584 1.5974-0.38585 0.99291 0.000009 1.744 0.30869 2.2534 0.92604 0.50931 0.61222 0.76397 1.5151 0.76398 2.7087"/>
  <path id="path3055" style="" d="m611.6 77.407c0-1.0289-0.21351-1.8263-0.64051-2.3923-0.42187-0.5659-1.0161-0.84886-1.7826-0.84887-0.76142 0.000008-1.3556 0.28296-1.7826 0.84887-0.42186 0.56592-0.63279 1.3633-0.63279 2.3923 0 1.0238 0.21093 1.8186 0.63279 2.3846 0.42701 0.56591 1.0212 0.84887 1.7826 0.84887 0.76655 0.000001 1.3608-0.28296 1.7826-0.84887 0.427-0.56591 0.64051-1.3608 0.64051-2.3846m1.4199 3.3492c-0.00001 1.4714-0.32669 2.5646-0.98006 3.2797-0.65338 0.72025-1.654 1.0804-3.0019 1.0804-0.49903-0.000003-0.96977-0.03859-1.4122-0.11576-0.44244-0.07203-0.87202-0.18521-1.2887-0.33955v-1.3813c0.41672 0.22636 0.82829 0.39356 1.2347 0.5016 0.40643 0.10804 0.82057 0.16205 1.2424 0.16206 0.93118-0.000003 1.6283-0.24437 2.0913-0.73312 0.46302-0.4836 0.69453-1.2167 0.69453-2.1993v-0.70225c-0.29325 0.50932-0.66881 0.89003-1.1267 1.1421-0.45788 0.25209-1.0058 0.37813-1.6437 0.37813-1.0598 0-1.9138-0.40386-2.562-1.2116-0.64823-0.80771-0.97234-1.8778-0.97234-3.2103 0-1.3376 0.32411-2.4103 0.97234-3.218s1.5022-1.2116 2.562-1.2116c0.63794 0.000009 1.1858 0.12605 1.6437 0.37813 0.45787 0.2521 0.83343 0.6328 1.1267 1.1421v-1.3119h1.4199v7.5704"/>
  <path id="path3057" style="" d="m615.95 69.821h1.4199v12.008h-1.4199v-12.008"/>
  <path id="path3059" style="" d="m627.72 77.152v0.69453h-6.5286c0.0617 0.97749 0.35498 1.7235 0.87973 2.2379 0.5299 0.50932 1.2656 0.76398 2.2071 0.76398 0.54533 0.000001 1.0727-0.06688 1.582-0.20064 0.51446-0.13376 1.0238-0.3344 1.528-0.60193v1.3428c-0.50933 0.21608-1.0315 0.3807-1.5666 0.49389-0.53505 0.11318-1.0778 0.16977-1.6283 0.16977-1.3788 0-2.472-0.40128-3.2797-1.2038-0.80257-0.80257-1.2039-1.8881-1.2038-3.2566-0.00001-1.4148 0.3807-2.5363 1.1421-3.3646 0.76655-0.83343 1.7981-1.2501 3.0945-1.2502 1.1627 0.000009 2.081 0.37557 2.755 1.1267 0.67909 0.74598 1.0186 1.7621 1.0186 3.0482m-1.4199-0.41672c-0.0103-0.77684-0.22895-1.3968-0.65595-1.8598-0.42187-0.46301-0.98263-0.69452-1.6823-0.69453-0.79228 0.000008-1.4276 0.2238-1.9061 0.67138-0.47331 0.44759-0.74598 1.0778-0.818 1.8907l5.0624-0.0077"/>
 </g>
 <g id="g8" transform="translate(-.21026 -8.1715)">
  <path id="rect10" fill="#fff" d="m550 100h80v30h-80z"/>
  <path id="rect12" d="m550 100h80v30h-80z" stroke="#000" stroke-width="2" fill="none"/>
 </g>
 <g id="text14">
  <path id="path3064" style="" d="m574.21 103.66h1.5048l2.701 7.254 2.7009-7.254h1.5048l-3.2411 8.643h-1.9292l-3.2411-8.643"/>
  <path id="path3066" style="" d="m585.95 111.01v4.5839h-1.4276v-11.93h1.4276v1.3119c0.29839-0.51446 0.67395-0.89516 1.1267-1.1421 0.45787-0.25208 1.0032-0.37812 1.636-0.37813 1.0495 0.00001 1.901 0.41673 2.5543 1.2502 0.6585 0.83345 0.98776 1.9293 0.98777 3.2874-0.00001 1.3582-0.32927 2.454-0.98777 3.2874-0.65338 0.83344-1.5048 1.2502-2.5543 1.2502-0.6328 0-1.1781-0.12347-1.636-0.37041-0.45273-0.25209-0.82829-0.63537-1.1267-1.1498m4.8308-3.0174c-0.00001-1.0444-0.21609-1.8624-0.64823-2.454-0.42701-0.59677-1.0161-0.89516-1.7672-0.89517-0.75113 0.00001-1.3428 0.2984-1.7749 0.89517-0.42701 0.59164-0.64051 1.4096-0.64051 2.454s0.2135 1.865 0.64051 2.4617c0.43215 0.59164 1.0238 0.88746 1.7749 0.88746 0.75111 0 1.3402-0.29582 1.7672-0.88746 0.43214-0.59677 0.64822-1.4174 0.64823-2.4617"/>
  <path id="path3068" style="" d="m596.02 101.21v2.454h2.9247v1.1035h-2.9247v4.6919c0 0.70482 0.0952 1.1576 0.28553 1.3582 0.19549 0.20065 0.58906 0.30097 1.1807 0.30097h1.4585v1.1884h-1.4585c-1.0958 0-1.8521-0.20321-2.2688-0.60964-0.41672-0.41157-0.62508-1.1576-0.62508-2.2379v-4.6919h-1.0418v-1.1035h1.0418v-2.454h1.4276"/>
  <path id="path3070" style="" d="m605.83 104.99c-0.15949-0.0926-0.33441-0.15947-0.52475-0.20064-0.18522-0.0463-0.391-0.0694-0.61736-0.0695-0.80257 0.00001-1.4199 0.26238-1.8521 0.78713-0.42701 0.51962-0.64051 1.2682-0.64051 2.2456v4.553h-1.4276v-8.643h1.4276v1.3428c0.29839-0.52475 0.68681-0.91317 1.1653-1.1653 0.47844-0.25722 1.0598-0.38584 1.744-0.38585 0.0977 0.00001 0.20578 0.008 0.32411 0.0232 0.11832 0.0103 0.24951 0.0283 0.39357 0.054l0.008 1.4585"/>
 </g>
 <g id="g18" stroke="#000" stroke-width="2" fill="none" transform="translate(-.21026 -8.1715)">
  <path id="path20" d="m550 115c-20 55-70 170-4.461 165.32"/>
  <path id="polyline22" d="m538.15 285.86 9.619-5.7-10.331-4.275"/>
 </g>
 <g id="text24">
  <path id="path3074" style="" d="m406.8 76.427c0.3344 0.11319 0.65851 0.35499 0.97234 0.7254 0.31896 0.37042 0.63793 0.87974 0.95691 1.528l1.582 3.1485h-1.6746l-1.4739-2.9556c-0.38071-0.7717-0.75113-1.2836-1.1112-1.5357-0.35499-0.25208-0.84116-0.37813-1.4585-0.37813h-1.6977v4.8694h-1.5588v-11.521h3.519c1.317 0.000011 2.2996 0.27525 2.9479 0.82572 0.64822 0.55049 0.97233 1.3814 0.97234 2.4926-0.00001 0.7254-0.16978 1.3273-0.50932 1.8058-0.33441 0.47846-0.82315 0.81029-1.4662 0.99549m-3.9048-4.8386v4.09h1.9601c0.75111 0.000006 1.317-0.17234 1.6977-0.51704 0.38584-0.34983 0.57876-0.86172 0.57877-1.5357-0.00001-0.67394-0.19293-1.1807-0.57877-1.5202-0.38072-0.34468-0.94663-0.51703-1.6977-0.51704h-1.9601"/>
  <path id="path3076" style="" d="m418.95 77.152v0.69453h-6.5286c0.0617 0.97749 0.35498 1.7235 0.87974 2.2379 0.52989 0.50932 1.2656 0.76398 2.2071 0.76398 0.54533 0.000001 1.0726-0.06688 1.582-0.20064 0.51446-0.13376 1.0238-0.3344 1.528-0.60193v1.3428c-0.50933 0.21608-1.0315 0.3807-1.5666 0.49389-0.53506 0.11318-1.0778 0.16977-1.6283 0.16977-1.3788 0-2.472-0.40128-3.2797-1.2038-0.80257-0.80257-1.2038-1.8881-1.2038-3.2566 0-1.4148 0.3807-2.5363 1.1421-3.3646 0.76655-0.83343 1.7981-1.2501 3.0945-1.2502 1.1627 0.000009 2.081 0.37557 2.755 1.1267 0.67909 0.74598 1.0186 1.7621 1.0186 3.0482m-1.4199-0.41672c-0.0103-0.77684-0.22895-1.3968-0.65595-1.8598-0.42186-0.46301-0.98263-0.69452-1.6823-0.69453-0.79228 0.000008-1.4276 0.2238-1.9061 0.67138-0.47331 0.44759-0.74598 1.0778-0.818 1.8907l5.0624-0.0077"/>
  <path id="path3078" style="" d="m427.5 73.517v1.3273c-0.40129-0.22121-0.80514-0.38584-1.2116-0.49389-0.40129-0.11318-0.80772-0.16977-1.2193-0.16977-0.9209 0.000008-1.636 0.29325-2.1453 0.87974-0.50933 0.58135-0.76399 1.3994-0.76398 2.454-0.00001 1.0547 0.25465 1.8752 0.76398 2.4617 0.50932 0.58135 1.2244 0.87202 2.1453 0.87202 0.41157 0.000001 0.818-0.05402 1.2193-0.16206 0.40642-0.11318 0.81027-0.28038 1.2116-0.5016v1.3119c-0.39614 0.18521-0.80771 0.32411-1.2347 0.41672-0.42187 0.0926-0.87203 0.13891-1.3505 0.13891-1.3016 0-2.3357-0.409-3.1022-1.227-0.76655-0.818-1.1498-1.9215-1.1498-3.3106 0-1.4096 0.38585-2.5183 1.1576-3.326 0.77684-0.8077 1.8392-1.2116 3.1871-1.2116 0.43729 0.000009 0.86429 0.04631 1.281 0.13891 0.41671 0.08747 0.82056 0.22123 1.2116 0.40128"/>
  <path id="path3080" style="" d="m431.39 70.731v2.454h2.9247v1.1035h-2.9247v4.6919c-0.00001 0.70482 0.0952 1.1576 0.28553 1.3582 0.19549 0.20064 0.58906 0.30096 1.1807 0.30096h1.4585v1.1884h-1.4585c-1.0958 0-1.8521-0.20321-2.2688-0.60964-0.41672-0.41157-0.62508-1.1575-0.62508-2.2379v-4.6919h-1.0418v-1.1035h1.0418v-2.454h1.4276"/>
  <path id="path3082" style="" d="m440.12 77.484c-1.1473 0.000004-1.9421 0.13119-2.3846 0.39357-0.44245 0.26238-0.66367 0.70997-0.66366 1.3428-0.00001 0.50418 0.16462 0.90546 0.49388 1.2039 0.3344 0.29325 0.78713 0.43987 1.3582 0.43987 0.78713 0 1.4174-0.27781 1.8907-0.83344 0.47844-0.56076 0.71767-1.3042 0.71768-2.2302v-0.3164h-1.4122m2.8321-0.58649v4.9312h-1.4199v-1.3119c-0.32412 0.52476-0.72798 0.91318-1.2116 1.1653-0.4836 0.24694-1.0752 0.37042-1.7749 0.37042-0.88488 0-1.5897-0.24694-2.1145-0.74083-0.51961-0.49903-0.77941-1.1653-0.77941-1.9987 0-0.97234 0.32411-1.7055 0.97234-2.1993 0.65337-0.49388 1.6257-0.74083 2.917-0.74083h1.991v-0.13891c-0.00001-0.65337-0.21609-1.1575-0.64823-1.5125-0.42701-0.36012-1.0289-0.54018-1.8058-0.54019-0.49389 0.000008-0.97491 0.05917-1.4431 0.17749-0.46817 0.11834-0.91833 0.29582-1.3505 0.53247v-1.3119c0.51961-0.20063 1.0238-0.34983 1.5125-0.44759 0.48874-0.10288 0.96462-0.15433 1.4276-0.15434 1.2501 0.000009 2.1839 0.32412 2.8013 0.97234 0.61736 0.64824 0.92604 1.6309 0.92604 2.9479"/>
  <path id="path3084" style="" d="m453.07 76.612v5.2167h-1.4199v-5.1704c0-0.818-0.15949-1.4302-0.47845-1.8366-0.31897-0.40642-0.79743-0.60963-1.4354-0.60964-0.76656 0.000008-1.3711 0.24438-1.8135 0.73311-0.44245 0.48875-0.66367 1.155-0.66366 1.9987v4.8849h-1.4276v-8.643h1.4276v1.3428c0.33954-0.5196 0.73825-0.90802 1.1961-1.1653 0.46301-0.25722 0.99549-0.38584 1.5974-0.38585 0.99291 0.000009 1.744 0.30869 2.2534 0.92604 0.50931 0.61222 0.76397 1.5151 0.76398 2.7087"/>
  <path id="path3086" style="" d="m461.6 77.407c0-1.0289-0.21351-1.8263-0.64051-2.3923-0.42187-0.5659-1.0161-0.84886-1.7826-0.84887-0.76142 0.000008-1.3556 0.28296-1.7826 0.84887-0.42186 0.56592-0.63279 1.3633-0.63279 2.3923 0 1.0238 0.21093 1.8186 0.63279 2.3846 0.42701 0.56591 1.0212 0.84887 1.7826 0.84887 0.76655 0.000001 1.3608-0.28296 1.7826-0.84887 0.427-0.56591 0.64051-1.3608 0.64051-2.3846m1.4199 3.3492c-0.00001 1.4714-0.32669 2.5646-0.98006 3.2797-0.65338 0.72025-1.654 1.0804-3.0019 1.0804-0.49903-0.000003-0.96977-0.03859-1.4122-0.11576-0.44244-0.07203-0.87202-0.18521-1.2887-0.33955v-1.3813c0.41672 0.22636 0.82829 0.39356 1.2347 0.5016 0.40643 0.10804 0.82057 0.16205 1.2424 0.16206 0.93118-0.000003 1.6283-0.24437 2.0913-0.73312 0.46302-0.4836 0.69453-1.2167 0.69453-2.1993v-0.70225c-0.29325 0.50932-0.66881 0.89003-1.1267 1.1421-0.45788 0.25209-1.0058 0.37813-1.6437 0.37813-1.0598 0-1.9138-0.40386-2.562-1.2116-0.64823-0.80771-0.97234-1.8778-0.97234-3.2103 0-1.3376 0.32411-2.4103 0.97234-3.218s1.5022-1.2116 2.562-1.2116c0.63794 0.000009 1.1858 0.12605 1.6437 0.37813 0.45787 0.2521 0.83343 0.6328 1.1267 1.1421v-1.3119h1.4199v7.5704"/>
  <path id="path3088" style="" d="m465.95 69.821h1.4199v12.008h-1.4199v-12.008"/>
  <path id="path3090" style="" d="m477.72 77.152v0.69453h-6.5286c0.0617 0.97749 0.35498 1.7235 0.87973 2.2379 0.5299 0.50932 1.2656 0.76398 2.2071 0.76398 0.54533 0.000001 1.0727-0.06688 1.582-0.20064 0.51446-0.13376 1.0238-0.3344 1.528-0.60193v1.3428c-0.50933 0.21608-1.0315 0.3807-1.5666 0.49389-0.53505 0.11318-1.0778 0.16977-1.6283 0.16977-1.3788 0-2.472-0.40128-3.2797-1.2038-0.80257-0.80257-1.2039-1.8881-1.2038-3.2566-0.00001-1.4148 0.3807-2.5363 1.1421-3.3646 0.76655-0.83343 1.7981-1.2501 3.0945-1.2502 1.1627 0.000009 2.081 0.37557 2.755 1.1267 0.67909 0.74598 1.0186 1.7621 1.0186 3.0482m-1.4199-0.41672c-0.0103-0.77684-0.22895-1.3968-0.65595-1.8598-0.42187-0.46301-0.98263-0.69452-1.6823-0.69453-0.79228 0.000008-1.4276 0.2238-1.9061 0.67138-0.47331 0.44759-0.74598 1.0778-0.818 1.8907l5.0624-0.0077"/>
 </g>
 <g id="g28" transform="translate(-.21026 -8.1715)">
  <path id="rect30" fill="#fff" d="m400 100h80v30h-80z"/>
  <path id="rect32" d="m400 100h80v30h-80z" stroke="#000" stroke-width="2" fill="none"/>
 </g>
 <g id="text34">
  <path id="path3095" style="" d="m424.21 103.66h1.5048l2.701 7.254 2.7009-7.254h1.5048l-3.2411 8.643h-1.9292l-3.2411-8.643"/>
  <path id="path3097" style="" d="m435.95 111.01v4.5839h-1.4276v-11.93h1.4276v1.3119c0.29839-0.51446 0.67395-0.89516 1.1267-1.1421 0.45787-0.25208 1.0032-0.37812 1.636-0.37813 1.0495 0.00001 1.901 0.41673 2.5543 1.2502 0.6585 0.83345 0.98776 1.9293 0.98777 3.2874-0.00001 1.3582-0.32927 2.454-0.98777 3.2874-0.65338 0.83344-1.5048 1.2502-2.5543 1.2502-0.6328 0-1.1781-0.12347-1.636-0.37041-0.45273-0.25209-0.82829-0.63537-1.1267-1.1498m4.8308-3.0174c-0.00001-1.0444-0.21609-1.8624-0.64823-2.454-0.42701-0.59677-1.0161-0.89516-1.7672-0.89517-0.75113 0.00001-1.3428 0.2984-1.7749 0.89517-0.42701 0.59164-0.64051 1.4096-0.64051 2.454s0.2135 1.865 0.64051 2.4617c0.43215 0.59164 1.0238 0.88746 1.7749 0.88746 0.75111 0 1.3402-0.29582 1.7672-0.88746 0.43214-0.59677 0.64822-1.4174 0.64823-2.4617"/>
  <path id="path3099" style="" d="m446.02 101.21v2.454h2.9247v1.1035h-2.9247v4.6919c0 0.70482 0.0952 1.1576 0.28553 1.3582 0.19549 0.20065 0.58906 0.30097 1.1807 0.30097h1.4585v1.1884h-1.4585c-1.0958 0-1.8521-0.20321-2.2688-0.60964-0.41672-0.41157-0.62508-1.1576-0.62508-2.2379v-4.6919h-1.0418v-1.1035h1.0418v-2.454h1.4276"/>
  <path id="path3101" style="" d="m455.83 104.99c-0.15949-0.0926-0.33441-0.15947-0.52475-0.20064-0.18522-0.0463-0.391-0.0694-0.61736-0.0695-0.80257 0.00001-1.4199 0.26238-1.8521 0.78713-0.42701 0.51962-0.64051 1.2682-0.64051 2.2456v4.553h-1.4276v-8.643h1.4276v1.3428c0.29839-0.52475 0.68681-0.91317 1.1653-1.1653 0.47844-0.25722 1.0598-0.38584 1.744-0.38585 0.0977 0.00001 0.20578 0.008 0.32411 0.0232 0.11832 0.0103 0.24951 0.0283 0.39357 0.054l0.008 1.4585"/>
 </g>
 <g id="g38" transform="translate(-.21026 -8.1715)">
  <path id="rect40" fill="#fff" d="m400 130h80v80h-80z"/>
  <path id="rect42" d="m400 130h80v80h-80z" stroke="#000" stroke-width="2" fill="none"/>
 </g>
 <g id="g48" stroke="#000" stroke-width="2" fill="none" transform="translate(-.21026 -8.1715)">
  <path id="path50" d="m400 115c-30 95-10 175 145.54 165.28"/>
  <path id="polyline52" d="m538.1 285.75 9.668-5.615-10.292-4.366"/>
 </g>
 <g id="g54" transform="translate(-.21026 -8.1715)">
  <path id="rect56" fill="#fff" d="m550 130h80v80h-80z"/>
  <path id="rect58" d="m550 130h80v80h-80z" stroke="#000" stroke-width="2" fill="none"/>
 </g>
 <g id="g60" transform="translate(-.21026 -8.1715)">
  <path id="rect62" fill="#fff" d="m550 265h80v30h-80z"/>
  <path id="rect64" d="m550 265h80v30h-80z" stroke="#000" stroke-width="2" fill="none"/>
 </g>
 <g id="text66">
  <path id="path3112" style="" d="m577.38 269.97v-4.6765h1.4199v12.008h-1.4199v-1.2965c-0.2984 0.51447-0.67653 0.89775-1.1344 1.1498-0.45273 0.24695-0.99807 0.37042-1.636 0.37042-1.0444 0-1.8958-0.41672-2.5543-1.2502-0.65338-0.83344-0.98006-1.9292-0.98006-3.2874s0.32668-2.454 0.98006-3.2874c0.65851-0.83343 1.51-1.2501 2.5543-1.2502 0.63793 0.00001 1.1833 0.12605 1.636 0.37813 0.45787 0.24695 0.836 0.62766 1.1344 1.1421m-4.8386 3.0174c-0.00001 1.0444 0.2135 1.8649 0.64051 2.4617 0.43214 0.59164 1.0238 0.88745 1.7749 0.88745 0.75112 0 1.3428-0.29581 1.7749-0.88745 0.43215-0.59678 0.64822-1.4174 0.64823-2.4617-0.00001-1.0444-0.21608-1.8624-0.64823-2.454-0.43215-0.59677-1.0238-0.89516-1.7749-0.89517-0.75112 0.00001-1.3428 0.2984-1.7749 0.89517-0.42701 0.59165-0.64052 1.4096-0.64051 2.454"/>
  <path id="path3114" style="" d="m586.73 269.99c-0.15949-0.0926-0.3344-0.15948-0.52475-0.20064-0.18521-0.0463-0.391-0.0695-0.61736-0.0695-0.80257 0.00001-1.4199 0.26239-1.8521 0.78714-0.42701 0.51961-0.64051 1.2682-0.64051 2.2456v4.553h-1.4276v-8.643h1.4276v1.3428c0.29839-0.52475 0.68681-0.91317 1.1653-1.1653 0.47845-0.25723 1.0598-0.38584 1.744-0.38585 0.0977 0.00001 0.20578 0.008 0.32411 0.0231 0.11832 0.0103 0.24951 0.0283 0.39357 0.054l0.008 1.4585"/>
  <path id="path3116" style="" d="m592.17 272.96c-1.1473 0-1.9421 0.13119-2.3846 0.39357-0.44245 0.26238-0.66367 0.70996-0.66367 1.3428 0 0.50418 0.16463 0.90547 0.49389 1.2038 0.3344 0.29325 0.78713 0.43987 1.3582 0.43987 0.78713 0 1.4174-0.27781 1.8907-0.83343 0.47844-0.56077 0.71767-1.3042 0.71768-2.2302v-0.3164h-1.4122m2.8321-0.58649v4.9312h-1.4199v-1.3119c-0.32412 0.52475-0.72798 0.91318-1.2116 1.1653-0.4836 0.24695-1.0752 0.37042-1.7749 0.37042-0.88488 0-1.5897-0.24694-2.1145-0.74083-0.51961-0.49903-0.77941-1.1653-0.77941-1.9987 0-0.97234 0.32411-1.7054 0.97234-2.1994 0.65337-0.49388 1.6257-0.74082 2.917-0.74083h1.991v-0.1389c-0.00001-0.65337-0.21609-1.1575-0.64823-1.5125-0.42701-0.36012-1.0289-0.54019-1.8058-0.54019-0.49389 0-0.97491 0.0592-1.4431 0.17749-0.46817 0.11833-0.91833 0.29582-1.3505 0.53247v-1.3119c0.51961-0.20063 1.0238-0.34983 1.5125-0.44758 0.48874-0.10289 0.96462-0.15433 1.4276-0.15434 1.2501 0.00001 2.1839 0.32412 2.8013 0.97234 0.61736 0.64823 0.92603 1.6309 0.92604 2.9479"/>
  <path id="path3118" style="" d="m597.11 268.66h1.4199l1.7749 6.7446 1.7672-6.7446h1.6746l1.7749 6.7446 1.7672-6.7446h1.4199l-2.2611 8.643h-1.6746l-1.8598-7.0842-1.8675 7.0842h-1.6746l-2.2611-8.643"/>
 </g>
 <g id="g70" transform="translate(-.21026 -8.1715)">
  <path id="rect72" fill="#fff" d="m550 295h80v30h-80z"/>
  <path id="rect74" d="m550 295h80v30h-80z" stroke="#000" stroke-width="2" fill="none"/>
 </g>
 <g id="text76">
  <path id="path3123" style="" d="m580.76 299.97v-4.6765h1.4199v12.008h-1.4199v-1.2965c-0.29839 0.51447-0.67653 0.89775-1.1344 1.1498-0.45273 0.24695-0.99806 0.37042-1.636 0.37042-1.0444 0-1.8958-0.41672-2.5543-1.2502-0.65338-0.83344-0.98006-1.9292-0.98006-3.2874s0.32668-2.454 0.98006-3.2874c0.65851-0.83343 1.51-1.2501 2.5543-1.2502 0.63794 0.00001 1.1833 0.12605 1.636 0.37813 0.45787 0.24695 0.83601 0.62766 1.1344 1.1421m-4.8386 3.0174c0 1.0444 0.2135 1.8649 0.64051 2.4617 0.43215 0.59164 1.0238 0.88745 1.7749 0.88745 0.75111 0 1.3428-0.29581 1.7749-0.88745 0.43214-0.59678 0.64822-1.4174 0.64822-2.4617 0-1.0444-0.21608-1.8624-0.64822-2.454-0.43216-0.59677-1.0238-0.89516-1.7749-0.89517-0.75113 0.00001-1.3428 0.2984-1.7749 0.89517-0.42701 0.59165-0.64051 1.4096-0.64051 2.454"/>
  <path id="path3125" style="" d="m586.51 296.21v2.454h2.9247v1.1035h-2.9247v4.6919c0 0.70482 0.0952 1.1576 0.28553 1.3582 0.19549 0.20064 0.58906 0.30096 1.1807 0.30096h1.4585v1.1884h-1.4585c-1.0958 0-1.8521-0.20322-2.2688-0.60965-0.41671-0.41157-0.62507-1.1575-0.62507-2.2379v-4.6919h-1.0418v-1.1035h1.0418v-2.454h1.4276"/>
  <path id="path3127" style="" d="m594.66 299.66c-0.76142 0-1.3633 0.2984-1.8058 0.89517-0.44244 0.59164-0.66366 1.4045-0.66366 2.4386s0.21865 1.8495 0.65594 2.4463c0.44244 0.59164 1.0469 0.88746 1.8135 0.88746 0.75626 0 1.3556-0.29839 1.7981-0.89517 0.44243-0.59678 0.66365-1.4096 0.66366-2.4386-0.00001-1.0238-0.22123-1.8341-0.66366-2.4308-0.44245-0.60192-1.0418-0.90289-1.7981-0.90289m0-1.2038c1.2347 0.00001 2.2045 0.40129 2.9093 1.2038 0.70481 0.80257 1.0572 1.9138 1.0572 3.3337-0.00001 1.4148-0.35242 2.526-1.0572 3.3337-0.70482 0.80257-1.6746 1.2038-2.9093 1.2038-1.2399 0-2.2122-0.40128-2.917-1.2038-0.69967-0.80771-1.0495-1.919-1.0495-3.3337 0-1.4199 0.34984-2.5312 1.0495-3.3337 0.70482-0.80256 1.6772-1.2038 2.917-1.2038"/>
  <path id="path3129" style="" d="m605.98 299.99c-0.1595-0.0926-0.33441-0.15948-0.52476-0.20064-0.18521-0.0463-0.391-0.0695-0.61736-0.0695-0.80257 0.00001-1.4199 0.26239-1.8521 0.78714-0.42701 0.51961-0.64051 1.2682-0.64051 2.2456v4.553h-1.4276v-8.643h1.4276v1.3428c0.29839-0.52475 0.68681-0.91317 1.1653-1.1653 0.47845-0.25723 1.0598-0.38584 1.744-0.38585 0.0977 0.00001 0.20578 0.008 0.32411 0.0231 0.11832 0.0103 0.24951 0.0283 0.39357 0.054l0.008 1.4585"/>
 </g>
 <g id="g80" transform="translate(-.21026 -8.1715)">
  <path id="rect82" fill="#fff" d="m550 325h80v30h-80z"/>
  <path id="rect84" d="m550 325h80v30h-80z" stroke="#000" stroke-width="2" fill="none"/>
 </g>
 <g id="text86">
  <path id="path3134" style="" d="m573.02 329.99c-0.15949-0.0926-0.33441-0.15948-0.52475-0.20064-0.18522-0.0463-0.391-0.0695-0.61736-0.0695-0.80258 0.00001-1.4199 0.26239-1.8521 0.78714-0.42701 0.51961-0.64052 1.2682-0.64051 2.2456v4.553h-1.4276v-8.643h1.4276v1.3428c0.29838-0.52475 0.68681-0.91317 1.1653-1.1653 0.47845-0.25723 1.0598-0.38584 1.744-0.38585 0.0977 0.00001 0.20578 0.008 0.32412 0.0231 0.11832 0.0103 0.24951 0.0283 0.39356 0.054l0.008 1.4585"/>
  <path id="path3136" style="" d="m581.57 332.63v0.69453h-6.5286c0.0617 0.97749 0.35498 1.7235 0.87974 2.2379 0.5299 0.50932 1.2656 0.76398 2.2071 0.76398 0.54533 0 1.0727-0.0669 1.582-0.20064 0.51446-0.13376 1.0238-0.3344 1.528-0.60193v1.3428c-0.50933 0.21607-1.0315 0.3807-1.5666 0.49389-0.53505 0.11318-1.0778 0.16977-1.6283 0.16977-1.3788 0-2.472-0.40128-3.2797-1.2038-0.80257-0.80257-1.2038-1.8881-1.2038-3.2566 0-1.4148 0.3807-2.5363 1.1421-3.3646 0.76655-0.83343 1.798-1.2501 3.0945-1.2502 1.1627 0.00001 2.081 0.37557 2.755 1.1267 0.67908 0.74598 1.0186 1.762 1.0186 3.0482m-1.4199-0.41672c-0.0103-0.77684-0.22894-1.3968-0.65594-1.8598-0.42187-0.46302-0.98264-0.69453-1.6823-0.69453-0.79228 0-1.4276 0.2238-1.9061 0.67138-0.47332 0.44759-0.74598 1.0778-0.81801 1.8907l5.0624-0.008"/>
  <path id="path3138" style="" d="m589.41 328.92v1.3428c-0.40129-0.20578-0.818-0.36012-1.2502-0.46302-0.43216-0.10288-0.87974-0.15433-1.3428-0.15434-0.70482 0.00001-1.2347 0.10805-1.5897 0.32412-0.34984 0.21608-0.52475 0.54019-0.52475 0.97234 0 0.32926 0.12604 0.58907 0.37813 0.77941 0.25209 0.18522 0.75883 0.36271 1.5202 0.53248l0.48617 0.10803c1.0084 0.21609 1.7234 0.52219 2.1453 0.91833 0.427 0.39099 0.64051 0.9389 0.64051 1.6437 0 0.80256-0.31897 1.4379-0.9569 1.9061-0.6328 0.46817-1.5048 0.70225-2.6161 0.70225-0.46303 0-0.94663-0.0463-1.4508-0.13891-0.49903-0.0875-1.0264-0.22122-1.582-0.40128v-1.4662c0.52475 0.27267 1.0418 0.47846 1.5511 0.61736 0.50932 0.13376 1.0135 0.20064 1.5125 0.20064 0.6688 0 1.1833-0.11318 1.5434-0.33954 0.36012-0.23151 0.54019-0.55563 0.54019-0.97235 0-0.38584-0.13119-0.68166-0.39357-0.88745-0.25723-0.20578-0.82572-0.40385-1.7054-0.59421l-0.49389-0.11575c-0.87974-0.18521-1.5151-0.46816-1.9061-0.84887-0.39099-0.38585-0.58649-0.91317-0.58649-1.582 0-0.81285 0.2881-1.4405 0.86431-1.8829 0.5762-0.44243 1.3942-0.66365 2.454-0.66366 0.52475 0.00001 1.0186 0.0386 1.4817 0.11575 0.46302 0.0772 0.89002 0.19293 1.281 0.34727"/>
  <path id="path3140" style="" d="m592.14 328.66h1.4199v8.643h-1.4199v-8.643m0-3.3646h1.4199v1.7981h-1.4199v-1.7981"/>
  <path id="path3142" style="" d="m595.91 328.66h6.7446v1.2964l-5.3402 6.2122h5.3402v1.1344h-6.9376v-1.2965l5.3402-6.2122h-5.1472v-1.1344"/>
  <path id="path3144" style="" d="m612.22 332.63v0.69453h-6.5286c0.0617 0.97749 0.35498 1.7235 0.87974 2.2379 0.52989 0.50932 1.2656 0.76398 2.207 0.76398 0.54533 0 1.0727-0.0669 1.582-0.20064 0.51446-0.13376 1.0238-0.3344 1.528-0.60193v1.3428c-0.50933 0.21607-1.0315 0.3807-1.5666 0.49389-0.53505 0.11318-1.0778 0.16977-1.6283 0.16977-1.3788 0-2.472-0.40128-3.2797-1.2038-0.80257-0.80257-1.2039-1.8881-1.2038-3.2566-0.00001-1.4148 0.3807-2.5363 1.1421-3.3646 0.76655-0.83343 1.7981-1.2501 3.0945-1.2502 1.1627 0.00001 2.081 0.37557 2.755 1.1267 0.67909 0.74598 1.0186 1.762 1.0186 3.0482m-1.4199-0.41672c-0.0103-0.77684-0.22895-1.3968-0.65595-1.8598-0.42187-0.46302-0.98263-0.69453-1.6823-0.69453-0.79228 0-1.4276 0.2238-1.9061 0.67138-0.47331 0.44759-0.74598 1.0778-0.818 1.8907l5.0624-0.008"/>
 </g>
 <g id="text90">
  <path id="path3147" style="" d="m666.8 271.9c0.3344 0.11319 0.65851 0.35499 0.97234 0.7254 0.31896 0.37042 0.63793 0.87974 0.95691 1.528l1.582 3.1485h-1.6746l-1.4739-2.9556c-0.38071-0.7717-0.75113-1.2836-1.1112-1.5357-0.35499-0.25209-0.84116-0.37813-1.4585-0.37814h-1.6977v4.8694h-1.5588v-11.521h3.519c1.317 0.00001 2.2996 0.27525 2.9479 0.82572 0.64822 0.55048 0.97233 1.3814 0.97234 2.4926-0.00001 0.72541-0.16978 1.3273-0.50932 1.8058-0.33441 0.47846-0.82315 0.81029-1.4662 0.99549m-3.9048-4.8386v4.09h1.9601c0.75111 0.00001 1.317-0.17234 1.6977-0.51703 0.38584-0.34983 0.57876-0.86173 0.57877-1.5357-0.00001-0.67394-0.19293-1.1807-0.57877-1.5202-0.38072-0.34469-0.94663-0.51703-1.6977-0.51704h-1.9601"/>
  <path id="path3149" style="" d="m678.95 272.63v0.69453h-6.5286c0.0617 0.97749 0.35498 1.7235 0.87974 2.2379 0.52989 0.50932 1.2656 0.76398 2.2071 0.76398 0.54533 0 1.0726-0.0669 1.582-0.20064 0.51446-0.13376 1.0238-0.3344 1.528-0.60193v1.3428c-0.50933 0.21607-1.0315 0.3807-1.5666 0.49389-0.53506 0.11318-1.0778 0.16977-1.6283 0.16977-1.3788 0-2.472-0.40128-3.2797-1.2038-0.80257-0.80257-1.2038-1.8881-1.2038-3.2566 0-1.4148 0.3807-2.5363 1.1421-3.3646 0.76655-0.83343 1.7981-1.2501 3.0945-1.2502 1.1627 0.00001 2.081 0.37557 2.755 1.1267 0.67909 0.74598 1.0186 1.762 1.0186 3.0482m-1.4199-0.41672c-0.0103-0.77684-0.22895-1.3968-0.65595-1.8598-0.42186-0.46302-0.98263-0.69453-1.6823-0.69453-0.79228 0-1.4276 0.2238-1.9061 0.67138-0.47331 0.44759-0.74598 1.0778-0.818 1.8907l5.0624-0.008"/>
  <path id="path3151" style="" d="m687.5 268.99v1.3273c-0.40129-0.22121-0.80514-0.38584-1.2116-0.49389-0.40129-0.11317-0.80772-0.16977-1.2193-0.16977-0.9209 0-1.636 0.29325-2.1453 0.87973-0.50933 0.58136-0.76399 1.3994-0.76398 2.454-0.00001 1.0547 0.25465 1.8752 0.76398 2.4617 0.50932 0.58135 1.2244 0.87202 2.1453 0.87202 0.41157 0 0.818-0.054 1.2193-0.16206 0.40642-0.11318 0.81027-0.28038 1.2116-0.5016v1.3119c-0.39614 0.1852-0.80771 0.32411-1.2347 0.41671-0.42187 0.0926-0.87203 0.13891-1.3505 0.13891-1.3016 0-2.3357-0.409-3.1022-1.227-0.76655-0.818-1.1498-1.9215-1.1498-3.3106 0-1.4096 0.38585-2.5183 1.1576-3.326 0.77684-0.8077 1.8392-1.2116 3.1871-1.2116 0.43729 0.00001 0.86429 0.0463 1.281 0.1389 0.41671 0.0875 0.82056 0.22123 1.2116 0.40129"/>
  <path id="path3153" style="" d="m691.39 266.21v2.454h2.9247v1.1035h-2.9247v4.6919c-0.00001 0.70482 0.0952 1.1576 0.28553 1.3582 0.19549 0.20064 0.58906 0.30096 1.1807 0.30096h1.4585v1.1884h-1.4585c-1.0958 0-1.8521-0.20322-2.2688-0.60965-0.41672-0.41157-0.62508-1.1575-0.62508-2.2379v-4.6919h-1.0418v-1.1035h1.0418v-2.454h1.4276"/>
  <path id="path3155" style="" d="m700.12 272.96c-1.1473 0-1.9421 0.13119-2.3846 0.39357-0.44245 0.26238-0.66367 0.70996-0.66366 1.3428-0.00001 0.50418 0.16462 0.90547 0.49388 1.2038 0.3344 0.29325 0.78713 0.43987 1.3582 0.43987 0.78713 0 1.4174-0.27781 1.8907-0.83343 0.47844-0.56077 0.71767-1.3042 0.71768-2.2302v-0.3164h-1.4122m2.8321-0.58649v4.9312h-1.4199v-1.3119c-0.32412 0.52475-0.72798 0.91318-1.2116 1.1653-0.4836 0.24695-1.0752 0.37042-1.7749 0.37042-0.88488 0-1.5897-0.24694-2.1145-0.74083-0.51961-0.49903-0.77941-1.1653-0.77941-1.9987 0-0.97234 0.32411-1.7054 0.97234-2.1994 0.65337-0.49388 1.6257-0.74082 2.917-0.74083h1.991v-0.1389c-0.00001-0.65337-0.21609-1.1575-0.64823-1.5125-0.42701-0.36012-1.0289-0.54019-1.8058-0.54019-0.49389 0-0.97491 0.0592-1.4431 0.17749-0.46817 0.11833-0.91833 0.29582-1.3505 0.53247v-1.3119c0.51961-0.20063 1.0238-0.34983 1.5125-0.44758 0.48874-0.10289 0.96462-0.15433 1.4276-0.15434 1.2501 0.00001 2.1839 0.32412 2.8013 0.97234 0.61736 0.64823 0.92604 1.6309 0.92604 2.9479"/>
  <path id="path3157" style="" d="m713.07 272.09v5.2167h-1.4199v-5.1704c0-0.81799-0.15949-1.4302-0.47845-1.8366-0.31897-0.40642-0.79743-0.60964-1.4354-0.60964-0.76656 0-1.3711 0.24437-1.8135 0.73311-0.44245 0.48875-0.66367 1.155-0.66366 1.9987v4.8849h-1.4276v-8.643h1.4276v1.3428c0.33954-0.5196 0.73825-0.90802 1.1961-1.1653 0.46301-0.25723 0.99549-0.38584 1.5974-0.38585 0.99291 0.00001 1.744 0.30868 2.2534 0.92604 0.50931 0.61222 0.76397 1.5151 0.76398 2.7087"/>
  <path id="path3159" style="" d="m721.6 272.88c0-1.0289-0.21351-1.8264-0.64051-2.3923-0.42187-0.5659-1.0161-0.84886-1.7826-0.84887-0.76142 0.00001-1.3556 0.28297-1.7826 0.84887-0.42186 0.56592-0.63279 1.3633-0.63279 2.3923 0 1.0238 0.21093 1.8186 0.63279 2.3846 0.42701 0.56592 1.0212 0.84887 1.7826 0.84887 0.76655 0 1.3608-0.28295 1.7826-0.84887 0.427-0.56591 0.64051-1.3608 0.64051-2.3846m1.4199 3.3492c-0.00001 1.4714-0.32669 2.5646-0.98006 3.2797-0.65338 0.72025-1.654 1.0804-3.0019 1.0804-0.49903-0.00001-0.96977-0.0386-1.4122-0.11576-0.44244-0.072-0.87202-0.18521-1.2887-0.33955v-1.3813c0.41672 0.22636 0.82829 0.39357 1.2347 0.50161 0.40643 0.10803 0.82057 0.16205 1.2424 0.16205 0.93118 0 1.6283-0.24437 2.0913-0.73311 0.46302-0.4836 0.69453-1.2167 0.69453-2.1993v-0.70225c-0.29325 0.50932-0.66881 0.89003-1.1267 1.1421-0.45788 0.25209-1.0058 0.37814-1.6437 0.37814-1.0598 0-1.9138-0.40386-2.562-1.2116-0.64823-0.80771-0.97234-1.8778-0.97234-3.2103 0-1.3376 0.32411-2.4103 0.97234-3.218s1.5022-1.2116 2.562-1.2116c0.63794 0.00001 1.1858 0.12605 1.6437 0.37813 0.45787 0.2521 0.83343 0.6328 1.1267 1.1421v-1.3119h1.4199v7.5704"/>
  <path id="path3161" style="" d="m725.95 265.3h1.4199v12.008h-1.4199v-12.008"/>
  <path id="path3163" style="" d="m737.72 272.63v0.69453h-6.5286c0.0617 0.97749 0.35498 1.7235 0.87973 2.2379 0.5299 0.50932 1.2656 0.76398 2.2071 0.76398 0.54533 0 1.0727-0.0669 1.582-0.20064 0.51446-0.13376 1.0238-0.3344 1.528-0.60193v1.3428c-0.50933 0.21607-1.0315 0.3807-1.5666 0.49389-0.53505 0.11318-1.0778 0.16977-1.6283 0.16977-1.3788 0-2.472-0.40128-3.2797-1.2038-0.80257-0.80257-1.2039-1.8881-1.2038-3.2566-0.00001-1.4148 0.3807-2.5363 1.1421-3.3646 0.76655-0.83343 1.7981-1.2501 3.0945-1.2502 1.1627 0.00001 2.081 0.37557 2.755 1.1267 0.67909 0.74598 1.0186 1.762 1.0186 3.0482m-1.4199-0.41672c-0.0103-0.77684-0.22895-1.3968-0.65595-1.8598-0.42187-0.46302-0.98263-0.69453-1.6823-0.69453-0.79228 0-1.4276 0.2238-1.9061 0.67138-0.47331 0.44759-0.74598 1.0778-0.818 1.8907l5.0624-0.008"/>
  <path id="path3165" style="" d="m740.42 275.34h1.6283v1.9601h-1.6283v-1.9601m0-6.2122h1.6283v1.9601h-1.6283v-1.9601"/>
  <path id="path3167" style="" d="m745.76 275.34h1.6283v1.9601h-1.6283v-1.9601m0-6.2122h1.6283v1.9601h-1.6283v-1.9601"/>
  <path id="path3169" style="" d="m756.42 269.97v-4.6765h1.4199v12.008h-1.4199v-1.2965c-0.29839 0.51447-0.67653 0.89775-1.1344 1.1498-0.45273 0.24695-0.99806 0.37042-1.636 0.37042-1.0444 0-1.8958-0.41672-2.5543-1.2502-0.65338-0.83344-0.98006-1.9292-0.98006-3.2874s0.32668-2.454 0.98006-3.2874c0.65851-0.83343 1.51-1.2501 2.5543-1.2502 0.63794 0.00001 1.1833 0.12605 1.636 0.37813 0.45787 0.24695 0.83601 0.62766 1.1344 1.1421m-4.8386 3.0174c0 1.0444 0.2135 1.8649 0.64051 2.4617 0.43215 0.59164 1.0238 0.88745 1.7749 0.88745 0.75111 0 1.3428-0.29581 1.7749-0.88745 0.43214-0.59678 0.64822-1.4174 0.64822-2.4617 0-1.0444-0.21608-1.8624-0.64822-2.454-0.43216-0.59677-1.0238-0.89516-1.7749-0.89517-0.75113 0.00001-1.3428 0.2984-1.7749 0.89517-0.42701 0.59165-0.64051 1.4096-0.64051 2.454"/>
  <path id="path3171" style="" d="m765.77 269.99c-0.15949-0.0926-0.33441-0.15948-0.52476-0.20064-0.18521-0.0463-0.391-0.0695-0.61736-0.0695-0.80257 0.00001-1.4199 0.26239-1.8521 0.78714-0.42701 0.51961-0.64051 1.2682-0.64051 2.2456v4.553h-1.4276v-8.643h1.4276v1.3428c0.29839-0.52475 0.68681-0.91317 1.1653-1.1653 0.47845-0.25723 1.0598-0.38584 1.744-0.38585 0.0977 0.00001 0.20578 0.008 0.32411 0.0231 0.11832 0.0103 0.24951 0.0283 0.39357 0.054l0.008 1.4585"/>
  <path id="path3173" style="" d="m771.21 272.96c-1.1473 0-1.9421 0.13119-2.3846 0.39357-0.44244 0.26238-0.66366 0.70996-0.66366 1.3428 0 0.50418 0.16463 0.90547 0.49389 1.2038 0.3344 0.29325 0.78713 0.43987 1.3582 0.43987 0.78713 0 1.4174-0.27781 1.8907-0.83343 0.47845-0.56077 0.71768-1.3042 0.71768-2.2302v-0.3164h-1.4122m2.8321-0.58649v4.9312h-1.4199v-1.3119c-0.32412 0.52475-0.72797 0.91318-1.2116 1.1653-0.4836 0.24695-1.0752 0.37042-1.7749 0.37042-0.88489 0-1.5897-0.24694-2.1145-0.74083-0.51961-0.49903-0.77942-1.1653-0.77942-1.9987 0-0.97234 0.32412-1.7054 0.97235-2.1994 0.65336-0.49388 1.6257-0.74082 2.917-0.74083h1.991v-0.1389c0-0.65337-0.21608-1.1575-0.64822-1.5125-0.42702-0.36012-1.0289-0.54019-1.8058-0.54019-0.49389 0-0.97492 0.0592-1.4431 0.17749-0.46817 0.11833-0.91832 0.29582-1.3505 0.53247v-1.3119c0.51961-0.20063 1.0238-0.34983 1.5125-0.44758 0.48874-0.10289 0.96462-0.15433 1.4276-0.15434 1.2502 0.00001 2.1839 0.32412 2.8013 0.97234 0.61735 0.64823 0.92603 1.6309 0.92604 2.9479"/>
  <path id="path3175" style="" d="m776.15 268.66h1.4199l1.7749 6.7446 1.7672-6.7446h1.6746l1.7749 6.7446 1.7672-6.7446h1.4199l-2.2611 8.643h-1.6746l-1.8598-7.0842-1.8675 7.0842h-1.6746l-2.2611-8.643"/>
  <path id="path3177" style="" d="m793.32 265.31c-0.68939 1.1833-1.2013 2.3537-1.5357 3.5112-0.3344 1.1576-0.5016 2.3305-0.5016 3.519 0 1.1884 0.1672 2.3666 0.5016 3.5344 0.33955 1.1627 0.85144 2.3331 1.5357 3.5112h-1.2347c-0.77171-1.209-1.3505-2.3974-1.7363-3.5652-0.3807-1.1678-0.57106-2.328-0.57105-3.4804-0.00001-1.1472 0.19035-2.3022 0.57105-3.4649 0.38071-1.1627 0.95948-2.3511 1.7363-3.5652h1.2347"/>
  <path id="path3179" style="" d="m795.86 265.31h1.2347c0.7717 1.2142 1.3479 2.4026 1.7286 3.5652 0.38584 1.1627 0.57877 2.3177 0.57877 3.4649 0 1.1524-0.19293 2.3125-0.57877 3.4804-0.38071 1.1678-0.95691 2.3563-1.7286 3.5652h-1.2347c0.68424-1.1781 1.1936-2.3485 1.528-3.5112 0.33954-1.1678 0.50931-2.346 0.50932-3.5344-0.00001-1.1884-0.16978-2.3614-0.50932-3.519-0.33441-1.1575-0.84373-2.328-1.528-3.5112"/>
 </g>
 <g id="text94">
  <path id="path3182" style="" d="m666.8 301.9c0.3344 0.11319 0.65851 0.35499 0.97234 0.7254 0.31896 0.37042 0.63793 0.87974 0.95691 1.528l1.582 3.1485h-1.6746l-1.4739-2.9556c-0.38071-0.7717-0.75113-1.2836-1.1112-1.5357-0.35499-0.25209-0.84116-0.37813-1.4585-0.37814h-1.6977v4.8694h-1.5588v-11.521h3.519c1.317 0.00001 2.2996 0.27525 2.9479 0.82572 0.64822 0.55048 0.97233 1.3814 0.97234 2.4926-0.00001 0.72541-0.16978 1.3273-0.50932 1.8058-0.33441 0.47846-0.82315 0.81029-1.4662 0.99549m-3.9048-4.8386v4.09h1.9601c0.75111 0.00001 1.317-0.17234 1.6977-0.51703 0.38584-0.34983 0.57876-0.86173 0.57877-1.5357-0.00001-0.67394-0.19293-1.1807-0.57877-1.5202-0.38072-0.34469-0.94663-0.51703-1.6977-0.51704h-1.9601"/>
  <path id="path3184" style="" d="m678.95 302.63v0.69453h-6.5286c0.0617 0.97749 0.35498 1.7235 0.87974 2.2379 0.52989 0.50932 1.2656 0.76398 2.2071 0.76398 0.54533 0 1.0726-0.0669 1.582-0.20064 0.51446-0.13376 1.0238-0.3344 1.528-0.60193v1.3428c-0.50933 0.21607-1.0315 0.3807-1.5666 0.49389-0.53506 0.11318-1.0778 0.16977-1.6283 0.16977-1.3788 0-2.472-0.40128-3.2797-1.2038-0.80257-0.80257-1.2038-1.8881-1.2038-3.2566 0-1.4148 0.3807-2.5363 1.1421-3.3646 0.76655-0.83343 1.7981-1.2501 3.0945-1.2502 1.1627 0.00001 2.081 0.37557 2.755 1.1267 0.67909 0.74598 1.0186 1.762 1.0186 3.0482m-1.4199-0.41672c-0.0103-0.77684-0.22895-1.3968-0.65595-1.8598-0.42186-0.46302-0.98263-0.69453-1.6823-0.69453-0.79228 0-1.4276 0.2238-1.9061 0.67138-0.47331 0.44759-0.74598 1.0778-0.818 1.8907l5.0624-0.008"/>
  <path id="path3186" style="" d="m687.5 298.99v1.3273c-0.40129-0.22121-0.80514-0.38584-1.2116-0.49389-0.40129-0.11317-0.80772-0.16977-1.2193-0.16977-0.9209 0-1.636 0.29325-2.1453 0.87973-0.50933 0.58136-0.76399 1.3994-0.76398 2.454-0.00001 1.0547 0.25465 1.8752 0.76398 2.4617 0.50932 0.58135 1.2244 0.87202 2.1453 0.87202 0.41157 0 0.818-0.054 1.2193-0.16206 0.40642-0.11318 0.81027-0.28038 1.2116-0.5016v1.3119c-0.39614 0.1852-0.80771 0.32411-1.2347 0.41671-0.42187 0.0926-0.87203 0.13891-1.3505 0.13891-1.3016 0-2.3357-0.409-3.1022-1.227-0.76655-0.818-1.1498-1.9215-1.1498-3.3106 0-1.4096 0.38585-2.5183 1.1576-3.326 0.77684-0.8077 1.8392-1.2116 3.1871-1.2116 0.43729 0.00001 0.86429 0.0463 1.281 0.1389 0.41671 0.0875 0.82056 0.22123 1.2116 0.40129"/>
  <path id="path3188" style="" d="m691.39 296.21v2.454h2.9247v1.1035h-2.9247v4.6919c-0.00001 0.70482 0.0952 1.1576 0.28553 1.3582 0.19549 0.20064 0.58906 0.30096 1.1807 0.30096h1.4585v1.1884h-1.4585c-1.0958 0-1.8521-0.20322-2.2688-0.60965-0.41672-0.41157-0.62508-1.1575-0.62508-2.2379v-4.6919h-1.0418v-1.1035h1.0418v-2.454h1.4276"/>
  <path id="path3190" style="" d="m700.12 302.96c-1.1473 0-1.9421 0.13119-2.3846 0.39357-0.44245 0.26238-0.66367 0.70996-0.66366 1.3428-0.00001 0.50418 0.16462 0.90547 0.49388 1.2038 0.3344 0.29325 0.78713 0.43987 1.3582 0.43987 0.78713 0 1.4174-0.27781 1.8907-0.83343 0.47844-0.56077 0.71767-1.3042 0.71768-2.2302v-0.3164h-1.4122m2.8321-0.58649v4.9312h-1.4199v-1.3119c-0.32412 0.52475-0.72798 0.91318-1.2116 1.1653-0.4836 0.24695-1.0752 0.37042-1.7749 0.37042-0.88488 0-1.5897-0.24694-2.1145-0.74083-0.51961-0.49903-0.77941-1.1653-0.77941-1.9987 0-0.97234 0.32411-1.7054 0.97234-2.1994 0.65337-0.49388 1.6257-0.74082 2.917-0.74083h1.991v-0.1389c-0.00001-0.65337-0.21609-1.1575-0.64823-1.5125-0.42701-0.36012-1.0289-0.54019-1.8058-0.54019-0.49389 0-0.97491 0.0592-1.4431 0.17749-0.46817 0.11833-0.91833 0.29582-1.3505 0.53247v-1.3119c0.51961-0.20063 1.0238-0.34983 1.5125-0.44758 0.48874-0.10289 0.96462-0.15433 1.4276-0.15434 1.2501 0.00001 2.1839 0.32412 2.8013 0.97234 0.61736 0.64823 0.92604 1.6309 0.92604 2.9479"/>
  <path id="path3192" style="" d="m713.07 302.09v5.2167h-1.4199v-5.1704c0-0.81799-0.15949-1.4302-0.47845-1.8366-0.31897-0.40642-0.79743-0.60964-1.4354-0.60964-0.76656 0-1.3711 0.24437-1.8135 0.73311-0.44245 0.48875-0.66367 1.155-0.66366 1.9987v4.8849h-1.4276v-8.643h1.4276v1.3428c0.33954-0.5196 0.73825-0.90802 1.1961-1.1653 0.46301-0.25723 0.99549-0.38584 1.5974-0.38585 0.99291 0.00001 1.744 0.30868 2.2534 0.92604 0.50931 0.61222 0.76397 1.5151 0.76398 2.7087"/>
  <path id="path3194" style="" d="m721.6 302.88c0-1.0289-0.21351-1.8264-0.64051-2.3923-0.42187-0.5659-1.0161-0.84886-1.7826-0.84887-0.76142 0.00001-1.3556 0.28297-1.7826 0.84887-0.42186 0.56592-0.63279 1.3633-0.63279 2.3923 0 1.0238 0.21093 1.8186 0.63279 2.3846 0.42701 0.56592 1.0212 0.84887 1.7826 0.84887 0.76655 0 1.3608-0.28295 1.7826-0.84887 0.427-0.56591 0.64051-1.3608 0.64051-2.3846m1.4199 3.3492c-0.00001 1.4714-0.32669 2.5646-0.98006 3.2797-0.65338 0.72025-1.654 1.0804-3.0019 1.0804-0.49903-0.00001-0.96977-0.0386-1.4122-0.11576-0.44244-0.072-0.87202-0.18521-1.2887-0.33955v-1.3813c0.41672 0.22636 0.82829 0.39357 1.2347 0.50161 0.40643 0.10803 0.82057 0.16205 1.2424 0.16205 0.93118 0 1.6283-0.24437 2.0913-0.73311 0.46302-0.4836 0.69453-1.2167 0.69453-2.1993v-0.70225c-0.29325 0.50932-0.66881 0.89003-1.1267 1.1421-0.45788 0.25209-1.0058 0.37814-1.6437 0.37814-1.0598 0-1.9138-0.40386-2.562-1.2116-0.64823-0.80771-0.97234-1.8778-0.97234-3.2103 0-1.3376 0.32411-2.4103 0.97234-3.218s1.5022-1.2116 2.562-1.2116c0.63794 0.00001 1.1858 0.12605 1.6437 0.37813 0.45787 0.2521 0.83343 0.6328 1.1267 1.1421v-1.3119h1.4199v7.5704"/>
  <path id="path3196" style="" d="m725.95 295.3h1.4199v12.008h-1.4199v-12.008"/>
  <path id="path3198" style="" d="m737.72 302.63v0.69453h-6.5286c0.0617 0.97749 0.35498 1.7235 0.87973 2.2379 0.5299 0.50932 1.2656 0.76398 2.2071 0.76398 0.54533 0 1.0727-0.0669 1.582-0.20064 0.51446-0.13376 1.0238-0.3344 1.528-0.60193v1.3428c-0.50933 0.21607-1.0315 0.3807-1.5666 0.49389-0.53505 0.11318-1.0778 0.16977-1.6283 0.16977-1.3788 0-2.472-0.40128-3.2797-1.2038-0.80257-0.80257-1.2039-1.8881-1.2038-3.2566-0.00001-1.4148 0.3807-2.5363 1.1421-3.3646 0.76655-0.83343 1.7981-1.2501 3.0945-1.2502 1.1627 0.00001 2.081 0.37557 2.755 1.1267 0.67909 0.74598 1.0186 1.762 1.0186 3.0482m-1.4199-0.41672c-0.0103-0.77684-0.22895-1.3968-0.65595-1.8598-0.42187-0.46302-0.98263-0.69453-1.6823-0.69453-0.79228 0-1.4276 0.2238-1.9061 0.67138-0.47331 0.44759-0.74598 1.0778-0.818 1.8907l5.0624-0.008"/>
  <path id="path3200" style="" d="m740.42 305.34h1.6283v1.9601h-1.6283v-1.9601m0-6.2122h1.6283v1.9601h-1.6283v-1.9601"/>
  <path id="path3202" style="" d="m745.76 305.34h1.6283v1.9601h-1.6283v-1.9601m0-6.2122h1.6283v1.9601h-1.6283v-1.9601"/>
  <path id="path3204" style="" d="m760.81 301v1.3736c-0.5402 0.40643-1.0418 0.6971-1.5048 0.87202-0.45789 0.17492-0.93634 0.26238-1.4354 0.26238-0.56592 0-1.2244-0.15177-1.9756-0.45531-0.0566-0.0206-0.0978-0.036-0.12347-0.0463-0.036-0.0154-0.0926-0.036-0.16978-0.0617-0.79743-0.31897-1.4379-0.47845-1.9215-0.47846-0.45273 0.00001-0.90032 0.10033-1.3428 0.30097-0.44244 0.1955-0.91575 0.50675-1.4199 0.93375v-1.3736c0.54018-0.40643 1.0392-0.6971 1.4971-0.87202 0.46302-0.18006 0.94404-0.27009 1.4431-0.2701 0.56591 0.00001 1.227 0.15435 1.9833 0.46302 0.0514 0.0206 0.09 0.036 0.11575 0.0463 0.0412 0.0154 0.0977 0.036 0.16978 0.0617 0.79741 0.31897 1.4379 0.47846 1.9215 0.47845 0.44243 0.00001 0.87973-0.0977 1.3119-0.29324 0.43728-0.19549 0.92088-0.50932 1.4508-0.94148"/>
  <path id="path3206" style="" d="m769.5 301.9c0.33439 0.11319 0.65851 0.35499 0.97234 0.7254 0.31896 0.37042 0.63793 0.87974 0.95691 1.528l1.582 3.1485h-1.6746l-1.4739-2.9556c-0.38071-0.7717-0.75113-1.2836-1.1112-1.5357-0.35499-0.25209-0.84116-0.37813-1.4585-0.37814h-1.6977v4.8694h-1.5588v-11.521h3.519c1.317 0.00001 2.2996 0.27525 2.9479 0.82572 0.64822 0.55048 0.97233 1.3814 0.97234 2.4926-0.00001 0.72541-0.16978 1.3273-0.50932 1.8058-0.33441 0.47846-0.82316 0.81029-1.4662 0.99549m-3.9048-4.8386v4.09h1.9601c0.75111 0.00001 1.317-0.17234 1.6977-0.51703 0.38585-0.34983 0.57877-0.86173 0.57878-1.5357-0.00001-0.67394-0.19293-1.1807-0.57878-1.5202-0.38071-0.34469-0.94662-0.51703-1.6977-0.51704h-1.9601"/>
  <path id="path3208" style="" d="m781.65 302.63v0.69453h-6.5286c0.0617 0.97749 0.35497 1.7235 0.87973 2.2379 0.5299 0.50932 1.2656 0.76398 2.2071 0.76398 0.54533 0 1.0727-0.0669 1.582-0.20064 0.51445-0.13376 1.0238-0.3344 1.528-0.60193v1.3428c-0.50933 0.21607-1.0315 0.3807-1.5666 0.49389-0.53505 0.11318-1.0778 0.16977-1.6283 0.16977-1.3788 0-2.472-0.40128-3.2797-1.2038-0.80257-0.80257-1.2038-1.8881-1.2038-3.2566 0-1.4148 0.38071-2.5363 1.1421-3.3646 0.76655-0.83343 1.798-1.2501 3.0945-1.2502 1.1627 0.00001 2.081 0.37557 2.755 1.1267 0.67908 0.74598 1.0186 1.762 1.0186 3.0482m-1.4199-0.41672c-0.0103-0.77684-0.22894-1.3968-0.65594-1.8598-0.42187-0.46302-0.98264-0.69453-1.6823-0.69453-0.79229 0-1.4276 0.2238-1.9061 0.67138-0.47331 0.44759-0.74598 1.0778-0.818 1.8907l5.0623-0.008"/>
  <path id="path3210" style="" d="m790.2 298.99v1.3273c-0.40129-0.22121-0.80515-0.38584-1.2116-0.49389-0.40129-0.11317-0.80772-0.16977-1.2193-0.16977-0.9209 0-1.636 0.29325-2.1453 0.87973-0.50932 0.58136-0.76398 1.3994-0.76398 2.454 0 1.0547 0.25466 1.8752 0.76398 2.4617 0.50932 0.58135 1.2244 0.87202 2.1453 0.87202 0.41156 0 0.81799-0.054 1.2193-0.16206 0.40642-0.11318 0.81028-0.28038 1.2116-0.5016v1.3119c-0.39615 0.1852-0.80772 0.32411-1.2347 0.41671-0.42187 0.0926-0.87203 0.13891-1.3505 0.13891-1.3016 0-2.3357-0.409-3.1022-1.227-0.76656-0.818-1.1498-1.9215-1.1498-3.3106 0-1.4096 0.38585-2.5183 1.1576-3.326 0.77684-0.8077 1.8392-1.2116 3.1871-1.2116 0.43729 0.00001 0.8643 0.0463 1.281 0.1389 0.41671 0.0875 0.82057 0.22123 1.2116 0.40129"/>
  <path id="path3212" style="" d="m794.09 296.21v2.454h2.9247v1.1035h-2.9247v4.6919c0 0.70482 0.0952 1.1576 0.28553 1.3582 0.19549 0.20064 0.58906 0.30096 1.1807 0.30096h1.4585v1.1884h-1.4585c-1.0958 0-1.8521-0.20322-2.2688-0.60965-0.41672-0.41157-0.62508-1.1575-0.62507-2.2379v-4.6919h-1.0418v-1.1035h1.0418v-2.454h1.4276"/>
  <path id="path3214" style="" d="m802.82 302.96c-1.1473 0-1.9421 0.13119-2.3846 0.39357-0.44245 0.26238-0.66367 0.70996-0.66366 1.3428-0.00001 0.50418 0.16462 0.90547 0.49388 1.2038 0.3344 0.29325 0.78713 0.43987 1.3582 0.43987 0.78713 0 1.4174-0.27781 1.8907-0.83343 0.47844-0.56077 0.71767-1.3042 0.71768-2.2302v-0.3164h-1.4122m2.8321-0.58649v4.9312h-1.4199v-1.3119c-0.32412 0.52475-0.72798 0.91318-1.2116 1.1653-0.4836 0.24695-1.0752 0.37042-1.7749 0.37042-0.88488 0-1.5897-0.24694-2.1144-0.74083-0.51962-0.49903-0.77942-1.1653-0.77942-1.9987 0-0.97234 0.32411-1.7054 0.97234-2.1994 0.65337-0.49388 1.6257-0.74082 2.917-0.74083h1.991v-0.1389c-0.00001-0.65337-0.21608-1.1575-0.64823-1.5125-0.42701-0.36012-1.0289-0.54019-1.8058-0.54019-0.49389 0-0.97491 0.0592-1.4431 0.17749-0.46817 0.11833-0.91833 0.29582-1.3505 0.53247v-1.3119c0.51961-0.20063 1.0238-0.34983 1.5125-0.44758 0.48874-0.10289 0.96462-0.15433 1.4276-0.15434 1.2501 0.00001 2.1839 0.32412 2.8013 0.97234 0.61735 0.64823 0.92603 1.6309 0.92603 2.9479"/>
  <path id="path3216" style="" d="m815.77 302.09v5.2167h-1.4199v-5.1704c0-0.81799-0.15949-1.4302-0.47845-1.8366-0.31898-0.40642-0.79743-0.60964-1.4354-0.60964-0.76656 0-1.3711 0.24437-1.8135 0.73311-0.44245 0.48875-0.66367 1.155-0.66367 1.9987v4.8849h-1.4276v-8.643h1.4276v1.3428c0.33955-0.5196 0.73826-0.90802 1.1961-1.1653 0.46301-0.25723 0.99549-0.38584 1.5974-0.38585 0.99291 0.00001 1.744 0.30868 2.2534 0.92604 0.50931 0.61222 0.76397 1.5151 0.76398 2.7087"/>
  <path id="path3218" style="" d="m824.3 302.88c0-1.0289-0.21351-1.8264-0.64051-2.3923-0.42187-0.5659-1.0161-0.84886-1.7826-0.84887-0.76142 0.00001-1.3556 0.28297-1.7826 0.84887-0.42186 0.56592-0.63279 1.3633-0.63279 2.3923 0 1.0238 0.21093 1.8186 0.63279 2.3846 0.427 0.56592 1.0212 0.84887 1.7826 0.84887 0.76655 0 1.3608-0.28295 1.7826-0.84887 0.427-0.56591 0.64051-1.3608 0.64051-2.3846m1.4199 3.3492c-0.00001 1.4714-0.3267 2.5646-0.98006 3.2797-0.65338 0.72025-1.654 1.0804-3.0019 1.0804-0.49904-0.00001-0.96977-0.0386-1.4122-0.11576-0.44244-0.072-0.87202-0.18521-1.2887-0.33955v-1.3813c0.41672 0.22636 0.82829 0.39357 1.2347 0.50161 0.40643 0.10803 0.82057 0.16205 1.2424 0.16205 0.93118 0 1.6283-0.24437 2.0913-0.73311 0.46302-0.4836 0.69453-1.2167 0.69453-2.1993v-0.70225c-0.29325 0.50932-0.66881 0.89003-1.1267 1.1421-0.45788 0.25209-1.0058 0.37814-1.6437 0.37814-1.0598 0-1.9138-0.40386-2.562-1.2116-0.64823-0.80771-0.97234-1.8778-0.97234-3.2103 0-1.3376 0.32411-2.4103 0.97234-3.218s1.5022-1.2116 2.562-1.2116c0.63793 0.00001 1.1858 0.12605 1.6437 0.37813 0.45787 0.2521 0.83343 0.6328 1.1267 1.1421v-1.3119h1.4199v7.5704"/>
  <path id="path3220" style="" d="m828.65 295.3h1.4199v12.008h-1.4199v-12.008"/>
  <path id="path3222" style="" d="m840.42 302.63v0.69453h-6.5286c0.0617 0.97749 0.35498 1.7235 0.87973 2.2379 0.5299 0.50932 1.2656 0.76398 2.2071 0.76398 0.54533 0 1.0727-0.0669 1.582-0.20064 0.51446-0.13376 1.0238-0.3344 1.528-0.60193v1.3428c-0.50933 0.21607-1.0315 0.3807-1.5666 0.49389-0.53505 0.11318-1.0778 0.16977-1.6283 0.16977-1.3788 0-2.472-0.40128-3.2797-1.2038-0.80256-0.80257-1.2038-1.8881-1.2038-3.2566 0-1.4148 0.38071-2.5363 1.1421-3.3646 0.76655-0.83343 1.798-1.2501 3.0945-1.2502 1.1627 0.00001 2.081 0.37557 2.755 1.1267 0.67909 0.74598 1.0186 1.762 1.0186 3.0482m-1.4199-0.41672c-0.0103-0.77684-0.22895-1.3968-0.65595-1.8598-0.42187-0.46302-0.98264-0.69453-1.6823-0.69453-0.79229 0-1.4276 0.2238-1.9061 0.67138-0.47331 0.44759-0.74598 1.0778-0.818 1.8907l5.0624-0.008"/>
  <path id="path3224" style="" d="m846.16 295.31c-0.68939 1.1833-1.2013 2.3537-1.5357 3.5112-0.33441 1.1576-0.50161 2.3305-0.50161 3.519 0 1.1884 0.1672 2.3666 0.50161 3.5344 0.33954 1.1627 0.85143 2.3331 1.5357 3.5112h-1.2347c-0.7717-1.209-1.3505-2.3974-1.7363-3.5652-0.38071-1.1678-0.57106-2.328-0.57106-3.4804 0-1.1472 0.19035-2.3022 0.57106-3.4649 0.3807-1.1627 0.95947-2.3511 1.7363-3.5652h1.2347"/>
  <path id="path3226" style="" d="m848.7 295.31h1.2347c0.7717 1.2142 1.3479 2.4026 1.7286 3.5652 0.38584 1.1627 0.57877 2.3177 0.57877 3.4649 0 1.1524-0.19293 2.3125-0.57877 3.4804-0.38071 1.1678-0.95691 2.3563-1.7286 3.5652h-1.2347c0.68424-1.1781 1.1936-2.3485 1.528-3.5112 0.33954-1.1678 0.50932-2.346 0.50932-3.5344s-0.16978-2.3614-0.50932-3.519c-0.33441-1.1575-0.84373-2.328-1.528-3.5112"/>
 </g>
 <g id="text98">
  <path id="path3229" style="" d="m666.8 331.9c0.3344 0.11319 0.65851 0.35499 0.97234 0.7254 0.31896 0.37042 0.63793 0.87974 0.95691 1.528l1.582 3.1485h-1.6746l-1.4739-2.9556c-0.38071-0.7717-0.75113-1.2836-1.1112-1.5357-0.35499-0.25209-0.84116-0.37813-1.4585-0.37814h-1.6977v4.8694h-1.5588v-11.521h3.519c1.317 0.00001 2.2996 0.27525 2.9479 0.82572 0.64822 0.55048 0.97233 1.3814 0.97234 2.4926-0.00001 0.72541-0.16978 1.3273-0.50932 1.8058-0.33441 0.47846-0.82315 0.81029-1.4662 0.99549m-3.9048-4.8386v4.09h1.9601c0.75111 0.00001 1.317-0.17234 1.6977-0.51703 0.38584-0.34983 0.57876-0.86173 0.57877-1.5357-0.00001-0.67394-0.19293-1.1807-0.57877-1.5202-0.38072-0.34469-0.94663-0.51703-1.6977-0.51704h-1.9601"/>
  <path id="path3231" style="" d="m678.95 332.63v0.69453h-6.5286c0.0617 0.97749 0.35498 1.7235 0.87974 2.2379 0.52989 0.50932 1.2656 0.76398 2.2071 0.76398 0.54533 0 1.0726-0.0669 1.582-0.20064 0.51446-0.13376 1.0238-0.3344 1.528-0.60193v1.3428c-0.50933 0.21607-1.0315 0.3807-1.5666 0.49389-0.53506 0.11318-1.0778 0.16977-1.6283 0.16977-1.3788 0-2.472-0.40128-3.2797-1.2038-0.80257-0.80257-1.2038-1.8881-1.2038-3.2566 0-1.4148 0.3807-2.5363 1.1421-3.3646 0.76655-0.83343 1.7981-1.2501 3.0945-1.2502 1.1627 0.00001 2.081 0.37557 2.755 1.1267 0.67909 0.74598 1.0186 1.762 1.0186 3.0482m-1.4199-0.41672c-0.0103-0.77684-0.22895-1.3968-0.65595-1.8598-0.42186-0.46302-0.98263-0.69453-1.6823-0.69453-0.79228 0-1.4276 0.2238-1.9061 0.67138-0.47331 0.44759-0.74598 1.0778-0.818 1.8907l5.0624-0.008"/>
  <path id="path3233" style="" d="m687.5 328.99v1.3273c-0.40129-0.22121-0.80514-0.38584-1.2116-0.49389-0.40129-0.11317-0.80772-0.16977-1.2193-0.16977-0.9209 0-1.636 0.29325-2.1453 0.87973-0.50933 0.58136-0.76399 1.3994-0.76398 2.454-0.00001 1.0547 0.25465 1.8752 0.76398 2.4617 0.50932 0.58135 1.2244 0.87202 2.1453 0.87202 0.41157 0 0.818-0.054 1.2193-0.16206 0.40642-0.11318 0.81027-0.28038 1.2116-0.5016v1.3119c-0.39614 0.1852-0.80771 0.32411-1.2347 0.41671-0.42187 0.0926-0.87203 0.13891-1.3505 0.13891-1.3016 0-2.3357-0.409-3.1022-1.227-0.76655-0.818-1.1498-1.9215-1.1498-3.3106 0-1.4096 0.38585-2.5183 1.1576-3.326 0.77684-0.8077 1.8392-1.2116 3.1871-1.2116 0.43729 0.00001 0.86429 0.0463 1.281 0.1389 0.41671 0.0875 0.82056 0.22123 1.2116 0.40129"/>
  <path id="path3235" style="" d="m691.39 326.21v2.454h2.9247v1.1035h-2.9247v4.6919c-0.00001 0.70482 0.0952 1.1576 0.28553 1.3582 0.19549 0.20064 0.58906 0.30096 1.1807 0.30096h1.4585v1.1884h-1.4585c-1.0958 0-1.8521-0.20322-2.2688-0.60965-0.41672-0.41157-0.62508-1.1575-0.62508-2.2379v-4.6919h-1.0418v-1.1035h1.0418v-2.454h1.4276"/>
  <path id="path3237" style="" d="m700.12 332.96c-1.1473 0-1.9421 0.13119-2.3846 0.39357-0.44245 0.26238-0.66367 0.70996-0.66366 1.3428-0.00001 0.50418 0.16462 0.90547 0.49388 1.2038 0.3344 0.29325 0.78713 0.43987 1.3582 0.43987 0.78713 0 1.4174-0.27781 1.8907-0.83343 0.47844-0.56077 0.71767-1.3042 0.71768-2.2302v-0.3164h-1.4122m2.8321-0.58649v4.9312h-1.4199v-1.3119c-0.32412 0.52475-0.72798 0.91318-1.2116 1.1653-0.4836 0.24695-1.0752 0.37042-1.7749 0.37042-0.88488 0-1.5897-0.24694-2.1145-0.74083-0.51961-0.49903-0.77941-1.1653-0.77941-1.9987 0-0.97234 0.32411-1.7054 0.97234-2.1994 0.65337-0.49388 1.6257-0.74082 2.917-0.74083h1.991v-0.1389c-0.00001-0.65337-0.21609-1.1575-0.64823-1.5125-0.42701-0.36012-1.0289-0.54019-1.8058-0.54019-0.49389 0-0.97491 0.0592-1.4431 0.17749-0.46817 0.11833-0.91833 0.29582-1.3505 0.53247v-1.3119c0.51961-0.20063 1.0238-0.34983 1.5125-0.44758 0.48874-0.10289 0.96462-0.15433 1.4276-0.15434 1.2501 0.00001 2.1839 0.32412 2.8013 0.97234 0.61736 0.64823 0.92604 1.6309 0.92604 2.9479"/>
  <path id="path3239" style="" d="m713.07 332.09v5.2167h-1.4199v-5.1704c0-0.81799-0.15949-1.4302-0.47845-1.8366-0.31897-0.40642-0.79743-0.60964-1.4354-0.60964-0.76656 0-1.3711 0.24437-1.8135 0.73311-0.44245 0.48875-0.66367 1.155-0.66366 1.9987v4.8849h-1.4276v-8.643h1.4276v1.3428c0.33954-0.5196 0.73825-0.90802 1.1961-1.1653 0.46301-0.25723 0.99549-0.38584 1.5974-0.38585 0.99291 0.00001 1.744 0.30868 2.2534 0.92604 0.50931 0.61222 0.76397 1.5151 0.76398 2.7087"/>
  <path id="path3241" style="" d="m721.6 332.88c0-1.0289-0.21351-1.8264-0.64051-2.3923-0.42187-0.5659-1.0161-0.84886-1.7826-0.84887-0.76142 0.00001-1.3556 0.28297-1.7826 0.84887-0.42186 0.56592-0.63279 1.3633-0.63279 2.3923 0 1.0238 0.21093 1.8186 0.63279 2.3846 0.42701 0.56592 1.0212 0.84887 1.7826 0.84887 0.76655 0 1.3608-0.28295 1.7826-0.84887 0.427-0.56591 0.64051-1.3608 0.64051-2.3846m1.4199 3.3492c-0.00001 1.4714-0.32669 2.5646-0.98006 3.2797-0.65338 0.72025-1.654 1.0804-3.0019 1.0804-0.49903-0.00001-0.96977-0.0386-1.4122-0.11576-0.44244-0.072-0.87202-0.18521-1.2887-0.33955v-1.3813c0.41672 0.22636 0.82829 0.39357 1.2347 0.50161 0.40643 0.10803 0.82057 0.16205 1.2424 0.16205 0.93118 0 1.6283-0.24437 2.0913-0.73311 0.46302-0.4836 0.69453-1.2167 0.69453-2.1993v-0.70225c-0.29325 0.50932-0.66881 0.89003-1.1267 1.1421-0.45788 0.25209-1.0058 0.37814-1.6437 0.37814-1.0598 0-1.9138-0.40386-2.562-1.2116-0.64823-0.80771-0.97234-1.8778-0.97234-3.2103 0-1.3376 0.32411-2.4103 0.97234-3.218s1.5022-1.2116 2.562-1.2116c0.63794 0.00001 1.1858 0.12605 1.6437 0.37813 0.45787 0.2521 0.83343 0.6328 1.1267 1.1421v-1.3119h1.4199v7.5704"/>
  <path id="path3243" style="" d="m725.95 325.3h1.4199v12.008h-1.4199v-12.008"/>
  <path id="path3245" style="" d="m737.72 332.63v0.69453h-6.5286c0.0617 0.97749 0.35498 1.7235 0.87973 2.2379 0.5299 0.50932 1.2656 0.76398 2.2071 0.76398 0.54533 0 1.0727-0.0669 1.582-0.20064 0.51446-0.13376 1.0238-0.3344 1.528-0.60193v1.3428c-0.50933 0.21607-1.0315 0.3807-1.5666 0.49389-0.53505 0.11318-1.0778 0.16977-1.6283 0.16977-1.3788 0-2.472-0.40128-3.2797-1.2038-0.80257-0.80257-1.2039-1.8881-1.2038-3.2566-0.00001-1.4148 0.3807-2.5363 1.1421-3.3646 0.76655-0.83343 1.7981-1.2501 3.0945-1.2502 1.1627 0.00001 2.081 0.37557 2.755 1.1267 0.67909 0.74598 1.0186 1.762 1.0186 3.0482m-1.4199-0.41672c-0.0103-0.77684-0.22895-1.3968-0.65595-1.8598-0.42187-0.46302-0.98263-0.69453-1.6823-0.69453-0.79228 0-1.4276 0.2238-1.9061 0.67138-0.47331 0.44759-0.74598 1.0778-0.818 1.8907l5.0624-0.008"/>
  <path id="path3247" style="" d="m740.42 335.34h1.6283v1.9601h-1.6283v-1.9601m0-6.2122h1.6283v1.9601h-1.6283v-1.9601"/>
  <path id="path3249" style="" d="m745.76 335.34h1.6283v1.9601h-1.6283v-1.9601m0-6.2122h1.6283v1.9601h-1.6283v-1.9601"/>
  <path id="path3251" style="" d="m755.74 329.99c-0.15949-0.0926-0.33441-0.15948-0.52476-0.20064-0.18521-0.0463-0.391-0.0695-0.61736-0.0695-0.80257 0.00001-1.4199 0.26239-1.8521 0.78714-0.42701 0.51961-0.64051 1.2682-0.64051 2.2456v4.553h-1.4276v-8.643h1.4276v1.3428c0.29839-0.52475 0.68681-0.91317 1.1653-1.1653 0.47845-0.25723 1.0598-0.38584 1.744-0.38585 0.0977 0.00001 0.20578 0.008 0.32411 0.0231 0.11832 0.0103 0.24951 0.0283 0.39357 0.054l0.008 1.4585"/>
  <path id="path3253" style="" d="m764.29 332.63v0.69453h-6.5286c0.0617 0.97749 0.35498 1.7235 0.87974 2.2379 0.52989 0.50932 1.2656 0.76398 2.2071 0.76398 0.54533 0 1.0726-0.0669 1.582-0.20064 0.51446-0.13376 1.0238-0.3344 1.528-0.60193v1.3428c-0.50933 0.21607-1.0315 0.3807-1.5666 0.49389-0.53506 0.11318-1.0778 0.16977-1.6283 0.16977-1.3788 0-2.472-0.40128-3.2797-1.2038-0.80257-0.80257-1.2038-1.8881-1.2038-3.2566 0-1.4148 0.3807-2.5363 1.1421-3.3646 0.76655-0.83343 1.7981-1.2501 3.0945-1.2502 1.1627 0.00001 2.081 0.37557 2.755 1.1267 0.67909 0.74598 1.0186 1.762 1.0186 3.0482m-1.4199-0.41672c-0.0103-0.77684-0.22895-1.3968-0.65594-1.8598-0.42187-0.46302-0.98264-0.69453-1.6823-0.69453-0.79228 0-1.4276 0.2238-1.9061 0.67138-0.47331 0.44759-0.74597 1.0778-0.818 1.8907l5.0624-0.008"/>
  <path id="path3255" style="" d="m772.13 328.92v1.3428c-0.40129-0.20578-0.81801-0.36012-1.2502-0.46302-0.43216-0.10288-0.87974-0.15433-1.3428-0.15434-0.70482 0.00001-1.2347 0.10805-1.5897 0.32412-0.34984 0.21608-0.52476 0.54019-0.52475 0.97234-0.00001 0.32926 0.12604 0.58907 0.37813 0.77941 0.25208 0.18522 0.75883 0.36271 1.5202 0.53248l0.48617 0.10803c1.0083 0.21609 1.7234 0.52219 2.1453 0.91833 0.427 0.39099 0.6405 0.9389 0.64051 1.6437-0.00001 0.80256-0.31898 1.4379-0.95691 1.9061-0.6328 0.46817-1.5048 0.70225-2.6161 0.70225-0.46302 0-0.94662-0.0463-1.4508-0.13891-0.49904-0.0875-1.0264-0.22122-1.582-0.40128v-1.4662c0.52475 0.27267 1.0418 0.47846 1.5511 0.61736 0.50932 0.13376 1.0135 0.20064 1.5125 0.20064 0.6688 0 1.1833-0.11318 1.5434-0.33954 0.36012-0.23151 0.54018-0.55563 0.54019-0.97235-0.00001-0.38584-0.1312-0.68166-0.39357-0.88745-0.25724-0.20578-0.82572-0.40385-1.7054-0.59421l-0.49389-0.11575c-0.87974-0.18521-1.5151-0.46816-1.9061-0.84887-0.39099-0.38585-0.58649-0.91317-0.58649-1.582 0-0.81285 0.2881-1.4405 0.8643-1.8829 0.5762-0.44243 1.3942-0.66365 2.454-0.66366 0.52475 0.00001 1.0186 0.0386 1.4817 0.11575 0.46301 0.0772 0.89002 0.19293 1.281 0.34727"/>
  <path id="path3257" style="" d="m774.87 328.66h1.4199v8.643h-1.4199v-8.643m0-3.3646h1.4199v1.7981h-1.4199v-1.7981"/>
  <path id="path3259" style="" d="m778.63 328.66h6.7446v1.2964l-5.3402 6.2122h5.3402v1.1344h-6.9376v-1.2965l5.3402-6.2122h-5.1472v-1.1344"/>
  <path id="path3261" style="" d="m794.95 332.63v0.69453h-6.5286c0.0617 0.97749 0.35498 1.7235 0.87974 2.2379 0.5299 0.50932 1.2656 0.76398 2.2071 0.76398 0.54533 0 1.0727-0.0669 1.582-0.20064 0.51446-0.13376 1.0238-0.3344 1.528-0.60193v1.3428c-0.50933 0.21607-1.0315 0.3807-1.5666 0.49389-0.53505 0.11318-1.0778 0.16977-1.6283 0.16977-1.3788 0-2.472-0.40128-3.2797-1.2038-0.80257-0.80257-1.2038-1.8881-1.2038-3.2566 0-1.4148 0.38071-2.5363 1.1421-3.3646 0.76655-0.83343 1.798-1.2501 3.0945-1.2502 1.1627 0.00001 2.081 0.37557 2.755 1.1267 0.67908 0.74598 1.0186 1.762 1.0186 3.0482m-1.4199-0.41672c-0.0103-0.77684-0.22894-1.3968-0.65594-1.8598-0.42187-0.46302-0.98264-0.69453-1.6823-0.69453-0.79228 0-1.4276 0.2238-1.9061 0.67138-0.47331 0.44759-0.74598 1.0778-0.818 1.8907l5.0623-0.008"/>
  <path id="path3263" style="" d="m800.69 325.31c-0.68939 1.1833-1.2013 2.3537-1.5357 3.5112-0.3344 1.1576-0.5016 2.3305-0.5016 3.519 0 1.1884 0.1672 2.3666 0.5016 3.5344 0.33955 1.1627 0.85144 2.3331 1.5357 3.5112h-1.2347c-0.77171-1.209-1.3505-2.3974-1.7363-3.5652-0.3807-1.1678-0.57106-2.328-0.57105-3.4804-0.00001-1.1472 0.19035-2.3022 0.57105-3.4649 0.38071-1.1627 0.95948-2.3511 1.7363-3.5652h1.2347"/>
  <path id="path3265" style="" d="m803.23 325.31h1.2347c0.7717 1.2142 1.3479 2.4026 1.7286 3.5652 0.38584 1.1627 0.57877 2.3177 0.57877 3.4649 0 1.1524-0.19293 2.3125-0.57877 3.4804-0.38071 1.1678-0.95691 2.3563-1.7286 3.5652h-1.2347c0.68424-1.1781 1.1936-2.3485 1.528-3.5112 0.33954-1.1678 0.50931-2.346 0.50932-3.5344-0.00001-1.1884-0.16978-2.3614-0.50932-3.519-0.33441-1.1575-0.84373-2.328-1.528-3.5112"/>
 </g>
 <g id="g102" stroke="#000" stroke-width="2" fill="none" transform="translate(-.21026 -8.1715)">
  <path id="line104" d="m630 280h25.528"/>
  <path id="polyline106" d="m647.76 285 10-5-10-5"/>
 </g>
 <g id="g108" stroke="#000" stroke-width="2" fill="none" transform="translate(-.21026 -8.1715)">
  <path id="line110" d="m630 310h25.528"/>
  <path id="polyline112" d="m647.76 315 10-5-10-5"/>
 </g>
 <g id="g114" stroke="#000" stroke-width="2" fill="none" transform="translate(-.21026 -8.1715)">
  <path id="line116" d="m630 340h25.528"/>
  <path id="polyline118" d="m647.76 345 10-5-10-5"/>
 </g>
 <g id="text120">
  <path id="path3274" style="" d="m556.8 241.43c0.3344 0.11318 0.65851 0.35498 0.97234 0.72539 0.31896 0.37042 0.63793 0.87974 0.95691 1.528l1.582 3.1485h-1.6746l-1.4739-2.9556c-0.38071-0.77169-0.75113-1.2836-1.1112-1.5357-0.35499-0.25208-0.84116-0.37813-1.4585-0.37813h-1.6977v4.8694h-1.5588v-11.521h3.519c1.317 0.00001 2.2996 0.27525 2.9479 0.82572 0.64822 0.55049 0.97233 1.3814 0.97234 2.4926-0.00001 0.7254-0.16978 1.3273-0.50932 1.8058-0.33441 0.47846-0.82315 0.81029-1.4662 0.9955m-3.9048-4.8386v4.09h1.9601c0.75111 0 1.317-0.17234 1.6977-0.51704 0.38584-0.34983 0.57876-0.86172 0.57877-1.5357-0.00001-0.67394-0.19293-1.1807-0.57877-1.5202-0.38072-0.34468-0.94663-0.51703-1.6977-0.51704h-1.9601"/>
  <path id="path3276" style="" d="m568.95 242.15v0.69453h-6.5286c0.0617 0.97749 0.35498 1.7235 0.87974 2.2379 0.52989 0.50932 1.2656 0.76398 2.2071 0.76398 0.54533 0 1.0726-0.0669 1.582-0.20064 0.51446-0.13376 1.0238-0.3344 1.528-0.60192v1.3428c-0.50933 0.21608-1.0315 0.38071-1.5666 0.49389-0.53506 0.11318-1.0778 0.16977-1.6283 0.16977-1.3788 0-2.472-0.40128-3.2797-1.2038-0.80257-0.80256-1.2038-1.8881-1.2038-3.2566 0-1.4148 0.3807-2.5363 1.1421-3.3646 0.76655-0.83342 1.7981-1.2501 3.0945-1.2502 1.1627 0.00001 2.081 0.37557 2.755 1.1267 0.67909 0.74598 1.0186 1.762 1.0186 3.0482m-1.4199-0.41671c-0.0103-0.77684-0.22895-1.3968-0.65595-1.8598-0.42186-0.46301-0.98263-0.69452-1.6823-0.69453-0.79228 0.00001-1.4276 0.2238-1.9061 0.67138-0.47331 0.44759-0.74598 1.0778-0.818 1.8907l5.0624-0.008"/>
  <path id="path3278" style="" d="m577.5 238.52v1.3273c-0.40129-0.22121-0.80514-0.38584-1.2116-0.49388-0.40129-0.11318-0.80772-0.16977-1.2193-0.16978-0.9209 0.00001-1.636 0.29325-2.1453 0.87974-0.50933 0.58135-0.76399 1.3994-0.76398 2.454-0.00001 1.0547 0.25465 1.8752 0.76398 2.4617 0.50932 0.58135 1.2244 0.87202 2.1453 0.87202 0.41157 0 0.818-0.054 1.2193-0.16205 0.40642-0.11318 0.81027-0.28039 1.2116-0.50161v1.3119c-0.39614 0.18521-0.80771 0.32411-1.2347 0.41672-0.42187 0.0926-0.87203 0.1389-1.3505 0.1389-1.3016 0-2.3357-0.409-3.1022-1.227-0.76655-0.818-1.1498-1.9215-1.1498-3.3106 0-1.4096 0.38585-2.5183 1.1576-3.326 0.77684-0.8077 1.8392-1.2116 3.1871-1.2116 0.43729 0.00001 0.86429 0.0463 1.281 0.13891 0.41671 0.0875 0.82056 0.22123 1.2116 0.40128"/>
  <path id="path3280" style="" d="m581.39 235.73v2.454h2.9247v1.1035h-2.9247v4.6919c-0.00001 0.70482 0.0952 1.1576 0.28553 1.3582 0.19549 0.20064 0.58906 0.30097 1.1807 0.30096h1.4585v1.1884h-1.4585c-1.0958 0-1.8521-0.20321-2.2688-0.60964-0.41672-0.41157-0.62508-1.1576-0.62508-2.2379v-4.6919h-1.0418v-1.1035h1.0418v-2.454h1.4276"/>
  <path id="path3282" style="" d="m590.12 242.48c-1.1473 0.00001-1.9421 0.1312-2.3846 0.39357-0.44245 0.26238-0.66367 0.70997-0.66366 1.3428-0.00001 0.50418 0.16462 0.90546 0.49388 1.2038 0.3344 0.29325 0.78713 0.43987 1.3582 0.43987 0.78713 0 1.4174-0.27781 1.8907-0.83344 0.47844-0.56076 0.71767-1.3042 0.71768-2.2302v-0.3164h-1.4122m2.8321-0.58649v4.9312h-1.4199v-1.3119c-0.32412 0.52476-0.72798 0.91318-1.2116 1.1653-0.4836 0.24694-1.0752 0.37041-1.7749 0.37041-0.88488 0-1.5897-0.24694-2.1145-0.74083-0.51961-0.49903-0.77941-1.1653-0.77941-1.9987 0-0.97234 0.32411-1.7054 0.97234-2.1993 0.65337-0.49388 1.6257-0.74083 2.917-0.74083h1.991v-0.13891c-0.00001-0.65336-0.21609-1.1575-0.64823-1.5125-0.42701-0.36012-1.0289-0.54018-1.8058-0.54019-0.49389 0.00001-0.97491 0.0592-1.4431 0.17749-0.46817 0.11834-0.91833 0.29583-1.3505 0.53248v-1.3119c0.51961-0.20064 1.0238-0.34983 1.5125-0.44759 0.48874-0.10288 0.96462-0.15433 1.4276-0.15434 1.2501 0.00001 2.1839 0.32412 2.8013 0.97234 0.61736 0.64824 0.92604 1.6309 0.92604 2.9479"/>
  <path id="path3284" style="" d="m603.07 241.61v5.2167h-1.4199v-5.1704c0-0.818-0.15949-1.4302-0.47845-1.8366-0.31897-0.40642-0.79743-0.60963-1.4354-0.60964-0.76656 0.00001-1.3711 0.24438-1.8135 0.73311-0.44245 0.48875-0.66367 1.155-0.66366 1.9987v4.8848h-1.4276v-8.643h1.4276v1.3428c0.33954-0.51961 0.73825-0.90803 1.1961-1.1653 0.46301-0.25722 0.99549-0.38584 1.5974-0.38585 0.99291 0.00001 1.744 0.30869 2.2534 0.92604 0.50931 0.61222 0.76397 1.5151 0.76398 2.7087"/>
  <path id="path3286" style="" d="m611.6 242.41c0-1.0289-0.21351-1.8263-0.64051-2.3923-0.42187-0.56591-1.0161-0.84886-1.7826-0.84887-0.76142 0.00001-1.3556 0.28296-1.7826 0.84887-0.42186 0.56592-0.63279 1.3633-0.63279 2.3923 0 1.0238 0.21093 1.8186 0.63279 2.3846 0.42701 0.56591 1.0212 0.84887 1.7826 0.84886 0.76655 0.00001 1.3608-0.28295 1.7826-0.84886 0.427-0.56591 0.64051-1.3608 0.64051-2.3846m1.4199 3.3492c-0.00001 1.4714-0.32669 2.5646-0.98006 3.2797-0.65338 0.72025-1.654 1.0804-3.0019 1.0804-0.49903 0-0.96977-0.0386-1.4122-0.11575-0.44244-0.072-0.87202-0.18522-1.2887-0.33955v-1.3813c0.41672 0.22636 0.82829 0.39356 1.2347 0.5016 0.40643 0.10804 0.82057 0.16206 1.2424 0.16206 0.93118 0 1.6283-0.24438 2.0913-0.73312 0.46302-0.4836 0.69453-1.2167 0.69453-2.1993v-0.70225c-0.29325 0.50933-0.66881 0.89003-1.1267 1.1421-0.45788 0.25209-1.0058 0.37813-1.6437 0.37813-1.0598 0-1.9138-0.40385-2.562-1.2116-0.64823-0.80771-0.97234-1.8778-0.97234-3.2103 0-1.3376 0.32411-2.4103 0.97234-3.218s1.5022-1.2116 2.562-1.2116c0.63794 0.00001 1.1858 0.12605 1.6437 0.37813 0.45787 0.2521 0.83343 0.6328 1.1267 1.1421v-1.3119h1.4199v7.5704"/>
  <path id="path3288" style="" d="m615.95 234.82h1.4199v12.008h-1.4199v-12.008"/>
  <path id="path3290" style="" d="m627.72 242.15v0.69453h-6.5286c0.0617 0.97749 0.35498 1.7235 0.87973 2.2379 0.5299 0.50932 1.2656 0.76398 2.2071 0.76398 0.54533 0 1.0727-0.0669 1.582-0.20064 0.51446-0.13376 1.0238-0.3344 1.528-0.60192v1.3428c-0.50933 0.21608-1.0315 0.38071-1.5666 0.49389-0.53505 0.11318-1.0778 0.16977-1.6283 0.16977-1.3788 0-2.472-0.40128-3.2797-1.2038-0.80257-0.80256-1.2039-1.8881-1.2038-3.2566-0.00001-1.4148 0.3807-2.5363 1.1421-3.3646 0.76655-0.83342 1.7981-1.2501 3.0945-1.2502 1.1627 0.00001 2.081 0.37557 2.755 1.1267 0.67909 0.74598 1.0186 1.762 1.0186 3.0482m-1.4199-0.41671c-0.0103-0.77684-0.22895-1.3968-0.65595-1.8598-0.42187-0.46301-0.98263-0.69452-1.6823-0.69453-0.79228 0.00001-1.4276 0.2238-1.9061 0.67138-0.47331 0.44759-0.74598 1.0778-0.818 1.8907l5.0624-0.008"/>
  <path id="path3292" style="" d="m634.07 238.19h1.5048l2.701 7.254 2.7009-7.254h1.5048l-3.2411 8.643h-1.9292l-3.2411-8.643"/>
  <path id="path3294" style="" d="m645.84 235.73v2.454h2.9247v1.1035h-2.9247v4.6919c-0.00001 0.70482 0.0952 1.1576 0.28553 1.3582 0.19549 0.20064 0.58906 0.30097 1.1807 0.30096h1.4585v1.1884h-1.4585c-1.0958 0-1.8521-0.20321-2.2688-0.60964-0.41672-0.41157-0.62508-1.1576-0.62508-2.2379v-4.6919h-1.0418v-1.1035h1.0418v-2.454h1.4276"/>
  <path id="path3296" style="" d="m654.57 242.48c-1.1473 0.00001-1.9421 0.1312-2.3846 0.39357-0.44244 0.26238-0.66366 0.70997-0.66366 1.3428 0 0.50418 0.16463 0.90546 0.49389 1.2038 0.3344 0.29325 0.78713 0.43987 1.3582 0.43987 0.78713 0 1.4174-0.27781 1.8907-0.83344 0.47845-0.56076 0.71768-1.3042 0.71768-2.2302v-0.3164h-1.4122m2.8321-0.58649v4.9312h-1.4199v-1.3119c-0.32412 0.52476-0.72797 0.91318-1.2116 1.1653-0.48361 0.24694-1.0752 0.37041-1.7749 0.37041-0.88489 0-1.5897-0.24694-2.1145-0.74083-0.51961-0.49903-0.77942-1.1653-0.77942-1.9987 0-0.97234 0.32412-1.7054 0.97235-2.1993 0.65337-0.49388 1.6257-0.74083 2.917-0.74083h1.991v-0.13891c0-0.65336-0.21608-1.1575-0.64822-1.5125-0.42702-0.36012-1.0289-0.54018-1.8058-0.54019-0.49389 0.00001-0.97492 0.0592-1.4431 0.17749-0.46816 0.11834-0.91832 0.29583-1.3505 0.53248v-1.3119c0.51961-0.20064 1.0238-0.34983 1.5125-0.44759 0.48874-0.10288 0.96462-0.15433 1.4276-0.15434 1.2502 0.00001 2.1839 0.32412 2.8013 0.97234 0.61735 0.64824 0.92603 1.6309 0.92604 2.9479"/>
  <path id="path3298" style="" d="m666.54 242.51c-0.00001-1.0444-0.21608-1.8624-0.64823-2.454-0.42701-0.59677-1.0161-0.89516-1.7672-0.89517-0.75112 0.00001-1.3428 0.2984-1.7749 0.89517-0.42701 0.59164-0.64051 1.4096-0.64051 2.454s0.2135 1.8649 0.64051 2.4617c0.43215 0.59164 1.0238 0.88746 1.7749 0.88746 0.75112 0 1.3402-0.29582 1.7672-0.88746 0.43215-0.59678 0.64822-1.4174 0.64823-2.4617m-4.8308-3.0173c0.29839-0.51446 0.67395-0.89516 1.1267-1.1421 0.45787-0.25208 1.0032-0.37812 1.636-0.37813 1.0495 0.00001 1.9009 0.41673 2.5543 1.2502 0.65851 0.83345 0.98777 1.9293 0.98777 3.2874 0 1.3582-0.32926 2.454-0.98777 3.2874-0.65338 0.83344-1.5048 1.2502-2.5543 1.2502-0.6328 0-1.1781-0.12347-1.636-0.37041-0.45273-0.25209-0.82829-0.63537-1.1267-1.1498v1.2964h-1.4276v-12.008h1.4276v4.6765"/>
  <path id="path3300" style="" d="m670.37 234.82h1.4199v12.008h-1.4199v-12.008"/>
  <path id="path3302" style="" d="m682.14 242.15v0.69453h-6.5286c0.0617 0.97749 0.35498 1.7235 0.87974 2.2379 0.5299 0.50932 1.2656 0.76398 2.2071 0.76398 0.54533 0 1.0727-0.0669 1.582-0.20064 0.51445-0.13376 1.0238-0.3344 1.528-0.60192v1.3428c-0.50933 0.21608-1.0315 0.38071-1.5666 0.49389-0.53505 0.11318-1.0778 0.16977-1.6283 0.16977-1.3788 0-2.472-0.40128-3.2797-1.2038-0.80257-0.80256-1.2038-1.8881-1.2038-3.2566 0-1.4148 0.38071-2.5363 1.1421-3.3646 0.76655-0.83342 1.798-1.2501 3.0945-1.2502 1.1627 0.00001 2.081 0.37557 2.755 1.1267 0.67908 0.74598 1.0186 1.762 1.0186 3.0482m-1.4199-0.41671c-0.0103-0.77684-0.22894-1.3968-0.65594-1.8598-0.42187-0.46301-0.98264-0.69452-1.6823-0.69453-0.79228 0.00001-1.4276 0.2238-1.9061 0.67138-0.47331 0.44759-0.74598 1.0778-0.818 1.8907l5.0623-0.008"/>
 </g>
</svg>
