<?xml version="1.0" encoding="UTF-8"?>
<svg id="svg59" width="24cm" height="9.6931cm" version="1.1" viewBox="399 202 462 183.2" xmlns="http://www.w3.org/2000/svg" xmlns:cc="http://creativecommons.org/ns#" xmlns:dc="http://purl.org/dc/elements/1.1/" xmlns:rdf="http://www.w3.org/1999/02/22-rdf-syntax-ns#">
 <metadata id="metadata63">
  <rdf:RDF>
   <cc:Work rdf:about="">
    <dc:format>image/svg+xml</dc:format>
    <dc:type rdf:resource="http://purl.org/dc/dcmitype/StillImage"/>
   </cc:Work>
  </rdf:RDF>
 </metadata>
 <g id="Háttér" transform="translate(0 -4.104)">
  <path id="rect4" d="m780 220h60v80h-60z" fill="#fff" stroke="#000" stroke-width="2"/>
  <g id="text8" aria-label="rhs">
   <path id="path844" d="m805.07 208.43q-0.20505-0.11907-0.44979-0.17198-0.23813-0.0595-0.52917-0.0595-1.0319 0-1.5875 0.67468-0.54901 0.66808-0.54901 1.9248v3.9026h-1.2237v-7.4084h1.2237v1.1509q0.38365-0.67469 0.99881-0.99881 0.61515-0.33073 1.4949-0.33073 0.12567 0 0.27781 0.0199 0.15214 0.0132 0.33734 0.0463z" style=""/>
   <path id="path846" d="m812.28 210.23v4.4715h-1.2171v-4.4318q0-1.0517-0.41011-1.5743-0.4101-0.52255-1.2303-0.52255-0.98558 0-1.5544 0.62838-0.56885 0.62839-0.56885 1.7132v4.187h-1.2237v-10.292h1.2237v4.0349q0.43656-0.66808 1.0253-0.99881 0.59532-0.33073 1.3692-0.33073 1.2766 0 1.9315 0.79375 0.65484 0.78714 0.65484 2.3217z" style=""/>
   <path id="path848" d="m819.44 207.51v1.1509q-0.51594-0.26459-1.0716-0.39688-0.55563-0.13229-1.1509-0.13229-0.9062 0-1.3626 0.27781-0.44979 0.27782-0.44979 0.83344 0 0.42334 0.32411 0.66808 0.32412 0.23812 1.3031 0.4564l0.41672 0.0926q1.2965 0.27781 1.8389 0.78714 0.54901 0.50271 0.54901 1.4089 0 1.0319-0.82021 1.6338-0.8136 0.60193-2.2424 0.60193-0.59531 0-1.2436-0.11906-0.64161-0.11245-1.356-0.34396v-1.2568q0.67469 0.35058 1.3295 0.52917 0.65484 0.17198 1.2965 0.17198 0.8599 0 1.3229-0.29104 0.46302-0.29766 0.46302-0.83344 0-0.49609-0.33735-0.76068-0.33073-0.26458-1.4618-0.50932l-0.42334-0.0992q-1.1311-0.23813-1.6338-0.72761-0.50271-0.49609-0.50271-1.356 0-1.0451 0.74083-1.614 0.74084-0.56886 2.1034-0.56886 0.67469 0 1.27 0.0992t1.098 0.29766z" style=""/>
  </g>
  <path id="rect10" d="m420 220h60v80h-60z" fill="#fff" stroke="#000" stroke-width="2"/>
  <g id="text14" aria-label="*this">
   <path id="path852" d="m440.61 206.45-2.3746 1.2832 2.3746 1.2898-0.38364 0.64823-2.2225-1.3428v2.4937h-0.75406v-2.4937l-2.2225 1.3428-0.38365-0.64823 2.3746-1.2898-2.3746-1.2832 0.38365-0.65484 2.2225 1.3428v-2.4937h0.75406v2.4937l2.2225-1.3428z" style=""/>
   <path id="path854" d="m443.5 205.19v2.1034h2.5069v0.94588h-2.5069v4.0217q0 0.9062 0.24474 1.1642 0.25135 0.25797 1.012 0.25797h1.2502v1.0186h-1.2502q-1.4089 0-1.9447-0.52256-0.53578-0.52916-0.53578-1.9182v-4.0217h-0.89297v-0.94588h0.89297v-2.1034z" style=""/>
   <path id="path856" d="m453.77 210.23v4.4715h-1.2171v-4.4318q0-1.0517-0.41011-1.5743-0.4101-0.52255-1.2303-0.52255-0.98557 0-1.5544 0.62838-0.56885 0.62839-0.56885 1.7132v4.187h-1.2237v-10.292h1.2237v4.0349q0.43656-0.66808 1.0253-0.99881 0.59532-0.33073 1.3692-0.33073 1.2766 0 1.9315 0.79375 0.65484 0.78714 0.65484 2.3217z" style=""/>
   <path id="path858" d="m456.21 207.29h1.2171v7.4084h-1.2171zm0-2.884h1.2171v1.5412h-1.2171z" style=""/>
   <path id="path860" d="m464.69 207.51v1.1509q-0.51594-0.26459-1.0716-0.39688t-1.1509-0.13229q-0.9062 0-1.3626 0.27781-0.44979 0.27782-0.44979 0.83344 0 0.42334 0.32412 0.66808 0.32411 0.23812 1.3031 0.4564l0.41672 0.0926q1.2965 0.27781 1.8389 0.78714 0.54901 0.50271 0.54901 1.4089 0 1.0319-0.82021 1.6338-0.81359 0.60193-2.2424 0.60193-0.59531 0-1.2435-0.11906-0.64162-0.11245-1.356-0.34396v-1.2568q0.67469 0.35058 1.3295 0.52917 0.65484 0.17198 1.2965 0.17198 0.8599 0 1.3229-0.29104 0.46302-0.29766 0.46302-0.83344 0-0.49609-0.33734-0.76068-0.33073-0.26458-1.4618-0.50932l-0.42333-0.0992q-1.1311-0.23813-1.6338-0.72761-0.50271-0.49609-0.50271-1.356 0-1.0451 0.74084-1.614 0.74083-0.56886 2.1034-0.56886 0.67469 0 1.27 0.0992 0.59532 0.0992 1.098 0.29766z" style=""/>
  </g>
  <path id="rect16" d="m600 220h60v80h-60z" fill="#fff" stroke="#000" stroke-width="2"/>
  <g id="text20" aria-label="copy">
   <path id="path864" d="m620.43 207.58v1.1377q-0.51593-0.28442-1.0385-0.42333-0.51594-0.14552-1.0451-0.14552-1.184 0-1.8389 0.75406-0.65485 0.74745-0.65485 2.1034 0 1.356 0.65485 2.11 0.65484 0.74745 1.8389 0.74745 0.52916 0 1.0451-0.1389 0.52256-0.14552 1.0385-0.42995v1.1245q-0.50932 0.23812-1.0583 0.35719-0.5424 0.11906-1.1576 0.11906-1.6735 0-2.6591-1.0517-0.98557-1.0517-0.98557-2.8377 0-1.8124 0.99219-2.8509 0.9988-1.0385 2.7318-1.0385 0.56224 0 1.098 0.11906 0.53579 0.11245 1.0385 0.34396z" style=""/>
   <path id="path866" d="m625.43 208.14q-0.97896 0-1.5478 0.76729-0.56886 0.76068-0.56886 2.0902 0 1.3295 0.56224 2.0968 0.56886 0.76068 1.5544 0.76068 0.97235 0 1.5412-0.76729 0.56886-0.76729 0.56886-2.0902 0-1.3163-0.56886-2.0836-0.56885-0.77391-1.5412-0.77391zm0-1.0319q1.5875 0 2.4937 1.0319t0.9062 2.8575q0 1.819-0.9062 2.8575-0.9062 1.0319-2.4937 1.0319-1.5941 0-2.5003-1.0319-0.89958-1.0385-0.89958-2.8575 0-1.8256 0.89958-2.8575 0.9062-1.0319 2.5003-1.0319z" style=""/>
   <path id="path868" d="m632.02 213.59v3.9291h-1.2237v-10.226h1.2237v1.1245q0.38365-0.66146 0.96573-0.97896 0.5887-0.32412 1.4023-0.32412 1.3494 0 2.1894 1.0716 0.84667 1.0716 0.84667 2.8178 0 1.7462-0.84667 2.8178-0.84005 1.0716-2.1894 1.0716-0.8136 0-1.4023-0.3175-0.58208-0.32412-0.96573-0.98558zm4.1407-2.5863q0-1.3428-0.55562-2.1034-0.54902-0.76729-1.5148-0.76729t-1.5214 0.76729q-0.54901 0.76068-0.54901 2.1034 0 1.3428 0.54901 2.11 0.55563 0.76068 1.5214 0.76068t1.5148-0.76068q0.55562-0.76729 0.55562-2.11z" style=""/>
   <path id="path870" d="m642.52 215.39q-0.51594 1.3229-1.0054 1.7264t-1.3097 0.40349h-0.97235v-1.0186h0.71438q0.50271 0 0.78052-0.23813 0.27781-0.23812 0.61516-1.1245l0.21828-0.55563-2.9964-7.2893h1.2898l2.3151 5.7944 2.3151-5.7944h1.2898z" style=""/>
  </g>
  <path id="rect22" d="m760 350h100v40h-100z" fill="#fff" stroke="#000" stroke-width="2"/>
  <g id="text26" aria-label="T[] din.tömb">
   <path id="path874" d="m768.04 364.82h8.3542v1.1245h-3.5057v8.7511h-1.3428v-8.7511h-3.5057z" style=""/>
   <path id="path876" d="m777.52 364.41h2.8046v0.94588h-1.5875v10.186h1.5875v0.94588h-2.8046z" style=""/>
   <path id="path878" d="m785.77 364.41v12.078h-2.8046v-0.94588h1.5809v-10.186h-1.5809v-0.94588z" style=""/>
   <path id="path880" d="m797.41 368.42v-4.0084h1.2171v10.292h-1.2171v-1.1112q-0.38364 0.66146-0.97234 0.98557-0.58209 0.31751-1.4023 0.31751-1.3428 0-2.1894-1.0716-0.84005-1.0716-0.84005-2.8178 0-1.7462 0.84005-2.8178 0.84667-1.0716 2.1894-1.0716 0.82021 0 1.4023 0.32411 0.5887 0.3175 0.97234 0.97896zm-4.1474 2.5863q0 1.3428 0.54901 2.1101 0.55563 0.76068 1.5214 0.76068t1.5214-0.76068q0.55562-0.7673 0.55562-2.1101t-0.55562-2.1034q-0.55563-0.76729-1.5214-0.76729t-1.5214 0.76729q-0.54901 0.76068-0.54901 2.1034z" style=""/>
   <path id="path882" d="m801.13 367.29h1.2171v7.4084h-1.2171zm0-2.884h1.2171v1.5412h-1.2171z" style=""/>
   <path id="path884" d="m811.05 370.23v4.4715h-1.2171v-4.4318q0-1.0517-0.41011-1.5743-0.4101-0.52256-1.2303-0.52256-0.98558 0-1.5544 0.62839-0.56886 0.62839-0.56886 1.7132v4.187h-1.2237v-7.4084h1.2237v1.1509q0.43657-0.66807 1.0253-0.9988 0.59532-0.33073 1.3692-0.33073 1.2766 0 1.9315 0.79375 0.65485 0.78714 0.65485 2.3217z" style=""/>
   <path id="path886" d="m813.66 373.02h1.3957v1.6801h-1.3957z" style=""/>
   <path id="path888" d="m819 365.19v2.1034h2.5069v0.94589h-2.5069v4.0217q0 0.9062 0.24474 1.1642 0.25136 0.25797 1.012 0.25797h1.2502v1.0186h-1.2502q-1.4089 0-1.9447-0.52255-0.53578-0.52917-0.53578-1.9182v-4.0217h-0.89297v-0.94589h0.89297v-2.1034z" style=""/>
   <path id="path890" d="m825.99 368.14q-0.97896 0-1.5478 0.7673-0.56885 0.76068-0.56885 2.0902 0 1.3295 0.56224 2.0968 0.56885 0.76068 1.5544 0.76068 0.97234 0 1.5412-0.7673 0.56886-0.76729 0.56886-2.0902 0-1.3163-0.56886-2.0836-0.56886-0.77391-1.5412-0.77391zm0-1.0319q1.5875 0 2.4937 1.0319 0.9062 1.0319 0.9062 2.8575 0 1.819-0.9062 2.8575-0.9062 1.0319-2.4937 1.0319-1.5941 0-2.5003-1.0319-0.89959-1.0385-0.89959-2.8575 0-1.8256 0.89959-2.8575 0.9062-1.0319 2.5003-1.0319zm0.62177-2.6789h1.3428v1.3362h-1.3428zm-2.5863 0h1.3428v1.3362h-1.3428z" style=""/>
   <path id="path892" d="m837.17 368.71q0.45641-0.82021 1.0914-1.2105t1.4949-0.39026q1.1576 0 1.7859 0.81359 0.62839 0.80698 0.62839 2.3019v4.4715h-1.2237v-4.4318q0-1.065-0.37703-1.5809-0.37704-0.51594-1.1509-0.51594-0.94589 0-1.4949 0.62839-0.54902 0.62839-0.54902 1.7132v4.187h-1.2237v-4.4318q0-1.0716-0.37703-1.5809-0.37703-0.51594-1.1642-0.51594-0.93266 0-1.4817 0.635-0.54901 0.62839-0.54901 1.7066v4.187h-1.2237v-7.4084h1.2237v1.1509q0.41672-0.6813 0.9988-1.0054 0.58209-0.32411 1.3825-0.32411 0.80698 0 1.3692 0.4101 0.56885 0.41011 0.84005 1.1906z" style=""/>
   <path id="path894" d="m849.92 371q0-1.3428-0.55563-2.1034-0.54901-0.76729-1.5147-0.76729-0.96574 0-1.5214 0.76729-0.54901 0.76068-0.54901 2.1034t0.54901 2.1101q0.55562 0.76068 1.5214 0.76068 0.96573 0 1.5147-0.76068 0.55563-0.7673 0.55563-2.1101zm-4.1407-2.5863q0.38364-0.66146 0.96573-0.97896 0.5887-0.32411 1.4023-0.32411 1.3494 0 2.1894 1.0716 0.84666 1.0716 0.84666 2.8178 0 1.7463-0.84666 2.8178-0.84006 1.0716-2.1894 1.0716-0.81359 0-1.4023-0.31751-0.58209-0.32411-0.96573-0.98557v1.1112h-1.2237v-10.292h1.2237z" style=""/>
  </g>
  <path id="rect28" d="m400 350h100v40h-100z" fill="#fff" stroke="#000" stroke-width="2"/>
  <g id="text32" aria-label="T[] din.tömb">
   <path id="path898" d="m408.04 364.82h8.3542v1.1245h-3.5057v8.7511h-1.3428v-8.7511h-3.5057z" style=""/>
   <path id="path900" d="m417.52 364.41h2.8046v0.94588h-1.5875v10.186h1.5875v0.94588h-2.8046z" style=""/>
   <path id="path902" d="m425.77 364.41v12.078h-2.8046v-0.94588h1.5809v-10.186h-1.5809v-0.94588z" style=""/>
   <path id="path904" d="m437.41 368.42v-4.0084h1.2171v10.292h-1.2171v-1.1112q-0.38364 0.66146-0.97234 0.98557-0.58209 0.31751-1.4023 0.31751-1.3428 0-2.1894-1.0716-0.84005-1.0716-0.84005-2.8178 0-1.7462 0.84005-2.8178 0.84667-1.0716 2.1894-1.0716 0.82021 0 1.4023 0.32411 0.5887 0.3175 0.97234 0.97896zm-4.1474 2.5863q0 1.3428 0.54901 2.1101 0.55563 0.76068 1.5214 0.76068t1.5214-0.76068q0.55562-0.7673 0.55562-2.1101t-0.55562-2.1034q-0.55563-0.76729-1.5214-0.76729t-1.5214 0.76729q-0.54901 0.76068-0.54901 2.1034z" style=""/>
   <path id="path906" d="m441.13 367.29h1.2171v7.4084h-1.2171zm0-2.884h1.2171v1.5412h-1.2171z" style=""/>
   <path id="path908" d="m451.05 370.23v4.4715h-1.2171v-4.4318q0-1.0517-0.41011-1.5743-0.4101-0.52256-1.2303-0.52256-0.98558 0-1.5544 0.62839-0.56886 0.62839-0.56886 1.7132v4.187h-1.2237v-7.4084h1.2237v1.1509q0.43657-0.66807 1.0253-0.9988 0.59532-0.33073 1.3692-0.33073 1.2766 0 1.9315 0.79375 0.65485 0.78714 0.65485 2.3217z" style=""/>
   <path id="path910" d="m453.66 373.02h1.3957v1.6801h-1.3957z" style=""/>
   <path id="path912" d="m459 365.19v2.1034h2.5069v0.94589h-2.5069v4.0217q0 0.9062 0.24474 1.1642 0.25136 0.25797 1.012 0.25797h1.2502v1.0186h-1.2502q-1.4089 0-1.9447-0.52255-0.53578-0.52917-0.53578-1.9182v-4.0217h-0.89297v-0.94589h0.89297v-2.1034z" style=""/>
   <path id="path914" d="m465.99 368.14q-0.97896 0-1.5478 0.7673-0.56885 0.76068-0.56885 2.0902 0 1.3295 0.56224 2.0968 0.56885 0.76068 1.5544 0.76068 0.97234 0 1.5412-0.7673 0.56886-0.76729 0.56886-2.0902 0-1.3163-0.56886-2.0836-0.56886-0.77391-1.5412-0.77391zm0-1.0319q1.5875 0 2.4937 1.0319 0.9062 1.0319 0.9062 2.8575 0 1.819-0.9062 2.8575-0.9062 1.0319-2.4937 1.0319-1.5941 0-2.5003-1.0319-0.89959-1.0385-0.89959-2.8575 0-1.8256 0.89959-2.8575 0.9062-1.0319 2.5003-1.0319zm0.62177-2.6789h1.3428v1.3362h-1.3428zm-2.5863 0h1.3428v1.3362h-1.3428z" style=""/>
   <path id="path916" d="m477.17 368.71q0.45641-0.82021 1.0914-1.2105t1.4949-0.39026q1.1576 0 1.7859 0.81359 0.62839 0.80698 0.62839 2.3019v4.4715h-1.2237v-4.4318q0-1.065-0.37703-1.5809-0.37704-0.51594-1.1509-0.51594-0.94589 0-1.4949 0.62839-0.54902 0.62839-0.54902 1.7132v4.187h-1.2237v-4.4318q0-1.0716-0.37703-1.5809-0.37703-0.51594-1.1642-0.51594-0.93266 0-1.4817 0.635-0.54901 0.62839-0.54901 1.7066v4.187h-1.2237v-7.4084h1.2237v1.1509q0.41672-0.6813 0.9988-1.0054 0.58209-0.32411 1.3825-0.32411 0.80698 0 1.3692 0.4101 0.56885 0.41011 0.84005 1.1906z" style=""/>
   <path id="path918" d="m489.92 371q0-1.3428-0.55563-2.1034-0.54901-0.76729-1.5147-0.76729-0.96574 0-1.5214 0.76729-0.54901 0.76068-0.54901 2.1034t0.54901 2.1101q0.55562 0.76068 1.5214 0.76068 0.96573 0 1.5147-0.76068 0.55563-0.7673 0.55563-2.1101zm-4.1407-2.5863q0.38364-0.66146 0.96573-0.97896 0.5887-0.32411 1.4023-0.32411 1.3494 0 2.1894 1.0716 0.84666 1.0716 0.84666 2.8178 0 1.7463-0.84666 2.8178-0.84006 1.0716-2.1894 1.0716-0.81359 0-1.4023-0.31751-0.58209-0.32411-0.96573-0.98557v1.1112h-1.2237v-10.292h1.2237z" style=""/>
  </g>
  <path id="rect34" d="m580 350h100v40h-100z" fill="#fff" stroke="#000" stroke-width="2"/>
  <g id="text38" aria-label="T[] din.tömb">
   <path id="path922" d="m588.04 364.82h8.3542v1.1245h-3.5057v8.7511h-1.3428v-8.7511h-3.5057z" style=""/>
   <path id="path924" d="m597.52 364.41h2.8046v0.94588h-1.5875v10.186h1.5875v0.94588h-2.8046z" style=""/>
   <path id="path926" d="m605.77 364.41v12.078h-2.8046v-0.94588h1.5809v-10.186h-1.5809v-0.94588z" style=""/>
   <path id="path928" d="m617.41 368.42v-4.0084h1.2171v10.292h-1.2171v-1.1112q-0.38364 0.66146-0.97234 0.98557-0.58209 0.31751-1.4023 0.31751-1.3428 0-2.1894-1.0716-0.84005-1.0716-0.84005-2.8178 0-1.7462 0.84005-2.8178 0.84667-1.0716 2.1894-1.0716 0.82021 0 1.4023 0.32411 0.5887 0.3175 0.97234 0.97896zm-4.1474 2.5863q0 1.3428 0.54901 2.1101 0.55563 0.76068 1.5214 0.76068t1.5214-0.76068q0.55562-0.7673 0.55562-2.1101t-0.55562-2.1034q-0.55563-0.76729-1.5214-0.76729t-1.5214 0.76729q-0.54901 0.76068-0.54901 2.1034z" style=""/>
   <path id="path930" d="m621.13 367.29h1.2171v7.4084h-1.2171zm0-2.884h1.2171v1.5412h-1.2171z" style=""/>
   <path id="path932" d="m631.05 370.23v4.4715h-1.2171v-4.4318q0-1.0517-0.41011-1.5743-0.4101-0.52256-1.2303-0.52256-0.98558 0-1.5544 0.62839-0.56886 0.62839-0.56886 1.7132v4.187h-1.2237v-7.4084h1.2237v1.1509q0.43657-0.66807 1.0253-0.9988 0.59532-0.33073 1.3692-0.33073 1.2766 0 1.9315 0.79375 0.65485 0.78714 0.65485 2.3217z" style=""/>
   <path id="path934" d="m633.66 373.02h1.3957v1.6801h-1.3957z" style=""/>
   <path id="path936" d="m639 365.19v2.1034h2.5069v0.94589h-2.5069v4.0217q0 0.9062 0.24474 1.1642 0.25136 0.25797 1.012 0.25797h1.2502v1.0186h-1.2502q-1.4089 0-1.9447-0.52255-0.53578-0.52917-0.53578-1.9182v-4.0217h-0.89297v-0.94589h0.89297v-2.1034z" style=""/>
   <path id="path938" d="m645.99 368.14q-0.97896 0-1.5478 0.7673-0.56885 0.76068-0.56885 2.0902 0 1.3295 0.56224 2.0968 0.56885 0.76068 1.5544 0.76068 0.97234 0 1.5412-0.7673 0.56886-0.76729 0.56886-2.0902 0-1.3163-0.56886-2.0836-0.56886-0.77391-1.5412-0.77391zm0-1.0319q1.5875 0 2.4937 1.0319 0.9062 1.0319 0.9062 2.8575 0 1.819-0.9062 2.8575-0.9062 1.0319-2.4937 1.0319-1.5941 0-2.5003-1.0319-0.89959-1.0385-0.89959-2.8575 0-1.8256 0.89959-2.8575 0.9062-1.0319 2.5003-1.0319zm0.62177-2.6789h1.3428v1.3362h-1.3428zm-2.5863 0h1.3428v1.3362h-1.3428z" style=""/>
   <path id="path940" d="m657.17 368.71q0.45641-0.82021 1.0914-1.2105t1.4949-0.39026q1.1576 0 1.7859 0.81359 0.62839 0.80698 0.62839 2.3019v4.4715h-1.2237v-4.4318q0-1.065-0.37703-1.5809-0.37704-0.51594-1.1509-0.51594-0.94589 0-1.4949 0.62839-0.54902 0.62839-0.54902 1.7132v4.187h-1.2237v-4.4318q0-1.0716-0.37703-1.5809-0.37703-0.51594-1.1642-0.51594-0.93266 0-1.4817 0.635-0.54901 0.62839-0.54901 1.7066v4.187h-1.2237v-7.4084h1.2237v1.1509q0.41672-0.6813 0.9988-1.0054 0.58209-0.32411 1.3825-0.32411 0.80698 0 1.3692 0.4101 0.56885 0.41011 0.84005 1.1906z" style=""/>
   <path id="path942" d="m669.92 371q0-1.3428-0.55563-2.1034-0.54901-0.76729-1.5147-0.76729-0.96574 0-1.5214 0.76729-0.54901 0.76068-0.54901 2.1034t0.54901 2.1101q0.55562 0.76068 1.5214 0.76068 0.96573 0 1.5147-0.76068 0.55563-0.7673 0.55563-2.1101zm-4.1407-2.5863q0.38364-0.66146 0.96573-0.97896 0.5887-0.32411 1.4023-0.32411 1.3494 0 2.1894 1.0716 0.84666 1.0716 0.84666 2.8178 0 1.7463-0.84666 2.8178-0.84006 1.0716-2.1894 1.0716-0.81359 0-1.4023-0.31751-0.58209-0.32411-0.96573-0.98557v1.1112h-1.2237v-10.292h1.2237z" style=""/>
  </g>
  <g id="g44" stroke="#000" stroke-width="2">
   <path id="line40" d="m810 300v40.264" fill="none"/>
   <path id="polygon42" d="m810 340.26 5-2.5-5 10-5-10z" fill-rule="evenodd"/>
  </g>
  <g id="g50" stroke="#000" stroke-width="2">
   <path id="line46" d="m450 300.98v39.285" fill="none"/>
   <path id="polygon48" d="m450 340.26 5-2.5-5 10-5-10z" fill-rule="evenodd"/>
  </g>
  <g id="g56" stroke="#000" stroke-width="2">
   <path id="line52" d="m630 300.98v39.285" fill="none"/>
   <path id="polygon54" d="m630 340.26 5-2.5-5 10-5-10z" fill-rule="evenodd"/>
  </g>
 </g>
</svg>
