<?xml version="1.0" encoding="UTF-8"?>
<svg id="svg71" width="24.92cm" height="7.3315cm" version="1.1" viewBox="196 45 483.46 136.55" xmlns="http://www.w3.org/2000/svg" xmlns:cc="http://creativecommons.org/ns#" xmlns:dc="http://purl.org/dc/elements/1.1/" xmlns:rdf="http://www.w3.org/1999/02/22-rdf-syntax-ns#">
 <metadata id="metadata75">
  <rdf:RDF>
   <cc:Work rdf:about="">
    <dc:format>image/svg+xml</dc:format>
    <dc:type rdf:resource="http://purl.org/dc/dcmitype/StillImage"/>
   </cc:Work>
  </rdf:RDF>
 </metadata>
 <g id="Háttér" transform="translate(-1.5436 -5.8333)">
  <path id="rect4" d="m200 100h40v40h-40z" fill="#fff" stroke="#000" stroke-width="2"/>
  <path id="rect6" d="m320 100h40v40h-40z" fill="#fff" stroke="#000" stroke-width="2"/>
  <g id="text10" aria-label="pData">
   <path id="path43" d="m198.97 178.7v4.5839h-1.4276v-11.93h1.4276v1.3119q0.44758-0.7717 1.1267-1.1421 0.68681-0.37813 1.636-0.37813 1.5743 0 2.5543 1.2502 0.98778 1.2502 0.98778 3.2874 0 2.0373-0.98778 3.2874-0.98005 1.2502-2.5543 1.2502-0.94919 0-1.636-0.37041-0.6791-0.37814-1.1267-1.1498zm4.8308-3.0174q0-1.5666-0.64822-2.454-0.64051-0.89517-1.7672-0.89517-1.1267 0-1.7749 0.89517-0.64051 0.88745-0.64051 2.454t0.64051 2.4617q0.64822 0.88746 1.7749 0.88746 1.1267 0 1.7672-0.88746 0.64822-0.89517 0.64822-2.4617z" style=""/>
   <path id="path45" d="m209.25 169.76v8.9594h1.883q2.3846 0 3.4881-1.0804 1.1112-1.0804 1.1112-3.4109 0-2.3151-1.1112-3.3878-1.1035-1.0804-3.4881-1.0804zm-1.5588-1.281h3.2026q3.3492 0 4.9157 1.3968 1.5666 1.389 1.5666 4.3524 0 2.9788-1.5743 4.3755-1.5743 1.3968-4.908 1.3968h-3.2026z" style=""/>
   <path id="path47" d="m223.72 175.66q-1.7209 0-2.3846 0.39357t-0.66366 1.3428q0 0.75626 0.49388 1.2038 0.50161 0.43987 1.3582 0.43987 1.1807 0 1.8907-0.83344 0.71768-0.84115 0.71768-2.2302v-0.3164zm2.8321-0.58649v4.9312h-1.4199v-1.3119q-0.48617 0.78713-1.2116 1.1653-0.7254 0.37041-1.7749 0.37041-1.3273 0-2.1144-0.74083-0.77942-0.74855-0.77942-1.9987 0-1.4585 0.97234-2.1993 0.98006-0.74083 2.917-0.74083h1.991v-0.13891q0-0.98006-0.64823-1.5125-0.64051-0.54019-1.8058-0.54019-0.74084 0-1.4431 0.17749-0.70225 0.17749-1.3505 0.53247v-1.3119q0.77942-0.30097 1.5125-0.44759 0.73312-0.15434 1.4276-0.15434 1.8752 0 2.8013 0.97234t0.92604 2.9479z" style=""/>
   <path id="path49" d="m230.89 168.9v2.454h2.9247v1.1035h-2.9247v4.6919q0 1.0572 0.28552 1.3582 0.29325 0.30096 1.1807 0.30096h1.4585v1.1884h-1.4585q-1.6437 0-2.2688-0.60964-0.62508-0.61736-0.62508-2.2379v-4.6919h-1.0418v-1.1035h1.0418v-2.454z" style=""/>
   <path id="path51" d="m239.62 175.66q-1.7209 0-2.3846 0.39357t-0.66366 1.3428q0 0.75626 0.49389 1.2038 0.5016 0.43987 1.3582 0.43987 1.1807 0 1.8907-0.83344 0.71768-0.84115 0.71768-2.2302v-0.3164zm2.8321-0.58649v4.9312h-1.4199v-1.3119q-0.48617 0.78713-1.2116 1.1653-0.72539 0.37041-1.7749 0.37041-1.3273 0-2.1145-0.74083-0.77942-0.74855-0.77942-1.9987 0-1.4585 0.97234-2.1993 0.98006-0.74083 2.917-0.74083h1.991v-0.13891q0-0.98006-0.64823-1.5125-0.64051-0.54019-1.8058-0.54019-0.74083 0-1.4431 0.17749t-1.3505 0.53247v-1.3119q0.77941-0.30097 1.5125-0.44759 0.73311-0.15434 1.4276-0.15434 1.8752 0 2.8013 0.97234t0.92604 2.9479z" style=""/>
  </g>
  <g id="text14" aria-label="T">
   <path id="path54" d="m335.12 113.95h9.7466v1.3119h-4.09v10.21h-1.5666v-10.21h-4.09z" style=""/>
  </g>
  <path id="rect16" d="m360 100h40v40h-40z" fill="#fff" stroke="#000" stroke-width="2"/>
  <g id="text20" aria-label="T">
   <path id="path58" d="m375.12 113.95h9.7466v1.3119h-4.09v10.21h-1.5666v-10.21h-4.09z" style=""/>
  </g>
  <path id="rect22" d="m400 100h40v40h-40z" fill="#fff" stroke="#000" stroke-width="2"/>
  <g id="text26" aria-label="T">
   <path id="path63" d="m415.12 113.95h9.7466v1.3119h-4.09v10.21h-1.5666v-10.21h-4.09z" style=""/>
  </g>
  <path id="rect28" d="m440 100h40v40h-40z" fill="#fff" stroke="#000" stroke-width="2"/>
  <g id="text32" aria-label="T">
   <path id="path67" d="m455.12 113.95h9.7466v1.3119h-4.09v10.21h-1.5666v-10.21h-4.09z" style=""/>
  </g>
  <path id="rect34" d="m480 100h40v40h-40z" fill="#fff" stroke="#000" stroke-width="2"/>
  <g id="text38" aria-label="T">
   <path id="path71" d="m495.12 113.95h9.7466v1.3119h-4.09v10.21h-1.5666v-10.21h-4.09z" style=""/>
  </g>
  <path id="rect40" d="m520 100h40v40h-40z" fill="#fff" stroke="#000" stroke-width="2"/>
  <path id="rect42" d="m560 100h40v40h-40z" fill="#fff" stroke="#000" stroke-width="2"/>
  <path id="rect44" d="m600 100h40v40h-40z" fill="#fff" stroke="#000" stroke-width="2"/>
  <path id="rect46" d="m640 100h40v40h-40z" fill="#fff" stroke="#000" stroke-width="2"/>
  <g id="text50" aria-label="size">
   <path id="path78" d="m411.67 181.61v1.3428q-0.60193-0.30868-1.2502-0.46302-0.64822-0.15434-1.3428-0.15434-1.0572 0-1.5897 0.32411-0.52476 0.32411-0.52476 0.97234 0 0.49389 0.37813 0.77942 0.37814 0.27781 1.5202 0.53247l0.48617 0.10804q1.5125 0.32411 2.1453 0.91832 0.64051 0.58649 0.64051 1.6437 0 1.2038-0.9569 1.9061-0.94919 0.70224-2.6161 0.70224-0.69453 0-1.4508-0.1389-0.74855-0.13119-1.582-0.40129v-1.4662q0.78713 0.40901 1.5511 0.61736 0.76399 0.20065 1.5125 0.20065 1.0032 0 1.5434-0.33955 0.54019-0.34727 0.54019-0.97234 0-0.57878-0.39356-0.88746-0.38585-0.30868-1.7055-0.59421l-0.49389-0.11575q-1.3196-0.27781-1.9061-0.84887-0.58649-0.57877-0.58649-1.582 0-1.2193 0.8643-1.883t2.454-0.66366q0.78714 0 1.4817 0.11575 0.69453 0.11576 1.281 0.34727z" style=""/>
   <path id="path80" d="m414.41 181.36h1.4199v8.643h-1.4199zm0-3.3646h1.4199v1.7981h-1.4199z" style=""/>
   <path id="path82" d="m418.17 181.36h6.7446v1.2964l-5.3402 6.2122h5.3402v1.1344h-6.9376v-1.2964l5.3402-6.2122h-5.1472z" style=""/>
   <path id="path84" d="m434.48 185.32v0.69453h-6.5286q0.0926 1.4662 0.87974 2.2379 0.79485 0.76398 2.2071 0.76398 0.818 0 1.582-0.20064 0.7717-0.20064 1.528-0.60193v1.3428q-0.76398 0.32412-1.5665 0.49389-0.80257 0.16977-1.6283 0.16977-2.0682 0-3.2797-1.2038-1.2038-1.2038-1.2038-3.2566 0-2.1222 1.1421-3.3646 1.1498-1.2502 3.0945-1.2502 1.744 0 2.755 1.1267 1.0186 1.119 1.0186 3.0482zm-1.4199-0.41671q-0.0154-1.1653-0.65595-1.8598-0.63279-0.69453-1.6823-0.69453-1.1884 0-1.9061 0.67138-0.70996 0.67138-0.818 1.8907z" style=""/>
  </g>
  <g id="text54" aria-label="capacity">
   <path id="path87" d="m474.33 51.689v1.3273q-0.60193-0.33183-1.2116-0.49389-0.60193-0.16977-1.2193-0.16977-1.3813 0-2.1453 0.87974-0.76398 0.87202-0.76398 2.454 0 1.582 0.76398 2.4617 0.76398 0.87202 2.1453 0.87202 0.61736 0 1.2193-0.16206 0.60964-0.16977 1.2116-0.5016v1.3119q-0.59421 0.27781-1.2347 0.41672-0.6328 0.13891-1.3505 0.13891-1.9524 0-3.1022-1.227t-1.1498-3.3106q0-2.1145 1.1576-3.326 1.1653-1.2116 3.1871-1.2116 0.65594 0 1.281 0.13891 0.62507 0.13119 1.2116 0.40128z" style=""/>
   <path id="path89" d="m480.74 55.655q-1.7209 0-2.3846 0.39357-0.66367 0.39357-0.66367 1.3428 0 0.75626 0.49389 1.2038 0.50161 0.43987 1.3582 0.43987 1.1807 0 1.8907-0.83344 0.71768-0.84115 0.71768-2.2302v-0.3164zm2.8321-0.58649v4.9312h-1.4199v-1.3119q-0.48617 0.78713-1.2116 1.1653-0.7254 0.37042-1.7749 0.37042-1.3273 0-2.1145-0.74083-0.77941-0.74855-0.77941-1.9987 0-1.4585 0.97234-2.1993 0.98006-0.74083 2.917-0.74083h1.991v-0.1389q0-0.98006-0.64823-1.5125-0.64051-0.54019-1.8058-0.54019-0.74083 0-1.4431 0.17749-0.70225 0.17749-1.3505 0.53247v-1.3119q0.77942-0.30096 1.5125-0.44758 0.73312-0.15434 1.4276-0.15434 1.8752 0 2.8013 0.97234t0.92604 2.9479z" style=""/>
   <path id="path91" d="m487.88 58.704v4.5839h-1.4276v-11.93h1.4276v1.3119q0.44759-0.7717 1.1267-1.1421 0.68682-0.37813 1.636-0.37813 1.5743 0 2.5543 1.2502 0.98778 1.2502 0.98778 3.2874t-0.98778 3.2874q-0.98006 1.2502-2.5543 1.2502-0.94919 0-1.636-0.37042-0.67909-0.37813-1.1267-1.1498zm4.8308-3.0173q0-1.5665-0.64823-2.454-0.64051-0.89517-1.7672-0.89517t-1.7749 0.89517q-0.64051 0.88745-0.64051 2.454 0 1.5666 0.64051 2.4617 0.64823 0.88745 1.7749 0.88745t1.7672-0.88745q0.64823-0.89517 0.64823-2.4617z" style=""/>
   <path id="path93" d="m500.46 55.655q-1.7209 0-2.3846 0.39357t-0.66366 1.3428q0 0.75626 0.49388 1.2038 0.50161 0.43987 1.3582 0.43987 1.1807 0 1.8907-0.83344 0.71768-0.84115 0.71768-2.2302v-0.3164zm2.8321-0.58649v4.9312h-1.4199v-1.3119q-0.48617 0.78713-1.2116 1.1653-0.7254 0.37042-1.7749 0.37042-1.3273 0-2.1144-0.74083-0.77942-0.74855-0.77942-1.9987 0-1.4585 0.97234-2.1993 0.98006-0.74083 2.917-0.74083h1.991v-0.1389q0-0.98006-0.64823-1.5125-0.64051-0.54019-1.8058-0.54019-0.74084 0-1.4431 0.17749-0.70225 0.17749-1.3505 0.53247v-1.3119q0.77942-0.30096 1.5125-0.44758 0.73312-0.15434 1.4276-0.15434 1.8752 0 2.8013 0.97234t0.92604 2.9479z" style=""/>
   <path id="path95" d="m512.45 51.689v1.3273q-0.60193-0.33183-1.2116-0.49389-0.60193-0.16977-1.2193-0.16977-1.3813 0-2.1453 0.87974-0.76398 0.87202-0.76398 2.454 0 1.582 0.76398 2.4617 0.76398 0.87202 2.1453 0.87202 0.61736 0 1.2193-0.16206 0.60964-0.16977 1.2116-0.5016v1.3119q-0.59421 0.27781-1.2347 0.41672-0.6328 0.13891-1.3505 0.13891-1.9524 0-3.1022-1.227-1.1498-1.227-1.1498-3.3106 0-2.1145 1.1576-3.326 1.1653-1.2116 3.1871-1.2116 0.65594 0 1.281 0.13891 0.62508 0.13119 1.2116 0.40128z" style=""/>
   <path id="path97" d="m514.93 51.357h1.4199v8.643h-1.4199zm0-3.3646h1.4199v1.7981h-1.4199z" style=""/>
   <path id="path99" d="m520.72 48.903v2.454h2.9247v1.1035h-2.9247v4.6919q0 1.0572 0.28553 1.3582 0.29325 0.30096 1.1807 0.30096h1.4585v1.1884h-1.4585q-1.6437 0-2.2688-0.60964-0.62508-0.61736-0.62508-2.2379v-4.6919h-1.0418v-1.1035h1.0418v-2.454z" style=""/>
   <path id="path101" d="m529.12 60.803q-0.60193 1.5434-1.173 2.0141-0.57106 0.47074-1.528 0.47074h-1.1344v-1.1884h0.83344q0.58649 0 0.9106-0.27781 0.32412-0.27781 0.71769-1.3119l0.25466-0.64823-3.4958-8.5041h1.5048l2.701 6.7601 2.701-6.7601h1.5048z" style=""/>
  </g>
  <g id="g60" stroke="#000" stroke-width="2">
   <path id="line56" d="m240 120h70.264" fill="none"/>
   <path id="polygon58" d="m310.26 120-2.5-5 10 5-10 5z" fill-rule="evenodd"/>
  </g>
  <path id="path62" d="m420 170c0-40-100 20-100-20" fill="none" stroke="#000" stroke-width="2"/>
  <path id="path64" d="m420 170c0-40 100 20 100-20" fill="none" stroke="#000" stroke-width="2"/>
  <path id="path66" d="m500 70c0 40 180-20 180 20" fill="none" stroke="#000" stroke-width="2"/>
  <path id="path68" d="m500 70c0 40-180-20-180 20" fill="none" stroke="#000" stroke-width="2"/>
 </g>
</svg>
