<?xml version="1.0" encoding="UTF-8"?>
<svg id="svg101" width="31.925cm" height="11.4cm" version="1.1" viewBox="140 99 619.55 213.74" xmlns="http://www.w3.org/2000/svg" xmlns:cc="http://creativecommons.org/ns#" xmlns:dc="http://purl.org/dc/elements/1.1/" xmlns:rdf="http://www.w3.org/1999/02/22-rdf-syntax-ns#">
 <metadata id="metadata105">
  <rdf:RDF>
   <cc:Work rdf:about="">
    <dc:format>image/svg+xml</dc:format>
    <dc:type rdf:resource="http://purl.org/dc/dcmitype/StillImage"/>
   </cc:Work>
  </rdf:RDF>
 </metadata>
 <g id="Háttér" transform="translate(-1.4459 -3.7405)">
  <path id="rect4" d="m160 100h40v40h-40z" fill="#fff" stroke="#000" stroke-width="2"/>
  <path id="rect6" d="m280 100h40v40h-40z" fill="#fff" stroke="#000" stroke-width="2"/>
  <g id="text10" aria-label="pData">
   <path id="path866" d="m158.97 178.7v4.5839h-1.4276v-11.93h1.4276v1.3119q0.44758-0.7717 1.1267-1.1421 0.68681-0.37813 1.636-0.37813 1.5743 0 2.5543 1.2502 0.98778 1.2502 0.98778 3.2874 0 2.0373-0.98778 3.2874-0.98005 1.2502-2.5543 1.2502-0.94919 0-1.636-0.37041-0.6791-0.37814-1.1267-1.1498zm4.8308-3.0174q0-1.5666-0.64822-2.454-0.64051-0.89517-1.7672-0.89517-1.1267 0-1.7749 0.89517-0.64051 0.88745-0.64051 2.454t0.64051 2.4617q0.64822 0.88746 1.7749 0.88746 1.1267 0 1.7672-0.88746 0.64822-0.89517 0.64822-2.4617z" style=""/>
   <path id="path868" d="m169.25 169.76v8.9594h1.883q2.3846 0 3.4881-1.0804 1.1112-1.0804 1.1112-3.4109 0-2.3151-1.1112-3.3878-1.1035-1.0804-3.4881-1.0804zm-1.5588-1.281h3.2026q3.3492 0 4.9157 1.3968 1.5666 1.389 1.5666 4.3524 0 2.9788-1.5743 4.3755-1.5743 1.3968-4.908 1.3968h-3.2026z" style=""/>
   <path id="path870" d="m183.72 175.66q-1.7209 0-2.3846 0.39357t-0.66366 1.3428q0 0.75626 0.49388 1.2038 0.50161 0.43987 1.3582 0.43987 1.1807 0 1.8907-0.83344 0.71768-0.84115 0.71768-2.2302v-0.3164zm2.8321-0.58649v4.9312h-1.4199v-1.3119q-0.48617 0.78713-1.2116 1.1653-0.7254 0.37041-1.7749 0.37041-1.3273 0-2.1144-0.74083-0.77942-0.74855-0.77942-1.9987 0-1.4585 0.97234-2.1993 0.98006-0.74083 2.917-0.74083h1.991v-0.13891q0-0.98006-0.64823-1.5125-0.64051-0.54019-1.8058-0.54019-0.74084 0-1.4431 0.17749-0.70225 0.17749-1.3505 0.53247v-1.3119q0.77942-0.30097 1.5125-0.44759 0.73312-0.15434 1.4276-0.15434 1.8752 0 2.8013 0.97234t0.92604 2.9479z" style=""/>
   <path id="path872" d="m190.89 168.9v2.454h2.9247v1.1035h-2.9247v4.6919q0 1.0572 0.28552 1.3582 0.29325 0.30096 1.1807 0.30096h1.4585v1.1884h-1.4585q-1.6437 0-2.2688-0.60964-0.62508-0.61736-0.62508-2.2379v-4.6919h-1.0418v-1.1035h1.0418v-2.454z" style=""/>
   <path id="path874" d="m199.62 175.66q-1.7209 0-2.3846 0.39357t-0.66366 1.3428q0 0.75626 0.49389 1.2038 0.5016 0.43987 1.3582 0.43987 1.1807 0 1.8907-0.83344 0.71768-0.84115 0.71768-2.2302v-0.3164zm2.8321-0.58649v4.9312h-1.4199v-1.3119q-0.48617 0.78713-1.2116 1.1653-0.72539 0.37041-1.7749 0.37041-1.3273 0-2.1145-0.74083-0.77942-0.74855-0.77942-1.9987 0-1.4585 0.97234-2.1993 0.98006-0.74083 2.917-0.74083h1.991v-0.13891q0-0.98006-0.64823-1.5125-0.64051-0.54019-1.8058-0.54019-0.74083 0-1.4431 0.17749t-1.3505 0.53247v-1.3119q0.77941-0.30097 1.5125-0.44759 0.73311-0.15434 1.4276-0.15434 1.8752 0 2.8013 0.97234t0.92604 2.9479z" style=""/>
  </g>
  <path id="rect12" d="m320 100h40v40h-40z" fill="#fff" stroke="#000" stroke-width="2"/>
  <path id="rect14" d="m360 100h40v40h-40z" fill="#fff" stroke="#000" stroke-width="2"/>
  <path id="rect16" d="m400 100h40v40h-40z" fill="#fff" stroke="#000" stroke-width="2"/>
  <g id="text20" aria-label="T">
   <path id="path880" d="m415.12 113.95h9.7466v1.3119h-4.09v10.21h-1.5666v-10.21h-4.09z" style=""/>
  </g>
  <path id="rect22" d="m440 100h40v40h-40z" fill="#fff" stroke="#000" stroke-width="2"/>
  <g id="text26" aria-label="T">
   <path id="path884" d="m455.12 113.95h9.7466v1.3119h-4.09v10.21h-1.5666v-10.21h-4.09z" style=""/>
  </g>
  <path id="rect28" d="m480 100h40v40h-40z" fill="#fff" stroke="#000" stroke-width="2"/>
  <path id="rect30" d="m520 100h40v40h-40z" fill="#fff" stroke="#000" stroke-width="2"/>
  <path id="rect32" d="m560 100h40v40h-40z" fill="#fff" stroke="#000" stroke-width="2"/>
  <path id="rect34" d="m600 100h40v40h-40z" fill="#fff" stroke="#000" stroke-width="2"/>
  <g id="g40" stroke="#000" stroke-width="2">
   <path id="line36" d="m200 120h70.264" fill="none"/>
   <path id="polygon38" d="m270.26 120-2.5-5 10 5-10 5z" fill-rule="evenodd"/>
  </g>
  <path id="rect42" d="m160 240h40v40h-40z" fill="#fff" stroke="#000" stroke-width="2"/>
  <path id="rect44" d="m280 240h40v40h-40z" fill="#fff" stroke="#000" stroke-width="2"/>
  <g id="text48" aria-label="newPData">
   <path id="path895" d="m148.68 314.78v5.2167h-1.4199v-5.1704q0-1.227-0.47846-1.8366-0.47845-0.60964-1.4354-0.60964-1.1498 0-1.8135 0.73311-0.66366 0.73312-0.66366 1.9987v4.8849h-1.4276v-8.643h1.4276v1.3428q0.50932-0.77942 1.1961-1.1653 0.69453-0.38585 1.5974-0.38585 1.4894 0 2.2534 0.92604 0.76398 0.91832 0.76398 2.7087z" style=""/>
   <path id="path897" d="m158.92 315.32v0.69453h-6.5286q0.0926 1.4662 0.87974 2.2379 0.79485 0.76398 2.2071 0.76398 0.818 0 1.582-0.20064 0.7717-0.20064 1.528-0.60193v1.3428q-0.76398 0.32412-1.5666 0.49389-0.80256 0.16977-1.6283 0.16977-2.0682 0-3.2797-1.2038-1.2038-1.2038-1.2038-3.2566 0-2.1222 1.1421-3.3646 1.1498-1.2502 3.0945-1.2502 1.744 0 2.755 1.1267 1.0186 1.119 1.0186 3.0482zm-1.4199-0.41671q-0.0154-1.1653-0.65595-1.8598-0.63279-0.69453-1.6823-0.69453-1.1884 0-1.9061 0.67138-0.70996 0.67138-0.818 1.8907z" style=""/>
   <path id="path899" d="m160.43 311.36h1.4199l1.7749 6.7446 1.7672-6.7446h1.6746l1.7749 6.7446 1.7672-6.7446h1.4199l-2.2611 8.643h-1.6746l-1.8598-7.0842-1.8675 7.0842h-1.6746z" style=""/>
   <path id="path901" d="m175.81 309.76v4.3292h1.9601q1.0881 0 1.6823-0.56334t0.59421-1.6051q0-1.0341-0.59421-1.5974t-1.6823-0.56334zm-1.5588-1.281h3.519q1.937 0 2.9247 0.87974 0.99549 0.87202 0.99549 2.562 0 1.7054-0.99549 2.5775-0.98778 0.87202-2.9247 0.87202h-1.9601v4.6302h-1.5588z" style=""/>
   <path id="path903" d="m185.35 309.76v8.9594h1.8829q2.3846 0 3.4881-1.0804 1.1112-1.0804 1.1112-3.4109 0-2.3151-1.1112-3.3878-1.1035-1.0804-3.4881-1.0804zm-1.5588-1.281h3.2026q3.3492 0 4.9157 1.3968 1.5666 1.389 1.5666 4.3524 0 2.9788-1.5743 4.3755-1.5743 1.3968-4.908 1.3968h-3.2026z" style=""/>
   <path id="path905" d="m199.82 315.66q-1.7209 0-2.3846 0.39357-0.66367 0.39357-0.66367 1.3428 0 0.75626 0.49389 1.2038 0.50161 0.43987 1.3582 0.43987 1.1807 0 1.8907-0.83344 0.71768-0.84115 0.71768-2.2302v-0.3164zm2.8321-0.58649v4.9312h-1.4199v-1.3119q-0.48617 0.78713-1.2116 1.1653-0.7254 0.37041-1.7749 0.37041-1.3273 0-2.1145-0.74083-0.77941-0.74855-0.77941-1.9987 0-1.4585 0.97234-2.1993 0.98006-0.74083 2.917-0.74083h1.991v-0.13891q0-0.98006-0.64823-1.5125-0.64051-0.54019-1.8058-0.54019-0.74083 0-1.4431 0.17749-0.70224 0.17749-1.3505 0.53247v-1.3119q0.77942-0.30097 1.5125-0.44759 0.73312-0.15434 1.4276-0.15434 1.8752 0 2.8013 0.97234t0.92604 2.9479z" style=""/>
   <path id="path907" d="m206.99 308.9v2.454h2.9247v1.1035h-2.9247v4.6919q0 1.0572 0.28553 1.3582 0.29324 0.30096 1.1807 0.30096h1.4585v1.1884h-1.4585q-1.6437 0-2.2688-0.60964-0.62507-0.61736-0.62507-2.2379v-4.6919h-1.0418v-1.1035h1.0418v-2.454z" style=""/>
   <path id="path909" d="m215.71 315.66q-1.7209 0-2.3846 0.39357t-0.66366 1.3428q0 0.75626 0.49389 1.2038 0.5016 0.43987 1.3582 0.43987 1.1807 0 1.8907-0.83344 0.71768-0.84115 0.71768-2.2302v-0.3164zm2.8321-0.58649v4.9312h-1.4199v-1.3119q-0.48617 0.78713-1.2116 1.1653-0.7254 0.37041-1.7749 0.37041-1.3273 0-2.1145-0.74083-0.77942-0.74855-0.77942-1.9987 0-1.4585 0.97235-2.1993 0.98005-0.74083 2.917-0.74083h1.991v-0.13891q0-0.98006-0.64822-1.5125-0.64051-0.54019-1.8058-0.54019-0.74083 0-1.4431 0.17749-0.70224 0.17749-1.3505 0.53247v-1.3119q0.77941-0.30097 1.5125-0.44759 0.73311-0.15434 1.4276-0.15434 1.8752 0 2.8013 0.97234t0.92604 2.9479z" style=""/>
  </g>
  <path id="rect50" d="m320 240h40v40h-40z" fill="#fff" stroke="#000" stroke-width="2"/>
  <g id="text54" aria-label="T">
   <path id="path913" d="m335.12 113.95h9.7466v1.3119h-4.09v10.21h-1.5666v-10.21h-4.09z" style=""/>
  </g>
  <path id="rect56" d="m360 240h40v40h-40z" fill="#fff" stroke="#000" stroke-width="2"/>
  <path id="rect58" d="m400 240h40v40h-40z" fill="#fff" stroke="#000" stroke-width="2"/>
  <path id="rect60" d="m440 240h40v40h-40z" fill="#fff" stroke="#000" stroke-width="2"/>
  <path id="rect62" d="m480 240h40v40h-40z" fill="#fff" stroke="#000" stroke-width="2"/>
  <path id="rect64" d="m520 240h40v40h-40z" fill="#fff" stroke="#000" stroke-width="2"/>
  <path id="rect66" d="m560 240h40v40h-40z" fill="#fff" stroke="#000" stroke-width="2"/>
  <path id="rect68" d="m600 240h40v40h-40z" fill="#fff" stroke="#000" stroke-width="2"/>
  <g id="g74" stroke="#000" stroke-width="2">
   <path id="line70" d="m200 260h70.264" fill="none"/>
   <path id="polygon72" d="m270.26 260-2.5-5 10 5-10 5z" fill-rule="evenodd"/>
  </g>
  <path id="rect76" d="m680 240h40v40h-40z" fill="#fff" stroke="#000" stroke-width="2"/>
  <path id="rect78" d="m640 240h40v40h-40z" fill="#fff" stroke="#000" stroke-width="2"/>
  <path id="rect80" d="m720 240h40v40h-40z" fill="#fff" stroke="#000" stroke-width="2"/>
  <g id="text84" aria-label="T">
   <path id="path928" d="m375.12 253.95h9.7466v1.3119h-4.09v10.21h-1.5666v-10.21h-4.09z" style=""/>
  </g>
  <g id="g90" fill="none" stroke="#f00" stroke-width="2">
   <path id="line86" d="m380 220v-55.528" stroke-dasharray="5"/>
   <path id="polyline88" d="m385 172.24-5-10-5 10"/>
  </g>
  <g id="text94" fill="#f00" aria-label=":-(">
   <path id="path933" d="m391.85 193.51h1.6283v1.9601h-1.6283zm0-6.2122h1.6283v1.9601h-1.6283z" style=""/>
   <path id="path935" d="m396.11 190.51h4.1595v1.2656h-4.1595z" style=""/>
   <path id="path937" d="m405.95 183.48q-1.0341 1.7749-1.5357 3.5112-0.5016 1.7363-0.5016 3.519t0.5016 3.5344q0.50932 1.744 1.5357 3.5112h-1.2347q-1.1575-1.8135-1.7363-3.5652-0.57106-1.7518-0.57106-3.4804 0-1.7209 0.57106-3.4649t1.7363-3.5652z" style=""/>
  </g>
  <g id="text98" aria-label="T">
   <path id="path940" d="m295.12 113.95h9.7466v1.3119h-4.09v10.21h-1.5666v-10.21h-4.09z" style=""/>
  </g>
 </g>
</svg>
