<?xml version="1.0" encoding="UTF-8"?>
<svg id="svg101" width="26.948cm" height="8.448cm" version="1.1" viewBox="239 55 522 155.82" xmlns="http://www.w3.org/2000/svg" xmlns:cc="http://creativecommons.org/ns#" xmlns:dc="http://purl.org/dc/elements/1.1/" xmlns:rdf="http://www.w3.org/1999/02/22-rdf-syntax-ns#">
 <metadata id="metadata105">
  <rdf:RDF>
   <cc:Work rdf:about="">
    <dc:format>image/svg+xml</dc:format>
    <dc:type rdf:resource="http://purl.org/dc/dcmitype/StillImage"/>
   </cc:Work>
  </rdf:RDF>
 </metadata>
 <g id="Háttér" transform="translate(0 -6.2707)">
  <path id="rect4" d="m320 180h40v40h-40z" fill="#fff" stroke="#000" stroke-width="2"/>
  <path id="rect6" d="m320 100h40v40h-40z" fill="#fff" stroke="#000" stroke-width="2"/>
  <g id="text10" aria-label="visszaadott cím">
   <path id="path58" d="m370.47 196.83h1.5048l2.701 7.254 2.7009-7.254h1.5048l-3.2411 8.643h-1.9292z" style=""/>
   <path id="path60" d="m380.84 196.83h1.4199v8.643h-1.4199zm0-3.3646h1.4199v1.7981h-1.4199z" style=""/>
   <path id="path62" d="m390.74 197.09v1.3428q-0.60193-0.30868-1.2502-0.46302-0.64823-0.15434-1.3428-0.15434-1.0572 0-1.5897 0.32412-0.52476 0.32411-0.52476 0.97234 0 0.49388 0.37814 0.77941 0.37813 0.27782 1.5202 0.53248l0.48617 0.10803q1.5125 0.32412 2.1453 0.91833 0.64051 0.58649 0.64051 1.6437 0 1.2038-0.95691 1.9061-0.94919 0.70225-2.6161 0.70225-0.69453 0-1.4508-0.13891-0.74855-0.13119-1.582-0.40128v-1.4662q0.78714 0.409 1.5511 0.61736 0.76398 0.20064 1.5125 0.20064 1.0032 0 1.5434-0.33955 0.54019-0.34726 0.54019-0.97234 0-0.57877-0.39357-0.88745-0.38585-0.30868-1.7055-0.59421l-0.49388-0.11575q-1.3196-0.27782-1.9061-0.84887-0.58649-0.57878-0.58649-1.582 0-1.2193 0.8643-1.8829t2.454-0.66366q0.78714 0 1.4817 0.11575 0.69453 0.11576 1.281 0.34727z" style=""/>
   <path id="path64" d="m398.98 197.09v1.3428q-0.60193-0.30868-1.2502-0.46302-0.64822-0.15434-1.3428-0.15434-1.0572 0-1.5897 0.32412-0.52476 0.32411-0.52476 0.97234 0 0.49388 0.37813 0.77941 0.37814 0.27782 1.5202 0.53248l0.48617 0.10803q1.5125 0.32412 2.1453 0.91833 0.64051 0.58649 0.64051 1.6437 0 1.2038-0.95691 1.9061-0.94919 0.70225-2.6161 0.70225-0.69453 0-1.4508-0.13891-0.74854-0.13119-1.582-0.40128v-1.4662q0.78713 0.409 1.5511 0.61736 0.76398 0.20064 1.5125 0.20064 1.0032 0 1.5434-0.33955 0.54019-0.34726 0.54019-0.97234 0-0.57877-0.39357-0.88745-0.38585-0.30868-1.7055-0.59421l-0.49388-0.11575q-1.3196-0.27782-1.9061-0.84887-0.58649-0.57878-0.58649-1.582 0-1.2193 0.8643-1.8829t2.454-0.66366q0.78714 0 1.4817 0.11575 0.69453 0.11576 1.281 0.34727z" style=""/>
   <path id="path66" d="m401.09 196.83h6.7446v1.2965l-5.3402 6.2122h5.3402v1.1344h-6.9376v-1.2965l5.3402-6.2122h-5.1472z" style=""/>
   <path id="path68" d="m413.94 201.13q-1.7209 0-2.3846 0.39357-0.66367 0.39356-0.66367 1.3428 0 0.75627 0.49389 1.2038 0.50161 0.43987 1.3582 0.43987 1.1807 0 1.8907-0.83343 0.71768-0.84116 0.71768-2.2302v-0.3164zm2.8321-0.58649v4.9312h-1.4199v-1.3119q-0.48617 0.78713-1.2116 1.1653-0.7254 0.37042-1.7749 0.37042-1.3273 0-2.1145-0.74083-0.77941-0.74855-0.77941-1.9987 0-1.4585 0.97234-2.1994 0.98006-0.74083 2.917-0.74083h1.991v-0.1389q0-0.98006-0.64823-1.5125-0.64051-0.54019-1.8058-0.54019-0.74083 0-1.4431 0.17749-0.70224 0.17749-1.3505 0.53247v-1.3119q0.77942-0.30096 1.5125-0.44758 0.73312-0.15434 1.4276-0.15434 1.8752 0 2.8013 0.97234t0.92604 2.9479z" style=""/>
   <path id="path70" d="m423.63 201.13q-1.7209 0-2.3846 0.39357-0.66366 0.39356-0.66366 1.3428 0 0.75627 0.49389 1.2038 0.50161 0.43987 1.3582 0.43987 1.1807 0 1.8907-0.83343 0.71769-0.84116 0.71769-2.2302v-0.3164zm2.8321-0.58649v4.9312h-1.4199v-1.3119q-0.48618 0.78713-1.2116 1.1653-0.7254 0.37042-1.7749 0.37042-1.3273 0-2.1145-0.74083-0.77941-0.74855-0.77941-1.9987 0-1.4585 0.97234-2.1994 0.98006-0.74083 2.917-0.74083h1.991v-0.1389q0-0.98006-0.64823-1.5125-0.64051-0.54019-1.8058-0.54019-0.74083 0-1.4431 0.17749-0.70224 0.17749-1.3505 0.53247v-1.3119q0.77942-0.30096 1.5125-0.44758 0.73312-0.15434 1.4276-0.15434 1.8752 0 2.8013 0.97234t0.92604 2.9479z" style=""/>
   <path id="path72" d="m435.09 198.14v-4.6765h1.4199v12.008h-1.4199v-1.2965q-0.44758 0.7717-1.1344 1.1498-0.67909 0.37042-1.636 0.37042-1.5666 0-2.5543-1.2502-0.98006-1.2502-0.98006-3.2874 0-2.0373 0.98006-3.2874 0.98777-1.2502 2.5543-1.2502 0.95691 0 1.636 0.37813 0.68682 0.37041 1.1344 1.1421zm-4.8386 3.0174q0 1.5666 0.64051 2.4617 0.64823 0.88745 1.7749 0.88745t1.7749-0.88745q0.64822-0.89517 0.64822-2.4617t-0.64822-2.454q-0.64823-0.89517-1.7749-0.89517t-1.7749 0.89517q-0.64051 0.88746-0.64051 2.454z" style=""/>
   <path id="path74" d="m442.78 197.83q-1.1421 0-1.8058 0.89517-0.66366 0.88745-0.66366 2.4386 0 1.5511 0.65594 2.4463 0.66366 0.88746 1.8135 0.88746 1.1344 0 1.7981-0.89517t0.66366-2.4386q0-1.5357-0.66366-2.4309-0.66366-0.90288-1.7981-0.90288zm0-1.2038q1.8521 0 2.9093 1.2038t1.0572 3.3337q0 2.1222-1.0572 3.3337-1.0572 1.2038-2.9093 1.2038-1.8598 0-2.917-1.2038-1.0495-1.2116-1.0495-3.3337 0-2.1299 1.0495-3.3337 1.0572-1.2038 2.917-1.2038z" style=""/>
   <path id="path76" d="m450.5 194.38v2.454h2.9247v1.1035h-2.9247v4.6919q0 1.0572 0.28552 1.3582 0.29325 0.30096 1.1807 0.30096h1.4585v1.1884h-1.4585q-1.6437 0-2.2688-0.60965-0.62508-0.61736-0.62508-2.2379v-4.6919h-1.0418v-1.1035h1.0418v-2.454z" style=""/>
   <path id="path78" d="m456.7 194.38v2.454h2.9247v1.1035h-2.9247v4.6919q0 1.0572 0.28552 1.3582 0.29325 0.30096 1.1807 0.30096h1.4585v1.1884h-1.4585q-1.6437 0-2.2688-0.60965-0.62508-0.61736-0.62508-2.2379v-4.6919h-1.0418v-1.1035h1.0418v-2.454z" style=""/>
   <path id="path80" d="m472.75 197.16v1.3273q-0.60193-0.33183-1.2116-0.49389-0.60193-0.16977-1.2193-0.16977-1.3813 0-2.1453 0.87973-0.76398 0.87202-0.76398 2.454 0 1.582 0.76398 2.4617 0.76398 0.87202 2.1453 0.87202 0.61736 0 1.2193-0.16206 0.60964-0.16977 1.2116-0.5016v1.3119q-0.59421 0.27781-1.2347 0.41671-0.6328 0.13891-1.3505 0.13891-1.9524 0-3.1022-1.227t-1.1498-3.3106q0-2.1145 1.1576-3.326 1.1653-1.2116 3.1871-1.2116 0.65594 0 1.281 0.1389 0.62507 0.13119 1.2116 0.40129z" style=""/>
   <path id="path83" d="m477.02 192.83h1.5357l-2.5157 2.9016h-1.1807zm-1.7826 3.9974h1.4199v8.643h-1.4199zm0.70996-0.20835z" style=""/>
   <path id="path85" d="m486.35 198.49q0.53247-0.95691 1.2733-1.4122 0.74084-0.4553 1.744-0.4553 1.3505 0 2.0836 0.94919 0.73312 0.94147 0.73312 2.6855v5.2167h-1.4276v-5.1704q0-1.2424-0.43987-1.8444-0.43986-0.60193-1.3428-0.60193-1.1035 0-1.744 0.73312-0.64051 0.73311-0.64051 1.9987v4.8849h-1.4276v-5.1704q0-1.2502-0.43987-1.8444-0.43986-0.60193-1.3582-0.60193-1.0881 0-1.7286 0.74084-0.64051 0.73311-0.64051 1.991v4.8849h-1.4276v-8.643h1.4276v1.3428q0.48617-0.79485 1.1653-1.173 0.6791-0.37813 1.6128-0.37813 0.94148 0 1.5974 0.47845 0.66366 0.47845 0.98006 1.3891z" style=""/>
  </g>
  <g id="text14" aria-label="0">
   <path id="path88" d="m326.87 130q-0.68792 0-1.0363 0.6791-0.34395 0.67468-0.34395 2.0329 0 1.3538 0.34395 2.0329 0.34837 0.67469 1.0363 0.67469 0.69233 0 1.0363-0.67469 0.34837-0.6791 0.34837-2.0329 0-1.3582-0.34837-2.0329-0.34395-0.6791-1.0363-0.6791zm0-0.70556q1.1068 0 1.6889 0.87754 0.5865 0.87312 0.5865 2.54 0 1.6625-0.5865 2.54-0.58208 0.87312-1.6889 0.87312t-1.6933-0.87312q-0.58209-0.87754-0.58209-2.54 0-1.6669 0.58209-2.54 0.58649-0.87754 1.6933-0.87754z" style=""/>
  </g>
  <path id="rect16" d="m360 100h40v40h-40z" fill="#fff" stroke="#000" stroke-width="2"/>
  <path id="rect18" d="m400 100h40v40h-40z" fill="#fff" stroke="#000" stroke-width="2"/>
  <path id="rect20" d="m440 100h40v40h-40z" fill="#fff" stroke="#000" stroke-width="2"/>
  <path id="rect22" d="m480 100h40v40h-40z" fill="#fff" stroke="#000" stroke-width="2"/>
  <path id="rect24" d="m520 100h40v40h-40z" fill="#fff" stroke="#000" stroke-width="2"/>
  <path id="rect26" d="m560 100h40v40h-40z" fill="#fff" stroke="#000" stroke-width="2"/>
  <path id="rect28" d="m600 100h40v40h-40z" fill="#fff" stroke="#000" stroke-width="2"/>
  <path id="rect30" d="m640 100h40v40h-40z" fill="#fff" stroke="#000" stroke-width="2"/>
  <g id="g36" fill="none" stroke="#000" stroke-width="2">
   <path id="line32" d="m340 180v-35.528"/>
   <path id="polyline34" d="m345 152.24-5-10-5 10"/>
  </g>
  <g id="text40" aria-label="1">
   <path id="path101" d="m365.12 135.25h1.4552v-5.0227l-1.5831 0.3175v-0.81138l1.5743-0.3175h0.89076v5.8341h1.4552v0.74965h-3.7924z" style=""/>
  </g>
  <g id="text44" aria-label="2">
   <path id="path104" d="m405.73 135.25h3.1088v0.74965h-4.1804v-0.74965q0.50712-0.52476 1.3802-1.4067 0.87754-0.88636 1.1024-1.1421 0.42774-0.48066 0.59531-0.81139 0.17198-0.33514 0.17198-0.65705 0-0.52476-0.37041-0.85549-0.36601-0.33072-0.95691-0.33072-0.41893 0-0.88636 0.14552-0.46302 0.14552-0.99218 0.44097v-0.89958q0.53798-0.21608 1.0054-0.32632 0.46743-0.11025 0.85549-0.11025 1.023 0 1.6316 0.51153 0.60855 0.51153 0.60855 1.367 0 0.4057-0.15434 0.77171-0.14993 0.36159-0.55122 0.85548-0.11024 0.12788-0.70114 0.74084-0.59091 0.60854-1.6669 1.7066z" style=""/>
  </g>
  <g id="text48" aria-label="3">
   <path id="path107" d="m447.66 132.45q0.63941 0.13671 0.9966 0.56886 0.36159 0.43215 0.36159 1.0672 0 0.97455-0.67027 1.5081-0.67028 0.53357-1.905 0.53357-0.41452 0-0.85549-0.0838-0.43656-0.0794-0.90399-0.24254v-0.85989q0.37041 0.21607 0.81139 0.32632 0.44097 0.11024 0.92163 0.11024 0.83784 0 1.2744-0.33073 0.44097-0.33073 0.44097-0.96132 0-0.58208-0.41011-0.9084-0.40569-0.33073-1.1333-0.33073h-0.7673v-0.73201h0.80257q0.65705 0 1.0054-0.26018 0.34837-0.26458 0.34837-0.75847 0-0.50712-0.3616-0.77611-0.35719-0.2734-1.0275-0.2734-0.36601 0-0.78493 0.0794-0.41893 0.0794-0.92164 0.24695v-0.79375q0.50712-0.14112 0.94809-0.21167 0.44539-0.0706 0.83785-0.0706 1.0142 0 1.6051 0.46302 0.5909 0.45861 0.5909 1.2436 0 0.5468-0.31309 0.92604-0.31309 0.37482-0.89076 0.52034z" style=""/>
  </g>
  <g id="text52" aria-label="4">
   <path id="path110" d="m487.41 130.19-2.249 3.5145h2.249zm-0.23371-0.77611h1.1201v4.2906h0.93927v0.74084h-0.93927v1.5522h-0.88636v-1.5522h-2.9722v-0.8599z" style=""/>
  </g>
  <g id="text56" aria-label="5">
   <path id="path113" d="m524.97 129.42h3.4969v0.74965h-2.6811v1.614q0.19402-0.0661 0.38805-0.097 0.19403-0.0353 0.38806-0.0353 1.1024 0 1.7462 0.60414 0.64382 0.60413 0.64382 1.636 0 1.0628-0.66146 1.6536-0.66146 0.58649-1.8653 0.58649-0.41452 0-0.84667-0.0705-0.42774-0.0706-0.88635-0.21167v-0.89517q0.39687 0.21607 0.8202 0.32191 0.42334 0.10583 0.89518 0.10583 0.76288 0 1.2083-0.40129 0.44538-0.40128 0.44538-1.0892 0-0.68791-0.44538-1.0892-0.44538-0.40128-1.2083-0.40128-0.35719 0-0.71438 0.0794-0.35277 0.0794-0.72319 0.24695z" style=""/>
  </g>
  <g id="text60" aria-label="6">
   <path id="path116" d="m566.98 132.35q-0.59972 0-0.9525 0.4101-0.34837 0.41011-0.34837 1.1245 0 0.70997 0.34837 1.1245 0.35278 0.41011 0.9525 0.41011t0.94809-0.41011q0.35278-0.41451 0.35278-1.1245 0-0.71437-0.35278-1.1245-0.34837-0.4101-0.94809-0.4101zm1.7683-2.7914v0.81139q-0.33514-0.15875-0.6791-0.24254-0.33955-0.0838-0.67468-0.0838-0.88195 0-1.3494 0.59531-0.46302 0.59531-0.52917 1.7992 0.26018-0.38364 0.65264-0.58649 0.39247-0.20726 0.86431-0.20726 0.99219 0 1.5654 0.60414 0.57767 0.59972 0.57767 1.636 0 1.0142-0.59972 1.6272t-1.5963 0.61295q-1.1421 0-1.7462-0.87312-0.60413-0.87754-0.60413-2.54 0-1.561 0.74083-2.4871 0.74084-0.93045 1.9888-0.93045 0.33514 0 0.67469 0.0661 0.34395 0.0661 0.71437 0.19844z" style=""/>
  </g>
  <g id="text64" aria-label="7">
   <path id="path119" d="m604.74 129.42h4.2333v0.37923l-2.3901 6.2045h-0.93045l2.249-5.8341h-3.1618z" style=""/>
  </g>
  <g id="text68" aria-label="8">
   <path id="path122" d="m646.87 132.87q-0.635 0-1.001 0.33955-0.3616 0.33954-0.3616 0.93486 0 0.59531 0.3616 0.93486 0.36601 0.33955 1.001 0.33955t1.001-0.33955q0.366-0.34396 0.366-0.93486 0-0.59532-0.366-0.93486-0.3616-0.33955-1.001-0.33955zm-0.89077-0.37924q-0.57326-0.14111-0.89517-0.53357-0.3175-0.39247-0.3175-0.95691 0-0.78934 0.56004-1.248 0.56444-0.45861 1.5434-0.45861 0.98337 0 1.5434 0.45861 0.56004 0.45862 0.56004 1.248 0 0.56444-0.32191 0.95691-0.3175 0.39246-0.88636 0.53357 0.64382 0.14993 1.001 0.58649 0.3616 0.43657 0.3616 1.0672 0 0.95691-0.5865 1.4684-0.58208 0.51153-1.6713 0.51153t-1.6757-0.51153q-0.58208-0.51152-0.58208-1.4684 0-0.63059 0.3616-1.0672 0.3616-0.43656 1.0054-0.58649zm-0.32631-1.4067q0 0.51153 0.3175 0.79816 0.32191 0.28663 0.89958 0.28663 0.57326 0 0.89517-0.28663 0.32632-0.28663 0.32632-0.79816t-0.32632-0.79816q-0.32191-0.28663-0.89517-0.28663-0.57767 0-0.89958 0.28663-0.3175 0.28663-0.3175 0.79816z" style=""/>
  </g>
  <path id="rect70" d="m680 100h40v40h-40z" fill="#fff" stroke="#000" stroke-width="2"/>
  <path id="rect72" d="m720 100h40v40h-40z" fill="#fff" stroke="#000" stroke-width="2"/>
  <g id="text76" aria-label="9">
   <path id="path127" d="m684.99 135.86v-0.81139q0.33514 0.15875 0.67909 0.24253 0.34396 0.0838 0.67469 0.0838 0.88195 0 1.345-0.5909 0.46743-0.59532 0.53357-1.8036-0.25576 0.37924-0.64823 0.58208-0.39246 0.20285-0.86871 0.20285-0.98778 0-1.5654-0.59531-0.57327-0.59972-0.57327-1.636 0-1.0142 0.59973-1.6272 0.59972-0.61295 1.5963-0.61295 1.1421 0 1.7418 0.87754 0.60413 0.87312 0.60413 2.54 0 1.5566-0.74084 2.4871-0.73642 0.92604-1.9844 0.92604-0.33514 0-0.6791-0.0661t-0.71437-0.19844zm1.7727-2.7914q0.59972 0 0.94809-0.4101 0.35277-0.4101 0.35277-1.1245 0-0.70996-0.35277-1.1201-0.34837-0.41451-0.94809-0.41451-0.59973 0-0.9525 0.41451-0.34837 0.41011-0.34837 1.1201 0 0.71438 0.34837 1.1245 0.35277 0.4101 0.9525 0.4101z" style=""/>
  </g>
  <g id="text80" aria-label="10">
   <path id="path130" d="m725.12 135.25h1.4552v-5.0227l-1.5831 0.3175v-0.81138l1.5743-0.3175h0.89076v5.8341h1.4552v0.74965h-3.7924z" style=""/>
   <path id="path132" d="m732.62 130q-0.68792 0-1.0363 0.6791-0.34396 0.67468-0.34396 2.0329 0 1.3538 0.34396 2.0329 0.34837 0.67469 1.0363 0.67469 0.69232 0 1.0363-0.67469 0.34837-0.6791 0.34837-2.0329 0-1.3582-0.34837-2.0329-0.34396-0.6791-1.0363-0.6791zm0-0.70556q1.1068 0 1.6889 0.87754 0.58649 0.87312 0.58649 2.54 0 1.6625-0.58649 2.54-0.58208 0.87312-1.6889 0.87312t-1.6933-0.87312q-0.58208-0.87754-0.58208-2.54 0-1.6669 0.58208-2.54 0.5865-0.87754 1.6933-0.87754z" style=""/>
  </g>
  <path id="path82" d="m240 90c0-10 260 0 260-10" fill="none" stroke="#000" stroke-width="2"/>
  <path id="path84" d="m760 90c0-10-260 0-260-10" fill="none" stroke="#000" stroke-width="2"/>
  <g id="text88" aria-label="tényleges foglalás">
   <path id="path135" d="m430.85 58.903v2.454h2.9247v1.1035h-2.9247v4.6919q0 1.0572 0.28553 1.3582 0.29325 0.30096 1.1807 0.30096h1.4585v1.1884h-1.4585q-1.6437 0-2.2688-0.60964-0.62507-0.61736-0.62507-2.2379v-4.6919h-1.0418v-1.1035h1.0418v-2.454z" style=""/>
   <path id="path137" d="m443.04 65.324v0.69453h-6.5286q0.0926 1.4662 0.87974 2.2379 0.79485 0.76398 2.2071 0.76398 0.818 0 1.582-0.20064 0.7717-0.20064 1.528-0.60192v1.3428q-0.76398 0.32411-1.5666 0.49389t-1.6283 0.16977q-2.0682 0-3.2797-1.2039-1.2038-1.2039-1.2038-3.2566 0-2.1222 1.1421-3.3646 1.1498-1.2502 3.0945-1.2502 1.744 0 2.755 1.1267 1.0186 1.119 1.0186 3.0482zm-1.4199-0.41672q-0.0154-1.1653-0.65594-1.8598-0.6328-0.69453-1.6823-0.69453-1.1884 0-1.9061 0.67138-0.70997 0.67138-0.818 1.8907zm-1.3659-7.5472h1.5357l-2.5157 2.9016h-1.1807z" style=""/>
   <path id="path139" d="m452.56 64.783v5.2167h-1.4199v-5.1704q0-1.227-0.47845-1.8366-0.47845-0.60964-1.4354-0.60964-1.1498 0-1.8135 0.73312-0.66366 0.73311-0.66366 1.9987v4.8849h-1.4276v-8.643h1.4276v1.3428q0.50932-0.77942 1.1961-1.1653 0.69453-0.38585 1.5974-0.38585 1.4894 0 2.2534 0.92604 0.76398 0.91832 0.76398 2.7087z" style=""/>
   <path id="path141" d="m459 70.803q-0.60193 1.5434-1.173 2.0141-0.57106 0.47074-1.528 0.47074h-1.1344v-1.1884h0.83344q0.58649 0 0.9106-0.27781 0.32412-0.27781 0.71769-1.3119l0.25466-0.64823-3.4958-8.5041h1.5048l2.701 6.7601 2.701-6.7601h1.5048z" style=""/>
   <path id="path143" d="m464.76 57.992h1.4199v12.008h-1.4199z" style=""/>
   <path id="path145" d="m476.53 65.324v0.69453h-6.5286q0.0926 1.4662 0.87974 2.2379 0.79485 0.76398 2.2071 0.76398 0.818 0 1.582-0.20064 0.7717-0.20064 1.528-0.60192v1.3428q-0.76399 0.32411-1.5666 0.49389-0.80257 0.16977-1.6283 0.16977-2.0682 0-3.2797-1.2039-1.2038-1.2039-1.2038-3.2566 0-2.1222 1.1421-3.3646 1.1498-1.2502 3.0945-1.2502 1.744 0 2.755 1.1267 1.0186 1.119 1.0186 3.0482zm-1.4199-0.41672q-0.0154-1.1653-0.65594-1.8598-0.6328-0.69453-1.6823-0.69453-1.1884 0-1.9061 0.67138-0.70996 0.67138-0.818 1.8907z" style=""/>
   <path id="path147" d="m484.55 65.578q0-1.5434-0.64051-2.3923-0.63279-0.84887-1.7826-0.84887-1.1421 0-1.7826 0.84887-0.63279 0.84887-0.63279 2.3923 0 1.5357 0.63279 2.3846 0.64051 0.84887 1.7826 0.84887 1.1498 0 1.7826-0.84887 0.64051-0.84887 0.64051-2.3846zm1.4199 3.3492q0 2.2071-0.98006 3.2797-0.98006 1.0804-3.0019 1.0804-0.74855 0-1.4122-0.11576-0.66366-0.10804-1.2887-0.33955v-1.3813q0.62508 0.33955 1.2347 0.5016t1.2424 0.16206q1.3968 0 2.0913-0.73311 0.69453-0.7254 0.69453-2.1993v-0.70225q-0.43987 0.76398-1.1267 1.1421-0.68681 0.37813-1.6437 0.37813-1.5897 0-2.562-1.2116t-0.97234-3.2103q0-2.0064 0.97234-3.218 0.97234-1.2116 2.562-1.2116 0.95691 0 1.6437 0.37813 0.68681 0.37813 1.1267 1.1421v-1.3119h1.4199z" style=""/>
   <path id="path149" d="m496.29 65.324v0.69453h-6.5286q0.0926 1.4662 0.87974 2.2379 0.79485 0.76398 2.2071 0.76398 0.818 0 1.582-0.20064 0.7717-0.20064 1.528-0.60192v1.3428q-0.76399 0.32411-1.5666 0.49389-0.80257 0.16977-1.6283 0.16977-2.0682 0-3.2797-1.2039-1.2038-1.2039-1.2038-3.2566 0-2.1222 1.1421-3.3646 1.1498-1.2502 3.0945-1.2502 1.744 0 2.755 1.1267 1.0186 1.119 1.0186 3.0482zm-1.4199-0.41672q-0.0154-1.1653-0.65594-1.8598-0.6328-0.69453-1.6823-0.69453-1.1884 0-1.9061 0.67138-0.70996 0.67138-0.818 1.8907z" style=""/>
   <path id="path151" d="m504.13 61.612v1.3428q-0.60193-0.30868-1.2502-0.46302-0.64823-0.15434-1.3428-0.15434-1.0572 0-1.5897 0.32411-0.52476 0.32411-0.52476 0.97234 0 0.49389 0.37814 0.77942 0.37813 0.27781 1.5202 0.53247l0.48617 0.10804q1.5125 0.32411 2.1453 0.91832 0.64051 0.58649 0.64051 1.6437 0 1.2039-0.95691 1.9061-0.94919 0.70225-2.6161 0.70225-0.69453 0-1.4508-0.13891-0.74855-0.13119-1.582-0.40128v-1.4662q0.78714 0.409 1.5511 0.61736 0.76398 0.20064 1.5125 0.20064 1.0032 0 1.5434-0.33955 0.54019-0.34726 0.54019-0.97234 0-0.57877-0.39357-0.88745-0.38585-0.30868-1.7055-0.59421l-0.49388-0.11576q-1.3196-0.27781-1.9061-0.84887-0.58649-0.57878-0.58649-1.582 0-1.2193 0.8643-1.8829t2.454-0.66366q0.78713 0 1.4817 0.11576 0.69453 0.11575 1.281 0.34726z" style=""/>
   <path id="path153" d="m516.27 57.992v1.1807h-1.3582q-0.76398 0-1.0649 0.30868-0.29325 0.30868-0.29325 1.1112v0.76398h2.3382v1.1035h-2.3382v7.5395h-1.4276v-7.5395h-1.3582v-1.1035h1.3582v-0.60193q0-1.4431 0.67138-2.099 0.67137-0.66366 2.1299-0.66366z" style=""/>
   <path id="path155" d="m520.8 62.352q-1.1421 0-1.8058 0.89517-0.66366 0.88745-0.66366 2.4386 0 1.5511 0.65595 2.4463 0.66366 0.88745 1.8135 0.88745 1.1344 0 1.7981-0.89517t0.66366-2.4386q0-1.5357-0.66366-2.4309-0.66366-0.90289-1.7981-0.90289zm0-1.2039q1.8521 0 2.9093 1.2039 1.0572 1.2038 1.0572 3.3337 0 2.1222-1.0572 3.3337-1.0572 1.2039-2.9093 1.2039-1.8598 0-2.917-1.2039-1.0495-1.2116-1.0495-3.3337 0-2.1299 1.0495-3.3337 1.0572-1.2039 2.917-1.2039z" style=""/>
   <path id="path157" d="m532.8 65.578q0-1.5434-0.64051-2.3923-0.63279-0.84887-1.7826-0.84887-1.1421 0-1.7826 0.84887-0.63279 0.84887-0.63279 2.3923 0 1.5357 0.63279 2.3846 0.64051 0.84887 1.7826 0.84887 1.1498 0 1.7826-0.84887 0.64051-0.84887 0.64051-2.3846zm1.4199 3.3492q0 2.2071-0.98006 3.2797-0.98006 1.0804-3.0019 1.0804-0.74855 0-1.4122-0.11576-0.66366-0.10804-1.2887-0.33955v-1.3813q0.62508 0.33955 1.2347 0.5016t1.2424 0.16206q1.3968 0 2.0913-0.73311 0.69453-0.7254 0.69453-2.1993v-0.70225q-0.43987 0.76398-1.1267 1.1421-0.68681 0.37813-1.6437 0.37813-1.5897 0-2.562-1.2116t-0.97234-3.2103q0-2.0064 0.97234-3.218 0.97234-1.2116 2.562-1.2116 0.95691 0 1.6437 0.37813 0.68681 0.37813 1.1267 1.1421v-1.3119h1.4199z" style=""/>
   <path id="path159" d="m537.14 57.992h1.4199v12.008h-1.4199z" style=""/>
   <path id="path161" d="m545.45 65.655q-1.7209 0-2.3846 0.39357t-0.66366 1.3428q0 0.75626 0.49389 1.2038 0.5016 0.43987 1.3582 0.43987 1.1807 0 1.8907-0.83344 0.71768-0.84115 0.71768-2.2302v-0.3164zm2.8321-0.58649v4.9312h-1.4199v-1.3119q-0.48617 0.78713-1.2116 1.1653-0.7254 0.37042-1.7749 0.37042-1.3273 0-2.1145-0.74083-0.77941-0.74855-0.77941-1.9987 0-1.4585 0.97234-2.1993 0.98005-0.74083 2.917-0.74083h1.991v-0.1389q0-0.98006-0.64822-1.5125-0.64051-0.54019-1.8058-0.54019-0.74083 0-1.4431 0.17749-0.70224 0.17749-1.3505 0.53247v-1.3119q0.77941-0.30096 1.5125-0.44758 0.73311-0.15434 1.4276-0.15434 1.8752 0 2.8013 0.97234t0.92604 2.9479z" style=""/>
   <path id="path163" d="m551.22 57.992h1.4199v12.008h-1.4199z" style=""/>
   <path id="path165" d="m559.53 65.655q-1.7209 0-2.3846 0.39357t-0.66366 1.3428q0 0.75626 0.49389 1.2038 0.5016 0.43987 1.3582 0.43987 1.1807 0 1.8907-0.83344 0.71768-0.84115 0.71768-2.2302v-0.3164zm2.8321-0.58649v4.9312h-1.4199v-1.3119q-0.48617 0.78713-1.2116 1.1653-0.72539 0.37042-1.7749 0.37042-1.3273 0-2.1145-0.74083-0.77942-0.74855-0.77942-1.9987 0-1.4585 0.97234-2.1993 0.98006-0.74083 2.917-0.74083h1.991v-0.1389q0-0.98006-0.64823-1.5125-0.64051-0.54019-1.8058-0.54019-0.74083 0-1.4431 0.17749-0.70225 0.17749-1.3505 0.53247v-1.3119q0.77941-0.30096 1.5125-0.44758 0.73311-0.15434 1.4276-0.15434 1.8752 0 2.8013 0.97234t0.92604 2.9479zm-2.5929-7.7093h1.5357l-2.5157 2.9016h-1.1807z" style=""/>
   <path id="path167" d="m570.8 61.612v1.3428q-0.60192-0.30868-1.2502-0.46302-0.64823-0.15434-1.3428-0.15434-1.0572 0-1.5897 0.32411-0.52475 0.32411-0.52475 0.97234 0 0.49389 0.37813 0.77942 0.37813 0.27781 1.5202 0.53247l0.48617 0.10804q1.5125 0.32411 2.1453 0.91832 0.64051 0.58649 0.64051 1.6437 0 1.2039-0.95691 1.9061-0.94919 0.70225-2.6161 0.70225-0.69453 0-1.4508-0.13891-0.74855-0.13119-1.582-0.40128v-1.4662q0.78714 0.409 1.5511 0.61736 0.76398 0.20064 1.5125 0.20064 1.0032 0 1.5434-0.33955 0.54019-0.34726 0.54019-0.97234 0-0.57877-0.39357-0.88745-0.38585-0.30868-1.7054-0.59421l-0.49389-0.11576q-1.3196-0.27781-1.9061-0.84887-0.58649-0.57878-0.58649-1.582 0-1.2193 0.8643-1.8829 0.86431-0.66366 2.454-0.66366 0.78713 0 1.4817 0.11576 0.69453 0.11575 1.281 0.34726z" style=""/>
  </g>
  <path id="rect90" d="m240 100h80v40h-80z" fill="#fff" stroke="#000" stroke-width="2"/>
  <g id="text94" aria-label="size_t">
   <path id="path171" d="m248 131.21v0.76729q-0.34396-0.17638-0.71438-0.26458-0.37041-0.0882-0.76729-0.0882-0.60413 0-0.9084 0.1852-0.29986 0.18521-0.29986 0.55563 0 0.28222 0.21607 0.44538 0.21608 0.15875 0.86872 0.30427l0.27781 0.0617q0.86431 0.18521 1.2259 0.52476 0.36601 0.33513 0.36601 0.93927 0 0.68791-0.5468 1.0892-0.5424 0.40128-1.4949 0.40128-0.39688 0-0.82903-0.0794-0.42774-0.075-0.90399-0.22931v-0.83785q0.44979 0.23372 0.88635 0.35278 0.43657 0.11465 0.86431 0.11465 0.57326 0 0.88194-0.19402 0.30868-0.19844 0.30868-0.55563 0-0.33073-0.22489-0.50712-0.22049-0.17638-0.97455-0.33954l-0.28222-0.0662q-0.75407-0.15875-1.0892-0.48507-0.33514-0.33073-0.33514-0.90399 0-0.69674 0.49389-1.076 0.49388-0.37924 1.4023-0.37924 0.44979 0 0.84666 0.0661 0.39688 0.0661 0.73202 0.19843z" style=""/>
   <path id="path173" d="m249.56 131.06h0.81139v4.9389h-0.81139zm0-1.9226h0.81139v1.0275h-0.81139z" style=""/>
   <path id="path175" d="m251.71 131.06h3.8541v0.74084l-3.0515 3.5498h3.0515v0.64823h-3.9643v-0.74083l3.0515-3.5498h-2.9413z" style=""/>
   <path id="path177" d="m261.03 133.33v0.39687h-3.7306q0.0529 0.83785 0.50271 1.2788 0.4542 0.43657 1.2612 0.43657 0.46743 0 0.90399-0.11466 0.44097-0.11465 0.87313-0.34396v0.7673q-0.43657 0.1852-0.89518 0.28222-0.45861 0.097-0.93045 0.097-1.1818 0-1.8741-0.68791-0.68792-0.68792-0.68792-1.8609 0-1.2127 0.65264-1.9226 0.65705-0.71437 1.7683-0.71437 0.9966 0 1.5743 0.64382 0.58209 0.63941 0.58209 1.7418zm-0.81139-0.23813q-9e-3 -0.66586-0.37483-1.0627-0.3616-0.39687-0.96132-0.39687-0.6791 0-1.0892 0.38364-0.40569 0.38365-0.46743 1.0804z" style=""/>
   <path id="path179" d="m266.12 137.5v0.63059h-4.6919v-0.63059z" style=""/>
   <path id="path181" d="m267.68 129.66v1.4023h1.6713v0.63059h-1.6713v2.6811q0 0.60413 0.16315 0.77611 0.16757 0.17198 0.67469 0.17198h0.83344v0.6791h-0.83344q-0.93927 0-1.2965-0.34837-0.35718-0.35278-0.35718-1.2788v-2.6811h-0.59532v-0.63059h0.59532v-1.4023z" style=""/>
  </g>
  <g id="text98" aria-label="11">
   <path id="path184" d="m271.9 124.16h2.5466v-8.7896l-2.7704 0.55562v-1.4199l2.755-0.55562h1.5588v10.21h2.5466v1.3119h-6.6366z" style=""/>
   <path id="path186" d="m281.96 124.16h2.5466v-8.7896l-2.7704 0.55562v-1.4199l2.755-0.55562h1.5588v10.21h2.5466v1.3119h-6.6366z" style=""/>
  </g>
 </g>
</svg>
