<?xml version="1.0" encoding="UTF-8" standalone="no"?>
<svg id="svg2" xmlns:rdf="http://www.w3.org/1999/02/22-rdf-syntax-ns#" xmlns="http://www.w3.org/2000/svg" viewBox="99 -34 156.48001 74.194005" height="3.957cm" width="8.64cm" version="1.1" xmlns:cc="http://creativecommons.org/ns#" xmlns:dc="http://purl.org/dc/elements/1.1/">
 <metadata id="metadata56">
  <rdf:RDF>
   <cc:Work rdf:about="">
    <dc:format>image/svg+xml</dc:format>
    <dc:type rdf:resource="http://purl.org/dc/dcmitype/StillImage"/>
   </cc:Work>
  </rdf:RDF>
 </metadata>
 <g id="g4" transform="translate(-2.76 -0.806)">
  <path id="rect6" fill="#fff" d="m100 0h40v40h-40z"/>
  <path id="rect8" d="m100 0h40v40h-40z" stroke="#000" stroke-width="2" fill="none"/>
 </g>
 <g id="g10" transform="translate(-2.76 -0.806)">
  <path id="rect12" fill="#fff" d="m140 0h40v40h-40z"/>
  <path id="rect14" d="m140 0h40v40h-40z" stroke="#000" stroke-width="2" fill="none"/>
 </g>
 <g id="g16" transform="translate(-2.76 -0.806)">
  <path id="rect18" fill="#fff" d="m180 0h40v40h-40z"/>
  <path id="rect20" d="m180 0h40v40h-40z" stroke="#000" stroke-width="2" fill="none"/>
 </g>
 <g id="g22" transform="translate(-2.76 -0.806)">
  <path id="rect24" fill="#fff" d="m220 0h40v40h-40z"/>
  <path id="rect26" d="m220 0h40v40h-40z" stroke="#000" stroke-dasharray="4" stroke-width="2" fill="none"/>
 </g>
 <g id="g28" transform="translate(-2.76 -0.806)">
  <path id="path30" d="m170.5-1.0068c20-40 38.994-40 54.639-8.7082" stroke="#000" stroke-width="2" fill="none"/>
  <path id="polygon32" d="m219.55-9.715h5.59l3.355-4.4722v11.18z"/>
  <path id="polygon34" d="m219.55-9.715h5.59l3.355-4.4722v11.18z" stroke="#000" stroke-width="2" fill="none"/>
 </g>
 <g id="text36">
  <path id="path42" style="" d="m114.61 22.77h2.1828v-7.534l-2.3746 0.47625v-1.2171l2.3614-0.47625h1.3362v8.7511h2.1828v1.1245h-5.6886v-1.1245z"/>
 </g>
 <g id="text40">
  <path id="path45" style="" d="m235.53 22.77h4.6633v1.1245h-6.2706v-1.1245q0.76068-0.78714 2.0704-2.1101 1.3163-1.3295 1.6536-1.7132 0.64161-0.72099 0.89297-1.2171 0.25797-0.50271 0.25797-0.98558 0-0.78714-0.55563-1.2832-0.54901-0.4961-1.4354-0.4961-0.62839 0-1.3295 0.21828-0.69454 0.21828-1.4883 0.66146v-1.3494q0.80698-0.32412 1.5081-0.48948 0.70115-0.16536 1.2832-0.16536 1.5346 0 2.4474 0.76729 0.91281 0.76729 0.91281 2.0505 0 0.60854-0.23151 1.1576-0.2249 0.5424-0.82683 1.2832-0.16536 0.19182-1.0517 1.1113-0.88635 0.91282-2.5003 2.5598z"/>
 </g>
 <g id="text44">
  <path id="path48" style="" d="m198.42 18.569q0.95912 0.20505 1.4949 0.85328 0.5424 0.64823 0.5424 1.6007 0 1.4618-1.0054 2.2622-1.0054 0.80037-2.8575 0.80037-0.62177 0-1.2832-0.12568-0.65485-0.11906-1.356-0.3638v-1.2898q0.55563 0.32412 1.2171 0.48948 0.66146 0.16536 1.3824 0.16536 1.2568 0 1.9116-0.4961 0.66146-0.4961 0.66146-1.442 0-0.87313-0.61516-1.3626-0.60854-0.4961-1.7-0.4961h-1.1509v-1.098h1.2039q0.98557 0 1.5081-0.39026 0.52255-0.39688 0.52255-1.1377 0-0.76068-0.5424-1.1642-0.53578-0.4101-1.5412-0.4101-0.54901 0-1.1774 0.11906-0.62838 0.11906-1.3824 0.37042v-1.1906q0.76068-0.21167 1.4221-0.3175 0.66807-0.10583 1.2568-0.10583 1.5214 0 2.4077 0.69453 0.88635 0.68792 0.88635 1.8653 0 0.82021-0.46963 1.3891-0.46964 0.56224-1.3362 0.78052z"/>
 </g>
 <g id="text48">
  <path id="path51" style="" d="m161.06 16.618-3.0229 3.0361 3.0229 3.0229-0.78713 0.80037-3.0361-3.0361-3.0361 3.0361-0.78052-0.80037 3.0163-3.0229-3.0163-3.0361 0.78052-0.80037 3.0361 3.0361 3.0361-3.0361 0.78713 0.80037z"/>
 </g>
</svg>
