<?xml version="1.0" encoding="UTF-8" standalone="no"?>
<!-- Created with Inkscape (http://www.inkscape.org/) -->

<svg
   xmlns:dc="http://purl.org/dc/elements/1.1/"
   xmlns:cc="http://creativecommons.org/ns#"
   xmlns:rdf="http://www.w3.org/1999/02/22-rdf-syntax-ns#"
   xmlns:svg="http://www.w3.org/2000/svg"
   xmlns="http://www.w3.org/2000/svg"
   xmlns:sodipodi="http://sodipodi.sourceforge.net/DTD/sodipodi-0.dtd"
   xmlns:inkscape="http://www.inkscape.org/namespaces/inkscape"
   version="1.1"
   width="921.25983"
   height="517.52045"
   viewBox="239 59 502 274.58486"
   id="svg2"
   inkscape:version="0.48.4 r9939"
   sodipodi:docname="reflective.svg">
  <sodipodi:namedview
     pagecolor="#ffffff"
     bordercolor="#666666"
     borderopacity="1"
     objecttolerance="10"
     gridtolerance="10"
     guidetolerance="10"
     inkscape:pageopacity="0"
     inkscape:pageshadow="2"
     inkscape:window-width="640"
     inkscape:window-height="480"
     id="namedview55"
     showgrid="false"
     inkscape:zoom="0.44402965"
     inkscape:cx="460.62991"
     inkscape:cy="258.57652"
     inkscape:window-x="0"
     inkscape:window-y="25"
     inkscape:window-maximized="0"
     inkscape:current-layer="svg2" />
  <metadata
     id="metadata108">
    <rdf:RDF>
      <cc:Work
         rdf:about="">
        <dc:format>image/svg+xml</dc:format>
        <dc:type
           rdf:resource="http://purl.org/dc/dcmitype/StillImage" />
      </cc:Work>
    </rdf:RDF>
  </metadata>
  <defs
     id="defs106" />
  <g
     id="g4"
     transform="translate(0,-3.7075663)">
    <path
       style="fill:#ffffff"
       d="m 420,60 140,0 0,40 -140,0 z"
       id="rect6" />
    <path
       style="fill:none;stroke:#000000;stroke-width:2"
       d="m 420,60 140,0 0,40 -140,0 z"
       id="rect8" />
  </g>
  <g
     style="font-size:18.06220055px;font-style:normal;font-weight:normal;text-anchor:middle;fill:#000000;font-family:sans-serif"
     id="text10">
    <path
       d="m 470.97648,69.37502 2.65465,0 3.36021,8.960545 3.37784,-8.960545 2.65465,0 0,13.167415 -1.73743,0 0,-11.562278 -3.39548,9.0311 -1.79035,0 -3.39548,-9.0311 0,11.562278 -1.72861,0 0,-13.167415"
       style=""
       id="path3035" />
    <path
       d="m 488.06854,81.06077 0,5.238744 -1.63159,0 0,-13.634845 1.63159,0 0,1.499304 c 0.34102,-0.587954 0.77023,-1.023045 1.28764,-1.305277 0.52328,-0.288091 1.14652,-0.432142 1.86972,-0.432152 1.19944,10e-6 2.17251,0.476259 2.91923,1.428748 0.75259,0.952507 1.12888,2.204865 1.12889,3.757079 -1e-5,1.552224 -0.3763,2.804582 -1.12889,3.757079 -0.74672,0.952499 -1.71979,1.428748 -2.91923,1.428748 -0.7232,0 -1.34644,-0.141111 -1.86972,-0.423333 -0.51741,-0.288101 -0.94662,-0.726132 -1.28764,-1.314095 m 5.52097,-3.448399 c -1e-5,-1.193557 -0.24695,-2.128416 -0.74083,-2.80458 -0.48802,-0.682028 -1.16124,-1.023045 -2.01965,-1.023054 -0.85843,9e-6 -1.53459,0.341026 -2.02847,1.023054 -0.48802,0.676164 -0.73202,1.611023 -0.73202,2.80458 0,1.193567 0.244,2.131366 0.73202,2.8134 0.49388,0.676158 1.17004,1.014236 2.02847,1.014234 0.85841,2e-6 1.53163,-0.338076 2.01965,-1.014234 0.49388,-0.682034 0.74082,-1.619833 0.74083,-2.8134"
       style=""
       id="path3037" />
    <path
       d="m 499.56909,69.860089 0,2.80458 3.34256,0 0,1.261179 -3.34256,0 0,5.362216 c -1e-5,0.80551 0.10877,1.322917 0.32632,1.55222 0.22342,0.229307 0.67321,0.343959 1.34937,0.343958 l 1.66687,0 0,1.358193 -1.66687,0 c -1.25236,0 -2.11667,-0.232245 -2.59292,-0.696736 -0.47625,-0.470368 -0.71437,-1.322913 -0.71437,-2.557635 l 0,-5.362216 -1.19062,0 0,-1.261179 1.19062,0 0,-2.80458 1.6316,0"
       style=""
       id="path3039" />
    <path
       d="m 510.77859,74.181611 c -0.18228,-0.105824 -0.38218,-0.182259 -0.59972,-0.229305 -0.21168,-0.05291 -0.44686,-0.07937 -0.70556,-0.07937 -0.91722,9e-6 -1.62278,0.299869 -2.11666,0.899582 -0.48801,0.59385 -0.73202,1.449334 -0.73202,2.566456 l 0,5.203466 -1.63159,0 0,-9.877766 1.63159,0 0,1.534581 c 0.34102,-0.599712 0.78493,-1.043623 1.33174,-1.331734 0.5468,-0.293971 1.2112,-0.440962 1.99319,-0.440972 0.11171,10e-6 0.23518,0.0088 0.37042,0.02646 0.13522,0.01177 0.28515,0.03235 0.44979,0.06174 l 0.009,1.666873"
       style=""
       id="path3041" />
  </g>
  <g
     id="g14"
     transform="translate(0,-3.7075663)">
    <path
       style="fill:#ffffff"
       d="m 240,160 140,0 0,60 -140,0 z"
       id="rect16" />
    <path
       style="fill:none;stroke:#000000;stroke-width:2"
       d="m 240,160 140,0 0,60 -140,0 z"
       id="rect18" />
  </g>
  <g
     style="font-size:18.06220055px;font-style:normal;font-weight:normal;text-anchor:middle;fill:#000000;font-family:sans-serif"
     id="text20">
    <path
       d="m 270.23317,168.086 2.65465,0 3.36021,8.96055 3.37784,-8.96055 2.65465,0 0,13.16742 -1.73743,0 0,-11.56228 -3.39548,9.0311 -1.79035,0 -3.39548,-9.0311 0,11.56228 -1.72861,0 0,-13.16742"
       style=""
       id="path3046" />
    <path
       d="m 287.32524,179.77175 0,5.23875 -1.6316,0 0,-13.63485 1.6316,0 0,1.49931 c 0.34101,-0.58796 0.77022,-1.02305 1.28763,-1.30528 0.52328,-0.28809 1.14652,-0.43214 1.86972,-0.43215 1.19944,1e-5 2.17251,0.47626 2.91924,1.42875 0.75258,0.9525 1.12887,2.20486 1.12888,3.75707 -10e-6,1.55223 -0.3763,2.80459 -1.12888,3.75708 -0.74673,0.9525 -1.7198,1.42875 -2.91924,1.42875 -0.7232,0 -1.34644,-0.14111 -1.86972,-0.42333 -0.51741,-0.2881 -0.94662,-0.72613 -1.28763,-1.3141 m 5.52096,-3.4484 c -1e-5,-1.19355 -0.24695,-2.12841 -0.74083,-2.80458 -0.48802,-0.68202 -1.16123,-1.02304 -2.01965,-1.02305 -0.85843,1e-5 -1.53459,0.34103 -2.02847,1.02305 -0.48801,0.67617 -0.73202,1.61103 -0.73201,2.80458 -1e-5,1.19357 0.244,2.13137 0.73201,2.8134 0.49388,0.67616 1.17004,1.01424 2.02847,1.01424 0.85842,0 1.53163,-0.33808 2.01965,-1.01424 0.49388,-0.68203 0.74082,-1.61983 0.74083,-2.8134"
       style=""
       id="path3048" />
    <path
       d="m 298.82578,168.57107 0,2.80458 3.34256,0 0,1.26118 -3.34256,0 0,5.36222 c -1e-5,0.80551 0.10877,1.32291 0.32632,1.55222 0.22342,0.2293 0.67321,0.34396 1.34937,0.34396 l 1.66687,0 0,1.35819 -1.66687,0 c -1.25236,0 -2.11667,-0.23225 -2.59291,-0.69674 -0.47625,-0.47037 -0.71438,-1.32291 -0.71438,-2.55763 l 0,-5.36222 -1.19062,0 0,-1.26118 1.19062,0 0,-2.80458 1.6316,0"
       style=""
       id="path3050" />
    <path
       d="m 310.03528,172.89259 c -0.18228,-0.10582 -0.38218,-0.18226 -0.59972,-0.2293 -0.21168,-0.0529 -0.44686,-0.0794 -0.70556,-0.0794 -0.91722,1e-5 -1.62278,0.29987 -2.11666,0.89959 -0.48801,0.59385 -0.73202,1.44933 -0.73201,2.56645 l 0,5.20347 -1.6316,0 0,-9.87777 1.6316,0 0,1.53458 c 0.34101,-0.59971 0.78492,-1.04362 1.33173,-1.33173 0.5468,-0.29397 1.2112,-0.44096 1.99319,-0.44097 0.11171,1e-5 0.23518,0.009 0.37042,0.0265 0.13522,0.0118 0.28515,0.0323 0.44979,0.0617 l 0.009,1.66687"
       style=""
       id="path3052" />
    <path
       d="m 310,168.086 11.13894,0 0,1.49931 -4.6743,0 0,11.66811 -1.79034,0 0,-11.66811 -4.6743,0 0,-1.49931"
       style=""
       id="path3054" />
    <path
       d="m 324.08464,182.17064 c -0.45862,1.17592 -0.90547,1.94321 -1.34056,2.30187 -0.43509,0.35865 -1.01717,0.53798 -1.74624,0.53799 l -1.29646,0 0,-1.3582 0.9525,0 c 0.44685,0 0.79374,-0.10583 1.04069,-0.3175 0.24694,-0.21166 0.52034,-0.71143 0.82021,-1.4993 l 0.29104,-0.74083 -3.9952,-9.71902 1.71979,0 3.0868,7.72583 3.0868,-7.72583 1.71979,0 -4.33916,10.79499"
       style=""
       id="path3056" />
    <path
       d="m 332.23379,179.77175 0,5.23875 -1.63159,0 0,-13.63485 1.63159,0 0,1.49931 c 0.34102,-0.58796 0.77023,-1.02305 1.28764,-1.30528 0.52328,-0.28809 1.14652,-0.43214 1.86972,-0.43215 1.19944,1e-5 2.17251,0.47626 2.91923,1.42875 0.75258,0.9525 1.12888,2.20486 1.12889,3.75707 -1e-5,1.55223 -0.37631,2.80459 -1.12889,3.75708 -0.74672,0.9525 -1.71979,1.42875 -2.91923,1.42875 -0.7232,0 -1.34644,-0.14111 -1.86972,-0.42333 -0.51741,-0.2881 -0.94662,-0.72613 -1.28764,-1.3141 m 5.52097,-3.4484 c -10e-6,-1.19355 -0.24695,-2.12841 -0.74083,-2.80458 -0.48802,-0.68202 -1.16124,-1.02304 -2.01965,-1.02305 -0.85843,1e-5 -1.53459,0.34103 -2.02847,1.02305 -0.48802,0.67617 -0.73202,1.61103 -0.73202,2.80458 0,1.19357 0.244,2.13137 0.73202,2.8134 0.49388,0.67616 1.17004,1.01424 2.02847,1.01424 0.85841,0 1.53163,-0.33808 2.01965,-1.01424 0.49388,-0.68203 0.74082,-1.61983 0.74083,-2.8134"
       style=""
       id="path3058" />
    <path
       d="m 350.57822,175.90884 0,0.79375 -7.46124,0 c 0.0705,1.11713 0.40569,1.96968 1.00541,2.55764 0.6056,0.58208 1.44638,0.87312 2.52236,0.87312 0.62323,0 1.22589,-0.0764 1.80798,-0.22931 0.58796,-0.15286 1.17004,-0.38217 1.74625,-0.68791 l 0,1.53458 c -0.58209,0.24694 -1.17887,0.43509 -1.79034,0.56444 -0.61149,0.12936 -1.23179,0.19403 -1.8609,0.19403 -1.57575,0 -2.82517,-0.45861 -3.74826,-1.37583 -0.91723,-0.91722 -1.37584,-2.15782 -1.37583,-3.7218 -1e-5,-1.61689 0.43509,-2.89865 1.30527,-3.84527 0.87606,-0.95249 2.05493,-1.42874 3.53659,-1.42875 1.32879,1e-5 2.3783,0.42922 3.14854,1.28763 0.7761,0.85256 1.16416,2.01378 1.16417,3.48368 m -1.62278,-0.47625 c -0.0118,-0.88781 -0.26165,-1.59631 -0.74965,-2.12548 -0.48214,-0.52916 -1.12301,-0.79374 -1.92264,-0.79375 -0.90546,1e-5 -1.6316,0.25577 -2.1784,0.76729 -0.54092,0.51153 -0.85254,1.23179 -0.93486,2.16076 l 5.78555,-0.009"
       style=""
       id="path3060" />
    <path
       d="m 296.30342,194.94143 -9.10166,3.23673 9.10166,3.2191 0,1.60513 -11.30651,-4.10103 0,-1.46403 11.30651,-4.10104 0,1.60514"
       style=""
       id="path3062" />
    <path
       d="m 299.91939,193.95365 1.62277,0 0,9.87777 -1.62277,0 0,-9.87777 m 0,-3.84527 1.62277,0 0,2.05493 -1.62277,0 0,-2.05493"
       style=""
       id="path3064" />
    <path
       d="m 313.13972,197.86948 0,5.96194 -1.62278,0 0,-5.90902 c -10e-6,-0.93485 -0.18227,-1.63453 -0.5468,-2.09903 -0.36455,-0.46448 -0.91135,-0.69672 -1.64042,-0.69673 -0.87607,1e-5 -1.56692,0.27929 -2.07256,0.83785 -0.50565,0.55857 -0.75848,1.31998 -0.75848,2.28423 l 0,5.5827 -1.63159,0 0,-9.87777 1.63159,0 0,1.53459 c 0.38806,-0.59384 0.84373,-1.03775 1.36702,-1.33174 0.52916,-0.29397 1.1377,-0.44096 1.82562,-0.44097 1.13476,1e-5 1.99318,0.35279 2.57527,1.05833 0.58208,0.69969 0.87312,1.73156 0.87313,3.09562"
       style=""
       id="path3066" />
    <path
       d="m 317.99923,191.14908 0,2.80457 3.34256,0 0,1.26118 -3.34256,0 0,5.36222 c -1e-5,0.80551 0.10877,1.32292 0.32632,1.55222 0.22342,0.22931 0.67321,0.34396 1.34937,0.34396 l 1.66687,0 0,1.35819 -1.66687,0 c -1.25236,0 -2.11667,-0.23224 -2.59291,-0.69673 -0.47625,-0.47037 -0.71438,-1.32292 -0.71438,-2.55764 l 0,-5.36222 -1.19062,0 0,-1.26118 1.19062,0 0,-2.80457 1.6316,0"
       style=""
       id="path3068" />
    <path
       d="m 323.69658,194.94143 0,-1.60514 11.30652,4.10104 0,1.46403 -11.30652,4.10103 0,-1.60513 9.08402,-3.2191 -9.08402,-3.23673"
       style=""
       id="path3070" />
  </g>
  <g
     id="g26"
     transform="translate(0,-3.7075663)">
    <path
       style="fill:#ffffff"
       d="m 420,160 140,0 0,60 -140,0 z"
       id="rect28" />
    <path
       style="fill:none;stroke:#000000;stroke-width:2"
       d="m 420,160 140,0 0,60 -140,0 z"
       id="rect30" />
  </g>
  <g
     style="font-size:18.06220055px;font-style:normal;font-weight:normal;text-anchor:middle;fill:#000000;font-family:sans-serif"
     id="text32">
    <path
       d="m 450.23317,168.086 2.65465,0 3.36021,8.96055 3.37784,-8.96055 2.65465,0 0,13.16742 -1.73743,0 0,-11.56228 -3.39548,9.0311 -1.79035,0 -3.39548,-9.0311 0,11.56228 -1.72861,0 0,-13.16742"
       style=""
       id="path3075" />
    <path
       d="m 467.32524,179.77175 0,5.23875 -1.6316,0 0,-13.63485 1.6316,0 0,1.49931 c 0.34101,-0.58796 0.77022,-1.02305 1.28763,-1.30528 0.52328,-0.28809 1.14652,-0.43214 1.86972,-0.43215 1.19944,1e-5 2.17251,0.47626 2.91924,1.42875 0.75258,0.9525 1.12887,2.20486 1.12888,3.75707 -10e-6,1.55223 -0.3763,2.80459 -1.12888,3.75708 -0.74673,0.9525 -1.7198,1.42875 -2.91924,1.42875 -0.7232,0 -1.34644,-0.14111 -1.86972,-0.42333 -0.51741,-0.2881 -0.94662,-0.72613 -1.28763,-1.3141 m 5.52096,-3.4484 c -1e-5,-1.19355 -0.24695,-2.12841 -0.74083,-2.80458 -0.48802,-0.68202 -1.16123,-1.02304 -2.01965,-1.02305 -0.85843,1e-5 -1.53459,0.34103 -2.02847,1.02305 -0.48801,0.67617 -0.73202,1.61103 -0.73201,2.80458 -1e-5,1.19357 0.244,2.13137 0.73201,2.8134 0.49388,0.67616 1.17004,1.01424 2.02847,1.01424 0.85842,0 1.53163,-0.33808 2.01965,-1.01424 0.49388,-0.68203 0.74082,-1.61983 0.74083,-2.8134"
       style=""
       id="path3077" />
    <path
       d="m 478.82578,168.57107 0,2.80458 3.34256,0 0,1.26118 -3.34256,0 0,5.36222 c -1e-5,0.80551 0.10877,1.32291 0.32632,1.55222 0.22342,0.2293 0.67321,0.34396 1.34937,0.34396 l 1.66687,0 0,1.35819 -1.66687,0 c -1.25236,0 -2.11667,-0.23225 -2.59291,-0.69674 -0.47625,-0.47037 -0.71438,-1.32291 -0.71438,-2.55763 l 0,-5.36222 -1.19062,0 0,-1.26118 1.19062,0 0,-2.80458 1.6316,0"
       style=""
       id="path3079" />
    <path
       d="m 490.03528,172.89259 c -0.18228,-0.10582 -0.38218,-0.18226 -0.59972,-0.2293 -0.21168,-0.0529 -0.44686,-0.0794 -0.70556,-0.0794 -0.91722,1e-5 -1.62278,0.29987 -2.11666,0.89959 -0.48801,0.59385 -0.73202,1.44933 -0.73201,2.56645 l 0,5.20347 -1.6316,0 0,-9.87777 1.6316,0 0,1.53458 c 0.34101,-0.59971 0.78492,-1.04362 1.33173,-1.33173 0.5468,-0.29397 1.2112,-0.44096 1.99319,-0.44097 0.11171,1e-5 0.23518,0.009 0.37042,0.0265 0.13522,0.0118 0.28515,0.0323 0.44979,0.0617 l 0.009,1.66687"
       style=""
       id="path3081" />
    <path
       d="m 490,168.086 11.13894,0 0,1.49931 -4.6743,0 0,11.66811 -1.79034,0 0,-11.66811 -4.6743,0 0,-1.49931"
       style=""
       id="path3083" />
    <path
       d="m 504.08464,182.17064 c -0.45862,1.17592 -0.90547,1.94321 -1.34056,2.30187 -0.43509,0.35865 -1.01717,0.53798 -1.74624,0.53799 l -1.29646,0 0,-1.3582 0.9525,0 c 0.44685,0 0.79374,-0.10583 1.04069,-0.3175 0.24694,-0.21166 0.52034,-0.71143 0.82021,-1.4993 l 0.29104,-0.74083 -3.9952,-9.71902 1.71979,0 3.0868,7.72583 3.0868,-7.72583 1.71979,0 -4.33916,10.79499"
       style=""
       id="path3085" />
    <path
       d="m 512.23379,179.77175 0,5.23875 -1.63159,0 0,-13.63485 1.63159,0 0,1.49931 c 0.34102,-0.58796 0.77023,-1.02305 1.28764,-1.30528 0.52328,-0.28809 1.14652,-0.43214 1.86972,-0.43215 1.19944,1e-5 2.17251,0.47626 2.91923,1.42875 0.75258,0.9525 1.12888,2.20486 1.12889,3.75707 -10e-6,1.55223 -0.37631,2.80459 -1.12889,3.75708 -0.74672,0.9525 -1.71979,1.42875 -2.91923,1.42875 -0.7232,0 -1.34644,-0.14111 -1.86972,-0.42333 -0.51741,-0.2881 -0.94662,-0.72613 -1.28764,-1.3141 m 5.52097,-3.4484 c -1e-5,-1.19355 -0.24695,-2.12841 -0.74083,-2.80458 -0.48802,-0.68202 -1.16124,-1.02304 -2.01965,-1.02305 -0.85843,1e-5 -1.53459,0.34103 -2.02847,1.02305 -0.48802,0.67617 -0.73202,1.61103 -0.73202,2.80458 0,1.19357 0.244,2.13137 0.73202,2.8134 0.49388,0.67616 1.17004,1.01424 2.02847,1.01424 0.85841,0 1.53163,-0.33808 2.01965,-1.01424 0.49388,-0.68203 0.74082,-1.61983 0.74083,-2.8134"
       style=""
       id="path3087" />
    <path
       d="m 530.57822,175.90884 0,0.79375 -7.46124,0 c 0.0706,1.11713 0.40569,1.96968 1.00541,2.55764 0.6056,0.58208 1.44638,0.87312 2.52236,0.87312 0.62323,0 1.22589,-0.0764 1.80798,-0.22931 0.58796,-0.15286 1.17004,-0.38217 1.74625,-0.68791 l 0,1.53458 c -0.58209,0.24694 -1.17887,0.43509 -1.79034,0.56444 -0.61149,0.12936 -1.23179,0.19403 -1.8609,0.19403 -1.57575,0 -2.82517,-0.45861 -3.74826,-1.37583 -0.91723,-0.91722 -1.37584,-2.15782 -1.37583,-3.7218 -10e-6,-1.61689 0.43509,-2.89865 1.30527,-3.84527 0.87606,-0.95249 2.05493,-1.42874 3.53659,-1.42875 1.32879,1e-5 2.3783,0.42922 3.14854,1.28763 0.7761,0.85256 1.16416,2.01378 1.16417,3.48368 m -1.62278,-0.47625 c -0.0118,-0.88781 -0.26165,-1.59631 -0.74965,-2.12548 -0.48214,-0.52916 -1.12301,-0.79374 -1.92264,-0.79375 -0.90546,1e-5 -1.6316,0.25577 -2.1784,0.76729 -0.54092,0.51153 -0.85254,1.23179 -0.93486,2.16076 l 5.78555,-0.009"
       style=""
       id="path3089" />
    <path
       d="m 457.30636,194.94143 -9.10166,3.23673 9.10166,3.2191 0,1.60513 -11.30652,-4.10103 0,-1.46403 11.30652,-4.10104 0,1.60514"
       style=""
       id="path3091" />
    <path
       d="m 467.42225,195.45296 0,-5.34458 1.62278,0 0,13.72304 -1.62278,0 0,-1.48166 c -0.34103,0.58796 -0.77318,1.02599 -1.29646,1.31409 -0.51741,0.28222 -1.14065,0.42333 -1.86972,0.42333 -1.19356,0 -2.16664,-0.47624 -2.91923,-1.42874 -0.74671,-0.9525 -1.12007,-2.20486 -1.12007,-3.75708 0,-1.55222 0.37336,-2.80457 1.12007,-3.75708 0.75259,-0.95249 1.72567,-1.42874 2.91923,-1.42875 0.72907,1e-5 1.35231,0.14406 1.86972,0.43215 0.52328,0.28223 0.95543,0.71733 1.29646,1.30528 m -5.52979,3.4484 c 0,1.19356 0.24401,2.13136 0.73202,2.8134 0.49388,0.67615 1.17004,1.01423 2.02847,1.01423 0.85842,0 1.53457,-0.33808 2.02847,-1.01423 0.49388,-0.68204 0.74082,-1.61984 0.74083,-2.8134 -1e-5,-1.19356 -0.24695,-2.12842 -0.74083,-2.80458 -0.4939,-0.68203 -1.17005,-1.02305 -2.02847,-1.02306 -0.85843,1e-5 -1.53459,0.34103 -2.02847,1.02306 -0.48801,0.67616 -0.73202,1.61102 -0.73202,2.80458"
       style=""
       id="path3093" />
    <path
       d="m 476.21523,195.09136 c -0.87019,1e-5 -1.55811,0.34103 -2.06375,1.02306 -0.50565,0.67616 -0.75848,1.60514 -0.75847,2.78694 -1e-5,1.18181 0.24988,2.11372 0.74965,2.79576 0.50564,0.67616 1.1965,1.01423 2.07257,1.01423 0.86429,0 1.54927,-0.34101 2.05492,-1.02305 0.50564,-0.68203 0.75847,-1.61101 0.75847,-2.78694 0,-1.17004 -0.25283,-2.09608 -0.75847,-2.77812 -0.50565,-0.68791 -1.19063,-1.03187 -2.05492,-1.03188 m 0,-1.37583 c 1.4111,1e-5 2.51941,0.45862 3.32492,1.37583 0.8055,0.91723 1.20825,2.18723 1.20826,3.81 -10e-6,1.6169 -0.40276,2.88689 -1.20826,3.80999 -0.80551,0.91722 -1.91382,1.37583 -3.32492,1.37583 -1.417,0 -2.52825,-0.45861 -3.33375,-1.37583 -0.79963,-0.9231 -1.19944,-2.19309 -1.19944,-3.80999 0,-1.62277 0.39981,-2.89277 1.19944,-3.81 0.8055,-0.91721 1.91675,-1.37582 3.33375,-1.37583"
       style=""
       id="path3095" />
    <path
       d="m 483.26195,199.93323 0,-5.97958 1.62278,0 0,5.91785 c -10e-6,0.93486 0.18226,1.63747 0.5468,2.10784 0.36453,0.46449 0.91134,0.69674 1.64042,0.69674 0.87605,0 1.56691,-0.27929 2.07256,-0.83785 0.51152,-0.55856 0.76729,-1.31997 0.76729,-2.28423 l 0,-5.60035 1.62278,0 0,9.87777 -1.62278,0 0,-1.51694 c -0.39394,0.59972 -0.85255,1.04657 -1.37583,1.34055 -0.51741,0.2881 -1.12007,0.43215 -1.80798,0.43215 -1.13477,0 -1.99614,-0.35277 -2.5841,-1.05833 -0.58796,-0.70555 -0.88194,-1.73742 -0.88194,-3.09562 m 4.0834,-6.2177 0,0"
       style=""
       id="path3097" />
    <path
       d="m 501.98561,198.90136 c -1e-5,-1.19356 -0.24695,-2.12842 -0.74083,-2.80458 -0.48802,-0.68203 -1.16123,-1.02305 -2.01965,-1.02306 -0.85843,1e-5 -1.53459,0.34103 -2.02847,1.02306 -0.48801,0.67616 -0.73202,1.61102 -0.73201,2.80458 -1e-5,1.19356 0.244,2.13136 0.73201,2.8134 0.49388,0.67615 1.17004,1.01423 2.02847,1.01423 0.85842,0 1.53163,-0.33808 2.01965,-1.01423 0.49388,-0.68204 0.74082,-1.61984 0.74083,-2.8134 m -5.52096,-3.4484 c 0.34101,-0.58795 0.77022,-1.02305 1.28763,-1.30528 0.52329,-0.28809 1.14652,-0.43214 1.86972,-0.43215 1.19944,1e-5 2.17252,0.47626 2.91924,1.42875 0.75258,0.95251 1.12887,2.20486 1.12888,3.75708 -10e-6,1.55222 -0.3763,2.80458 -1.12888,3.75708 -0.74672,0.9525 -1.7198,1.42874 -2.91924,1.42874 -0.7232,0 -1.34643,-0.14111 -1.86972,-0.42333 -0.51741,-0.2881 -0.94662,-0.72613 -1.28763,-1.31409 l 0,1.48166 -1.6316,0 0,-13.72304 1.6316,0 0,5.34458"
       style=""
       id="path3099" />
    <path
       d="m 506.36005,190.10838 1.62278,0 0,13.72304 -1.62278,0 0,-13.72304"
       style=""
       id="path3101" />
    <path
       d="m 519.81851,198.48684 0,0.79375 -7.46124,0 c 0.0706,1.11713 0.40569,1.96968 1.00541,2.55764 0.6056,0.58208 1.44639,0.87312 2.52236,0.87312 0.62324,0 1.2259,-0.0764 1.80799,-0.2293 0.58795,-0.15287 1.17003,-0.38218 1.74624,-0.68792 l 0,1.53458 c -0.58209,0.24695 -1.17887,0.4351 -1.79034,0.56445 -0.61149,0.12935 -1.23179,0.19402 -1.8609,0.19402 -1.57574,0 -2.82516,-0.45861 -3.74826,-1.37583 -0.91722,-0.91722 -1.37583,-2.15782 -1.37583,-3.7218 0,-1.61689 0.43509,-2.89864 1.30527,-3.84527 0.87606,-0.95249 2.05493,-1.42874 3.5366,-1.42875 1.32878,1e-5 2.3783,0.42922 3.14853,1.28764 0.7761,0.85255 1.16416,2.01378 1.16417,3.48367 m -1.62278,-0.47625 c -0.0118,-0.88781 -0.26165,-1.59631 -0.74965,-2.12548 -0.48213,-0.52916 -1.12301,-0.79374 -1.92263,-0.79375 -0.90547,1e-5 -1.6316,0.25577 -2.1784,0.76729 -0.54093,0.51154 -0.85255,1.23179 -0.93486,2.16076 l 5.78554,-0.009"
       style=""
       id="path3103" />
    <path
       d="m 522.69365,194.94143 0,-1.60514 11.30651,4.10104 0,1.46403 -11.30651,4.10103 0,-1.60513 9.08401,-3.2191 -9.08401,-3.23673"
       style=""
       id="path3105" />
  </g>
  <g
     id="g38"
     transform="translate(0,-3.7075663)">
    <path
       style="fill:#ffffff"
       d="m 600,160 140,0 0,60 -140,0 z"
       id="rect40" />
    <path
       style="fill:none;stroke:#000000;stroke-width:2"
       d="m 600,160 140,0 0,60 -140,0 z"
       id="rect42" />
  </g>
  <g
     style="font-size:18.06220055px;font-style:normal;font-weight:normal;text-anchor:middle;fill:#000000;font-family:sans-serif"
     id="text44">
    <path
       d="m 630.23317,168.086 2.65465,0 3.36021,8.96055 3.37784,-8.96055 2.65465,0 0,13.16742 -1.73743,0 0,-11.56228 -3.39548,9.0311 -1.79035,0 -3.39548,-9.0311 0,11.56228 -1.72861,0 0,-13.16742"
       style=""
       id="path3110" />
    <path
       d="m 647.32524,179.77175 0,5.23875 -1.6316,0 0,-13.63485 1.6316,0 0,1.49931 c 0.34101,-0.58796 0.77022,-1.02305 1.28763,-1.30528 0.52328,-0.28809 1.14652,-0.43214 1.86972,-0.43215 1.19944,1e-5 2.17251,0.47626 2.91924,1.42875 0.75258,0.9525 1.12887,2.20486 1.12888,3.75707 -10e-6,1.55223 -0.3763,2.80459 -1.12888,3.75708 -0.74673,0.9525 -1.7198,1.42875 -2.91924,1.42875 -0.7232,0 -1.34644,-0.14111 -1.86972,-0.42333 -0.51741,-0.2881 -0.94662,-0.72613 -1.28763,-1.3141 m 5.52096,-3.4484 c -10e-6,-1.19355 -0.24695,-2.12841 -0.74083,-2.80458 -0.48802,-0.68202 -1.16123,-1.02304 -2.01965,-1.02305 -0.85843,1e-5 -1.53459,0.34103 -2.02847,1.02305 -0.48801,0.67617 -0.73202,1.61103 -0.73201,2.80458 -10e-6,1.19357 0.244,2.13137 0.73201,2.8134 0.49388,0.67616 1.17004,1.01424 2.02847,1.01424 0.85842,0 1.53163,-0.33808 2.01965,-1.01424 0.49388,-0.68203 0.74082,-1.61983 0.74083,-2.8134"
       style=""
       id="path3112" />
    <path
       d="m 658.82578,168.57107 0,2.80458 3.34256,0 0,1.26118 -3.34256,0 0,5.36222 c -10e-6,0.80551 0.10877,1.32291 0.32632,1.55222 0.22342,0.2293 0.67321,0.34396 1.34937,0.34396 l 1.66687,0 0,1.35819 -1.66687,0 c -1.25236,0 -2.11667,-0.23225 -2.59291,-0.69674 -0.47625,-0.47037 -0.71438,-1.32291 -0.71438,-2.55763 l 0,-5.36222 -1.19062,0 0,-1.26118 1.19062,0 0,-2.80458 1.6316,0"
       style=""
       id="path3114" />
    <path
       d="m 670.03528,172.89259 c -0.18228,-0.10582 -0.38218,-0.18226 -0.59972,-0.2293 -0.21168,-0.0529 -0.44686,-0.0794 -0.70556,-0.0794 -0.91722,1e-5 -1.62278,0.29987 -2.11666,0.89959 -0.48801,0.59385 -0.73202,1.44933 -0.73201,2.56645 l 0,5.20347 -1.6316,0 0,-9.87777 1.6316,0 0,1.53458 c 0.34101,-0.59971 0.78492,-1.04362 1.33173,-1.33173 0.5468,-0.29397 1.2112,-0.44096 1.99319,-0.44097 0.11171,1e-5 0.23518,0.009 0.37042,0.0265 0.13522,0.0118 0.28515,0.0323 0.44979,0.0617 l 0.009,1.66687"
       style=""
       id="path3116" />
    <path
       d="m 670,168.086 11.13894,0 0,1.49931 -4.6743,0 0,11.66811 -1.79034,0 0,-11.66811 -4.6743,0 0,-1.49931"
       style=""
       id="path3118" />
    <path
       d="m 684.08464,182.17064 c -0.45862,1.17592 -0.90547,1.94321 -1.34056,2.30187 -0.43509,0.35865 -1.01717,0.53798 -1.74624,0.53799 l -1.29646,0 0,-1.3582 0.9525,0 c 0.44685,0 0.79374,-0.10583 1.04069,-0.3175 0.24694,-0.21166 0.52034,-0.71143 0.82021,-1.4993 l 0.29104,-0.74083 -3.9952,-9.71902 1.71979,0 3.0868,7.72583 3.0868,-7.72583 1.71979,0 -4.33916,10.79499"
       style=""
       id="path3120" />
    <path
       d="m 692.23379,179.77175 0,5.23875 -1.63159,0 0,-13.63485 1.63159,0 0,1.49931 c 0.34102,-0.58796 0.77023,-1.02305 1.28764,-1.30528 0.52328,-0.28809 1.14652,-0.43214 1.86972,-0.43215 1.19944,1e-5 2.17251,0.47626 2.91923,1.42875 0.75258,0.9525 1.12888,2.20486 1.12889,3.75707 -10e-6,1.55223 -0.37631,2.80459 -1.12889,3.75708 -0.74672,0.9525 -1.71979,1.42875 -2.91923,1.42875 -0.7232,0 -1.34644,-0.14111 -1.86972,-0.42333 -0.51741,-0.2881 -0.94662,-0.72613 -1.28764,-1.3141 m 5.52097,-3.4484 c -1e-5,-1.19355 -0.24695,-2.12841 -0.74083,-2.80458 -0.48802,-0.68202 -1.16124,-1.02304 -2.01965,-1.02305 -0.85843,1e-5 -1.53459,0.34103 -2.02847,1.02305 -0.48802,0.67617 -0.73202,1.61103 -0.73202,2.80458 0,1.19357 0.244,2.13137 0.73202,2.8134 0.49388,0.67616 1.17004,1.01424 2.02847,1.01424 0.85841,0 1.53163,-0.33808 2.01965,-1.01424 0.49388,-0.68203 0.74082,-1.61983 0.74083,-2.8134"
       style=""
       id="path3122" />
    <path
       d="m 710.57822,175.90884 0,0.79375 -7.46124,0 c 0.0706,1.11713 0.40569,1.96968 1.00541,2.55764 0.6056,0.58208 1.44638,0.87312 2.52236,0.87312 0.62323,0 1.22589,-0.0764 1.80798,-0.22931 0.58796,-0.15286 1.17004,-0.38217 1.74625,-0.68791 l 0,1.53458 c -0.58209,0.24694 -1.17887,0.43509 -1.79034,0.56444 -0.61149,0.12936 -1.23179,0.19403 -1.8609,0.19403 -1.57575,0 -2.82517,-0.45861 -3.74826,-1.37583 -0.91723,-0.91722 -1.37584,-2.15782 -1.37583,-3.7218 -10e-6,-1.61689 0.43509,-2.89865 1.30527,-3.84527 0.87606,-0.95249 2.05493,-1.42874 3.53659,-1.42875 1.32879,1e-5 2.3783,0.42922 3.14854,1.28763 0.7761,0.85256 1.16416,2.01378 1.16417,3.48368 m -1.62278,-0.47625 c -0.0118,-0.88781 -0.26165,-1.59631 -0.74965,-2.12548 -0.48214,-0.52916 -1.12301,-0.79374 -1.92264,-0.79375 -0.90546,1e-5 -1.6316,0.25577 -2.1784,0.76729 -0.54092,0.51153 -0.85254,1.23179 -0.93486,2.16076 l 5.78555,-0.009"
       style=""
       id="path3124" />
    <path
       d="m 642.13941,194.94143 -9.10166,3.23673 9.10166,3.2191 0,1.60513 -11.30652,-4.10103 0,-1.46403 11.30652,-4.10104 0,1.60514"
       style=""
       id="path3126" />
    <path
       d="m 652.05245,194.2447 0,1.53458 c -0.45862,-0.23518 -0.93486,-0.41157 -1.42875,-0.52917 -0.49389,-0.11758 -1.00542,-0.17638 -1.53458,-0.17639 -0.80551,1e-5 -1.41111,0.12348 -1.8168,0.37042 -0.39982,0.24695 -0.59973,0.61737 -0.59972,1.11125 -10e-6,0.3763 0.14405,0.67322 0.43215,0.89076 0.2881,0.21167 0.86724,0.41452 1.73743,0.60854 l 0.55562,0.12347 c 1.1524,0.24695 1.96967,0.59679 2.45181,1.04952 0.488,0.44685 0.732,1.07303 0.73201,1.87854 -1e-5,0.91722 -0.36455,1.64335 -1.09361,2.1784 -0.7232,0.53504 -1.7198,0.80256 -2.98979,0.80256 -0.52917,0 -1.08185,-0.0529 -1.65805,-0.15875 -0.57033,-0.0999 -1.17299,-0.25282 -1.80799,-0.45861 l 0,-1.67569 c 0.59972,0.31162 1.19062,0.54681 1.77271,0.70556 0.58208,0.15287 1.15828,0.2293 1.72861,0.2293 0.76434,0 1.35231,-0.12935 1.76388,-0.38805 0.41157,-0.26458 0.61736,-0.635 0.61737,-1.11125 -10e-6,-0.44097 -0.14994,-0.77905 -0.4498,-1.01424 -0.29398,-0.23518 -0.94368,-0.46154 -1.94909,-0.67909 l -0.56444,-0.13229 c -1.00542,-0.21167 -1.73156,-0.53505 -2.1784,-0.97014 -0.44686,-0.44097 -0.67028,-1.04363 -0.67028,-1.80799 0,-0.92897 0.32926,-1.64628 0.98777,-2.15194 0.65852,-0.50564 1.59338,-0.75846 2.80458,-0.75847 0.59972,1e-5 1.16416,0.0441 1.69334,0.13229 0.52916,0.0882 1.01716,0.2205 1.46402,0.39688"
       style=""
       id="path3128" />
    <path
       d="m 656.77967,191.14908 0,2.80457 3.34256,0 0,1.26118 -3.34256,0 0,5.36222 c -10e-6,0.80551 0.10877,1.32292 0.32632,1.55222 0.22342,0.22931 0.67321,0.34396 1.34937,0.34396 l 1.66687,0 0,1.35819 -1.66687,0 c -1.25236,0 -2.11667,-0.23224 -2.59291,-0.69673 -0.47625,-0.47037 -0.71438,-1.32292 -0.71438,-2.55764 l 0,-5.36222 -1.19062,0 0,-1.26118 1.19062,0 0,-2.80457 1.6316,0"
       style=""
       id="path3130" />
    <path
       d="m 667.98917,195.4706 c -0.18228,-0.10583 -0.38218,-0.18226 -0.59972,-0.22931 -0.21168,-0.0529 -0.44686,-0.0794 -0.70556,-0.0794 -0.91722,1e-5 -1.62278,0.29987 -2.11666,0.89958 -0.48801,0.59385 -0.73202,1.44933 -0.73201,2.56645 l 0,5.20347 -1.6316,0 0,-9.87777 1.6316,0 0,1.53459 c 0.34101,-0.59972 0.78492,-1.04363 1.33173,-1.33174 0.5468,-0.29397 1.2112,-0.44096 1.99319,-0.44097 0.11171,1e-5 0.23518,0.009 0.37042,0.0265 0.13522,0.0118 0.28515,0.0324 0.44979,0.0617 l 0.009,1.66688"
       style=""
       id="path3132" />
    <path
       d="m 669.70896,193.95365 1.62277,0 0,9.87777 -1.62277,0 0,-9.87777 m 0,-3.84527 1.62277,0 0,2.05493 -1.62277,0 0,-2.05493"
       style=""
       id="path3134" />
    <path
       d="m 682.92929,197.86948 0,5.96194 -1.62278,0 0,-5.90902 c -10e-6,-0.93485 -0.18227,-1.63453 -0.5468,-2.09903 -0.36455,-0.46448 -0.91135,-0.69672 -1.64042,-0.69673 -0.87607,1e-5 -1.56692,0.27929 -2.07256,0.83785 -0.50565,0.55857 -0.75848,1.31998 -0.75847,2.28423 l 0,5.5827 -1.6316,0 0,-9.87777 1.6316,0 0,1.53459 c 0.38805,-0.59384 0.84372,-1.03775 1.36701,-1.33174 0.52916,-0.29397 1.1377,-0.44096 1.82562,-0.44097 1.13476,1e-5 1.99318,0.35279 2.57527,1.05833 0.58208,0.69969 0.87312,1.73156 0.87313,3.09562"
       style=""
       id="path3136" />
    <path
       d="m 692.68358,198.77789 c -10e-6,-1.17592 -0.24401,-2.08726 -0.73201,-2.73403 -0.48214,-0.64675 -1.16123,-0.97013 -2.03729,-0.97014 -0.87019,1e-5 -1.54928,0.32339 -2.03729,0.97014 -0.48213,0.64677 -0.7232,1.55811 -0.72319,2.73403 -1e-5,1.17004 0.24106,2.07844 0.72319,2.7252 0.48801,0.64676 1.1671,0.97014 2.03729,0.97014 0.87606,0 1.55515,-0.32338 2.03729,-0.97014 0.488,-0.64676 0.732,-1.55516 0.73201,-2.7252 m 1.62278,3.82763 c -1e-5,1.68157 -0.37337,2.93099 -1.12007,3.74826 -0.74672,0.82314 -1.89031,1.23472 -3.43076,1.23472 -0.57033,0 -1.10831,-0.0441 -1.61396,-0.13229 -0.50565,-0.0823 -0.9966,-0.21167 -1.47284,-0.38806 l 0,-1.57868 c 0.47624,0.25871 0.94661,0.44979 1.41111,0.57327 0.46448,0.12347 0.93779,0.1852 1.41993,0.18521 1.0642,-1e-5 1.86089,-0.27929 2.39006,-0.83785 0.52916,-0.55269 0.79374,-1.39053 0.79375,-2.51354 l 0,-0.80257 c -0.33514,0.58209 -0.76436,1.01718 -1.28764,1.30528 -0.52329,0.2881 -1.14947,0.43215 -1.87853,0.43215 -1.21121,0 -2.18723,-0.46155 -2.92806,-1.38465 -0.74083,-0.9231 -1.11125,-2.14606 -1.11125,-3.66888 0,-1.5287 0.37042,-2.7546 1.11125,-3.67771 0.74083,-0.92309 1.71685,-1.38464 2.92806,-1.38465 0.72906,1e-5 1.35524,0.14406 1.87853,0.43215 0.52328,0.28811 0.9525,0.72321 1.28764,1.30528 l 0,-1.49931 1.62278,0 0,8.65187"
       style=""
       id="path3138" />
    <path
       d="m 697.86059,194.94143 0,-1.60514 11.30651,4.10104 0,1.46403 -11.30651,4.10103 0,-1.60513 9.08402,-3.2191 -9.08402,-3.23673"
       style=""
       id="path3140" />
  </g>
  <g
     id="g50"
     transform="translate(0,-3.7075663)">
    <path
       style="fill:none;stroke:#000000;stroke-width:2"
       d="m 360.73499,158.995 84.50302,-51.64"
       id="line52" />
    <path
       style="fill:none;stroke:#000000;stroke-width:2"
       d="m 453.771,102.14 -11.14,0.948 5.214,8.533 z"
       id="polygon54" />
  </g>
  <g
     id="g56"
     transform="translate(0,-3.7075663)">
    <path
       style="fill:none;stroke:#000000;stroke-width:2"
       d="m 490,158.995 0,-45.785"
       id="line58" />
    <path
       style="fill:none;stroke:#000000;stroke-width:2"
       d="m 490,103.21 -5,10 10,0 z"
       id="polygon60" />
  </g>
  <g
     id="g62"
     transform="translate(0,-3.7075663)">
    <path
       style="fill:none;stroke:#000000;stroke-width:2"
       d="m 619.26501,158.995 -84.50299,-51.64"
       id="line64" />
    <path
       style="fill:none;stroke:#000000;stroke-width:2"
       d="m 526.229,102.14 5.926,9.481 5.214,-8.533 z"
       id="polygon66" />
  </g>
  <g
     id="g68"
     transform="translate(0,-3.7075663)">
    <path
       style="fill:#ffffff"
       d="m 300,280 180,0 0,60 -180,0 z"
       id="rect70" />
    <path
       style="fill:none;stroke:#000000;stroke-width:2"
       d="m 300,280 180,0 0,60 -180,0 z"
       id="rect72" />
  </g>
  <g
     style="font-size:18.06220055px;font-style:normal;font-weight:normal;text-anchor:middle;fill:#000000;font-family:sans-serif"
     id="text74">
    <path
       d="m 326.45598,288.08603 2.65465,0 3.3602,8.96055 3.37785,-8.96055 2.65465,0 0,13.16742 -1.73743,0 0,-11.56228 -3.39548,9.0311 -1.79035,0 -3.39548,-9.0311 0,11.56228 -1.72861,0 0,-13.16742"
       style=""
       id="path3151" />
    <path
       d="m 343.54804,299.77178 0,5.23875 -1.63159,0 0,-13.63485 1.63159,0 0,1.49931 c 0.34102,-0.58796 0.77023,-1.02305 1.28764,-1.30528 0.52328,-0.28809 1.14652,-0.43214 1.86972,-0.43215 1.19943,10e-6 2.17251,0.47626 2.91923,1.42875 0.75258,0.9525 1.12888,2.20486 1.12889,3.75707 -10e-6,1.55223 -0.37631,2.80459 -1.12889,3.75708 -0.74672,0.9525 -1.7198,1.42875 -2.91923,1.42875 -0.7232,0 -1.34644,-0.14111 -1.86972,-0.42333 -0.51741,-0.2881 -0.94662,-0.72613 -1.28764,-1.3141 m 5.52097,-3.4484 c -10e-6,-1.19355 -0.24696,-2.12841 -0.74083,-2.80458 -0.48802,-0.68202 -1.16124,-1.02304 -2.01966,-1.02305 -0.85843,1e-5 -1.53458,0.34103 -2.02847,1.02305 -0.48801,0.67617 -0.73201,1.61103 -0.73201,2.80458 0,1.19357 0.244,2.13137 0.73201,2.8134 0.49389,0.67616 1.17004,1.01424 2.02847,1.01424 0.85842,0 1.53164,-0.33808 2.01966,-1.01424 0.49387,-0.68203 0.74082,-1.61983 0.74083,-2.8134"
       style=""
       id="path3153" />
    <path
       d="m 355.04858,288.5711 0,2.80458 3.34257,0 0,1.26118 -3.34257,0 0,5.36222 c 0,0.80551 0.10877,1.32291 0.32632,1.55222 0.22342,0.2293 0.67322,0.34396 1.34938,0.34396 l 1.66687,0 0,1.35819 -1.66687,0 c -1.25237,0 -2.11667,-0.23225 -2.59292,-0.69674 -0.47625,-0.47037 -0.71437,-1.32291 -0.71437,-2.55763 l 0,-5.36222 -1.19062,0 0,-1.26118 1.19062,0 0,-2.80458 1.63159,0"
       style=""
       id="path3155" />
    <path
       d="m 366.25809,292.89263 c -0.18228,-0.10583 -0.38219,-0.18226 -0.59973,-0.22931 -0.21167,-0.0529 -0.44685,-0.0794 -0.70555,-0.0794 -0.91723,0 -1.62278,0.29986 -2.11666,0.89958 -0.48802,0.59385 -0.73202,1.44933 -0.73202,2.56645 l 0,5.20347 -1.63159,0 0,-9.87777 1.63159,0 0,1.53458 c 0.34102,-0.59971 0.78493,-1.04362 1.33174,-1.33173 0.5468,-0.29397 1.21119,-0.44096 1.99319,-0.44097 0.1117,10e-6 0.23518,0.009 0.37042,0.0265 0.13522,0.0118 0.28515,0.0323 0.44979,0.0617 l 0.009,1.66688"
       style=""
       id="path3157" />
    <path
       d="m 366.22281,288.08603 11.13894,0 0,1.49931 -4.6743,0 0,11.66811 -1.79034,0 0,-11.66811 -4.6743,0 0,-1.49931"
       style=""
       id="path3159" />
    <path
       d="m 380.30744,302.17067 c -0.45861,1.17592 -0.90546,1.94321 -1.34055,2.30187 -0.4351,0.35866 -1.01718,0.53798 -1.74625,0.53799 l -1.29645,0 0,-1.3582 0.95249,0 c 0.44685,0 0.79375,-0.10583 1.0407,-0.3175 0.24694,-0.21166 0.52034,-0.71143 0.8202,-1.4993 l 0.29105,-0.74083 -3.99521,-9.71902 1.71979,0 3.0868,7.72583 3.08681,-7.72583 1.71979,0 -4.33917,10.79499"
       style=""
       id="path3161" />
    <path
       d="m 388.4566,299.77178 0,5.23875 -1.6316,0 0,-13.63485 1.6316,0 0,1.49931 c 0.34101,-0.58796 0.77023,-1.02305 1.28764,-1.30528 0.52328,-0.28809 1.14652,-0.43214 1.86972,-0.43215 1.19943,10e-6 2.17251,0.47626 2.91923,1.42875 0.75258,0.9525 1.12888,2.20486 1.12889,3.75707 -10e-6,1.55223 -0.37631,2.80459 -1.12889,3.75708 -0.74672,0.9525 -1.7198,1.42875 -2.91923,1.42875 -0.7232,0 -1.34644,-0.14111 -1.86972,-0.42333 -0.51741,-0.2881 -0.94663,-0.72613 -1.28764,-1.3141 m 5.52096,-3.4484 c 0,-1.19355 -0.24695,-2.12841 -0.74083,-2.80458 -0.48801,-0.68202 -1.16123,-1.02304 -2.01965,-1.02305 -0.85843,1e-5 -1.53458,0.34103 -2.02847,1.02305 -0.48801,0.67617 -0.73201,1.61103 -0.73201,2.80458 0,1.19357 0.244,2.13137 0.73201,2.8134 0.49389,0.67616 1.17004,1.01424 2.02847,1.01424 0.85842,0 1.53164,-0.33808 2.01965,-1.01424 0.49388,-0.68203 0.74083,-1.61983 0.74083,-2.8134"
       style=""
       id="path3163" />
    <path
       d="m 406.80102,295.90887 0,0.79375 -7.46124,0 c 0.0706,1.11713 0.40569,1.96968 1.00542,2.55764 0.6056,0.58208 1.44638,0.87312 2.52236,0.87312 0.62323,0 1.22589,-0.0764 1.80798,-0.2293 0.58795,-0.15287 1.17004,-0.38218 1.74625,-0.68792 l 0,1.53458 c -0.58209,0.24695 -1.17887,0.43509 -1.79035,0.56444 -0.61148,0.12936 -1.23178,0.19403 -1.8609,0.19403 -1.57574,0 -2.82516,-0.45861 -3.74826,-1.37583 -0.91722,-0.91722 -1.37583,-2.15782 -1.37583,-3.7218 0,-1.61689 0.43509,-2.89865 1.30528,-3.84527 0.87606,-0.95249 2.05492,-1.42874 3.53659,-1.42875 1.32879,10e-6 2.3783,0.42922 3.14854,1.28764 0.7761,0.85255 1.16415,2.01377 1.16416,3.48367 m -1.62277,-0.47625 c -0.0118,-0.88781 -0.26165,-1.59631 -0.74965,-2.12548 -0.48214,-0.52916 -1.12302,-0.79374 -1.92264,-0.79375 -0.90547,10e-6 -1.6316,0.25577 -2.1784,0.76729 -0.54093,0.51153 -0.85255,1.23179 -0.93486,2.16076 l 5.78555,-0.009"
       style=""
       id="path3165" />
    <path
       d="m 419.39518,289.10027 0,1.87854 c -0.59974,-0.55856 -1.24061,-0.97601 -1.92264,-1.25236 -0.67617,-0.27633 -1.39642,-0.4145 -2.16076,-0.41451 -1.50519,1e-5 -2.6576,0.46156 -3.45722,1.38465 -0.79963,0.91723 -1.19944,2.24602 -1.19944,3.98638 0,1.73449 0.39981,3.06329 1.19944,3.98638 0.79962,0.91723 1.95203,1.37584 3.45722,1.37584 0.76434,0 1.48459,-0.13817 2.16076,-0.41452 0.68203,-0.27634 1.3229,-0.69379 1.92264,-1.25236 l 0,1.8609 c -0.62325,0.42334 -1.28471,0.74084 -1.98438,0.9525 -0.6938,0.21167 -1.42875,0.3175 -2.20485,0.3175 -1.9932,0 -3.56306,-0.60854 -4.70958,-1.82562 -1.14653,-1.22296 -1.71979,-2.88983 -1.71979,-5.00062 0,-2.11666 0.57326,-3.78353 1.71979,-5.00062 1.14652,-1.22295 2.71638,-1.83443 4.70958,-1.83444 0.78786,10e-6 1.52869,0.10585 2.22249,0.3175 0.69967,0.2058 1.35525,0.51742 1.96674,0.93486"
       style=""
       id="path3167" />
    <path
       d="m 422.09392,287.53041 1.62278,0 0,13.72304 -1.62278,0 0,-13.72304"
       style=""
       id="path3169" />
    <path
       d="m 431.59245,296.28811 c -1.31116,0 -2.21956,0.14993 -2.72521,0.44979 -0.50565,0.29986 -0.75847,0.81139 -0.75847,1.53458 0,0.57621 0.18815,1.03482 0.56445,1.37583 0.38217,0.33514 0.89957,0.50271 1.55222,0.50271 0.89957,0 1.61983,-0.3175 2.16076,-0.9525 0.5468,-0.64088 0.8202,-1.49048 0.82021,-2.54882 l 0,-0.36159 -1.61396,0 m 3.23673,-0.67028 0,5.63562 -1.62277,0 0,-1.49931 c -0.37043,0.59973 -0.83198,1.04364 -1.38466,1.33174 -0.55269,0.28222 -1.22884,0.42333 -2.02847,0.42333 -1.01129,0 -1.8168,-0.28222 -2.41652,-0.84666 -0.59384,-0.57033 -0.89076,-1.33174 -0.89076,-2.28424 0,-1.11124 0.37041,-1.94909 1.11125,-2.51354 0.7467,-0.56443 1.85795,-0.84666 3.33374,-0.84666 l 2.27542,0 0,-0.15875 c -1e-5,-0.74671 -0.24696,-1.32291 -0.74084,-1.72861 -0.48801,-0.41157 -1.17593,-0.61735 -2.06374,-0.61736 -0.56445,10e-6 -1.1142,0.0676 -1.64924,0.20285 -0.53505,0.13524 -1.04951,0.33808 -1.5434,0.60854 l 0,-1.49931 c 0.59384,-0.22929 1.17004,-0.3998 1.72861,-0.51152 0.55856,-0.11759 1.10242,-0.17638 1.63159,-0.17639 1.42875,10e-6 2.4959,0.37042 3.20146,1.11125 0.70554,0.74084 1.05832,1.86384 1.05833,3.36902"
       style=""
       id="path3171" />
    <path
       d="m 444.47764,291.66672 0,1.53459 c -0.45862,-0.23518 -0.93486,-0.41157 -1.42875,-0.52917 -0.49389,-0.11758 -1.00542,-0.17638 -1.53458,-0.17639 -0.80551,1e-5 -1.41111,0.12348 -1.8168,0.37042 -0.39982,0.24695 -0.59972,0.61737 -0.59972,1.11125 0,0.3763 0.14405,0.67322 0.43215,0.89076 0.2881,0.21167 0.86724,0.41452 1.73743,0.60854 l 0.55562,0.12347 c 1.1524,0.24695 1.96967,0.59679 2.45181,1.04951 0.488,0.44686 0.732,1.07304 0.73201,1.87854 -10e-6,0.91723 -0.36455,1.64336 -1.09361,2.1784 -0.7232,0.53505 -1.7198,0.80257 -2.98979,0.80257 -0.52917,0 -1.08185,-0.0529 -1.65805,-0.15875 -0.57033,-0.0999 -1.17299,-0.25282 -1.80799,-0.45861 l 0,-1.67569 c 0.59972,0.31162 1.19062,0.54681 1.77271,0.70555 0.58208,0.15288 1.15828,0.22931 1.72861,0.22931 0.76434,0 1.35231,-0.12935 1.76389,-0.38806 0.41156,-0.26458 0.61735,-0.63499 0.61736,-1.11124 -1e-5,-0.44097 -0.14994,-0.77905 -0.4498,-1.01424 -0.29398,-0.23518 -0.94368,-0.46155 -1.94909,-0.6791 l -0.56444,-0.13229 c -1.00542,-0.21166 -1.73156,-0.53504 -2.1784,-0.97014 -0.44686,-0.44096 -0.67028,-1.04362 -0.67028,-1.80798 0,-0.92897 0.32926,-1.64628 0.98778,-2.15194 0.65851,-0.50564 1.59337,-0.75846 2.80458,-0.75847 0.59971,10e-6 1.16415,0.0441 1.69333,0.13229 0.52916,0.0882 1.01716,0.22049 1.46402,0.39687"
       style=""
       id="path3173" />
    <path
       d="m 453.89679,291.66672 0,1.53459 c -0.45861,-0.23518 -0.93486,-0.41157 -1.42874,-0.52917 -0.4939,-0.11758 -1.00543,-0.17638 -1.53459,-0.17639 -0.80551,1e-5 -1.41111,0.12348 -1.8168,0.37042 -0.39982,0.24695 -0.59972,0.61737 -0.59972,1.11125 0,0.3763 0.14405,0.67322 0.43215,0.89076 0.2881,0.21167 0.86724,0.41452 1.73743,0.60854 l 0.55562,0.12347 c 1.1524,0.24695 1.96967,0.59679 2.45181,1.04951 0.488,0.44686 0.732,1.07304 0.73201,1.87854 -10e-6,0.91723 -0.36454,1.64336 -1.09361,2.1784 -0.7232,0.53505 -1.7198,0.80257 -2.98979,0.80257 -0.52917,0 -1.08185,-0.0529 -1.65805,-0.15875 -0.57033,-0.0999 -1.17299,-0.25282 -1.80799,-0.45861 l 0,-1.67569 c 0.59972,0.31162 1.19063,0.54681 1.77271,0.70555 0.58208,0.15288 1.15828,0.22931 1.72861,0.22931 0.76435,0 1.35231,-0.12935 1.76389,-0.38806 0.41156,-0.26458 0.61735,-0.63499 0.61736,-1.11124 -1e-5,-0.44097 -0.14994,-0.77905 -0.44979,-1.01424 -0.29399,-0.23518 -0.94369,-0.46155 -1.9491,-0.6791 l -0.56444,-0.13229 c -1.00542,-0.21166 -1.73155,-0.53504 -2.1784,-0.97014 -0.44686,-0.44096 -0.67028,-1.04362 -0.67028,-1.80798 0,-0.92897 0.32926,-1.64628 0.98778,-2.15194 0.65851,-0.50564 1.59337,-0.75846 2.80458,-0.75847 0.59971,10e-6 1.16416,0.0441 1.69333,0.13229 0.52916,0.0882 1.01716,0.22049 1.46402,0.39687"
       style=""
       id="path3175" />
    <path
       d="m 329.11945,314.94146 -9.10166,3.23673 9.10166,3.2191 0,1.60513 -11.30652,-4.10103 0,-1.46403 11.30652,-4.10103 0,1.60513"
       style=""
       id="path3177" />
    <path
       d="m 334.5875,312.12806 0,4.94771 2.24013,0 c 0.82902,0 1.4699,-0.2146 1.92264,-0.64382 0.45272,-0.42921 0.67909,-1.04069 0.6791,-1.83445 -1e-5,-0.78786 -0.22638,-1.3964 -0.6791,-1.82562 -0.45274,-0.4292 -1.09362,-0.64381 -1.92264,-0.64382 l -2.24013,0 m -1.78153,-1.46402 4.02166,0 c 1.47578,10e-6 2.58997,0.33515 3.34257,1.00541 0.75846,0.66441 1.1377,1.64043 1.13771,2.92805 -10e-6,1.29941 -0.37925,2.2813 -1.13771,2.9457 -0.7526,0.6644 -1.86679,0.9966 -3.34257,0.99659 l -2.24013,0 0,5.29166 -1.78153,0 0,-13.16741"
       style=""
       id="path3179" />
    <path
       d="m 346.82887,315.09139 c -0.87019,1e-5 -1.5581,0.34103 -2.06374,1.02306 -0.50566,0.67616 -0.75848,1.60514 -0.75848,2.78694 0,1.18181 0.24988,2.11373 0.74966,2.79576 0.50564,0.67616 1.19649,1.01423 2.07256,1.01423 0.8643,0 1.54928,-0.34101 2.05493,-1.02305 0.50564,-0.68203 0.75846,-1.61101 0.75847,-2.78694 -10e-6,-1.17004 -0.25283,-2.09608 -0.75847,-2.77812 -0.50565,-0.68791 -1.19063,-1.03187 -2.05493,-1.03188 m 0,-1.37583 c 1.41111,1e-5 2.51941,0.45862 3.32493,1.37583 0.8055,0.91723 1.20825,2.18723 1.20826,3.81 -10e-6,1.6169 -0.40276,2.88689 -1.20826,3.80999 -0.80552,0.91722 -1.91382,1.37583 -3.32493,1.37583 -1.41699,0 -2.52824,-0.45861 -3.33374,-1.37583 -0.79963,-0.9231 -1.19945,-2.19309 -1.19945,-3.80999 0,-1.62277 0.39982,-2.89277 1.19945,-3.81 0.8055,-0.91721 1.91675,-1.37582 3.33374,-1.37583"
       style=""
       id="path3181" />
    <path
       d="m 354.04317,313.95369 1.62278,0 0,9.87776 -1.62278,0 0,-9.87776 m 0,-3.84528 1.62278,0 0,2.05493 -1.62278,0 0,-2.05493"
       style=""
       id="path3183" />
    <path
       d="m 367.2635,317.86951 0,5.96194 -1.62278,0 0,-5.90902 c 0,-0.93485 -0.18227,-1.63453 -0.5468,-2.09902 -0.36454,-0.46449 -0.91135,-0.69673 -1.64042,-0.69674 -0.87606,1e-5 -1.56692,0.27929 -2.07256,0.83785 -0.50565,0.55857 -0.75848,1.31998 -0.75847,2.28423 l 0,5.5827 -1.6316,0 0,-9.87776 1.6316,0 0,1.53458 c 0.38805,-0.59384 0.84372,-1.03775 1.36701,-1.33174 0.52916,-0.29397 1.1377,-0.44096 1.82562,-0.44097 1.13476,1e-5 1.99319,0.35279 2.57528,1.05833 0.58207,0.69969 0.87311,1.73156 0.87312,3.09562"
       style=""
       id="path3185" />
    <path
       d="m 372.12301,311.14911 0,2.80458 3.34256,0 0,1.26117 -3.34256,0 0,5.36222 c -1e-5,0.80551 0.10877,1.32292 0.32632,1.55222 0.22342,0.22931 0.67321,0.34396 1.34937,0.34396 l 1.66687,0 0,1.35819 -1.66687,0 c -1.25236,0 -2.11667,-0.23224 -2.59291,-0.69673 -0.47625,-0.47037 -0.71438,-1.32292 -0.71438,-2.55764 l 0,-5.36222 -1.19062,0 0,-1.26117 1.19062,0 0,-2.80458 1.6316,0"
       style=""
       id="path3187" />
    <path
       d="m 378.02321,321.59132 1.8609,0 0,1.51694 -1.44639,2.82222 -1.13771,0 0.7232,-2.82222 0,-1.51694"
       style=""
       id="path3189" />
    <path
       d="m 395.60916,315.45299 0,-5.34458 1.62278,0 0,13.72304 -1.62278,0 0,-1.48166 c -0.34102,0.58796 -0.77317,1.02599 -1.29645,1.31409 -0.51742,0.28222 -1.14066,0.42333 -1.86972,0.42333 -1.19357,0 -2.16665,-0.47624 -2.91924,-1.42874 -0.74671,-0.9525 -1.12007,-2.20486 -1.12006,-3.75708 -10e-6,-1.55222 0.37335,-2.80457 1.12006,-3.75708 0.75259,-0.95249 1.72567,-1.42874 2.91924,-1.42875 0.72906,1e-5 1.3523,0.14406 1.86972,0.43215 0.52328,0.28223 0.95543,0.71733 1.29645,1.30528 m -5.52978,3.4484 c 0,1.19357 0.244,2.13136 0.73201,2.8134 0.49389,0.67616 1.17004,1.01423 2.02847,1.01423 0.85842,0 1.53458,-0.33807 2.02847,-1.01423 0.49388,-0.68204 0.74082,-1.61983 0.74083,-2.8134 -10e-6,-1.19356 -0.24695,-2.12842 -0.74083,-2.80458 -0.49389,-0.68203 -1.17005,-1.02305 -2.02847,-1.02306 -0.85843,10e-6 -1.53458,0.34103 -2.02847,1.02306 -0.48801,0.67616 -0.73201,1.61102 -0.73201,2.80458"
       style=""
       id="path3191" />
    <path
       d="m 404.40214,315.09139 c -0.87019,1e-5 -1.55811,0.34103 -2.06375,1.02306 -0.50565,0.67616 -0.75847,1.60514 -0.75847,2.78694 0,1.18181 0.24988,2.11373 0.74965,2.79576 0.50564,0.67616 1.1965,1.01423 2.07257,1.01423 0.8643,0 1.54927,-0.34101 2.05493,-1.02305 0.50564,-0.68203 0.75846,-1.61101 0.75847,-2.78694 -10e-6,-1.17004 -0.25283,-2.09608 -0.75847,-2.77812 -0.50566,-0.68791 -1.19063,-1.03187 -2.05493,-1.03188 m 0,-1.37583 c 1.4111,1e-5 2.51941,0.45862 3.32492,1.37583 0.8055,0.91723 1.20826,2.18723 1.20827,3.81 -1e-5,1.6169 -0.40277,2.88689 -1.20827,3.80999 -0.80551,0.91722 -1.91382,1.37583 -3.32492,1.37583 -1.417,0 -2.52824,-0.45861 -3.33375,-1.37583 -0.79963,-0.9231 -1.19944,-2.19309 -1.19944,-3.80999 0,-1.62277 0.39981,-2.89277 1.19944,-3.81 0.80551,-0.91721 1.91675,-1.37582 3.33375,-1.37583"
       style=""
       id="path3193" />
    <path
       d="m 411.44887,319.93326 0,-5.97957 1.62277,0 0,5.91784 c 0,0.93486 0.18227,1.63747 0.54681,2.10784 0.36453,0.46449 0.91133,0.69674 1.64041,0.69674 0.87606,0 1.56691,-0.27929 2.07257,-0.83785 0.51152,-0.55856 0.76728,-1.31997 0.76729,-2.28423 l 0,-5.60034 1.62277,0 0,9.87776 -1.62277,0 0,-1.51694 c -0.39394,0.59972 -0.85255,1.04657 -1.37583,1.34055 -0.51742,0.2881 -1.12008,0.43215 -1.80799,0.43215 -1.13477,0 -1.99613,-0.35277 -2.58409,-1.05833 -0.58797,-0.70555 -0.88195,-1.73742 -0.88194,-3.09562 m 4.08339,-6.2177 0,0"
       style=""
       id="path3195" />
    <path
       d="m 430.17252,318.90139 c -1e-5,-1.19356 -0.24695,-2.12842 -0.74083,-2.80458 -0.48802,-0.68203 -1.16123,-1.02305 -2.01965,-1.02306 -0.85843,10e-6 -1.53459,0.34103 -2.02847,1.02306 -0.48801,0.67616 -0.73202,1.61102 -0.73201,2.80458 -1e-5,1.19357 0.244,2.13136 0.73201,2.8134 0.49388,0.67616 1.17004,1.01423 2.02847,1.01423 0.85842,0 1.53163,-0.33807 2.01965,-1.01423 0.49388,-0.68204 0.74082,-1.61983 0.74083,-2.8134 m -5.52096,-3.4484 c 0.34101,-0.58795 0.77022,-1.02305 1.28763,-1.30528 0.52329,-0.28809 1.14653,-0.43214 1.86972,-0.43215 1.19944,1e-5 2.17252,0.47626 2.91924,1.42875 0.75258,0.95251 1.12887,2.20486 1.12888,3.75708 -1e-5,1.55222 -0.3763,2.80458 -1.12888,3.75708 -0.74672,0.9525 -1.7198,1.42874 -2.91924,1.42874 -0.72319,0 -1.34643,-0.14111 -1.86972,-0.42333 -0.51741,-0.2881 -0.94662,-0.72613 -1.28763,-1.31409 l 0,1.48166 -1.6316,0 0,-13.72304 1.6316,0 0,5.34458"
       style=""
       id="path3197" />
    <path
       d="m 434.54696,310.10841 1.62278,0 0,13.72304 -1.62278,0 0,-13.72304"
       style=""
       id="path3199" />
    <path
       d="m 448.00542,318.48687 0,0.79375 -7.46124,0 c 0.0706,1.11714 0.40569,1.96968 1.00541,2.55764 0.6056,0.58208 1.44638,0.87312 2.52236,0.87312 0.62323,0 1.22589,-0.0764 1.80798,-0.2293 0.58796,-0.15287 1.17004,-0.38218 1.74625,-0.68792 l 0,1.53458 c -0.58209,0.24695 -1.17887,0.4351 -1.79034,0.56445 -0.61149,0.12935 -1.23179,0.19402 -1.8609,0.19402 -1.57575,0 -2.82517,-0.45861 -3.74826,-1.37583 -0.91723,-0.91722 -1.37584,-2.15781 -1.37584,-3.7218 0,-1.61689 0.43509,-2.89864 1.30528,-3.84527 0.87606,-0.95249 2.05492,-1.42874 3.53659,-1.42875 1.32879,1e-5 2.3783,0.42922 3.14854,1.28764 0.7761,0.85255 1.16416,2.01378 1.16417,3.48367 m -1.62278,-0.47624 c -0.0118,-0.88782 -0.26165,-1.59632 -0.74965,-2.12549 -0.48214,-0.52916 -1.12302,-0.79374 -1.92264,-0.79375 -0.90546,1e-5 -1.6316,0.25577 -2.1784,0.76729 -0.54093,0.51154 -0.85255,1.23179 -0.93486,2.16076 l 5.78555,-0.009"
       style=""
       id="path3201" />
    <path
       d="m 450.88056,314.94146 0,-1.60513 11.30652,4.10103 0,1.46403 -11.30652,4.10103 0,-1.60513 9.08402,-3.2191 -9.08402,-3.23673"
       style=""
       id="path3203" />
  </g>
  <g
     id="g80"
     transform="translate(0,-3.7075663)">
    <path
       style="fill:#ffffff"
       d="m 520,280 180,0 0,60 -180,0 z"
       id="rect82" />
    <path
       style="fill:none;stroke:#000000;stroke-width:2"
       d="m 520,280 180,0 0,60 -180,0 z"
       id="rect84" />
  </g>
  <g
     style="font-size:18.06220055px;font-style:normal;font-weight:normal;text-anchor:middle;fill:#000000;font-family:sans-serif"
     id="text86">
    <path
       d="m 546.45598,288.08603 2.65465,0 3.3602,8.96055 3.37785,-8.96055 2.65465,0 0,13.16742 -1.73743,0 0,-11.56228 -3.39548,9.0311 -1.79035,0 -3.39548,-9.0311 0,11.56228 -1.72861,0 0,-13.16742"
       style=""
       id="path3208" />
    <path
       d="m 563.54804,299.77178 0,5.23875 -1.63159,0 0,-13.63485 1.63159,0 0,1.49931 c 0.34102,-0.58796 0.77023,-1.02305 1.28764,-1.30528 0.52328,-0.28809 1.14652,-0.43214 1.86972,-0.43215 1.19943,10e-6 2.17251,0.47626 2.91923,1.42875 0.75258,0.9525 1.12888,2.20486 1.12889,3.75707 -10e-6,1.55223 -0.37631,2.80459 -1.12889,3.75708 -0.74672,0.9525 -1.7198,1.42875 -2.91923,1.42875 -0.7232,0 -1.34644,-0.14111 -1.86972,-0.42333 -0.51741,-0.2881 -0.94662,-0.72613 -1.28764,-1.3141 m 5.52097,-3.4484 c -1e-5,-1.19355 -0.24696,-2.12841 -0.74083,-2.80458 -0.48802,-0.68202 -1.16124,-1.02304 -2.01966,-1.02305 -0.85843,1e-5 -1.53458,0.34103 -2.02847,1.02305 -0.48801,0.67617 -0.73201,1.61103 -0.73201,2.80458 0,1.19357 0.244,2.13137 0.73201,2.8134 0.49389,0.67616 1.17004,1.01424 2.02847,1.01424 0.85842,0 1.53164,-0.33808 2.01966,-1.01424 0.49387,-0.68203 0.74082,-1.61983 0.74083,-2.8134"
       style=""
       id="path3210" />
    <path
       d="m 575.04858,288.5711 0,2.80458 3.34257,0 0,1.26118 -3.34257,0 0,5.36222 c 0,0.80551 0.10877,1.32291 0.32632,1.55222 0.22342,0.2293 0.67322,0.34396 1.34938,0.34396 l 1.66687,0 0,1.35819 -1.66687,0 c -1.25237,0 -2.11667,-0.23225 -2.59292,-0.69674 -0.47625,-0.47037 -0.71437,-1.32291 -0.71437,-2.55763 l 0,-5.36222 -1.19062,0 0,-1.26118 1.19062,0 0,-2.80458 1.63159,0"
       style=""
       id="path3212" />
    <path
       d="m 586.25809,292.89263 c -0.18228,-0.10583 -0.38219,-0.18226 -0.59973,-0.22931 -0.21167,-0.0529 -0.44685,-0.0794 -0.70555,-0.0794 -0.91723,0 -1.62278,0.29986 -2.11666,0.89958 -0.48802,0.59385 -0.73202,1.44933 -0.73202,2.56645 l 0,5.20347 -1.63159,0 0,-9.87777 1.63159,0 0,1.53458 c 0.34102,-0.59971 0.78493,-1.04362 1.33174,-1.33173 0.5468,-0.29397 1.21119,-0.44096 1.99319,-0.44097 0.1117,10e-6 0.23518,0.009 0.37042,0.0265 0.13522,0.0118 0.28515,0.0323 0.44979,0.0617 l 0.009,1.66688"
       style=""
       id="path3214" />
    <path
       d="m 586.22281,288.08603 11.13894,0 0,1.49931 -4.6743,0 0,11.66811 -1.79034,0 0,-11.66811 -4.6743,0 0,-1.49931"
       style=""
       id="path3216" />
    <path
       d="m 600.30744,302.17067 c -0.45861,1.17592 -0.90546,1.94321 -1.34055,2.30187 -0.4351,0.35866 -1.01718,0.53798 -1.74625,0.53799 l -1.29645,0 0,-1.3582 0.95249,0 c 0.44685,0 0.79375,-0.10583 1.0407,-0.3175 0.24694,-0.21166 0.52034,-0.71143 0.8202,-1.4993 l 0.29105,-0.74083 -3.99521,-9.71902 1.71979,0 3.0868,7.72583 3.08681,-7.72583 1.71979,0 -4.33917,10.79499"
       style=""
       id="path3218" />
    <path
       d="m 608.4566,299.77178 0,5.23875 -1.6316,0 0,-13.63485 1.6316,0 0,1.49931 c 0.34101,-0.58796 0.77023,-1.02305 1.28764,-1.30528 0.52328,-0.28809 1.14652,-0.43214 1.86972,-0.43215 1.19943,10e-6 2.17251,0.47626 2.91923,1.42875 0.75258,0.9525 1.12888,2.20486 1.12889,3.75707 -10e-6,1.55223 -0.37631,2.80459 -1.12889,3.75708 -0.74672,0.9525 -1.7198,1.42875 -2.91923,1.42875 -0.7232,0 -1.34644,-0.14111 -1.86972,-0.42333 -0.51741,-0.2881 -0.94663,-0.72613 -1.28764,-1.3141 m 5.52096,-3.4484 c 0,-1.19355 -0.24695,-2.12841 -0.74083,-2.80458 -0.48801,-0.68202 -1.16123,-1.02304 -2.01965,-1.02305 -0.85843,1e-5 -1.53458,0.34103 -2.02847,1.02305 -0.48801,0.67617 -0.73201,1.61103 -0.73201,2.80458 0,1.19357 0.244,2.13137 0.73201,2.8134 0.49389,0.67616 1.17004,1.01424 2.02847,1.01424 0.85842,0 1.53164,-0.33808 2.01965,-1.01424 0.49388,-0.68203 0.74083,-1.61983 0.74083,-2.8134"
       style=""
       id="path3220" />
    <path
       d="m 626.80102,295.90887 0,0.79375 -7.46124,0 c 0.0706,1.11713 0.40569,1.96968 1.00542,2.55764 0.6056,0.58208 1.44638,0.87312 2.52236,0.87312 0.62323,0 1.22589,-0.0764 1.80798,-0.2293 0.58795,-0.15287 1.17004,-0.38218 1.74625,-0.68792 l 0,1.53458 c -0.58209,0.24695 -1.17887,0.43509 -1.79035,0.56444 -0.61148,0.12936 -1.23178,0.19403 -1.8609,0.19403 -1.57574,0 -2.82516,-0.45861 -3.74826,-1.37583 -0.91722,-0.91722 -1.37583,-2.15782 -1.37583,-3.7218 0,-1.61689 0.43509,-2.89865 1.30528,-3.84527 0.87606,-0.95249 2.05492,-1.42874 3.53659,-1.42875 1.32879,10e-6 2.3783,0.42922 3.14854,1.28764 0.7761,0.85255 1.16415,2.01377 1.16416,3.48367 m -1.62277,-0.47625 c -0.0118,-0.88781 -0.26165,-1.59631 -0.74965,-2.12548 -0.48214,-0.52916 -1.12302,-0.79374 -1.92264,-0.79375 -0.90547,10e-6 -1.6316,0.25577 -2.1784,0.76729 -0.54093,0.51153 -0.85255,1.23179 -0.93486,2.16076 l 5.78555,-0.009"
       style=""
       id="path3222" />
    <path
       d="m 639.39518,289.10027 0,1.87854 c -0.59974,-0.55856 -1.24061,-0.97601 -1.92264,-1.25236 -0.67617,-0.27633 -1.39642,-0.4145 -2.16076,-0.41451 -1.50519,1e-5 -2.6576,0.46156 -3.45722,1.38465 -0.79963,0.91723 -1.19944,2.24602 -1.19944,3.98638 0,1.73449 0.39981,3.06329 1.19944,3.98638 0.79962,0.91723 1.95203,1.37584 3.45722,1.37584 0.76434,0 1.48459,-0.13817 2.16076,-0.41452 0.68203,-0.27634 1.3229,-0.69379 1.92264,-1.25236 l 0,1.8609 c -0.62325,0.42334 -1.28471,0.74084 -1.98438,0.9525 -0.6938,0.21167 -1.42875,0.3175 -2.20485,0.3175 -1.9932,0 -3.56306,-0.60854 -4.70958,-1.82562 -1.14653,-1.22296 -1.71979,-2.88983 -1.71979,-5.00062 0,-2.11666 0.57326,-3.78353 1.71979,-5.00062 1.14652,-1.22295 2.71638,-1.83443 4.70958,-1.83444 0.78786,10e-6 1.52869,0.10585 2.22249,0.3175 0.69967,0.2058 1.35525,0.51742 1.96674,0.93486"
       style=""
       id="path3224" />
    <path
       d="m 642.09392,287.53041 1.62278,0 0,13.72304 -1.62278,0 0,-13.72304"
       style=""
       id="path3226" />
    <path
       d="m 651.59245,296.28811 c -1.31116,0 -2.21956,0.14993 -2.72521,0.44979 -0.50565,0.29986 -0.75847,0.81139 -0.75847,1.53458 0,0.57621 0.18815,1.03482 0.56445,1.37583 0.38217,0.33514 0.89957,0.50271 1.55222,0.50271 0.89957,0 1.61983,-0.3175 2.16076,-0.9525 0.5468,-0.64088 0.8202,-1.49048 0.82021,-2.54882 l 0,-0.36159 -1.61396,0 m 3.23673,-0.67028 0,5.63562 -1.62277,0 0,-1.49931 c -0.37043,0.59973 -0.83198,1.04364 -1.38466,1.33174 -0.55269,0.28222 -1.22884,0.42333 -2.02847,0.42333 -1.01129,0 -1.8168,-0.28222 -2.41652,-0.84666 -0.59384,-0.57033 -0.89076,-1.33174 -0.89076,-2.28424 0,-1.11124 0.37041,-1.94909 1.11125,-2.51354 0.7467,-0.56443 1.85795,-0.84666 3.33374,-0.84666 l 2.27542,0 0,-0.15875 c -10e-6,-0.74671 -0.24696,-1.32291 -0.74084,-1.72861 -0.48801,-0.41157 -1.17593,-0.61735 -2.06374,-0.61736 -0.56445,10e-6 -1.1142,0.0676 -1.64924,0.20285 -0.53505,0.13524 -1.04951,0.33808 -1.5434,0.60854 l 0,-1.49931 c 0.59384,-0.22929 1.17004,-0.3998 1.72861,-0.51152 0.55856,-0.11759 1.10242,-0.17638 1.63159,-0.17639 1.42875,10e-6 2.4959,0.37042 3.20146,1.11125 0.70554,0.74084 1.05832,1.86384 1.05833,3.36902"
       style=""
       id="path3228" />
    <path
       d="m 664.47764,291.66672 0,1.53459 c -0.45862,-0.23518 -0.93486,-0.41157 -1.42875,-0.52917 -0.49389,-0.11758 -1.00542,-0.17638 -1.53458,-0.17639 -0.80551,1e-5 -1.41111,0.12348 -1.8168,0.37042 -0.39982,0.24695 -0.59972,0.61737 -0.59972,1.11125 0,0.3763 0.14405,0.67322 0.43215,0.89076 0.2881,0.21167 0.86724,0.41452 1.73743,0.60854 l 0.55562,0.12347 c 1.1524,0.24695 1.96967,0.59679 2.45181,1.04951 0.488,0.44686 0.732,1.07304 0.73201,1.87854 -10e-6,0.91723 -0.36455,1.64336 -1.09361,2.1784 -0.7232,0.53505 -1.7198,0.80257 -2.98979,0.80257 -0.52917,0 -1.08185,-0.0529 -1.65805,-0.15875 -0.57033,-0.0999 -1.17299,-0.25282 -1.80799,-0.45861 l 0,-1.67569 c 0.59972,0.31162 1.19062,0.54681 1.77271,0.70555 0.58208,0.15288 1.15828,0.22931 1.72861,0.22931 0.76434,0 1.35231,-0.12935 1.76389,-0.38806 0.41156,-0.26458 0.61735,-0.63499 0.61736,-1.11124 -10e-6,-0.44097 -0.14994,-0.77905 -0.4498,-1.01424 -0.29398,-0.23518 -0.94368,-0.46155 -1.94909,-0.6791 l -0.56444,-0.13229 c -1.00542,-0.21166 -1.73156,-0.53504 -2.1784,-0.97014 -0.44686,-0.44096 -0.67028,-1.04362 -0.67028,-1.80798 0,-0.92897 0.32926,-1.64628 0.98778,-2.15194 0.65851,-0.50564 1.59337,-0.75846 2.80458,-0.75847 0.59971,10e-6 1.16415,0.0441 1.69333,0.13229 0.52916,0.0882 1.01716,0.22049 1.46402,0.39687"
       style=""
       id="path3230" />
    <path
       d="m 673.89679,291.66672 0,1.53459 c -0.45861,-0.23518 -0.93486,-0.41157 -1.42874,-0.52917 -0.4939,-0.11758 -1.00543,-0.17638 -1.53459,-0.17639 -0.80551,1e-5 -1.41111,0.12348 -1.8168,0.37042 -0.39982,0.24695 -0.59972,0.61737 -0.59972,1.11125 0,0.3763 0.14405,0.67322 0.43215,0.89076 0.2881,0.21167 0.86724,0.41452 1.73743,0.60854 l 0.55562,0.12347 c 1.1524,0.24695 1.96967,0.59679 2.45181,1.04951 0.488,0.44686 0.732,1.07304 0.73201,1.87854 -1e-5,0.91723 -0.36454,1.64336 -1.09361,2.1784 -0.7232,0.53505 -1.7198,0.80257 -2.98979,0.80257 -0.52917,0 -1.08185,-0.0529 -1.65805,-0.15875 -0.57033,-0.0999 -1.17299,-0.25282 -1.80799,-0.45861 l 0,-1.67569 c 0.59972,0.31162 1.19063,0.54681 1.77271,0.70555 0.58208,0.15288 1.15828,0.22931 1.72861,0.22931 0.76435,0 1.35231,-0.12935 1.76389,-0.38806 0.41156,-0.26458 0.61735,-0.63499 0.61736,-1.11124 -10e-6,-0.44097 -0.14994,-0.77905 -0.44979,-1.01424 -0.29399,-0.23518 -0.94369,-0.46155 -1.9491,-0.6791 l -0.56444,-0.13229 c -1.00542,-0.21166 -1.73155,-0.53504 -2.1784,-0.97014 -0.44686,-0.44096 -0.67028,-1.04362 -0.67028,-1.80798 0,-0.92897 0.32926,-1.64628 0.98778,-2.15194 0.65851,-0.50564 1.59337,-0.75846 2.80458,-0.75847 0.59971,10e-6 1.16416,0.0441 1.69333,0.13229 0.52916,0.0882 1.01716,0.22049 1.46402,0.39687"
       style=""
       id="path3232" />
    <path
       d="m 542.32848,314.94146 -9.10165,3.23673 9.10165,3.2191 0,1.60513 -11.30651,-4.10103 0,-1.46403 11.30651,-4.10103 0,1.60513"
       style=""
       id="path3234" />
    <path
       d="m 546.01501,310.66404 8.32554,0 0,1.4993 -6.54402,0 0,3.89819 6.27062,0 0,1.4993 -6.27062,0 0,4.77132 6.70277,0 0,1.4993 -8.48429,0 0,-13.16741"
       style=""
       id="path3236" />
    <path
       d="m 557.37444,310.10841 1.62277,0 0,13.72304 -1.62277,0 0,-13.72304"
       style=""
       id="path3238" />
    <path
       d="m 562.38388,310.10841 1.62277,0 0,13.72304 -1.62277,0 0,-13.72304"
       style=""
       id="path3240" />
    <path
       d="m 567.39331,313.95369 1.62278,0 0,9.87776 -1.62278,0 0,-9.87776 m 0,-3.84528 1.62278,0 0,2.05493 -1.62278,0 0,-2.05493"
       style=""
       id="path3242" />
    <path
       d="m 573.97261,322.34979 0,5.23874 -1.63159,0 0,-13.63484 1.63159,0 0,1.4993 c 0.34102,-0.58795 0.77023,-1.02305 1.28764,-1.30528 0.52328,-0.28809 1.14652,-0.43214 1.86972,-0.43215 1.19943,1e-5 2.17251,0.47626 2.91923,1.42875 0.75258,0.95251 1.12888,2.20486 1.12889,3.75708 -10e-6,1.55222 -0.37631,2.80458 -1.12889,3.75708 -0.74672,0.9525 -1.7198,1.42874 -2.91923,1.42874 -0.7232,0 -1.34644,-0.14111 -1.86972,-0.42333 -0.51741,-0.2881 -0.94662,-0.72613 -1.28764,-1.31409 m 5.52097,-3.4484 c -10e-6,-1.19356 -0.24696,-2.12842 -0.74084,-2.80458 -0.48801,-0.68203 -1.16123,-1.02305 -2.01965,-1.02306 -0.85843,10e-6 -1.53458,0.34103 -2.02847,1.02306 -0.48801,0.67616 -0.73201,1.61102 -0.73201,2.80458 0,1.19357 0.244,2.13136 0.73201,2.8134 0.49389,0.67616 1.17004,1.01423 2.02847,1.01423 0.85842,0 1.53164,-0.33807 2.01965,-1.01423 0.49388,-0.68204 0.74083,-1.61983 0.74084,-2.8134"
       style=""
       id="path3244" />
    <path
       d="m 590.1651,314.24473 0,1.53458 c -0.45862,-0.23518 -0.93487,-0.41157 -1.42875,-0.52917 -0.4939,-0.11758 -1.00542,-0.17638 -1.53458,-0.17639 -0.80552,10e-6 -1.41112,0.12348 -1.81681,0.37042 -0.39981,0.24695 -0.59972,0.61737 -0.59972,1.11125 0,0.3763 0.14405,0.67322 0.43215,0.89076 0.2881,0.21167 0.86724,0.41452 1.73743,0.60854 l 0.55563,0.12347 c 1.1524,0.24695 1.96966,0.59679 2.4518,1.04952 0.488,0.44685 0.732,1.07303 0.73201,1.87854 -10e-6,0.91722 -0.36454,1.64335 -1.09361,2.1784 -0.7232,0.53504 -1.71979,0.80256 -2.98979,0.80256 -0.52917,0 -1.08185,-0.0529 -1.65805,-0.15874 -0.57033,-0.1 -1.17299,-0.25283 -1.80798,-0.45862 l 0,-1.67569 c 0.59972,0.31162 1.19062,0.54681 1.7727,0.70556 0.58208,0.15287 1.15828,0.2293 1.72861,0.2293 0.76435,0 1.35231,-0.12935 1.76389,-0.38805 0.41157,-0.26458 0.61735,-0.635 0.61736,-1.11125 -10e-6,-0.44097 -0.14994,-0.77905 -0.44979,-1.01424 -0.29399,-0.23518 -0.94369,-0.46154 -1.9491,-0.67909 l -0.56444,-0.13229 c -1.00542,-0.21167 -1.73155,-0.53505 -2.1784,-0.97014 -0.44685,-0.44097 -0.67028,-1.04363 -0.67028,-1.80799 0,-0.92897 0.32926,-1.64628 0.98778,-2.15194 0.65851,-0.50564 1.59337,-0.75846 2.80458,-0.75847 0.59971,1e-5 1.16416,0.0441 1.69333,0.13229 0.52916,0.0882 1.01717,0.2205 1.46403,0.39688"
       style=""
       id="path3246" />
    <path
       d="m 601.73619,318.48687 0,0.79375 -7.46124,0 c 0.0706,1.11714 0.40569,1.96968 1.00541,2.55764 0.6056,0.58208 1.44639,0.87312 2.52236,0.87312 0.62323,0 1.2259,-0.0764 1.80799,-0.2293 0.58795,-0.15287 1.17003,-0.38218 1.74624,-0.68792 l 0,1.53458 c -0.58209,0.24695 -1.17887,0.4351 -1.79034,0.56445 -0.61149,0.12935 -1.23179,0.19402 -1.8609,0.19402 -1.57575,0 -2.82516,-0.45861 -3.74826,-1.37583 -0.91722,-0.91722 -1.37583,-2.15781 -1.37583,-3.7218 0,-1.61689 0.43509,-2.89864 1.30527,-3.84527 0.87606,-0.95249 2.05493,-1.42874 3.5366,-1.42875 1.32878,1e-5 2.37829,0.42922 3.14853,1.28764 0.7761,0.85255 1.16416,2.01378 1.16417,3.48367 m -1.62278,-0.47624 c -0.0118,-0.88782 -0.26165,-1.59632 -0.74965,-2.12549 -0.48214,-0.52916 -1.12301,-0.79374 -1.92264,-0.79375 -0.90546,1e-5 -1.6316,0.25577 -2.1784,0.76729 -0.54092,0.51154 -0.85254,1.23179 -0.93486,2.16076 l 5.78555,-0.009"
       style=""
       id="path3248" />
    <path
       d="m 604.81417,321.59132 1.8609,0 0,1.51694 -1.44638,2.82222 -1.13771,0 0.72319,-2.82222 0,-1.51694"
       style=""
       id="path3250" />
    <path
       d="m 622.40012,315.45299 0,-5.34458 1.62278,0 0,13.72304 -1.62278,0 0,-1.48166 c -0.34102,0.58796 -0.77317,1.02599 -1.29645,1.31409 -0.51742,0.28222 -1.14066,0.42333 -1.86972,0.42333 -1.19357,0 -2.16665,-0.47624 -2.91924,-1.42874 -0.74671,-0.9525 -1.12007,-2.20486 -1.12006,-3.75708 -10e-6,-1.55222 0.37335,-2.80457 1.12006,-3.75708 0.75259,-0.95249 1.72567,-1.42874 2.91924,-1.42875 0.72906,1e-5 1.3523,0.14406 1.86972,0.43215 0.52328,0.28223 0.95543,0.71733 1.29645,1.30528 m -5.52978,3.4484 c 0,1.19357 0.244,2.13136 0.73201,2.8134 0.49389,0.67616 1.17004,1.01423 2.02847,1.01423 0.85842,0 1.53458,-0.33807 2.02847,-1.01423 0.49388,-0.68204 0.74083,-1.61983 0.74083,-2.8134 0,-1.19356 -0.24695,-2.12842 -0.74083,-2.80458 -0.49389,-0.68203 -1.17005,-1.02305 -2.02847,-1.02306 -0.85843,10e-6 -1.53458,0.34103 -2.02847,1.02306 -0.48801,0.67616 -0.73201,1.61102 -0.73201,2.80458"
       style=""
       id="path3252" />
    <path
       d="m 631.1931,315.09139 c -0.87019,1e-5 -1.55811,0.34103 -2.06375,1.02306 -0.50565,0.67616 -0.75847,1.60514 -0.75847,2.78694 0,1.18181 0.24988,2.11373 0.74965,2.79576 0.50564,0.67616 1.1965,1.01423 2.07257,1.01423 0.8643,0 1.54927,-0.34101 2.05493,-1.02305 0.50564,-0.68203 0.75846,-1.61101 0.75847,-2.78694 -10e-6,-1.17004 -0.25283,-2.09608 -0.75847,-2.77812 -0.50566,-0.68791 -1.19063,-1.03187 -2.05493,-1.03188 m 0,-1.37583 c 1.4111,1e-5 2.51941,0.45862 3.32492,1.37583 0.8055,0.91723 1.20826,2.18723 1.20827,3.81 -10e-6,1.6169 -0.40277,2.88689 -1.20827,3.80999 -0.80551,0.91722 -1.91382,1.37583 -3.32492,1.37583 -1.41699,0 -2.52824,-0.45861 -3.33375,-1.37583 -0.79963,-0.9231 -1.19944,-2.19309 -1.19944,-3.80999 0,-1.62277 0.39981,-2.89277 1.19944,-3.81 0.80551,-0.91721 1.91676,-1.37582 3.33375,-1.37583"
       style=""
       id="path3254" />
    <path
       d="m 638.23983,319.93326 0,-5.97957 1.62277,0 0,5.91784 c 0,0.93486 0.18227,1.63747 0.54681,2.10784 0.36453,0.46449 0.91133,0.69674 1.64041,0.69674 0.87606,0 1.56691,-0.27929 2.07257,-0.83785 0.51152,-0.55856 0.76728,-1.31997 0.76729,-2.28423 l 0,-5.60034 1.62277,0 0,9.87776 -1.62277,0 0,-1.51694 c -0.39394,0.59972 -0.85255,1.04657 -1.37583,1.34055 -0.51742,0.2881 -1.12008,0.43215 -1.80799,0.43215 -1.13477,0 -1.99613,-0.35277 -2.58409,-1.05833 -0.58796,-0.70555 -0.88195,-1.73742 -0.88194,-3.09562 m 4.08339,-6.2177 0,0"
       style=""
       id="path3256" />
    <path
       d="m 656.96348,318.90139 c -10e-6,-1.19356 -0.24695,-2.12842 -0.74083,-2.80458 -0.48802,-0.68203 -1.16123,-1.02305 -2.01965,-1.02306 -0.85843,10e-6 -1.53459,0.34103 -2.02847,1.02306 -0.48801,0.67616 -0.73202,1.61102 -0.73201,2.80458 -10e-6,1.19357 0.244,2.13136 0.73201,2.8134 0.49388,0.67616 1.17004,1.01423 2.02847,1.01423 0.85842,0 1.53163,-0.33807 2.01965,-1.01423 0.49388,-0.68204 0.74082,-1.61983 0.74083,-2.8134 m -5.52096,-3.4484 c 0.34101,-0.58795 0.77022,-1.02305 1.28763,-1.30528 0.52329,-0.28809 1.14653,-0.43214 1.86972,-0.43215 1.19944,1e-5 2.17252,0.47626 2.91924,1.42875 0.75258,0.95251 1.12887,2.20486 1.12889,3.75708 -2e-5,1.55222 -0.37631,2.80458 -1.12889,3.75708 -0.74672,0.9525 -1.7198,1.42874 -2.91924,1.42874 -0.72319,0 -1.34643,-0.14111 -1.86972,-0.42333 -0.51741,-0.2881 -0.94662,-0.72613 -1.28763,-1.31409 l 0,1.48166 -1.6316,0 0,-13.72304 1.6316,0 0,5.34458"
       style=""
       id="path3258" />
    <path
       d="m 661.33792,310.10841 1.62278,0 0,13.72304 -1.62278,0 0,-13.72304"
       style=""
       id="path3260" />
    <path
       d="m 674.79638,318.48687 0,0.79375 -7.46124,0 c 0.0706,1.11714 0.40569,1.96968 1.00542,2.55764 0.6056,0.58208 1.44638,0.87312 2.52236,0.87312 0.62323,0 1.22589,-0.0764 1.80798,-0.2293 0.58795,-0.15287 1.17004,-0.38218 1.74625,-0.68792 l 0,1.53458 c -0.58209,0.24695 -1.17887,0.4351 -1.79035,0.56445 -0.61148,0.12935 -1.23178,0.19402 -1.8609,0.19402 -1.57574,0 -2.82516,-0.45861 -3.74826,-1.37583 -0.91722,-0.91722 -1.37583,-2.15781 -1.37583,-3.7218 0,-1.61689 0.43509,-2.89864 1.30528,-3.84527 0.87606,-0.95249 2.05492,-1.42874 3.53659,-1.42875 1.32879,1e-5 2.3783,0.42922 3.14854,1.28764 0.7761,0.85255 1.16415,2.01378 1.16416,3.48367 m -1.62277,-0.47624 c -0.0118,-0.88782 -0.26165,-1.59632 -0.74965,-2.12549 -0.48214,-0.52916 -1.12302,-0.79374 -1.92264,-0.79375 -0.90547,1e-5 -1.6316,0.25577 -2.1784,0.76729 -0.54093,0.51154 -0.85255,1.23179 -0.93486,2.16076 l 5.78555,-0.009"
       style=""
       id="path3262" />
    <path
       d="m 677.67152,314.94146 0,-1.60513 11.30652,4.10103 0,1.46403 -11.30652,4.10103 0,-1.60513 9.08402,-3.2191 -9.08402,-3.23673"
       style=""
       id="path3264" />
  </g>
  <g
     id="g92"
     transform="translate(0,-3.7075663)">
    <path
       style="fill:none;stroke:#000000;stroke-width:2"
       d="M 415.836,278.99701 456.32999,230.403"
       id="line94" />
    <path
       style="fill:none;stroke:#000000;stroke-width:2"
       d="m 462.732,222.721 -10.243,4.482 7.683,6.401 z"
       id="polygon96" />
  </g>
  <g
     id="g98"
     transform="translate(0,-3.7075663)">
    <path
       style="fill:none;stroke:#000000;stroke-width:2"
       d="m 578.99701,278.99701 -49.341,-49.341"
       id="line100" />
    <path
       style="fill:none;stroke:#000000;stroke-width:2"
       d="m 522.585,222.585 3.535,10.606 7.071,-7.071 z"
       id="polygon102" />
  </g>
</svg>
