<?xml version="1.0" encoding="UTF-8" standalone="no"?>
<!-- Created with Inkscape (http://www.inkscape.org/) -->
<svg id="svg2" xmlns:rdf="http://www.w3.org/1999/02/22-rdf-syntax-ns#" xmlns="http://www.w3.org/2000/svg" height="97.623" width="352.38" version="1.1" xmlns:cc="http://creativecommons.org/ns#" xmlns:dc="http://purl.org/dc/elements/1.1/" viewBox="199 259 181 46.837557">
 <metadata id="metadata204">
  <rdf:RDF>
   <cc:Work rdf:about="">
    <dc:format>image/svg+xml</dc:format>
    <dc:type rdf:resource="http://purl.org/dc/dcmitype/StillImage"/>
   </cc:Work>
  </rdf:RDF>
 </metadata>
 <g id="g4" transform="translate(-.5 -2.1531)">
  <g id="g6">
   <path id="rect8" fill="#fff" d="m200 260h10v10h-10z"/>
   <path id="rect10" d="m200 260h10v10h-10z" stroke="#000" fill="none"/>
  </g>
  <g id="g12">
   <path id="rect14" fill="#fff" d="m210 260h10v10h-10z"/>
   <path id="rect16" d="m210 260h10v10h-10z" stroke="#000" fill="none"/>
  </g>
  <g id="g18">
   <path id="rect20" fill="#fff" d="m220 260h10v10h-10z"/>
   <path id="rect22" d="m220 260h10v10h-10z" stroke="#000" fill="none"/>
  </g>
  <g id="g24">
   <path id="rect26" fill="#fff" d="m230 260h10v10h-10z"/>
   <path id="rect28" d="m230 260h10v10h-10z" stroke="#000" fill="none"/>
  </g>
 </g>
 <g id="g30" transform="translate(-.5 -2.1531)">
  <g id="g32">
   <path id="rect34" fill="#fff" d="m200 280h10v10h-10z"/>
   <path id="rect36" d="m200 280h10v10h-10z" stroke="#000" fill="none"/>
  </g>
  <g id="g38">
   <path id="rect40" fill="#fff" d="m210 280h10v10h-10z"/>
   <path id="rect42" d="m210 280h10v10h-10z" stroke="#000" fill="none"/>
  </g>
  <g id="g44">
   <path id="rect46" fill="#fff" d="m220 280h10v10h-10z"/>
   <path id="rect48" d="m220 280h10v10h-10z" stroke="#000" fill="none"/>
  </g>
  <g id="g50">
   <path id="rect52" fill="#fff" d="m230 280h10v10h-10z"/>
   <path id="rect54" d="m230 280h10v10h-10z" stroke="#000" fill="none"/>
  </g>
 </g>
 <g id="g56" transform="translate(-.5 -2.1531)">
  <g id="g58">
   <path id="rect60" fill="#fff" d="m340 260h10v10h-10z"/>
   <path id="rect62" d="m340 260h10v10h-10z" stroke="#000" fill="none"/>
  </g>
  <g id="g64">
   <path id="rect66" fill="#fff" d="m350 260h10v10h-10z"/>
   <path id="rect68" d="m350 260h10v10h-10z" stroke="#000" fill="none"/>
  </g>
  <g id="g70">
   <path id="rect72" fill="#fff" d="m360 260h10v10h-10z"/>
   <path id="rect74" d="m360 260h10v10h-10z" stroke="#000" fill="none"/>
  </g>
  <g id="g76">
   <path id="rect78" fill="#fff" d="m370 260h10v10h-10z"/>
   <path id="rect80" d="m370 260h10v10h-10z" stroke="#000" fill="none"/>
  </g>
 </g>
 <g id="g82" transform="translate(-.5 -2.1531)">
  <g id="g84">
   <path id="rect86" fill="#fff" d="m260 260h10v10h-10z"/>
   <path id="rect88" d="m260 260h10v10h-10z" stroke="#000" fill="none"/>
  </g>
  <g id="g90">
   <path id="rect92" fill="#fff" d="m270 260h10v10h-10z"/>
   <path id="rect94" d="m270 260h10v10h-10z" stroke="#000" fill="none"/>
  </g>
  <g id="g96">
   <path id="rect98" fill="#fff" d="m280 260h10v10h-10z"/>
   <path id="rect100" d="m280 260h10v10h-10z" stroke="#000" fill="none"/>
  </g>
  <g id="g102">
   <path id="rect104" fill="#fff" d="m290 260h10v10h-10z"/>
   <path id="rect106" d="m290 260h10v10h-10z" stroke="#000" fill="none"/>
  </g>
 </g>
 <g id="text108">
  <path id="path3113" style="" d="m202.21 295.67c-0.57363 0-0.97106 0.0656-1.1923 0.19678-0.22122 0.13119-0.33183 0.35498-0.33183 0.67138 0 0.25209 0.0823 0.45273 0.24695 0.60193 0.1672 0.14662 0.39356 0.21993 0.67909 0.21993 0.39357 0 0.70868-0.1389 0.94534-0.41672 0.23922-0.28038 0.35883-0.65208 0.35884-1.1151v-0.15819h-0.70611m1.4161-0.29325v2.4656h-0.70996v-0.65594c-0.16206 0.26238-0.36399 0.45659-0.60579 0.58263-0.2418 0.12347-0.53762 0.18521-0.88745 0.18521-0.44245 0-0.79486-0.12347-1.0572-0.37042-0.25981-0.24951-0.38971-0.58263-0.38971-0.99935 0-0.48617 0.16205-0.85273 0.48617-1.0997 0.32668-0.24694 0.81285-0.37042 1.4585-0.37042h0.9955v-0.0695c-0.00001-0.32669-0.10804-0.57878-0.32412-0.75627-0.2135-0.18006-0.51447-0.27009-0.90289-0.2701-0.24694 0.00001-0.48746 0.0296-0.72154 0.0888s-0.45916 0.14791-0.67524 0.26624v-0.65595c0.25981-0.10032 0.5119-0.17491 0.75627-0.22379 0.24437-0.0514 0.48231-0.0772 0.71382-0.0772 0.62508 0 1.092 0.16206 1.4006 0.48617 0.30868 0.32412 0.46302 0.81543 0.46302 1.474"/>
  <path id="path3115" style="" d="m207.6 294.19c-0.0797-0.0463-0.16721-0.0797-0.26238-0.10032-0.0926-0.0231-0.1955-0.0347-0.30868-0.0347-0.40129 0.00001-0.70997 0.1312-0.92604 0.39357-0.21351 0.25981-0.32026 0.63408-0.32026 1.1228v2.2765h-0.71382v-4.3215h0.71382v0.67138c0.14919-0.26238 0.3434-0.45659 0.58263-0.58264 0.23923-0.12861 0.5299-0.19292 0.87203-0.19292 0.0489 0 0.10289 0.004 0.16205 0.0116 0.0592 0.005 0.12476 0.0142 0.19679 0.027l0.004 0.72926"/>
  <path id="path3117" style="" d="m210.71 294.19c-0.0797-0.0463-0.16721-0.0797-0.26238-0.10032-0.0926-0.0231-0.1955-0.0347-0.30868-0.0347-0.40129 0.00001-0.70997 0.1312-0.92604 0.39357-0.21351 0.25981-0.32026 0.63408-0.32026 1.1228v2.2765h-0.71382v-4.3215h0.71382v0.67138c0.1492-0.26238 0.34341-0.45659 0.58264-0.58264 0.23922-0.12861 0.52989-0.19292 0.87202-0.19292 0.0489 0 0.10289 0.004 0.16206 0.0116 0.0592 0.005 0.12475 0.0142 0.19678 0.027l0.004 0.72926"/>
  <path id="path3119" style="" d="m211.7 297.19h1.2733v-4.3948l-1.3852 0.27781v-0.70996l1.3775-0.27782h0.77941v5.1048h1.2733v0.65594h-3.3183v-0.65594"/>
  <path id="path3121" style="" d="m216.43 291.84h1.636v0.55177h-0.92604v5.9421h0.92604v0.55177h-1.636v-7.0456"/>
  <path id="path3123" style="" d="m221.24 291.84v7.0456h-1.636v-0.55177h0.92219v-5.9421h-0.92219v-0.55177h1.636"/>
  <path id="path3125" style="" d="m222.6 291.84h1.636v0.55177h-0.92604v5.9421h0.92604v0.55177h-1.636v-7.0456"/>
  <path id="path3127" style="" d="m227.42 291.84v7.0456h-1.636v-0.55177h0.92219v-5.9421h-0.92219v-0.55177h1.636"/>
 </g>
 <g id="text112">
  <path id="path3130" style="" d="m260.93 305.2v2.292h-0.71383v-5.9652h0.71383v0.65594c0.14919-0.25723 0.33697-0.44758 0.56334-0.57106 0.22893-0.12604 0.5016-0.18906 0.818-0.18906 0.52475 0 0.95048 0.20836 1.2772 0.62508 0.32925 0.41672 0.49388 0.96462 0.49388 1.6437 0 0.6791-0.16463 1.227-0.49388 1.6437-0.32669 0.41672-0.75242 0.62508-1.2772 0.62508-0.3164 0-0.58907-0.0617-0.818-0.18521-0.22637-0.12604-0.41415-0.31768-0.56334-0.57492m2.4154-1.5087c0-0.52218-0.10804-0.93118-0.32411-1.227-0.21351-0.29838-0.50804-0.44758-0.8836-0.44758-0.37557 0-0.67138 0.1492-0.88746 0.44758-0.2135 0.29583-0.32026 0.70483-0.32025 1.227-0.00001 0.52219 0.10675 0.93247 0.32025 1.2309 0.21608 0.29582 0.51189 0.44373 0.88746 0.44373 0.37556 0 0.67009-0.14791 0.8836-0.44373 0.21607-0.29839 0.32411-0.70867 0.32411-1.2309"/>
  <path id="path3132" style="" d="m267.22 303.67c-0.57363 0-0.97106 0.0656-1.1923 0.19678-0.22122 0.13119-0.33183 0.35498-0.33183 0.67138 0 0.25209 0.0823 0.45273 0.24694 0.60193 0.1672 0.14662 0.39357 0.21993 0.6791 0.21993 0.39357 0 0.70868-0.1389 0.94533-0.41672 0.23923-0.28038 0.35884-0.65208 0.35885-1.1151v-0.15819h-0.70611m1.4161-0.29325v2.4656h-0.70996v-0.65594c-0.16207 0.26238-0.36399 0.45659-0.60579 0.58263-0.2418 0.12347-0.53762 0.18521-0.88746 0.18521-0.44244 0-0.79485-0.12347-1.0572-0.37042-0.2598-0.24951-0.38971-0.58263-0.38971-0.99935 0-0.48617 0.16206-0.85273 0.48618-1.0997 0.32668-0.24694 0.81285-0.37042 1.4585-0.37042h0.9955v-0.0695c-0.00001-0.32669-0.10805-0.57878-0.32412-0.75627-0.21351-0.18006-0.51447-0.27009-0.90289-0.2701-0.24695 0.00001-0.48746 0.0296-0.72154 0.0888s-0.45916 0.14791-0.67524 0.26624v-0.65595c0.25981-0.10032 0.51189-0.17491 0.75627-0.22379 0.24437-0.0514 0.48231-0.0772 0.71382-0.0772 0.62508 0 1.092 0.16206 1.4006 0.48617 0.30868 0.32412 0.46302 0.81543 0.46302 1.474"/>
  <path id="path3134" style="" d="m272.61 302.19c-0.0797-0.0463-0.1672-0.0797-0.26238-0.10032-0.0926-0.0231-0.1955-0.0347-0.30868-0.0347-0.40128 0.00001-0.70996 0.1312-0.92604 0.39357-0.2135 0.25981-0.32025 0.63408-0.32025 1.1228v2.2765h-0.71383v-4.3215h0.71383v0.67138c0.14919-0.26238 0.3434-0.45659 0.58263-0.58264 0.23923-0.12861 0.5299-0.19292 0.87202-0.19292 0.0489 0 0.10289 0.004 0.16206 0.0116 0.0592 0.005 0.12476 0.0142 0.19678 0.027l0.004 0.72926"/>
  <path id="path3136" style="" d="m275.73 302.19c-0.0797-0.0463-0.16721-0.0797-0.26238-0.10032-0.0926-0.0231-0.1955-0.0347-0.30868-0.0347-0.40129 0.00001-0.70997 0.1312-0.92604 0.39357-0.21351 0.25981-0.32026 0.63408-0.32026 1.1228v2.2765h-0.71382v-4.3215h0.71382v0.67138c0.14919-0.26238 0.3434-0.45659 0.58263-0.58264 0.23923-0.12861 0.5299-0.19292 0.87203-0.19292 0.0489 0 0.10289 0.004 0.16205 0.0116 0.0592 0.005 0.12476 0.0142 0.19679 0.027l0.004 0.72926"/>
  <path id="path3138" style="" d="m276.72 305.19h1.2733v-4.3948l-1.3852 0.27781v-0.70996l1.3775-0.27782h0.77942v5.1048h1.2733v0.65594h-3.3183v-0.65594"/>
 </g>
 <g id="g116" transform="translate(-.5 -2.1531)">
  <path id="rect118" fill="#fff" d="m260 288h10v10h-10z"/>
  <path id="rect120" d="m260 288h10v10h-10z" stroke="#000" fill="none"/>
 </g>
 <g id="g122" transform="translate(-.5 -2.1531)">
  <path id="rect124" fill="#fff" d="m300 288h10v10h-10z"/>
  <path id="rect126" d="m300 288h10v10h-10z" stroke="#000" fill="none"/>
 </g>
 <g id="text128">
  <path id="path3145" style="" d="m300.93 305.2v2.292h-0.71383v-5.9652h0.71383v0.65594c0.14919-0.25723 0.33697-0.44758 0.56334-0.57106 0.22893-0.12604 0.5016-0.18906 0.818-0.18906 0.52475 0 0.95048 0.20836 1.2772 0.62508 0.32925 0.41672 0.49388 0.96462 0.49388 1.6437 0 0.6791-0.16463 1.227-0.49388 1.6437-0.32669 0.41672-0.75242 0.62508-1.2772 0.62508-0.3164 0-0.58907-0.0617-0.818-0.18521-0.22637-0.12604-0.41415-0.31768-0.56334-0.57492m2.4154-1.5087c0-0.52218-0.10804-0.93118-0.32411-1.227-0.21351-0.29838-0.50804-0.44758-0.8836-0.44758-0.37557 0-0.67138 0.1492-0.88746 0.44758-0.2135 0.29583-0.32026 0.70483-0.32025 1.227-0.00001 0.52219 0.10675 0.93247 0.32025 1.2309 0.21608 0.29582 0.51189 0.44373 0.88746 0.44373 0.37556 0 0.67009-0.14791 0.8836-0.44373 0.21607-0.29839 0.32411-0.70867 0.32411-1.2309"/>
  <path id="path3147" style="" d="m307.22 303.67c-0.57363 0-0.97106 0.0656-1.1923 0.19678-0.22122 0.13119-0.33183 0.35498-0.33183 0.67138 0 0.25209 0.0823 0.45273 0.24694 0.60193 0.1672 0.14662 0.39357 0.21993 0.6791 0.21993 0.39357 0 0.70868-0.1389 0.94533-0.41672 0.23923-0.28038 0.35884-0.65208 0.35885-1.1151v-0.15819h-0.70611m1.4161-0.29325v2.4656h-0.70996v-0.65594c-0.16207 0.26238-0.36399 0.45659-0.60579 0.58263-0.2418 0.12347-0.53762 0.18521-0.88746 0.18521-0.44244 0-0.79485-0.12347-1.0572-0.37042-0.2598-0.24951-0.38971-0.58263-0.38971-0.99935 0-0.48617 0.16206-0.85273 0.48618-1.0997 0.32668-0.24694 0.81285-0.37042 1.4585-0.37042h0.9955v-0.0695c-0.00001-0.32669-0.10805-0.57878-0.32412-0.75627-0.21351-0.18006-0.51447-0.27009-0.90289-0.2701-0.24695 0.00001-0.48746 0.0296-0.72154 0.0888s-0.45916 0.14791-0.67524 0.26624v-0.65595c0.25981-0.10032 0.51189-0.17491 0.75627-0.22379 0.24437-0.0514 0.48231-0.0772 0.71382-0.0772 0.62508 0 1.092 0.16206 1.4006 0.48617 0.30868 0.32412 0.46302 0.81543 0.46302 1.474"/>
  <path id="path3149" style="" d="m312.61 302.19c-0.0797-0.0463-0.1672-0.0797-0.26238-0.10032-0.0926-0.0231-0.1955-0.0347-0.30868-0.0347-0.40128 0.00001-0.70996 0.1312-0.92604 0.39357-0.2135 0.25981-0.32025 0.63408-0.32025 1.1228v2.2765h-0.71383v-4.3215h0.71383v0.67138c0.14919-0.26238 0.3434-0.45659 0.58263-0.58264 0.23923-0.12861 0.5299-0.19292 0.87202-0.19292 0.0489 0 0.10289 0.004 0.16206 0.0116 0.0592 0.005 0.12476 0.0142 0.19678 0.027l0.004 0.72926"/>
  <path id="path3151" style="" d="m315.73 302.19c-0.0797-0.0463-0.16721-0.0797-0.26238-0.10032-0.0926-0.0231-0.1955-0.0347-0.30868-0.0347-0.40129 0.00001-0.70997 0.1312-0.92604 0.39357-0.21351 0.25981-0.32026 0.63408-0.32026 1.1228v2.2765h-0.71382v-4.3215h0.71382v0.67138c0.14919-0.26238 0.3434-0.45659 0.58263-0.58264 0.23923-0.12861 0.5299-0.19292 0.87203-0.19292 0.0489 0 0.10289 0.004 0.16205 0.0116 0.0592 0.005 0.12476 0.0142 0.19679 0.027l0.004 0.72926"/>
  <path id="path3153" style="" d="m316.72 305.19h1.2733v-4.3948l-1.3852 0.27781v-0.70996l1.3775-0.27782h0.77942v5.1048h1.2733v0.65594h-3.3183v-0.65594"/>
  <path id="path3155" style="" d="m324.4 300.89v2.1492h2.1492v0.65595h-2.1492v2.1492h-0.64823v-2.1492h-2.1492v-0.65595h2.1492v-2.1492h0.64823"/>
  <path id="path3157" style="" d="m328.37 305.19h1.2733v-4.3948l-1.3852 0.27781v-0.70996l1.3775-0.27782h0.77942v5.1048h1.2733v0.65594h-3.3183v-0.65594"/>
 </g>
 <g id="g132" transform="translate(-.5 -2.1531)">
  <path id="path134" d="m265 288c3-8-5-8-2.177-13.646" stroke="#000" fill="none"/>
  <path id="polygon136" d="m262.82 274.35h-2.795l4.472-3.354v5.59z"/>
  <path id="polygon138" d="m262.82 274.35h-2.795l4.472-3.354v5.59z" stroke="#000" fill="none"/>
 </g>
 <g id="g140" transform="translate(-.5 -2.1531)">
  <path id="path142" d="m305 288c3-8-5-8-2.177-13.646" stroke="#000" fill="none"/>
  <path id="polygon144" d="m302.82 274.35h-2.795l4.472-3.354v5.59z"/>
  <path id="polygon146" d="m302.82 274.35h-2.795l4.472-3.354v5.59z" stroke="#000" fill="none"/>
 </g>
 <g id="g148" transform="translate(-.5 -2.1531)">
  <g id="g150">
   <path id="rect152" fill="#ff0" d="m200 270h10v10h-10z"/>
   <path id="rect154" d="m200 270h10v10h-10z" stroke="#000" fill="none"/>
  </g>
  <g id="g156">
   <path id="rect158" fill="#ff0" d="m210 270h10v10h-10z"/>
   <path id="rect160" d="m210 270h10v10h-10z" stroke="#000" fill="none"/>
  </g>
  <g id="g162">
   <path id="rect164" fill="#ff0" d="m220 270h10v10h-10z"/>
   <path id="rect166" d="m220 270h10v10h-10z" stroke="#000" fill="none"/>
  </g>
  <g id="g168">
   <path id="rect170" fill="#ff0" d="m230 270h10v10h-10z"/>
   <path id="rect172" d="m230 270h10v10h-10z" stroke="#000" fill="none"/>
  </g>
 </g>
 <g id="g174" transform="translate(-.5 -2.1531)">
  <g id="g176">
   <path id="rect178" fill="#ff0" d="m300 260h10v10h-10z"/>
   <path id="rect180" d="m300 260h10v10h-10z" stroke="#000" fill="none"/>
  </g>
  <g id="g182">
   <path id="rect184" fill="#ff0" d="m310 260h10v10h-10z"/>
   <path id="rect186" d="m310 260h10v10h-10z" stroke="#000" fill="none"/>
  </g>
  <g id="g188">
   <path id="rect190" fill="#ff0" d="m320 260h10v10h-10z"/>
   <path id="rect192" d="m320 260h10v10h-10z" stroke="#000" fill="none"/>
  </g>
  <g id="g194">
   <path id="rect196" fill="#ff0" d="m330 260h10v10h-10z"/>
   <path id="rect198" d="m330 260h10v10h-10z" stroke="#000" fill="none"/>
  </g>
 </g>
</svg>
