<?xml version="1.0" encoding="UTF-8" standalone="no"?>
<!-- Created with Inkscape (http://www.inkscape.org/) -->
<svg id="svg2" xmlns:rdf="http://www.w3.org/1999/02/22-rdf-syntax-ns#" xmlns="http://www.w3.org/2000/svg" height="602.13" width="460.55" version="1.1" xmlns:cc="http://creativecommons.org/ns#" xmlns:dc="http://purl.org/dc/elements/1.1/" viewBox="319 58 246.95644 322.87779">
 <metadata id="metadata78">
  <rdf:RDF>
   <cc:Work rdf:about="">
    <dc:format>image/svg+xml</dc:format>
    <dc:type rdf:resource="http://purl.org/dc/dcmitype/StillImage"/>
   </cc:Work>
  </rdf:RDF>
 </metadata>
 <g id="g4" transform="translate(-8.3874e-7 -.12220)">
  <path id="rect6" fill="#fff" d="m320 60h220v320h-220z"/>
  <path id="rect8" d="m320 60h220v320h-220z" stroke="#000" stroke-width="2" fill="none"/>
 </g>
 <g id="g10" transform="translate(-8.3874e-7 -.12220)">
  <path id="rect12" fill="#fff" d="m320 59.122h220v41.756h-220z"/>
  <path id="rect14" d="m320 59.122h220v41.756h-220z" stroke="#000" stroke-width="2" fill="none"/>
  <g id="text16">
   <path id="path3022" style="" d="m413.82 76.179h1.4199v8.643h-1.4199v-8.643m0-3.3646h1.4199v1.7981h-1.4199v-1.7981"/>
   <path id="path3024" style="" d="m425.39 79.606v5.2167h-1.4199v-5.1704c-0.00001-0.818-0.15949-1.4302-0.47845-1.8366-0.31898-0.40642-0.79743-0.60964-1.4354-0.60964-0.76656 0.000008-1.3711 0.24438-1.8135 0.73312-0.44244 0.48875-0.66366 1.155-0.66366 1.9987v4.8849h-1.4276v-8.643h1.4276v1.3428c0.33955-0.5196 0.73826-0.90802 1.1961-1.1653 0.46301-0.25722 0.99548-0.38584 1.5974-0.38585 0.99292 0.000009 1.744 0.30869 2.2534 0.92604 0.50931 0.61222 0.76397 1.5151 0.76398 2.7087"/>
   <path id="path3026" style="" d="m429.64 73.725v2.454h2.9247v1.1035h-2.9247v4.6919c0 0.70482 0.0952 1.1576 0.28553 1.3582 0.19549 0.20064 0.58906 0.30096 1.1807 0.30096h1.4585v1.1884h-1.4585c-1.0958 0-1.8521-0.20321-2.2688-0.60964-0.41671-0.41157-0.62507-1.1575-0.62507-2.2379v-4.6919h-1.0418v-1.1035h1.0418v-2.454h1.4276"/>
   <path id="path3028" style="" d="m443.4 80.478c-1.1473 0.000005-1.9421 0.13119-2.3846 0.39357-0.44244 0.26238-0.66367 0.70997-0.66366 1.3428-0.00001 0.50418 0.16462 0.90546 0.49388 1.2038 0.3344 0.29325 0.78713 0.43987 1.3582 0.43987 0.78712 0.000001 1.4173-0.27781 1.8907-0.83344 0.47845-0.56077 0.71767-1.3042 0.71768-2.2302v-0.3164h-1.4122m2.8321-0.58649v4.9312h-1.4199v-1.3119c-0.32412 0.52476-0.72798 0.91318-1.2116 1.1653-0.4836 0.24694-1.0752 0.37042-1.7749 0.37042-0.88488 0-1.5897-0.24694-2.1144-0.74083-0.51962-0.49903-0.77942-1.1653-0.77942-1.9987 0-0.97234 0.32411-1.7055 0.97234-2.1993 0.65337-0.49388 1.6257-0.74083 2.917-0.74083h1.991v-0.13891c-0.00001-0.65336-0.21608-1.1575-0.64823-1.5125-0.42701-0.36012-1.0289-0.54018-1.8058-0.54019-0.4939 0.000008-0.97492 0.05917-1.4431 0.17749-0.46817 0.11834-0.91833 0.29583-1.3505 0.53247v-1.3119c0.51961-0.20063 1.0238-0.34983 1.5125-0.44758 0.48874-0.10288 0.96462-0.15433 1.4276-0.15434 1.2502 0.000009 2.1839 0.32412 2.8013 0.97234 0.61735 0.64823 0.92603 1.6309 0.92604 2.9479"/>
  </g>
 </g>
 <g id="g20" transform="translate(-8.3874e-7 -.12220)">
  <path id="rect22" fill="#fff" d="m320 100h220v100h-220z"/>
  <path id="rect24" d="m320 100h220v100h-220z" stroke="#000" stroke-width="2" fill="none"/>
  <g id="text26">
   <path id="path3033" style="" d="m392.33 136.63v1.3273c-0.40129-0.22121-0.80515-0.38584-1.2116-0.49389-0.40129-0.11317-0.80772-0.16976-1.2193-0.16977-0.9209 0.00001-1.636 0.29325-2.1453 0.87974-0.50932 0.58135-0.76398 1.3994-0.76398 2.454 0 1.0547 0.25466 1.8752 0.76398 2.4617 0.50932 0.58135 1.2244 0.87202 2.1453 0.87202 0.41156 0 0.81799-0.054 1.2193-0.16205 0.40642-0.11319 0.81028-0.28039 1.2116-0.50161v1.3119c-0.39615 0.18521-0.80772 0.32411-1.2347 0.41672-0.42187 0.0926-0.87202 0.1389-1.3505 0.1389-1.3016 0-2.3357-0.409-3.1022-1.227-0.76656-0.818-1.1498-1.9215-1.1498-3.3106 0-1.4096 0.38585-2.5183 1.1576-3.326 0.77684-0.80771 1.8392-1.2116 3.1871-1.2116 0.43729 0.00001 0.8643 0.0463 1.281 0.13891 0.41671 0.0875 0.82057 0.22122 1.2116 0.40128"/>
   <path id="path3035" style="" d="m402 139.73v5.2167h-1.4199v-5.1704c0-0.818-0.15949-1.4302-0.47845-1.8366-0.31897-0.40642-0.79743-0.60963-1.4354-0.60964-0.76656 0.00001-1.3711 0.24438-1.8135 0.73311-0.44245 0.48875-0.66367 1.155-0.66366 1.9987v4.8849h-1.4276v-12.008h1.4276v4.7074c0.33954-0.51961 0.73825-0.90803 1.1961-1.1653 0.46301-0.25722 0.99549-0.38584 1.5974-0.38585 0.99291 0.00001 1.744 0.30869 2.2534 0.92604 0.50931 0.61222 0.76397 1.5151 0.76398 2.7087"/>
   <path id="path3037" style="" d="m408.78 140.6c-1.1473 0.00001-1.9421 0.1312-2.3846 0.39357-0.44244 0.26238-0.66366 0.70997-0.66366 1.3428 0 0.50418 0.16463 0.90546 0.49389 1.2038 0.3344 0.29324 0.78713 0.43987 1.3582 0.43987 0.78713 0 1.4174-0.27781 1.8907-0.83344 0.47845-0.56076 0.71767-1.3042 0.71768-2.2302v-0.3164h-1.4122m2.8321-0.58649v4.9312h-1.4199v-1.3119c-0.32412 0.52476-0.72797 0.91318-1.2116 1.1653-0.4836 0.24694-1.0752 0.37041-1.7749 0.37041-0.88489 0-1.5897-0.24694-2.1145-0.74083-0.51961-0.49903-0.77942-1.1653-0.77942-1.9987 0-0.97234 0.32412-1.7054 0.97234-2.1993 0.65337-0.49388 1.6257-0.74083 2.917-0.74083h1.991v-0.13891c-0.00001-0.65337-0.21608-1.1575-0.64823-1.5125-0.42701-0.36012-1.0289-0.54018-1.8058-0.54019-0.49389 0.00001-0.97492 0.0592-1.4431 0.17749-0.46817 0.11834-0.91832 0.29583-1.3505 0.53247v-1.3119c0.51961-0.20064 1.0238-0.34983 1.5125-0.44759 0.48874-0.10288 0.96462-0.15433 1.4276-0.15434 1.2502 0.00001 2.1839 0.32412 2.8013 0.97234 0.61735 0.64824 0.92603 1.6309 0.92604 2.9479"/>
   <path id="path3039" style="" d="m419.55 137.63c-0.15949-0.0926-0.33441-0.15948-0.52475-0.20064-0.18522-0.0463-0.391-0.0694-0.61736-0.0694-0.80257 0-1.4199 0.26238-1.8521 0.78713-0.42701 0.51962-0.64051 1.2682-0.64051 2.2456v4.553h-1.4276v-8.643h1.4276v1.3428c0.29839-0.52475 0.68681-0.91317 1.1653-1.1653 0.47845-0.25722 1.0598-0.38584 1.744-0.38585 0.0978 0.00001 0.20578 0.008 0.32412 0.0231 0.11832 0.0103 0.24951 0.0283 0.39356 0.054l0.008 1.4585"/>
   <path id="path3041" style="" d="m431.6 136.56v1.3428c-0.40129-0.20578-0.81801-0.36012-1.2502-0.46302-0.43216-0.10289-0.87975-0.15434-1.3428-0.15434-0.70482 0-1.2347 0.10804-1.5897 0.32411-0.34984 0.21608-0.52476 0.5402-0.52476 0.97234 0 0.32927 0.12605 0.58907 0.37814 0.77942 0.25208 0.18521 0.75883 0.3627 1.5202 0.53247l0.48617 0.10804c1.0084 0.21608 1.7235 0.52219 2.1453 0.91832 0.427 0.391 0.6405 0.9389 0.64051 1.6437-0.00001 0.80257-0.31898 1.4379-0.95691 1.9061-0.6328 0.46816-1.5048 0.70224-2.6161 0.70224-0.46302 0-0.94662-0.0463-1.4508-0.1389-0.49904-0.0875-1.0264-0.22122-1.582-0.40129v-1.4662c0.52476 0.27267 1.0418 0.47846 1.5511 0.61736 0.50932 0.13377 1.0135 0.20065 1.5125 0.20065 0.6688 0 1.1833-0.11319 1.5434-0.33955 0.36012-0.23151 0.54018-0.55562 0.54019-0.97234-0.00001-0.38585-0.1312-0.68167-0.39357-0.88746-0.25724-0.20578-0.82572-0.40385-1.7055-0.59421l-0.49388-0.11575c-0.87974-0.1852-1.5151-0.46816-1.9061-0.84887-0.391-0.38584-0.58649-0.91317-0.58649-1.582 0-0.81285 0.2881-1.4405 0.8643-1.883 0.5762-0.44243 1.3942-0.66365 2.454-0.66366 0.52475 0.00001 1.0186 0.0386 1.4817 0.11575 0.46301 0.0772 0.89002 0.19294 1.281 0.34727"/>
   <path id="path3043" style="" d="m434.2 132.94h3.272v1.1035h-1.8521v11.884h1.8521v1.1035h-3.272v-14.091"/>
   <path id="path3045" style="" d="m440.97 143.63h2.5466v-8.7896l-2.7704 0.55562v-1.4199l2.755-0.55562h1.5588v10.21h2.5466v1.3119h-6.6366v-1.3119"/>
   <path id="path3047" style="" d="m454.1 134.45c-0.80257 0.00001-1.4071 0.39615-1.8135 1.1884-0.40129 0.78714-0.60193 1.973-0.60193 3.5575 0 1.5794 0.20064 2.7653 0.60193 3.5575 0.40642 0.78714 1.0109 1.1807 1.8135 1.1807 0.80771 0.00001 1.4122-0.39356 1.8135-1.1807 0.40642-0.79227 0.60963-1.9781 0.60964-3.5575-0.00001-1.5846-0.20322-2.7704-0.60964-3.5575-0.40129-0.79227-1.0058-1.1884-1.8135-1.1884m0-1.2347c1.2913 0.00001 2.2765 0.51191 2.9556 1.5357 0.68423 1.0187 1.0264 2.5003 1.0264 4.445-0.00001 1.9395-0.34213 3.4212-1.0264 4.445-0.6791 1.0186-1.6643 1.528-2.9556 1.528s-2.2791-0.50932-2.9633-1.528c-0.6791-1.0238-1.0186-2.5054-1.0186-4.445 0-1.9447 0.33955-3.4263 1.0186-4.445 0.68424-1.0238 1.672-1.5357 2.9633-1.5357"/>
   <path id="path3049" style="" d="m464.16 134.45c-0.80257 0.00001-1.4071 0.39615-1.8135 1.1884-0.40129 0.78714-0.60193 1.973-0.60193 3.5575 0 1.5794 0.20064 2.7653 0.60193 3.5575 0.40642 0.78714 1.0109 1.1807 1.8135 1.1807 0.80771 0.00001 1.4122-0.39356 1.8135-1.1807 0.40643-0.79227 0.60964-1.9781 0.60965-3.5575-0.00001-1.5846-0.20322-2.7704-0.60965-3.5575-0.40129-0.79227-1.0058-1.1884-1.8135-1.1884m0-1.2347c1.2913 0.00001 2.2765 0.51191 2.9556 1.5357 0.68423 1.0187 1.0264 2.5003 1.0264 4.445-0.00001 1.9395-0.34213 3.4212-1.0264 4.445-0.6791 1.0186-1.6643 1.528-2.9556 1.528s-2.2791-0.50932-2.9633-1.528c-0.6791-1.0238-1.0186-2.5054-1.0186-4.445 0-1.9447 0.33955-3.4263 1.0186-4.445 0.68423-1.0238 1.672-1.5357 2.9633-1.5357"/>
   <path id="path3051" style="" d="m474.01 132.94v14.091h-3.272v-1.1035h1.8444v-11.884h-1.8444v-1.1035h3.272"/>
   <path id="path3053" style="" d="m383.66 153.18v4.2829h-1.3119v-4.2829h1.3119m2.917 0v4.2829h-1.3119v-4.2829h1.3119"/>
   <path id="path3055" style="" d="m396.79 159.48v5.2167h-1.4199v-5.1704c-0.00001-0.81799-0.15949-1.4302-0.47846-1.8366-0.31897-0.40642-0.79742-0.60964-1.4354-0.60964-0.76655 0-1.371 0.24437-1.8135 0.73311-0.44244 0.48875-0.66366 1.155-0.66366 1.9987v4.8849h-1.4276v-12.008h1.4276v4.7074c0.33954-0.5196 0.73825-0.90802 1.1961-1.1653 0.46302-0.25723 0.99549-0.38584 1.5974-0.38585 0.99291 0.00001 1.744 0.30868 2.2534 0.92604 0.50932 0.61222 0.76398 1.5151 0.76398 2.7087"/>
   <path id="path3057" style="" d="m407.03 160.02v0.69453h-6.5286c0.0617 0.97749 0.35498 1.7235 0.87973 2.2379 0.5299 0.50932 1.2656 0.76398 2.2071 0.76398 0.54533 0 1.0727-0.0669 1.582-0.20064 0.51446-0.13376 1.0238-0.3344 1.528-0.60193v1.3428c-0.50933 0.21607-1.0315 0.3807-1.5666 0.49389-0.53505 0.11318-1.0778 0.16977-1.6283 0.16977-1.3788 0-2.472-0.40128-3.2797-1.2038-0.80257-0.80257-1.2039-1.8881-1.2038-3.2566-0.00001-1.4148 0.3807-2.5363 1.1421-3.3646 0.76655-0.83343 1.7981-1.2501 3.0945-1.2502 1.1627 0.00001 2.081 0.37557 2.755 1.1267 0.67909 0.74598 1.0186 1.762 1.0186 3.0482m-1.4199-0.41672c-0.0103-0.77684-0.22895-1.3968-0.65595-1.8598-0.42187-0.46302-0.98263-0.69452-1.6823-0.69453-0.79228 0.00001-1.4276 0.2238-1.9061 0.67138-0.47331 0.44759-0.74598 1.0778-0.818 1.8907l5.0624-0.008"/>
   <path id="path3059" style="" d="m409.36 152.69h1.4199v12.008h-1.4199v-12.008"/>
   <path id="path3061" style="" d="m413.74 152.69h1.4199v12.008h-1.4199v-12.008"/>
   <path id="path3063" style="" d="m421.47 157.05c-0.76142 0.00001-1.3633 0.2984-1.8058 0.89517-0.44244 0.59164-0.66366 1.4045-0.66366 2.4386s0.21864 1.8495 0.65594 2.4463c0.44244 0.59164 1.0469 0.88746 1.8135 0.88746 0.75625 0 1.3556-0.29839 1.798-0.89517 0.44244-0.59678 0.66366-1.4096 0.66367-2.4386-0.00001-1.0238-0.22123-1.8341-0.66367-2.4308-0.44244-0.60192-1.0418-0.90288-1.798-0.90289m0-1.2038c1.2347 0.00001 2.2045 0.40129 2.9093 1.2038 0.70481 0.80257 1.0572 1.9138 1.0572 3.3337-0.00001 1.4148-0.35242 2.526-1.0572 3.3337-0.70482 0.80257-1.6746 1.2038-2.9093 1.2038-1.2399 0-2.2122-0.40128-2.917-1.2038-0.69967-0.80771-1.0495-1.919-1.0495-3.3337 0-1.4199 0.34984-2.5312 1.0495-3.3337 0.70482-0.80256 1.6772-1.2038 2.917-1.2038"/>
   <path id="path3065" style="" d="m427.61 153.18 4.0128 12.988h-1.3119l-4.0128-12.988h1.3119"/>
   <path id="path3067" style="" d="m436.66 154.2c-0.80257 0.00001-1.4071 0.39615-1.8135 1.1884-0.40129 0.78715-0.60193 1.973-0.60192 3.5575-0.00001 1.5794 0.20063 2.7653 0.60192 3.5575 0.40643 0.78714 1.0109 1.1807 1.8135 1.1807 0.80771 0 1.4122-0.39356 1.8135-1.1807 0.40642-0.79227 0.60963-1.9781 0.60964-3.5575-0.00001-1.5846-0.20322-2.7704-0.60964-3.5575-0.40129-0.79226-1.0058-1.1884-1.8135-1.1884m0-1.2347c1.2913 0.00001 2.2765 0.5119 2.9556 1.5357 0.68423 1.0186 1.0264 2.5003 1.0264 4.445-0.00001 1.9395-0.34213 3.4212-1.0264 4.445-0.6791 1.0186-1.6643 1.528-2.9556 1.528s-2.2791-0.50932-2.9633-1.528c-0.6791-1.0238-1.0186-2.5054-1.0186-4.445 0-1.9447 0.33954-3.4263 1.0186-4.445 0.68424-1.0238 1.672-1.5357 2.9633-1.5357"/>
   <path id="path3069" style="" d="m443.39 162.74h1.6283v1.9601h-1.6283v-1.9601"/>
   <path id="path3071" style="" d="m448.42 162.74h1.6283v1.9601h-1.6283v-1.9601"/>
   <path id="path3073" style="" d="m453.45 162.74h1.6283v1.9601h-1.6283v-1.9601"/>
   <path id="path3075" style="" d="m458.48 162.74h1.6283v1.9601h-1.6283v-1.9601"/>
   <path id="path3077" style="" d="m463.51 162.74h1.6283v1.9601h-1.6283v-1.9601"/>
   <path id="path3079" style="" d="m468.55 162.74h1.6283v1.9601h-1.6283v-1.9601"/>
   <path id="path3081" style="" d="m474.72 153.18v4.2829h-1.3119v-4.2829h1.3119m2.917 0v4.2829h-1.3119v-4.2829h1.3119"/>
  </g>
 </g>
 <g id="g32" transform="translate(-8.3874e-7 -.12220)">
  <path id="rect34" fill="#fff" d="m320 199.24h220v61.511h-220z"/>
  <path id="rect36" d="m320 199.24h220v61.511h-220z" stroke="#000" stroke-width="2" fill="none"/>
  <g id="text38">
   <path id="path3086" style="" d="m411.55 216.63v1.3273c-0.40129-0.22121-0.80515-0.38584-1.2116-0.49389-0.40129-0.11317-0.80771-0.16976-1.2193-0.16977-0.9209 0.00001-1.636 0.29325-2.1453 0.87974-0.50932 0.58135-0.76398 1.3994-0.76398 2.454 0 1.0547 0.25466 1.8752 0.76398 2.4617 0.50932 0.58135 1.2244 0.87202 2.1453 0.87202 0.41157 0 0.81799-0.054 1.2193-0.16205 0.40642-0.11319 0.81028-0.28039 1.2116-0.50161v1.3119c-0.39615 0.18521-0.80772 0.32411-1.2347 0.41672-0.42187 0.0926-0.87202 0.1389-1.3505 0.1389-1.3016 0-2.3357-0.409-3.1022-1.227-0.76656-0.818-1.1498-1.9215-1.1498-3.3106 0-1.4096 0.38584-2.5183 1.1575-3.326 0.77685-0.80771 1.8392-1.2116 3.1871-1.2116 0.43729 0.00001 0.8643 0.0463 1.281 0.13891 0.41671 0.0875 0.82057 0.22122 1.2116 0.40128"/>
   <path id="path3088" style="" d="m421.22 219.73v5.2167h-1.4199v-5.1704c-0.00001-0.818-0.1595-1.4302-0.47846-1.8366-0.31897-0.40642-0.79743-0.60963-1.4354-0.60964-0.76656 0.00001-1.371 0.24438-1.8135 0.73311-0.44245 0.48875-0.66367 1.155-0.66366 1.9987v4.8849h-1.4276v-12.008h1.4276v4.7074c0.33954-0.51961 0.73825-0.90803 1.1961-1.1653 0.46302-0.25722 0.99549-0.38584 1.5974-0.38585 0.99291 0.00001 1.744 0.30869 2.2534 0.92604 0.50931 0.61222 0.76397 1.5151 0.76398 2.7087"/>
   <path id="path3090" style="" d="m427.99 220.6c-1.1473 0.00001-1.9421 0.1312-2.3846 0.39357-0.44244 0.26238-0.66366 0.70997-0.66366 1.3428 0 0.50418 0.16463 0.90546 0.49389 1.2038 0.3344 0.29324 0.78713 0.43987 1.3582 0.43987 0.78713 0 1.4174-0.27781 1.8907-0.83344 0.47845-0.56076 0.71768-1.3042 0.71768-2.2302v-0.3164h-1.4122m2.8321-0.58649v4.9312h-1.4199v-1.3119c-0.32412 0.52476-0.72797 0.91318-1.2116 1.1653-0.4836 0.24694-1.0752 0.37041-1.7749 0.37041-0.88489 0-1.5897-0.24694-2.1145-0.74083-0.51961-0.49903-0.77942-1.1653-0.77942-1.9987 0-0.97234 0.32412-1.7054 0.97235-2.1993 0.65336-0.49388 1.6257-0.74083 2.917-0.74083h1.991v-0.13891c0-0.65337-0.21608-1.1575-0.64822-1.5125-0.42702-0.36012-1.0289-0.54018-1.8058-0.54019-0.49389 0.00001-0.97492 0.0592-1.4431 0.17749-0.46817 0.11834-0.91832 0.29583-1.3505 0.53247v-1.3119c0.51961-0.20064 1.0238-0.34983 1.5125-0.44759 0.48874-0.10288 0.96462-0.15433 1.4276-0.15434 1.2502 0.00001 2.1839 0.32412 2.8013 0.97234 0.61735 0.64824 0.92603 1.6309 0.92604 2.9479"/>
   <path id="path3092" style="" d="m438.77 217.63c-0.15949-0.0926-0.33441-0.15948-0.52475-0.20064-0.18522-0.0463-0.391-0.0694-0.61736-0.0694-0.80257 0-1.4199 0.26238-1.8521 0.78713-0.42701 0.51962-0.64051 1.2682-0.64051 2.2456v4.553h-1.4276v-8.643h1.4276v1.3428c0.29839-0.52475 0.68681-0.91317 1.1653-1.1653 0.47844-0.25722 1.0598-0.38584 1.744-0.38585 0.0977 0.00001 0.20578 0.008 0.32411 0.0231 0.11832 0.0103 0.24951 0.0283 0.39357 0.054l0.008 1.4585"/>
   <path id="path3094" style="" d="m445.17 212.94h3.272v1.1035h-1.8521v11.884h1.8521v1.1035h-3.272v-14.091"/>
   <path id="path3096" style="" d="m454.79 212.94v14.091h-3.272v-1.1035h1.8444v-11.884h-1.8444v-1.1035h3.272"/>
   <path id="path3098" style="" d="m390.19 233.18v4.2829h-1.3119v-4.2829h1.3119m2.917 0v4.2829h-1.3119v-4.2829h1.3119"/>
   <path id="path3100" style="" d="m401.64 236.31v1.3428c-0.40129-0.20578-0.818-0.36012-1.2502-0.46302-0.43216-0.10288-0.87974-0.15433-1.3428-0.15434-0.70482 0.00001-1.2347 0.10805-1.5897 0.32412-0.34984 0.21608-0.52475 0.54019-0.52475 0.97234 0 0.32926 0.12604 0.58907 0.37813 0.77941 0.25209 0.18522 0.75883 0.36271 1.5202 0.53248l0.48617 0.10803c1.0084 0.21609 1.7234 0.52219 2.1453 0.91833 0.427 0.39099 0.64051 0.9389 0.64051 1.6437 0 0.80257-0.31897 1.4379-0.9569 1.9061-0.6328 0.46817-1.5048 0.70225-2.6161 0.70225-0.46303 0-0.94663-0.0463-1.4508-0.13891-0.49903-0.0875-1.0264-0.22122-1.582-0.40128v-1.4662c0.52475 0.27267 1.0418 0.47846 1.5511 0.61736 0.50932 0.13376 1.0135 0.20064 1.5125 0.20064 0.6688 0 1.1833-0.11318 1.5434-0.33954 0.36012-0.23151 0.54019-0.55563 0.54019-0.97235 0-0.38584-0.13119-0.68166-0.39357-0.88745-0.25723-0.20578-0.82572-0.40385-1.7054-0.59421l-0.49389-0.11575c-0.87974-0.18521-1.5151-0.46816-1.9061-0.84887-0.39099-0.38585-0.58649-0.91317-0.58649-1.582 0-0.81285 0.2881-1.4405 0.86431-1.8829 0.5762-0.44243 1.3942-0.66365 2.454-0.66366 0.52475 0.00001 1.0186 0.0386 1.4817 0.11575 0.46302 0.0772 0.89002 0.19293 1.281 0.34727"/>
   <path id="path3102" style="" d="m403.75 236.06h6.7446v1.2964l-5.3402 6.2122h5.3402v1.1344h-6.9376v-1.2965l5.3402-6.2122h-5.1472v-1.1344"/>
   <path id="path3104" style="" d="m416.02 237.05c-0.76142 0.00001-1.3633 0.2984-1.8058 0.89517-0.44244 0.59164-0.66366 1.4045-0.66366 2.4386s0.21864 1.8495 0.65594 2.4463c0.44244 0.59164 1.0469 0.88746 1.8135 0.88746 0.75626 0 1.3556-0.29839 1.7981-0.89517 0.44243-0.59678 0.66365-1.4096 0.66366-2.4386-0.00001-1.0238-0.22123-1.8341-0.66366-2.4308-0.44245-0.60192-1.0418-0.90288-1.7981-0.90289m0-1.2038c1.2347 0.00001 2.2045 0.40129 2.9093 1.2038 0.70481 0.80257 1.0572 1.9138 1.0572 3.3337-0.00001 1.4148-0.35242 2.526-1.0572 3.3337-0.70482 0.80257-1.6746 1.2038-2.9093 1.2038-1.2399 0-2.2122-0.40128-2.917-1.2038-0.69967-0.80771-1.0495-1.919-1.0495-3.3337 0-1.4199 0.34984-2.5312 1.0495-3.3337 0.70482-0.80256 1.6772-1.2038 2.917-1.2038"/>
   <path id="path3106" style="" d="m421.32 236.06h1.5048l2.701 7.254 2.7009-7.254h1.5048l-3.2411 8.643h-1.9292l-3.2411-8.643"/>
   <path id="path3108" style="" d="m439.08 240.02v0.69453h-6.5286c0.0617 0.97749 0.35498 1.7235 0.87974 2.2379 0.5299 0.50932 1.2656 0.76398 2.2071 0.76398 0.54533 0 1.0727-0.0669 1.582-0.20064 0.51446-0.13376 1.0238-0.3344 1.528-0.60193v1.3428c-0.50933 0.21607-1.0315 0.3807-1.5666 0.49389-0.53505 0.11318-1.0778 0.16977-1.6283 0.16977-1.3788 0-2.472-0.40128-3.2797-1.2038-0.80257-0.80257-1.2038-1.8881-1.2038-3.2566 0-1.4148 0.38071-2.5363 1.1421-3.3646 0.76655-0.83343 1.798-1.2501 3.0945-1.2502 1.1627 0.00001 2.081 0.37557 2.755 1.1267 0.67908 0.74598 1.0186 1.762 1.0186 3.0482m-1.4199-0.41672c-0.0103-0.77684-0.22894-1.3968-0.65594-1.8598-0.42187-0.46302-0.98264-0.69452-1.6823-0.69453-0.79228 0.00001-1.4276 0.2238-1.9061 0.67138-0.47331 0.44759-0.74598 1.0778-0.818 1.8907l5.0623-0.008"/>
   <path id="path3110" style="" d="m447.1 240.28c-0.00001-1.0289-0.21351-1.8264-0.64051-2.3923-0.42187-0.5659-1.0161-0.84886-1.7826-0.84887-0.76141 0.00001-1.3556 0.28297-1.7826 0.84887-0.42187 0.56592-0.6328 1.3633-0.6328 2.3923 0 1.0238 0.21093 1.8186 0.6328 2.3846 0.427 0.56592 1.0212 0.84887 1.7826 0.84887 0.76655 0 1.3608-0.28295 1.7826-0.84887 0.427-0.56591 0.6405-1.3608 0.64051-2.3846m1.4199 3.3492c-0.00001 1.4714-0.32669 2.5646-0.98006 3.2797-0.65337 0.72025-1.654 1.0804-3.0019 1.0804-0.49903-0.00001-0.96977-0.0386-1.4122-0.11576-0.44245-0.072-0.87203-0.18521-1.2887-0.33955v-1.3813c0.41671 0.22636 0.82829 0.39357 1.2347 0.50161 0.40642 0.10803 0.82057 0.16205 1.2424 0.16205 0.93118 0 1.6283-0.24437 2.0913-0.73311 0.46301-0.4836 0.69452-1.2167 0.69453-2.1993v-0.70225c-0.29326 0.50932-0.66882 0.89003-1.1267 1.1421-0.45789 0.25209-1.0058 0.37814-1.6437 0.37814-1.0598 0-1.9138-0.40386-2.562-1.2116-0.64822-0.80771-0.97234-1.8778-0.97234-3.2103 0-1.3376 0.32412-2.4103 0.97234-3.218 0.64823-0.8077 1.5022-1.2116 2.562-1.2116 0.63793 0.00001 1.1858 0.12605 1.6437 0.37813 0.45786 0.2521 0.83342 0.6328 1.1267 1.1421v-1.3119h1.4199v7.5704"/>
   <path id="path3112" style="" d="m451.27 233.18 4.0128 12.988h-1.3119l-4.0128-12.988h1.3119"/>
   <path id="path3114" style="" d="m460.32 234.2c-0.80257 0.00001-1.4071 0.39615-1.8135 1.1884-0.40129 0.78715-0.60193 1.973-0.60193 3.5575 0 1.5794 0.20064 2.7653 0.60193 3.5575 0.40642 0.78714 1.0109 1.1807 1.8135 1.1807 0.80771 0 1.4122-0.39356 1.8135-1.1807 0.40643-0.79227 0.60964-1.9781 0.60965-3.5575-0.00001-1.5846-0.20322-2.7704-0.60965-3.5575-0.40129-0.79226-1.0058-1.1884-1.8135-1.1884m0-1.2347c1.2913 0.00001 2.2765 0.5119 2.9556 1.5357 0.68423 1.0186 1.0264 2.5003 1.0264 4.445-0.00001 1.9395-0.34213 3.4212-1.0264 4.445-0.6791 1.0186-1.6643 1.528-2.9556 1.528s-2.2791-0.50932-2.9633-1.528c-0.6791-1.0238-1.0186-2.5054-1.0186-4.445 0-1.9447 0.33955-3.4263 1.0186-4.445 0.68423-1.0238 1.672-1.5357 2.9633-1.5357"/>
   <path id="path3116" style="" d="m468.19 233.18v4.2829h-1.3119v-4.2829h1.3119m2.917 0v4.2829h-1.3119v-4.2829h1.3119"/>
  </g>
 </g>
 <g id="g44" transform="translate(-8.3874e-7 -.12220)">
  <path id="rect46" fill="#fff" d="m320 259.12h220v41.756h-220z"/>
  <path id="rect48" d="m320 259.12h220v41.756h-220z" stroke="#000" stroke-width="2" fill="none"/>
  <g id="text50">
   <path id="path3121" style="" d="m402.4 276.51v1.3273c-0.40129-0.22121-0.80515-0.38584-1.2116-0.49388-0.40129-0.11318-0.80772-0.16977-1.2193-0.16978-0.9209 0.00001-1.636 0.29325-2.1453 0.87974-0.50932 0.58135-0.76398 1.3994-0.76398 2.454 0 1.0547 0.25466 1.8752 0.76398 2.4617 0.50932 0.58135 1.2244 0.87202 2.1453 0.87202 0.41156 0 0.81799-0.054 1.2193-0.16205 0.40642-0.11319 0.81028-0.28039 1.2116-0.50161v1.3119c-0.39615 0.18521-0.80772 0.32411-1.2347 0.41672-0.42187 0.0926-0.87203 0.1389-1.3505 0.1389-1.3016 0-2.3357-0.409-3.1022-1.227-0.76655-0.818-1.1498-1.9215-1.1498-3.3106 0-1.4096 0.38585-2.5183 1.1576-3.326 0.77684-0.8077 1.8392-1.2116 3.1871-1.2116 0.43729 0.00001 0.8643 0.0463 1.281 0.13891 0.41671 0.0875 0.82057 0.22123 1.2116 0.40128"/>
   <path id="path3123" style="" d="m412.07 279.61v5.2167h-1.4199v-5.1704c0-0.818-0.15949-1.4302-0.47845-1.8366-0.31898-0.40642-0.79743-0.60963-1.4354-0.60964-0.76656 0.00001-1.3711 0.24438-1.8135 0.73311-0.44245 0.48875-0.66367 1.155-0.66367 1.9987v4.8849h-1.4276v-12.008h1.4276v4.7074c0.33955-0.51961 0.73826-0.90803 1.1961-1.1653 0.46301-0.25722 0.99548-0.38584 1.5974-0.38585 0.99291 0.00001 1.744 0.30869 2.2534 0.92604 0.50931 0.61222 0.76397 1.5151 0.76398 2.7087"/>
   <path id="path3125" style="" d="m418.84 280.48c-1.1473 0.00001-1.9421 0.1312-2.3846 0.39357-0.44244 0.26238-0.66366 0.70997-0.66366 1.3428 0 0.50418 0.16462 0.90546 0.49389 1.2038 0.3344 0.29325 0.78712 0.43987 1.3582 0.43987 0.78712 0 1.4173-0.27781 1.8907-0.83344 0.47845-0.56076 0.71767-1.3042 0.71768-2.2302v-0.3164h-1.4122m2.8321-0.58649v4.9312h-1.4199v-1.3119c-0.32412 0.52476-0.72798 0.91318-1.2116 1.1653-0.4836 0.24694-1.0752 0.37041-1.7749 0.37041-0.88488 0-1.5897-0.24694-2.1144-0.74083-0.51961-0.49903-0.77942-1.1653-0.77942-1.9987 0-0.97234 0.32411-1.7054 0.97234-2.1993 0.65337-0.49388 1.6257-0.74083 2.917-0.74083h1.991v-0.13891c-0.00001-0.65336-0.21608-1.1575-0.64823-1.5125-0.42701-0.36012-1.0289-0.54018-1.8058-0.54019-0.4939 0.00001-0.97492 0.0592-1.4431 0.17749-0.46817 0.11834-0.91833 0.29583-1.3505 0.53247v-1.3119c0.51961-0.20064 1.0238-0.34983 1.5125-0.44759 0.48873-0.10288 0.96462-0.15433 1.4276-0.15434 1.2502 0.00001 2.1839 0.32412 2.8013 0.97234 0.61735 0.64824 0.92603 1.6309 0.92604 2.9479"/>
   <path id="path3127" style="" d="m429.61 277.51c-0.15949-0.0926-0.33441-0.15947-0.52476-0.20064-0.18521-0.0463-0.391-0.0694-0.61736-0.0694-0.80257 0.00001-1.4199 0.26238-1.8521 0.78713-0.42701 0.51962-0.64052 1.2682-0.64051 2.2456v4.553h-1.4276v-8.643h1.4276v1.3428c0.29838-0.52475 0.68681-0.91317 1.1653-1.1653 0.47845-0.25722 1.0598-0.38584 1.744-0.38585 0.0977 0.00001 0.20578 0.008 0.32412 0.0231 0.11832 0.0103 0.24951 0.0283 0.39356 0.054l0.008 1.4585"/>
   <path id="path3129" style="" d="m442.09 275.2-2.7704 1.4971 2.7704 1.5048-0.44759 0.75627-2.5929-1.5666v2.9093h-0.87973v-2.9093l-2.5929 1.5666-0.44759-0.75627 2.7704-1.5048-2.7704-1.4971 0.44759-0.76398 2.5929 1.5666v-2.9093h0.87973v2.9093l2.5929-1.5666 0.44759 0.76398"/>
   <path id="path3131" style="" d="m445.43 283.53v4.5839h-1.4276v-11.93h1.4276v1.3119c0.29838-0.51446 0.67394-0.89516 1.1267-1.1421 0.45787-0.25208 1.0032-0.37812 1.636-0.37813 1.0495 0.00001 1.901 0.41673 2.5543 1.2502 0.6585 0.83345 0.98776 1.9293 0.98777 3.2874-0.00001 1.3582-0.32927 2.454-0.98777 3.2874-0.65338 0.83344-1.5048 1.2502-2.5543 1.2502-0.6328 0-1.1781-0.12347-1.636-0.37041-0.45274-0.25209-0.8283-0.63537-1.1267-1.1498m4.8308-3.0174c0-1.0444-0.21608-1.8624-0.64822-2.454-0.42702-0.59677-1.0161-0.89516-1.7672-0.89517-0.75113 0.00001-1.3428 0.2984-1.7749 0.89517-0.42701 0.59164-0.64052 1.4096-0.64051 2.454-0.00001 1.0444 0.2135 1.8649 0.64051 2.4617 0.43215 0.59164 1.0238 0.88746 1.7749 0.88746 0.75111 0 1.3402-0.29582 1.7672-0.88746 0.43214-0.59678 0.64822-1.4174 0.64822-2.4617"/>
   <path id="path3133" style="" d="m455.49 273.72v2.454h2.9247v1.1035h-2.9247v4.6919c0 0.70482 0.0952 1.1576 0.28553 1.3582 0.1955 0.20064 0.58906 0.30097 1.1807 0.30096h1.4585v1.1884h-1.4585c-1.0958 0-1.8521-0.20321-2.2688-0.60964-0.41672-0.41157-0.62508-1.1576-0.62508-2.2379v-4.6919h-1.0418v-1.1035h1.0418v-2.454h1.4276"/>
   <path id="path3135" style="" d="m465.3 277.51c-0.15949-0.0926-0.33441-0.15947-0.52476-0.20064-0.18521-0.0463-0.39099-0.0694-0.61735-0.0694-0.80258 0.00001-1.4199 0.26238-1.8521 0.78713-0.42701 0.51962-0.64052 1.2682-0.64051 2.2456v4.553h-1.4276v-8.643h1.4276v1.3428c0.29838-0.52475 0.68681-0.91317 1.1653-1.1653 0.47845-0.25722 1.0598-0.38584 1.744-0.38585 0.0978 0.00001 0.20578 0.008 0.32412 0.0231 0.11832 0.0103 0.24951 0.0283 0.39356 0.054l0.008 1.4585"/>
  </g>
 </g>
 <g id="g54" transform="translate(-8.3874e-7 -.12220)">
  <path id="path56" d="m540 280c19.92 0 40-30 8.708-45.646" stroke="#000" stroke-width="2" fill="none"/>
  <path id="polygon58" d="m548.71 234.35v5.59l-6.71-8.94h11.18z"/>
  <path id="polygon60" d="m548.71 234.35v5.59l-6.71-8.94h11.18z" stroke="#000" stroke-width="2" fill="none"/>
 </g>
 <g id="g62" transform="translate(-8.3874e-7 -.12220)">
  <path id="rect64" fill="#fff" d="m320 299.24h220v61.511h-220z"/>
  <path id="rect66" d="m320 299.24h220v61.511h-220z" stroke="#000" stroke-width="2" fill="none"/>
  <g id="text68">
   <path id="path3142" style="" d="m411.55 316.63v1.3273c-0.40129-0.22121-0.80515-0.38584-1.2116-0.49389-0.40129-0.11317-0.80771-0.16976-1.2193-0.16977-0.9209 0.00001-1.636 0.29325-2.1453 0.87974-0.50932 0.58135-0.76398 1.3994-0.76398 2.454 0 1.0547 0.25466 1.8752 0.76398 2.4617 0.50932 0.58135 1.2244 0.87202 2.1453 0.87202 0.41157 0 0.81799-0.054 1.2193-0.16205 0.40642-0.11319 0.81028-0.28039 1.2116-0.50161v1.3119c-0.39615 0.18521-0.80772 0.32411-1.2347 0.41672-0.42187 0.0926-0.87202 0.1389-1.3505 0.1389-1.3016 0-2.3357-0.409-3.1022-1.227-0.76656-0.818-1.1498-1.9215-1.1498-3.3106 0-1.4096 0.38584-2.5183 1.1575-3.326 0.77685-0.80771 1.8392-1.2116 3.1871-1.2116 0.43729 0.00001 0.8643 0.0463 1.281 0.13891 0.41671 0.0875 0.82057 0.22122 1.2116 0.40128"/>
   <path id="path3144" style="" d="m421.22 319.73v5.2167h-1.4199v-5.1704c-0.00001-0.818-0.1595-1.4302-0.47846-1.8366-0.31897-0.40642-0.79743-0.60963-1.4354-0.60964-0.76656 0.00001-1.371 0.24438-1.8135 0.73311-0.44245 0.48875-0.66367 1.155-0.66366 1.9987v4.8849h-1.4276v-12.008h1.4276v4.7074c0.33954-0.51961 0.73825-0.90803 1.1961-1.1653 0.46302-0.25722 0.99549-0.38584 1.5974-0.38585 0.99291 0.00001 1.744 0.30869 2.2534 0.92604 0.50931 0.61222 0.76397 1.5151 0.76398 2.7087"/>
   <path id="path3146" style="" d="m427.99 320.6c-1.1473 0.00001-1.9421 0.1312-2.3846 0.39357-0.44244 0.26238-0.66366 0.70997-0.66366 1.3428 0 0.50418 0.16463 0.90546 0.49389 1.2038 0.3344 0.29324 0.78713 0.43987 1.3582 0.43987 0.78713 0 1.4174-0.27781 1.8907-0.83344 0.47845-0.56076 0.71768-1.3042 0.71768-2.2302v-0.3164h-1.4122m2.8321-0.58649v4.9312h-1.4199v-1.3119c-0.32412 0.52476-0.72797 0.91318-1.2116 1.1653-0.4836 0.24694-1.0752 0.37041-1.7749 0.37041-0.88489 0-1.5897-0.24694-2.1145-0.74083-0.51961-0.49903-0.77942-1.1653-0.77942-1.9987 0-0.97234 0.32412-1.7054 0.97235-2.1993 0.65336-0.49388 1.6257-0.74083 2.917-0.74083h1.991v-0.13891c0-0.65337-0.21608-1.1575-0.64822-1.5125-0.42702-0.36012-1.0289-0.54018-1.8058-0.54019-0.49389 0.00001-0.97492 0.0592-1.4431 0.17749-0.46817 0.11834-0.91832 0.29583-1.3505 0.53247v-1.3119c0.51961-0.20064 1.0238-0.34983 1.5125-0.44759 0.48874-0.10288 0.96462-0.15433 1.4276-0.15434 1.2502 0.00001 2.1839 0.32412 2.8013 0.97234 0.61735 0.64824 0.92603 1.6309 0.92604 2.9479"/>
   <path id="path3148" style="" d="m438.77 317.63c-0.15949-0.0926-0.33441-0.15948-0.52475-0.20064-0.18522-0.0463-0.391-0.0695-0.61736-0.0695-0.80257 0-1.4199 0.26238-1.8521 0.78713-0.42701 0.51962-0.64051 1.2682-0.64051 2.2456v4.553h-1.4276v-8.643h1.4276v1.3428c0.29839-0.52475 0.68681-0.91317 1.1653-1.1653 0.47844-0.25722 1.0598-0.38584 1.744-0.38585 0.0977 0.00001 0.20578 0.008 0.32411 0.0232 0.11832 0.0103 0.24951 0.0283 0.39357 0.054l0.008 1.4585"/>
   <path id="path3150" style="" d="m445.17 312.94h3.272v1.1035h-1.8521v11.884h1.8521v1.1035h-3.272v-14.091"/>
   <path id="path3152" style="" d="m454.79 312.94v14.091h-3.272v-1.1035h1.8444v-11.884h-1.8444v-1.1035h3.272"/>
   <path id="path3154" style="" d="m405.31 333.18v4.2829h-1.3119v-4.2829h1.3119m2.917 0v4.2829h-1.3119v-4.2829h1.3119"/>
   <path id="path3156" style="" d="m421.26 339.63c-0.4476 0-0.80001 0.19036-1.0572 0.57106-0.2521 0.3807-0.37814 0.9106-0.37813 1.5897-0.00001 0.6688 0.12603 1.1961 0.37813 1.582 0.25722 0.38071 0.60963 0.57106 1.0572 0.57106 0.43728 0 0.78197-0.19035 1.0341-0.57106 0.25723-0.38585 0.38584-0.91318 0.38585-1.582-0.00001-0.67395-0.12862-1.2013-0.38585-1.582-0.2521-0.38584-0.59679-0.57877-1.0341-0.57877m0-0.98006c0.81284 0.00001 1.4585 0.28296 1.937 0.84887 0.47844 0.56592 0.71767 1.3299 0.71768 2.292-0.00001 0.96205-0.24181 1.726-0.72539 2.2919-0.47847 0.56077-1.1216 0.84115-1.9292 0.84115-0.82316 0-1.474-0.28038-1.9524-0.84115-0.47846-0.56591-0.71769-1.3299-0.71768-2.2919-0.00001-0.9672 0.23922-1.7312 0.71768-2.292 0.48359-0.56591 1.1344-0.84886 1.9524-0.84887m-7.9639-4.6996c-0.44244 0.00001-0.79228 0.19294-1.0495 0.57878-0.25209 0.38071-0.37813 0.90547-0.37813 1.5743 0 0.67911 0.12604 1.209 0.37813 1.5897 0.25209 0.38071 0.60192 0.57107 1.0495 0.57106 0.44758 0.00001 0.79742-0.19035 1.0495-0.57106 0.25723-0.38069 0.38585-0.91059 0.38585-1.5897 0-0.66365-0.12862-1.1884-0.38585-1.5743-0.25723-0.38584-0.60707-0.57877-1.0495-0.57878m6.9684-0.98006h1.2347l-7.2077 11.954h-1.2347l7.2077-11.954m-6.9684 0c0.81285 0.00002 1.4611 0.28297 1.9447 0.84887 0.4836 0.56078 0.72539 1.3222 0.7254 2.2842-0.00001 0.97235-0.2418 1.7389-0.7254 2.2997-0.47845 0.56077-1.1267 0.84115-1.9447 0.84115s-1.4662-0.28038-1.9447-0.84115c-0.47331-0.56591-0.70996-1.3325-0.70996-2.2997 0-0.95689 0.23922-1.7183 0.71768-2.2842 0.47845-0.5659 1.1241-0.84885 1.937-0.84887"/>
   <path id="path3158" style="" d="m431.98 337.37v-4.6765h1.4199v12.008h-1.4199v-1.2964c-0.2984 0.51446-0.67653 0.89774-1.1344 1.1498-0.45273 0.24694-0.99807 0.37041-1.636 0.37041-1.0444 0-1.8958-0.41671-2.5543-1.2502-0.65338-0.83343-0.98006-1.9292-0.98006-3.2874s0.32668-2.454 0.98006-3.2874c0.65851-0.83342 1.51-1.2501 2.5543-1.2502 0.63793 0.00001 1.1833 0.12605 1.636 0.37813 0.45787 0.24696 0.836 0.62766 1.1344 1.1421m-4.8386 3.0173c-0.00001 1.0444 0.2135 1.865 0.64051 2.4617 0.43215 0.59164 1.0238 0.88746 1.7749 0.88746 0.75111 0 1.3428-0.29582 1.7749-0.88746 0.43215-0.59677 0.64822-1.4174 0.64823-2.4617-0.00001-1.0444-0.21608-1.8624-0.64823-2.454-0.43215-0.59677-1.0238-0.89516-1.7749-0.89517-0.75113 0.00001-1.3428 0.2984-1.7749 0.89517-0.42701 0.59164-0.64052 1.4096-0.64051 2.454"/>
   <path id="path3160" style="" d="m436.14 333.18 4.0128 12.988h-1.3119l-4.0128-12.988h1.3119"/>
   <path id="path3162" style="" d="m445.19 334.2c-0.80257 0.00001-1.4071 0.39615-1.8135 1.1884-0.40129 0.78714-0.60193 1.973-0.60193 3.5575 0 1.5794 0.20064 2.7653 0.60193 3.5575 0.40642 0.78713 1.0109 1.1807 1.8135 1.1807 0.80771 0 1.4122-0.39357 1.8135-1.1807 0.40642-0.79228 0.60964-1.9781 0.60965-3.5575-0.00001-1.5846-0.20323-2.7704-0.60965-3.5575-0.40129-0.79227-1.0058-1.1884-1.8135-1.1884m0-1.2347c1.2913 0.00002 2.2765 0.51191 2.9556 1.5357 0.68423 1.0186 1.0264 2.5003 1.0264 4.445-0.00001 1.9395-0.34213 3.4212-1.0264 4.445-0.6791 1.0186-1.6643 1.528-2.9556 1.528s-2.2791-0.50932-2.9633-1.528c-0.67909-1.0238-1.0186-2.5054-1.0186-4.445 0-1.9447 0.33955-3.4263 1.0186-4.445 0.68424-1.0238 1.672-1.5357 2.9633-1.5357"/>
   <path id="path3164" style="" d="m453.07 333.18v4.2829h-1.3119v-4.2829h1.3119m2.917 0v4.2829h-1.3119v-4.2829h1.3119"/>
  </g>
 </g>
</svg>
