<?xml version="1.0" encoding="UTF-8" standalone="no"?>
<!-- Created with Inkscape (http://www.inkscape.org/) -->
<svg id="svg2" xmlns:rdf="http://www.w3.org/1999/02/22-rdf-syntax-ns#" xmlns="http://www.w3.org/2000/svg" height="980.48" width="599.22" version="1.1" xmlns:cc="http://creativecommons.org/ns#" xmlns:dc="http://purl.org/dc/elements/1.1/" viewBox="272 -219 328.27619 534.64935">
 <metadata id="metadata134">
  <rdf:RDF>
   <cc:Work rdf:about="">
    <dc:format>image/svg+xml</dc:format>
    <dc:type rdf:resource="http://purl.org/dc/dcmitype/StillImage"/>
   </cc:Work>
  </rdf:RDF>
 </metadata>
 <g id="g4" transform="translate(-2 -4.9784)">
  <path id="rect6" fill="#fff" d="m320 120h220v200h-220z"/>
  <path id="rect8" d="m320 120h220v200h-220z" stroke="#000" stroke-width="2" fill="none"/>
 </g>
 <g id="g10" transform="translate(-2 -4.9784)">
  <path id="rect12" fill="#fff" d="m320 279.12h220v41.756h-220z"/>
  <path id="rect14" d="m320 279.12h220v41.756h-220z" stroke="#000" stroke-width="2" fill="none"/>
  <g id="text16">
   <path id="path3050" style="" d="m400.96 296.51v1.3273c-0.40129-0.22121-0.80515-0.38584-1.2116-0.49388-0.40129-0.11318-0.80772-0.16977-1.2193-0.16978-0.92089 0.00001-1.636 0.29325-2.1453 0.87974-0.50932 0.58135-0.76398 1.3994-0.76398 2.454 0 1.0547 0.25466 1.8752 0.76398 2.4617 0.50932 0.58135 1.2244 0.87202 2.1453 0.87202 0.41157 0 0.818-0.054 1.2193-0.16205 0.40642-0.11319 0.81028-0.28039 1.2116-0.50161v1.3119c-0.39615 0.18521-0.80772 0.32411-1.2347 0.41672-0.42187 0.0926-0.87203 0.1389-1.3505 0.1389-1.3016 0-2.3357-0.409-3.1022-1.227-0.76655-0.818-1.1498-1.9215-1.1498-3.3106 0-1.4096 0.38585-2.5183 1.1576-3.326 0.77684-0.8077 1.8392-1.2116 3.1871-1.2116 0.43729 0.00001 0.8643 0.0463 1.281 0.13891 0.41671 0.0875 0.82057 0.22123 1.2116 0.40128"/>
   <path id="path3052" style="" d="m410.63 299.61v5.2167h-1.4199v-5.1704c0-0.818-0.15949-1.4302-0.47845-1.8366-0.31898-0.40642-0.79743-0.60963-1.4354-0.60964-0.76656 0.00001-1.3711 0.24438-1.8135 0.73311-0.44244 0.48875-0.66366 1.155-0.66366 1.9987v4.8849h-1.4276v-12.008h1.4276v4.7074c0.33955-0.51961 0.73826-0.90803 1.1961-1.1653 0.46301-0.25722 0.99548-0.38584 1.5974-0.38585 0.99292 0.00001 1.744 0.30869 2.2534 0.92604 0.50931 0.61222 0.76397 1.5151 0.76398 2.7087"/>
   <path id="path3054" style="" d="m417.41 300.48c-1.1473 0.00001-1.9421 0.1312-2.3846 0.39357-0.44244 0.26238-0.66367 0.70997-0.66366 1.3428-0.00001 0.50418 0.16462 0.90546 0.49388 1.2038 0.3344 0.29325 0.78713 0.43987 1.3582 0.43987 0.78712 0 1.4173-0.27781 1.8907-0.83344 0.47845-0.56076 0.71767-1.3042 0.71768-2.2302v-0.3164h-1.4122m2.8321-0.58649v4.9312h-1.4199v-1.3119c-0.32412 0.52476-0.72798 0.91318-1.2116 1.1653-0.4836 0.24694-1.0752 0.37041-1.7749 0.37041-0.88488 0-1.5897-0.24694-2.1144-0.74083-0.51962-0.49903-0.77942-1.1653-0.77942-1.9987 0-0.97234 0.32411-1.7054 0.97234-2.1993 0.65337-0.49388 1.6257-0.74083 2.917-0.74083h1.991v-0.13891c-0.00001-0.65336-0.21608-1.1575-0.64823-1.5125-0.42701-0.36012-1.0289-0.54018-1.8058-0.54019-0.4939 0.00001-0.97492 0.0592-1.4431 0.17749-0.46817 0.11834-0.91833 0.29583-1.3505 0.53247v-1.3119c0.51961-0.20064 1.0238-0.34983 1.5125-0.44759 0.48874-0.10288 0.96462-0.15433 1.4276-0.15434 1.2502 0.00001 2.1839 0.32412 2.8013 0.97234 0.61735 0.64824 0.92603 1.6309 0.92604 2.9479"/>
   <path id="path3056" style="" d="m428.18 297.51c-0.15949-0.0926-0.33441-0.15947-0.52476-0.20064-0.18521-0.0463-0.391-0.0694-0.61736-0.0694-0.80257 0.00001-1.4199 0.26238-1.8521 0.78713-0.42701 0.51962-0.64052 1.2682-0.64051 2.2456v4.553h-1.4276v-8.643h1.4276v1.3428c0.29838-0.52475 0.6868-0.91317 1.1653-1.1653 0.47845-0.25722 1.0598-0.38584 1.744-0.38585 0.0977 0.00001 0.20578 0.008 0.32412 0.0231 0.11832 0.0103 0.24951 0.0283 0.39356 0.054l0.008 1.4585"/>
   <path id="path3058" style="" d="m440.66 295.2-2.7704 1.4971 2.7704 1.5048-0.44759 0.75627-2.5929-1.5666v2.9093h-0.87973v-2.9093l-2.5929 1.5666-0.44759-0.75627 2.7704-1.5048-2.7704-1.4971 0.44759-0.76398 2.5929 1.5666v-2.9093h0.87973v2.9093l2.5929-1.5666 0.44759 0.76398"/>
   <path id="path3060" style="" d="m444.02 293.72v2.454h2.9247v1.1035h-2.9247v4.6919c-0.00001 0.70482 0.0952 1.1576 0.28552 1.3582 0.1955 0.20064 0.58906 0.30097 1.1807 0.30096h1.4585v1.1884h-1.4585c-1.0958 0-1.8521-0.20321-2.2688-0.60964-0.41672-0.41157-0.62508-1.1576-0.62508-2.2379v-4.6919h-1.0418v-1.1035h1.0418v-2.454h1.4276"/>
   <path id="path3062" style="" d="m456.21 300.15v0.69453h-6.5286c0.0617 0.97749 0.35497 1.7235 0.87973 2.2379 0.5299 0.50932 1.2656 0.76398 2.2071 0.76398 0.54533 0 1.0727-0.0669 1.582-0.20064 0.51445-0.13376 1.0238-0.3344 1.528-0.60192v1.3428c-0.50933 0.21608-1.0315 0.38071-1.5666 0.49389-0.53505 0.11318-1.0778 0.16977-1.6283 0.16977-1.3788 0-2.472-0.40128-3.2797-1.2038-0.80256-0.80256-1.2038-1.8881-1.2038-3.2566 0-1.4148 0.38071-2.5363 1.1421-3.3646 0.76655-0.83342 1.798-1.2501 3.0945-1.2502 1.1627 0.00001 2.081 0.37557 2.755 1.1267 0.67909 0.74598 1.0186 1.762 1.0186 3.0482m-1.4199-0.41671c-0.0103-0.77684-0.22894-1.3968-0.65594-1.8598-0.42187-0.46301-0.98264-0.69452-1.6823-0.69453-0.79229 0.00001-1.4276 0.2238-1.9061 0.67138-0.47331 0.44759-0.74598 1.0778-0.818 1.8907l5.0623-0.008"/>
   <path id="path3064" style="" d="m462.47 300.48c-1.1473 0.00001-1.9421 0.1312-2.3846 0.39357-0.44244 0.26238-0.66366 0.70997-0.66366 1.3428 0 0.50418 0.16463 0.90546 0.49389 1.2038 0.3344 0.29325 0.78713 0.43987 1.3582 0.43987 0.78713 0 1.4174-0.27781 1.8907-0.83344 0.47845-0.56076 0.71768-1.3042 0.71768-2.2302v-0.3164h-1.4122m2.8321-0.58649v4.9312h-1.4199v-1.3119c-0.32412 0.52476-0.72797 0.91318-1.2116 1.1653-0.48361 0.24694-1.0752 0.37041-1.7749 0.37041-0.88489 0-1.5897-0.24694-2.1145-0.74083-0.51961-0.49903-0.77942-1.1653-0.77942-1.9987 0-0.97234 0.32412-1.7054 0.97235-2.1993 0.65337-0.49388 1.6257-0.74083 2.917-0.74083h1.991v-0.13891c0-0.65336-0.21608-1.1575-0.64822-1.5125-0.42702-0.36012-1.0289-0.54018-1.8058-0.54019-0.49389 0.00001-0.97492 0.0592-1.4431 0.17749-0.46816 0.11834-0.91832 0.29583-1.3505 0.53247v-1.3119c0.51961-0.20064 1.0238-0.34983 1.5125-0.44759 0.48874-0.10288 0.96462-0.15433 1.4276-0.15434 1.2502 0.00001 2.1839 0.32412 2.8013 0.97234 0.61735 0.64824 0.92603 1.6309 0.92604 2.9479"/>
  </g>
 </g>
 <g id="g20" transform="translate(-2 -4.9784)">
  <path id="path22" d="m540 300c80 0 80-460 9.736-460" stroke="#000" stroke-width="2" fill="none"/>
  <path id="polygon24" d="m549.74-160 2.5 5-10-5 10-5z"/>
  <path id="polygon26" d="m549.74-160 2.5 5-10-5 10-5z" stroke="#000" stroke-width="2" fill="none"/>
 </g>
 <g id="g28" transform="translate(-2 -4.9784)">
  <path id="line30" d="m280 300v-150.26" stroke="#000" stroke-width="2" fill="none"/>
  <path id="polygon32" d="m280 149.74-5 2.5 5-10 5 10z"/>
  <path id="polygon34" d="m280 149.74-5 2.5 5-10 5 10z" stroke="#000" stroke-width="2" fill="none"/>
 </g>
 <g id="g36" transform="translate(-2 -4.9784)">
  <path id="line38" d="m300 140v150.26" stroke="#000" stroke-width="2" fill="none"/>
  <path id="polygon40" d="m300 290.26 5-2.5-5 10-5-10z"/>
  <path id="polygon42" d="m300 290.26 5-2.5-5 10-5-10z" stroke="#000" stroke-width="2" fill="none"/>
 </g>
 <g id="text44">
  <path id="path3075" style="" d="m319.55-220.25h1.5588v4.7228h5.6643v-4.7228h1.5588v11.521h-1.5588v-5.4868h-5.6643v5.4868h-1.5588v-11.521"/>
  <path id="path3077" style="" d="m338.77-213.4v0.69453h-6.5286c0.0617 0.97749 0.35498 1.7235 0.87974 2.2379 0.52989 0.50932 1.2656 0.76398 2.2071 0.76398 0.54533 0 1.0726-0.0669 1.582-0.20064 0.51446-0.13376 1.0238-0.3344 1.528-0.60193v1.3428c-0.50933 0.21607-1.0315 0.3807-1.5666 0.49389-0.53505 0.11318-1.0778 0.16977-1.6283 0.16977-1.3788 0-2.472-0.40128-3.2797-1.2038-0.80257-0.80257-1.2038-1.8881-1.2038-3.2566 0-1.4148 0.3807-2.5363 1.1421-3.3646 0.76656-0.83343 1.7981-1.2501 3.0945-1.2502 1.1627 0.00001 2.081 0.37556 2.755 1.1267 0.67909 0.74598 1.0186 1.762 1.0186 3.0482m-1.4199-0.41672c-0.0103-0.77684-0.22894-1.3968-0.65594-1.8598-0.42187-0.46302-0.98264-0.69453-1.6823-0.69453-0.79228 0-1.4276 0.2238-1.9061 0.67138-0.47331 0.44759-0.74597 1.0778-0.818 1.8907l5.0624-0.008"/>
  <path id="path3079" style="" d="m345.02-213.07c-1.1473 0-1.9421 0.13119-2.3846 0.39357-0.44245 0.26238-0.66367 0.70996-0.66367 1.3428 0 0.50418 0.16463 0.90547 0.49389 1.2038 0.3344 0.29325 0.78713 0.43987 1.3582 0.43987 0.78713 0 1.4174-0.27781 1.8907-0.83343 0.47844-0.56077 0.71767-1.3042 0.71768-2.2302v-0.3164h-1.4122m2.8321-0.58649v4.9312h-1.4199v-1.3119c-0.32412 0.52475-0.72798 0.91318-1.2116 1.1653-0.4836 0.24695-1.0752 0.37042-1.7749 0.37042-0.88488 0-1.5897-0.24694-2.1145-0.74083-0.51961-0.49903-0.77941-1.1653-0.77941-1.9987 0-0.97234 0.32411-1.7054 0.97234-2.1994 0.65337-0.49388 1.6257-0.74082 2.917-0.74083h1.991v-0.1389c-0.00001-0.65337-0.21609-1.1576-0.64823-1.5125-0.42701-0.36012-1.0289-0.54019-1.8058-0.54019-0.49389 0-0.97491 0.0592-1.4431 0.17749-0.46817 0.11833-0.91833 0.29582-1.3505 0.53247v-1.3119c0.51961-0.20063 1.0238-0.34983 1.5125-0.44758 0.48874-0.10289 0.96462-0.15433 1.4276-0.15434 1.2501 0.00001 2.1839 0.32412 2.8013 0.97234 0.61736 0.64823 0.92603 1.6309 0.92604 2.9479"/>
  <path id="path3081" style="" d="m352.16-210.02v4.5839h-1.4276v-11.93h1.4276v1.3119c0.29838-0.51445 0.67394-0.89516 1.1267-1.1421 0.45787-0.25208 1.0032-0.37812 1.636-0.37813 1.0495 0.00001 1.9009 0.41672 2.5543 1.2502 0.65851 0.83344 0.98777 1.9292 0.98778 3.2874-0.00001 1.3582-0.32927 2.454-0.98778 3.2874-0.65338 0.83343-1.5048 1.2502-2.5543 1.2502-0.6328 0-1.1781-0.12347-1.636-0.37042-0.45274-0.25208-0.8283-0.63536-1.1267-1.1498m4.8308-3.0173c0-1.0444-0.21608-1.8624-0.64822-2.454-0.42702-0.59677-1.0161-0.89516-1.7672-0.89517-0.75112 0.00001-1.3428 0.2984-1.7749 0.89517-0.42701 0.59165-0.64052 1.4096-0.64051 2.454-0.00001 1.0444 0.2135 1.8649 0.64051 2.4617 0.43214 0.59164 1.0238 0.88745 1.7749 0.88745 0.75112 0 1.3402-0.29581 1.7672-0.88745 0.43214-0.59678 0.64822-1.4174 0.64822-2.4617"/>
 </g>
 <g id="text48">
  <path id="path3084" style="" d="m322.52 111.27-4.3987-11.521h1.6283l3.6501 9.7003 3.6579-9.7003h1.6206l-4.391 11.521h-1.7672"/>
  <path id="path3086" style="" d="m336.45 106.6v0.69453h-6.5286c0.0617 0.97749 0.35498 1.7235 0.87974 2.2379 0.5299 0.50932 1.2656 0.76398 2.2071 0.76398 0.54533 0 1.0727-0.0669 1.582-0.20064 0.51446-0.13376 1.0238-0.3344 1.528-0.60192v1.3428c-0.50933 0.21608-1.0315 0.38071-1.5666 0.49389-0.53505 0.11318-1.0778 0.16977-1.6283 0.16977-1.3788 0-2.472-0.40128-3.2797-1.2038-0.80257-0.80256-1.2038-1.8881-1.2038-3.2566 0-1.4148 0.3807-2.5363 1.1421-3.3646 0.76655-0.83342 1.798-1.2501 3.0945-1.2502 1.1627 0.00001 2.081 0.37557 2.755 1.1267 0.67908 0.74598 1.0186 1.762 1.0186 3.0482m-1.4199-0.41671c-0.0103-0.77684-0.22894-1.3968-0.65594-1.8598-0.42187-0.46301-0.98264-0.69452-1.6823-0.69453-0.79228 0.00001-1.4276 0.2238-1.9061 0.67138-0.47331 0.44759-0.74598 1.0778-0.818 1.8907l5.0623-0.008"/>
  <path id="path3088" style="" d="m343.79 103.96c-0.15949-0.0926-0.33441-0.15947-0.52476-0.20064-0.18521-0.0463-0.391-0.0694-0.61736-0.0695-0.80257 0.00001-1.4199 0.26238-1.8521 0.78713-0.42701 0.51962-0.64052 1.2682-0.64052 2.2456v4.553h-1.4276v-8.643h1.4276v1.3428c0.29839-0.52475 0.68681-0.91317 1.1653-1.1653 0.47845-0.25722 1.0598-0.38584 1.744-0.38585 0.0977 0.00001 0.20578 0.008 0.32411 0.0232 0.11833 0.0103 0.24951 0.0283 0.39357 0.054l0.008 1.4585"/>
  <path id="path3090" style="" d="m352.35 106.6v0.69453h-6.5286c0.0617 0.97749 0.35498 1.7235 0.87974 2.2379 0.52989 0.50932 1.2656 0.76398 2.2071 0.76398 0.54532 0 1.0726-0.0669 1.582-0.20064 0.51446-0.13376 1.0238-0.3344 1.528-0.60192v1.3428c-0.50933 0.21608-1.0315 0.38071-1.5666 0.49389-0.53505 0.11318-1.0778 0.16977-1.6283 0.16977-1.3788 0-2.472-0.40128-3.2797-1.2038-0.80257-0.80256-1.2038-1.8881-1.2038-3.2566 0-1.4148 0.3807-2.5363 1.1421-3.3646 0.76655-0.83342 1.7981-1.2501 3.0945-1.2502 1.1627 0.00001 2.081 0.37557 2.755 1.1267 0.67909 0.74598 1.0186 1.762 1.0186 3.0482m-1.4199-0.41671c-0.0103-0.77684-0.22895-1.3968-0.65595-1.8598-0.42187-0.46301-0.98263-0.69452-1.6823-0.69453-0.79228 0.00001-1.4276 0.2238-1.9061 0.67138-0.47331 0.44759-0.74598 1.0778-0.818 1.8907l5.0624-0.008"/>
  <path id="path3092" style="" d="m361.41 104.29c0.35498-0.63793 0.77941-1.1087 1.2733-1.4122 0.49388-0.30352 1.0752-0.45529 1.744-0.4553 0.9003 0.00001 1.5948 0.31641 2.0836 0.94919 0.48873 0.62766 0.7331 1.5228 0.73311 2.6855v5.2167h-1.4276v-5.1704c-0.00002-0.82829-0.14664-1.4431-0.43987-1.8444-0.29326-0.40128-0.74084-0.60192-1.3428-0.60193-0.73569 0.00001-1.317 0.24438-1.744 0.73311-0.42701 0.48875-0.64052 1.155-0.64051 1.9987v4.8849h-1.4276v-5.1704c-0.00001-0.83343-0.14663-1.4482-0.43987-1.8444-0.29325-0.40128-0.74598-0.60192-1.3582-0.60193-0.7254 0.00001-1.3016 0.24695-1.7286 0.74083-0.42701 0.48875-0.64051 1.1524-0.64051 1.991v4.8849h-1.4276v-8.643h1.4276v1.3428c0.32411-0.5299 0.71253-0.92089 1.1653-1.173 0.45272-0.25208 0.99034-0.37812 1.6128-0.37813 0.62764 0.00001 1.1601 0.15949 1.5974 0.47845 0.44243 0.31898 0.76912 0.782 0.98005 1.3891"/>
 </g>
 <g id="g56" transform="translate(-2 -4.9784)">
  <path id="rect58" fill="#fff" d="m320-200h220v280h-220z"/>
  <path id="rect60" d="m320-200h220v280h-220z" stroke="#000" stroke-width="2" fill="none"/>
 </g>
 <g id="g62" transform="translate(-2 -4.9784)">
  <path id="rect64" fill="#fff" d="m320-200h220v80h-220z"/>
  <path id="rect66" d="m320-200h220v80h-220z" stroke="#000" stroke-width="2" fill="none"/>
  <g id="text68">
   <path id="path3100" style="" d="m396.45-173.37v1.3273c-0.40129-0.22121-0.80514-0.38584-1.2116-0.49389-0.40129-0.11317-0.80772-0.16976-1.2193-0.16977-0.9209 0.00001-1.636 0.29325-2.1453 0.87974-0.50933 0.58135-0.76399 1.3994-0.76398 2.454-0.00001 1.0547 0.25465 1.8752 0.76398 2.4617 0.50932 0.58135 1.2244 0.87202 2.1453 0.87202 0.41157 0 0.818-0.054 1.2193-0.16205 0.40642-0.11319 0.81027-0.28039 1.2116-0.50161v1.3119c-0.39614 0.18521-0.80771 0.32411-1.2347 0.41672-0.42187 0.0926-0.87203 0.1389-1.3505 0.1389-1.3016 0-2.3357-0.409-3.1022-1.227-0.76656-0.818-1.1498-1.9215-1.1498-3.3106 0-1.4096 0.38585-2.5183 1.1576-3.326 0.77684-0.80771 1.8392-1.2116 3.1871-1.2116 0.43729 0.00001 0.86429 0.0463 1.281 0.13891 0.41671 0.0875 0.82056 0.22122 1.2116 0.40128"/>
   <path id="path3102" style="" d="m406.12-170.27v5.2167h-1.4199v-5.1704c-0.00001-0.818-0.15949-1.4302-0.47845-1.8366-0.31898-0.40642-0.79743-0.60963-1.4354-0.60964-0.76655 0.00001-1.371 0.24438-1.8135 0.73311-0.44244 0.48875-0.66366 1.155-0.66366 1.9987v4.8849h-1.4276v-12.008h1.4276v4.7074c0.33954-0.51961 0.73826-0.90803 1.1961-1.1653 0.46302-0.25722 0.99549-0.38584 1.5974-0.38585 0.99291 0.00001 1.744 0.30869 2.2534 0.92604 0.50932 0.61222 0.76398 1.5151 0.76399 2.7087"/>
   <path id="path3104" style="" d="m412.9-169.4c-1.1473 0.00001-1.9421 0.1312-2.3846 0.39357-0.44244 0.26238-0.66366 0.70997-0.66366 1.3428 0 0.50418 0.16463 0.90546 0.49389 1.2038 0.3344 0.29324 0.78713 0.43987 1.3582 0.43987 0.78713 0 1.4174-0.27781 1.8907-0.83344 0.47845-0.56076 0.71768-1.3042 0.71769-2.2302v-0.3164h-1.4122m2.8321-0.58649v4.9312h-1.4199v-1.3119c-0.32412 0.52476-0.72798 0.91318-1.2116 1.1653-0.48361 0.24694-1.0752 0.37041-1.7749 0.37041-0.88489 0-1.5897-0.24694-2.1145-0.74083-0.51961-0.49903-0.77941-1.1653-0.77941-1.9987 0-0.97234 0.32411-1.7054 0.97234-2.1993 0.65337-0.49388 1.6257-0.74083 2.917-0.74083h1.991v-0.13891c-0.00001-0.65337-0.21609-1.1575-0.64823-1.5125-0.42701-0.36012-1.0289-0.54018-1.8058-0.54019-0.49389 0.00001-0.97492 0.0592-1.4431 0.17749-0.46816 0.11834-0.91832 0.29583-1.3505 0.53247v-1.3119c0.51961-0.20064 1.0238-0.34983 1.5125-0.44759 0.48874-0.10288 0.96462-0.15433 1.4276-0.15434 1.2502 0.00001 2.1839 0.32412 2.8013 0.97234 0.61735 0.64824 0.92603 1.6309 0.92604 2.9479"/>
   <path id="path3106" style="" d="m423.67-172.37c-0.1595-0.0926-0.33441-0.15948-0.52476-0.20064-0.18521-0.0463-0.391-0.0694-0.61736-0.0694-0.80257 0-1.4199 0.26238-1.8521 0.78713-0.42701 0.51962-0.64051 1.2682-0.64051 2.2456v4.553h-1.4276v-8.643h1.4276v1.3428c0.29839-0.52475 0.68681-0.91317 1.1653-1.1653 0.47845-0.25722 1.0598-0.38584 1.744-0.38585 0.0977 0.00001 0.20578 0.008 0.32411 0.0231 0.11832 0.0103 0.24951 0.0283 0.39357 0.054l0.008 1.4585"/>
   <path id="path3108" style="" d="m430.08-177.06h3.272v1.1035h-1.8521v11.884h1.8521v1.1035h-3.272v-14.091"/>
   <path id="path3110" style="" d="m436.85-166.37h2.5466v-8.7896l-2.7704 0.55562v-1.4199l2.755-0.55562h1.5588v10.21h2.5466v1.3119h-6.6366v-1.3119"/>
   <path id="path3112" style="" d="m449.98-175.55c-0.80257 0.00001-1.4071 0.39615-1.8135 1.1884-0.40129 0.78714-0.60193 1.973-0.60193 3.5575 0 1.5794 0.20064 2.7653 0.60193 3.5575 0.40642 0.78714 1.0109 1.1807 1.8135 1.1807 0.80771 0.00001 1.4122-0.39356 1.8135-1.1807 0.40642-0.79227 0.60963-1.9781 0.60964-3.5575-0.00001-1.5846-0.20322-2.7704-0.60964-3.5575-0.40129-0.79227-1.0058-1.1884-1.8135-1.1884m0-1.2347c1.2913 0.00001 2.2765 0.51191 2.9556 1.5357 0.68423 1.0187 1.0264 2.5003 1.0264 4.445-0.00001 1.9395-0.34213 3.4212-1.0264 4.445-0.6791 1.0186-1.6643 1.528-2.9556 1.528s-2.2791-0.50932-2.9633-1.528c-0.6791-1.0238-1.0186-2.5054-1.0186-4.445 0-1.9447 0.33955-3.4263 1.0186-4.445 0.68423-1.0238 1.672-1.5357 2.9633-1.5357"/>
   <path id="path3114" style="" d="m460.04-175.55c-0.80257 0.00001-1.4071 0.39615-1.8135 1.1884-0.40129 0.78714-0.60193 1.973-0.60193 3.5575 0 1.5794 0.20064 2.7653 0.60193 3.5575 0.40642 0.78714 1.0109 1.1807 1.8135 1.1807 0.80771 0.00001 1.4122-0.39356 1.8135-1.1807 0.40642-0.79227 0.60964-1.9781 0.60965-3.5575-0.00001-1.5846-0.20323-2.7704-0.60965-3.5575-0.40129-0.79227-1.0058-1.1884-1.8135-1.1884m0-1.2347c1.2913 0.00001 2.2765 0.51191 2.9556 1.5357 0.68423 1.0187 1.0264 2.5003 1.0264 4.445-0.00001 1.9395-0.34213 3.4212-1.0264 4.445-0.6791 1.0186-1.6643 1.528-2.9556 1.528s-2.2791-0.50932-2.9633-1.528c-0.67909-1.0238-1.0186-2.5054-1.0186-4.445 0-1.9447 0.33955-3.4263 1.0186-4.445 0.68424-1.0238 1.672-1.5357 2.9633-1.5357"/>
   <path id="path3116" style="" d="m469.89-177.06v14.091h-3.272v-1.1035h1.8444v-11.884h-1.8444v-1.1035h3.272"/>
   <path id="path3118" style="" d="m353.84-156.82v4.2829h-1.3119v-4.2829h1.3119m2.917 0v4.2829h-1.3119v-4.2829h1.3119"/>
   <path id="path3120" style="" d="m365.99-149.61c-0.00001-1.0444-0.21609-1.8624-0.64823-2.454-0.42701-0.59677-1.0161-0.89516-1.7672-0.89517-0.75113 0.00001-1.3428 0.2984-1.7749 0.89517-0.42701 0.59165-0.64051 1.4096-0.64051 2.454s0.2135 1.8649 0.64051 2.4617c0.43215 0.59164 1.0238 0.88745 1.7749 0.88745 0.75111 0 1.3402-0.29581 1.7672-0.88745 0.43214-0.59678 0.64822-1.4174 0.64823-2.4617m-4.8308-3.0174c0.29839-0.51445 0.67395-0.89516 1.1267-1.1421 0.45787-0.25208 1.0032-0.37812 1.636-0.37813 1.0495 0.00001 1.901 0.41672 2.5543 1.2502 0.65851 0.83344 0.98776 1.9292 0.98777 3.2874-0.00001 1.3582-0.32926 2.454-0.98777 3.2874-0.65338 0.83343-1.5048 1.2502-2.5543 1.2502-0.63279 0-1.1781-0.12347-1.636-0.37042-0.45273-0.25208-0.82829-0.63536-1.1267-1.1498v1.2965h-1.4276v-12.008h1.4276v4.6765"/>
   <path id="path3122" style="" d="m373.74-149.64c-1.1473 0-1.9421 0.13119-2.3846 0.39357-0.44244 0.26238-0.66366 0.70996-0.66366 1.3428 0 0.50418 0.16463 0.90547 0.49389 1.2038 0.3344 0.29325 0.78713 0.43987 1.3582 0.43987 0.78713 0 1.4174-0.27781 1.8907-0.83343 0.47845-0.56077 0.71768-1.3042 0.71768-2.2302v-0.3164h-1.4122m2.8321-0.58649v4.9312h-1.4199v-1.3119c-0.32412 0.52475-0.72797 0.91318-1.2116 1.1653-0.48361 0.24695-1.0752 0.37042-1.7749 0.37042-0.88489 0-1.5897-0.24694-2.1145-0.74083-0.51961-0.49903-0.77941-1.1653-0.77941-1.9987 0-0.97234 0.32411-1.7054 0.97234-2.1994 0.65337-0.49388 1.6257-0.74082 2.917-0.74083h1.991v-0.1389c0-0.65337-0.21608-1.1575-0.64822-1.5125-0.42702-0.36012-1.0289-0.54018-1.8058-0.54019-0.49389 0.00001-0.97492 0.0592-1.4431 0.17749-0.46816 0.11833-0.91832 0.29582-1.3505 0.53247v-1.3119c0.51961-0.20063 1.0238-0.34983 1.5125-0.44758 0.48874-0.10289 0.96462-0.15433 1.4276-0.15434 1.2502 0.00001 2.1839 0.32412 2.8013 0.97234 0.61735 0.64823 0.92603 1.6309 0.92604 2.9479"/>
   <path id="path3124" style="" d="m379.51-153.94h1.4199v8.643h-1.4199v-8.643m0-3.3646h1.4199v1.7981h-1.4199v-1.7981"/>
   <path id="path3126" style="" d="m388.92-153.94h1.4199v8.7974c0 1.101-0.21093 1.8984-0.63279 2.3923-0.41672 0.49389-1.0907 0.74083-2.0218 0.74084h-0.54019v-1.2039h0.37813c0.54019 0 0.90803-0.12604 1.1035-0.37813 0.1955-0.24694 0.29325-0.76398 0.29325-1.5511v-8.7974m0-3.3646h1.4199v1.7981h-1.4199v-1.7981"/>
   <path id="path3128" style="" d="m393.31-153.94h1.4199v8.643h-1.4199v-8.643m0-3.3646h1.4199v1.7981h-1.4199v-1.7981"/>
   <path id="path3130" style="" d="m408.41-149.72c-0.00001-1.0289-0.21351-1.8264-0.64051-2.3923-0.42187-0.5659-1.0161-0.84886-1.7826-0.84887-0.76141 0.00001-1.3556 0.28297-1.7826 0.84887-0.42186 0.56592-0.63279 1.3633-0.63279 2.3923 0 1.0238 0.21093 1.8186 0.63279 2.3846 0.42701 0.56592 1.0212 0.84887 1.7826 0.84887 0.76655 0 1.3608-0.28295 1.7826-0.84887 0.427-0.56591 0.6405-1.3608 0.64051-2.3846m1.4199 3.3492c-0.00001 1.4714-0.32669 2.5646-0.98006 3.2797-0.65337 0.72025-1.654 1.0804-3.0019 1.0804-0.49903-0.00001-0.96977-0.0386-1.4122-0.11576-0.44244-0.072-0.87202-0.18521-1.2887-0.33955v-1.3813c0.41671 0.22636 0.82828 0.39357 1.2347 0.50161 0.40642 0.10803 0.82057 0.16205 1.2424 0.16205 0.93118 0 1.6283-0.24437 2.0913-0.73311 0.46301-0.4836 0.69452-1.2167 0.69453-2.1993v-0.70225c-0.29326 0.50932-0.66882 0.89003-1.1267 1.1421-0.45788 0.25209-1.0058 0.37814-1.6437 0.37814-1.0598 0-1.9138-0.40386-2.562-1.2116-0.64822-0.80771-0.97234-1.8778-0.97234-3.2103 0-1.3376 0.32412-2.4103 0.97234-3.218 0.64823-0.8077 1.5022-1.2116 2.562-1.2116 0.63793 0.00001 1.1858 0.12605 1.6437 0.37813 0.45787 0.2521 0.83343 0.6328 1.1267 1.1421v-1.3119h1.4199v7.5704"/>
   <path id="path3132" style="" d="m412.61-148.71v-5.2321h1.4199v5.1781c-0.00001 0.818 0.15948 1.4328 0.47845 1.8444 0.31896 0.40643 0.79742 0.60964 1.4354 0.60964 0.76655 0 1.371-0.24437 1.8135-0.73311 0.44758-0.48874 0.67137-1.155 0.67138-1.9987v-4.9003h1.4199v8.643h-1.4199v-1.3273c-0.3447 0.52476-0.74598 0.91575-1.2038 1.173-0.45274 0.25209-0.98006 0.37813-1.582 0.37813-0.99293 0-1.7466-0.30868-2.2611-0.92604-0.51447-0.61736-0.7717-1.5202-0.7717-2.7087m3.573-5.4405"/>
   <path id="path3134" style="" d="m426.71-149.64c-1.1473 0-1.9421 0.13119-2.3846 0.39357-0.44244 0.26238-0.66366 0.70996-0.66366 1.3428 0 0.50418 0.16463 0.90547 0.49389 1.2038 0.3344 0.29325 0.78713 0.43987 1.3582 0.43987 0.78713 0 1.4174-0.27781 1.8907-0.83343 0.47845-0.56077 0.71768-1.3042 0.71768-2.2302v-0.3164h-1.4122m2.8321-0.58649v4.9312h-1.4199v-1.3119c-0.32412 0.52475-0.72797 0.91318-1.2116 1.1653-0.48361 0.24695-1.0752 0.37042-1.7749 0.37042-0.88489 0-1.5897-0.24694-2.1145-0.74083-0.51961-0.49903-0.77942-1.1653-0.77941-1.9987-0.00001-0.97234 0.32411-1.7054 0.97234-2.1994 0.65337-0.49388 1.6257-0.74082 2.917-0.74083h1.991v-0.1389c0-0.65337-0.21608-1.1575-0.64822-1.5125-0.42702-0.36012-1.0289-0.54018-1.8058-0.54019-0.49389 0.00001-0.97492 0.0592-1.4431 0.17749-0.46816 0.11833-0.91832 0.29582-1.3505 0.53247v-1.3119c0.51961-0.20063 1.0238-0.34983 1.5125-0.44758 0.48874-0.10289 0.96462-0.15433 1.4276-0.15434 1.2502 0.00001 2.1839 0.32412 2.8013 0.97234 0.61735 0.64823 0.92603 1.6309 0.92604 2.9479"/>
   <path id="path3136" style="" d="m439.66-150.52v5.2167h-1.4199v-5.1704c-0.00001-0.81799-0.15949-1.4302-0.47845-1.8366-0.31898-0.40642-0.79743-0.60964-1.4354-0.60964-0.76656 0-1.3711 0.24437-1.8135 0.73311-0.44244 0.48875-0.66366 1.155-0.66366 1.9987v4.8849h-1.4276v-8.643h1.4276v1.3428c0.33955-0.5196 0.73826-0.90802 1.1961-1.1653 0.46301-0.25723 0.99548-0.38584 1.5974-0.38585 0.99292 0.00001 1.744 0.30868 2.2534 0.92604 0.50931 0.61222 0.76397 1.5151 0.76398 2.7087"/>
   <path id="path3138" style="" d="m442.33-156.82 4.0128 12.988h-1.3119l-4.0128-12.988h1.3119"/>
   <path id="path3140" style="" d="m451.38-155.8c-0.80258 0.00001-1.4071 0.39615-1.8135 1.1884-0.40128 0.78715-0.60193 1.973-0.60192 3.5575-0.00001 1.5794 0.20064 2.7653 0.60192 3.5575 0.40643 0.78714 1.0109 1.1807 1.8135 1.1807 0.8077 0 1.4122-0.39356 1.8135-1.1807 0.40642-0.79227 0.60963-1.9781 0.60964-3.5575-0.00001-1.5846-0.20322-2.7704-0.60964-3.5575-0.40129-0.79226-1.0058-1.1884-1.8135-1.1884m0-1.2347c1.2913 0.00001 2.2765 0.5119 2.9556 1.5357 0.68424 1.0186 1.0264 2.5003 1.0264 4.445 0 1.9395-0.34212 3.4212-1.0264 4.445-0.6791 1.0186-1.6643 1.528-2.9556 1.528s-2.2791-0.50932-2.9633-1.528c-0.6791-1.0238-1.0186-2.5054-1.0186-4.445 0-1.9447 0.33954-3.4263 1.0186-4.445 0.68424-1.0238 1.672-1.5357 2.9633-1.5357"/>
   <path id="path3142" style="" d="m458.11-147.26h1.6283v1.9601h-1.6283v-1.9601"/>
   <path id="path3144" style="" d="m463.14-147.26h1.6283v1.9601h-1.6283v-1.9601"/>
   <path id="path3146" style="" d="m468.18-147.26h1.6283v1.9601h-1.6283v-1.9601"/>
   <path id="path3148" style="" d="m473.21-147.26h1.6283v1.9601h-1.6283v-1.9601"/>
   <path id="path3150" style="" d="m478.24-147.26h1.6283v1.9601h-1.6283v-1.9601"/>
   <path id="path3152" style="" d="m483.27-147.26h1.6283v1.9601h-1.6283v-1.9601"/>
   <path id="path3154" style="" d="m488.3-147.26h1.6283v1.9601h-1.6283v-1.9601"/>
   <path id="path3156" style="" d="m493.33-147.26h1.6283v1.9601h-1.6283v-1.9601"/>
   <path id="path3158" style="" d="m498.36-147.26h1.6283v1.9601h-1.6283v-1.9601"/>
   <path id="path3160" style="" d="m504.54-156.82v4.2829h-1.3119v-4.2829h1.3119m2.917 0v4.2829h-1.3119v-4.2829h1.3119"/>
  </g>
 </g>
 <g id="g74" transform="translate(-2 -4.9784)">
  <path id="rect76" fill="#fff" d="m320 239.12h220v41.756h-220z"/>
  <path id="rect78" d="m320 239.12h220v41.756h-220z" stroke="#000" stroke-width="2" fill="none"/>
  <g id="text80">
   <path id="path3165" style="" d="m386.56 253.3h1.5588v4.8694l5.1704-4.8694h2.0064l-5.7183 5.371 6.1273 6.1504h-2.0527l-5.5331-5.5485v5.5485h-1.5588v-11.521"/>
   <path id="path3167" style="" d="m399.45 257.17c-0.76142 0.00001-1.3633 0.2984-1.8058 0.89517-0.44244 0.59164-0.66366 1.4045-0.66366 2.4386s0.21864 1.8495 0.65594 2.4463c0.44244 0.59164 1.0469 0.88745 1.8135 0.88745 0.75626 0 1.3556-0.29839 1.7981-0.89517 0.44243-0.59678 0.66365-1.4096 0.66366-2.4386-0.00001-1.0238-0.22123-1.8341-0.66366-2.4308-0.44245-0.60192-1.0418-0.90288-1.7981-0.90289m0-1.2038c1.2347 0.00001 2.2045 0.40129 2.9093 1.2038 0.70481 0.80258 1.0572 1.9138 1.0572 3.3337-0.00001 1.4148-0.35242 2.526-1.0572 3.3337-0.70482 0.80257-1.6746 1.2038-2.9093 1.2038-1.2399 0-2.2122-0.40128-2.917-1.2038-0.69967-0.80771-1.0495-1.919-1.0495-3.3337 0-1.4199 0.34984-2.5312 1.0495-3.3337 0.70482-0.80256 1.6772-1.2038 2.917-1.2038"/>
   <path id="path3169" style="" d="m412.49 257.84c0.35498-0.63793 0.77941-1.1087 1.2733-1.4122 0.49387-0.30352 1.0752-0.45529 1.744-0.4553 0.9003 0.00001 1.5948 0.31641 2.0836 0.94919 0.48872 0.62766 0.7331 1.5228 0.73311 2.6855v5.2167h-1.4276v-5.1704c-0.00002-0.82829-0.14664-1.4431-0.43987-1.8444-0.29326-0.40127-0.74085-0.60191-1.3428-0.60192-0.7357 0.00001-1.317 0.24438-1.744 0.73311-0.42702 0.48875-0.64052 1.155-0.64051 1.9987v4.8849h-1.4276v-5.1704c-0.00001-0.83343-0.14663-1.4482-0.43987-1.8444-0.29325-0.40127-0.74598-0.60191-1.3582-0.60192-0.7254 0.00001-1.3016 0.24695-1.7286 0.74083-0.42701 0.48875-0.64051 1.1524-0.64051 1.991v4.8849h-1.4276v-8.643h1.4276v1.3428c0.32411-0.5299 0.71253-0.92089 1.1653-1.173 0.45272-0.25208 0.99034-0.37812 1.6128-0.37813 0.62764 0.00001 1.1601 0.15949 1.5974 0.47845 0.44243 0.31898 0.76911 0.782 0.98005 1.3891"/>
   <path id="path3171" style="" d="m422.54 263.53v4.5839h-1.4276v-11.93h1.4276v1.3119c0.29839-0.51446 0.67395-0.89516 1.1267-1.1421 0.45787-0.25208 1.0032-0.37812 1.636-0.37813 1.0495 0.00001 1.901 0.41673 2.5543 1.2502 0.6585 0.83345 0.98776 1.9293 0.98777 3.2874-0.00001 1.3582-0.32927 2.454-0.98777 3.2874-0.65338 0.83344-1.5048 1.2502-2.5543 1.2502-0.6328 0-1.1781-0.12347-1.636-0.37041-0.45273-0.25209-0.82829-0.63537-1.1267-1.1498m4.8308-3.0174c-0.00001-1.0444-0.21609-1.8624-0.64823-2.454-0.42702-0.59677-1.0161-0.89516-1.7672-0.89517-0.75113 0.00001-1.3428 0.2984-1.7749 0.89517-0.42701 0.59164-0.64051 1.4096-0.64051 2.454s0.2135 1.8649 0.64051 2.4617c0.43215 0.59164 1.0238 0.88746 1.7749 0.88746 0.75111 0 1.3402-0.29582 1.7672-0.88746 0.43214-0.59678 0.64822-1.4174 0.64823-2.4617"/>
   <path id="path3173" style="" d="m431.2 252.81h1.4199v12.008h-1.4199v-12.008"/>
   <path id="path3175" style="" d="m442.97 260.15v0.69453h-6.5286c0.0617 0.97749 0.35498 1.7235 0.87973 2.2379 0.5299 0.50932 1.2656 0.76398 2.2071 0.76398 0.54533 0 1.0727-0.0669 1.582-0.20064 0.51446-0.13376 1.0238-0.3344 1.528-0.60192v1.3428c-0.50933 0.21608-1.0315 0.38071-1.5666 0.49389-0.53505 0.11318-1.0778 0.16977-1.6283 0.16977-1.3788 0-2.472-0.40128-3.2797-1.2038-0.80257-0.80256-1.2039-1.8881-1.2039-3.2566 0-1.4148 0.38071-2.5363 1.1421-3.3646 0.76655-0.83342 1.7981-1.2501 3.0945-1.2502 1.1627 0.00001 2.081 0.37557 2.755 1.1267 0.67909 0.74598 1.0186 1.762 1.0186 3.0482m-1.4199-0.41671c-0.0103-0.77684-0.22895-1.3968-0.65595-1.8598-0.42187-0.46301-0.98263-0.69452-1.6823-0.69453-0.79228 0.00001-1.4276 0.2238-1.9061 0.67138-0.47331 0.44759-0.74598 1.0778-0.818 1.8907l5.0624-0.008"/>
   <path id="path3177" style="" d="m452.21 256.18-3.1254 4.2058 3.2874 4.4373h-1.6746l-2.5157-3.3955-2.5157 3.3955h-1.6746l3.3569-4.5222-3.0714-4.1209h1.6746l2.292 3.0791 2.292-3.0791h1.6746"/>
   <path id="path3179" style="" d="m465.35 255.2-2.7704 1.4971 2.7704 1.5048-0.44759 0.75627-2.5929-1.5666v2.9093h-0.87973v-2.9093l-2.5929 1.5666-0.44759-0.75627 2.7704-1.5048-2.7704-1.4971 0.44759-0.76398 2.5929 1.5666v-2.9093h0.87973v2.9093l2.5929-1.5666 0.44759 0.76398"/>
   <path id="path3181" style="" d="m467.26 252.81h1.4276v7.0919l4.2366-3.7273h1.8135l-4.5839 4.0437 4.7768 4.5993h-1.8521l-4.391-4.2212v4.2212h-1.4276v-12.008"/>
  </g>
 </g>
 <g id="g84" transform="translate(-2 -4.9784)">
  <path id="rect86" fill="#e0e0e0" d="m320-120.88h220v41.756h-220z"/>
  <path id="rect88" d="m320-120.88h220v41.756h-220z" stroke="#000" stroke-width="2" fill="none"/>
  <g id="text90">
   <path id="path3186" style="" d="m397.61-106.7h1.5588v4.8694l5.1704-4.8694h2.0064l-5.7183 5.371 6.1273 6.1504h-2.0527l-5.5331-5.5485v5.5485h-1.5588v-11.521"/>
   <path id="path3188" style="" d="m410.5-102.83c-0.76141 0.00001-1.3633 0.2984-1.8058 0.89517-0.44244 0.59164-0.66366 1.4045-0.66366 2.4386s0.21865 1.8495 0.65595 2.4463c0.44243 0.59164 1.0469 0.88746 1.8135 0.88745 0.75626 0.000001 1.3556-0.29839 1.7981-0.89517 0.44243-0.59678 0.66365-1.4096 0.66366-2.4386-0.00001-1.0238-0.22123-1.8341-0.66366-2.4308-0.44245-0.60192-1.0418-0.90288-1.7981-0.90289m0-1.2038c1.2347 0.00001 2.2045 0.40129 2.9093 1.2038 0.70481 0.80257 1.0572 1.9138 1.0572 3.3337 0 1.4148-0.35241 2.526-1.0572 3.3337-0.70483 0.80257-1.6746 1.2039-2.9093 1.2039-1.2399 0-2.2122-0.40128-2.917-1.2039-0.69968-0.80771-1.0495-1.919-1.0495-3.3337 0-1.4199 0.34983-2.5312 1.0495-3.3337 0.70481-0.80256 1.6772-1.2038 2.917-1.2038"/>
   <path id="path3190" style="" d="m423.54-102.16c0.35497-0.63793 0.7794-1.1087 1.2733-1.4122 0.49388-0.30353 1.0752-0.45529 1.744-0.4553 0.9003 0.00001 1.5948 0.3164 2.0836 0.94919 0.48873 0.62765 0.7331 1.5228 0.73311 2.6855v5.2167h-1.4276v-5.1704c-0.00001-0.82828-0.14664-1.4431-0.43987-1.8444-0.29326-0.40128-0.74084-0.60192-1.3428-0.60192-0.73569 0-1.317 0.24437-1.744 0.73311-0.42701 0.48875-0.64052 1.155-0.64051 1.9987v4.8849h-1.4276v-5.1704c-0.00001-0.83343-0.14663-1.4482-0.43987-1.8444-0.29325-0.40128-0.74598-0.60192-1.3582-0.60192-0.7254 0-1.3016 0.24695-1.7286 0.74083-0.42701 0.48875-0.64051 1.1524-0.64051 1.991v4.8849h-1.4276v-8.643h1.4276v1.3428c0.32411-0.52989 0.71254-0.92088 1.1653-1.173 0.45273-0.25208 0.99034-0.37812 1.6128-0.37813 0.62764 0.00001 1.1601 0.15949 1.5974 0.47845 0.44243 0.31898 0.76912 0.782 0.98006 1.3891"/>
   <path id="path3192" style="" d="m433.59-96.474v4.5839h-1.4276v-11.93h1.4276v1.3119c0.29839-0.51445 0.67395-0.89516 1.1267-1.1421 0.45787-0.25208 1.0032-0.37812 1.636-0.37813 1.0495 0.00001 1.901 0.41672 2.5543 1.2502 0.65851 0.83344 0.98777 1.9292 0.98777 3.2874s-0.32926 2.454-0.98777 3.2874c-0.65338 0.83344-1.5048 1.2502-2.5543 1.2502-0.63279 0-1.1781-0.12347-1.636-0.37042-0.45273-0.25209-0.82829-0.63536-1.1267-1.1498m4.8308-3.0173c-0.00001-1.0444-0.21608-1.8624-0.64823-2.454-0.42701-0.59677-1.0161-0.89516-1.7672-0.89517-0.75112 0.00001-1.3428 0.2984-1.7749 0.89517-0.42701 0.59165-0.64051 1.4096-0.64051 2.454s0.2135 1.8649 0.64051 2.4617c0.43215 0.59164 1.0238 0.88746 1.7749 0.88745 0.75111 0.000001 1.3402-0.29582 1.7672-0.88745 0.43215-0.59678 0.64822-1.4174 0.64823-2.4617"/>
   <path id="path3194" style="" d="m442.25-107.19h1.4199v12.008h-1.4199v-12.008"/>
   <path id="path3196" style="" d="m454.02-99.854v0.69453h-6.5286c0.0617 0.97749 0.35498 1.7235 0.87974 2.2379 0.52989 0.50932 1.2656 0.76398 2.2071 0.76398 0.54533 0.000001 1.0726-0.06688 1.582-0.20064 0.51446-0.13376 1.0238-0.3344 1.528-0.60192v1.3428c-0.50933 0.21608-1.0315 0.3807-1.5666 0.49389-0.53506 0.11318-1.0778 0.16977-1.6283 0.16977-1.3788 0-2.472-0.40128-3.2797-1.2039-0.80257-0.80257-1.2038-1.8881-1.2038-3.2566 0-1.4148 0.3807-2.5363 1.1421-3.3646 0.76655-0.83343 1.7981-1.2501 3.0945-1.2502 1.1627 0.00001 2.081 0.37557 2.755 1.1267 0.67909 0.74598 1.0186 1.762 1.0186 3.0482m-1.4199-0.41672c-0.0103-0.77684-0.22895-1.3968-0.65594-1.8598-0.42187-0.46302-0.98264-0.69452-1.6823-0.69453-0.79228 0.00001-1.4276 0.2238-1.9061 0.67138-0.47331 0.44759-0.74597 1.0778-0.818 1.8907l5.0624-0.008"/>
   <path id="path3198" style="" d="m463.26-103.82-3.1254 4.2058 3.2874 4.4373h-1.6746l-2.5157-3.3955-2.5157 3.3955h-1.6746l3.3569-4.5222-3.0714-4.1209h1.6746l2.2919 3.0791 2.292-3.0791h1.6746"/>
  </g>
 </g>
 <g id="g94" transform="translate(-2 -4.9784)">
  <path id="path96" d="m540 260c60 0 60-360 9.736-360" stroke="#000" stroke-width="2" fill="none"/>
  <path id="polygon98" d="m549.74-100 2.5 5-10-5 10-5z"/>
  <path id="polygon100" d="m549.74-100 2.5 5-10-5 10-5z" stroke="#000" stroke-width="2" fill="none"/>
 </g>
 <g id="g102" transform="translate(-2 -4.9784)">
  <path id="rect104" fill="#fff" d="m320 199.12h220v41.756h-220z"/>
  <path id="rect106" d="m320 199.12h220v41.756h-220z" stroke="#000" stroke-width="2" fill="none"/>
  <g id="text108">
   <path id="path3205" style="" d="m401.18 216.18h1.4199v8.643h-1.4199v-8.643m0-3.3646h1.4199v1.7981h-1.4199v-1.7981"/>
   <path id="path3207" style="" d="m412.74 219.61v5.2167h-1.4199v-5.1704c-0.00001-0.81799-0.15949-1.4302-0.47846-1.8366-0.31897-0.40642-0.79742-0.60964-1.4354-0.60965-0.76655 0.00001-1.371 0.24438-1.8135 0.73312-0.44244 0.48875-0.66366 1.155-0.66366 1.9987v4.8849h-1.4276v-8.643h1.4276v1.3428c0.33954-0.5196 0.73826-0.90802 1.1961-1.1653 0.46302-0.25723 0.99549-0.38585 1.5974-0.38585 0.99291 0 1.744 0.30868 2.2534 0.92604 0.50932 0.61222 0.76398 1.5151 0.76398 2.7087"/>
   <path id="path3209" style="" d="m417 213.72v2.454h2.9247v1.1035h-2.9247v4.6919c0 0.70482 0.0952 1.1576 0.28553 1.3582 0.19549 0.20064 0.58906 0.30096 1.1807 0.30096h1.4585v1.1884h-1.4585c-1.0958 0-1.8521-0.20322-2.2688-0.60965-0.41672-0.41157-0.62508-1.1575-0.62508-2.2379v-4.6919h-1.0418v-1.1035h1.0418v-2.454h1.4276"/>
   <path id="path3211" style="" d="m432.77 215.2-2.7704 1.4971 2.7704 1.5048-0.44758 0.75626-2.5929-1.5666v2.9093h-0.87974v-2.9093l-2.5929 1.5666-0.44759-0.75626 2.7704-1.5048-2.7704-1.4971 0.44759-0.76399 2.5929 1.5666v-2.9093h0.87974v2.9093l2.5929-1.5666 0.44758 0.76399"/>
   <path id="path3213" style="" d="m440.24 216.43v1.3428c-0.40129-0.20578-0.81801-0.36012-1.2502-0.46302-0.43216-0.10288-0.87975-0.15433-1.3428-0.15434-0.70482 0.00001-1.2347 0.10805-1.5897 0.32412-0.34984 0.21608-0.52476 0.54019-0.52476 0.97234 0 0.32926 0.12604 0.58907 0.37814 0.77941 0.25208 0.18522 0.75883 0.36271 1.5202 0.53248l0.48617 0.10803c1.0084 0.21608 1.7235 0.52219 2.1453 0.91833 0.427 0.39099 0.6405 0.9389 0.64051 1.6437-0.00001 0.80256-0.31898 1.4379-0.95691 1.9061-0.6328 0.46817-1.5048 0.70225-2.6161 0.70225-0.46302 0-0.94662-0.0463-1.4508-0.13891-0.49904-0.0875-1.0264-0.22122-1.582-0.40128v-1.4662c0.52476 0.27267 1.0418 0.47846 1.5511 0.61736 0.50932 0.13376 1.0135 0.20064 1.5125 0.20064 0.6688 0 1.1833-0.11318 1.5434-0.33955 0.36012-0.2315 0.54018-0.55562 0.54019-0.97234-0.00001-0.38584-0.1312-0.68166-0.39357-0.88745-0.25724-0.20578-0.82572-0.40385-1.7055-0.59421l-0.49388-0.11575c-0.87974-0.18521-1.5151-0.46816-1.9061-0.84887-0.391-0.38585-0.58649-0.91317-0.58649-1.582 0-0.81285 0.2881-1.4405 0.8643-1.8829 0.5762-0.44243 1.3942-0.66366 2.454-0.66366 0.52476 0 1.0186 0.0386 1.4817 0.11575 0.46301 0.0772 0.89002 0.19293 1.281 0.34727"/>
   <path id="path3215" style="" d="m446.32 217.17c-0.76142 0-1.3633 0.29839-1.8058 0.89517-0.44244 0.59164-0.66366 1.4045-0.66366 2.4386s0.21865 1.8495 0.65595 2.4463c0.44243 0.59164 1.0469 0.88746 1.8135 0.88746 0.75626 0 1.3556-0.29839 1.7981-0.89517 0.44243-0.59678 0.66365-1.4096 0.66366-2.4386-0.00001-1.0238-0.22123-1.8341-0.66366-2.4309-0.44245-0.60191-1.0418-0.90288-1.7981-0.90288m0-1.2038c1.2347 0 2.2045 0.40129 2.9093 1.2038 0.70481 0.80257 1.0572 1.9138 1.0572 3.3337-0.00001 1.4148-0.35241 2.526-1.0572 3.3337-0.70483 0.80257-1.6746 1.2038-2.9093 1.2038-1.2399 0-2.2122-0.40128-2.917-1.2038-0.69968-0.80771-1.0495-1.919-1.0495-3.3337 0-1.4199 0.34984-2.5312 1.0495-3.3337 0.70481-0.80256 1.6772-1.2038 2.917-1.2038"/>
   <path id="path3217" style="" d="m452.58 212.81h1.4276v7.0919l4.2366-3.7273h1.8135l-4.5839 4.0437 4.7768 4.5993h-1.8521l-4.391-4.2212v4.2212h-1.4276v-12.008"/>
  </g>
 </g>
 <g id="g112" transform="translate(-2 -4.9784)">
  <path id="rect114" fill="#fff" d="m320-80h220v120h-220z"/>
  <path id="rect116" d="m320-80h220v120h-220z" stroke="#000" stroke-width="2" fill="none"/>
  <g id="text118">
   <path id="path3222" style="" d="m392.36-23.821h1.4199v8.643h-1.4199v-8.643m0-3.3646h1.4199v1.7981h-1.4199v-1.7981"/>
   <path id="path3224" style="" d="m403.93-20.394v5.2167h-1.4199v-5.1704c0-0.818-0.15949-1.4302-0.47845-1.8366-0.31898-0.40642-0.79743-0.60964-1.4354-0.60964-0.76656 0.000008-1.3711 0.24438-1.8135 0.73312-0.44245 0.48875-0.66367 1.155-0.66367 1.9987v4.8849h-1.4276v-8.643h1.4276v1.3428c0.33955-0.5196 0.73826-0.90802 1.1961-1.1653 0.46301-0.25722 0.99549-0.38584 1.5974-0.38585 0.99291 0.000008 1.744 0.30869 2.2534 0.92604 0.50931 0.61222 0.76397 1.5151 0.76398 2.7087"/>
   <path id="path3226" style="" d="m408.18-26.275v2.454h2.9247v1.1035h-2.9247v4.6919c0 0.70482 0.0952 1.1576 0.28553 1.3582 0.1955 0.20064 0.58906 0.30096 1.1807 0.30096h1.4585v1.1884h-1.4585c-1.0958 0-1.8521-0.20321-2.2688-0.60964-0.41672-0.41157-0.62508-1.1575-0.62508-2.2379v-4.6919h-1.0418v-1.1035h1.0418v-2.454h1.4276"/>
   <path id="path3228" style="" d="m417.88-27.185h3.272v1.1035h-1.8521v11.884h1.8521v1.1035h-3.272v-14.091"/>
   <path id="path3230" style="" d="m424.66-16.49h2.5466v-8.7897l-2.7704 0.55562v-1.4199l2.755-0.55562h1.5588v10.21h2.5466v1.3119h-6.6366v-1.3119"/>
   <path id="path3232" style="" d="m437.79-25.673c-0.80257 0.000011-1.4071 0.39615-1.8135 1.1884-0.40129 0.78714-0.60193 1.973-0.60193 3.5575 0 1.5794 0.20064 2.7653 0.60193 3.5575 0.40642 0.78714 1.0109 1.1807 1.8135 1.1807 0.80771 0.000001 1.4122-0.39356 1.8135-1.1807 0.40642-0.79228 0.60963-1.9781 0.60964-3.5575-0.00001-1.5845-0.20322-2.7704-0.60964-3.5575-0.40129-0.79227-1.0058-1.1884-1.8135-1.1884m0-1.2347c1.2913 0.000012 2.2765 0.5119 2.9556 1.5357 0.68423 1.0187 1.0264 2.5003 1.0264 4.445-0.00001 1.9395-0.34213 3.4212-1.0264 4.445-0.6791 1.0186-1.6643 1.528-2.9556 1.528-1.2913-0.000001-2.2791-0.50932-2.9633-1.528-0.6791-1.0238-1.0186-2.5054-1.0186-4.445-0.00001-1.9447 0.33954-3.4263 1.0186-4.445 0.68424-1.0238 1.672-1.5357 2.9633-1.5357"/>
   <path id="path3234" style="" d="m447.85-25.673c-0.80257 0.000011-1.4071 0.39615-1.8135 1.1884-0.40129 0.78714-0.60193 1.973-0.60193 3.5575 0 1.5794 0.20064 2.7653 0.60193 3.5575 0.40642 0.78714 1.0109 1.1807 1.8135 1.1807 0.80771 0.000001 1.4122-0.39356 1.8135-1.1807 0.40643-0.79228 0.60964-1.9781 0.60965-3.5575-0.00001-1.5845-0.20322-2.7704-0.60965-3.5575-0.40129-0.79227-1.0058-1.1884-1.8135-1.1884m0-1.2347c1.2913 0.000012 2.2765 0.5119 2.9556 1.5357 0.68423 1.0187 1.0264 2.5003 1.0264 4.445-0.00001 1.9395-0.34213 3.4212-1.0264 4.445-0.6791 1.0186-1.6643 1.528-2.9556 1.528-1.2913-0.000001-2.2791-0.50932-2.9633-1.528-0.6791-1.0238-1.0186-2.5054-1.0186-4.445 0-1.9447 0.33955-3.4263 1.0186-4.445 0.68423-1.0238 1.672-1.5357 2.9633-1.5357"/>
   <path id="path3236" style="" d="m457.91-25.673c-0.80257 0.000011-1.4071 0.39615-1.8135 1.1884-0.40129 0.78714-0.60193 1.973-0.60193 3.5575 0 1.5794 0.20064 2.7653 0.60193 3.5575 0.40642 0.78714 1.0109 1.1807 1.8135 1.1807 0.8077 0.000001 1.4122-0.39356 1.8135-1.1807 0.40642-0.79228 0.60964-1.9781 0.60964-3.5575 0-1.5845-0.20322-2.7704-0.60964-3.5575-0.40129-0.79227-1.0058-1.1884-1.8135-1.1884m0-1.2347c1.2913 0.000012 2.2765 0.5119 2.9556 1.5357 0.68423 1.0187 1.0264 2.5003 1.0264 4.445-0.00001 1.9395-0.34213 3.4212-1.0264 4.445-0.67911 1.0186-1.6643 1.528-2.9556 1.528-1.2913-0.000001-2.2791-0.50932-2.9633-1.528-0.67909-1.0238-1.0186-2.5054-1.0186-4.445 0-1.9447 0.33955-3.4263 1.0186-4.445 0.68424-1.0238 1.672-1.5357 2.9633-1.5357"/>
   <path id="path3238" style="" d="m467.76-27.185v14.091h-3.272v-1.1035h1.8444v-11.884h-1.8444v-1.1035h3.272"/>
  </g>
 </g>
 <g id="g122" transform="translate(-2 -4.9784)">
  <path id="path124" d="m540 220c40 0 40-240 9.736-240" stroke="#000" stroke-width="2" fill="none"/>
  <path id="polygon126" d="m549.74-20 2.5 5-10-5 10-5z"/>
  <path id="polygon128" d="m549.74-20 2.5 5-10-5 10-5z" stroke="#000" stroke-width="2" fill="none"/>
 </g>
</svg>
