<?xml version="1.0" encoding="UTF-8" standalone="no"?>
<!-- Created with Inkscape (http://www.inkscape.org/) -->
<svg id="svg2" xmlns:rdf="http://www.w3.org/1999/02/22-rdf-syntax-ns#" xmlns="http://www.w3.org/2000/svg" height="894.76" width="563.87" version="1.1" xmlns:cc="http://creativecommons.org/ns#" xmlns:dc="http://purl.org/dc/elements/1.1/" viewBox="272 -179 313.29769 486.58696">
 <metadata id="metadata142">
  <rdf:RDF>
   <cc:Work rdf:about="">
    <dc:format>image/svg+xml</dc:format>
    <dc:type rdf:resource="http://purl.org/dc/dcmitype/StillImage"/>
   </cc:Work>
  </rdf:RDF>
 </metadata>
 <g id="g4" transform="translate(-2 -9.0096)">
  <path id="rect6" fill="#fff" d="m320 120h220v200h-220z"/>
  <path id="rect8" d="m320 120h220v200h-220z" stroke="#000" stroke-width="2" fill="none"/>
 </g>
 <g id="g10" transform="translate(-2 -9.0096)">
  <path id="rect12" fill="#fff" d="m320 239.12h220v41.756h-220z"/>
  <path id="rect14" d="m320 239.12h220v41.756h-220z" stroke="#000" stroke-width="2" fill="none"/>
  <g id="text16">
   <path id="path3054" style="" d="m373.69 256.51v1.3273c-0.40129-0.22121-0.80515-0.38584-1.2116-0.49388-0.40129-0.11318-0.80772-0.16977-1.2193-0.16978-0.92089 0.00001-1.636 0.29325-2.1453 0.87974-0.50932 0.58135-0.76398 1.3994-0.76398 2.454 0 1.0547 0.25466 1.8752 0.76398 2.4617 0.50932 0.58135 1.2244 0.87202 2.1453 0.87202 0.41157 0 0.818-0.054 1.2193-0.16205 0.40642-0.11319 0.81028-0.28039 1.2116-0.50161v1.3119c-0.39615 0.18521-0.80772 0.32411-1.2347 0.41672-0.42187 0.0926-0.87203 0.1389-1.3505 0.1389-1.3016 0-2.3357-0.409-3.1022-1.227-0.76655-0.818-1.1498-1.9215-1.1498-3.3106 0-1.4096 0.38585-2.5183 1.1576-3.326 0.77684-0.8077 1.8392-1.2116 3.1871-1.2116 0.43729 0.00001 0.86429 0.0463 1.281 0.13891 0.41671 0.0875 0.82056 0.22123 1.2116 0.40128"/>
   <path id="path3056" style="" d="m383.36 259.61v5.2167h-1.4199v-5.1704c-0.00001-0.818-0.15949-1.4302-0.47845-1.8366-0.31898-0.40642-0.79743-0.60963-1.4354-0.60964-0.76656 0.00001-1.3711 0.24438-1.8135 0.73311-0.44244 0.48875-0.66366 1.155-0.66366 1.9987v4.8849h-1.4276v-12.008h1.4276v4.7074c0.33955-0.51961 0.73826-0.90803 1.1961-1.1653 0.46301-0.25722 0.99548-0.38584 1.5974-0.38585 0.99292 0.00001 1.744 0.30869 2.2534 0.92604 0.50931 0.61222 0.76397 1.5151 0.76398 2.7087"/>
   <path id="path3058" style="" d="m390.13 260.48c-1.1473 0.00001-1.9421 0.1312-2.3846 0.39357-0.44245 0.26238-0.66367 0.70997-0.66366 1.3428-0.00001 0.50418 0.16462 0.90546 0.49388 1.2038 0.3344 0.29325 0.78713 0.43987 1.3582 0.43987 0.78713 0 1.4174-0.27781 1.8907-0.83344 0.47844-0.56076 0.71767-1.3042 0.71768-2.2302v-0.3164h-1.4122m2.8321-0.58649v4.9312h-1.4199v-1.3119c-0.32412 0.52476-0.72798 0.91318-1.2116 1.1653-0.4836 0.24694-1.0752 0.37041-1.7749 0.37041-0.88488 0-1.5897-0.24694-2.1144-0.74083-0.51962-0.49903-0.77942-1.1653-0.77942-1.9987 0-0.97234 0.32411-1.7054 0.97234-2.1993 0.65337-0.49388 1.6257-0.74083 2.917-0.74083h1.991v-0.13891c-0.00001-0.65336-0.21608-1.1575-0.64823-1.5125-0.42701-0.36012-1.0289-0.54018-1.8058-0.54019-0.49389 0.00001-0.97491 0.0592-1.4431 0.17749-0.46817 0.11834-0.91833 0.29583-1.3505 0.53247v-1.3119c0.51961-0.20064 1.0238-0.34983 1.5125-0.44759 0.48874-0.10288 0.96462-0.15433 1.4276-0.15434 1.2501 0.00001 2.1839 0.32412 2.8013 0.97234 0.61735 0.64824 0.92603 1.6309 0.92603 2.9479"/>
   <path id="path3060" style="" d="m400.91 257.51c-0.15949-0.0926-0.33441-0.15947-0.52476-0.20064-0.18521-0.0463-0.391-0.0694-0.61736-0.0694-0.80257 0.00001-1.4199 0.26238-1.8521 0.78713-0.42701 0.51962-0.64052 1.2682-0.64052 2.2456v4.553h-1.4276v-8.643h1.4276v1.3428c0.29839-0.52475 0.68681-0.91317 1.1653-1.1653 0.47845-0.25722 1.0598-0.38584 1.744-0.38585 0.0977 0.00001 0.20578 0.008 0.32411 0.0232 0.11833 0.0103 0.24951 0.0283 0.39357 0.054l0.008 1.4585"/>
   <path id="path3062" style="" d="m413.39 255.2-2.7704 1.4971 2.7704 1.5048-0.44759 0.75627-2.5929-1.5666v2.9093h-0.87974v-2.9093l-2.5929 1.5666-0.44759-0.75627 2.7704-1.5048-2.7704-1.4971 0.44759-0.76398 2.5929 1.5666v-2.9093h0.87974v2.9093l2.5929-1.5666 0.44759 0.76398"/>
   <path id="path3064" style="" d="m414.33 256.18h1.5048l2.701 7.254 2.701-7.254h1.5048l-3.2411 8.643h-1.9292l-3.2411-8.643"/>
   <path id="path3066" style="" d="m432.09 260.15v0.69453h-6.5286c0.0617 0.97749 0.35498 1.7235 0.87973 2.2379 0.5299 0.50932 1.2656 0.76398 2.2071 0.76398 0.54533 0 1.0727-0.0669 1.582-0.20064 0.51446-0.13376 1.0238-0.3344 1.528-0.60192v1.3428c-0.50933 0.21608-1.0315 0.38071-1.5666 0.49389-0.53505 0.11318-1.0778 0.16977-1.6283 0.16977-1.3788 0-2.472-0.40128-3.2797-1.2038-0.80257-0.80256-1.2039-1.8881-1.2039-3.2566 0-1.4148 0.38071-2.5363 1.1421-3.3646 0.76655-0.83342 1.7981-1.2501 3.0945-1.2502 1.1627 0.00001 2.081 0.37557 2.755 1.1267 0.67909 0.74598 1.0186 1.762 1.0186 3.0482m-1.4199-0.41671c-0.0103-0.77684-0.22895-1.3968-0.65595-1.8598-0.42187-0.46301-0.98263-0.69452-1.6823-0.69453-0.79228 0.00001-1.4276 0.2238-1.9061 0.67138-0.47331 0.44759-0.74598 1.0778-0.818 1.8907l5.0624-0.008"/>
   <path id="path3068" style="" d="m439.43 257.51c-0.15949-0.0926-0.33441-0.15947-0.52476-0.20064-0.18521-0.0463-0.391-0.0694-0.61736-0.0694-0.80257 0.00001-1.4199 0.26238-1.8521 0.78713-0.42701 0.51962-0.64051 1.2682-0.64051 2.2456v4.553h-1.4276v-8.643h1.4276v1.3428c0.29839-0.52475 0.68681-0.91317 1.1653-1.1653 0.47845-0.25722 1.0598-0.38584 1.744-0.38585 0.0977 0.00001 0.20578 0.008 0.32411 0.0232 0.11833 0.0103 0.24951 0.0283 0.39357 0.054l0.008 1.4585"/>
   <path id="path3070" style="" d="m447.99 260.15v0.69453h-6.5286c0.0617 0.97749 0.35498 1.7235 0.87974 2.2379 0.5299 0.50932 1.2656 0.76398 2.2071 0.76398 0.54533 0 1.0727-0.0669 1.582-0.20064 0.51446-0.13376 1.0238-0.3344 1.528-0.60192v1.3428c-0.50933 0.21608-1.0315 0.38071-1.5666 0.49389-0.53505 0.11318-1.0778 0.16977-1.6283 0.16977-1.3788 0-2.472-0.40128-3.2797-1.2038-0.80257-0.80256-1.2038-1.8881-1.2038-3.2566 0-1.4148 0.38071-2.5363 1.1421-3.3646 0.76655-0.83342 1.798-1.2501 3.0945-1.2502 1.1627 0.00001 2.081 0.37557 2.755 1.1267 0.67908 0.74598 1.0186 1.762 1.0186 3.0482m-1.4199-0.41671c-0.0103-0.77684-0.22894-1.3968-0.65594-1.8598-0.42187-0.46301-0.98264-0.69452-1.6823-0.69453-0.79228 0.00001-1.4276 0.2238-1.9061 0.67138-0.47331 0.44759-0.74598 1.0778-0.818 1.8907l5.0623-0.008"/>
   <path id="path3072" style="" d="m457.05 257.84c0.35497-0.63793 0.77941-1.1087 1.2733-1.4122 0.49388-0.30352 1.0752-0.45529 1.744-0.4553 0.90031 0.00001 1.5948 0.31641 2.0836 0.94919 0.48873 0.62766 0.7331 1.5228 0.73312 2.6855v5.2167h-1.4276v-5.1704c-0.00001-0.82829-0.14663-1.4431-0.43987-1.8444-0.29325-0.40127-0.74084-0.60191-1.3428-0.60192-0.7357 0.00001-1.317 0.24438-1.744 0.73311-0.42702 0.48875-0.64052 1.155-0.64051 1.9987v4.8849h-1.4276v-5.1704c0-0.83343-0.14663-1.4482-0.43987-1.8444-0.29325-0.40127-0.74598-0.60191-1.3582-0.60192-0.7254 0.00001-1.3016 0.24695-1.7286 0.74083-0.42701 0.48875-0.64052 1.1524-0.64051 1.991v4.8849h-1.4276v-8.643h1.4276v1.3428c0.32411-0.5299 0.71253-0.92089 1.1653-1.173 0.45273-0.25208 0.99035-0.37812 1.6128-0.37813 0.62765 0.00001 1.1601 0.15949 1.5974 0.47845 0.44244 0.31898 0.76912 0.782 0.98006 1.3891"/>
   <path id="path3074" style="" d="m471.93 260.51c-0.00001-1.0444-0.21608-1.8624-0.64823-2.454-0.42701-0.59677-1.0161-0.89516-1.7672-0.89517-0.75112 0.00001-1.3428 0.2984-1.7749 0.89517-0.42701 0.59164-0.64051 1.4096-0.64051 2.454s0.2135 1.8649 0.64051 2.4617c0.43215 0.59164 1.0238 0.88746 1.7749 0.88746 0.75111 0 1.3402-0.29582 1.7672-0.88746 0.43215-0.59678 0.64822-1.4174 0.64823-2.4617m-4.8308-3.0173c0.29839-0.51446 0.67395-0.89516 1.1267-1.1421 0.45787-0.25208 1.0032-0.37812 1.636-0.37813 1.0495 0.00001 1.9009 0.41673 2.5543 1.2502 0.65851 0.83345 0.98777 1.9293 0.98777 3.2874 0 1.3582-0.32926 2.454-0.98777 3.2874-0.65338 0.83344-1.5048 1.2502-2.5543 1.2502-0.6328 0-1.1781-0.12347-1.636-0.37041-0.45273-0.25209-0.82829-0.63537-1.1267-1.1498v1.2964h-1.4276v-12.008h1.4276v4.6765"/>
   <path id="path3076" style="" d="m483.15 260.15v0.69453h-6.5286c0.0617 0.97749 0.35498 1.7235 0.87974 2.2379 0.52989 0.50932 1.2656 0.76398 2.2071 0.76398 0.54532 0 1.0726-0.0669 1.582-0.20064 0.51446-0.13376 1.0238-0.3344 1.528-0.60192v1.3428c-0.50933 0.21608-1.0315 0.38071-1.5666 0.49389-0.53505 0.11318-1.0778 0.16977-1.6283 0.16977-1.3788 0-2.472-0.40128-3.2797-1.2038-0.80257-0.80256-1.2038-1.8881-1.2038-3.2566 0-1.4148 0.3807-2.5363 1.1421-3.3646 0.76655-0.83342 1.7981-1.2501 3.0945-1.2502 1.1627 0.00001 2.081 0.37557 2.755 1.1267 0.67909 0.74598 1.0186 1.762 1.0186 3.0482m-1.4199-0.41671c-0.0103-0.77684-0.22895-1.3968-0.65595-1.8598-0.42186-0.46301-0.98263-0.69452-1.6823-0.69453-0.79228 0.00001-1.4276 0.2238-1.9061 0.67138-0.47331 0.44759-0.74598 1.0778-0.818 1.8907l5.0624-0.008"/>
   <path id="path3078" style="" d="m492.66 259.61v5.2167h-1.4199v-5.1704c-0.00001-0.818-0.15949-1.4302-0.47845-1.8366-0.31898-0.40642-0.79743-0.60963-1.4354-0.60964-0.76656 0.00001-1.3711 0.24438-1.8135 0.73311-0.44244 0.48875-0.66366 1.155-0.66366 1.9987v4.8849h-1.4276v-8.643h1.4276v1.3428c0.33955-0.51961 0.73826-0.90803 1.1961-1.1653 0.46301-0.25722 0.99548-0.38584 1.5974-0.38585 0.99292 0.00001 1.744 0.30869 2.2534 0.92604 0.50931 0.61222 0.76397 1.5151 0.76398 2.7087"/>
  </g>
 </g>
 <g id="g20" transform="translate(-2 -9.0096)">
  <path id="path22" d="m540 260c60 0 60 40 9.736 40" stroke="#000" stroke-width="2" fill="none"/>
  <path id="polygon24" d="m549.74 300 2.5 5-10-5 10-5z"/>
  <path id="polygon26" d="m549.74 300 2.5 5-10-5 10-5z" stroke="#000" stroke-width="2" fill="none"/>
 </g>
 <g id="g28" transform="translate(-2 -9.0096)">
  <path id="line30" d="m280 300v-150.26" stroke="#000" stroke-width="2" fill="none"/>
  <path id="polygon32" d="m280 149.74-5 2.5 5-10 5 10z"/>
  <path id="polygon34" d="m280 149.74-5 2.5 5-10 5 10z" stroke="#000" stroke-width="2" fill="none"/>
 </g>
 <g id="g36" transform="translate(-2 -9.0096)">
  <path id="line38" d="m300 140v150.26" stroke="#000" stroke-width="2" fill="none"/>
  <path id="polygon40" d="m300 290.26 5-2.5-5 10-5-10z"/>
  <path id="polygon42" d="m300 290.26 5-2.5-5 10-5-10z" stroke="#000" stroke-width="2" fill="none"/>
 </g>
 <g id="text44">
  <path id="path3089" style="" d="m319.55-184.28h1.5588v4.7228h5.6643v-4.7228h1.5588v11.521h-1.5588v-5.4868h-5.6643v5.4868h-1.5588v-11.521"/>
  <path id="path3091" style="" d="m338.77-177.44v0.69453h-6.5286c0.0617 0.97749 0.35498 1.7235 0.87974 2.2379 0.52989 0.50932 1.2656 0.76399 2.2071 0.76398 0.54533 0.00001 1.0726-0.0669 1.582-0.20064 0.51446-0.13376 1.0238-0.3344 1.528-0.60192v1.3428c-0.50933 0.21608-1.0315 0.38071-1.5666 0.49389-0.53505 0.11318-1.0778 0.16977-1.6283 0.16978-1.3788-0.00001-2.472-0.40129-3.2797-1.2039-0.80257-0.80256-1.2038-1.8881-1.2038-3.2566 0-1.4148 0.3807-2.5363 1.1421-3.3646 0.76656-0.83342 1.7981-1.2501 3.0945-1.2502 1.1627 0.00001 2.081 0.37557 2.755 1.1267 0.67909 0.74599 1.0186 1.7621 1.0186 3.0482m-1.4199-0.41671c-0.0103-0.77684-0.22894-1.3968-0.65594-1.8598-0.42187-0.46301-0.98264-0.69452-1.6823-0.69453-0.79228 0.00001-1.4276 0.2238-1.9061 0.67138-0.47331 0.44759-0.74597 1.0778-0.818 1.8907l5.0624-0.008"/>
  <path id="path3093" style="" d="m345.02-177.1c-1.1473 0-1.9421 0.13119-2.3846 0.39356-0.44245 0.26238-0.66367 0.70997-0.66367 1.3428 0 0.50418 0.16463 0.90546 0.49389 1.2038 0.3344 0.29325 0.78713 0.43987 1.3582 0.43987 0.78713 0 1.4174-0.27781 1.8907-0.83344 0.47844-0.56076 0.71767-1.3042 0.71768-2.2302v-0.31639h-1.4122m2.8321-0.5865v4.9312h-1.4199v-1.3119c-0.32412 0.52476-0.72798 0.91318-1.2116 1.1653-0.4836 0.24694-1.0752 0.37041-1.7749 0.37042-0.88488-0.00001-1.5897-0.24695-2.1145-0.74084-0.51961-0.49903-0.77941-1.1653-0.77941-1.9987 0-0.97233 0.32411-1.7054 0.97234-2.1993 0.65337-0.49388 1.6257-0.74083 2.917-0.74083h1.991v-0.13891c-0.00001-0.65336-0.21609-1.1575-0.64823-1.5125-0.42701-0.36012-1.0289-0.54018-1.8058-0.54019-0.49389 0.00001-0.97491 0.0592-1.4431 0.17749-0.46817 0.11834-0.91833 0.29583-1.3505 0.53248v-1.3119c0.51961-0.20064 1.0238-0.34983 1.5125-0.44759 0.48874-0.10288 0.96462-0.15433 1.4276-0.15434 1.2501 0.00001 2.1839 0.32412 2.8013 0.97234 0.61736 0.64824 0.92603 1.6309 0.92604 2.9479"/>
  <path id="path3095" style="" d="m352.16-174.06v4.5839h-1.4276v-11.93h1.4276v1.3119c0.29838-0.51446 0.67394-0.89516 1.1267-1.1421 0.45787-0.25208 1.0032-0.37812 1.636-0.37813 1.0495 0.00001 1.9009 0.41673 2.5543 1.2502 0.65851 0.83345 0.98777 1.9293 0.98778 3.2874-0.00001 1.3582-0.32927 2.454-0.98778 3.2874-0.65338 0.83344-1.5048 1.2502-2.5543 1.2502-0.6328-0.00001-1.1781-0.12348-1.636-0.37042-0.45274-0.25209-0.8283-0.63537-1.1267-1.1498m4.8308-3.0174c0-1.0444-0.21608-1.8624-0.64822-2.454-0.42702-0.59677-1.0161-0.89516-1.7672-0.89517-0.75112 0.00001-1.3428 0.2984-1.7749 0.89517-0.42701 0.59164-0.64052 1.4096-0.64051 2.454-0.00001 1.0444 0.2135 1.865 0.64051 2.4617 0.43214 0.59164 1.0238 0.88746 1.7749 0.88746 0.75112 0 1.3402-0.29582 1.7672-0.88746 0.43214-0.59677 0.64822-1.4174 0.64822-2.4617"/>
 </g>
 <g id="text48">
  <path id="path3098" style="" d="m322.52 107.24-4.3987-11.521h1.6283l3.6501 9.7003 3.6579-9.7003h1.6206l-4.391 11.521h-1.7672"/>
  <path id="path3100" style="" d="m336.45 102.56v0.69453h-6.5286c0.0617 0.97749 0.35498 1.7235 0.87974 2.2379 0.5299 0.50932 1.2656 0.76398 2.2071 0.76398 0.54533 0 1.0727-0.0669 1.582-0.20064 0.51446-0.13376 1.0238-0.3344 1.528-0.60193v1.3428c-0.50933 0.21608-1.0315 0.38071-1.5666 0.49389-0.53505 0.11318-1.0778 0.16977-1.6283 0.16977-1.3788 0-2.472-0.40128-3.2797-1.2038-0.80257-0.80256-1.2038-1.8881-1.2038-3.2566 0-1.4148 0.3807-2.5363 1.1421-3.3646 0.76655-0.83343 1.798-1.2501 3.0945-1.2502 1.1627 0.000008 2.081 0.37557 2.755 1.1267 0.67908 0.74598 1.0186 1.762 1.0186 3.0482m-1.4199-0.41672c-0.0103-0.77683-0.22894-1.3968-0.65594-1.8598-0.42187-0.46301-0.98264-0.69452-1.6823-0.69453-0.79228 0.000008-1.4276 0.2238-1.9061 0.67138-0.47331 0.44759-0.74598 1.0778-0.818 1.8907l5.0623-0.008"/>
  <path id="path3102" style="" d="m343.79 99.925c-0.15949-0.0926-0.33441-0.15948-0.52476-0.20064-0.18521-0.04629-0.391-0.06945-0.61736-0.06945-0.80257 0.000008-1.4199 0.26238-1.8521 0.78713-0.42701 0.51962-0.64052 1.2682-0.64052 2.2456v4.553h-1.4276v-8.643h1.4276v1.3428c0.29839-0.52475 0.68681-0.91317 1.1653-1.1653 0.47845-0.25722 1.0598-0.38584 1.744-0.38585 0.0977 0.000008 0.20578 0.0077 0.32411 0.02315 0.11833 0.0103 0.24951 0.0283 0.39357 0.05402l0.008 1.4585"/>
  <path id="path3104" style="" d="m352.35 102.56v0.69453h-6.5286c0.0617 0.97749 0.35498 1.7235 0.87974 2.2379 0.52989 0.50932 1.2656 0.76398 2.2071 0.76398 0.54532 0 1.0726-0.0669 1.582-0.20064 0.51446-0.13376 1.0238-0.3344 1.528-0.60193v1.3428c-0.50933 0.21608-1.0315 0.38071-1.5666 0.49389-0.53505 0.11318-1.0778 0.16977-1.6283 0.16977-1.3788 0-2.472-0.40128-3.2797-1.2038-0.80257-0.80256-1.2038-1.8881-1.2038-3.2566 0-1.4148 0.3807-2.5363 1.1421-3.3646 0.76655-0.83343 1.7981-1.2501 3.0945-1.2502 1.1627 0.000008 2.081 0.37557 2.755 1.1267 0.67909 0.74598 1.0186 1.762 1.0186 3.0482m-1.4199-0.41672c-0.0103-0.77683-0.22895-1.3968-0.65595-1.8598-0.42187-0.46301-0.98263-0.69452-1.6823-0.69453-0.79228 0.000008-1.4276 0.2238-1.9061 0.67138-0.47331 0.44759-0.74598 1.0778-0.818 1.8907l5.0624-0.008"/>
  <path id="path3106" style="" d="m361.41 100.26c0.35498-0.63793 0.77941-1.1087 1.2733-1.4122 0.49388-0.30353 1.0752-0.45529 1.744-0.4553 0.9003 0.000008 1.5948 0.3164 2.0836 0.94919 0.48873 0.62766 0.7331 1.5228 0.73311 2.6855v5.2167h-1.4276v-5.1704c-0.00002-0.82828-0.14664-1.4431-0.43987-1.8444-0.29326-0.40127-0.74084-0.60191-1.3428-0.60192-0.73569 0.000008-1.317 0.24438-1.744 0.73311-0.42701 0.48875-0.64052 1.155-0.64051 1.9987v4.8849h-1.4276v-5.1704c-0.00001-0.83342-0.14663-1.4482-0.43987-1.8444-0.29325-0.40127-0.74598-0.60191-1.3582-0.60192-0.7254 0.000008-1.3016 0.24695-1.7286 0.74083-0.42701 0.48875-0.64051 1.1524-0.64051 1.991v4.8849h-1.4276v-8.643h1.4276v1.3428c0.32411-0.52989 0.71253-0.92089 1.1653-1.173 0.45272-0.25208 0.99034-0.37812 1.6128-0.37813 0.62764 0.000008 1.1601 0.15949 1.5974 0.47845 0.44243 0.31898 0.76912 0.782 0.98005 1.3891"/>
 </g>
 <g id="g56" transform="translate(-2 -9.0096)">
  <path id="rect58" fill="#fff" d="m320-160h220v100h-220z"/>
  <path id="rect60" d="m320-160h220v100h-220z" stroke="#000" stroke-width="2" fill="none"/>
 </g>
 <g id="g62" transform="translate(-2 -9.0096)">
  <path id="rect64" fill="#fff" d="m320-160.88h220v41.756h-220z"/>
  <path id="rect66" d="m320-160.88h220v41.756h-220z" stroke="#000" stroke-width="2" fill="none"/>
  <g id="text68">
   <path id="path3114" style="" d="m396.45-143.49v1.3273c-0.40129-0.22122-0.80514-0.38584-1.2116-0.49389-0.40129-0.11317-0.80772-0.16977-1.2193-0.16977-0.9209 0-1.636 0.29325-2.1453 0.87973-0.50933 0.58136-0.76399 1.3994-0.76398 2.454-0.00001 1.0547 0.25465 1.8752 0.76398 2.4617 0.50932 0.58135 1.2244 0.87202 2.1453 0.87202 0.41157 0 0.818-0.054 1.2193-0.16206 0.40642-0.11318 0.81027-0.28038 1.2116-0.5016v1.3119c-0.39614 0.1852-0.80771 0.32411-1.2347 0.41671-0.42187 0.0926-0.87203 0.13891-1.3505 0.13891-1.3016 0-2.3357-0.409-3.1022-1.227-0.76656-0.818-1.1498-1.9215-1.1498-3.3106 0-1.4096 0.38585-2.5183 1.1576-3.326 0.77684-0.8077 1.8392-1.2116 3.1871-1.2116 0.43729 0 0.86429 0.0463 1.281 0.1389 0.41671 0.0875 0.82056 0.22123 1.2116 0.40129"/>
   <path id="path3116" style="" d="m406.12-140.39v5.2167h-1.4199v-5.1704c-0.00001-0.81799-0.15949-1.4302-0.47845-1.8366-0.31898-0.40642-0.79743-0.60964-1.4354-0.60965-0.76655 0.00001-1.371 0.24438-1.8135 0.73312-0.44244 0.48875-0.66366 1.155-0.66366 1.9987v4.8849h-1.4276v-12.008h1.4276v4.7074c0.33954-0.5196 0.73826-0.90802 1.1961-1.1653 0.46302-0.25723 0.99549-0.38585 1.5974-0.38585 0.99291 0 1.744 0.30868 2.2534 0.92604 0.50932 0.61222 0.76398 1.5151 0.76399 2.7087"/>
   <path id="path3118" style="" d="m412.9-139.52c-1.1473 0-1.9421 0.13119-2.3846 0.39357-0.44244 0.26238-0.66366 0.70996-0.66366 1.3428 0 0.50418 0.16463 0.90546 0.49389 1.2038 0.3344 0.29325 0.78713 0.43987 1.3582 0.43987 0.78713 0 1.4174-0.27781 1.8907-0.83343 0.47845-0.56077 0.71768-1.3042 0.71769-2.2302v-0.3164h-1.4122m2.8321-0.58649v4.9312h-1.4199v-1.3119c-0.32412 0.52475-0.72798 0.91318-1.2116 1.1653-0.48361 0.24695-1.0752 0.37042-1.7749 0.37042-0.88489 0-1.5897-0.24694-2.1145-0.74083-0.51961-0.49903-0.77941-1.1653-0.77941-1.9987 0-0.97234 0.32411-1.7054 0.97234-2.1994 0.65337-0.49388 1.6257-0.74082 2.917-0.74083h1.991v-0.1389c-0.00001-0.65337-0.21609-1.1576-0.64823-1.5125-0.42701-0.36012-1.0289-0.54019-1.8058-0.54019-0.49389 0-0.97492 0.0592-1.4431 0.17749-0.46816 0.11833-0.91832 0.29582-1.3505 0.53247v-1.3119c0.51961-0.20063 1.0238-0.34983 1.5125-0.44758 0.48874-0.10289 0.96462-0.15434 1.4276-0.15434 1.2502 0 2.1839 0.32412 2.8013 0.97234 0.61735 0.64823 0.92603 1.6309 0.92604 2.9479"/>
   <path id="path3120" style="" d="m423.67-142.49c-0.1595-0.0926-0.33441-0.15948-0.52476-0.20064-0.18521-0.0463-0.391-0.0694-0.61736-0.0695-0.80257 0.00001-1.4199 0.26239-1.8521 0.78714-0.42701 0.51961-0.64051 1.2682-0.64051 2.2456v4.553h-1.4276v-8.643h1.4276v1.3428c0.29839-0.52475 0.68681-0.91317 1.1653-1.1653 0.47845-0.25723 1.0598-0.38585 1.744-0.38585 0.0977 0 0.20578 0.008 0.32411 0.0232 0.11832 0.0103 0.24951 0.0283 0.39357 0.054l0.008 1.4585"/>
   <path id="path3122" style="" d="m430.08-147.19h3.272v1.1035h-1.8521v11.884h1.8521v1.1035h-3.272v-14.091"/>
   <path id="path3124" style="" d="m436.85-136.49h2.5466v-8.7897l-2.7704 0.55563v-1.4199l2.755-0.55562h1.5588v10.21h2.5466v1.3119h-6.6366v-1.3119"/>
   <path id="path3126" style="" d="m449.98-145.67c-0.80257 0.00001-1.4071 0.39615-1.8135 1.1884-0.40129 0.78715-0.60193 1.973-0.60193 3.5575 0 1.5794 0.20064 2.7653 0.60193 3.5575 0.40642 0.78714 1.0109 1.1807 1.8135 1.1807 0.80771 0 1.4122-0.39356 1.8135-1.1807 0.40642-0.79227 0.60963-1.9781 0.60964-3.5575-0.00001-1.5846-0.20322-2.7704-0.60964-3.5575-0.40129-0.79226-1.0058-1.1884-1.8135-1.1884m0-1.2347c1.2913 0.00001 2.2765 0.5119 2.9556 1.5357 0.68423 1.0186 1.0264 2.5003 1.0264 4.445-0.00001 1.9395-0.34213 3.4212-1.0264 4.445-0.6791 1.0186-1.6643 1.528-2.9556 1.528s-2.2791-0.50932-2.9633-1.528c-0.6791-1.0238-1.0186-2.5054-1.0186-4.445 0-1.9447 0.33955-3.4263 1.0186-4.445 0.68423-1.0238 1.672-1.5357 2.9633-1.5357"/>
   <path id="path3128" style="" d="m460.04-145.67c-0.80257 0.00001-1.4071 0.39615-1.8135 1.1884-0.40129 0.78715-0.60193 1.973-0.60193 3.5575 0 1.5794 0.20064 2.7653 0.60193 3.5575 0.40642 0.78714 1.0109 1.1807 1.8135 1.1807 0.80771 0 1.4122-0.39356 1.8135-1.1807 0.40642-0.79227 0.60964-1.9781 0.60965-3.5575-0.00001-1.5846-0.20323-2.7704-0.60965-3.5575-0.40129-0.79226-1.0058-1.1884-1.8135-1.1884m0-1.2347c1.2913 0.00001 2.2765 0.5119 2.9556 1.5357 0.68423 1.0186 1.0264 2.5003 1.0264 4.445-0.00001 1.9395-0.34213 3.4212-1.0264 4.445-0.6791 1.0186-1.6643 1.528-2.9556 1.528s-2.2791-0.50932-2.9633-1.528c-0.67909-1.0238-1.0186-2.5054-1.0186-4.445 0-1.9447 0.33955-3.4263 1.0186-4.445 0.68424-1.0238 1.672-1.5357 2.9633-1.5357"/>
   <path id="path3130" style="" d="m469.89-147.19v14.091h-3.272v-1.1035h1.8444v-11.884h-1.8444v-1.1035h3.272"/>
  </g>
 </g>
 <g id="g72" transform="translate(-2 -9.0096)">
  <path id="rect74" fill="#fff" d="m320 159.12h220v41.756h-220z"/>
  <path id="rect76" d="m320 159.12h220v41.756h-220z" stroke="#000" stroke-width="2" fill="none"/>
  <g id="text78">
   <path id="path3135" style="" d="m368.49 176.51v1.3273c-0.40129-0.22122-0.80514-0.38584-1.2116-0.49389-0.40129-0.11317-0.80772-0.16977-1.2193-0.16977-0.9209 0-1.636 0.29325-2.1453 0.87973-0.50933 0.58136-0.76399 1.3994-0.76399 2.454 0 1.0547 0.25466 1.8752 0.76399 2.4617 0.50931 0.58135 1.2244 0.87202 2.1453 0.87202 0.41157 0 0.818-0.054 1.2193-0.16206 0.40642-0.11318 0.81027-0.28038 1.2116-0.5016v1.3119c-0.39614 0.1852-0.80772 0.32411-1.2347 0.41671-0.42186 0.0926-0.87202 0.13891-1.3505 0.13891-1.3016 0-2.3357-0.409-3.1022-1.227-0.76656-0.818-1.1498-1.9215-1.1498-3.3106 0-1.4096 0.38585-2.5183 1.1576-3.326 0.77684-0.8077 1.8392-1.2116 3.1871-1.2116 0.4373 0 0.8643 0.0463 1.281 0.1389 0.41671 0.0875 0.82056 0.22123 1.2116 0.40129"/>
   <path id="path3137" style="" d="m378.16 179.61v5.2167h-1.4199v-5.1704c-0.00001-0.81799-0.15949-1.4302-0.47846-1.8366-0.31897-0.40642-0.79742-0.60964-1.4354-0.60965-0.76656 0.00001-1.371 0.24438-1.8135 0.73312-0.44244 0.48875-0.66366 1.155-0.66366 1.9987v4.8849h-1.4276v-12.008h1.4276v4.7074c0.33954-0.5196 0.73825-0.90802 1.1961-1.1653 0.46302-0.25723 0.99549-0.38585 1.5974-0.38585 0.99291 0 1.744 0.30868 2.2534 0.92604 0.50932 0.61222 0.76398 1.5151 0.76398 2.7087"/>
   <path id="path3139" style="" d="m384.93 180.48c-1.1473 0-1.9421 0.13119-2.3846 0.39357-0.44244 0.26238-0.66366 0.70996-0.66366 1.3428 0 0.50418 0.16463 0.90546 0.49389 1.2038 0.3344 0.29325 0.78713 0.43987 1.3582 0.43987 0.78713 0 1.4174-0.27781 1.8907-0.83343 0.47845-0.56077 0.71768-1.3042 0.71768-2.2302v-0.3164h-1.4122m2.8321-0.58649v4.9312h-1.4199v-1.3119c-0.32412 0.52475-0.72797 0.91318-1.2116 1.1653-0.48361 0.24695-1.0752 0.37042-1.7749 0.37042-0.88489 0-1.5897-0.24694-2.1145-0.74083-0.51961-0.49903-0.77941-1.1653-0.77941-1.9987 0-0.97234 0.32411-1.7054 0.97234-2.1994 0.65337-0.49388 1.6257-0.74082 2.917-0.74083h1.991v-0.1389c0-0.65337-0.21608-1.1576-0.64822-1.5125-0.42702-0.36012-1.0289-0.54019-1.8058-0.54019-0.49389 0-0.97492 0.0592-1.4431 0.17749-0.46816 0.11833-0.91832 0.29582-1.3505 0.53247v-1.3119c0.51961-0.20063 1.0238-0.34983 1.5125-0.44758 0.48874-0.10289 0.96462-0.15434 1.4276-0.15434 1.2502 0 2.1839 0.32412 2.8013 0.97234 0.61735 0.64823 0.92603 1.6309 0.92604 2.9479"/>
   <path id="path3141" style="" d="m395.71 177.51c-0.1595-0.0926-0.33441-0.15948-0.52476-0.20064-0.18521-0.0463-0.391-0.0694-0.61736-0.0695-0.80257 0.00001-1.4199 0.26239-1.8521 0.78714-0.42701 0.51961-0.64051 1.2682-0.64051 2.2456v4.553h-1.4276v-8.643h1.4276v1.3428c0.29839-0.52475 0.68681-0.91317 1.1653-1.1653 0.47845-0.25723 1.0598-0.38585 1.744-0.38585 0.0977 0 0.20578 0.008 0.32411 0.0232 0.11832 0.0103 0.24951 0.0283 0.39357 0.054l0.008 1.4585"/>
   <path id="path3143" style="" d="m408.18 175.2-2.7704 1.4971 2.7704 1.5048-0.44758 0.75626-2.5929-1.5666v2.9093h-0.87974v-2.9093l-2.5929 1.5666-0.44758-0.75626 2.7704-1.5048-2.7704-1.4971 0.44758-0.76399 2.5929 1.5666v-2.9093h0.87974v2.9093l2.5929-1.5666 0.44758 0.76399"/>
   <path id="path3145" style="" d="m415.83 180.4c-0.00001-1.0289-0.21351-1.8264-0.64051-2.3923-0.42187-0.5659-1.0161-0.84886-1.7826-0.84887-0.76142 0.00001-1.3556 0.28297-1.7826 0.84887-0.42186 0.56592-0.63279 1.3633-0.63279 2.3923 0 1.0238 0.21093 1.8186 0.63279 2.3846 0.427 0.56591 1.0212 0.84887 1.7826 0.84887 0.76655 0 1.3608-0.28296 1.7826-0.84887 0.427-0.56591 0.6405-1.3608 0.64051-2.3846m1.4199 3.3492c-0.00001 1.4714-0.3267 2.5646-0.98006 3.2797-0.65338 0.72025-1.654 1.0804-3.0019 1.0804-0.49904 0-0.96977-0.0386-1.4122-0.11575-0.44244-0.072-0.87202-0.18521-1.2887-0.33955v-1.3813c0.41672 0.22636 0.82829 0.39357 1.2347 0.50161 0.40643 0.10803 0.82057 0.16205 1.2424 0.16205 0.93118 0 1.6283-0.24437 2.0913-0.73311 0.46302-0.4836 0.69452-1.2167 0.69453-2.1993v-0.70225c-0.29325 0.50932-0.66881 0.89003-1.1267 1.1421-0.45788 0.25209-1.0058 0.37814-1.6437 0.37814-1.0598 0-1.9138-0.40386-2.562-1.2116-0.64823-0.80771-0.97234-1.8778-0.97234-3.2103 0-1.3376 0.32411-2.4103 0.97234-3.218 0.64822-0.8077 1.5022-1.2116 2.562-1.2116 0.63793 0 1.1858 0.12605 1.6437 0.37813 0.45787 0.2521 0.83343 0.6328 1.1267 1.1421v-1.3119h1.4199v7.5704"/>
   <path id="path3147" style="" d="m420.18 172.81h1.4199v12.008h-1.4199v-12.008"/>
   <path id="path3149" style="" d="m427.91 177.17c-0.76141 0-1.3633 0.29839-1.8058 0.89517-0.44245 0.59164-0.66367 1.4045-0.66366 2.4386-0.00001 1.0341 0.21864 1.8495 0.65594 2.4463 0.44244 0.59164 1.0469 0.88746 1.8135 0.88746 0.75626 0 1.3556-0.29839 1.7981-0.89517 0.44244-0.59678 0.66366-1.4096 0.66366-2.4386 0-1.0238-0.22122-1.8341-0.66366-2.4309-0.44244-0.60191-1.0418-0.90288-1.7981-0.90288m0-1.2038c1.2347 0 2.2045 0.40129 2.9093 1.2038 0.70481 0.80257 1.0572 1.9138 1.0572 3.3337-0.00001 1.4148-0.35242 2.526-1.0572 3.3337-0.70483 0.80257-1.6746 1.2038-2.9093 1.2038-1.2399 0-2.2122-0.40128-2.917-1.2038-0.69967-0.80771-1.0495-1.919-1.0495-3.3337 0-1.4199 0.34984-2.5312 1.0495-3.3337 0.70482-0.80256 1.6772-1.2038 2.917-1.2038"/>
   <path id="path3151" style="" d="m440.43 180.51c-0.00001-1.0444-0.21608-1.8624-0.64823-2.454-0.42701-0.59677-1.0161-0.89516-1.7672-0.89517-0.75112 0.00001-1.3428 0.2984-1.7749 0.89517-0.42701 0.59165-0.64051 1.4096-0.64051 2.454s0.2135 1.8649 0.64051 2.4617c0.43215 0.59164 1.0238 0.88745 1.7749 0.88745 0.75111 0 1.3402-0.29581 1.7672-0.88745 0.43215-0.59678 0.64822-1.4174 0.64823-2.4617m-4.8308-3.0174c0.29839-0.51445 0.67395-0.89516 1.1267-1.1421 0.45787-0.25208 1.0032-0.37813 1.636-0.37813 1.0495 0 1.9009 0.41672 2.5543 1.2502 0.65851 0.83344 0.98777 1.9292 0.98777 3.2874s-0.32926 2.454-0.98777 3.2874c-0.65338 0.83343-1.5048 1.2502-2.5543 1.2502-0.6328 0-1.1781-0.12347-1.636-0.37042-0.45273-0.25208-0.82829-0.63536-1.1267-1.1498v1.2965h-1.4276v-12.008h1.4276v4.6765"/>
   <path id="path3153" style="" d="m448.18 180.48c-1.1473 0-1.9421 0.13119-2.3846 0.39357-0.44244 0.26238-0.66366 0.70996-0.66366 1.3428 0 0.50418 0.16463 0.90546 0.49389 1.2038 0.3344 0.29325 0.78713 0.43987 1.3582 0.43987 0.78713 0 1.4174-0.27781 1.8907-0.83343 0.47845-0.56077 0.71768-1.3042 0.71769-2.2302v-0.3164h-1.4122m2.8321-0.58649v4.9312h-1.4199v-1.3119c-0.32413 0.52475-0.72798 0.91318-1.2116 1.1653-0.48361 0.24695-1.0752 0.37042-1.7749 0.37042-0.88489 0-1.5897-0.24694-2.1145-0.74083-0.51961-0.49903-0.77941-1.1653-0.77941-1.9987 0-0.97234 0.32411-1.7054 0.97234-2.1994 0.65337-0.49388 1.6257-0.74082 2.917-0.74083h1.991v-0.1389c-0.00001-0.65337-0.21609-1.1576-0.64823-1.5125-0.42701-0.36012-1.0289-0.54019-1.8058-0.54019-0.49389 0-0.97492 0.0592-1.4431 0.17749-0.46816 0.11833-0.91832 0.29582-1.3505 0.53247v-1.3119c0.51961-0.20063 1.0238-0.34983 1.5125-0.44758 0.48874-0.10289 0.96462-0.15434 1.4276-0.15434 1.2502 0 2.1839 0.32412 2.8013 0.97234 0.61735 0.64823 0.92603 1.6309 0.92604 2.9479"/>
   <path id="path3155" style="" d="m453.95 172.81h1.4199v12.008h-1.4199v-12.008"/>
   <path id="path3157" style="" d="m458.33 176.18h1.4199v8.643h-1.4199v-8.643m0-3.3646h1.4199v1.7981h-1.4199v-1.7981"/>
   <path id="path3159" style="" d="m468.22 176.43v1.3428c-0.40129-0.20578-0.818-0.36012-1.2502-0.46302-0.43216-0.10288-0.87974-0.15433-1.3428-0.15434-0.70482 0.00001-1.2347 0.10805-1.5897 0.32412-0.34984 0.21608-0.52475 0.54019-0.52475 0.97234 0 0.32926 0.12604 0.58907 0.37813 0.77941 0.25209 0.18522 0.75884 0.36271 1.5202 0.53248l0.48617 0.10803c1.0084 0.21608 1.7234 0.52219 2.1453 0.91833 0.427 0.39099 0.64051 0.9389 0.64051 1.6437 0 0.80256-0.31897 1.4379-0.9569 1.9061-0.6328 0.46817-1.5048 0.70225-2.6161 0.70225-0.46303 0-0.94662-0.0463-1.4508-0.13891-0.49903-0.0875-1.0264-0.22122-1.582-0.40128v-1.4662c0.52475 0.27267 1.0418 0.47846 1.5511 0.61736 0.50932 0.13376 1.0135 0.20064 1.5125 0.20064 0.66881 0 1.1833-0.11318 1.5434-0.33955 0.36012-0.2315 0.54019-0.55562 0.54019-0.97234 0-0.38584-0.13119-0.68166-0.39356-0.88745-0.25724-0.20578-0.82573-0.40385-1.7055-0.59421l-0.49389-0.11575c-0.87974-0.18521-1.5151-0.46816-1.9061-0.84887-0.391-0.38585-0.5865-0.91317-0.5865-1.582 0-0.81285 0.2881-1.4405 0.86431-1.8829 0.5762-0.44243 1.3942-0.66366 2.454-0.66366 0.52475 0 1.0186 0.0386 1.4817 0.11575 0.46302 0.0772 0.89002 0.19293 1.281 0.34727"/>
   <path id="path3161" style="" d="m477.16 180.51c-0.00001-1.0444-0.21608-1.8624-0.64823-2.454-0.42701-0.59677-1.0161-0.89516-1.7672-0.89517-0.75113 0.00001-1.3428 0.2984-1.7749 0.89517-0.42701 0.59165-0.64051 1.4096-0.64051 2.454s0.2135 1.8649 0.64051 2.4617c0.43215 0.59164 1.0238 0.88745 1.7749 0.88745 0.75111 0 1.3402-0.29581 1.7672-0.88745 0.43215-0.59678 0.64822-1.4174 0.64823-2.4617m-4.8308-3.0174c0.29839-0.51445 0.67395-0.89516 1.1267-1.1421 0.45787-0.25208 1.0032-0.37813 1.636-0.37813 1.0495 0 1.901 0.41672 2.5543 1.2502 0.65851 0.83344 0.98777 1.9292 0.98777 3.2874s-0.32926 2.454-0.98777 3.2874c-0.65338 0.83343-1.5048 1.2502-2.5543 1.2502-0.63279 0-1.1781-0.12347-1.636-0.37042-0.45273-0.25208-0.82829-0.63536-1.1267-1.1498v1.2965h-1.4276v-12.008h1.4276v4.6765"/>
   <path id="path3163" style="" d="m484.91 180.48c-1.1473 0-1.9421 0.13119-2.3846 0.39357-0.44244 0.26238-0.66366 0.70996-0.66366 1.3428 0 0.50418 0.16463 0.90546 0.49389 1.2038 0.3344 0.29325 0.78713 0.43987 1.3582 0.43987 0.78713 0 1.4174-0.27781 1.8907-0.83343 0.47845-0.56077 0.71768-1.3042 0.71768-2.2302v-0.3164h-1.4122m2.8321-0.58649v4.9312h-1.4199v-1.3119c-0.32412 0.52475-0.72797 0.91318-1.2116 1.1653-0.48361 0.24695-1.0752 0.37042-1.7749 0.37042-0.88489 0-1.5897-0.24694-2.1145-0.74083-0.51961-0.49903-0.77941-1.1653-0.77941-1.9987 0-0.97234 0.32411-1.7054 0.97234-2.1994 0.65337-0.49388 1.6257-0.74082 2.917-0.74083h1.991v-0.1389c0-0.65337-0.21608-1.1576-0.64822-1.5125-0.42702-0.36012-1.0289-0.54019-1.8058-0.54019-0.49389 0-0.97492 0.0592-1.4431 0.17749-0.46816 0.11833-0.91832 0.29582-1.3505 0.53247v-1.3119c0.51961-0.20063 1.0238-0.34983 1.5125-0.44758 0.48874-0.10289 0.96462-0.15434 1.4276-0.15434 1.2502 0 2.1839 0.32412 2.8013 0.97234 0.61735 0.64823 0.92603 1.6309 0.92604 2.9479"/>
   <path id="path3165" style="" d="m497.86 179.61v5.2167h-1.4199v-5.1704c0-0.81799-0.15949-1.4302-0.47845-1.8366-0.31898-0.40642-0.79743-0.60964-1.4354-0.60965-0.76656 0.00001-1.3711 0.24438-1.8135 0.73312-0.44245 0.48875-0.66367 1.155-0.66367 1.9987v4.8849h-1.4276v-8.643h1.4276v1.3428c0.33955-0.5196 0.73826-0.90802 1.1961-1.1653 0.46301-0.25723 0.99548-0.38585 1.5974-0.38585 0.99292 0 1.744 0.30868 2.2534 0.92604 0.50931 0.61222 0.76397 1.5151 0.76398 2.7087"/>
  </g>
 </g>
 <g id="g82" transform="translate(-2 -9.0096)">
  <path id="path84" d="m540 220c60 0 60-360 9.736-360" stroke="#000" stroke-width="2" fill="none"/>
  <path id="polygon86" d="m549.74-140 2.5 5-10-5 10-5z"/>
  <path id="polygon88" d="m549.74-140 2.5 5-10-5 10-5z" stroke="#000" stroke-width="2" fill="none"/>
 </g>
 <g id="g90" transform="translate(-2 -9.0096)">
  <path id="rect92" fill="#fff" d="m320 199.12h220v41.756h-220z"/>
  <path id="rect94" d="m320 199.12h220v41.756h-220z" stroke="#000" stroke-width="2" fill="none"/>
  <g id="text96">
   <path id="path3172" style="" d="m384.15 216.51v1.3273c-0.40129-0.22122-0.80515-0.38584-1.2116-0.49389-0.40129-0.11317-0.80772-0.16977-1.2193-0.16977-0.9209 0-1.636 0.29325-2.1453 0.87973-0.50932 0.58136-0.76398 1.3994-0.76398 2.454 0 1.0547 0.25466 1.8752 0.76398 2.4617 0.50932 0.58135 1.2244 0.87202 2.1453 0.87202 0.41156 0 0.81799-0.054 1.2193-0.16206 0.40642-0.11318 0.81028-0.28038 1.2116-0.5016v1.3119c-0.39615 0.1852-0.80772 0.32411-1.2347 0.41671-0.42187 0.0926-0.87203 0.13891-1.3505 0.13891-1.3016 0-2.3357-0.409-3.1022-1.227-0.76655-0.818-1.1498-1.9215-1.1498-3.3106 0-1.4096 0.38585-2.5183 1.1576-3.326 0.77684-0.8077 1.8392-1.2116 3.1871-1.2116 0.43729 0 0.8643 0.0463 1.281 0.1389 0.41671 0.0875 0.82057 0.22123 1.2116 0.40129"/>
   <path id="path3174" style="" d="m393.82 219.61v5.2167h-1.4199v-5.1704c0-0.81799-0.15949-1.4302-0.47845-1.8366-0.31898-0.40642-0.79743-0.60964-1.4354-0.60965-0.76656 0.00001-1.3711 0.24438-1.8135 0.73312-0.44245 0.48875-0.66367 1.155-0.66367 1.9987v4.8849h-1.4276v-12.008h1.4276v4.7074c0.33955-0.5196 0.73826-0.90802 1.1961-1.1653 0.46301-0.25723 0.99548-0.38585 1.5974-0.38585 0.99291 0 1.744 0.30868 2.2534 0.92604 0.50931 0.61222 0.76397 1.5151 0.76398 2.7087"/>
   <path id="path3176" style="" d="m400.6 220.48c-1.1473 0-1.9421 0.13119-2.3846 0.39357-0.44244 0.26238-0.66366 0.70996-0.66366 1.3428 0 0.50418 0.16462 0.90546 0.49389 1.2038 0.3344 0.29325 0.78712 0.43987 1.3582 0.43987 0.78712 0 1.4173-0.27781 1.8907-0.83343 0.47845-0.56077 0.71767-1.3042 0.71768-2.2302v-0.3164h-1.4122m2.8321-0.58649v4.9312h-1.4199v-1.3119c-0.32412 0.52475-0.72798 0.91318-1.2116 1.1653-0.4836 0.24695-1.0752 0.37042-1.7749 0.37042-0.88488 0-1.5897-0.24694-2.1144-0.74083-0.51961-0.49903-0.77942-1.1653-0.77942-1.9987 0-0.97234 0.32411-1.7054 0.97234-2.1994 0.65337-0.49388 1.6257-0.74082 2.917-0.74083h1.991v-0.1389c-0.00001-0.65337-0.21608-1.1576-0.64823-1.5125-0.42701-0.36012-1.0289-0.54019-1.8058-0.54019-0.4939 0-0.97492 0.0592-1.4431 0.17749-0.46817 0.11833-0.91833 0.29582-1.3505 0.53247v-1.3119c0.51961-0.20063 1.0238-0.34983 1.5125-0.44758 0.48873-0.10289 0.96462-0.15434 1.4276-0.15434 1.2502 0 2.1839 0.32412 2.8013 0.97234 0.61735 0.64823 0.92603 1.6309 0.92604 2.9479"/>
   <path id="path3178" style="" d="m411.37 217.51c-0.15949-0.0926-0.33441-0.15948-0.52476-0.20064-0.18521-0.0463-0.391-0.0694-0.61736-0.0695-0.80257 0.00001-1.4199 0.26239-1.8521 0.78714-0.42701 0.51961-0.64052 1.2682-0.64051 2.2456v4.553h-1.4276v-8.643h1.4276v1.3428c0.29838-0.52475 0.68681-0.91317 1.1653-1.1653 0.47845-0.25723 1.0598-0.38585 1.744-0.38585 0.0978 0 0.20578 0.008 0.32412 0.0232 0.11832 0.0103 0.24951 0.0283 0.39356 0.054l0.008 1.4585"/>
   <path id="path3180" style="" d="m423.85 215.2-2.7704 1.4971 2.7704 1.5048-0.44759 0.75626-2.5929-1.5666v2.9093h-0.87973v-2.9093l-2.5929 1.5666-0.44759-0.75626 2.7704-1.5048-2.7704-1.4971 0.44759-0.76399 2.5929 1.5666v-2.9093h0.87973v2.9093l2.5929-1.5666 0.44759 0.76399"/>
   <path id="path3182" style="" d="m432.99 219.61v5.2167h-1.4199v-5.1704c-0.00001-0.81799-0.1595-1.4302-0.47846-1.8366-0.31897-0.40642-0.79743-0.60964-1.4354-0.60965-0.76656 0.00001-1.371 0.24438-1.8135 0.73312-0.44245 0.48875-0.66367 1.155-0.66366 1.9987v4.8849h-1.4276v-12.008h1.4276v4.7074c0.33954-0.5196 0.73825-0.90802 1.1961-1.1653 0.46302-0.25723 0.99549-0.38585 1.5974-0.38585 0.99291 0 1.744 0.30868 2.2534 0.92604 0.50931 0.61222 0.76397 1.5151 0.76398 2.7087"/>
   <path id="path3184" style="" d="m443.23 220.15v0.69453h-6.5286c0.0617 0.97749 0.35497 1.7235 0.87973 2.2379 0.5299 0.50932 1.2656 0.76398 2.2071 0.76398 0.54533 0 1.0727-0.0669 1.582-0.20064 0.51445-0.13376 1.0238-0.33441 1.528-0.60193v1.3428c-0.50933 0.21607-1.0315 0.3807-1.5666 0.49389-0.53505 0.11318-1.0778 0.16977-1.6283 0.16977-1.3788 0-2.472-0.40128-3.2797-1.2038-0.80256-0.80257-1.2038-1.8881-1.2038-3.2566 0-1.4148 0.38071-2.5363 1.1421-3.3646 0.76655-0.83343 1.798-1.2502 3.0945-1.2502 1.1627 0 2.081 0.37556 2.755 1.1267 0.67908 0.74598 1.0186 1.762 1.0186 3.0482m-1.4199-0.41672c-0.0103-0.77684-0.22894-1.3968-0.65594-1.8598-0.42187-0.46302-0.98264-0.69453-1.6823-0.69453-0.79229 0-1.4276 0.2238-1.9061 0.67138-0.47331 0.44759-0.74598 1.0778-0.818 1.8907l5.0623-0.008"/>
   <path id="path3186" style="" d="m449.49 220.48c-1.1473 0-1.9421 0.13119-2.3846 0.39357-0.44244 0.26238-0.66366 0.70996-0.66366 1.3428 0 0.50418 0.16463 0.90546 0.49389 1.2038 0.3344 0.29325 0.78713 0.43987 1.3582 0.43987 0.78713 0 1.4174-0.27781 1.8907-0.83343 0.47845-0.56077 0.71768-1.3042 0.71768-2.2302v-0.3164h-1.4122m2.8321-0.58649v4.9312h-1.4199v-1.3119c-0.32412 0.52475-0.72797 0.91318-1.2116 1.1653-0.4836 0.24695-1.0752 0.37042-1.7749 0.37042-0.88489 0-1.5897-0.24694-2.1145-0.74083-0.51961-0.49903-0.77942-1.1653-0.77942-1.9987 0-0.97234 0.32412-1.7054 0.97235-2.1994 0.65336-0.49388 1.6257-0.74082 2.917-0.74083h1.991v-0.1389c0-0.65337-0.21608-1.1576-0.64822-1.5125-0.42702-0.36012-1.0289-0.54019-1.8058-0.54019-0.49389 0-0.97492 0.0592-1.4431 0.17749-0.46817 0.11833-0.91832 0.29582-1.3505 0.53247v-1.3119c0.51961-0.20063 1.0238-0.34983 1.5125-0.44758 0.48874-0.10289 0.96462-0.15434 1.4276-0.15434 1.2502 0 2.1839 0.32412 2.8013 0.97234 0.61735 0.64823 0.92603 1.6309 0.92604 2.9479"/>
   <path id="path3188" style="" d="m456.63 223.53v4.5839h-1.4276v-11.93h1.4276v1.3119c0.29839-0.51445 0.67395-0.89516 1.1267-1.1421 0.45787-0.25208 1.0032-0.37813 1.636-0.37813 1.0495 0 1.901 0.41672 2.5543 1.2502 0.65851 0.83344 0.98777 1.9292 0.98777 3.2874s-0.32926 2.454-0.98777 3.2874c-0.65338 0.83343-1.5048 1.2502-2.5543 1.2502-0.63279 0-1.1781-0.12347-1.636-0.37042-0.45273-0.25208-0.82829-0.63536-1.1267-1.1498m4.8308-3.0173c-0.00001-1.0444-0.21608-1.8624-0.64823-2.454-0.42701-0.59677-1.0161-0.89516-1.7672-0.89517-0.75113 0.00001-1.3428 0.2984-1.7749 0.89517-0.42701 0.59165-0.64051 1.4096-0.64051 2.454s0.2135 1.8649 0.64051 2.4617c0.43215 0.59164 1.0238 0.88745 1.7749 0.88745 0.75111 0 1.3402-0.29581 1.7672-0.88745 0.43215-0.59678 0.64822-1.4174 0.64823-2.4617"/>
   <path id="path3190" style="" d="m472.68 220.15v0.69453h-6.5286c0.0617 0.97749 0.35498 1.7235 0.87974 2.2379 0.52989 0.50932 1.2656 0.76398 2.2071 0.76398 0.54532 0 1.0726-0.0669 1.582-0.20064 0.51446-0.13376 1.0238-0.33441 1.528-0.60193v1.3428c-0.50933 0.21607-1.0315 0.3807-1.5666 0.49389-0.53505 0.11318-1.0778 0.16977-1.6283 0.16977-1.3788 0-2.472-0.40128-3.2797-1.2038-0.80257-0.80257-1.2038-1.8881-1.2038-3.2566 0-1.4148 0.3807-2.5363 1.1421-3.3646 0.76655-0.83343 1.7981-1.2502 3.0945-1.2502 1.1627 0 2.081 0.37556 2.755 1.1267 0.67909 0.74598 1.0186 1.762 1.0186 3.0482m-1.4199-0.41672c-0.0103-0.77684-0.22895-1.3968-0.65595-1.8598-0.42186-0.46302-0.98263-0.69453-1.6823-0.69453-0.79228 0-1.4276 0.2238-1.9061 0.67138-0.47331 0.44759-0.74598 1.0778-0.818 1.8907l5.0624-0.008"/>
   <path id="path3192" style="" d="m482.2 219.61v5.2167h-1.4199v-5.1704c-0.00001-0.81799-0.15949-1.4302-0.47845-1.8366-0.31898-0.40642-0.79743-0.60964-1.4354-0.60965-0.76656 0.00001-1.3711 0.24438-1.8135 0.73312-0.44244 0.48875-0.66366 1.155-0.66366 1.9987v4.8849h-1.4276v-8.643h1.4276v1.3428c0.33955-0.5196 0.73826-0.90802 1.1961-1.1653 0.46301-0.25723 0.99548-0.38585 1.5974-0.38585 0.99292 0 1.744 0.30868 2.2534 0.92604 0.50931 0.61222 0.76397 1.5151 0.76398 2.7087"/>
  </g>
 </g>
 <g id="g100" transform="translate(-2 -9.0096)">
  <path id="path102" d="m540 180c40 0 40-180 9.74-180" stroke="#000" stroke-width="2" fill="none"/>
  <path id="polygon104" d="m549.74 0 2.5 5-10-5 10-5z"/>
  <path id="polygon106" d="m549.74 0 2.5 5-10-5 10-5z" stroke="#000" stroke-width="2" fill="none"/>
 </g>
 <g id="text108">
  <path id="path3197" style="" d="m327.41-34.403v-3.0945h-2.5466v-1.281h4.09v4.9466c-0.60193 0.42701-1.2656 0.75112-1.991 0.97234-0.72541 0.21608-1.4997 0.32411-2.3228 0.32411-1.8006 0-3.2103-0.52476-4.2289-1.5743-1.0135-1.0547-1.5202-2.5209-1.5202-4.3987 0-1.8829 0.50675-3.3492 1.5202-4.3987 1.0186-1.0546 2.4283-1.582 4.2289-1.582 0.75112 0.000011 1.4636 0.09262 2.1376 0.27781 0.67909 0.18522 1.3042 0.45789 1.8752 0.818v1.6592c-0.57621-0.48873-1.1884-0.85658-1.8366-1.1035-0.64824-0.24693-1.3299-0.3704-2.045-0.37042-1.4096 0.00001-2.4694 0.39358-3.1794 1.1807-0.70482 0.78714-1.0572 1.9601-1.0572 3.5189 0 1.5537 0.35241 2.7241 1.0572 3.5112 0.70996 0.78714 1.7698 1.1807 3.1794 1.1807 0.55047 0.000001 1.0418-0.0463 1.474-0.13891 0.43214-0.09775 0.82056-0.24694 1.1653-0.44758"/>
  <path id="path3199" style="" d="m331.74-44.767h1.4199v12.008h-1.4199v-12.008"/>
  <path id="path3201" style="" d="m339.48-40.407c-0.76141 0.000007-1.3633 0.2984-1.8058 0.89517-0.44244 0.59164-0.66366 1.4045-0.66366 2.4386s0.21865 1.8495 0.65595 2.4463c0.44243 0.59164 1.0469 0.88746 1.8135 0.88745 0.75626 0.000001 1.3556-0.29839 1.7981-0.89517 0.44243-0.59678 0.66365-1.4096 0.66366-2.4386-0.00001-1.0238-0.22123-1.8341-0.66366-2.4309-0.44245-0.60192-1.0418-0.90288-1.7981-0.90289m0-1.2039c1.2347 0.000009 2.2045 0.40129 2.9093 1.2039 0.70481 0.80257 1.0572 1.9138 1.0572 3.3337 0 1.4148-0.35241 2.526-1.0572 3.3337-0.70483 0.80257-1.6746 1.2039-2.9093 1.2039-1.2399 0-2.2122-0.40128-2.917-1.2039-0.69968-0.80771-1.0495-1.919-1.0495-3.3337 0-1.4199 0.34983-2.5312 1.0495-3.3337 0.70481-0.80256 1.6772-1.2038 2.917-1.2039"/>
  <path id="path3203" style="" d="m351.99-37.073c-0.00001-1.0444-0.21608-1.8624-0.64822-2.454-0.42702-0.59677-1.0161-0.89516-1.7672-0.89517-0.75112 0.000007-1.3428 0.2984-1.7749 0.89517-0.42701 0.59164-0.64052 1.4096-0.64051 2.454-0.00001 1.0444 0.2135 1.8649 0.64051 2.4617 0.43214 0.59164 1.0238 0.88746 1.7749 0.88745 0.75112 0.000001 1.3402-0.29582 1.7672-0.88745 0.43214-0.59678 0.64821-1.4174 0.64822-2.4617m-4.8308-3.0173c0.29838-0.51446 0.67394-0.89516 1.1267-1.1421 0.45787-0.25208 1.0032-0.37812 1.636-0.37813 1.0495 0.000009 1.9009 0.41673 2.5543 1.2502 0.65851 0.83344 0.98777 1.9293 0.98778 3.2874-0.00001 1.3582-0.32927 2.454-0.98778 3.2874-0.65338 0.83344-1.5048 1.2502-2.5543 1.2502-0.6328 0-1.1781-0.12347-1.636-0.37042-0.45274-0.25209-0.8283-0.63536-1.1267-1.1498v1.2965h-1.4276v-12.008h1.4276v4.6765"/>
  <path id="path3205" style="" d="m359.75-37.104c-1.1473 0.000005-1.9421 0.13119-2.3846 0.39357-0.44245 0.26238-0.66367 0.70997-0.66366 1.3428-0.00001 0.50418 0.16462 0.90546 0.49388 1.2039 0.3344 0.29325 0.78713 0.43987 1.3582 0.43987 0.78712 0.000001 1.4173-0.27781 1.8907-0.83344 0.47845-0.56077 0.71767-1.3042 0.71768-2.2302v-0.3164h-1.4122m2.8321-0.58649v4.9312h-1.4199v-1.3119c-0.32412 0.52476-0.72798 0.91318-1.2116 1.1653-0.4836 0.24694-1.0752 0.37042-1.7749 0.37042-0.88488 0-1.5897-0.24694-2.1144-0.74083-0.51962-0.49903-0.77942-1.1653-0.77942-1.9987 0-0.97234 0.32411-1.7055 0.97234-2.1993 0.65337-0.49388 1.6257-0.74083 2.917-0.74083h1.991v-0.13891c-0.00001-0.65337-0.21608-1.1575-0.64823-1.5125-0.42701-0.36012-1.0289-0.54018-1.8058-0.54019-0.49389 0.000007-0.97491 0.05917-1.4431 0.17749-0.46817 0.11833-0.91833 0.29582-1.3505 0.53247v-1.3119c0.51961-0.20063 1.0238-0.34983 1.5125-0.44758 0.48874-0.10288 0.96462-0.15433 1.4276-0.15434 1.2501 0.000009 2.1839 0.32412 2.8013 0.97234 0.61735 0.64824 0.92603 1.6309 0.92604 2.9479m-2.5929-7.7093h1.5357l-2.5157 2.9016h-1.1807l2.1608-2.9016"/>
  <path id="path3207" style="" d="m365.51-44.767h1.4199v12.008h-1.4199v-12.008"/>
  <path id="path3209" style="" d="m369.9-41.403h1.4199v8.643h-1.4199v-8.643m0-3.3646h1.4199v1.7981h-1.4199v-1.7981"/>
  <path id="path3211" style="" d="m379.79-41.148v1.3428c-0.40129-0.20578-0.81801-0.36012-1.2502-0.46302-0.43215-0.10289-0.87974-0.15433-1.3428-0.15434-0.70482 0.000007-1.2347 0.10804-1.5897 0.32411-0.34984 0.21608-0.52476 0.5402-0.52476 0.97234 0 0.32926 0.12604 0.58907 0.37813 0.77942 0.25209 0.18521 0.75884 0.3627 1.5202 0.53247l0.48617 0.10804c1.0084 0.21608 1.7235 0.52219 2.1453 0.91832 0.427 0.391 0.6405 0.9389 0.64051 1.6437-0.00001 0.80257-0.31898 1.4379-0.95691 1.9061-0.6328 0.46816-1.5048 0.70225-2.6161 0.70225-0.46302 0-0.94662-0.0463-1.4508-0.13891-0.49904-0.08746-1.0264-0.22122-1.582-0.40128v-1.4662c0.52476 0.27267 1.0418 0.47846 1.5511 0.61736 0.50932 0.13376 1.0135 0.20064 1.5125 0.20064 0.6688 0.000001 1.1833-0.11318 1.5434-0.33955 0.36012-0.23151 0.54018-0.55562 0.54019-0.97234-0.00001-0.38585-0.1312-0.68166-0.39357-0.88745-0.25724-0.20578-0.82572-0.40385-1.7055-0.59421l-0.49388-0.11576c-0.87974-0.1852-1.5151-0.46816-1.9061-0.84887-0.391-0.38584-0.58649-0.91317-0.58649-1.582 0-0.81285 0.2881-1.4405 0.8643-1.8829 0.5762-0.44243 1.3942-0.66365 2.454-0.66366 0.52476 0.000009 1.0186 0.03859 1.4817 0.11576 0.46301 0.07718 0.89002 0.19293 1.281 0.34726"/>
 </g>
 <g id="g112" transform="translate(-2 -9.0096)">
  <path id="rect114" fill="#fff" d="m320-20h220v100h-220z"/>
  <path id="rect116" d="m320-20h220v100h-220z" stroke="#000" stroke-width="2" fill="none"/>
 </g>
 <g id="g118" transform="translate(-2 -9.0096)">
  <path id="rect120" fill="#fff" d="m320-20.878h220v41.756h-220z"/>
  <path id="rect122" d="m320-20.878h220v41.756h-220z" stroke="#000" stroke-width="2" fill="none"/>
  <g id="text124">
   <path id="path3218" style="" d="m372.36-3.489v1.3273c-0.40129-0.22121-0.80514-0.38584-1.2116-0.49389-0.40129-0.11318-0.80772-0.16977-1.2193-0.16977-0.9209 0.0000077-1.636 0.29325-2.1453 0.87974-0.50933 0.58135-0.76399 1.3994-0.76399 2.454 0 1.0547 0.25466 1.8752 0.76399 2.4617 0.50932 0.58135 1.2244 0.87202 2.1453 0.87202 0.41157 0.000001 0.818-0.054018 1.2193-0.16206 0.40642-0.11318 0.81027-0.28038 1.2116-0.5016v1.3119c-0.39614 0.18521-0.80772 0.32411-1.2347 0.41672-0.42186 0.092604-0.87202 0.13891-1.3505 0.13891-1.3016-2e-7 -2.3357-0.409-3.1022-1.227-0.76656-0.818-1.1498-1.9215-1.1498-3.3106 0-1.4096 0.38585-2.5183 1.1576-3.326 0.77684-0.8077 1.8392-1.2116 3.1871-1.2116 0.43729 0.0000089 0.86429 0.046311 1.281 0.13891 0.41671 0.087468 0.82056 0.22123 1.2116 0.40128"/>
   <path id="path3220" style="" d="m382.03-0.39449v5.2167h-1.4199v-5.1704c-0.00001-0.818-0.15949-1.4302-0.47846-1.8366-0.31897-0.40642-0.79742-0.60963-1.4354-0.60964-0.76655 0.0000076-1.371 0.24438-1.8135 0.73311-0.44244 0.48875-0.66366 1.155-0.66366 1.9987v4.8849h-1.4276v-12.008h1.4276v4.7074c0.33954-0.5196 0.73826-0.90802 1.1961-1.1653 0.46302-0.25722 0.99549-0.38584 1.5974-0.38585 0.99291 0.0000089 1.744 0.30869 2.2534 0.92604 0.50932 0.61222 0.76398 1.5151 0.76399 2.7087"/>
   <path id="path3222" style="" d="m388.81 0.47753c-1.1473 0.00000434-1.9421 0.13119-2.3846 0.39357-0.44244 0.26238-0.66366 0.70997-0.66366 1.3428 0 0.50418 0.16463 0.90546 0.49389 1.2039 0.3344 0.29325 0.78713 0.43987 1.3582 0.43987 0.78713 9e-7 1.4174-0.27781 1.8907-0.83344 0.47845-0.56077 0.71768-1.3042 0.71768-2.2302v-0.3164h-1.4122m2.8321-0.58649v4.9312h-1.4199v-1.3119c-0.32412 0.52476-0.72797 0.91318-1.2116 1.1653-0.48361 0.24694-1.0752 0.37042-1.7749 0.37042-0.88489-2e-7 -1.5897-0.24694-2.1145-0.74083-0.51961-0.49903-0.77941-1.1653-0.77941-1.9987 0-0.97234 0.32411-1.7055 0.97234-2.1993 0.65337-0.49388 1.6257-0.74083 2.917-0.74083h1.991v-0.13891c0-0.65337-0.21608-1.1575-0.64822-1.5125-0.42702-0.36012-1.0289-0.54018-1.8058-0.54019-0.49389 0.0000077-0.97492 0.059171-1.4431 0.17749-0.46816 0.11833-0.91832 0.29583-1.3505 0.53247v-1.3119c0.51961-0.20063 1.0238-0.34983 1.5125-0.44759 0.48874-0.10288 0.96462-0.15433 1.4276-0.15434 1.2502 0.0000089 2.1839 0.32412 2.8013 0.97234 0.61735 0.64823 0.92603 1.6309 0.92604 2.9479"/>
   <path id="path3224" style="" d="m399.58-2.4935c-0.1595-0.092596-0.33441-0.15948-0.52476-0.20064-0.18521-0.046294-0.391-0.069445-0.61736-0.069453-0.80257 0.0000076-1.4199 0.26239-1.8521 0.78713-0.42701 0.51962-0.64051 1.2682-0.64051 2.2456v4.553h-1.4276v-8.643h1.4276v1.3428c0.29839-0.52475 0.68681-0.91317 1.1653-1.1653 0.47845-0.25722 1.0598-0.38584 1.744-0.38585 0.0977 0.0000089 0.20578 0.00773 0.32411 0.023151 0.11832 0.010298 0.24951 0.028304 0.39357 0.054019l0.008 1.4585"/>
   <path id="path3226" style="" d="m411.8 0.40036c0-1.0289-0.21351-1.8263-0.64051-2.3923-0.42187-0.56591-1.0161-0.84886-1.7826-0.84887-0.76142 0.0000076-1.3556 0.28296-1.7826 0.84887-0.42186 0.56592-0.63279 1.3633-0.63279 2.3923 0 1.0238 0.21093 1.8186 0.63279 2.3846 0.42701 0.56591 1.0212 0.84887 1.7826 0.84887 0.76655 0.0000012 1.3608-0.28295 1.7826-0.84887 0.427-0.56591 0.64051-1.3608 0.64051-2.3846m1.4199 3.3492c-0.00001 1.4714-0.32669 2.5646-0.98006 3.2797-0.65338 0.72025-1.654 1.0804-3.0019 1.0804-0.49903-0.0000033-0.96977-0.038588-1.4122-0.11575-0.44244-0.072028-0.87202-0.18521-1.2887-0.33955v-1.3813c0.41672 0.22636 0.82829 0.39356 1.2347 0.5016 0.40643 0.10804 0.82057 0.16205 1.2424 0.16206 0.93118-0.0000021 1.6283-0.24437 2.0913-0.73311 0.46302-0.4836 0.69453-1.2167 0.69453-2.1993v-0.70225c-0.29325 0.50932-0.66881 0.89003-1.1267 1.1421-0.45788 0.25209-1.0058 0.37813-1.6437 0.37813-1.0598 0-1.9138-0.40386-2.562-1.2116-0.64823-0.80771-0.97234-1.8778-0.97234-3.2103 0-1.3376 0.32411-2.4103 0.97234-3.218s1.5022-1.2116 2.562-1.2116c0.63794 0.0000089 1.1858 0.12605 1.6437 0.37813 0.45787 0.2521 0.83343 0.6328 1.1267 1.1421v-1.3119h1.4199v7.5704"/>
   <path id="path3228" style="" d="m416.15-7.1854h1.4199v12.008h-1.4199v-12.008"/>
   <path id="path3230" style="" d="m423.88-2.8253c-0.76141 0.0000077-1.3633 0.2984-1.8058 0.89517-0.44244 0.59164-0.66367 1.4045-0.66366 2.4386-0.00001 1.0341 0.21864 1.8495 0.65594 2.4463 0.44244 0.59164 1.0469 0.88746 1.8135 0.88745 0.75626 0.000001 1.3556-0.29839 1.7981-0.89517 0.44244-0.59678 0.66366-1.4096 0.66367-2.4386-0.00001-1.0238-0.22123-1.8341-0.66367-2.4309-0.44244-0.60192-1.0418-0.90288-1.7981-0.90289m0-1.2039c1.2347 0.0000089 2.2045 0.40129 2.9093 1.2039 0.70481 0.80257 1.0572 1.9138 1.0572 3.3337-0.00001 1.4148-0.35242 2.526-1.0572 3.3337-0.70482 0.80257-1.6746 1.2039-2.9093 1.2039-1.2399-2e-7 -2.2122-0.40128-2.917-1.2039-0.69967-0.80771-1.0495-1.919-1.0495-3.3337 0-1.4199 0.34984-2.5312 1.0495-3.3337 0.70482-0.80256 1.6772-1.2038 2.917-1.2039"/>
   <path id="path3232" style="" d="m436.4 0.5084c0-1.0444-0.21608-1.8624-0.64822-2.454-0.42702-0.59677-1.0161-0.89516-1.7672-0.89517-0.75112 0.0000076-1.3428 0.2984-1.7749 0.89517-0.42701 0.59164-0.64052 1.4096-0.64051 2.454-0.00001 1.0444 0.2135 1.8649 0.64051 2.4617 0.43214 0.59164 1.0238 0.88746 1.7749 0.88745 0.75112 9e-7 1.3402-0.29582 1.7672-0.88745 0.43214-0.59678 0.64822-1.4174 0.64822-2.4617m-4.83-3.0174c0.29838-0.51446 0.67394-0.89516 1.1267-1.1421 0.45787-0.25208 1.0032-0.37812 1.636-0.37813 1.0495 0.0000089 1.9009 0.41673 2.5543 1.2502 0.65851 0.83344 0.98777 1.9293 0.98778 3.2874-0.00001 1.3582-0.32927 2.454-0.98778 3.2874-0.65338 0.83344-1.5048 1.2502-2.5543 1.2502-0.6328-2e-7 -1.1781-0.12347-1.636-0.37042-0.45274-0.25209-0.8283-0.63536-1.1267-1.1498v1.2965h-1.4276v-12.008h1.4276v4.6765"/>
   <path id="path3234" style="" d="m444.15 0.47753c-1.1473 0.00000434-1.9421 0.13119-2.3846 0.39357-0.44245 0.26238-0.66367 0.70997-0.66367 1.3428 0 0.50418 0.16463 0.90546 0.49389 1.2039 0.3344 0.29325 0.78713 0.43987 1.3582 0.43987 0.78713 9e-7 1.4174-0.27781 1.8907-0.83344 0.47844-0.56077 0.71767-1.3042 0.71768-2.2302v-0.3164h-1.4122m2.8321-0.58649v4.9312h-1.4199v-1.3119c-0.32412 0.52476-0.72798 0.91318-1.2116 1.1653-0.4836 0.24694-1.0752 0.37042-1.7749 0.37042-0.88488-2e-7 -1.5897-0.24694-2.1145-0.74083-0.51961-0.49903-0.77941-1.1653-0.77941-1.9987 0-0.97234 0.32411-1.7055 0.97234-2.1993 0.65337-0.49388 1.6257-0.74083 2.917-0.74083h1.991v-0.13891c-0.00001-0.65337-0.21609-1.1575-0.64823-1.5125-0.42701-0.36012-1.0289-0.54018-1.8058-0.54019-0.49389 0.0000077-0.97491 0.059171-1.4431 0.17749-0.46817 0.11833-0.91833 0.29583-1.3505 0.53247v-1.3119c0.51961-0.20063 1.0238-0.34983 1.5125-0.44759 0.48874-0.10288 0.96462-0.15433 1.4276-0.15434 1.2501 0.0000089 2.1839 0.32412 2.8013 0.97234 0.61736 0.64823 0.92603 1.6309 0.92604 2.9479"/>
   <path id="path3236" style="" d="m449.92-7.1854h1.4199v12.008h-1.4199v-12.008"/>
   <path id="path3238" style="" d="m454.17-7.1854h3.272v1.1035h-1.8521v11.884h1.8521v1.1035h-3.272v-14.091"/>
   <path id="path3240" style="" d="m460.95 3.5103h2.5466v-8.7897l-2.7704 0.55562v-1.4199l2.755-0.55562h1.5588v10.21h2.5466v1.3119h-6.6366v-1.3119"/>
   <path id="path3242" style="" d="m474.07-5.6729c-0.80257 0.0000104-1.4071 0.39615-1.8135 1.1884-0.40129 0.78714-0.60193 1.973-0.60193 3.5575 0 1.5794 0.20064 2.7653 0.60193 3.5575 0.40642 0.78713 1.0109 1.1807 1.8135 1.1807 0.80771 0.000001 1.4122-0.39357 1.8135-1.1807 0.40642-0.79227 0.60964-1.9781 0.60965-3.5575-0.00001-1.5845-0.20323-2.7704-0.60965-3.5575-0.40129-0.79227-1.0058-1.1884-1.8135-1.1884m0-1.2347c1.2913 0.0000117 2.2765 0.5119 2.9556 1.5357 0.68423 1.0187 1.0264 2.5003 1.0264 4.445-0.00001 1.9395-0.34213 3.4212-1.0264 4.445-0.6791 1.0186-1.6643 1.528-2.9556 1.528-1.2913-2e-7 -2.2791-0.50932-2.9633-1.528-0.67909-1.0238-1.0186-2.5054-1.0186-4.445 0-1.9447 0.33955-3.4263 1.0186-4.445 0.68424-1.0238 1.672-1.5357 2.9633-1.5357"/>
   <path id="path3244" style="" d="m484.13-5.6729c-0.80257 0.0000104-1.4071 0.39615-1.8135 1.1884-0.40128 0.78714-0.60192 1.973-0.60192 3.5575 0 1.5794 0.20064 2.7653 0.60192 3.5575 0.40643 0.78713 1.0109 1.1807 1.8135 1.1807 0.8077 0.000001 1.4122-0.39357 1.8135-1.1807 0.40642-0.79227 0.60964-1.9781 0.60964-3.5575 0-1.5845-0.20322-2.7704-0.60964-3.5575-0.40129-0.79227-1.0058-1.1884-1.8135-1.1884m0-1.2347c1.2913 0.0000117 2.2765 0.5119 2.9556 1.5357 0.68423 1.0187 1.0264 2.5003 1.0264 4.445-0.00001 1.9395-0.34213 3.4212-1.0264 4.445-0.67911 1.0186-1.6643 1.528-2.9556 1.528-1.2913-2e-7 -2.2791-0.50932-2.9633-1.528-0.67909-1.0238-1.0186-2.5054-1.0186-4.445 0-1.9447 0.33955-3.4263 1.0186-4.445 0.68424-1.0238 1.672-1.5357 2.9633-1.5357"/>
   <path id="path3246" style="" d="m493.98-7.1854v14.091h-3.272v-1.1035h1.8444v-11.884h-1.8444v-1.1035h3.272"/>
  </g>
 </g>
 <g id="g128" transform="translate(-2 -9.0096)">
  <path id="rect130" fill="#fff" d="m320 279.12h220v41.756h-220z"/>
  <path id="rect132" d="m320 279.12h220v41.756h-220z" stroke="#000" stroke-width="2" fill="none"/>
  <g id="text134">
   <path id="path3251" style="" d="m375.8 296.51v1.3273c-0.40129-0.22121-0.80514-0.38584-1.2116-0.49388-0.40129-0.11318-0.80771-0.16977-1.2193-0.16978-0.9209 0.00001-1.636 0.29325-2.1453 0.87974-0.50933 0.58135-0.76399 1.3994-0.76399 2.454 0 1.0547 0.25466 1.8752 0.76399 2.4617 0.50931 0.58135 1.2244 0.87202 2.1453 0.87202 0.41157 0 0.81799-0.054 1.2193-0.16205 0.40643-0.11319 0.81028-0.28039 1.2116-0.50161v1.3119c-0.39614 0.18521-0.80772 0.32411-1.2347 0.41672-0.42186 0.0926-0.87202 0.1389-1.3505 0.1389-1.3016 0-2.3357-0.409-3.1022-1.227-0.76656-0.818-1.1498-1.9215-1.1498-3.3106 0-1.4096 0.38585-2.5183 1.1576-3.326 0.77684-0.8077 1.8392-1.2116 3.1871-1.2116 0.43729 0.00001 0.8643 0.0463 1.281 0.13891 0.41672 0.0875 0.82057 0.22123 1.2116 0.40128"/>
   <path id="path3253" style="" d="m385.47 299.61v5.2167h-1.4199v-5.1704c-0.00001-0.818-0.15949-1.4302-0.47846-1.8366-0.31897-0.40642-0.79743-0.60963-1.4354-0.60964-0.76656 0.00001-1.371 0.24438-1.8135 0.73311-0.44244 0.48875-0.66366 1.155-0.66366 1.9987v4.8849h-1.4276v-12.008h1.4276v4.7074c0.33954-0.51961 0.73825-0.90803 1.1961-1.1653 0.46302-0.25722 0.99549-0.38584 1.5974-0.38585 0.99291 0.00001 1.744 0.30869 2.2534 0.92604 0.50931 0.61222 0.76397 1.5151 0.76398 2.7087"/>
   <path id="path3255" style="" d="m392.25 300.48c-1.1473 0.00001-1.9421 0.1312-2.3846 0.39357-0.44244 0.26238-0.66366 0.70997-0.66366 1.3428 0 0.50418 0.16463 0.90546 0.49389 1.2038 0.3344 0.29325 0.78713 0.43987 1.3582 0.43987 0.78713 0 1.4174-0.27781 1.8907-0.83344 0.47845-0.56076 0.71768-1.3042 0.71768-2.2302v-0.3164h-1.4122m2.8321-0.58649v4.9312h-1.4199v-1.3119c-0.32412 0.52476-0.72797 0.91318-1.2116 1.1653-0.48361 0.24694-1.0752 0.37041-1.7749 0.37041-0.88489 0-1.5897-0.24694-2.1145-0.74083-0.51961-0.49903-0.77942-1.1653-0.77941-1.9987-0.00001-0.97234 0.32411-1.7054 0.97234-2.1993 0.65337-0.49388 1.6257-0.74083 2.917-0.74083h1.991v-0.13891c0-0.65336-0.21608-1.1575-0.64822-1.5125-0.42702-0.36012-1.0289-0.54018-1.8058-0.54019-0.49389 0.00001-0.97492 0.0592-1.4431 0.17749-0.46816 0.11834-0.91832 0.29583-1.3505 0.53247v-1.3119c0.51961-0.20064 1.0238-0.34983 1.5125-0.44759 0.48874-0.10288 0.96462-0.15433 1.4276-0.15434 1.2502 0.00001 2.1839 0.32412 2.8013 0.97234 0.61735 0.64824 0.92603 1.6309 0.92604 2.9479"/>
   <path id="path3257" style="" d="m403.02 297.51c-0.15949-0.0926-0.33441-0.15947-0.52475-0.20064-0.18522-0.0463-0.391-0.0694-0.61736-0.0694-0.80257 0.00001-1.4199 0.26238-1.8521 0.78713-0.42701 0.51962-0.64051 1.2682-0.64051 2.2456v4.553h-1.4276v-8.643h1.4276v1.3428c0.29839-0.52475 0.68681-0.91317 1.1653-1.1653 0.47845-0.25722 1.0598-0.38584 1.744-0.38585 0.0977 0.00001 0.20578 0.008 0.32411 0.0231 0.11832 0.0103 0.24951 0.0283 0.39357 0.054l0.008 1.4585"/>
   <path id="path3259" style="" d="m410.96 293.72v2.454h2.9247v1.1035h-2.9247v4.6919c0 0.70482 0.0952 1.1576 0.28553 1.3582 0.19549 0.20064 0.58906 0.30097 1.1807 0.30096h1.4585v1.1884h-1.4585c-1.0958 0-1.8521-0.20321-2.2688-0.60964-0.41672-0.41157-0.62507-1.1576-0.62507-2.2379v-4.6919h-1.0418v-1.1035h1.0418v-2.454h1.4276"/>
   <path id="path3261" style="" d="m419.11 297.17c-0.76141 0.00001-1.3633 0.2984-1.8058 0.89517-0.44245 0.59164-0.66367 1.4045-0.66366 2.4386-0.00001 1.0341 0.21864 1.8495 0.65594 2.4463 0.44244 0.59164 1.0469 0.88745 1.8135 0.88745 0.75626 0 1.3556-0.29839 1.7981-0.89517 0.44244-0.59678 0.66366-1.4096 0.66366-2.4386 0-1.0238-0.22122-1.8341-0.66366-2.4308-0.44244-0.60192-1.0418-0.90288-1.7981-0.90289m0-1.2038c1.2347 0.00001 2.2045 0.40129 2.9093 1.2038 0.70481 0.80258 1.0572 1.9138 1.0572 3.3337-0.00001 1.4148-0.35242 2.526-1.0572 3.3337-0.70483 0.80257-1.6746 1.2038-2.9093 1.2038-1.2399 0-2.2122-0.40128-2.917-1.2038-0.69968-0.80771-1.0495-1.919-1.0495-3.3337 0-1.4199 0.34983-2.5312 1.0495-3.3337 0.70482-0.80256 1.6772-1.2038 2.917-1.2038"/>
   <path id="path3263" style="" d="m432.15 297.84c0.35497-0.63793 0.77941-1.1087 1.2733-1.4122 0.49388-0.30352 1.0752-0.45529 1.744-0.4553 0.90031 0.00001 1.5948 0.31641 2.0836 0.94919 0.48873 0.62766 0.7331 1.5228 0.73312 2.6855v5.2167h-1.4276v-5.1704c-0.00001-0.82829-0.14663-1.4431-0.43987-1.8444-0.29325-0.40127-0.74084-0.60191-1.3428-0.60192-0.7357 0.00001-1.317 0.24438-1.744 0.73311-0.42702 0.48875-0.64052 1.155-0.64051 1.9987v4.8849h-1.4276v-5.1704c0-0.83343-0.14663-1.4482-0.43986-1.8444-0.29326-0.40127-0.74599-0.60191-1.3582-0.60192-0.7254 0.00001-1.3016 0.24695-1.7286 0.74083-0.42701 0.48875-0.64052 1.1524-0.64051 1.991v4.8849h-1.4276v-8.643h1.4276v1.3428c0.32411-0.5299 0.71253-0.92089 1.1653-1.173 0.45273-0.25208 0.99035-0.37812 1.6128-0.37813 0.62765 0.00001 1.1601 0.15949 1.5974 0.47845 0.44244 0.31898 0.76912 0.782 0.98006 1.3891"/>
   <path id="path3265" style="" d="m447.03 300.51c-0.00001-1.0444-0.21608-1.8624-0.64823-2.454-0.42701-0.59677-1.0161-0.89516-1.7672-0.89517-0.75112 0.00001-1.3428 0.2984-1.7749 0.89517-0.42701 0.59164-0.64051 1.4096-0.64051 2.454s0.2135 1.8649 0.64051 2.4617c0.43215 0.59164 1.0238 0.88746 1.7749 0.88746 0.75112 0 1.3402-0.29582 1.7672-0.88746 0.43215-0.59678 0.64822-1.4174 0.64823-2.4617m-4.8308-3.0173c0.29839-0.51446 0.67395-0.89516 1.1267-1.1421 0.45787-0.25208 1.0032-0.37812 1.636-0.37813 1.0495 0.00001 1.9009 0.41673 2.5543 1.2502 0.65851 0.83345 0.98777 1.9293 0.98777 3.2874 0 1.3582-0.32926 2.454-0.98777 3.2874-0.65338 0.83344-1.5048 1.2502-2.5543 1.2502-0.6328 0-1.1781-0.12347-1.636-0.37041-0.45273-0.25209-0.82829-0.63537-1.1267-1.1498v1.2964h-1.4276v-12.008h1.4276v4.6765"/>
   <path id="path3267" style="" d="m450.73 292.81h3.272v1.1035h-1.8521v11.884h1.8521v1.1035h-3.272v-14.091"/>
   <path id="path3269" style="" d="m458.58 303.51h5.4405v1.3119h-7.3157v-1.3119c0.59163-0.61221 1.3968-1.4328 2.4154-2.4617 1.0238-1.0341 1.6669-1.7003 1.9292-1.9987 0.49903-0.56076 0.84629-1.0341 1.0418-1.4199 0.20063-0.39098 0.30095-0.77426 0.30096-1.1498-0.00001-0.6122-0.21608-1.1112-0.64823-1.4971-0.42701-0.38584-0.98521-0.57877-1.6746-0.57878-0.48874 0.00001-1.0058 0.0849-1.5511 0.25466-0.54019 0.16979-1.119 0.42702-1.7363 0.7717v-1.5743c0.62764-0.25207 1.2141-0.44242 1.7595-0.57105 0.54533-0.12861 1.0444-0.19292 1.4971-0.19293 1.1936 0.00001 2.1453 0.2984 2.8553 0.89517 0.70996 0.59679 1.0649 1.3942 1.065 2.3923-0.00001 0.47332-0.09 0.92348-0.2701 1.3505-0.17492 0.42187-0.49646 0.92091-0.96462 1.4971-0.12862 0.1492-0.53762 0.58135-1.227 1.2965-0.68939 0.70996-1.6617 1.7054-2.917 2.9865"/>
   <path id="path3271" style="" d="m470.63 294.33c-0.80258 0.00001-1.4071 0.39615-1.8135 1.1884-0.40128 0.78714-0.60193 1.973-0.60192 3.5575-0.00001 1.5794 0.20064 2.7653 0.60192 3.5575 0.40643 0.78713 1.0109 1.1807 1.8135 1.1807 0.8077 0.00001 1.4122-0.39356 1.8135-1.1807 0.40642-0.79228 0.60963-1.9781 0.60964-3.5575-0.00001-1.5846-0.20322-2.7704-0.60964-3.5575-0.40129-0.79227-1.0058-1.1884-1.8135-1.1884m0-1.2347c1.2913 0.00001 2.2765 0.51191 2.9556 1.5357 0.68424 1.0187 1.0264 2.5003 1.0264 4.445 0 1.9395-0.34212 3.4212-1.0264 4.445-0.6791 1.0186-1.6643 1.528-2.9556 1.528s-2.2791-0.50932-2.9633-1.528c-0.6791-1.0238-1.0186-2.5054-1.0186-4.445 0-1.9447 0.33954-3.4263 1.0186-4.445 0.68424-1.0238 1.672-1.5357 2.9633-1.5357"/>
   <path id="path3273" style="" d="m480.69 294.33c-0.80257 0.00001-1.4071 0.39615-1.8135 1.1884-0.40129 0.78714-0.60193 1.973-0.60192 3.5575-0.00001 1.5794 0.20063 2.7653 0.60192 3.5575 0.40643 0.78713 1.0109 1.1807 1.8135 1.1807 0.80771 0.00001 1.4122-0.39356 1.8135-1.1807 0.40642-0.79228 0.60963-1.9781 0.60964-3.5575-0.00001-1.5846-0.20322-2.7704-0.60964-3.5575-0.40129-0.79227-1.0058-1.1884-1.8135-1.1884m0-1.2347c1.2913 0.00001 2.2765 0.51191 2.9556 1.5357 0.68423 1.0187 1.0264 2.5003 1.0264 4.445-0.00001 1.9395-0.34213 3.4212-1.0264 4.445-0.6791 1.0186-1.6643 1.528-2.9556 1.528s-2.2791-0.50932-2.9633-1.528c-0.6791-1.0238-1.0186-2.5054-1.0186-4.445-0.00001-1.9447 0.33954-3.4263 1.0186-4.445 0.68424-1.0238 1.672-1.5357 2.9633-1.5357"/>
   <path id="path3275" style="" d="m490.54 292.81v14.091h-3.272v-1.1035h1.8444v-11.884h-1.8444v-1.1035h3.272"/>
  </g>
 </g>
</svg>
