<?xml version="1.0" encoding="UTF-8" standalone="no"?>
<!-- Created with Inkscape (http://www.inkscape.org/) -->
<svg id="svg2" xmlns:rdf="http://www.w3.org/1999/02/22-rdf-syntax-ns#" xmlns="http://www.w3.org/2000/svg" height="793.67" width="527.8" version="1.1" xmlns:cc="http://creativecommons.org/ns#" xmlns:dc="http://purl.org/dc/elements/1.1/" viewBox="272 -60 291.95646 430.45349">
 <metadata id="metadata116">
  <rdf:RDF>
   <cc:Work rdf:about="">
    <dc:format>image/svg+xml</dc:format>
    <dc:type rdf:resource="http://purl.org/dc/dcmitype/StillImage"/>
   </cc:Work>
  </rdf:RDF>
 </metadata>
 <g id="g4" transform="translate(-2 -7.139)">
  <path id="rect6" fill="#fff" d="m320 60h220v320h-220z"/>
  <path id="rect8" d="m320 60h220v320h-220z" stroke="#000" stroke-width="2" fill="none"/>
 </g>
 <g id="g10" transform="translate(-2 -7.139)">
  <path id="rect12" fill="#e0e0e0" d="m320 199.12h220v41.756h-220z"/>
  <path id="rect14" d="m320 199.12h220v41.756h-220z" stroke="#000" stroke-width="2" fill="none"/>
  <g id="text16">
   <path id="path3041" style="" d="m352.58 216.18h1.4199v8.643h-1.4199v-8.643m0-3.3646h1.4199v1.7981h-1.4199v-1.7981"/>
   <path id="path3043" style="" d="m364.14 219.61v5.2167h-1.4199v-5.1704c-0.00001-0.81799-0.15949-1.4302-0.47845-1.8366-0.31898-0.40642-0.79743-0.60964-1.4354-0.60965-0.76656 0.00001-1.3711 0.24438-1.8135 0.73312-0.44244 0.48875-0.66366 1.155-0.66366 1.9987v4.8849h-1.4276v-8.643h1.4276v1.3428c0.33955-0.5196 0.73826-0.90802 1.1961-1.1653 0.46301-0.25723 0.99548-0.38585 1.5974-0.38585 0.99292 0 1.744 0.30868 2.2534 0.92604 0.50932 0.61222 0.76398 1.5151 0.76399 2.7087"/>
   <path id="path3045" style="" d="m368.4 213.72v2.454h2.9247v1.1035h-2.9247v4.6919c0 0.70482 0.0952 1.1576 0.28553 1.3582 0.19549 0.20064 0.58906 0.30096 1.1807 0.30096h1.4585v1.1884h-1.4585c-1.0958 0-1.8521-0.20322-2.2688-0.60965-0.41672-0.41157-0.62507-1.1575-0.62507-2.2379v-4.6919h-1.0418v-1.1035h1.0418v-2.454h1.4276"/>
   <path id="path3047" style="" d="m384.43 220.51c-0.00001-1.0444-0.21608-1.8624-0.64823-2.454-0.42701-0.59677-1.0161-0.89516-1.7672-0.89517-0.75112 0.00001-1.3428 0.2984-1.7749 0.89517-0.42701 0.59165-0.64051 1.4096-0.64051 2.454s0.2135 1.8649 0.64051 2.4617c0.43215 0.59164 1.0238 0.88745 1.7749 0.88745 0.75112 0 1.3402-0.29581 1.7672-0.88745 0.43215-0.59678 0.64822-1.4174 0.64823-2.4617m-4.8308-3.0174c0.29839-0.51445 0.67395-0.89516 1.1267-1.1421 0.45787-0.25208 1.0032-0.37813 1.636-0.37813 1.0495 0 1.9009 0.41672 2.5543 1.2502 0.65851 0.83344 0.98777 1.9292 0.98778 3.2874-0.00001 1.3582-0.32927 2.454-0.98778 3.2874-0.65338 0.83343-1.5048 1.2502-2.5543 1.2502-0.6328 0-1.1781-0.12347-1.636-0.37042-0.45273-0.25208-0.82829-0.63536-1.1267-1.1498v1.2965h-1.4276v-12.008h1.4276v4.6765"/>
   <path id="path3049" style="" d="m393.48 217.65h9.8932v1.2965h-9.8932v-1.2965m0 3.1485h9.8932v1.3119h-9.8932v-1.3119"/>
   <path id="path3051" style="" d="m411.78 213.3h6.1196v1.3119h-4.6919v2.8244c0.22637-0.0772 0.45273-0.13375 0.6791-0.16977 0.22636-0.0411 0.45273-0.0617 0.67909-0.0617 1.2862 0.00001 2.3048 0.35242 3.0559 1.0572 0.75112 0.70483 1.1267 1.6592 1.1267 2.863 0 1.2399-0.38585 2.2045-1.1575 2.8939-0.77171 0.68424-1.8598 1.0264-3.2643 1.0264-0.4836 0-0.97749-0.0412-1.4817-0.12347-0.49904-0.0823-1.0161-0.20579-1.5511-0.37042v-1.5666c0.46302 0.25209 0.94147 0.43987 1.4354 0.56334 0.49388 0.12348 1.0161 0.18521 1.5666 0.18521 0.89002 0 1.5948-0.23408 2.1145-0.70225 0.5196-0.46816 0.7794-1.1035 0.77941-1.9061-0.00001-0.80257-0.25981-1.4379-0.77941-1.9061-0.51962-0.46816-1.2244-0.70224-2.1145-0.70225-0.41672 0.00001-0.83344 0.0463-1.2502 0.13891-0.41158 0.0926-0.83344 0.23666-1.2656 0.43215v-5.7877"/>
   <path id="path3053" style="" d="m430.07 212.83c-0.68939 1.1833-1.2013 2.3537-1.5357 3.5112-0.3344 1.1576-0.5016 2.3305-0.5016 3.519 0 1.1884 0.1672 2.3666 0.5016 3.5344 0.33955 1.1627 0.85144 2.3331 1.5357 3.5112h-1.2347c-0.77171-1.209-1.3505-2.3974-1.7363-3.5652-0.3807-1.1678-0.57106-2.328-0.57105-3.4804-0.00001-1.1472 0.19035-2.3022 0.57105-3.4649 0.38071-1.1627 0.95948-2.3511 1.7363-3.5652h1.2347"/>
   <path id="path3055" style="" d="m432.78 212.81h1.4276v7.0919l4.2366-3.7273h1.8135l-4.5839 4.0437 4.7768 4.5993h-1.8521l-4.391-4.2212v4.2212h-1.4276v-12.008"/>
   <path id="path3057" style="" d="m448.84 220.15v0.69453h-6.5286c0.0617 0.97749 0.35498 1.7235 0.87974 2.2379 0.52989 0.50932 1.2656 0.76398 2.2071 0.76398 0.54532 0 1.0726-0.0669 1.582-0.20064 0.51446-0.13376 1.0238-0.33441 1.528-0.60193v1.3428c-0.50933 0.21607-1.0315 0.3807-1.5665 0.49389-0.53506 0.11318-1.0778 0.16977-1.6283 0.16977-1.3788 0-2.472-0.40128-3.2797-1.2038-0.80257-0.80257-1.2038-1.8881-1.2038-3.2566 0-1.4148 0.3807-2.5363 1.1421-3.3646 0.76655-0.83343 1.7981-1.2502 3.0945-1.2502 1.1627 0 2.081 0.37556 2.755 1.1267 0.67909 0.74598 1.0186 1.762 1.0186 3.0482m-1.4199-0.41672c-0.0103-0.77684-0.22895-1.3968-0.65595-1.8598-0.42186-0.46302-0.98263-0.69453-1.6823-0.69453-0.79228 0-1.4276 0.2238-1.9061 0.67138-0.47331 0.44759-0.74598 1.0778-0.818 1.8907l5.0624-0.008m-1.3659-7.5472h1.5357l-2.5157 2.9016h-1.1807l2.1608-2.9016"/>
   <path id="path3059" style="" d="m456.68 216.43v1.3428c-0.40129-0.20578-0.81801-0.36012-1.2502-0.46302-0.43216-0.10288-0.87974-0.15433-1.3428-0.15434-0.70482 0.00001-1.2347 0.10805-1.5897 0.32412-0.34984 0.21608-0.52476 0.54019-0.52475 0.97234-0.00001 0.32926 0.12604 0.58907 0.37813 0.77941 0.25208 0.18522 0.75883 0.36271 1.5202 0.53248l0.48617 0.10803c1.0083 0.21608 1.7234 0.52219 2.1453 0.91833 0.427 0.39099 0.6405 0.9389 0.64051 1.6437-0.00001 0.80256-0.31898 1.4379-0.95691 1.9061-0.6328 0.46817-1.5048 0.70225-2.6161 0.70225-0.46302 0-0.94662-0.0463-1.4508-0.13891-0.49904-0.0875-1.0264-0.22122-1.582-0.40128v-1.4662c0.52476 0.27267 1.0418 0.47846 1.5511 0.61736 0.50932 0.13376 1.0135 0.20064 1.5125 0.20064 0.6688 0 1.1833-0.11318 1.5434-0.33955 0.36012-0.2315 0.54018-0.55562 0.54019-0.97234-0.00001-0.38584-0.1312-0.68166-0.39357-0.88745-0.25724-0.20578-0.82572-0.40385-1.7054-0.59421l-0.49389-0.11575c-0.87974-0.18521-1.5151-0.46816-1.9061-0.84887-0.39099-0.38585-0.58649-0.91317-0.58649-1.582 0-0.81285 0.2881-1.4405 0.8643-1.8829 0.5762-0.44243 1.3942-0.66366 2.454-0.66366 0.52475 0 1.0186 0.0386 1.4817 0.11575 0.46301 0.0772 0.89002 0.19293 1.281 0.34727"/>
   <path id="path3061" style="" d="m465.05 212.18h1.3736l-1.9138 2.9016h-1.0418l1.582-2.9016m-2.5775 0h1.3119l-1.7209 2.9016h-1.0572l1.4662-2.9016m0.28553 4.9929c-0.76142 0-1.3633 0.29839-1.8058 0.89517-0.44244 0.59164-0.66366 1.4045-0.66366 2.4386s0.21864 1.8495 0.65594 2.4463c0.44244 0.59164 1.0469 0.88746 1.8135 0.88746 0.75625 0 1.3556-0.29839 1.798-0.89517 0.44244-0.59678 0.66366-1.4096 0.66367-2.4386-0.00001-1.0238-0.22123-1.8341-0.66367-2.4309-0.44244-0.60191-1.0418-0.90288-1.798-0.90288m0-1.2038c1.2347 0 2.2045 0.40129 2.9093 1.2038 0.70481 0.80257 1.0572 1.9138 1.0572 3.3337-0.00001 1.4148-0.35242 2.526-1.0572 3.3337-0.70482 0.80257-1.6746 1.2038-2.9093 1.2038-1.2399 0-2.2122-0.40128-2.917-1.2038-0.69967-0.80771-1.0495-1.919-1.0495-3.3337 0-1.4199 0.34984-2.5312 1.0495-3.3337 0.70482-0.80256 1.6772-1.2038 2.917-1.2038"/>
   <path id="path3063" style="" d="m475.28 220.51c-0.00001-1.0444-0.21609-1.8624-0.64823-2.454-0.42701-0.59677-1.0161-0.89516-1.7672-0.89517-0.75113 0.00001-1.3428 0.2984-1.7749 0.89517-0.42701 0.59165-0.64051 1.4096-0.64051 2.454s0.2135 1.8649 0.64051 2.4617c0.43215 0.59164 1.0238 0.88745 1.7749 0.88745 0.75111 0 1.3402-0.29581 1.7672-0.88745 0.43214-0.59678 0.64822-1.4174 0.64823-2.4617m-4.8308-3.0174c0.29839-0.51445 0.67395-0.89516 1.1267-1.1421 0.45787-0.25208 1.0032-0.37813 1.636-0.37813 1.0495 0 1.901 0.41672 2.5543 1.2502 0.65851 0.83344 0.98776 1.9292 0.98777 3.2874-0.00001 1.3582-0.32926 2.454-0.98777 3.2874-0.65338 0.83343-1.5048 1.2502-2.5543 1.2502-0.6328 0-1.1781-0.12347-1.636-0.37042-0.45273-0.25208-0.82829-0.63536-1.1267-1.1498v1.2965h-1.4276v-12.008h1.4276v4.6765"/>
   <path id="path3065" style="" d="m485.31 220.51c-0.00001-1.0444-0.21609-1.8624-0.64823-2.454-0.42701-0.59677-1.0161-0.89516-1.7672-0.89517-0.75113 0.00001-1.3428 0.2984-1.7749 0.89517-0.42701 0.59165-0.64051 1.4096-0.64051 2.454s0.2135 1.8649 0.64051 2.4617c0.43215 0.59164 1.0238 0.88745 1.7749 0.88745 0.75111 0 1.3402-0.29581 1.7672-0.88745 0.43214-0.59678 0.64822-1.4174 0.64823-2.4617m-4.8308-3.0174c0.29839-0.51445 0.67395-0.89516 1.1267-1.1421 0.45787-0.25208 1.0032-0.37813 1.636-0.37813 1.0495 0 1.901 0.41672 2.5543 1.2502 0.6585 0.83344 0.98776 1.9292 0.98777 3.2874-0.00001 1.3582-0.32927 2.454-0.98777 3.2874-0.65338 0.83343-1.5048 1.2502-2.5543 1.2502-0.6328 0-1.1781-0.12347-1.636-0.37042-0.45273-0.25208-0.82829-0.63536-1.1267-1.1498v1.2965h-1.4276v-12.008h1.4276v4.6765"/>
   <path id="path3067" style="" d="m497.89 218.44c-0.69968 0.00001-1.2553 0.23924-1.6669 0.71768-0.40643 0.47846-0.60964 1.1344-0.60964 1.9678 0 0.82829 0.20321 1.4842 0.60964 1.9678 0.41157 0.47845 0.96719 0.71768 1.6669 0.71768 0.69967 0 1.2527-0.23923 1.6592-0.71768 0.41156-0.4836 0.61735-1.1395 0.61735-1.9678 0-0.83343-0.20579-1.4894-0.61735-1.9678-0.40644-0.47844-0.95949-0.71767-1.6592-0.71768m3.0945-4.8848v1.4199c-0.39101-0.18519-0.78714-0.32667-1.1884-0.42443-0.39615-0.0977-0.78971-0.14661-1.1807-0.14662-1.0289 0.00001-1.8161 0.34727-2.3614 1.0418-0.54019 0.69454-0.84887 1.744-0.92604 3.1485 0.30353-0.44758 0.68424-0.7897 1.1421-1.0264 0.45787-0.24179 0.96204-0.36269 1.5125-0.3627 1.1575 0.00001 2.0707 0.35242 2.7395 1.0572 0.67394 0.69968 1.0109 1.654 1.0109 2.863 0 1.1833-0.34984 2.1325-1.0495 2.8476-0.69968 0.71511-1.6309 1.0727-2.7936 1.0727-1.3325 0-2.3511-0.50932-3.0559-1.528-0.70482-1.0238-1.0572-2.5054-1.0572-4.445-0.00001-1.8212 0.43215-3.272 1.2964-4.3524 0.8643-1.0855 2.0244-1.6283 3.4804-1.6283 0.39099 0.00001 0.78456 0.0386 1.1807 0.11575 0.40128 0.0772 0.818 0.19294 1.2502 0.34727"/>
   <path id="path3069" style="" d="m504.01 212.83h1.2347c0.77169 1.2142 1.3479 2.4026 1.7286 3.5652 0.38585 1.1627 0.57877 2.3177 0.57878 3.4649-0.00001 1.1524-0.19293 2.3125-0.57878 3.4804-0.3807 1.1678-0.95691 2.3563-1.7286 3.5652h-1.2347c0.68424-1.1781 1.1936-2.3485 1.528-3.5112 0.33955-1.1678 0.50932-2.346 0.50933-3.5344-0.00001-1.1884-0.16978-2.3614-0.50933-3.519-0.3344-1.1575-0.84372-2.328-1.528-3.5112"/>
  </g>
 </g>
 <g id="g20" transform="translate(-2 -7.139)">
  <path id="rect22" fill="#fff" d="m320 240h220v100h-220z"/>
  <path id="rect24" d="m320 240h220v100h-220z" stroke="#000" stroke-width="2" fill="none"/>
  <g id="text26">
   <path id="path3074" style="" d="m397.36 276.63v1.3273c-0.40129-0.22121-0.80515-0.38584-1.2116-0.49389-0.40129-0.11317-0.80772-0.16976-1.2193-0.16977-0.9209 0.00001-1.636 0.29325-2.1453 0.87974-0.50932 0.58135-0.76398 1.3994-0.76398 2.454 0 1.0547 0.25466 1.8752 0.76398 2.4617 0.50932 0.58135 1.2244 0.87202 2.1453 0.87202 0.41156 0 0.81799-0.054 1.2193-0.16205 0.40642-0.11319 0.81028-0.28039 1.2116-0.50161v1.3119c-0.39615 0.18521-0.80772 0.32411-1.2347 0.41672-0.42187 0.0926-0.87203 0.1389-1.3505 0.1389-1.3016 0-2.3357-0.409-3.1022-1.227-0.76656-0.818-1.1498-1.9215-1.1498-3.3106 0-1.4096 0.38585-2.5183 1.1576-3.326 0.77684-0.80771 1.8392-1.2116 3.1871-1.2116 0.43729 0.00001 0.8643 0.0463 1.281 0.13891 0.41671 0.0875 0.82057 0.22122 1.2116 0.40128"/>
   <path id="path3076" style="" d="m407.03 279.73v5.2167h-1.4199v-5.1704c0-0.818-0.15949-1.4302-0.47845-1.8366-0.31898-0.40642-0.79743-0.60963-1.4354-0.60964-0.76656 0.00001-1.3711 0.24438-1.8135 0.73311-0.44245 0.48875-0.66367 1.155-0.66366 1.9987v4.8849h-1.4276v-12.008h1.4276v4.7074c0.33954-0.51961 0.73825-0.90803 1.1961-1.1653 0.46301-0.25722 0.99549-0.38584 1.5974-0.38585 0.99291 0.00001 1.744 0.30869 2.2534 0.92604 0.50931 0.61222 0.76397 1.5151 0.76398 2.7087"/>
   <path id="path3078" style="" d="m413.81 280.6c-1.1473 0.00001-1.9421 0.1312-2.3846 0.39357-0.44244 0.26238-0.66366 0.70997-0.66366 1.3428 0 0.50418 0.16463 0.90546 0.49389 1.2038 0.3344 0.29324 0.78713 0.43987 1.3582 0.43987 0.78713 0 1.4174-0.27781 1.8907-0.83344 0.47845-0.56076 0.71767-1.3042 0.71768-2.2302v-0.3164h-1.4122m2.8321-0.58649v4.9312h-1.4199v-1.3119c-0.32412 0.52476-0.72798 0.91318-1.2116 1.1653-0.4836 0.24694-1.0752 0.37041-1.7749 0.37041-0.88488 0-1.5897-0.24694-2.1144-0.74083-0.51961-0.49903-0.77942-1.1653-0.77942-1.9987 0-0.97234 0.32411-1.7054 0.97234-2.1993 0.65337-0.49388 1.6257-0.74083 2.917-0.74083h1.991v-0.13891c-0.00001-0.65337-0.21608-1.1575-0.64823-1.5125-0.42701-0.36012-1.0289-0.54018-1.8058-0.54019-0.49389 0.00001-0.97492 0.0592-1.4431 0.17749-0.46817 0.11834-0.91832 0.29583-1.3505 0.53247v-1.3119c0.5196-0.20064 1.0238-0.34983 1.5125-0.44759 0.48874-0.10288 0.96462-0.15433 1.4276-0.15434 1.2502 0.00001 2.1839 0.32412 2.8013 0.97234 0.61735 0.64824 0.92603 1.6309 0.92604 2.9479"/>
   <path id="path3080" style="" d="m424.58 277.63c-0.15949-0.0926-0.33441-0.15948-0.52475-0.20064-0.18522-0.0463-0.391-0.0695-0.61736-0.0695-0.80258 0-1.4199 0.26238-1.8521 0.78713-0.42701 0.51962-0.64052 1.2682-0.64051 2.2456v4.553h-1.4276v-8.643h1.4276v1.3428c0.29838-0.52475 0.68681-0.91317 1.1653-1.1653 0.47845-0.25722 1.0598-0.38584 1.744-0.38585 0.0977 0.00001 0.20578 0.008 0.32412 0.0232 0.11832 0.0103 0.24951 0.0283 0.39356 0.054l0.008 1.4585"/>
   <path id="path3082" style="" d="m436.63 276.56v1.3428c-0.40129-0.20578-0.81801-0.36012-1.2502-0.46302-0.43215-0.10289-0.87974-0.15434-1.3428-0.15434-0.70482 0-1.2347 0.10804-1.5897 0.32411-0.34984 0.21608-0.52476 0.5402-0.52476 0.97234 0 0.32927 0.12604 0.58907 0.37813 0.77942 0.25209 0.18521 0.75884 0.3627 1.5202 0.53247l0.48617 0.10804c1.0084 0.21608 1.7235 0.52219 2.1453 0.91832 0.427 0.391 0.6405 0.9389 0.64051 1.6437-0.00001 0.80257-0.31898 1.4379-0.95691 1.9061-0.6328 0.46816-1.5048 0.70224-2.6161 0.70224-0.46302 0-0.94662-0.0463-1.4508-0.1389-0.49904-0.0875-1.0264-0.22122-1.582-0.40129v-1.4662c0.52476 0.27267 1.0418 0.47846 1.5511 0.61736 0.50932 0.13377 1.0135 0.20065 1.5125 0.20065 0.6688 0 1.1833-0.11319 1.5434-0.33955 0.36012-0.23151 0.54018-0.55562 0.54019-0.97234-0.00001-0.38585-0.1312-0.68167-0.39357-0.88746-0.25724-0.20578-0.82572-0.40385-1.7055-0.59421l-0.49388-0.11575c-0.87974-0.1852-1.5151-0.46816-1.9061-0.84887-0.391-0.38584-0.58649-0.91317-0.58649-1.582 0-0.81285 0.2881-1.4405 0.8643-1.883 0.5762-0.44243 1.3942-0.66365 2.454-0.66366 0.52476 0.00001 1.0186 0.0386 1.4817 0.11575 0.46301 0.0772 0.89002 0.19294 1.281 0.34727"/>
   <path id="path3084" style="" d="m439.23 272.94h3.272v1.1035h-1.8521v11.884h1.8521v1.1035h-3.272v-14.091"/>
   <path id="path3086" style="" d="m445.75 273.42h6.1196v1.3119h-4.6919v2.8244c0.22637-0.0772 0.45273-0.13376 0.6791-0.16978 0.22636-0.0411 0.45273-0.0617 0.6791-0.0617 1.2862 0.00001 2.3048 0.35242 3.0559 1.0572 0.75112 0.70482 1.1267 1.6592 1.1267 2.863-0.00001 1.2399-0.38586 2.2045-1.1576 2.8939-0.77171 0.68424-1.8598 1.0264-3.2643 1.0264-0.4836 0-0.97749-0.0412-1.4817-0.12347-0.49904-0.0823-1.0161-0.20579-1.5511-0.37041v-1.5666c0.46302 0.25209 0.94147 0.43987 1.4354 0.56334 0.49389 0.12347 1.0161 0.18521 1.5666 0.1852 0.89002 0.00001 1.5948-0.23408 2.1145-0.70224 0.5196-0.46816 0.77941-1.1035 0.77941-1.9061 0-0.80256-0.25981-1.4379-0.77941-1.9061-0.51962-0.46815-1.2244-0.70224-2.1145-0.70224-0.41672 0-0.83344 0.0463-1.2502 0.1389-0.41158 0.0926-0.83344 0.23666-1.2656 0.43215v-5.7877"/>
   <path id="path3088" style="" d="m459.13 274.45c-0.80257 0.00001-1.4071 0.39615-1.8135 1.1884-0.40129 0.78714-0.60193 1.973-0.60193 3.5575 0 1.5794 0.20064 2.7653 0.60193 3.5575 0.40642 0.78714 1.0109 1.1807 1.8135 1.1807 0.80771 0.00001 1.4122-0.39356 1.8135-1.1807 0.40642-0.79227 0.60963-1.9781 0.60964-3.5575-0.00001-1.5846-0.20322-2.7704-0.60964-3.5575-0.40129-0.79227-1.0058-1.1884-1.8135-1.1884m0-1.2347c1.2913 0.00001 2.2765 0.51191 2.9556 1.5357 0.68423 1.0187 1.0264 2.5003 1.0264 4.445-0.00001 1.9395-0.34213 3.4212-1.0264 4.445-0.6791 1.0186-1.6643 1.528-2.9556 1.528s-2.2791-0.50932-2.9633-1.528c-0.6791-1.0238-1.0186-2.5054-1.0186-4.445 0-1.9447 0.33955-3.4263 1.0186-4.445 0.68423-1.0238 1.672-1.5357 2.9633-1.5357"/>
   <path id="path3090" style="" d="m468.98 272.94v14.091h-3.272v-1.1035h1.8444v-11.884h-1.8444v-1.1035h3.272"/>
   <path id="path3092" style="" d="m367.69 293.18v4.2829h-1.3119v-4.2829h1.3119m2.917 0v4.2829h-1.3119v-4.2829h1.3119"/>
   <path id="path3094" style="" d="m372.61 296.06h1.5048l2.701 7.254 2.701-7.254h1.5048l-3.2411 8.643h-1.9292l-3.2411-8.643"/>
   <path id="path3096" style="" d="m390.37 300.02v0.69453h-6.5286c0.0617 0.97749 0.35498 1.7235 0.87974 2.2379 0.52989 0.50932 1.2656 0.76399 2.2071 0.76398 0.54532 0.00001 1.0726-0.0669 1.582-0.20064 0.51446-0.13376 1.0238-0.3344 1.528-0.60192v1.3428c-0.50933 0.21608-1.0315 0.38071-1.5666 0.49389-0.53505 0.11318-1.0778 0.16977-1.6283 0.16977-1.3788 0-2.472-0.40128-3.2797-1.2038-0.80257-0.80256-1.2038-1.8881-1.2038-3.2566 0-1.4148 0.3807-2.5363 1.1421-3.3646 0.76655-0.83342 1.7981-1.2501 3.0945-1.2502 1.1627 0.00001 2.081 0.37557 2.755 1.1267 0.67909 0.74599 1.0186 1.7621 1.0186 3.0482m-1.4199-0.41671c-0.0103-0.77684-0.22895-1.3968-0.65595-1.8598-0.42186-0.46301-0.98263-0.69452-1.6823-0.69453-0.79228 0.00001-1.4276 0.2238-1.9061 0.67138-0.47331 0.44759-0.74598 1.0778-0.818 1.8907l5.0624-0.008"/>
   <path id="path3098" style="" d="m397.71 297.38c-0.15949-0.0926-0.33441-0.15947-0.52475-0.20064-0.18522-0.0463-0.391-0.0694-0.61736-0.0694-0.80257 0.00001-1.4199 0.26238-1.8521 0.78713-0.42701 0.51962-0.64051 1.2682-0.64051 2.2456v4.553h-1.4276v-8.643h1.4276v1.3428c0.29839-0.52475 0.68681-0.91317 1.1653-1.1653 0.47845-0.25722 1.0598-0.38584 1.744-0.38585 0.0977 0.00001 0.20578 0.008 0.32411 0.0232 0.11832 0.0103 0.24951 0.0283 0.39357 0.054l0.008 1.4585"/>
   <path id="path3100" style="" d="m406.27 300.02v0.69453h-6.5286c0.0617 0.97749 0.35498 1.7235 0.87974 2.2379 0.5299 0.50932 1.2656 0.76399 2.2071 0.76398 0.54533 0.00001 1.0726-0.0669 1.582-0.20064 0.51446-0.13376 1.0238-0.3344 1.528-0.60192v1.3428c-0.50933 0.21608-1.0315 0.38071-1.5666 0.49389-0.53505 0.11318-1.0778 0.16977-1.6283 0.16977-1.3788 0-2.472-0.40128-3.2797-1.2038-0.80257-0.80256-1.2038-1.8881-1.2038-3.2566 0-1.4148 0.3807-2.5363 1.1421-3.3646 0.76656-0.83342 1.7981-1.2501 3.0945-1.2502 1.1627 0.00001 2.081 0.37557 2.755 1.1267 0.67908 0.74599 1.0186 1.7621 1.0186 3.0482m-1.4199-0.41671c-0.0103-0.77684-0.22894-1.3968-0.65594-1.8598-0.42187-0.46301-0.98264-0.69452-1.6823-0.69453-0.79228 0.00001-1.4276 0.2238-1.9061 0.67138-0.47332 0.44759-0.74598 1.0778-0.81801 1.8907l5.0624-0.008"/>
   <path id="path3102" style="" d="m415.33 297.72c0.35497-0.63793 0.77941-1.1087 1.2733-1.4122 0.49388-0.30352 1.0752-0.45529 1.744-0.4553 0.90031 0.00001 1.5948 0.31641 2.0836 0.94919 0.48873 0.62766 0.7331 1.5228 0.73311 2.6855v5.2167h-1.4276v-5.1704c-0.00001-0.82829-0.14663-1.4431-0.43987-1.8444-0.29326-0.40128-0.74084-0.60192-1.3428-0.60193-0.7357 0.00001-1.317 0.24438-1.744 0.73311-0.42702 0.48875-0.64052 1.155-0.64052 1.9987v4.8848h-1.4276v-5.1704c-0.00001-0.83343-0.14663-1.4482-0.43987-1.8444-0.29325-0.40128-0.74598-0.60192-1.3582-0.60193-0.7254 0.00001-1.3016 0.24695-1.7286 0.74083-0.42701 0.48875-0.64052 1.1524-0.64051 1.991v4.8848h-1.4276v-8.643h1.4276v1.3428c0.32411-0.52989 0.71253-0.92089 1.1653-1.173 0.45273-0.25208 0.99034-0.37812 1.6128-0.37813 0.62765 0.00001 1.1601 0.1595 1.5974 0.47846 0.44243 0.31897 0.76912 0.78199 0.98006 1.389"/>
   <path id="path3104" style="" d="m430.21 300.39c-0.00001-1.0444-0.21608-1.8624-0.64823-2.454-0.42701-0.59677-1.0161-0.89516-1.7672-0.89517-0.75112 0.00001-1.3428 0.2984-1.7749 0.89517-0.42701 0.59164-0.64051 1.4096-0.64051 2.454s0.2135 1.865 0.64051 2.4617c0.43215 0.59164 1.0238 0.88746 1.7749 0.88746 0.75112 0 1.3402-0.29582 1.7672-0.88746 0.43215-0.59677 0.64822-1.4174 0.64823-2.4617m-4.8308-3.0173c0.29839-0.51446 0.67395-0.89516 1.1267-1.1421 0.45787-0.25208 1.0032-0.37812 1.636-0.37813 1.0495 0.00001 1.9009 0.41673 2.5543 1.2502 0.65851 0.83345 0.98777 1.9293 0.98778 3.2874-0.00001 1.3582-0.32927 2.454-0.98778 3.2874-0.65338 0.83344-1.5048 1.2502-2.5543 1.2502-0.6328 0-1.1781-0.12347-1.636-0.37041-0.45273-0.25209-0.82829-0.63537-1.1267-1.1498v1.2964h-1.4276v-12.008h1.4276v4.6765"/>
   <path id="path3106" style="" d="m441.43 300.02v0.69453h-6.5286c0.0617 0.97749 0.35498 1.7235 0.87974 2.2379 0.52989 0.50932 1.2656 0.76399 2.2071 0.76398 0.54533 0.00001 1.0726-0.0669 1.582-0.20064 0.51446-0.13376 1.0238-0.3344 1.528-0.60192v1.3428c-0.50933 0.21608-1.0315 0.38071-1.5666 0.49389-0.53505 0.11318-1.0778 0.16977-1.6283 0.16977-1.3788 0-2.472-0.40128-3.2797-1.2038-0.80257-0.80256-1.2038-1.8881-1.2038-3.2566 0-1.4148 0.3807-2.5363 1.1421-3.3646 0.76656-0.83342 1.7981-1.2501 3.0945-1.2502 1.1627 0.00001 2.081 0.37557 2.755 1.1267 0.67909 0.74599 1.0186 1.7621 1.0186 3.0482m-1.4199-0.41671c-0.0103-0.77684-0.22894-1.3968-0.65594-1.8598-0.42187-0.46301-0.98264-0.69452-1.6823-0.69453-0.79228 0.00001-1.4276 0.2238-1.9061 0.67138-0.47331 0.44759-0.74597 1.0778-0.818 1.8907l5.0624-0.008"/>
   <path id="path3108" style="" d="m443.58 293.18 4.0128 12.988h-1.3119l-4.0128-12.988h1.3119"/>
   <path id="path3110" style="" d="m452.63 294.2c-0.80257 0.00001-1.4071 0.39615-1.8135 1.1884-0.40129 0.78714-0.60193 1.973-0.60193 3.5575 0 1.5794 0.20064 2.7653 0.60193 3.5575 0.40642 0.78713 1.0109 1.1807 1.8135 1.1807 0.8077 0 1.4122-0.39357 1.8135-1.1807 0.40642-0.79228 0.60964-1.9781 0.60964-3.5575 0-1.5846-0.20322-2.7704-0.60964-3.5575-0.40129-0.79227-1.0058-1.1884-1.8135-1.1884m0-1.2347c1.2913 0.00002 2.2765 0.51191 2.9556 1.5357 0.68423 1.0186 1.0264 2.5003 1.0264 4.445-0.00001 1.9395-0.34213 3.4212-1.0264 4.445-0.67911 1.0186-1.6643 1.528-2.9556 1.528s-2.2791-0.50932-2.9633-1.528c-0.67909-1.0238-1.0186-2.5054-1.0186-4.445 0-1.9447 0.33955-3.4263 1.0186-4.445 0.68424-1.0238 1.672-1.5357 2.9633-1.5357"/>
   <path id="path3112" style="" d="m459.36 302.74h1.6283v1.9601h-1.6283v-1.9601"/>
   <path id="path3114" style="" d="m464.39 302.74h1.6283v1.9601h-1.6283v-1.9601"/>
   <path id="path3116" style="" d="m469.43 302.74h1.6283v1.9601h-1.6283v-1.9601"/>
   <path id="path3118" style="" d="m474.46 302.74h1.6283v1.9601h-1.6283v-1.9601"/>
   <path id="path3120" style="" d="m479.49 302.74h1.6283v1.9601h-1.6283v-1.9601"/>
   <path id="path3122" style="" d="m484.52 302.74h1.6283v1.9601h-1.6283v-1.9601"/>
   <path id="path3124" style="" d="m490.69 293.18v4.2829h-1.3119v-4.2829h1.3119m2.917 0v4.2829h-1.3119v-4.2829h1.3119"/>
  </g>
 </g>
 <g id="g32" transform="translate(-2 -7.139)">
  <path id="rect34" fill="#fff" d="m320-40.756h220v61.511h-220z"/>
  <path id="rect36" d="m320-40.756h220v61.511h-220z" stroke="#000" stroke-width="2" fill="none"/>
  <g id="text38">
   <path id="path3129" style="" d="m411.55-23.367v1.3273c-0.40129-0.22121-0.80515-0.38584-1.2116-0.49389-0.40129-0.11318-0.80771-0.16977-1.2193-0.16977-0.9209 0.000008-1.636 0.29325-2.1453 0.87974-0.50932 0.58135-0.76398 1.3994-0.76398 2.454 0 1.0547 0.25466 1.8752 0.76398 2.4617 0.50932 0.58135 1.2244 0.87202 2.1453 0.87202 0.41157 0.000001 0.81799-0.05402 1.2193-0.16206 0.40642-0.11318 0.81028-0.28038 1.2116-0.5016v1.3119c-0.39615 0.18521-0.80772 0.32411-1.2347 0.41672-0.42187 0.0926-0.87202 0.1389-1.3505 0.13891-1.3016-0.000001-2.3357-0.409-3.1022-1.227-0.76656-0.818-1.1498-1.9215-1.1498-3.3106 0-1.4096 0.38584-2.5183 1.1575-3.326 0.77685-0.8077 1.8392-1.2116 3.1871-1.2116 0.43729 0.000008 0.8643 0.04631 1.281 0.1389 0.41671 0.08747 0.82057 0.22123 1.2116 0.40128"/>
   <path id="path3131" style="" d="m421.22-20.272v5.2167h-1.4199v-5.1704c-0.00001-0.818-0.1595-1.4302-0.47846-1.8366-0.31897-0.40642-0.79743-0.60964-1.4354-0.60964-0.76656 0.000008-1.371 0.24438-1.8135 0.73312-0.44245 0.48875-0.66367 1.155-0.66366 1.9987v4.8849h-1.4276v-12.008h1.4276v4.7074c0.33954-0.5196 0.73825-0.90802 1.1961-1.1653 0.46302-0.25722 0.99549-0.38584 1.5974-0.38585 0.99291 0.000008 1.744 0.30869 2.2534 0.92604 0.50931 0.61222 0.76397 1.5151 0.76398 2.7087"/>
   <path id="path3133" style="" d="m427.99-19.4c-1.1473 0.000004-1.9421 0.13119-2.3846 0.39357-0.44244 0.26238-0.66366 0.70997-0.66366 1.3428 0 0.50418 0.16463 0.90546 0.49389 1.2039 0.3344 0.29325 0.78713 0.43987 1.3582 0.43987 0.78713 0.000001 1.4174-0.27781 1.8907-0.83344 0.47845-0.56077 0.71768-1.3042 0.71768-2.2302v-0.3164h-1.4122m2.8321-0.58649v4.9312h-1.4199v-1.3119c-0.32412 0.52476-0.72797 0.91318-1.2116 1.1653-0.4836 0.24694-1.0752 0.37042-1.7749 0.37042-0.88489-0.000001-1.5897-0.24694-2.1145-0.74083-0.51961-0.49903-0.77942-1.1653-0.77942-1.9987 0-0.97234 0.32412-1.7055 0.97235-2.1993 0.65336-0.49388 1.6257-0.74082 2.917-0.74083h1.991v-0.13891c0-0.65336-0.21608-1.1575-0.64822-1.5125-0.42702-0.36012-1.0289-0.54018-1.8058-0.54019-0.49389 0.000008-0.97492 0.05917-1.4431 0.17749-0.46817 0.11834-0.91832 0.29582-1.3505 0.53247v-1.3119c0.51961-0.20063 1.0238-0.34983 1.5125-0.44759 0.48874-0.10288 0.96462-0.15433 1.4276-0.15434 1.2502 0.000008 2.1839 0.32412 2.8013 0.97234 0.61735 0.64823 0.92603 1.6309 0.92604 2.9479"/>
   <path id="path3135" style="" d="m438.77-22.371c-0.15949-0.0926-0.33441-0.15948-0.52475-0.20064-0.18522-0.04629-0.391-0.06945-0.61736-0.06945-0.80257 0.000008-1.4199 0.26238-1.8521 0.78713-0.42701 0.51962-0.64051 1.2682-0.64051 2.2456v4.553h-1.4276v-8.643h1.4276v1.3428c0.29839-0.52475 0.68681-0.91317 1.1653-1.1653 0.47844-0.25722 1.0598-0.38584 1.744-0.38585 0.0977 0.000008 0.20578 0.0077 0.32411 0.02315 0.11832 0.0103 0.24951 0.0283 0.39357 0.05402l0.008 1.4585"/>
   <path id="path3137" style="" d="m445.17-27.063h3.272v1.1035h-1.8521v11.884h1.8521v1.1035h-3.272v-14.091"/>
   <path id="path3139" style="" d="m454.79-27.063v14.091h-3.272v-1.1035h1.8444v-11.884h-1.8444v-1.1035h3.272"/>
   <path id="path3141" style="" d="m393.75-6.8215v4.2829h-1.3119v-4.2829h1.3119m2.917 0v4.2829h-1.3119v-4.2829h1.3119"/>
   <path id="path3143" style="" d="m405.38 0.27811c0-1.0289-0.21351-1.8263-0.64051-2.3923-0.42186-0.56591-1.0161-0.84886-1.7826-0.84887-0.76142 0.0000076-1.3556 0.28296-1.7826 0.84887-0.42186 0.56592-0.63279 1.3633-0.63279 2.3923 0 1.0238 0.21093 1.8186 0.63279 2.3846 0.42701 0.56591 1.0212 0.84887 1.7826 0.84887 0.76655 0.0000012 1.3608-0.28295 1.7826-0.84887 0.427-0.56591 0.64051-1.3608 0.64051-2.3846m1.4199 3.3492c-0.00001 1.4714-0.32669 2.5646-0.98006 3.2797-0.65338 0.72025-1.654 1.0804-3.0019 1.0804-0.49903-0.0000033-0.96977-0.038588-1.4122-0.11575-0.44244-0.072028-0.87202-0.18521-1.2887-0.33955v-1.3813c0.41671 0.22636 0.82828 0.39356 1.2347 0.5016 0.40643 0.10804 0.82057 0.16205 1.2424 0.16206 0.93118-0.0000021 1.6283-0.24437 2.0913-0.73311 0.46301-0.4836 0.69452-1.2167 0.69452-2.1993v-0.70225c-0.29325 0.50932-0.66881 0.89003-1.1267 1.1421-0.45788 0.25209-1.0058 0.37813-1.6437 0.37813-1.0598 0-1.9138-0.40386-2.562-1.2116-0.64823-0.80771-0.97234-1.8778-0.97234-3.2103 0-1.3376 0.32411-2.4103 0.97234-3.218s1.5022-1.2116 2.562-1.2116c0.63794 0.0000089 1.1858 0.12605 1.6437 0.37813 0.45787 0.2521 0.83343 0.6328 1.1267 1.1421v-1.3119h1.4199v7.5704"/>
   <path id="path3145" style="" d="m409.73-7.3077h1.4199v12.008h-1.4199v-12.008"/>
   <path id="path3147" style="" d="m417.46-2.9476c-0.76142 0.0000077-1.3633 0.2984-1.8058 0.89517-0.44244 0.59164-0.66366 1.4045-0.66366 2.4386s0.21865 1.8495 0.65595 2.4463c0.44243 0.59164 1.0469 0.88746 1.8135 0.88745 0.75626 0.000001 1.3556-0.29839 1.7981-0.89517 0.44243-0.59678 0.66365-1.4096 0.66366-2.4386-0.00001-1.0238-0.22123-1.8341-0.66366-2.4309-0.44245-0.60192-1.0418-0.90288-1.7981-0.90289m0-1.2039c1.2347 0.0000089 2.2045 0.40129 2.9093 1.2039 0.70481 0.80257 1.0572 1.9138 1.0572 3.3337-0.00001 1.4148-0.35242 2.526-1.0572 3.3337-0.70482 0.80257-1.6746 1.2039-2.9093 1.2039-1.2399-2e-7 -2.2122-0.40128-2.917-1.2039-0.69968-0.80771-1.0495-1.919-1.0495-3.3337 0-1.4199 0.34984-2.5312 1.0495-3.3337 0.70481-0.80256 1.6772-1.2038 2.917-1.2039"/>
   <path id="path3149" style="" d="m429.98 0.38615c-0.00001-1.0444-0.21608-1.8624-0.64823-2.454-0.42701-0.59677-1.0161-0.89516-1.7672-0.89517-0.75112 0.0000076-1.3428 0.2984-1.7749 0.89517-0.42701 0.59164-0.64051 1.4096-0.64051 2.454s0.2135 1.8649 0.64051 2.4617c0.43215 0.59164 1.0238 0.88746 1.7749 0.88745 0.75112 9e-7 1.3402-0.29582 1.7672-0.88745 0.43215-0.59678 0.64822-1.4174 0.64823-2.4617m-4.8308-3.0173c0.29839-0.51446 0.67395-0.89516 1.1267-1.1421 0.45787-0.25208 1.0032-0.37812 1.636-0.37813 1.0495 0.0000089 1.9009 0.41673 2.5543 1.2502 0.65851 0.83344 0.98777 1.9293 0.98778 3.2874-0.00001 1.3582-0.32927 2.454-0.98778 3.2874-0.65338 0.83344-1.5048 1.2502-2.5543 1.2502-0.6328-2e-7 -1.1781-0.12347-1.636-0.37042-0.45273-0.25209-0.82829-0.63536-1.1267-1.1498v1.2965h-1.4276v-12.008h1.4276v4.6765"/>
   <path id="path3151" style="" d="m437.73 0.35528c-1.1473 0.00000435-1.9421 0.13119-2.3846 0.39357-0.44245 0.26238-0.66367 0.70997-0.66367 1.3428 0 0.50418 0.16463 0.90546 0.49389 1.2039 0.3344 0.29325 0.78713 0.43987 1.3582 0.43987 0.78713 9e-7 1.4174-0.27781 1.8907-0.83344 0.47844-0.56077 0.71767-1.3042 0.71768-2.2302v-0.3164h-1.4122m2.8321-0.58649v4.9312h-1.4199v-1.3119c-0.32412 0.52476-0.72798 0.91318-1.2116 1.1653-0.4836 0.24694-1.0752 0.37042-1.7749 0.37042-0.88488-2e-7 -1.5897-0.24694-2.1145-0.74083-0.51961-0.49903-0.77941-1.1653-0.77941-1.9987 0-0.97234 0.32411-1.7055 0.97234-2.1993 0.65337-0.49388 1.6257-0.74083 2.917-0.74083h1.991v-0.13891c-0.00001-0.65337-0.21609-1.1575-0.64823-1.5125-0.42701-0.36012-1.0289-0.54018-1.8058-0.54019-0.49389 0.0000077-0.97491 0.059171-1.4431 0.17749-0.46817 0.11833-0.91833 0.29583-1.3505 0.53247v-1.3119c0.51961-0.20063 1.0238-0.34983 1.5125-0.44759 0.48874-0.10288 0.96462-0.15433 1.4276-0.15434 1.2501 0.0000089 2.1839 0.32412 2.8013 0.97234 0.61736 0.64823 0.92603 1.6309 0.92604 2.9479"/>
   <path id="path3153" style="" d="m443.5-7.3077h1.4199v12.008h-1.4199v-12.008"/>
   <path id="path3155" style="" d="m447.7-6.8215 4.0128 12.988h-1.3119l-4.0128-12.988h1.3119"/>
   <path id="path3157" style="" d="m456.75-5.7952c-0.80257 0.0000105-1.4071 0.39615-1.8135 1.1884-0.40129 0.78714-0.60193 1.973-0.60193 3.5575 0 1.5794 0.20064 2.7653 0.60193 3.5575 0.40642 0.78713 1.0109 1.1807 1.8135 1.1807 0.80771 0.000001 1.4122-0.39357 1.8135-1.1807 0.40643-0.79227 0.60964-1.9781 0.60965-3.5575-0.00001-1.5845-0.20322-2.7704-0.60965-3.5575-0.40129-0.79227-1.0058-1.1884-1.8135-1.1884m0-1.2347c1.2913 0.0000117 2.2765 0.5119 2.9556 1.5357 0.68423 1.0187 1.0264 2.5003 1.0264 4.445-0.00001 1.9395-0.34213 3.4212-1.0264 4.445-0.6791 1.0186-1.6643 1.528-2.9556 1.528-1.2913-2e-7 -2.2791-0.50932-2.9633-1.528-0.6791-1.0238-1.0186-2.5054-1.0186-4.445 0-1.9447 0.33955-3.4263 1.0186-4.445 0.68423-1.0238 1.672-1.5357 2.9633-1.5357"/>
   <path id="path3159" style="" d="m464.63-6.8215v4.2829h-1.3119v-4.2829h1.3119m2.917 0v4.2829h-1.3119v-4.2829h1.3119"/>
  </g>
 </g>
 <g id="g44" transform="translate(-2 -7.139)">
  <path id="rect46" fill="#e0e0e0" d="m320 159.12h220v41.756h-220z"/>
  <path id="rect48" d="m320 159.12h220v41.756h-220z" stroke="#000" stroke-width="2" fill="none"/>
  <g id="text50">
   <path id="path3164" style="" d="m402.4 176.51v1.3273c-0.40129-0.22122-0.80515-0.38584-1.2116-0.49389-0.40129-0.11317-0.80772-0.16977-1.2193-0.16977-0.9209 0-1.636 0.29325-2.1453 0.87973-0.50932 0.58136-0.76398 1.3994-0.76398 2.454 0 1.0547 0.25466 1.8752 0.76398 2.4617 0.50932 0.58135 1.2244 0.87202 2.1453 0.87202 0.41156 0 0.81799-0.054 1.2193-0.16206 0.40642-0.11318 0.81028-0.28038 1.2116-0.5016v1.3119c-0.39615 0.1852-0.80772 0.32411-1.2347 0.41671-0.42187 0.0926-0.87203 0.13891-1.3505 0.13891-1.3016 0-2.3357-0.409-3.1022-1.227-0.76655-0.818-1.1498-1.9215-1.1498-3.3106 0-1.4096 0.38585-2.5183 1.1576-3.326 0.77684-0.8077 1.8392-1.2116 3.1871-1.2116 0.43729 0 0.8643 0.0463 1.281 0.1389 0.41671 0.0875 0.82057 0.22123 1.2116 0.40129"/>
   <path id="path3166" style="" d="m412.07 179.61v5.2167h-1.4199v-5.1704c0-0.81799-0.15949-1.4302-0.47845-1.8366-0.31898-0.40642-0.79743-0.60964-1.4354-0.60965-0.76656 0.00001-1.3711 0.24438-1.8135 0.73312-0.44245 0.48875-0.66367 1.155-0.66367 1.9987v4.8849h-1.4276v-12.008h1.4276v4.7074c0.33955-0.5196 0.73826-0.90802 1.1961-1.1653 0.46301-0.25723 0.99548-0.38585 1.5974-0.38585 0.99291 0 1.744 0.30868 2.2534 0.92604 0.50931 0.61222 0.76397 1.5151 0.76398 2.7087"/>
   <path id="path3168" style="" d="m418.84 180.48c-1.1473 0-1.9421 0.13119-2.3846 0.39357-0.44244 0.26238-0.66366 0.70996-0.66366 1.3428 0 0.50418 0.16462 0.90546 0.49389 1.2038 0.3344 0.29325 0.78712 0.43987 1.3582 0.43987 0.78712 0 1.4173-0.27781 1.8907-0.83343 0.47845-0.56077 0.71767-1.3042 0.71768-2.2302v-0.3164h-1.4122m2.8321-0.58649v4.9312h-1.4199v-1.3119c-0.32412 0.52475-0.72798 0.91318-1.2116 1.1653-0.4836 0.24695-1.0752 0.37042-1.7749 0.37042-0.88488 0-1.5897-0.24694-2.1144-0.74083-0.51961-0.49903-0.77942-1.1653-0.77942-1.9987 0-0.97234 0.32411-1.7054 0.97234-2.1994 0.65337-0.49388 1.6257-0.74082 2.917-0.74083h1.991v-0.1389c-0.00001-0.65337-0.21608-1.1576-0.64823-1.5125-0.42701-0.36012-1.0289-0.54019-1.8058-0.54019-0.4939 0-0.97492 0.0592-1.4431 0.17749-0.46817 0.11833-0.91833 0.29582-1.3505 0.53247v-1.3119c0.51961-0.20063 1.0238-0.34983 1.5125-0.44758 0.48873-0.10289 0.96462-0.15434 1.4276-0.15434 1.2502 0 2.1839 0.32412 2.8013 0.97234 0.61735 0.64823 0.92603 1.6309 0.92604 2.9479"/>
   <path id="path3170" style="" d="m429.61 177.51c-0.15949-0.0926-0.33441-0.15948-0.52476-0.20064-0.18521-0.0463-0.391-0.0694-0.61736-0.0695-0.80257 0.00001-1.4199 0.26239-1.8521 0.78714-0.42701 0.51961-0.64052 1.2682-0.64051 2.2456v4.553h-1.4276v-8.643h1.4276v1.3428c0.29838-0.52475 0.68681-0.91317 1.1653-1.1653 0.47845-0.25723 1.0598-0.38585 1.744-0.38585 0.0977 0 0.20578 0.008 0.32412 0.0232 0.11832 0.0103 0.24951 0.0283 0.39356 0.054l0.008 1.4585"/>
   <path id="path3172" style="" d="m442.09 175.2-2.7704 1.4971 2.7704 1.5048-0.44759 0.75626-2.5929-1.5666v2.9093h-0.87973v-2.9093l-2.5929 1.5666-0.44759-0.75626 2.7704-1.5048-2.7704-1.4971 0.44759-0.76399 2.5929 1.5666v-2.9093h0.87973v2.9093l2.5929-1.5666 0.44759 0.76399"/>
   <path id="path3174" style="" d="m445.43 183.53v4.5839h-1.4276v-11.93h1.4276v1.3119c0.29838-0.51445 0.67394-0.89516 1.1267-1.1421 0.45787-0.25208 1.0032-0.37813 1.636-0.37813 1.0495 0 1.901 0.41672 2.5543 1.2502 0.6585 0.83344 0.98776 1.9292 0.98777 3.2874-0.00001 1.3582-0.32927 2.454-0.98777 3.2874-0.65338 0.83343-1.5048 1.2502-2.5543 1.2502-0.6328 0-1.1781-0.12347-1.636-0.37042-0.45274-0.25208-0.8283-0.63536-1.1267-1.1498m4.8308-3.0173c0-1.0444-0.21608-1.8624-0.64822-2.454-0.42702-0.59677-1.0161-0.89516-1.7672-0.89517-0.75113 0.00001-1.3428 0.2984-1.7749 0.89517-0.42701 0.59165-0.64052 1.4096-0.64051 2.454-0.00001 1.0444 0.2135 1.8649 0.64051 2.4617 0.43215 0.59164 1.0238 0.88745 1.7749 0.88745 0.75111 0 1.3402-0.29581 1.7672-0.88745 0.43214-0.59678 0.64822-1.4174 0.64822-2.4617"/>
   <path id="path3176" style="" d="m455.49 173.72v2.454h2.9247v1.1035h-2.9247v4.6919c0 0.70482 0.0952 1.1576 0.28553 1.3582 0.1955 0.20064 0.58906 0.30096 1.1807 0.30096h1.4585v1.1884h-1.4585c-1.0958 0-1.8521-0.20322-2.2688-0.60965-0.41672-0.41157-0.62508-1.1575-0.62508-2.2379v-4.6919h-1.0418v-1.1035h1.0418v-2.454h1.4276"/>
   <path id="path3178" style="" d="m465.3 177.51c-0.15949-0.0926-0.33441-0.15948-0.52476-0.20064-0.18521-0.0463-0.39099-0.0694-0.61735-0.0695-0.80258 0.00001-1.4199 0.26239-1.8521 0.78714-0.42701 0.51961-0.64052 1.2682-0.64051 2.2456v4.553h-1.4276v-8.643h1.4276v1.3428c0.29838-0.52475 0.68681-0.91317 1.1653-1.1653 0.47845-0.25723 1.0598-0.38585 1.744-0.38585 0.0978 0 0.20578 0.008 0.32412 0.0232 0.11832 0.0103 0.24951 0.0283 0.39356 0.054l0.008 1.4585"/>
  </g>
 </g>
 <g id="g54" transform="translate(-2 -7.139)">
  <path id="path56" d="m540 180c19.92 0 40-170 8.708-185.65" stroke="#000" stroke-width="2" fill="none"/>
  <path id="polygon58" d="m548.71-5.6459v5.5902l-6.71-8.9443h11.18z"/>
  <path id="polygon60" d="m548.71-5.6459v5.5902l-6.71-8.9443h11.18z" stroke="#000" stroke-width="2" fill="none"/>
 </g>
 <g id="g62" transform="translate(-2 -7.139)">
  <path id="line64" d="m280 360v-270.26" stroke="#000" stroke-width="2" fill="none"/>
  <path id="polygon66" d="m280 89.736-5 2.5 5-10 5 10z"/>
  <path id="polygon68" d="m280 89.736-5 2.5 5-10 5 10z" stroke="#000" stroke-width="2" fill="none"/>
 </g>
 <g id="g70" transform="translate(-2 -7.139)">
  <path id="line72" d="m300 80v270.26" stroke="#000" stroke-width="2" fill="none"/>
  <path id="polygon74" d="m300 350.26 5-2.5-5 10-5-10z"/>
  <path id="polygon76" d="m300 350.26 5-2.5-5 10-5-10z" stroke="#000" stroke-width="2" fill="none"/>
 </g>
 <g id="g78" transform="translate(-2 -7.139)">
  <path id="rect80" fill="#fff" d="m320 339.12h220v41.756h-220z"/>
  <path id="rect82" d="m320 339.12h220v41.756h-220z" stroke="#000" stroke-width="2" fill="none"/>
  <g id="text84">
   <path id="path3191" style="" d="m397.13 356.18h1.4199v8.643h-1.4199v-8.643m0-3.3646h1.4199v1.7981h-1.4199v-1.7981"/>
   <path id="path3193" style="" d="m408.7 359.61v5.2167h-1.4199v-5.1704c0-0.818-0.15949-1.4302-0.47845-1.8366-0.31897-0.40642-0.79743-0.60963-1.4354-0.60964-0.76656 0.00001-1.3711 0.24438-1.8135 0.73311-0.44245 0.48875-0.66367 1.155-0.66366 1.9987v4.8849h-1.4276v-8.643h1.4276v1.3428c0.33954-0.51961 0.73825-0.90803 1.1961-1.1653 0.46301-0.25722 0.99549-0.38584 1.5974-0.38585 0.99291 0.00001 1.744 0.30869 2.2534 0.92604 0.50931 0.61222 0.76397 1.5151 0.76398 2.7087"/>
   <path id="path3195" style="" d="m412.95 353.72v2.454h2.9247v1.1035h-2.9247v4.6919c0 0.70482 0.0952 1.1576 0.28553 1.3582 0.1955 0.20064 0.58906 0.30097 1.1807 0.30096h1.4585v1.1884h-1.4585c-1.0958 0-1.8521-0.20321-2.2688-0.60964-0.41672-0.41157-0.62508-1.1576-0.62508-2.2379v-4.6919h-1.0418v-1.1035h1.0418v-2.454h1.4276"/>
   <path id="path3197" style="" d="m426.71 360.48c-1.1473 0.00001-1.9421 0.1312-2.3846 0.39357-0.44244 0.26238-0.66366 0.70997-0.66366 1.3428 0 0.50418 0.16463 0.90546 0.49389 1.2038 0.3344 0.29325 0.78713 0.43987 1.3582 0.43987 0.78713 0 1.4174-0.27781 1.8907-0.83344 0.47845-0.56076 0.71767-1.3042 0.71768-2.2302v-0.3164h-1.4122m2.8321-0.58649v4.9312h-1.4199v-1.3119c-0.32412 0.52476-0.72797 0.91318-1.2116 1.1653-0.4836 0.24694-1.0752 0.37041-1.7749 0.37041-0.88489 0-1.5897-0.24694-2.1145-0.74083-0.51961-0.49903-0.77942-1.1653-0.77942-1.9987 0-0.97234 0.32412-1.7054 0.97234-2.1993 0.65337-0.49388 1.6257-0.74083 2.917-0.74083h1.991v-0.13891c-0.00001-0.65336-0.21608-1.1575-0.64823-1.5125-0.42701-0.36012-1.0289-0.54018-1.8058-0.54019-0.49389 0.00001-0.97492 0.0592-1.4431 0.17749-0.46817 0.11834-0.91832 0.29583-1.3505 0.53247v-1.3119c0.51961-0.20064 1.0238-0.34983 1.5125-0.44759 0.48874-0.10288 0.96462-0.15433 1.4276-0.15434 1.2502 0.00001 2.1839 0.32412 2.8013 0.97234 0.61735 0.64824 0.92603 1.6309 0.92604 2.9479"/>
   <path id="path3199" style="" d="m437.69 357.65h9.8932v1.2964h-9.8932v-1.2964m0 3.1485h9.8932v1.3119h-9.8932v-1.3119"/>
   <path id="path3201" style="" d="m456 353.3h6.1196v1.3119h-4.6919v2.8244c0.22636-0.0772 0.45273-0.13375 0.6791-0.16977 0.22636-0.0412 0.45272-0.0617 0.67909-0.0617 1.2862 0.00001 2.3048 0.35242 3.0559 1.0572 0.75111 0.70482 1.1267 1.6592 1.1267 2.863-0.00001 1.2399-0.38586 2.2045-1.1576 2.8939-0.7717 0.68424-1.8598 1.0264-3.2643 1.0264-0.48361 0-0.97749-0.0411-1.4817-0.12347-0.49903-0.0823-1.0161-0.20578-1.5511-0.37041v-1.5666c0.46302 0.25209 0.94147 0.43987 1.4354 0.56334 0.49388 0.12347 1.0161 0.18521 1.5666 0.18521 0.89002 0 1.5948-0.23409 2.1144-0.70225 0.51961-0.46816 0.77941-1.1035 0.77942-1.9061-0.00001-0.80256-0.25981-1.4379-0.77942-1.9061-0.51961-0.46815-1.2244-0.70224-2.1144-0.70224-0.41672 0-0.83344 0.0463-1.2502 0.1389-0.41158 0.0926-0.83344 0.23666-1.2656 0.43216v-5.7878"/>
  </g>
 </g>
 <g id="text88">
  <path id="path3204" style="" d="m327.41-53.288v-3.0945h-2.5466v-1.281h4.09v4.9466c-0.60193 0.42701-1.2656 0.75112-1.991 0.97234-0.72541 0.21608-1.4997 0.32411-2.3228 0.32411-1.8006-0.000001-3.2103-0.52476-4.2289-1.5743-1.0135-1.0547-1.5202-2.5209-1.5202-4.3987 0-1.8829 0.50675-3.3492 1.5202-4.3987 1.0186-1.0546 2.4283-1.582 4.2289-1.582 0.75112 0.000012 1.4636 0.09262 2.1376 0.27781 0.67909 0.18522 1.3042 0.45789 1.8752 0.818v1.6592c-0.57621-0.48873-1.1884-0.85658-1.8366-1.1035-0.64824-0.24693-1.3299-0.3704-2.045-0.37042-1.4096 0.000011-2.4694 0.39358-3.1794 1.1807-0.70482 0.78714-1.0572 1.9601-1.0572 3.5189 0 1.5537 0.35241 2.7241 1.0572 3.5112 0.70996 0.78714 1.7698 1.1807 3.1794 1.1807 0.55047 0.000001 1.0418-0.0463 1.474-0.13891 0.43214-0.09775 0.82056-0.24694 1.1653-0.44758"/>
  <path id="path3206" style="" d="m331.74-63.652h1.4199v12.008h-1.4199v-12.008"/>
  <path id="path3208" style="" d="m339.48-59.292c-0.76141 0.000008-1.3633 0.2984-1.8058 0.89517-0.44244 0.59164-0.66366 1.4045-0.66366 2.4386s0.21865 1.8495 0.65595 2.4463c0.44243 0.59164 1.0469 0.88746 1.8135 0.88745 0.75626 0.000001 1.3556-0.29839 1.7981-0.89517 0.44243-0.59678 0.66365-1.4096 0.66366-2.4386-0.00001-1.0238-0.22123-1.8341-0.66366-2.4309-0.44245-0.60192-1.0418-0.90288-1.7981-0.90289m0-1.2038c1.2347 0.000009 2.2045 0.40129 2.9093 1.2038 0.70481 0.80258 1.0572 1.9138 1.0572 3.3337 0 1.4148-0.35241 2.526-1.0572 3.3337-0.70483 0.80257-1.6746 1.2038-2.9093 1.2039-1.2399-0.000001-2.2122-0.40128-2.917-1.2039-0.69968-0.80771-1.0495-1.919-1.0495-3.3337 0-1.4199 0.34983-2.5312 1.0495-3.3337 0.70481-0.80256 1.6772-1.2038 2.917-1.2038"/>
  <path id="path3210" style="" d="m351.99-55.958c-0.00001-1.0444-0.21608-1.8624-0.64822-2.454-0.42702-0.59677-1.0161-0.89516-1.7672-0.89517-0.75112 0.000008-1.3428 0.2984-1.7749 0.89517-0.42701 0.59164-0.64052 1.4096-0.64051 2.454-0.00001 1.0444 0.2135 1.8649 0.64051 2.4617 0.43214 0.59164 1.0238 0.88746 1.7749 0.88745 0.75112 0.000001 1.3402-0.29582 1.7672-0.88745 0.43214-0.59678 0.64821-1.4174 0.64822-2.4617m-4.8308-3.0173c0.29838-0.51446 0.67394-0.89516 1.1267-1.1421 0.45787-0.25208 1.0032-0.37812 1.636-0.37813 1.0495 0.000009 1.9009 0.41673 2.5543 1.2502 0.65851 0.83344 0.98777 1.9293 0.98778 3.2874-0.00001 1.3582-0.32927 2.454-0.98778 3.2874-0.65338 0.83344-1.5048 1.2502-2.5543 1.2502-0.6328-0.000001-1.1781-0.12347-1.636-0.37042-0.45274-0.25209-0.8283-0.63536-1.1267-1.1498v1.2965h-1.4276v-12.008h1.4276v4.6765"/>
  <path id="path3212" style="" d="m359.75-55.989c-1.1473 0.000005-1.9421 0.13119-2.3846 0.39357-0.44245 0.26238-0.66367 0.70997-0.66366 1.3428-0.00001 0.50418 0.16462 0.90546 0.49388 1.2038 0.3344 0.29325 0.78713 0.43987 1.3582 0.43987 0.78712 0.000001 1.4173-0.27781 1.8907-0.83344 0.47845-0.56077 0.71767-1.3042 0.71768-2.2302v-0.3164h-1.4122m2.8321-0.58649v4.9312h-1.4199v-1.3119c-0.32412 0.52476-0.72798 0.91318-1.2116 1.1653-0.4836 0.24694-1.0752 0.37042-1.7749 0.37042-0.88488-0.000001-1.5897-0.24694-2.1144-0.74083-0.51962-0.49903-0.77942-1.1653-0.77942-1.9987 0-0.97234 0.32411-1.7055 0.97234-2.1993 0.65337-0.49388 1.6257-0.74083 2.917-0.74083h1.991v-0.13891c-0.00001-0.65336-0.21608-1.1575-0.64823-1.5125-0.42701-0.36012-1.0289-0.54018-1.8058-0.54019-0.49389 0.000008-0.97491 0.05917-1.4431 0.17749-0.46817 0.11834-0.91833 0.29583-1.3505 0.53247v-1.3119c0.51961-0.20063 1.0238-0.34983 1.5125-0.44759 0.48874-0.10288 0.96462-0.15433 1.4276-0.15434 1.2501 0.000009 2.1839 0.32412 2.8013 0.97234 0.61735 0.64823 0.92603 1.6309 0.92604 2.9479m-2.5929-7.7093h1.5357l-2.5157 2.9016h-1.1807l2.1608-2.9016"/>
  <path id="path3214" style="" d="m365.51-63.652h1.4199v12.008h-1.4199v-12.008"/>
  <path id="path3216" style="" d="m369.9-60.288h1.4199v8.643h-1.4199v-8.643m0-3.3646h1.4199v1.7981h-1.4199v-1.7981"/>
  <path id="path3218" style="" d="m379.79-60.033v1.3428c-0.40129-0.20578-0.81801-0.36012-1.2502-0.46302-0.43215-0.10288-0.87974-0.15433-1.3428-0.15434-0.70482 0.000008-1.2347 0.10805-1.5897 0.32411-0.34984 0.21608-0.52476 0.5402-0.52476 0.97234 0 0.32926 0.12604 0.58907 0.37813 0.77942 0.25209 0.18521 0.75884 0.3627 1.5202 0.53247l0.48617 0.10804c1.0084 0.21608 1.7235 0.52219 2.1453 0.91832 0.427 0.391 0.6405 0.9389 0.64051 1.6437-0.00001 0.80257-0.31898 1.4379-0.95691 1.9061-0.6328 0.46816-1.5048 0.70225-2.6161 0.70225-0.46302-0.000001-0.94662-0.0463-1.4508-0.13891-0.49904-0.08746-1.0264-0.22122-1.582-0.40128v-1.4662c0.52476 0.27267 1.0418 0.47846 1.5511 0.61736 0.50932 0.13376 1.0135 0.20064 1.5125 0.20064 0.6688 0.000001 1.1833-0.11318 1.5434-0.33955 0.36012-0.23151 0.54018-0.55562 0.54019-0.97234-0.00001-0.38585-0.1312-0.68166-0.39357-0.88745-0.25724-0.20578-0.82572-0.40385-1.7055-0.59421l-0.49388-0.11576c-0.87974-0.1852-1.5151-0.46816-1.9061-0.84887-0.391-0.38584-0.58649-0.91317-0.58649-1.582 0-0.81285 0.2881-1.4405 0.8643-1.8829 0.5762-0.44243 1.3942-0.66365 2.454-0.66366 0.52476 0.000009 1.0186 0.03859 1.4817 0.11576 0.46301 0.07718 0.89002 0.19293 1.281 0.34726"/>
 </g>
 <g id="text92">
  <path id="path3221" style="" d="m322.52 49.111-4.3987-11.521h1.6283l3.6501 9.7003 3.6579-9.7003h1.6206l-4.391 11.521h-1.7672"/>
  <path id="path3223" style="" d="m336.45 44.434v0.69453h-6.5286c0.0617 0.97749 0.35498 1.7235 0.87974 2.2379 0.5299 0.50932 1.2656 0.76398 2.2071 0.76398 0.54533 0.000001 1.0727-0.06688 1.582-0.20064 0.51446-0.13376 1.0238-0.3344 1.528-0.60192v1.3428c-0.50933 0.21608-1.0315 0.3807-1.5666 0.49389-0.53505 0.11318-1.0778 0.16977-1.6283 0.16977-1.3788-0.000001-2.472-0.40128-3.2797-1.2039-0.80257-0.80257-1.2038-1.8881-1.2038-3.2566 0-1.4148 0.3807-2.5363 1.1421-3.3646 0.76655-0.83343 1.798-1.2501 3.0945-1.2502 1.1627 0.000008 2.081 0.37557 2.755 1.1267 0.67908 0.74598 1.0186 1.7621 1.0186 3.0482m-1.4199-0.41672c-0.0103-0.77684-0.22894-1.3968-0.65594-1.8598-0.42187-0.46301-0.98264-0.69452-1.6823-0.69453-0.79228 0.000008-1.4276 0.2238-1.9061 0.67138-0.47331 0.44759-0.74598 1.0778-0.818 1.8907l5.0623-0.0077"/>
  <path id="path3225" style="" d="m343.79 41.795c-0.15949-0.0926-0.33441-0.15948-0.52476-0.20064-0.18521-0.04629-0.391-0.06945-0.61736-0.06945-0.80257 0.000008-1.4199 0.26238-1.8521 0.78713-0.42701 0.51962-0.64052 1.2682-0.64052 2.2456v4.553h-1.4276v-8.643h1.4276v1.3428c0.29839-0.52475 0.68681-0.91317 1.1653-1.1653 0.47845-0.25722 1.0598-0.38584 1.744-0.38585 0.0977 0.000008 0.20578 0.0077 0.32411 0.02315 0.11833 0.0103 0.24951 0.0283 0.39357 0.05402l0.008 1.4585"/>
  <path id="path3227" style="" d="m352.35 44.434v0.69453h-6.5286c0.0617 0.97749 0.35498 1.7235 0.87974 2.2379 0.52989 0.50932 1.2656 0.76398 2.2071 0.76398 0.54532 0.000001 1.0726-0.06688 1.582-0.20064 0.51446-0.13376 1.0238-0.3344 1.528-0.60192v1.3428c-0.50933 0.21608-1.0315 0.3807-1.5666 0.49389-0.53505 0.11318-1.0778 0.16977-1.6283 0.16977-1.3788-0.000001-2.472-0.40128-3.2797-1.2039-0.80257-0.80257-1.2038-1.8881-1.2038-3.2566 0-1.4148 0.3807-2.5363 1.1421-3.3646 0.76655-0.83343 1.7981-1.2501 3.0945-1.2502 1.1627 0.000008 2.081 0.37557 2.755 1.1267 0.67909 0.74598 1.0186 1.7621 1.0186 3.0482m-1.4199-0.41672c-0.0103-0.77684-0.22895-1.3968-0.65595-1.8598-0.42187-0.46301-0.98263-0.69452-1.6823-0.69453-0.79228 0.000008-1.4276 0.2238-1.9061 0.67138-0.47331 0.44759-0.74598 1.0778-0.818 1.8907l5.0624-0.0077"/>
  <path id="path3229" style="" d="m361.41 42.127c0.35498-0.63793 0.77941-1.1087 1.2733-1.4122 0.49388-0.30353 1.0752-0.45529 1.744-0.4553 0.9003 0.000008 1.5948 0.3164 2.0836 0.94919 0.48873 0.62766 0.7331 1.5228 0.73311 2.6855v5.2167h-1.4276v-5.1704c-0.00002-0.82828-0.14664-1.4431-0.43987-1.8444-0.29326-0.40128-0.74084-0.60192-1.3428-0.60193-0.73569 0.000008-1.317 0.24438-1.744 0.73312-0.42701 0.48875-0.64052 1.155-0.64051 1.9987v4.8849h-1.4276v-5.1704c-0.00001-0.83343-0.14663-1.4482-0.43987-1.8444-0.29325-0.40128-0.74598-0.60192-1.3582-0.60193-0.7254 0.000008-1.3016 0.24695-1.7286 0.74083-0.42701 0.48875-0.64051 1.1524-0.64051 1.991v4.8849h-1.4276v-8.643h1.4276v1.3428c0.32411-0.52989 0.71253-0.92089 1.1653-1.173 0.45272-0.25208 0.99034-0.37812 1.6128-0.37813 0.62764 0.000008 1.1601 0.15949 1.5974 0.47845 0.44243 0.31898 0.76912 0.782 0.98005 1.3891"/>
 </g>
 <g id="g100" transform="translate(-2 -7.139)">
  <path id="rect102" fill="#e0e0e0" d="m320 99.244h220v61.511h-220z"/>
  <path id="rect104" d="m320 99.244h220v61.511h-220z" stroke="#000" stroke-width="2" fill="none"/>
  <g id="text106">
   <path id="path3235" style="" d="m390.9 116.63v1.3273c-0.40129-0.22121-0.80515-0.38584-1.2116-0.49389-0.40129-0.11317-0.80772-0.16976-1.2193-0.16977-0.9209 0.00001-1.636 0.29325-2.1453 0.87974-0.50932 0.58135-0.76398 1.3994-0.76398 2.454 0 1.0547 0.25466 1.8752 0.76398 2.4617 0.50932 0.58135 1.2244 0.87202 2.1453 0.87202 0.41156 0 0.81799-0.054 1.2193-0.16205 0.40642-0.11319 0.81028-0.28039 1.2116-0.50161v1.3119c-0.39615 0.18521-0.80772 0.32411-1.2347 0.41672-0.42187 0.0926-0.87203 0.1389-1.3505 0.1389-1.3016 0-2.3357-0.409-3.1022-1.227-0.76656-0.818-1.1498-1.9215-1.1498-3.3106 0-1.4096 0.38585-2.5183 1.1576-3.326 0.77684-0.80771 1.8392-1.2116 3.1871-1.2116 0.43729 0.00001 0.8643 0.0463 1.281 0.13891 0.41671 0.0875 0.82057 0.22122 1.2116 0.40128"/>
   <path id="path3237" style="" d="m400.57 119.73v5.2167h-1.4199v-5.1704c0-0.818-0.15949-1.4302-0.47845-1.8366-0.31897-0.40642-0.79743-0.60963-1.4354-0.60964-0.76656 0.00001-1.3711 0.24438-1.8135 0.73311-0.44245 0.48875-0.66367 1.155-0.66366 1.9987v4.8849h-1.4276v-12.008h1.4276v4.7074c0.33954-0.51961 0.73825-0.90803 1.1961-1.1653 0.46301-0.25722 0.99549-0.38584 1.5974-0.38585 0.99291 0.00001 1.744 0.30869 2.2534 0.92604 0.50931 0.61222 0.76397 1.5151 0.76398 2.7087"/>
   <path id="path3239" style="" d="m407.34 120.6c-1.1473 0.00001-1.9421 0.1312-2.3846 0.39357-0.44244 0.26238-0.66366 0.70997-0.66366 1.3428 0 0.50418 0.16463 0.90546 0.49389 1.2038 0.3344 0.29324 0.78713 0.43987 1.3582 0.43987 0.78713 0 1.4174-0.27781 1.8907-0.83344 0.47845-0.56076 0.71767-1.3042 0.71768-2.2302v-0.3164h-1.4122m2.8321-0.58649v4.9312h-1.4199v-1.3119c-0.32412 0.52476-0.72797 0.91318-1.2116 1.1653-0.4836 0.24694-1.0752 0.37041-1.7749 0.37041-0.88488 0-1.5897-0.24694-2.1144-0.74083-0.51961-0.49903-0.77942-1.1653-0.77942-1.9987 0-0.97234 0.32411-1.7054 0.97234-2.1993 0.65337-0.49388 1.6257-0.74083 2.917-0.74083h1.991v-0.13891c-0.00001-0.65337-0.21608-1.1575-0.64823-1.5125-0.42701-0.36012-1.0289-0.54018-1.8058-0.54019-0.49389 0.00001-0.97492 0.0592-1.4431 0.17749-0.46817 0.11834-0.91832 0.29583-1.3505 0.53247v-1.3119c0.5196-0.20064 1.0238-0.34983 1.5125-0.44759 0.48874-0.10288 0.96462-0.15433 1.4276-0.15434 1.2502 0.00001 2.1839 0.32412 2.8013 0.97234 0.61735 0.64824 0.92603 1.6309 0.92604 2.9479"/>
   <path id="path3241" style="" d="m418.12 117.63c-0.15949-0.0926-0.33441-0.15948-0.52475-0.20064-0.18522-0.0463-0.391-0.0695-0.61736-0.0695-0.80258 0-1.4199 0.26238-1.8521 0.78713-0.42701 0.51962-0.64052 1.2682-0.64051 2.2456v4.553h-1.4276v-8.643h1.4276v1.3428c0.29838-0.52475 0.68681-0.91317 1.1653-1.1653 0.47845-0.25722 1.0598-0.38584 1.744-0.38585 0.0978 0.00001 0.20578 0.008 0.32412 0.0232 0.11832 0.0103 0.24951 0.0283 0.39356 0.054l0.008 1.4585"/>
   <path id="path3243" style="" d="m426.06 113.85v2.454h2.9247v1.1035h-2.9247v4.6919c0 0.70482 0.0952 1.1576 0.28553 1.3582 0.19549 0.20064 0.58906 0.30096 1.1807 0.30096h1.4585v1.1884h-1.4585c-1.0958 0-1.8521-0.20321-2.2688-0.60964-0.41672-0.41157-0.62508-1.1576-0.62508-2.2379v-4.6919h-1.0418v-1.1035h1.0418v-2.454h1.4276"/>
   <path id="path3245" style="" d="m434.21 117.3c-0.76141 0.00001-1.3633 0.2984-1.8058 0.89517-0.44244 0.59164-0.66366 1.4045-0.66366 2.4386s0.21865 1.8495 0.65595 2.4463c0.44243 0.59164 1.0469 0.88745 1.8135 0.88745 0.75626 0 1.3556-0.29839 1.7981-0.89517 0.44243-0.59678 0.66365-1.4096 0.66366-2.4386-0.00001-1.0238-0.22123-1.8341-0.66366-2.4308-0.44245-0.60192-1.0418-0.90288-1.7981-0.90289m0-1.2038c1.2347 0.00001 2.2045 0.40129 2.9093 1.2038 0.70481 0.80257 1.0572 1.9138 1.0572 3.3337 0 1.4148-0.35241 2.526-1.0572 3.3337-0.70483 0.80257-1.6746 1.2038-2.9093 1.2038-1.2399 0-2.2122-0.40128-2.917-1.2038-0.69968-0.80771-1.0495-1.919-1.0495-3.3337 0-1.4199 0.34983-2.5312 1.0495-3.3337 0.70481-0.80256 1.6772-1.2038 2.917-1.2038"/>
   <path id="path3247" style="" d="m447.25 117.96c0.35497-0.63793 0.7794-1.1087 1.2733-1.4122 0.49388-0.30352 1.0752-0.45529 1.744-0.4553 0.90031 0.00001 1.5948 0.31641 2.0836 0.94919 0.48873 0.62766 0.7331 1.5228 0.73311 2.6855v5.2167h-1.4276v-5.1704c-0.00001-0.82829-0.14664-1.4431-0.43987-1.8444-0.29326-0.40127-0.74084-0.60191-1.3428-0.60192-0.73569 0.00001-1.317 0.24438-1.744 0.73311-0.42701 0.48875-0.64051 1.155-0.64051 1.9987v4.8849h-1.4276v-5.1704c-0.00001-0.83343-0.14663-1.4482-0.43987-1.8444-0.29325-0.40127-0.74598-0.60191-1.3582-0.60192-0.7254 0.00001-1.3016 0.24695-1.7286 0.74083-0.42701 0.48875-0.64052 1.1524-0.64052 1.991v4.8849h-1.4276v-8.643h1.4276v1.3428c0.32412-0.5299 0.71254-0.92089 1.1653-1.173 0.45273-0.25208 0.99034-0.37812 1.6128-0.37813 0.62764 0.00001 1.1601 0.15949 1.5974 0.47845 0.44243 0.31898 0.76912 0.782 0.98006 1.3891"/>
   <path id="path3249" style="" d="m462.13 120.63c-0.00001-1.0444-0.21609-1.8624-0.64823-2.454-0.42701-0.59678-1.0161-0.89517-1.7672-0.89517-0.75113 0-1.3428 0.29839-1.7749 0.89517-0.42701 0.59164-0.64051 1.4096-0.64051 2.454s0.2135 1.8649 0.64051 2.4617c0.43215 0.59164 1.0238 0.88746 1.7749 0.88746 0.75111 0 1.3402-0.29582 1.7672-0.88746 0.43214-0.59678 0.64822-1.4174 0.64823-2.4617m-4.8308-3.0173c0.29839-0.51446 0.67395-0.89517 1.1267-1.1421 0.45787-0.25208 1.0032-0.37812 1.636-0.37813 1.0495 0.00001 1.901 0.41673 2.5543 1.2502 0.6585 0.83344 0.98776 1.9293 0.98777 3.2874-0.00001 1.3582-0.32927 2.454-0.98777 3.2874-0.65338 0.83344-1.5048 1.2502-2.5543 1.2502-0.6328 0-1.1781-0.12347-1.636-0.37041-0.45273-0.25209-0.82829-0.63537-1.1267-1.1498v1.2964h-1.4276v-12.008h1.4276v4.6765"/>
   <path id="path3251" style="" d="m465.82 112.94h3.272v1.1035h-1.8521v11.884h1.8521v1.1035h-3.272v-14.091"/>
   <path id="path3253" style="" d="m475.45 112.94v14.091h-3.272v-1.1035h1.8444v-11.884h-1.8444v-1.1035h3.272"/>
   <path id="path3255" style="" d="m400.61 133.18v4.2829h-1.3119v-4.2829h1.3119m2.917 0v4.2829h-1.3119v-4.2829h1.3119"/>
   <path id="path3257" style="" d="m412.24 137.37v-4.6765h1.4199v12.008h-1.4199v-1.2965c-0.29839 0.51447-0.67653 0.89775-1.1344 1.1498-0.45274 0.24695-0.99807 0.37042-1.636 0.37042-1.0444 0-1.8958-0.41672-2.5543-1.2502-0.65337-0.83344-0.98006-1.9292-0.98006-3.2874s0.32669-2.454 0.98006-3.2874c0.65851-0.83343 1.51-1.2501 2.5543-1.2502 0.63794 0.00001 1.1833 0.12605 1.636 0.37813 0.45786 0.24695 0.836 0.62766 1.1344 1.1421m-4.8386 3.0174c0 1.0444 0.2135 1.8649 0.64051 2.4617 0.43215 0.59164 1.0238 0.88745 1.7749 0.88745 0.75111 0 1.3428-0.29581 1.7749-0.88745 0.43214-0.59678 0.64822-1.4174 0.64822-2.4617 0-1.0444-0.21608-1.8624-0.64822-2.454-0.43216-0.59677-1.0238-0.89516-1.7749-0.89517-0.75113 0.00001-1.3428 0.2984-1.7749 0.89517-0.42701 0.59165-0.64051 1.4096-0.64051 2.454"/>
   <path id="path3259" style="" d="m416.58 136.06h1.4199v8.643h-1.4199v-8.643m0-3.3646h1.4199v1.7981h-1.4199v-1.7981"/>
   <path id="path3261" style="" d="m428.15 139.48v5.2167h-1.4199v-5.1704c-0.00001-0.81799-0.1595-1.4302-0.47846-1.8366-0.31897-0.40642-0.79743-0.60964-1.4354-0.60964-0.76656 0-1.371 0.24437-1.8135 0.73311-0.44244 0.48875-0.66367 1.155-0.66366 1.9987v4.8849h-1.4276v-8.643h1.4276v1.3428c0.33954-0.5196 0.73825-0.90802 1.1961-1.1653 0.46302-0.25723 0.99549-0.38584 1.5974-0.38585 0.99291 0.00001 1.744 0.30868 2.2534 0.92604 0.50931 0.61222 0.76397 1.5151 0.76398 2.7087"/>
   <path id="path3263" style="" d="m436.68 140.28c-0.00001-1.0289-0.21351-1.8264-0.64051-2.3923-0.42187-0.5659-1.0161-0.84886-1.7826-0.84887-0.76141 0.00001-1.3556 0.28297-1.7826 0.84887-0.42186 0.56592-0.63279 1.3633-0.63279 2.3923 0 1.0238 0.21093 1.8186 0.63279 2.3846 0.42701 0.56592 1.0212 0.84887 1.7826 0.84887 0.76655 0 1.3608-0.28295 1.7826-0.84887 0.427-0.56591 0.6405-1.3608 0.64051-2.3846m1.4199 3.3492c-0.00001 1.4714-0.32669 2.5646-0.98006 3.2797-0.65337 0.72025-1.654 1.0804-3.0019 1.0804-0.49903-0.00001-0.96977-0.0386-1.4122-0.11576-0.44244-0.072-0.87202-0.18521-1.2887-0.33955v-1.3813c0.41671 0.22636 0.82828 0.39357 1.2347 0.50161 0.40642 0.10803 0.82057 0.16205 1.2424 0.16205 0.93118 0 1.6283-0.24437 2.0913-0.73311 0.46301-0.4836 0.69452-1.2167 0.69453-2.1993v-0.70225c-0.29326 0.50932-0.66882 0.89003-1.1267 1.1421-0.45788 0.25209-1.0058 0.37814-1.6437 0.37814-1.0598 0-1.9138-0.40386-2.562-1.2116-0.64822-0.80771-0.97234-1.8778-0.97234-3.2103 0-1.3376 0.32412-2.4103 0.97234-3.218 0.64823-0.8077 1.5022-1.2116 2.562-1.2116 0.63793 0.00001 1.1858 0.12605 1.6437 0.37813 0.45787 0.2521 0.83343 0.6328 1.1267 1.1421v-1.3119h1.4199v7.5704"/>
   <path id="path3265" style="" d="m440.85 133.18 4.0128 12.988h-1.3119l-4.0128-12.988h1.3119"/>
   <path id="path3267" style="" d="m449.9 134.2c-0.80257 0.00001-1.4071 0.39615-1.8135 1.1884-0.40129 0.78715-0.60193 1.973-0.60192 3.5575-0.00001 1.5794 0.20063 2.7653 0.60192 3.5575 0.40643 0.78714 1.0109 1.1807 1.8135 1.1807 0.80771 0 1.4122-0.39356 1.8135-1.1807 0.40642-0.79227 0.60963-1.9781 0.60964-3.5575-0.00001-1.5846-0.20322-2.7704-0.60964-3.5575-0.40129-0.79226-1.0058-1.1884-1.8135-1.1884m0-1.2347c1.2913 0.00001 2.2765 0.5119 2.9556 1.5357 0.68423 1.0186 1.0264 2.5003 1.0264 4.445-0.00001 1.9395-0.34213 3.4212-1.0264 4.445-0.6791 1.0186-1.6643 1.528-2.9556 1.528s-2.2791-0.50932-2.9633-1.528c-0.6791-1.0238-1.0186-2.5054-1.0186-4.445 0-1.9447 0.33954-3.4263 1.0186-4.445 0.68424-1.0238 1.672-1.5357 2.9633-1.5357"/>
   <path id="path3269" style="" d="m457.77 133.18v4.2829h-1.3119v-4.2829h1.3119m2.917 0v4.2829h-1.3119v-4.2829h1.3119"/>
  </g>
 </g>
</svg>
