<?xml version="1.0" encoding="UTF-8" standalone="no"?>
<svg
   xmlns:dc="http://purl.org/dc/elements/1.1/"
   xmlns:cc="http://creativecommons.org/ns#"
   xmlns:rdf="http://www.w3.org/1999/02/22-rdf-syntax-ns#"
   xmlns:svg="http://www.w3.org/2000/svg"
   xmlns="http://www.w3.org/2000/svg"
   xmlns:sodipodi="http://sodipodi.sourceforge.net/DTD/sodipodi-0.dtd"
   xmlns:inkscape="http://www.inkscape.org/namespaces/inkscape"
   version="1.1"
   id="svg2"
   viewBox="299 179 241.99999 135.79115"
   height="7.5967078cm"
   width="12.946502cm"
   inkscape:version="0.91 r13725"
   sodipodi:docname="iterator_fv.svg">
  <sodipodi:namedview
     pagecolor="#ffffff"
     bordercolor="#666666"
     borderopacity="1"
     objecttolerance="10"
     gridtolerance="10"
     guidetolerance="10"
     inkscape:pageopacity="0"
     inkscape:pageshadow="2"
     inkscape:window-width="650"
     inkscape:window-height="480"
     id="namedview21"
     showgrid="false"
     inkscape:zoom="0.83255556"
     inkscape:cx="230.31496"
     inkscape:cy="133.32714"
     inkscape:window-x="0"
     inkscape:window-y="25"
     inkscape:window-maximized="0"
     inkscape:current-layer="svg2" />
  <metadata
     id="metadata40">
    <rdf:RDF>
      <cc:Work
         rdf:about="">
        <dc:format>image/svg+xml</dc:format>
        <dc:type
           rdf:resource="http://purl.org/dc/dcmitype/StillImage" />
      </cc:Work>
    </rdf:RDF>
  </metadata>
  <defs
     id="defs38" />
  <g
     id="g4"
     transform="translate(0,-3.1044241)">
    <path
       style="fill:#ffffff"
       d="M 540,250 A 120,70 0 0 1 420,320 120,70 0 0 1 300,250 120,70 0 0 1 420,180 120,70 0 0 1 540,250 Z"
       id="ellipse6" />
    <path
       style="fill:none;fill-opacity:0;stroke:#000000;stroke-width:2"
       d="M 540,250 A 120,70 0 0 1 420,320 120,70 0 0 1 300,250 120,70 0 0 1 420,180 120,70 0 0 1 540,250 Z"
       id="ellipse8" />
    <g
       style="font-style:normal;font-weight:normal;font-size:12.80000019px;font-family:sans-serif;text-anchor:middle;fill:#000000"
       id="text10" />
  </g>
  <g
     id="g14"
     transform="translate(0,-3.1044241)">
    <path
       style="fill:#ffffff"
       d="m 520,250 a 60,40 0 0 1 -60,40 60,40 0 0 1 -60,-40 60,40 0 0 1 60,-40 60,40 0 0 1 60,40 z"
       id="ellipse16" />
    <path
       style="fill:none;fill-opacity:0;stroke:#000000;stroke-width:2"
       d="m 520,250 a 60,40 0 0 1 -60,40 60,40 0 0 1 -60,-40 60,40 0 0 1 60,-40 60,40 0 0 1 60,40 z"
       id="ellipse18" />
    <g
       style="font-style:normal;font-weight:normal;font-size:12.80000019px;font-family:sans-serif;text-anchor:middle;fill:#000000"
       id="text20" />
  </g>
  <g
     style="font-style:normal;font-weight:normal;font-size:15.80440044px;font-family:sans-serif;text-anchor:middle;fill:#000000"
     id="text24">
    <path
       d="m 340.06823,232.8445 -2.7704,1.4971 2.7704,1.50481 -0.44758,0.75627 -2.59291,-1.56655 0,2.9093 -0.87974,0 0,-2.9093 -2.59291,1.56655 -0.44759,-0.75627 2.7704,-1.50481 -2.7704,-1.4971 0.44759,-0.76398 2.59291,1.56655 0,-2.90931 0.87974,0 0,2.90931 2.59291,-1.56655 0.44758,0.76398 z"
       style=""
       id="path30" />
    <path
       d="m 342.02835,233.82456 1.41992,0 0,8.64303 -1.41992,0 0,-8.64303 z m 0,-3.36461 1.41992,0 0,1.79806 -1.41992,0 0,-1.79806 z"
       style=""
       id="path32" />
    <path
       d="m 347.81609,231.37056 0,2.454 2.92474,0 0,1.10353 -2.92474,0 0,4.69193 q 0,1.05723 0.28553,1.35819 0.29325,0.30096 1.1807,0.30096 l 1.45851,0 0,1.18842 -1.45851,0 q -1.64372,0 -2.2688,-0.60964 -0.62507,-0.61736 -0.62507,-2.23793 l 0,-4.69193 -1.0418,0 0,-1.10353 1.0418,0 0,-2.454 1.42764,0 z"
       style=""
       id="path34" />
    <path
       d="m 360.00894,237.79109 0,0.69453 -6.52858,0 q 0.0926,1.46623 0.87974,2.23793 0.79485,0.76398 2.20706,0.76398 0.818,0 1.58198,-0.20064 0.7717,-0.20064 1.52797,-0.60192 l 0,1.34275 q -0.76398,0.32412 -1.56655,0.49389 -0.80257,0.16977 -1.62829,0.16977 -2.06815,0 -3.27972,-1.20385 -1.20385,-1.20385 -1.20385,-3.25657 0,-2.12217 1.14212,-3.36461 1.14983,-1.25015 3.09451,-1.25015 1.74404,0 2.75497,1.12668 1.01864,1.11896 1.01864,3.04821 z m -1.41993,-0.41671 q -0.0154,-1.16527 -0.65594,-1.8598 -0.6328,-0.69453 -1.68231,-0.69453 -1.18841,0 -1.90609,0.67138 -0.70997,0.67138 -0.818,1.89066 l 5.06234,-0.008 z"
       style=""
       id="path36" />
    <path
       d="m 367.3478,235.15188 q -0.23923,-0.1389 -0.52476,-0.20064 -0.27781,-0.0695 -0.61735,-0.0695 -1.20386,0 -1.85208,0.78713 -0.64051,0.77942 -0.64051,2.24564 l 0,4.55303 -1.42765,0 0,-8.64303 1.42765,0 0,1.34276 q 0.44758,-0.78714 1.16526,-1.16527 0.71768,-0.38585 1.74404,-0.38585 0.14663,0 0.32412,0.0232 0.17749,0.0154 0.39356,0.054 l 0.008,1.45851 z"
       style=""
       id="path38" />
    <path
       d="m 330.61492,252.31495 0,4.29837 4.29836,0 0,1.31189 -4.29836,0 0,4.29836 -1.29646,0 0,-4.29836 -4.29836,0 0,-1.31189 4.29836,0 0,-4.29837 1.29646,0 z"
       style=""
       id="path40" />
    <path
       d="m 343.85727,252.31495 0,4.29837 4.29837,0 0,1.31189 -4.29837,0 0,4.29836 -1.29645,0 0,-4.29836 -4.29837,0 0,-1.31189 4.29837,0 0,-4.29837 1.29645,0 z"
       style=""
       id="path42" />
    <path
       d="m 351.31961,253.58054 1.41992,0 0,8.64303 -1.41992,0 0,-8.64303 z m 0,-3.36461 1.41992,0 0,1.79806 -1.41992,0 0,-1.79806 z"
       style=""
       id="path44" />
    <path
       d="m 357.10735,251.12654 0,2.454 2.92474,0 0,1.10353 -2.92474,0 0,4.69193 q 0,1.05723 0.28553,1.35819 0.29324,0.30096 1.1807,0.30096 l 1.45851,0 0,1.18842 -1.45851,0 q -1.64372,0 -2.2688,-0.60964 -0.62507,-0.61736 -0.62507,-2.23793 l 0,-4.69193 -1.0418,0 0,-1.10353 1.0418,0 0,-2.454 1.42764,0 z"
       style=""
       id="path46" />
    <path
       d="m 369.3002,257.54707 0,0.69453 -6.52858,0 q 0.0926,1.46623 0.87974,2.23793 0.79485,0.76398 2.20706,0.76398 0.818,0 1.58198,-0.20064 0.7717,-0.20064 1.52797,-0.60192 l 0,1.34275 q -0.76398,0.32412 -1.56655,0.49389 -0.80257,0.16977 -1.62829,0.16977 -2.06815,0 -3.27972,-1.20385 -1.20385,-1.20385 -1.20385,-3.25657 0,-2.12217 1.14212,-3.36461 1.14983,-1.25015 3.09451,-1.25015 1.74404,0 2.75497,1.12668 1.01864,1.11897 1.01864,3.04821 z m -1.41993,-0.41671 q -0.0154,-1.16527 -0.65594,-1.8598 -0.63279,-0.69453 -1.68231,-0.69453 -1.18841,0 -1.90609,0.67138 -0.70997,0.67138 -0.818,1.89066 l 5.06234,-0.008 z"
       style=""
       id="path48" />
    <path
       d="m 376.63906,254.90786 q -0.23923,-0.1389 -0.52476,-0.20064 -0.27781,-0.0695 -0.61736,-0.0695 -1.20385,0 -1.85208,0.78713 -0.64051,0.77942 -0.64051,2.24565 l 0,4.55302 -1.42764,0 0,-8.64303 1.42764,0 0,1.34276 q 0.44759,-0.78714 1.16527,-1.16527 0.71768,-0.38585 1.74404,-0.38585 0.14662,0 0.32411,0.0232 0.17749,0.0154 0.39357,0.054 l 0.008,1.45851 z"
       style=""
       id="path50" />
  </g>
  <g
     style="font-style:normal;font-weight:normal;font-size:15.80440044px;font-family:sans-serif;text-anchor:middle;fill:#000000"
     id="text30">
    <path
       d="m 426.11469,233.82456 1.41992,0 0,8.64303 -1.41992,0 0,-8.64303 z m 0,-3.36461 1.41992,0 0,1.79806 -1.41992,0 0,-1.79806 z"
       style=""
       id="path53" />
    <path
       d="m 431.90243,231.37056 0,2.454 2.92474,0 0,1.10353 -2.92474,0 0,4.69193 q 0,1.05723 0.28553,1.35819 0.29325,0.30096 1.1807,0.30096 l 1.45851,0 0,1.18842 -1.45851,0 q -1.64372,0 -2.2688,-0.60964 -0.62507,-0.61736 -0.62507,-2.23793 l 0,-4.69193 -1.0418,0 0,-1.10353 1.0418,0 0,-2.454 1.42764,0 z"
       style=""
       id="path55" />
    <path
       d="m 444.09528,237.79109 0,0.69453 -6.52858,0 q 0.0926,1.46623 0.87974,2.23793 0.79485,0.76398 2.20706,0.76398 0.818,0 1.58198,-0.20064 0.7717,-0.20064 1.52797,-0.60192 l 0,1.34275 q -0.76398,0.32412 -1.56655,0.49389 -0.80257,0.16977 -1.62829,0.16977 -2.06815,0 -3.27972,-1.20385 -1.20385,-1.20385 -1.20385,-3.25657 0,-2.12217 1.14212,-3.36461 1.14983,-1.25015 3.09451,-1.25015 1.74404,0 2.75497,1.12668 1.01864,1.11896 1.01864,3.04821 z m -1.41993,-0.41671 q -0.0154,-1.16527 -0.65594,-1.8598 -0.6328,-0.69453 -1.68231,-0.69453 -1.18841,0 -1.90609,0.67138 -0.70997,0.67138 -0.81801,1.89066 l 5.06235,-0.008 z"
       style=""
       id="path57" />
    <path
       d="m 451.43414,235.15188 q -0.23923,-0.1389 -0.52476,-0.20064 -0.27781,-0.0695 -0.61736,-0.0695 -1.20385,0 -1.85207,0.78713 -0.64051,0.77942 -0.64051,2.24564 l 0,4.55303 -1.42765,0 0,-8.64303 1.42765,0 0,1.34276 q 0.44758,-0.78714 1.16526,-1.16527 0.71768,-0.38585 1.74404,-0.38585 0.14662,0 0.32412,0.0232 0.17749,0.0154 0.39356,0.054 l 0.008,1.45851 z"
       style=""
       id="path59" />
    <path
       d="m 463.75046,232.55897 0,4.29837 4.29836,0 0,1.31189 -4.29836,0 0,4.29836 -1.29646,0 0,-4.29836 -4.29836,0 0,-1.31189 4.29836,0 0,-4.29837 1.29646,0 z"
       style=""
       id="path61" />
    <path
       d="m 476.24427,233.82456 1.41992,0 0,8.64303 -1.41992,0 0,-8.64303 z m 0,-3.36461 1.41992,0 0,1.79806 -1.41992,0 0,-1.79806 z"
       style=""
       id="path63" />
    <path
       d="m 487.81204,237.2509 0,5.21669 -1.41993,0 0,-5.17038 q 0,-1.22701 -0.47845,-1.83665 -0.47845,-0.60964 -1.43536,-0.60964 -1.14983,0 -1.8135,0.73311 -0.66366,0.73312 -0.66366,1.9987 l 0,4.88486 -1.42764,0 0,-8.64303 1.42764,0 0,1.34276 q 0.50933,-0.77942 1.19614,-1.16527 0.69453,-0.38585 1.59741,-0.38585 1.48938,0 2.25337,0.92604 0.76398,0.91832 0.76398,2.70866 z"
       style=""
       id="path65" />
    <path
       d="m 492.0641,231.37056 0,2.454 2.92474,0 0,1.10353 -2.92474,0 0,4.69193 q 0,1.05723 0.28553,1.35819 0.29325,0.30096 1.1807,0.30096 l 1.45851,0 0,1.18842 -1.45851,0 q -1.64372,0 -2.2688,-0.60964 -0.62507,-0.61736 -0.62507,-2.23793 l 0,-4.69193 -1.0418,0 0,-1.10353 1.0418,0 0,-2.454 1.42764,0 z"
       style=""
       id="path67" />
    <path
       d="m 426.77835,253.58054 1.41992,0 0,8.64303 -1.41992,0 0,-8.64303 z m 0,-3.36461 1.41992,0 0,1.79806 -1.41992,0 0,-1.79806 z"
       style=""
       id="path69" />
    <path
       d="m 432.56609,251.12654 0,2.454 2.92474,0 0,1.10353 -2.92474,0 0,4.69193 q 0,1.05723 0.28553,1.35819 0.29325,0.30096 1.1807,0.30096 l 1.45851,0 0,1.18842 -1.45851,0 q -1.64372,0 -2.2688,-0.60964 -0.62507,-0.61736 -0.62507,-2.23793 l 0,-4.69193 -1.0418,0 0,-1.10353 1.0418,0 0,-2.454 1.42764,0 z"
       style=""
       id="path71" />
    <path
       d="m 444.75894,257.54707 0,0.69453 -6.52858,0 q 0.0926,1.46623 0.87974,2.23793 0.79485,0.76398 2.20706,0.76398 0.818,0 1.58198,-0.20064 0.7717,-0.20064 1.52797,-0.60192 l 0,1.34275 q -0.76398,0.32412 -1.56655,0.49389 -0.80257,0.16977 -1.62829,0.16977 -2.06815,0 -3.27972,-1.20385 -1.20385,-1.20385 -1.20385,-3.25657 0,-2.12217 1.14212,-3.36461 1.14983,-1.25015 3.09451,-1.25015 1.74404,0 2.75497,1.12668 1.01864,1.11897 1.01864,3.04821 z m -1.41993,-0.41671 q -0.0154,-1.16527 -0.65594,-1.8598 -0.63279,-0.69453 -1.68231,-0.69453 -1.18841,0 -1.90609,0.67138 -0.70997,0.67138 -0.818,1.89066 l 5.06234,-0.008 z"
       style=""
       id="path73" />
    <path
       d="m 452.0978,254.90786 q -0.23923,-0.1389 -0.52475,-0.20064 -0.27782,-0.0695 -0.61736,-0.0695 -1.20386,0 -1.85208,0.78713 -0.64051,0.77942 -0.64051,2.24565 l 0,4.55302 -1.42765,0 0,-8.64303 1.42765,0 0,1.34276 q 0.44758,-0.78714 1.16526,-1.16527 0.71768,-0.38585 1.74404,-0.38585 0.14663,0 0.32412,0.0232 0.17749,0.0154 0.39356,0.054 l 0.008,1.45851 z"
       style=""
       id="path75" />
    <path
       d="m 457.91641,257.26155 4.15946,0 0,1.26558 -4.15946,0 0,-1.26558 z"
       style=""
       id="path77" />
    <path
       d="m 469.37615,253.58054 1.41992,0 0,8.64303 -1.41992,0 0,-8.64303 z m 0,-3.36461 1.41992,0 0,1.79806 -1.41992,0 0,-1.79806 z"
       style=""
       id="path79" />
    <path
       d="m 475.16389,251.12654 0,2.454 2.92474,0 0,1.10353 -2.92474,0 0,4.69193 q 0,1.05723 0.28553,1.35819 0.29324,0.30096 1.1807,0.30096 l 1.45851,0 0,1.18842 -1.45851,0 q -1.64372,0 -2.2688,-0.60964 -0.62507,-0.61736 -0.62507,-2.23793 l 0,-4.69193 -1.0418,0 0,-1.10353 1.0418,0 0,-2.454 1.42764,0 z"
       style=""
       id="path81" />
    <path
       d="m 487.35674,257.54707 0,0.69453 -6.52858,0 q 0.0926,1.46623 0.87974,2.23793 0.79485,0.76398 2.20706,0.76398 0.818,0 1.58198,-0.20064 0.7717,-0.20064 1.52797,-0.60192 l 0,1.34275 q -0.76398,0.32412 -1.56655,0.49389 -0.80257,0.16977 -1.62829,0.16977 -2.06815,0 -3.27972,-1.20385 -1.20385,-1.20385 -1.20385,-3.25657 0,-2.12217 1.14212,-3.36461 1.14983,-1.25015 3.09451,-1.25015 1.74404,0 2.75497,1.12668 1.01864,1.11897 1.01864,3.04821 z m -1.41993,-0.41671 q -0.0154,-1.16527 -0.65594,-1.8598 -0.6328,-0.69453 -1.68231,-0.69453 -1.18841,0 -1.90609,0.67138 -0.70997,0.67138 -0.818,1.89066 l 5.06234,-0.008 z"
       style=""
       id="path83" />
    <path
       d="m 494.6956,254.90786 q -0.23923,-0.1389 -0.52476,-0.20064 -0.27781,-0.0695 -0.61736,-0.0695 -1.20385,0 -1.85208,0.78713 -0.64051,0.77942 -0.64051,2.24565 l 0,4.55302 -1.42764,0 0,-8.64303 1.42764,0 0,1.34276 q 0.44759,-0.78714 1.16527,-1.16527 0.71768,-0.38585 1.74404,-0.38585 0.14662,0 0.32411,0.0232 0.17749,0.0154 0.39357,0.054 l 0.008,1.45851 z"
       style=""
       id="path85" />
  </g>
</svg>
