<?xml version="1.0" encoding="UTF-8" standalone="no"?>
<svg id="svg2" xmlns:rdf="http://www.w3.org/1999/02/22-rdf-syntax-ns#" xmlns="http://www.w3.org/2000/svg" viewBox="289 79 314.65001 175.72572" height="9.4476cm" width="15.982cm" version="1.1" xmlns:cc="http://creativecommons.org/ns#" xmlns:dc="http://purl.org/dc/elements/1.1/">
 <metadata id="metadata68">
  <rdf:RDF>
   <cc:Work rdf:about="">
    <dc:format>image/svg+xml</dc:format>
    <dc:type rdf:resource="http://purl.org/dc/dcmitype/StillImage"/>
   </cc:Work>
  </rdf:RDF>
 </metadata>
 <g id="g4" transform="translate(0 -5.1371)">
  <path id="rect6" fill="#fff" d="m404 80h71.6v28h-71.6z"/>
  <path id="rect8" d="m404 80h71.6v28h-71.6z" stroke="#000" stroke-width="2" fill="none"/>
  <g id="text10">
   <path id="path4166" d="m417.12 92.508q0.94531 0 1.3516-0.35156 0.41407-0.35156 0.41407-1.1562 0-0.79688-0.41407-1.1406-0.40625-0.34375-1.3516-0.34375h-1.2656v2.9922h1.2656zm-1.2656 2.0781v4.4141h-3.0078v-11.664h4.5938q2.3047 0 3.375 0.77344 1.0781 0.77344 1.0781 2.4453 0 1.1562-0.5625 1.8984-0.55469 0.74219-1.6797 1.0938 0.61719 0.14062 1.1016 0.64062 0.49219 0.49219 0.99219 1.5l1.6328 3.3125h-3.2031l-1.4219-2.8984q-0.42968-0.875-0.875-1.1953-0.4375-0.32031-1.1719-0.32031h-0.85156z"/>
   <path id="path4168" d="m428.96 95.062q-0.875 0-1.3203 0.29688-0.4375 0.29688-0.4375 0.875 0 0.53125 0.35156 0.83594 0.35937 0.29688 0.99219 0.29688 0.78906 0 1.3281-0.5625 0.53906-0.57031 0.53906-1.4219v-0.32031h-1.4531zm4.2734-1.0547v4.9922h-2.8203v-1.2969q-0.5625 0.79688-1.2656 1.1641-0.70313 0.35938-1.7109 0.35938-1.3594 0-2.2109-0.78906-0.84375-0.79688-0.84375-2.0625 0-1.5391 1.0547-2.2578 1.0625-0.71875 3.3281-0.71875h1.6484v-0.21875q0-0.66406-0.52343-0.96875-0.52344-0.3125-1.6328-0.3125-0.89843 0-1.6719 0.17969-0.77344 0.17969-1.4375 0.53906v-2.1328q0.89844-0.21875 1.8047-0.32812 0.90625-0.11719 1.8125-0.11719 2.3672 0 3.4141 0.9375 1.0547 0.92969 1.0547 3.0312z"/>
   <path id="path4170" d="m444.64 93.672v5.3281h-2.8125v-0.86719-3.2109q0-1.1328-0.0547-1.5625-0.0469-0.42969-0.17187-0.63281-0.16407-0.27344-0.44532-0.42188-0.28125-0.15625-0.64062-0.15625-0.875 0-1.375 0.67969-0.5 0.67188-0.5 1.8672v4.3047h-2.7969v-8.75h2.7969v1.2812q0.63281-0.76562 1.3438-1.125 0.71094-0.36719 1.5703-0.36719 1.5156 0 2.2969 0.92969 0.78906 0.92969 0.78906 2.7031z"/>
   <path id="path4172" d="m453.21 97.516q-0.57813 0.76562-1.2734 1.125-0.7 0.359-1.62 0.359-1.6016 0-2.6484-1.2578-1.0469-1.2656-1.0469-3.2188 0-1.9609 1.0469-3.2109 1.0469-1.2578 2.6484-1.2578 0.91406 0 1.6094 0.35938 0.69531 0.35938 1.2734 1.1328v-1.2969h2.8125v7.8672q0 2.1094-1.3359 3.2188-1.3281 1.1172-3.8594 1.1172-0.82032 0-1.5859-0.125-0.76563-0.125-1.5391-0.38282v-2.1797q0.73437 0.42188 1.4375 0.625 0.70312 0.21093 1.4141 0.21093 1.375 0 2.0156-0.60156 0.64063-0.60156 0.64063-1.8828v-0.60156zm-1.8438-5.4453q-0.86719 0-1.3516 0.64062-0.48438 0.64062-0.48438 1.8125 0 1.2031 0.46875 1.8281 0.46875 0.61719 1.3672 0.61719 0.875 0 1.3594-0.64062 0.48438-0.64062 0.48438-1.8047 0-1.1719-0.48438-1.8125-0.48437-0.64062-1.3594-0.64062z"/>
   <path id="path4174" d="m467.46 94.602v0.79688h-6.5391q0.10156 0.98438 0.71093 1.4766 0.60938 0.49219 1.7031 0.49219 0.88281 0 1.8047-0.25781 0.92968-0.26562 1.9062-0.79688v2.1562q-0.99219 0.375-1.9844 0.5625-0.99219 0.19531-1.9844 0.19531-2.375 0-3.6953-1.2031-1.3125-1.2109-1.3125-3.3906 0-2.1406 1.2891-3.3672 1.2969-1.2266 3.5625-1.2266 2.0625 0 3.2969 1.2422 1.2422 1.2422 1.2422 3.3203zm-2.875-0.92969q0-0.79688-0.46875-1.2812-0.46094-0.49219-1.2109-0.49219-0.8125 0-1.3203 0.46094-0.50781 0.45312-0.63281 1.3125h3.6328z"/>
  </g>
  <path id="rect12" fill="#fff" d="m404 108h71.6v36h-71.6z"/>
  <path id="rect14" d="m404 108h71.6v36h-71.6z" stroke="#000" stroke-width="2" fill="none"/>
  <g id="text16">
   <path id="path4179" d="m411.38 114.68v2.775h2.7812v1.0625h-2.7812v2.775h-1.05v-2.775h-2.775v-1.0625h2.775v-2.775h1.05z"/>
   <path id="path4181" d="m420.44 118.51q0-1.3375-0.425-2.0188-0.425-0.68125-1.2562-0.68125-0.8375 0-1.2688 0.6875-0.43125 0.68125-0.43125 2.0125 0 1.325 0.43125 2.0125t1.2688 0.6875q0.83125 0 1.2562-0.68125 0.425-0.68125 0.425-2.0188zm-3.3812-2.6125q0.275-0.5125 0.75625-0.7875 0.4875-0.275 1.125-0.275 1.2625 0 1.9875 0.975 0.725 0.96875 0.725 2.675 0 1.7312-0.73125 2.7188-0.725 0.98125-1.9938 0.98125-0.625 0-1.1062-0.26875-0.475-0.275-0.7625-0.79375v0.88125h-1.15v-9.725h1.15v3.6188z"/>
   <path id="path4183" d="m429.35 118.21v0.5625h-4.9812v0.0375q0 1.1438 0.59375 1.7688 0.6 0.625 1.6875 0.625 0.55 0 1.15-0.175t1.2812-0.53125v1.1438q-0.65625 0.26875-1.2688 0.4-0.60625 0.1375-1.175 0.1375-1.6312 0-2.55-0.975-0.91875-0.98125-0.91875-2.7 0-1.675 0.9-2.675t2.4-1q1.3375 0 2.1062 0.90625 0.775 0.90625 0.775 2.475zm-1.15-0.3375q-0.025-1.0125-0.48125-1.5375-0.45-0.53125-1.3-0.53125-0.83125 0-1.3688 0.55-0.5375 0.55-0.6375 1.525l3.7875-0.006z"/>
   <path id="path4185" d="m435.46 118.44q0-1.2938-0.425-1.9625-0.41875-0.675-1.225-0.675-0.84375 0-1.2875 0.675-0.44375 0.66875-0.44375 1.9625t0.44375 1.975q0.45 0.675 1.3 0.675 0.79375 0 1.2125-0.68125 0.425-0.68125 0.425-1.9688zm1.15 3.1062q0 1.575-0.74375 2.3875t-2.1875 0.8125q-0.475 0-0.99375-0.0875t-1.0375-0.25625v-1.1375q0.6125 0.2875 1.1125 0.425t0.91875 0.1375q0.93125 0 1.3562-0.50625 0.425-0.50625 0.425-1.6062v-0.05-0.78125q-0.275 0.5875-0.75 0.875t-1.1562 0.2875q-1.225 0-1.9562-0.98125-0.73125-0.98125-0.73125-2.625 0-1.65 0.73125-2.6312 0.73125-0.98125 1.9562-0.98125 0.675 0 1.1438 0.26875 0.46875 0.26875 0.7625 0.83125v-0.90625h1.15v6.525z"/>
   <path id="path4187" d="m439.4 115h2.9438v6.1062h2.2812v0.89375h-5.7125v-0.89375h2.2812v-5.2125h-1.7938v-0.89375zm1.7938-2.725h1.15v1.4562h-1.15v-1.4562z"/>
   <path id="path4189" d="m452.07 117.66v4.3375h-1.1562v-4.3375q0-0.94375-0.33125-1.3875t-1.0375-0.44375q-0.80625 0-1.2438 0.575-0.43125 0.56875-0.43125 1.6375v3.9562h-1.15v-7h1.15v1.05q0.30625-0.6 0.83125-0.90625 0.525-0.3125 1.2438-0.3125 1.0688 0 1.5938 0.70625 0.53125 0.7 0.53125 2.125z"/>
   <path id="path4191" d="m458.73 112.29q-0.83125 1.425-1.2438 2.8438-0.40625 1.4125-0.40625 2.85 0 1.4312 0.40625 2.85 0.4125 1.4188 1.2438 2.8562h-1q-0.94375-1.4875-1.4062-2.8938-0.4625-1.4125-0.4625-2.8125 0-1.3938 0.4625-2.8062 0.4625-1.4125 1.4062-2.8875h1z"/>
   <path id="path4193" d="m463.08 112.29h1q0.94375 1.475 1.4062 2.8875 0.4625 1.4125 0.4625 2.8062 0 1.4062-0.4625 2.8188-0.4625 1.4125-1.4062 2.8875h-1q0.83125-1.45 1.2375-2.8688 0.4125-1.4188 0.4125-2.8375 0-1.425-0.4125-2.8438-0.40625-1.4188-1.2375-2.85z"/>
  </g>
  <g id="text18">
   <path id="path4196" d="m411.38 130.68v2.775h2.7812v1.0625h-2.7812v2.775h-1.05v-2.775h-2.775v-1.0625h2.775v-2.775h1.05z"/>
   <path id="path4198" d="m421.65 134.21v0.5625h-4.9812v0.0375q0 1.1438 0.59375 1.7688 0.6 0.625 1.6875 0.625 0.55 0 1.15-0.175t1.2812-0.53125v1.1438q-0.65625 0.26875-1.2688 0.4-0.60625 0.1375-1.175 0.1375-1.6312 0-2.55-0.975-0.91875-0.98125-0.91875-2.7 0-1.675 0.9-2.675t2.4-1q1.3375 0 2.1062 0.90625 0.775 0.90625 0.775 2.475zm-1.15-0.3375q-0.025-1.0125-0.48125-1.5375-0.45-0.53125-1.3-0.53125-0.83125 0-1.3688 0.55-0.5375 0.55-0.6375 1.525l3.7875-0.006z"/>
   <path id="path4200" d="m428.97 133.66v4.3375h-1.1562v-4.3375q0-0.94375-0.33125-1.3875t-1.0375-0.44375q-0.80625 0-1.2438 0.575-0.43125 0.56875-0.43125 1.6375v3.9562h-1.15v-7h1.15v1.05q0.30625-0.6 0.83125-0.90625 0.525-0.3125 1.2438-0.3125 1.0688 0 1.5938 0.70625 0.53125 0.7 0.53125 2.125z"/>
   <path id="path4202" d="m435.46 131.89v-3.6188h1.15v9.725h-1.15v-0.88125q-0.2875 0.51875-0.76875 0.79375-0.475 0.26875-1.1 0.26875-1.2688 0-2-0.98125-0.725-0.9875-0.725-2.7188 0-1.7062 0.73125-2.675 0.73125-0.975 1.9938-0.975 0.63125 0 1.1125 0.275 0.48125 0.26875 0.75625 0.7875zm-3.3812 2.6125q0 1.3375 0.425 2.0188 0.425 0.68125 1.2562 0.68125 0.83125 0 1.2625-0.6875 0.4375-0.6875 0.4375-2.0125 0-1.3312-0.4375-2.0125-0.43125-0.6875-1.2625-0.6875t-1.2562 0.68125q-0.425 0.68125-0.425 2.0188z"/>
   <path id="path4204" d="m443.33 128.29q-0.83125 1.425-1.2438 2.8438-0.40625 1.4125-0.40625 2.85 0 1.4312 0.40625 2.85 0.4125 1.4188 1.2438 2.8562h-1q-0.94375-1.4875-1.4062-2.8938-0.4625-1.4125-0.4625-2.8125 0-1.3938 0.4625-2.8062 0.4625-1.4125 1.4062-2.8875h1z"/>
   <path id="path4206" d="m447.68 128.29h1q0.94375 1.475 1.4062 2.8875 0.4625 1.4125 0.4625 2.8062 0 1.4062-0.4625 2.8188-0.4625 1.4125-1.4062 2.8875h-1q0.83125-1.45 1.2375-2.8688 0.4125-1.4188 0.4125-2.8375 0-1.425-0.4125-2.8438-0.40625-1.4188-1.2375-2.85z"/>
  </g>
 </g>
 <g id="g20" transform="translate(0 -5.1371)">
  <path id="rect22" fill="#fff" d="m290 200h97.8v28h-97.8z"/>
  <path id="rect24" d="m290 200h97.8v28h-97.8z" stroke="#000" stroke-width="2" fill="none"/>
  <g id="text26">
   <path id="path4211" d="m304.56 207.7v2.4688q-0.96094-0.42968-1.875-0.64843-0.91407-0.21875-1.7266-0.21875-1.0781 0-1.5938 0.29687-0.51562 0.29688-0.51562 0.92188 0 0.46875 0.34375 0.73437 0.35156 0.25781 1.2656 0.44531l1.2812 0.25782q1.9453 0.39062 2.7656 1.1875 0.82031 0.79687 0.82031 2.2656 0 1.9297-1.1484 2.875-1.1406 0.9375-3.4922 0.9375-1.1094 0-2.2266-0.21094-1.1172-0.21093-2.2344-0.625v-2.5391q1.1172 0.59375 2.1562 0.89844 1.0469 0.29687 2.0156 0.29687 0.98438 0 1.5078-0.32812 0.52343-0.32813 0.52343-0.9375 0-0.54688-0.35937-0.84375-0.35156-0.29688-1.4141-0.53125l-1.1641-0.25781q-1.75-0.375-2.5625-1.1953-0.80468-0.82031-0.80468-2.2109 0-1.7422 1.125-2.6797t3.2344-0.9375q0.96094 0 1.9766 0.14844 1.0156 0.14062 2.1016 0.42968z"/>
   <path id="path4213" d="m316.59 214.6v0.79688h-6.5391q0.10156 0.98437 0.71094 1.4766 0.60937 0.49219 1.7031 0.49219 0.88282 0 1.8047-0.25782 0.92969-0.26562 1.9062-0.79687v2.1562q-0.99219 0.375-1.9844 0.5625-0.99219 0.19531-1.9844 0.19531-2.375 0-3.6953-1.2031-1.3125-1.2109-1.3125-3.3906 0-2.1406 1.2891-3.3672 1.2969-1.2266 3.5625-1.2266 2.0625 0 3.2969 1.2422 1.2422 1.2422 1.2422 3.3203zm-2.875-0.92969q0-0.79687-0.46875-1.2812-0.46093-0.49218-1.2109-0.49218-0.8125 0-1.3203 0.46093-0.50781 0.45313-0.63281 1.3125h3.6328z"/>
   <path id="path4215" d="m322.81 212.07q-0.89062 0-1.3672 0.65625-0.46875 0.65625-0.46875 1.9062t0.46875 1.9062q0.47656 0.65625 1.3672 0.65625 0.89844 0 1.3672-0.65625 0.47656-0.65625 0.47656-1.9062t-0.47656-1.9062q-0.46875-0.65625-1.3672-0.65625zm1.8438 5.6641q-0.57812 0.77344-1.2734 1.1328-0.69532 0.35937-1.6094 0.35937-1.6172 0-2.6562-1.2812-1.0391-1.2891-1.0391-3.3125t1.0391-3.2969q1.0391-1.2812 2.6562-1.2812 0.91406 0 1.6094 0.35937 0.69531 0.35938 1.2734 1.1328v-1.2969h2.8125v12.078h-2.8125v-4.5938z"/>
   <path id="path4217" d="m330.07 215.59v-5.3438h2.8125v0.875q0 0.71094-0.008 1.7891-0.008 1.0703-0.008 1.4297 0 1.0547 0.0547 1.5234 0.0547 0.46093 0.1875 0.67187 0.17188 0.27344 0.44531 0.42188 0.28125 0.14843 0.64063 0.14843 0.875 0 1.375-0.67187 0.5-0.67188 0.5-1.8672v-4.3203h2.7969v8.75h-2.7969v-1.2656q-0.63281 0.76563-1.3438 1.1328-0.70313 0.35937-1.5547 0.35937-1.5156 0-2.3125-0.92969-0.78906-0.92968-0.78906-2.7031z"/>
   <path id="path4219" d="m350.31 214.6v0.79688h-6.5391q0.10156 0.98437 0.71094 1.4766 0.60937 0.49219 1.7031 0.49219 0.88282 0 1.8047-0.25782 0.92969-0.26562 1.9062-0.79687v2.1562q-0.99219 0.375-1.9844 0.5625-0.99219 0.19531-1.9844 0.19531-2.375 0-3.6953-1.2031-1.3125-1.2109-1.3125-3.3906 0-2.1406 1.2891-3.3672 1.2969-1.2266 3.5625-1.2266 2.0625 0 3.2969 1.2422 1.2422 1.2422 1.2422 3.3203zm-2.875-0.92969q0-0.79687-0.46875-1.2812-0.46093-0.49218-1.2109-0.49218-0.8125 0-1.3203 0.46093-0.50781 0.45313-0.63281 1.3125h3.6328z"/>
   <path id="path4221" d="m361.21 213.67v5.3281h-2.8125v-0.86719-3.2109q0-1.1328-0.0547-1.5625-0.0469-0.42968-0.17188-0.63281-0.16406-0.27344-0.44531-0.42187-0.28125-0.15625-0.64063-0.15625-0.875 0-1.375 0.67968-0.5 0.67188-0.5 1.8672v4.3047h-2.7969v-8.75h2.7969v1.2812q0.63282-0.76563 1.3438-1.125 0.71094-0.36719 1.5703-0.36719 1.5156 0 2.2969 0.92969 0.78906 0.92969 0.78906 2.7031z"/>
   <path id="path4223" d="m370.89 210.52v2.2812q-0.57031-0.39063-1.1484-0.57813-0.57031-0.1875-1.1875-0.1875-1.1719 0-1.8281 0.6875-0.64844 0.67969-0.64844 1.9062 0 1.2266 0.64844 1.9141 0.65625 0.67969 1.8281 0.67969 0.65625 0 1.2422-0.19531 0.59375-0.19531 1.0938-0.57813v2.2891q-0.65625 0.24218-1.3359 0.35937-0.67187 0.125-1.3516 0.125-2.3672 0-3.7031-1.2109-1.3359-1.2188-1.3359-3.3828 0-2.1641 1.3359-3.375 1.3359-1.2188 3.7031-1.2188 0.6875 0 1.3516 0.125 0.67188 0.11719 1.3359 0.35938z"/>
   <path id="path4225" d="m382.06 214.6v0.79688h-6.5391q0.10156 0.98437 0.71094 1.4766 0.60937 0.49219 1.7031 0.49219 0.88282 0 1.8047-0.25782 0.92969-0.26562 1.9062-0.79687v2.1562q-0.99219 0.375-1.9844 0.5625-0.99219 0.19531-1.9844 0.19531-2.375 0-3.6953-1.2031-1.3125-1.2109-1.3125-3.3906 0-2.1406 1.2891-3.3672 1.2969-1.2266 3.5625-1.2266 2.0625 0 3.2969 1.2422 1.2422 1.2422 1.2422 3.3203zm-2.875-0.92969q0-0.79687-0.46875-1.2812-0.46093-0.49218-1.2109-0.49218-0.8125 0-1.3203 0.46093-0.50781 0.45313-0.63281 1.3125h3.6328z"/>
  </g>
  <path id="rect28" fill="#fff" d="m290 228h97.8v36h-97.8z"/>
  <path id="rect30" d="m290 228h97.8v36h-97.8z" stroke="#000" stroke-width="2" fill="none"/>
  <g id="text32">
   <path id="path4230" d="m297.38 234.68v2.775h2.7812v1.0625h-2.7812v2.775h-1.05v-2.775h-2.775v-1.0625h2.775v-2.775h1.05z"/>
   <path id="path4232" d="m307.34 232.28v0.95625h-1.3062q-0.61875 0-0.8625 0.25625-0.2375 0.25-0.2375 0.89375v0.61875h2.4062v0.89375h-2.4062v6.1062h-1.15v-6.1062h-1.8688v-0.89375h1.8688v-0.4875q0-1.15 0.525-1.6938 0.53125-0.54375 1.65-0.54375h1.3812z"/>
   <path id="path4234" d="m315.62 236.44q-0.36875-0.2875-0.75-0.41875t-0.8375-0.13125q-1.075 0-1.6438 0.675-0.56875 0.675-0.56875 1.95v3.4812h-1.1562v-7h1.1562v1.3688q0.2875-0.74375 0.88125-1.1375 0.6-0.4 1.4188-0.4 0.425 0 0.79375 0.10625t0.70625 0.33125v1.175z"/>
   <path id="path4236" d="m319.95 235.81q-0.875 0-1.325 0.68125t-0.45 2.0188q0 1.3312 0.45 2.0188 0.45 0.68125 1.325 0.68125 0.88125 0 1.3312-0.68125 0.45-0.6875 0.45-2.0188 0-1.3375-0.45-2.0188-0.45-0.68125-1.3312-0.68125zm0-0.975q1.4562 0 2.225 0.94375 0.775 0.94375 0.775 2.7312 0 1.7938-0.76875 2.7375-0.76875 0.9375-2.2312 0.9375-1.4562 0-2.225-0.9375-0.76875-0.94375-0.76875-2.7375 0-1.7875 0.76875-2.7312 0.76875-0.94375 2.225-0.94375z"/>
   <path id="path4238" d="m330.37 237.66v4.3375h-1.1562v-4.3375q0-0.94375-0.33125-1.3875t-1.0375-0.44375q-0.80625 0-1.2438 0.575-0.43125 0.56875-0.43125 1.6375v3.9562h-1.15v-7h1.15v1.05q0.30625-0.6 0.83125-0.90625 0.525-0.3125 1.2438-0.3125 1.0688 0 1.5938 0.70625 0.53125 0.7 0.53125 2.125z"/>
   <path id="path4240" d="m335.34 233.01v1.9875h2.6125v0.89375h-2.6125v3.8q0 0.775 0.29375 1.0812 0.29375 0.30625 1.025 0.30625h1.2938v0.91875h-1.4062q-1.2938 0-1.825-0.51875-0.53125-0.51875-0.53125-1.7875v-3.8h-1.8688v-0.89375h1.8688v-1.9875h1.15z"/>
   <path id="path4242" d="m344.73 232.29q-0.83125 1.425-1.2438 2.8438-0.40625 1.4125-0.40625 2.85 0 1.4312 0.40625 2.85 0.4125 1.4188 1.2438 2.8562h-1q-0.94375-1.4875-1.4062-2.8938-0.4625-1.4125-0.4625-2.8125 0-1.3938 0.4625-2.8062 0.4625-1.4125 1.4062-2.8875h1z"/>
   <path id="path4244" d="m349.08 232.29h1q0.94375 1.475 1.4062 2.8875 0.4625 1.4125 0.4625 2.8062 0 1.4062-0.4625 2.8188-0.4625 1.4125-1.4062 2.8875h-1q0.83125-1.45 1.2375-2.8688 0.4125-1.4188 0.4125-2.8375 0-1.425-0.4125-2.8438-0.40625-1.4188-1.2375-2.85z"/>
  </g>
  <g id="text34">
   <path id="path4247" d="m297.38 250.68v2.775h2.7812v1.0625h-2.7812v2.775h-1.05v-2.775h-2.775v-1.0625h2.775v-2.775h1.05z"/>
   <path id="path4249" d="m306.44 254.51q0-1.3375-0.425-2.0188-0.425-0.68125-1.2562-0.68125-0.8375 0-1.2688 0.6875-0.43125 0.68125-0.43125 2.0125 0 1.325 0.43125 2.0125t1.2688 0.6875q0.83125 0 1.2562-0.68125 0.425-0.68125 0.425-2.0188zm-3.3812-2.6125q0.275-0.5125 0.75625-0.7875 0.4875-0.275 1.125-0.275 1.2625 0 1.9875 0.975 0.725 0.96875 0.725 2.675 0 1.7312-0.73125 2.7188-0.725 0.98125-1.9938 0.98125-0.625 0-1.1062-0.26875-0.475-0.275-0.7625-0.79375v0.88125h-1.15v-9.725h1.15v3.6188z"/>
   <path id="path4251" d="m312.79 254.48h-0.38125q-1.0062 0-1.5188 0.35625-0.50625 0.35-0.50625 1.05 0 0.63125 0.38125 0.98125t1.0562 0.35q0.95 0 1.4938-0.65625 0.54375-0.6625 0.55-1.825v-0.25625h-1.075zm2.2312-0.475v3.9938h-1.1562v-1.0375q-0.36875 0.625-0.93125 0.925-0.55625 0.29375-1.3562 0.29375-1.0688 0-1.7062-0.6-0.6375-0.60625-0.6375-1.6188 0-1.1688 0.78125-1.775 0.7875-0.60625 2.3062-0.60625h1.5438v-0.18125q-0.006-0.8375-0.425-1.2125-0.41875-0.38125-1.3375-0.38125-0.5875 0-1.1875 0.16875t-1.1688 0.49375v-1.15q0.6375-0.24375 1.2188-0.3625 0.5875-0.125 1.1375-0.125 0.86875 0 1.4812 0.25625 0.61875 0.25625 1 0.76875 0.2375 0.3125 0.3375 0.775 0.1 0.45625 0.1 1.375z"/>
   <path id="path4253" d="m322.73 257.64q-0.4625 0.26875-0.95625 0.4-0.4875 0.1375-1 0.1375-1.625 0-2.5438-0.975-0.9125-0.975-0.9125-2.7t0.9125-2.7q0.91875-0.975 2.5438-0.975 0.50625 0 0.9875 0.13125t0.96875 0.40625v1.2062q-0.45625-0.40625-0.91875-0.5875-0.45625-0.18125-1.0375-0.18125-1.0812 0-1.6625 0.7-0.58125 0.7-0.58125 2 0 1.2938 0.58125 2 0.5875 0.7 1.6625 0.7 0.6 0 1.075-0.18125 0.475-0.1875 0.88125-0.575v1.1938z"/>
   <path id="path4255" d="m325.28 248.28h1.1875v5.6312l3.0188-2.9062h1.4l-2.7562 2.6375 3.1875 4.3625h-1.4062l-2.5875-3.6125-0.85625 0.80625v2.8062h-1.1875v-9.725z"/>
   <path id="path4257" d="m337.03 248.29q-0.83125 1.425-1.2438 2.8438-0.40625 1.4125-0.40625 2.85 0 1.4312 0.40625 2.85 0.4125 1.4188 1.2438 2.8562h-1q-0.94375-1.4875-1.4062-2.8938-0.4625-1.4125-0.4625-2.8125 0-1.3938 0.4625-2.8062 0.4625-1.4125 1.4062-2.8875h1z"/>
   <path id="path4259" d="m341.38 248.29h1q0.94375 1.475 1.4062 2.8875 0.4625 1.4125 0.4625 2.8062 0 1.4062-0.4625 2.8188-0.4625 1.4125-1.4062 2.8875h-1q0.83125-1.45 1.2375-2.8688 0.4125-1.4188 0.4125-2.8375 0-1.425-0.4125-2.8438-0.40625-1.4188-1.2375-2.85z"/>
  </g>
 </g>
 <g id="g36" transform="translate(0 -5.1371)">
  <path id="rect38" fill="#fff" d="m490 200h112.65v28h-112.65z"/>
  <path id="rect40" d="m490 200h112.65v28h-112.65z" stroke="#000" stroke-width="2" fill="none"/>
  <g id="text42">
   <path id="path4264" d="m503.53 216.88h-4.7031l-0.74219 2.125h-3.0234l4.3203-11.664h3.5859l4.3203 11.664h-3.0234l-0.73437-2.125zm-3.9531-2.1641h3.1953l-1.5938-4.6406-1.6016 4.6406z"/>
   <path id="path4266" d="m515.54 210.52v2.125q-0.89844-0.375-1.7344-0.5625-0.83593-0.1875-1.5781-0.1875-0.79688 0-1.1875 0.20312-0.38281 0.19531-0.38281 0.60938 0 0.33593 0.28906 0.51562 0.29687 0.17969 1.0547 0.26563l0.49218 0.0703q2.1484 0.27344 2.8906 0.89844 0.74219 0.625 0.74219 1.9609 0 1.3984-1.0312 2.1016-1.0312 0.70312-3.0781 0.70312-0.86719 0-1.7969-0.14062-0.92188-0.13282-1.8984-0.40625v-2.125q0.83594 0.40625 1.7109 0.60937 0.88281 0.20313 1.7891 0.20313 0.82031 0 1.2344-0.22657 0.41407-0.22656 0.41407-0.67187 0-0.375-0.28907-0.55469-0.28125-0.1875-1.1328-0.28906l-0.49219-0.0625q-1.8672-0.23438-2.6172-0.86719t-0.75-1.9219q0-1.3906 0.95312-2.0625 0.95313-0.67188 2.9219-0.67188 0.77343 0 1.625 0.11719 0.85156 0.11719 1.8516 0.36719z"/>
   <path id="path4268" d="m525.07 210.52v2.125q-0.89844-0.375-1.7344-0.5625-0.83593-0.1875-1.5781-0.1875-0.79688 0-1.1875 0.20312-0.38281 0.19531-0.38281 0.60938 0 0.33593 0.28906 0.51562 0.29687 0.17969 1.0547 0.26563l0.49218 0.0703q2.1484 0.27344 2.8906 0.89844 0.74219 0.625 0.74219 1.9609 0 1.3984-1.0312 2.1016-1.0312 0.70312-3.0781 0.70312-0.86719 0-1.7969-0.14062-0.92188-0.13282-1.8984-0.40625v-2.125q0.83594 0.40625 1.7109 0.60937 0.88281 0.20313 1.7891 0.20313 0.82031 0 1.2344-0.22657 0.41407-0.22656 0.41407-0.67187 0-0.375-0.28907-0.55469-0.28125-0.1875-1.1328-0.28906l-0.49219-0.0625q-1.8672-0.23438-2.6172-0.86719t-0.75-1.9219q0-1.3906 0.95312-2.0625 0.95313-0.67188 2.9219-0.67188 0.77343 0 1.625 0.11719 0.85156 0.11719 1.8516 0.36719z"/>
   <path id="path4270" d="m531.93 212.04q-0.92968 0-1.4219 0.67188-0.48438 0.66406-0.48438 1.9219t0.48438 1.9297q0.49219 0.66406 1.4219 0.66406 0.91407 0 1.3984-0.66406 0.48438-0.67188 0.48438-1.9297t-0.48438-1.9219q-0.48437-0.67188-1.3984-0.67188zm0-2q2.2578 0 3.5234 1.2188 1.2734 1.2188 1.2734 3.375t-1.2734 3.375q-1.2656 1.2188-3.5234 1.2188-2.2656 0-3.5469-1.2188-1.2734-1.2188-1.2734-3.375t1.2734-3.375q1.2812-1.2188 3.5469-1.2188z"/>
   <path id="path4272" d="m545.83 210.52v2.2812q-0.57031-0.39063-1.1484-0.57813-0.57032-0.1875-1.1875-0.1875-1.1719 0-1.8281 0.6875-0.64844 0.67969-0.64844 1.9062 0 1.2266 0.64844 1.9141 0.65625 0.67969 1.8281 0.67969 0.65625 0 1.2422-0.19531 0.59375-0.19531 1.0938-0.57813v2.2891q-0.65625 0.24218-1.3359 0.35937-0.67188 0.125-1.3516 0.125-2.3672 0-3.7031-1.2109-1.3359-1.2188-1.3359-3.3828 0-2.1641 1.3359-3.375 1.3359-1.2188 3.7031-1.2188 0.6875 0 1.3516 0.125 0.67187 0.11719 1.3359 0.35938z"/>
   <path id="path4274" d="m548.26 210.25h2.7969v8.75h-2.7969v-8.75zm0-3.4062h2.7969v2.2812h-2.7969v-2.2812z"/>
   <path id="path4276" d="m557.68 215.06q-0.875 0-1.3203 0.29687-0.4375 0.29688-0.4375 0.875 0 0.53125 0.35157 0.83594 0.35937 0.29688 0.99218 0.29688 0.78907 0 1.3281-0.5625 0.53906-0.57032 0.53906-1.4219v-0.32031h-1.4531zm4.2734-1.0547v4.9922h-2.8203v-1.2969q-0.5625 0.79688-1.2656 1.1641-0.70313 0.35937-1.7109 0.35937-1.3594 0-2.2109-0.78906-0.84375-0.79688-0.84375-2.0625 0-1.5391 1.0547-2.2578 1.0625-0.71875 3.3281-0.71875h1.6484v-0.21875q0-0.66407-0.52344-0.96875-0.52343-0.3125-1.6328-0.3125-0.89844 0-1.6719 0.17968-0.77344 0.17969-1.4375 0.53907v-2.1328q0.89843-0.21875 1.8047-0.32812 0.90625-0.11719 1.8125-0.11719 2.3672 0 3.4141 0.9375 1.0547 0.92969 1.0547 3.0312z"/>
   <path id="path4278" d="m567.63 207.77v2.4844h2.8828v2h-2.8828v3.7109q0 0.60937 0.24219 0.82812 0.24 0.21 0.96 0.21h1.4375v2h-2.3984q-1.6562 0-2.3516-0.6875-0.6875-0.69531-0.6875-2.3516v-3.7109h-1.3906v-2h1.3906v-2.4844h2.7969z"/>
   <path id="path4280" d="m572.23 210.25h2.7969v8.75h-2.7969v-8.75zm0-3.4062h2.7969v2.2812h-2.7969v-2.2812z"/>
   <path id="path4282" d="m576.63 210.25h2.7969l2.1797 6.0469 2.1719-6.0469h2.8047l-3.4453 8.75h-3.0703l-3.4375-8.75z"/>
   <path id="path4284" d="m596.9 214.6v0.79688h-6.5391q0.10157 0.98437 0.71094 1.4766 0.60938 0.49219 1.7031 0.49219 0.88281 0 1.8047-0.25782 0.92969-0.26562 1.9062-0.79687v2.1562q-0.99218 0.375-1.9844 0.5625-0.99219 0.19531-1.9844 0.19531-2.375 0-3.6953-1.2031-1.3125-1.2109-1.3125-3.3906 0-2.1406 1.2891-3.3672 1.2969-1.2266 3.5625-1.2266 2.0625 0 3.2969 1.2422 1.2422 1.2422 1.2422 3.3203zm-2.875-0.92969q0-0.79687-0.46875-1.2812-0.46094-0.49218-1.2109-0.49218-0.8125 0-1.3203 0.46093-0.50782 0.45313-0.63282 1.3125h3.6328z"/>
  </g>
  <path id="rect44" fill="#fff" d="m490 228h112.65v36h-112.65z"/>
  <path id="rect46" d="m490 228h112.65v36h-112.65z" stroke="#000" stroke-width="2" fill="none"/>
  <g id="text48">
   <path id="path4289" d="m497.38 234.68v2.775h2.7812v1.0625h-2.7812v2.775h-1.05v-2.775h-2.775v-1.0625h2.775v-2.775h1.05z"/>
   <path id="path4291" d="m507.34 232.28v0.95625h-1.3062q-0.61875 0-0.8625 0.25625-0.2375 0.25-0.2375 0.89375v0.61875h2.4062v0.89375h-2.4062v6.1062h-1.15v-6.1062h-1.8688v-0.89375h1.8688v-0.4875q0-1.15 0.525-1.6938 0.53125-0.54375 1.65-0.54375h1.3812z"/>
   <path id="path4293" d="m510 235h2.9438v6.1062h2.2812v0.89375h-5.7125v-0.89375h2.2812v-5.2125h-1.7938v-0.9zm1.7938-2.725h1.15v1.4562h-1.15v-1.4562z"/>
   <path id="path4295" d="m522.67 237.66v4.3375h-1.1562v-4.3375q0-0.94375-0.33125-1.3875t-1.0375-0.44375q-0.80625 0-1.2438 0.575-0.43125 0.56875-0.43125 1.6375v3.9562h-1.15v-7h1.15v1.05q0.30625-0.6 0.83125-0.90625 0.525-0.3125 1.2438-0.3125 1.0688 0 1.5938 0.70625 0.53125 0.7 0.53125 2.125z"/>
   <path id="path4297" d="m529.16 235.89v-3.6188h1.15v9.725h-1.15v-0.88125q-0.2875 0.51875-0.76875 0.79375-0.475 0.26875-1.1 0.26875-1.2688 0-2-0.98125-0.725-0.9875-0.725-2.7188 0-1.7062 0.73125-2.675 0.73125-0.975 1.9938-0.975 0.63125 0 1.1125 0.275 0.48125 0.26875 0.75625 0.7875zm-3.3812 2.6125q0 1.3375 0.425 2.0188 0.425 0.68125 1.2562 0.68125 0.83125 0 1.2625-0.6875 0.4375-0.6875 0.4375-2.0125 0-1.3312-0.4375-2.0125-0.43125-0.6875-1.2625-0.6875t-1.2562 0.68125q-0.425 0.68125-0.425 2.0188z"/>
   <path id="path4299" d="m537.03 232.29q-0.83125 1.425-1.2438 2.8438-0.40625 1.4125-0.40625 2.85 0 1.4312 0.40625 2.85 0.4125 1.4188 1.2438 2.8562h-1q-0.94375-1.4875-1.4062-2.8938-0.4625-1.4125-0.4625-2.8125 0-1.3938 0.4625-2.8062 0.4625-1.4125 1.4062-2.8875h1z"/>
   <path id="path4301" d="m541.38 232.29h1q0.94375 1.475 1.4062 2.8875 0.4625 1.4125 0.4625 2.8062 0 1.4062-0.4625 2.8188-0.4625 1.4125-1.4062 2.8875h-1q0.83125-1.45 1.2375-2.8688 0.4125-1.4188 0.4125-2.8375 0-1.425-0.4125-2.8438-0.40625-1.4188-1.2375-2.85z"/>
  </g>
  <g id="text50">
   <path id="path4304" d="m497.38 250.68v2.775h2.7812v1.0625h-2.7812v2.775h-1.05v-2.775h-2.775v-1.0625h2.775v-2.775h1.05z"/>
   <path id="path4306" d="m507.33 257.64q-0.4625 0.26875-0.95625 0.4-0.4875 0.1375-1 0.1375-1.625 0-2.5438-0.975-0.9125-0.975-0.9125-2.7t0.9125-2.7q0.91875-0.975 2.5438-0.975 0.50625 0 0.9875 0.13125t0.96875 0.40625v1.2062q-0.45625-0.40625-0.91875-0.5875-0.45625-0.18125-1.0375-0.18125-1.0812 0-1.6625 0.7-0.58125 0.7-0.58125 2 0 1.2938 0.58125 2 0.5875 0.7 1.6625 0.7 0.6 0 1.075-0.18125 0.475-0.1875 0.88125-0.575v1.1938z"/>
   <path id="path4308" d="m512.25 251.81q-0.875 0-1.325 0.68125t-0.45 2.0188q0 1.3312 0.45 2.0188 0.45 0.68125 1.325 0.68125 0.88125 0 1.3312-0.68125 0.45-0.6875 0.45-2.0188 0-1.3375-0.45-2.0188-0.45-0.68125-1.3312-0.68125zm0-0.975q1.4562 0 2.225 0.94375 0.775 0.94375 0.775 2.7312 0 1.7938-0.76875 2.7375-0.76875 0.9375-2.2312 0.9375-1.4562 0-2.225-0.9375-0.76875-0.94375-0.76875-2.7375 0-1.7875 0.76875-2.7312 0.76875-0.94375 2.225-0.94375z"/>
   <path id="path4310" d="m517.32 255.35v-4.3375h1.15v4.3375q0 0.94375 0.33125 1.3875 0.3375 0.44375 1.0375 0.44375 0.8125 0 1.2438-0.56875 0.43125-0.575 0.43125-1.6438v-3.9562h1.1562v6.9875h-1.1562v-1.05q-0.30625 0.60625-0.8375 0.91875-0.525 0.3125-1.2312 0.3125-1.075 0-1.6-0.7-0.525-0.70625-0.525-2.1312z"/>
   <path id="path4312" d="m530.37 253.66v4.3375h-1.1562v-4.3375q0-0.94375-0.33125-1.3875t-1.0375-0.44375q-0.80625 0-1.2438 0.575-0.43125 0.56875-0.43125 1.6375v3.9562h-1.15v-7h1.15v1.05q0.30625-0.6 0.83125-0.90625 0.525-0.3125 1.2438-0.3125 1.0688 0 1.5938 0.70625 0.53125 0.7 0.53125 2.125z"/>
   <path id="path4314" d="m535.34 249.01v1.9875h2.6125v0.89375h-2.6125v3.8q0 0.775 0.29375 1.0812 0.29375 0.30625 1.025 0.30625h1.2938v0.91875h-1.4062q-1.2938 0-1.825-0.51875-0.53125-0.51875-0.53125-1.7875v-3.8h-1.8688v-0.89375h1.8688v-1.9875h1.15z"/>
   <path id="path4316" d="m544.73 248.29q-0.83125 1.425-1.2438 2.8438-0.40625 1.4125-0.40625 2.85 0 1.4312 0.40625 2.85 0.4125 1.4188 1.2438 2.8562h-1q-0.94375-1.4875-1.4062-2.8938-0.4625-1.4125-0.4625-2.8125 0-1.3938 0.4625-2.8062 0.4625-1.4125 1.4062-2.8875h1z"/>
   <path id="path4318" d="m549.08 248.29h1q0.94375 1.475 1.4062 2.8875 0.4625 1.4125 0.4625 2.8062 0 1.4062-0.4625 2.8188-0.4625 1.4125-1.4062 2.8875h-1q0.83125-1.45 1.2375-2.8688 0.4125-1.4188 0.4125-2.8375 0-1.425-0.4125-2.8438-0.40625-1.4188-1.2375-2.85z"/>
  </g>
 </g>
 <g id="g52" stroke="#000" stroke-width="2" fill="none" transform="translate(0 -5.1371)">
  <path id="polyline54" d="m546.32 198.99v-26.992h-106.52v-14.756"/>
  <path id="polygon56" d="m444.8 157.24-5-10-5 10z"/>
 </g>
 <g id="g58" stroke="#000" stroke-width="2" fill="none" transform="translate(0 -5.1371)">
  <path id="polyline60" d="m338.9 198.99v-26.992h100.9v-14.756"/>
  <path id="polygon62" d="m444.8 157.24-5-10-5 10z"/>
 </g>
</svg>
