<?xml version="1.0" encoding="UTF-8" standalone="no"?>
<svg
   xmlns:dc="http://purl.org/dc/elements/1.1/"
   xmlns:cc="http://creativecommons.org/ns#"
   xmlns:rdf="http://www.w3.org/1999/02/22-rdf-syntax-ns#"
   xmlns:svg="http://www.w3.org/2000/svg"
   xmlns="http://www.w3.org/2000/svg"
   xmlns:sodipodi="http://sodipodi.sourceforge.net/DTD/sodipodi-0.dtd"
   xmlns:inkscape="http://www.inkscape.org/namespaces/inkscape"
   version="1.1"
   id="svg2"
   viewBox="318 98 282.00001 113.62443"
   height="6.4664311cm"
   width="14.946997cm"
   inkscape:version="0.91 r13725"
   sodipodi:docname="tarolo_fv.svg">
  <sodipodi:namedview
     pagecolor="#ffffff"
     bordercolor="#666666"
     borderopacity="1"
     objecttolerance="10"
     gridtolerance="10"
     guidetolerance="10"
     inkscape:pageopacity="0"
     inkscape:pageshadow="2"
     inkscape:window-width="650"
     inkscape:window-height="480"
     id="namedview32"
     showgrid="false"
     inkscape:zoom="0.86924444"
     inkscape:cx="263.86995"
     inkscape:cy="114.85284"
     inkscape:window-x="0"
     inkscape:window-y="25"
     inkscape:window-maximized="0"
     inkscape:current-layer="svg2" />
  <metadata
     id="metadata62">
    <rdf:RDF>
      <cc:Work
         rdf:about="">
        <dc:format>image/svg+xml</dc:format>
        <dc:type
           rdf:resource="http://purl.org/dc/dcmitype/StillImage" />
      </cc:Work>
    </rdf:RDF>
  </metadata>
  <defs
     id="defs60" />
  <g
     id="g4"
     transform="translate(-1,-5.1877868)">
    <path
       style="fill:#ffffff"
       d="m 500,160 a 90,60 0 0 1 -90,60 90,60 0 0 1 -90,-60 90,60 0 0 1 90,-60 90,60 0 0 1 90,60 z"
       id="ellipse6" />
    <path
       style="fill:none;fill-opacity:0;stroke:#ffffff"
       d="m 500,160 a 90,60 0 0 1 -90,60 90,60 0 0 1 -90,-60 90,60 0 0 1 90,-60 90,60 0 0 1 90,60 z"
       id="ellipse8" />
    <g
       style="font-style:normal;font-weight:normal;font-size:15.80440044px;font-family:sans-serif;text-anchor:middle;fill:#000000"
       id="text10" />
  </g>
  <g
     id="g14"
     transform="translate(-1,-5.1877868)">
    <path
       style="fill:#ffffff"
       d="m 600,160 a 90,60 0 0 1 -90,60 90,60 0 0 1 -90,-60 90,60 0 0 1 90,-60 90,60 0 0 1 90,60 z"
       id="ellipse16" />
    <path
       style="fill:none;fill-opacity:0;stroke:#ffffff"
       d="m 600,160 a 90,60 0 0 1 -90,60 90,60 0 0 1 -90,-60 90,60 0 0 1 90,-60 90,60 0 0 1 90,60 z"
       id="ellipse18" />
    <g
       style="font-style:normal;font-weight:normal;font-size:15.80440044px;font-family:sans-serif;text-anchor:middle;fill:#000000"
       id="text20" />
  </g>
  <g
     id="g24"
     transform="translate(-1,-5.1877868)">
    <path
       style="fill:none;fill-opacity:0;stroke:#000000;stroke-width:2"
       d="m 500,160 a 90,60 0 0 1 -90,60 90,60 0 0 1 -90,-60 90,60 0 0 1 90,-60 90,60 0 0 1 90,60 z"
       id="ellipse26" />
    <g
       style="font-style:normal;font-weight:normal;font-size:15.80440044px;font-family:sans-serif;text-anchor:middle;fill:#000000"
       id="text28" />
  </g>
  <g
     id="g32"
     transform="translate(-1,-5.1877868)">
    <path
       style="fill:none;fill-opacity:0;stroke:#000000;stroke-width:2"
       d="m 600,160 a 90,60 0 0 1 -90,60 90,60 0 0 1 -90,-60 90,60 0 0 1 90,-60 90,60 0 0 1 90,60 z"
       id="ellipse34" />
    <g
       style="font-style:normal;font-weight:normal;font-size:15.80440044px;font-family:sans-serif;text-anchor:middle;fill:#000000"
       id="text36" />
  </g>
  <g
     style="font-style:normal;font-weight:normal;font-size:15.80440044px;font-family:sans-serif;text-anchor:middle;fill:#000000"
     id="text40">
    <path
       d="m 438.41878,146.07042 q 0,-1.56655 -0.64823,-2.45401 -0.64051,-0.89517 -1.76719,-0.89517 -1.12668,0 -1.77491,0.89517 -0.64051,0.88746 -0.64051,2.45401 0,1.56655 0.64051,2.46172 0.64823,0.88745 1.77491,0.88745 1.12668,0 1.76719,-0.88745 0.64823,-0.89517 0.64823,-2.46172 z m -4.83084,-3.01735 q 0.44759,-0.7717 1.12668,-1.14211 0.68682,-0.37813 1.63601,-0.37813 1.57426,0 2.55432,1.25015 0.98778,1.25015 0.98778,3.28744 0,2.03728 -0.98778,3.28744 -0.98006,1.25015 -2.55432,1.25015 -0.94919,0 -1.63601,-0.37042 -0.67909,-0.37813 -1.12668,-1.14983 l 0,1.29646 -1.42764,0 0,-12.00764 1.42764,0 0,4.67649 z"
       style=""
       id="path45" />
    <path
       d="m 449.63929,145.70772 0,0.69453 -6.52858,0 q 0.0926,1.46623 0.87974,2.23793 0.79485,0.76398 2.20706,0.76398 0.818,0 1.58198,-0.20064 0.7717,-0.20065 1.52797,-0.60193 l 0,1.34276 q -0.76398,0.32411 -1.56655,0.49389 -0.80257,0.16977 -1.62829,0.16977 -2.06815,0 -3.27972,-1.20385 -1.20385,-1.20385 -1.20385,-3.25657 0,-2.12218 1.14212,-3.36461 1.14983,-1.25015 3.09451,-1.25015 1.74404,0 2.75497,1.12668 1.01864,1.11896 1.01864,3.04821 z m -1.41993,-0.41672 q -0.0154,-1.16526 -0.65594,-1.85979 -0.6328,-0.69453 -1.68231,-0.69453 -1.18841,0 -1.90609,0.67138 -0.70997,0.67137 -0.81801,1.89066 l 5.06235,-0.008 z"
       style=""
       id="path47" />
    <path
       d="m 457.65724,145.96238 q 0,-1.5434 -0.64051,-2.39227 -0.63279,-0.84887 -1.78262,-0.84887 -1.14212,0 -1.78263,0.84887 -0.63279,0.84887 -0.63279,2.39227 0,1.53568 0.63279,2.38455 0.64051,0.84887 1.78263,0.84887 1.14983,0 1.78262,-0.84887 0.64051,-0.84887 0.64051,-2.38455 z m 1.41993,3.34917 q 0,2.20706 -0.98006,3.27973 -0.98006,1.08038 -3.00191,1.08038 -0.74855,0 -1.41221,-0.11576 -0.66366,-0.10804 -1.28874,-0.33955 l 0,-1.38134 q 0.62508,0.33955 1.23472,0.50161 0.60965,0.16205 1.24244,0.16205 1.39677,0 2.0913,-0.73311 0.69453,-0.7254 0.69453,-2.19934 l 0,-0.70225 q -0.43987,0.76398 -1.12668,1.14211 -0.68681,0.37814 -1.64372,0.37814 -1.5897,0 -2.56204,-1.21157 -0.97234,-1.21157 -0.97234,-3.21027 0,-2.00642 0.97234,-3.21799 0.97234,-1.21156 2.56204,-1.21156 0.95691,0 1.64372,0.37813 0.68681,0.37813 1.12668,1.14211 l 0,-1.31189 1.41993,0 0,7.57037 z"
       style=""
       id="path49" />
    <path
       d="m 462.00191,141.74118 1.41993,0 0,8.64304 -1.41993,0 0,-8.64304 z m 0,-3.3646 1.41993,0 0,1.79806 -1.41993,0 0,-1.79806 z"
       style=""
       id="path51" />
    <path
       d="m 473.56968,145.16753 0,5.21669 -1.41993,0 0,-5.17039 q 0,-1.227 -0.47845,-1.83664 -0.47845,-0.60965 -1.43536,-0.60965 -1.14983,0 -1.81349,0.73312 -0.66366,0.73311 -0.66366,1.9987 l 0,4.88486 -1.42765,0 0,-8.64304 1.42765,0 0,1.34276 q 0.50932,-0.77941 1.19613,-1.16526 0.69453,-0.38585 1.59742,-0.38585 1.48938,0 2.25336,0.92604 0.76398,0.91832 0.76398,2.70866 z"
       style=""
       id="path53" />
    <path
       d="m 479.82816,138.39201 q -1.03407,1.77491 -1.53568,3.51123 -0.5016,1.73632 -0.5016,3.51895 0,1.78263 0.5016,3.53438 0.50932,1.74404 1.53568,3.51123 l -1.23471,0 q -1.15755,-1.81349 -1.73633,-3.56525 -0.57106,-1.75175 -0.57106,-3.48036 0,-1.72089 0.57106,-3.46493 0.57106,-1.74404 1.73633,-3.56525 l 1.23471,0 z"
       style=""
       id="path55" />
    <path
       d="m 482.36705,138.39201 1.23472,0 q 1.15755,1.82121 1.72861,3.56525 0.57877,1.74404 0.57877,3.46493 0,1.72861 -0.57877,3.48036 -0.57106,1.75176 -1.72861,3.56525 l -1.23472,0 q 1.02636,-1.76719 1.52797,-3.51123 0.50932,-1.75175 0.50932,-3.53438 0,-1.78263 -0.50932,-3.51895 -0.50161,-1.73632 -1.52797,-3.51123 z"
       style=""
       id="path57" />
    <path
       d="m 446.81487,165.46372 0,0.69452 -6.52858,0 q 0.0926,1.46623 0.87974,2.23793 0.79485,0.76398 2.20706,0.76398 0.818,0 1.58198,-0.20064 0.7717,-0.20064 1.52797,-0.60192 l 0,1.34275 q -0.76398,0.32412 -1.56655,0.49389 -0.80257,0.16978 -1.62829,0.16978 -2.06815,0 -3.27972,-1.20386 -1.20385,-1.20385 -1.20385,-3.25657 0,-2.12217 1.14212,-3.3646 1.14983,-1.25016 3.09451,-1.25016 1.74404,0 2.75497,1.12668 1.01864,1.11897 1.01864,3.04822 z m -1.41993,-0.41672 q -0.0154,-1.16527 -0.65594,-1.8598 -0.6328,-0.69453 -1.68231,-0.69453 -1.18841,0 -1.90609,0.67138 -0.70997,0.67138 -0.818,1.89067 l 5.06234,-0.008 z"
       style=""
       id="path59" />
    <path
       d="m 456.32992,164.92353 0,5.21668 -1.41993,0 0,-5.17038 q 0,-1.227 -0.47845,-1.83665 -0.47845,-0.60964 -1.43536,-0.60964 -1.14983,0 -1.81349,0.73312 -0.66366,0.73311 -0.66366,1.9987 l 0,4.88485 -1.42765,0 0,-8.64303 1.42765,0 0,1.34276 q 0.50932,-0.77942 1.19613,-1.16527 0.69453,-0.38585 1.59742,-0.38585 1.48938,0 2.25336,0.92604 0.76398,0.91832 0.76398,2.70867 z"
       style=""
       id="path61" />
    <path
       d="m 464.86491,162.80907 0,-4.6765 1.41993,0 0,12.00764 -1.41993,0 0,-1.29645 q -0.44758,0.7717 -1.13439,1.14983 -0.6791,0.37042 -1.63601,0.37042 -1.56655,0 -2.55432,-1.25016 -0.98006,-1.25015 -0.98006,-3.28744 0,-2.03728 0.98006,-3.28743 0.98777,-1.25016 2.55432,-1.25016 0.95691,0 1.63601,0.37814 0.68681,0.37041 1.13439,1.14211 z m -4.83855,3.01734 q 0,1.56655 0.64051,2.46172 0.64823,0.88746 1.77491,0.88746 1.12668,0 1.77491,-0.88746 0.64822,-0.89517 0.64822,-2.46172 0,-1.56655 -0.64822,-2.454 -0.64823,-0.89517 -1.77491,-0.89517 -1.12668,0 -1.77491,0.89517 -0.64051,0.88745 -0.64051,2.454 z"
       style=""
       id="path63" />
    <path
       d="m 472.62049,158.14801 q -1.03408,1.77491 -1.53568,3.51123 -0.50161,1.73632 -0.50161,3.51895 0,1.78262 0.50161,3.53438 0.50932,1.74404 1.53568,3.51123 l -1.23472,0 q -1.15755,-1.81349 -1.73632,-3.56525 -0.57106,-1.75176 -0.57106,-3.48036 0,-1.72089 0.57106,-3.46493 0.57106,-1.74404 1.73632,-3.56525 l 1.23472,0 z"
       style=""
       id="path65" />
    <path
       d="m 475.15938,158.14801 1.23472,0 q 1.15755,1.82121 1.72861,3.56525 0.57877,1.74404 0.57877,3.46493 0,1.7286 -0.57877,3.48036 -0.57106,1.75176 -1.72861,3.56525 l -1.23472,0 q 1.02636,-1.76719 1.52797,-3.51123 0.50932,-1.75176 0.50932,-3.53438 0,-1.78263 -0.50932,-3.51895 -0.50161,-1.73632 -1.52797,-3.51123 z"
       style=""
       id="path67" />
  </g>
  <g
     style="font-style:normal;font-weight:normal;font-size:15.80440044px;font-family:sans-serif;text-anchor:middle;fill:#000000"
     id="text46">
    <path
       d="m 353.18666,148.4241 1.62829,0 0,1.96012 -1.62829,0 0,-1.96012 z"
       style=""
       id="path70" />
    <path
       d="m 362.39303,138.37658 0,1.1807 -1.35819,0 q -0.76398,0 -1.06494,0.30868 -0.29325,0.30868 -0.29325,1.11124 l 0,0.76398 2.33825,0 0,1.10353 -2.33825,0 0,7.53951 -1.42764,0 0,-7.53951 -1.35819,0 0,-1.10353 1.35819,0 0,-0.60192 q 0,-1.44308 0.67138,-2.09902 0.67137,-0.66366 2.12989,-0.66366 l 1.34275,0 z"
       style=""
       id="path72" />
    <path
       d="m 368.58206,143.06851 q -0.23923,-0.13891 -0.52476,-0.20064 -0.27781,-0.0695 -0.61735,-0.0695 -1.20386,0 -1.85208,0.78714 -0.64051,0.77941 -0.64051,2.24564 l 0,4.55303 -1.42765,0 0,-8.64304 1.42765,0 0,1.34276 q 0.44758,-0.78713 1.16526,-1.16526 0.71768,-0.38585 1.74404,-0.38585 0.14663,0 0.32412,0.0232 0.17749,0.0154 0.39356,0.054 l 0.008,1.45851 z"
       style=""
       id="path74" />
    <path
       d="m 373.0965,142.73668 q -1.14211,0 -1.80578,0.89517 -0.66366,0.88745 -0.66366,2.43857 0,1.55111 0.65595,2.44628 0.66366,0.88746 1.81349,0.88746 1.1344,0 1.79806,-0.89517 0.66366,-0.89517 0.66366,-2.43857 0,-1.53568 -0.66366,-2.43086 -0.66366,-0.90288 -1.79806,-0.90288 z m 0,-1.20385 q 1.85208,0 2.90931,1.20385 1.05722,1.20385 1.05722,3.33374 0,2.12217 -1.05722,3.33374 -1.05723,1.20385 -2.90931,1.20385 -1.8598,0 -2.91702,-1.20385 -1.04951,-1.21157 -1.04951,-3.33374 0,-2.12989 1.04951,-3.33374 1.05722,-1.20385 2.91702,-1.20385 z"
       style=""
       id="path76" />
    <path
       d="m 386.59352,145.16753 0,5.21669 -1.41993,0 0,-5.17039 q 0,-1.227 -0.47845,-1.83664 -0.47845,-0.60965 -1.43536,-0.60965 -1.14983,0 -1.81349,0.73312 -0.66367,0.73311 -0.66367,1.9987 l 0,4.88486 -1.42764,0 0,-8.64304 1.42764,0 0,1.34276 q 0.50933,-0.77941 1.19614,-1.16526 0.69453,-0.38585 1.59742,-0.38585 1.48938,0 2.25336,0.92604 0.76398,0.91832 0.76398,2.70866 z"
       style=""
       id="path78" />
    <path
       d="m 390.84558,139.28718 0,2.454 2.92474,0 0,1.10353 -2.92474,0 0,4.69194 q 0,1.05722 0.28553,1.35819 0.29325,0.30096 1.1807,0.30096 l 1.45851,0 0,1.18842 -1.45851,0 q -1.64372,0 -2.2688,-0.60965 -0.62507,-0.61736 -0.62507,-2.23792 l 0,-4.69194 -1.0418,0 0,-1.10353 1.0418,0 0,-2.454 1.42764,0 z"
       style=""
       id="path80" />
    <path
       d="m 399.05646,138.39201 q -1.03407,1.77491 -1.53568,3.51123 -0.5016,1.73632 -0.5016,3.51895 0,1.78263 0.5016,3.53438 0.50932,1.74404 1.53568,3.51123 l -1.23472,0 q -1.15754,-1.81349 -1.73632,-3.56525 -0.57106,-1.75175 -0.57106,-3.48036 0,-1.72089 0.57106,-3.46493 0.57106,-1.74404 1.73632,-3.56525 l 1.23472,0 z"
       style=""
       id="path82" />
    <path
       d="m 401.59536,138.39201 1.23471,0 q 1.15755,1.82121 1.72861,3.56525 0.57878,1.74404 0.57878,3.46493 0,1.72861 -0.57878,3.48036 -0.57106,1.75176 -1.72861,3.56525 l -1.23471,0 q 1.02636,-1.76719 1.52796,-3.51123 0.50932,-1.75175 0.50932,-3.53438 0,-1.78263 -0.50932,-3.51895 -0.5016,-1.73632 -1.52796,-3.51123 z"
       style=""
       id="path84" />
    <path
       d="m 353.20209,168.1801 1.62829,0 0,1.96011 -1.62829,0 0,-1.96011 z"
       style=""
       id="path86" />
    <path
       d="m 364.23739,165.82641 q 0,-1.56655 -0.64822,-2.454 -0.64051,-0.89517 -1.7672,-0.89517 -1.12668,0 -1.7749,0.89517 -0.64051,0.88745 -0.64051,2.454 0,1.56655 0.64051,2.46172 0.64822,0.88746 1.7749,0.88746 1.12669,0 1.7672,-0.88746 0.64822,-0.89517 0.64822,-2.46172 z m -4.83083,-3.01734 q 0.44758,-0.7717 1.12668,-1.14211 0.68681,-0.37814 1.636,-0.37814 1.57427,0 2.55432,1.25016 0.98778,1.25015 0.98778,3.28743 0,2.03729 -0.98778,3.28744 -0.98005,1.25016 -2.55432,1.25016 -0.94919,0 -1.636,-0.37042 -0.6791,-0.37813 -1.12668,-1.14983 l 0,1.29645 -1.42765,0 0,-12.00764 1.42765,0 0,4.6765 z"
       style=""
       id="path88" />
    <path
       d="m 371.99297,165.79555 q -1.72089,0 -2.38455,0.39356 -0.66366,0.39357 -0.66366,1.34276 0,0.75626 0.49389,1.20385 0.5016,0.43987 1.35819,0.43987 1.1807,0 1.89066,-0.83344 0.71768,-0.84115 0.71768,-2.23021 l 0,-0.31639 -1.41221,0 z m 2.83214,-0.5865 0,4.93116 -1.41993,0 0,-1.31189 q -0.48617,0.78714 -1.21157,1.16527 -0.72539,0.37042 -1.77491,0.37042 -1.32732,0 -2.11445,-0.74084 -0.77942,-0.74854 -0.77942,-1.9987 0,-1.45851 0.97234,-2.19934 0.98006,-0.74083 2.91703,-0.74083 l 1.99098,0 0,-0.13891 q 0,-0.98005 -0.64823,-1.51253 -0.64051,-0.54019 -1.80577,-0.54019 -0.74083,0 -1.44308,0.17749 -0.70225,0.1775 -1.35047,0.53248 l 0,-1.31189 q 0.77941,-0.30096 1.51253,-0.44759 0.73311,-0.15434 1.42764,-0.15434 1.87523,0 2.80127,0.97234 0.92604,0.97234 0.92604,2.94789 z"
       style=""
       id="path90" />
    <path
       d="m 383.97746,161.82901 0,1.32732 q -0.60193,-0.33183 -1.21157,-0.49388 -0.60192,-0.16978 -1.21928,-0.16978 -1.38134,0 -2.14533,0.87974 -0.76398,0.87202 -0.76398,2.454 0,1.58199 0.76398,2.46172 0.76399,0.87202 2.14533,0.87202 0.61736,0 1.21928,-0.16205 0.60964,-0.16978 1.21157,-0.50161 l 0,1.31189 q -0.59421,0.27781 -1.23472,0.41672 -0.63279,0.13891 -1.35047,0.13891 -1.9524,0 -3.10223,-1.22701 -1.14984,-1.227 -1.14984,-3.31059 0,-2.11445 1.15755,-3.32602 1.16527,-1.21157 3.18712,-1.21157 0.65595,0 1.28102,0.13891 0.62508,0.13119 1.21157,0.40128 z"
       style=""
       id="path92" />
    <path
       d="m 386.40831,158.13257 1.42764,0 0,7.09192 4.23663,-3.72731 1.8135,0 -4.5839,4.04371 4.77682,4.59932 -1.85208,0 -4.39097,-4.22119 0,4.22119 -1.42764,0 0,-12.00764 z"
       style=""
       id="path94" />
    <path
       d="m 399.04103,158.14801 q -1.03408,1.77491 -1.53568,3.51123 -0.50161,1.73632 -0.50161,3.51895 0,1.78262 0.50161,3.53438 0.50932,1.74404 1.53568,3.51123 l -1.23472,0 q -1.15755,-1.81349 -1.73632,-3.56525 -0.57106,-1.75176 -0.57106,-3.48036 0,-1.72089 0.57106,-3.46493 0.57105,-1.74404 1.73632,-3.56525 l 1.23472,0 z"
       style=""
       id="path96" />
    <path
       d="m 401.57992,158.14801 1.23472,0 q 1.15754,1.82121 1.7286,3.56525 0.57878,1.74404 0.57878,3.46493 0,1.7286 -0.57878,3.48036 -0.57106,1.75176 -1.7286,3.56525 l -1.23472,0 q 1.02636,-1.76719 1.52796,-3.51123 0.50932,-1.75176 0.50932,-3.53438 0,-1.78263 -0.50932,-3.51895 -0.5016,-1.73632 -1.52796,-3.51123 z"
       style=""
       id="path98" />
  </g>
  <g
     style="font-style:normal;font-weight:normal;font-size:15.80440044px;font-family:sans-serif;text-anchor:middle;fill:#000000"
     id="text52">
    <path
       d="m 516.98342,148.4241 1.62829,0 0,1.96012 -1.62829,0 0,-1.96012 z"
       style=""
       id="path101" />
    <path
       d="m 528.79814,141.74118 0,8.64304 -1.42765,0 0,-7.53951 -3.89708,0 0,7.53951 -1.42764,0 0,-7.53951 -1.35819,0 0,-1.10353 1.35819,0 0,-0.60192 q 0,-1.41221 0.66366,-2.08359 0.67138,-0.67909 2.05272,-0.67909 l 1.42764,0 0,1.1807 -1.35819,0 q -0.76398,0 -1.06494,0.30868 -0.29325,0.30868 -0.29325,1.11124 l 0,0.76398 5.32473,0 z m -1.42765,-3.34917 1.42765,0 0,1.79806 -1.42765,0 0,-1.79806 z"
       style=""
       id="path103" />
    <path
       d="m 538.96913,145.16753 0,5.21669 -1.41992,0 0,-5.17039 q 0,-1.227 -0.47846,-1.83664 -0.47845,-0.60965 -1.43536,-0.60965 -1.14983,0 -1.81349,0.73312 -0.66366,0.73311 -0.66366,1.9987 l 0,4.88486 -1.42765,0 0,-8.64304 1.42765,0 0,1.34276 q 0.50932,-0.77941 1.19613,-1.16526 0.69453,-0.38585 1.59742,-0.38585 1.48938,0 2.25336,0.92604 0.76398,0.91832 0.76398,2.70866 z"
       style=""
       id="path105" />
    <path
       d="m 547.50413,143.05307 0,-4.67649 1.41992,0 0,12.00764 -1.41992,0 0,-1.29646 q -0.44759,0.7717 -1.1344,1.14983 -0.6791,0.37042 -1.636,0.37042 -1.56655,0 -2.55433,-1.25015 -0.98006,-1.25016 -0.98006,-3.28744 0,-2.03729 0.98006,-3.28744 0.98778,-1.25015 2.55433,-1.25015 0.9569,0 1.636,0.37813 0.68681,0.37041 1.1344,1.14211 z m -4.83856,3.01735 q 0,1.56655 0.64051,2.46172 0.64823,0.88745 1.77491,0.88745 1.12668,0 1.77491,-0.88745 0.64823,-0.89517 0.64823,-2.46172 0,-1.56655 -0.64823,-2.45401 -0.64823,-0.89517 -1.77491,-0.89517 -1.12668,0 -1.77491,0.89517 -0.64051,0.88746 -0.64051,2.45401 z"
       style=""
       id="path107" />
    <path
       d="m 555.2597,138.39201 q -1.03407,1.77491 -1.53568,3.51123 -0.5016,1.73632 -0.5016,3.51895 0,1.78263 0.5016,3.53438 0.50932,1.74404 1.53568,3.51123 l -1.23472,0 q -1.15754,-1.81349 -1.73632,-3.56525 -0.57106,-1.75175 -0.57106,-3.48036 0,-1.72089 0.57106,-3.46493 0.57106,-1.74404 1.73632,-3.56525 l 1.23472,0 z"
       style=""
       id="path109" />
    <path
       d="m 557.79859,138.39201 1.23472,0 q 1.15755,1.82121 1.72861,3.56525 0.57877,1.74404 0.57877,3.46493 0,1.72861 -0.57877,3.48036 -0.57106,1.75176 -1.72861,3.56525 l -1.23472,0 q 1.02636,-1.76719 1.52797,-3.51123 0.50932,-1.75175 0.50932,-3.53438 0,-1.78263 -0.50932,-3.51895 -0.50161,-1.73632 -1.52797,-3.51123 z"
       style=""
       id="path111" />
    <path
       d="m 509.68315,168.1801 1.62828,0 0,1.96011 -1.62828,0 0,-1.96011 z"
       style=""
       id="path113" />
    <path
       d="m 520.73388,161.82901 0,1.32732 q -0.60193,-0.33183 -1.21157,-0.49388 -0.60192,-0.16978 -1.21928,-0.16978 -1.38135,0 -2.14533,0.87974 -0.76398,0.87202 -0.76398,2.454 0,1.58199 0.76398,2.46172 0.76398,0.87202 2.14533,0.87202 0.61736,0 1.21928,-0.16205 0.60964,-0.16978 1.21157,-0.50161 l 0,1.31189 q -0.59421,0.27781 -1.23472,0.41672 -0.63279,0.13891 -1.35047,0.13891 -1.9524,0 -3.10223,-1.22701 -1.14984,-1.227 -1.14984,-3.31059 0,-2.11445 1.15755,-3.32602 1.16527,-1.21157 3.18712,-1.21157 0.65594,0 1.28102,0.13891 0.62508,0.13119 1.21157,0.40128 z"
       style=""
       id="path115" />
    <path
       d="m 526.56792,162.49267 q -1.14211,0 -1.80577,0.89517 -0.66366,0.88746 -0.66366,2.43857 0,1.55112 0.65594,2.44629 0.66366,0.88745 1.81349,0.88745 1.1344,0 1.79806,-0.89517 0.66367,-0.89517 0.66367,-2.43857 0,-1.53568 -0.66367,-2.43085 -0.66366,-0.90289 -1.79806,-0.90289 z m 0,-1.20385 q 1.85208,0 2.90931,1.20385 1.05723,1.20385 1.05723,3.33374 0,2.12218 -1.05723,3.33374 -1.05723,1.20386 -2.90931,1.20386 -1.85979,0 -2.91702,-1.20386 -1.04951,-1.21156 -1.04951,-3.33374 0,-2.12989 1.04951,-3.33374 1.05723,-1.20385 2.91702,-1.20385 z"
       style=""
       id="path117" />
    <path
       d="m 532.7338,166.7293 0,-5.23212 1.41993,0 0,5.1781 q 0,1.22701 0.47845,1.84436 0.47846,0.60965 1.43536,0.60965 1.14983,0 1.8135,-0.73312 0.67137,-0.73311 0.67137,-1.9987 l 0,-4.90029 1.41993,0 0,8.64303 -1.41993,0 0,-1.32732 q -0.51703,0.78713 -1.20385,1.17298 -0.67909,0.37814 -1.58198,0.37814 -1.48938,0 -2.26108,-0.92604 -0.7717,-0.92604 -0.7717,-2.70867 z m 3.57297,-5.44048 0,0 z"
       style=""
       id="path119" />
    <path
       d="m 550.09704,164.92353 0,5.21668 -1.41993,0 0,-5.17038 q 0,-1.227 -0.47845,-1.83665 -0.47846,-0.60964 -1.43536,-0.60964 -1.14984,0 -1.8135,0.73312 -0.66366,0.73311 -0.66366,1.9987 l 0,4.88485 -1.42764,0 0,-8.64303 1.42764,0 0,1.34276 q 0.50932,-0.77942 1.19613,-1.16527 0.69453,-0.38585 1.59742,-0.38585 1.48938,0 2.25336,0.92604 0.76399,0.91832 0.76399,2.70867 z"
       style=""
       id="path121" />
    <path
       d="m 554.3491,159.04318 0,2.454 2.92474,0 0,1.10353 -2.92474,0 0,4.69193 q 0,1.05723 0.28553,1.35819 0.29324,0.30097 1.1807,0.30097 l 1.45851,0 0,1.18841 -1.45851,0 q -1.64372,0 -2.2688,-0.60964 -0.62508,-0.61736 -0.62508,-2.23793 l 0,-4.69193 -1.04179,0 0,-1.10353 1.04179,0 0,-2.454 1.42765,0 z"
       style=""
       id="path123" />
    <path
       d="m 562.55998,158.14801 q -1.03408,1.77491 -1.53568,3.51123 -0.50161,1.73632 -0.50161,3.51895 0,1.78262 0.50161,3.53438 0.50932,1.74404 1.53568,3.51123 l -1.23472,0 q -1.15755,-1.81349 -1.73632,-3.56525 -0.57106,-1.75176 -0.57106,-3.48036 0,-1.72089 0.57106,-3.46493 0.57105,-1.74404 1.73632,-3.56525 l 1.23472,0 z"
       style=""
       id="path125" />
    <path
       d="m 565.09887,158.14801 1.23472,0 q 1.15755,1.82121 1.7286,3.56525 0.57878,1.74404 0.57878,3.46493 0,1.7286 -0.57878,3.48036 -0.57105,1.75176 -1.7286,3.56525 l -1.23472,0 q 1.02636,-1.76719 1.52796,-3.51123 0.50932,-1.75176 0.50932,-3.53438 0,-1.78263 -0.50932,-3.51895 -0.5016,-1.73632 -1.52796,-3.51123 z"
       style=""
       id="path127" />
  </g>
</svg>
