<?xml version="1.0" encoding="UTF-8"?>
<svg id="svg69" width="11.879cm" height="6.9469cm" version="1.1" viewBox="339 139 219.75 128.02" xmlns="http://www.w3.org/2000/svg" xmlns:cc="http://creativecommons.org/ns#" xmlns:dc="http://purl.org/dc/elements/1.1/" xmlns:rdf="http://www.w3.org/1999/02/22-rdf-syntax-ns#">
 <metadata id="metadata73">
  <rdf:RDF>
   <cc:Work rdf:about="">
    <dc:format>image/svg+xml</dc:format>
    <dc:type rdf:resource="http://purl.org/dc/dcmitype/StillImage"/>
   </cc:Work>
  </rdf:RDF>
 </metadata>
 <g id="Háttér" transform="translate(-2.2463 -.2481)">
  <path id="rect4" d="m360 140h20v20h-20z" fill="#fff" stroke="#000" stroke-width="2"/>
  <g id="text8" aria-label="a">
   <path id="path846" d="m350.49 150.98q-1.4751 0-2.0439 0.33734-0.56886 0.33735-0.56886 1.1509 0 0.64823 0.42334 1.0319 0.42995 0.37703 1.1642 0.37703 1.012 0 1.6206-0.71437 0.61516-0.721 0.61516-1.9116v-0.2712zm2.4276-0.50271v4.2267h-1.2171v-1.1245q-0.41672 0.67468-1.0385 0.9988-0.62177 0.3175-1.5214 0.3175-1.1377 0-1.8124-0.635-0.66807-0.64162-0.66807-1.7132 0-1.2502 0.83344-1.8852 0.84005-0.635 2.5003-0.635h1.7066v-0.11907q0-0.84005-0.55562-1.2965-0.54902-0.46302-1.5478-0.46302-0.635 0-1.2369 0.15213-0.60193 0.15214-1.1576 0.45641v-1.1245q0.66808-0.25797 1.2965-0.38365 0.62838-0.13229 1.2237-0.13229 1.6073 0 2.4011 0.83344 0.79375 0.83344 0.79375 2.5268z" style=""/>
  </g>
  <path id="rect10" d="m360 180h20v20h-20z" fill="#fff" stroke="#000" stroke-width="2"/>
  <g id="text14" aria-label="b">
   <path id="path850" d="m352.3 191q0-1.3428-0.55563-2.1034-0.54901-0.76729-1.5147-0.76729-0.96574 0-1.5214 0.76729-0.54901 0.76068-0.54901 2.1034 0 1.3428 0.54901 2.11 0.55562 0.76068 1.5214 0.76068 0.96573 0 1.5147-0.76068 0.55563-0.76729 0.55563-2.11zm-4.1407-2.5863q0.38364-0.66146 0.96573-0.97896 0.5887-0.32412 1.4023-0.32412 1.3494 0 2.1894 1.0716 0.84666 1.0716 0.84666 2.8178 0 1.7462-0.84666 2.8178-0.84006 1.0716-2.1894 1.0716-0.81359 0-1.4023-0.3175-0.58209-0.32412-0.96573-0.98558v1.1113h-1.2237v-10.292h1.2237z" style=""/>
  </g>
  <path id="rect16" d="m360 220h20v20h-20z" fill="#fff" stroke="#000" stroke-width="2"/>
  <g id="text20" aria-label="c">
   <path id="path854" d="m352.88 227.58v1.1377q-0.51594-0.28442-1.0385-0.42333-0.51594-0.14552-1.0451-0.14552-1.184 0-1.8389 0.75406-0.65484 0.74745-0.65484 2.1034 0 1.356 0.65484 2.11 0.65485 0.74745 1.8389 0.74745 0.52917 0 1.0451-0.1389 0.52255-0.14552 1.0385-0.42995v1.1245q-0.50932 0.23812-1.0583 0.35719-0.54239 0.11906-1.1576 0.11906-1.6735 0-2.6591-1.0517-0.98557-1.0517-0.98557-2.8377 0-1.8124 0.99219-2.8509 0.9988-1.0385 2.7318-1.0385 0.56224 0 1.098 0.11906 0.53578 0.11245 1.0385 0.34396z" style=""/>
  </g>
  <g id="text24" aria-label="MyString">
   <path id="path857" d="m341.25 254.82h1.991l2.5202 6.7204 2.5334-6.7204h1.991v9.8756h-1.3031v-8.6717l-2.5466 6.7734h-1.3428l-2.5466-6.7734v8.6717h-1.2965z" style=""/>
   <path id="path859" d="m355.97 265.39q-0.51593 1.3229-1.0054 1.7264t-1.3097 0.40349h-0.97234v-1.0186h0.71438q0.5027 0 0.78052-0.23812 0.27781-0.23813 0.61516-1.1245l0.21828-0.55563-2.9964-7.2893h1.2898l2.3151 5.7944 2.3151-5.7944h1.2898z" style=""/>
   <path id="path861" d="m366.88 255.15v1.3031q-0.76068-0.36381-1.4354-0.5424t-1.3031-0.17859q-1.0914 0-1.6867 0.42333-0.5887 0.42333-0.5887 1.2039 0 0.65484 0.39026 0.99219 0.39688 0.33073 1.4949 0.53578l0.80698 0.16536q1.4949 0.28443 2.2027 1.0054 0.71437 0.71438 0.71437 1.9182 0 1.4354-0.96573 2.1762-0.95912 0.74084-2.8178 0.74084-0.70115 0-1.4949-0.15875-0.78713-0.15876-1.6338-0.46964v-1.3758q0.81359 0.45641 1.5941 0.68792 0.78053 0.23151 1.5346 0.23151 1.1443 0 1.7661-0.44979t0.62177-1.2832q0-0.72761-0.44979-1.1377-0.44318-0.41011-1.4618-0.61516l-0.81359-0.15875q-1.4949-0.29766-2.163-0.93266-0.66807-0.635-0.66807-1.7661 0-1.3097 0.91943-2.0638 0.92604-0.75407 2.5466-0.75407 0.69453 0 1.4155 0.12568t1.4751 0.37703z" style=""/>
   <path id="path863" d="m370.71 255.19v2.1034h2.5069v0.94589h-2.5069v4.0217q0 0.9062 0.24474 1.1642 0.25136 0.25797 1.012 0.25797h1.2502v1.0186h-1.2502q-1.4089 0-1.9447-0.52255-0.53578-0.52917-0.53578-1.9182v-4.0217h-0.89297v-0.94589h0.89297v-2.1034z" style=""/>
   <path id="path865" d="m379.11 258.43q-0.20505-0.11906-0.44979-0.17198-0.23813-0.0595-0.52917-0.0595-1.0319 0-1.5875 0.67469-0.54901 0.66807-0.54901 1.9248v3.9026h-1.2237v-7.4084h1.2237v1.1509q0.38365-0.67469 0.99881-0.9988 0.61515-0.33073 1.4949-0.33073 0.12567 0 0.27781 0.0198 0.15214 0.0132 0.33734 0.0463z" style=""/>
   <path id="path867" d="m380.4 257.29h1.2171v7.4084h-1.2171zm0-2.884h1.2171v1.5412h-1.2171z" style=""/>
   <path id="path869" d="m390.32 260.23v4.4715h-1.2171v-4.4318q0-1.0517-0.4101-1.5743-0.41011-0.52256-1.2303-0.52256-0.98557 0-1.5544 0.62839-0.56885 0.62839-0.56885 1.7132v4.187h-1.2237v-7.4084h1.2237v1.1509q0.43656-0.66807 1.0253-0.9988 0.59531-0.33073 1.3692-0.33073 1.2766 0 1.9315 0.79375 0.65485 0.78714 0.65485 2.3217z" style=""/>
   <path id="path871" d="m397.64 260.91q0-1.3229-0.54902-2.0505-0.54239-0.7276-1.528-0.7276-0.97896 0-1.528 0.7276-0.5424 0.72761-0.5424 2.0505 0 1.3163 0.5424 2.0439 0.54901 0.7276 1.528 0.7276 0.98558 0 1.528-0.7276 0.54902-0.72761 0.54902-2.0439zm1.2171 2.8707q0 1.8918-0.84005 2.8112-0.84006 0.92604-2.5731 0.92604-0.64162 0-1.2105-0.0992-0.56886-0.0926-1.1046-0.29104v-1.184q0.53578 0.29104 1.0583 0.42995 0.52255 0.1389 1.065 0.1389 1.1972 0 1.7926-0.62838 0.59532-0.62178 0.59532-1.8852v-0.60192q-0.37704 0.65484-0.96573 0.97896-0.5887 0.32411-1.4089 0.32411-1.3626 0-2.196-1.0385t-0.83344-2.7517q0-1.7198 0.83344-2.7583t2.196-1.0385q0.82021 0 1.4089 0.32411 0.58869 0.32412 0.96573 0.97896v-1.1245h1.2171z" style=""/>
  </g>
  <path id="rect26" d="m460 160h20v20h-20z" fill="#fff" stroke="#00f" stroke-width="2"/>
  <g id="g32" fill="none" stroke="#000" stroke-width="2">
   <path id="line28" d="m381 151.22 74.558 8.284"/>
   <path id="polyline30" d="m447.29 163.62 10.491-3.865-9.387-6.074"/>
  </g>
  <g id="g38" fill="none" stroke="#000" stroke-width="2">
   <path id="line34" d="m380 190 75.562-9.445"/>
   <path id="polyline36" d="m448.48 186.48 9.302-6.202-10.543-3.721"/>
  </g>
  <g id="g44" fill="none" stroke="#000" stroke-width="2">
   <path id="line40" d="m380 230h75.528"/>
   <path id="polyline42" d="m447.76 235 10-5-10-5"/>
  </g>
  <g id="text48" fill="#00f" aria-label="2">
   <path id="path881" d="m468.29 173.58h4.6633v1.1245h-6.2706v-1.1245q0.76068-0.78714 2.0704-2.1101 1.3163-1.3295 1.6536-1.7132 0.64162-0.72099 0.89297-1.2171 0.25797-0.50271 0.25797-0.98557 0-0.78714-0.55563-1.2832-0.54901-0.49609-1.4354-0.49609-0.62839 0-1.3295 0.21828-0.69453 0.21828-1.4883 0.66146v-1.3494q0.80698-0.32411 1.5081-0.48948 0.70114-0.16536 1.2832-0.16536 1.5346 0 2.4474 0.76729t0.91281 2.0505q0 0.60854-0.23151 1.1576-0.22489 0.5424-0.82682 1.2832-0.16537 0.19183-1.0517 1.1113-0.88636 0.91281-2.5003 2.5598z" style=""/>
  </g>
  <path id="rect50" d="m480 160h80v20h-80z" fill="#fff" stroke="#00f" stroke-width="2"/>
  <g id="text54" fill="#00f" aria-label="helló világ">
   <path id="path885" d="m492.69 170.23v4.4715h-1.2171v-4.4318q0-1.0517-0.41011-1.5743-0.4101-0.52255-1.2303-0.52255-0.98558 0-1.5544 0.62838-0.56886 0.62839-0.56886 1.7132v4.187h-1.2237v-10.292h1.2237v4.0349q0.43656-0.66808 1.0253-0.99881 0.59532-0.33073 1.3692-0.33073 1.2766 0 1.9315 0.79375 0.65484 0.78714 0.65484 2.3217z" style=""/>
   <path id="path887" d="m501.47 170.69v0.59531h-5.596q0.0794 1.2568 0.75406 1.9182 0.6813 0.65484 1.8918 0.65484 0.70114 0 1.356-0.17198 0.66146-0.17198 1.3097-0.51594v1.1509q-0.65485 0.27782-1.3428 0.42334-0.68792 0.14552-1.3957 0.14552-1.7727 0-2.8112-1.0319-1.0319-1.0319-1.0319-2.7914 0-1.819 0.97896-2.884 0.98558-1.0716 2.6525-1.0716 1.4949 0 2.3614 0.96573 0.87313 0.95912 0.87313 2.6128zm-1.2171-0.35719q-0.0132-0.9988-0.56224-1.5941-0.5424-0.59531-1.442-0.59531-1.0186 0-1.6338 0.57547-0.60854 0.57547-0.70115 1.6206z" style=""/>
   <path id="path889" d="m503.47 164.41h1.2171v10.292h-1.2171z" style=""/>
   <path id="path891" d="m507.23 164.41h1.2171v10.292h-1.2171z" style=""/>
   <path id="path893" d="m513.86 168.14q-0.97896 0-1.5478 0.76729-0.56885 0.76068-0.56885 2.0902 0 1.3295 0.56224 2.0968 0.56885 0.76068 1.5544 0.76068 0.97234 0 1.5412-0.76729 0.56885-0.76729 0.56885-2.0902 0-1.3163-0.56885-2.0836-0.56886-0.77391-1.5412-0.77391zm0-1.0319q1.5875 0 2.4937 1.0319t0.9062 2.8575q0 1.819-0.9062 2.8575-0.9062 1.0319-2.4937 1.0319-1.5941 0-2.5003-1.0319-0.89959-1.0385-0.89959-2.8575 0-1.8256 0.89959-2.8575 0.9062-1.0319 2.5003-1.0319zm0.91943-3.2478h1.3163l-2.1564 2.4871h-1.012z" style=""/>
   <path id="path895" d="m522.71 167.29h1.2898l2.3151 6.2177 2.3151-6.2177h1.2898l-2.7781 7.4084h-1.6536z" style=""/>
   <path id="path897" d="m531.6 167.29h1.2171v7.4084h-1.2171zm0-2.884h1.2171v1.5412h-1.2171z" style=""/>
   <path id="path899" d="m535.35 164.41h1.2171v10.292h-1.2171z" style=""/>
   <path id="path901" d="m542.48 170.98q-1.475 0-2.0439 0.33734-0.56886 0.33735-0.56886 1.1509 0 0.64823 0.42334 1.0319 0.42995 0.37703 1.1642 0.37703 1.012 0 1.6206-0.71437 0.61516-0.721 0.61516-1.9116v-0.2712zm2.4276-0.50271v4.2267h-1.2171v-1.1245q-0.41672 0.67468-1.0385 0.9988-0.62177 0.3175-1.5214 0.3175-1.1377 0-1.8124-0.635-0.66807-0.64162-0.66807-1.7132 0-1.2502 0.83344-1.8852 0.84005-0.635 2.5003-0.635h1.7066v-0.11907q0-0.84005-0.55562-1.2965-0.54902-0.46302-1.5478-0.46302-0.635 0-1.2369 0.15213-0.60193 0.15214-1.1576 0.45641v-1.1245q0.66808-0.25797 1.2965-0.38365 0.62838-0.13229 1.2237-0.13229 1.6073 0 2.4011 0.83344 0.79375 0.83344 0.79375 2.5268zm-2.2225-6.608h1.3163l-2.1564 2.4871h-1.012z" style=""/>
   <path id="path903" d="m552.29 170.91q0-1.3229-0.54901-2.0505-0.5424-0.72761-1.528-0.72761-0.97896 0-1.528 0.72761-0.5424 0.7276-0.5424 2.0505 0 1.3163 0.5424 2.0439 0.54901 0.72761 1.528 0.72761 0.98557 0 1.528-0.72761 0.54901-0.7276 0.54901-2.0439zm1.2171 2.8707q0 1.8918-0.84005 2.8112-0.84006 0.92605-2.5731 0.92605-0.64162 0-1.2105-0.0992-0.56885-0.0926-1.1046-0.29105v-1.184q0.53578 0.29104 1.0583 0.42995 0.52256 0.13891 1.065 0.13891 1.1972 0 1.7926-0.62839 0.59531-0.62177 0.59531-1.8852v-0.60193q-0.37703 0.65485-0.96573 0.97896-0.5887 0.32412-1.4089 0.32412-1.3626 0-2.196-1.0385-0.83343-1.0385-0.83343-2.7517 0-1.7198 0.83343-2.7583 0.83344-1.0385 2.196-1.0385 0.82021 0 1.4089 0.32412 0.5887 0.32411 0.96573 0.97896v-1.1245h1.2171z" style=""/>
  </g>
  <path id="rect56" d="m460 220h20v20h-20z" fill="#fff" stroke="#00f" stroke-width="2"/>
  <g id="text60" fill="#00f" aria-label="1">
   <path id="path907" d="m467.37 233.58h2.1828v-7.534l-2.3746 0.47625v-1.2171l2.3614-0.47625h1.3362v8.7511h2.1828v1.1245h-5.6886z" style=""/>
  </g>
  <path id="rect62" d="m480 220h40v20h-40z" fill="#fff" stroke="#00f" stroke-width="2"/>
  <g id="text66" fill="#00f" aria-label="alma">
   <path id="path911" d="m487.86 230.98q-1.4751 0-2.0439 0.33734-0.56885 0.33735-0.56885 1.1509 0 0.64823 0.42333 1.0319 0.42995 0.37703 1.1642 0.37703 1.012 0 1.6206-0.71437 0.61516-0.721 0.61516-1.9116v-0.2712zm2.4276-0.50271v4.2267h-1.2171v-1.1245q-0.41672 0.67468-1.0385 0.9988-0.62178 0.3175-1.5214 0.3175-1.1377 0-1.8124-0.635-0.66808-0.64162-0.66808-1.7132 0-1.2502 0.83344-1.8852 0.84006-0.635 2.5003-0.635h1.7066v-0.11907q0-0.84005-0.55563-1.2965-0.54901-0.46302-1.5478-0.46302-0.635 0-1.2369 0.15213-0.60192 0.15214-1.1576 0.45641v-1.1245q0.66807-0.25797 1.2965-0.38365 0.62839-0.13229 1.2237-0.13229 1.6074 0 2.4011 0.83344t0.79375 2.5268z" style=""/>
   <path id="path913" d="m492.8 224.41h1.2171v10.292h-1.2171z" style=""/>
   <path id="path915" d="m502.32 228.71q0.45641-0.82021 1.0914-1.2105t1.4949-0.39026q1.1576 0 1.7859 0.8136 0.62839 0.80698 0.62839 2.3019v4.4715h-1.2237v-4.4318q0-1.065-0.37703-1.5809-0.37703-0.51594-1.1509-0.51594-0.94589 0-1.4949 0.62838-0.54901 0.62839-0.54901 1.7132v4.187h-1.2237v-4.4318q0-1.0716-0.37704-1.5809-0.37703-0.51594-1.1642-0.51594-0.93265 0-1.4817 0.635-0.54901 0.62839-0.54901 1.7066v4.187h-1.2237v-7.4084h1.2237v1.1509q0.41672-0.68131 0.99881-1.0054 0.58208-0.32412 1.3824-0.32412 0.80698 0 1.3692 0.41011 0.56886 0.4101 0.84005 1.1906z" style=""/>
   <path id="path917" d="m513.12 230.98q-1.475 0-2.0439 0.33734-0.56885 0.33735-0.56885 1.1509 0 0.64823 0.42333 1.0319 0.42995 0.37703 1.1642 0.37703 1.012 0 1.6206-0.71437 0.61516-0.721 0.61516-1.9116v-0.2712zm2.4276-0.50271v4.2267h-1.2171v-1.1245q-0.41672 0.67468-1.0385 0.9988-0.62177 0.3175-1.5214 0.3175-1.1377 0-1.8124-0.635-0.66808-0.64162-0.66808-1.7132 0-1.2502 0.83344-1.8852 0.84006-0.635 2.5003-0.635h1.7066v-0.11907q0-0.84005-0.55563-1.2965-0.54901-0.46302-1.5478-0.46302-0.635 0-1.2369 0.15213-0.60193 0.15214-1.1576 0.45641v-1.1245q0.66807-0.25797 1.2965-0.38365 0.62839-0.13229 1.2237-0.13229 1.6074 0 2.4011 0.83344t0.79375 2.5268z" style=""/>
  </g>
 </g>
</svg>
