<?xml version="1.0" encoding="UTF-8" standalone="no"?>
<!-- Created with Inkscape (http://www.inkscape.org/) -->
<svg id="svg2" xmlns:rdf="http://www.w3.org/1999/02/22-rdf-syntax-ns#" xmlns="http://www.w3.org/2000/svg" height="382.91" width="458.73" version="1.1" xmlns:cc="http://creativecommons.org/ns#" xmlns:dc="http://purl.org/dc/elements/1.1/" viewBox="298 98 242 199.43059">
 <metadata id="metadata66">
  <rdf:RDF>
   <cc:Work rdf:about="">
    <dc:format>image/svg+xml</dc:format>
    <dc:type rdf:resource="http://purl.org/dc/dcmitype/StillImage"/>
   </cc:Work>
  </rdf:RDF>
 </metadata>
 <g id="g4" transform="translate(-1 -2.2847)">
  <path id="rect6" fill="#fff" d="m380 100h40v40h-40z"/>
  <path id="rect8" d="m380 100h40v40h-40z" stroke="#000" stroke-width="2" fill="none"/>
  <g id="text10">
   <path id="path3014" style="" d="m404.47 113.83-3.562 1.9248 3.562 1.9348-0.57547 0.97234-3.3338-2.0141v3.7406h-1.1311v-3.7406l-3.3338 2.0141-0.57547-0.97234 3.562-1.9348-3.562-1.9248 0.57547-0.98227 3.3338 2.0141v-3.7405h1.1311v3.7405l3.3338-2.0141 0.57547 0.98227"/>
  </g>
 </g>
 <g id="g14" transform="translate(-1 -2.2847)">
  <path id="rect16" fill="#a3bbcc" d="m300 180h40v40h-40z"/>
  <path id="rect18" d="m300 180h40v40h-40z" stroke="#000" stroke-width="2" fill="none"/>
  <g id="text20">
   <path id="path3019" style="" d="m321.21 193.13-5.0602 7.9077h5.0602v-7.9077m-0.52586-1.7462h2.5202v9.654h2.1134v1.6669h-2.1134v3.4925h-1.9943v-3.4925h-6.6873v-1.9348l6.1615-9.3861"/>
  </g>
 </g>
 <g id="g24" transform="translate(-1 -2.2847)">
  <path id="rect26" fill="#fff" d="m460 180h40v40h-40z"/>
  <path id="rect28" d="m460 180h40v40h-40z" stroke="#000" stroke-width="2" fill="none"/>
  <g id="text30">
   <path id="path3024" style="" d="m480.83 193.46v5.5265h5.5265v1.6867h-5.5265v5.5265h-1.6669v-5.5265h-5.5265v-1.6867h5.5265v-5.5265h1.6669"/>
  </g>
 </g>
 <g id="g34" transform="translate(-1 -2.2847)">
  <path id="rect36" fill="#a3bbcc" d="m420 260h40v40h-40z"/>
  <path id="rect38" d="m420 260h40v40h-40z" stroke="#000" stroke-width="2" fill="none"/>
  <g id="text40">
   <path id="path3029" style="" d="m435.72 271.39h7.868v1.6867h-6.0325v3.6314c0.29104-0.0992 0.58208-0.17197 0.87312-0.21828 0.29104-0.0529 0.58208-0.0794 0.87313-0.0794 1.6536 0.00001 2.9633 0.45311 3.9291 1.3593 0.96572 0.9062 1.4486 2.1332 1.4486 3.681-0.00001 1.5941-0.4961 2.8344-1.4883 3.7207-0.99219 0.87974-2.3912 1.3196-4.197 1.3196-0.62178 0-1.2568-0.0529-1.905-0.15875-0.64162-0.10584-1.3064-0.26459-1.9943-0.47625v-2.0141c0.59531 0.32411 1.2105 0.56554 1.8455 0.72429s1.3064 0.23813 2.0141 0.23813c1.1443 0 2.0505-0.30096 2.7186-0.90289 0.66806-0.60193 1.0021-1.4188 1.0021-2.4507-0.00001-1.0319-0.33405-1.8488-1.0021-2.4507-0.66808-0.60192-1.5743-0.90288-2.7186-0.90289-0.53578 0.00001-1.0716 0.0595-1.6073 0.17859-0.52917 0.11907-1.0716 0.30428-1.6272 0.55563v-7.4414"/>
  </g>
 </g>
 <path id="line44" d="m399 137.72-80 40" stroke="#000" stroke-width="2" fill="none"/>
 <path id="line46" d="m479 177.72-80-40" stroke="#000" stroke-width="2" fill="none"/>
 <path id="line48" d="m439 257.72 40-40" stroke="#000" stroke-width="2" fill="none"/>
 <g id="g50" transform="translate(-1 -2.2847)">
  <path id="rect52" fill="#a3bbcc" d="m500 260h40v40h-40z"/>
  <path id="rect54" d="m500 260h40v40h-40z" stroke="#000" stroke-width="2" fill="none"/>
  <g id="text56">
   <path id="path3037" style="" d="m525.14 275.09-4.0184 5.4074 4.2267 5.7051h-2.153l-3.2345-4.3656-3.2345 4.3656h-2.153l4.316-5.8142-3.9489-5.2983h2.153l2.9468 3.9588 2.9468-3.9588h2.153"/>
  </g>
 </g>
 <path id="line60" d="m519 257.72-40-40" stroke="#000" stroke-width="2" fill="none"/>
</svg>
