<?xml version="1.0" encoding="UTF-8"?>
<svg id="svg77" width="21cm" height="12.642cm" version="1.1" viewBox="199 119 402 236.3" xmlns="http://www.w3.org/2000/svg" xmlns:cc="http://creativecommons.org/ns#" xmlns:dc="http://purl.org/dc/elements/1.1/" xmlns:rdf="http://www.w3.org/1999/02/22-rdf-syntax-ns#">
 <metadata id="metadata81">
  <rdf:RDF>
   <cc:Work rdf:about="">
    <dc:format>image/svg+xml</dc:format>
    <dc:type rdf:resource="http://purl.org/dc/dcmitype/StillImage"/>
   </cc:Work>
  </rdf:RDF>
 </metadata>
 <g id="Háttér" transform="translate(0 -2.8479)">
  <path id="rect4" d="m320 120h100v40h-100z" fill="#fff" stroke="#000" stroke-width="2"/>
  <g id="text8" aria-label="Expression">
   <path id="path45" d="m328.63 133.95h7.2848v1.3119h-5.726v3.4109h5.4868v1.3119h-5.4868v4.1749h5.8649v1.3119h-7.4238z" style=""/>
   <path id="path47" d="m345.75 136.83-3.1254 4.2058 3.2874 4.4373h-1.6746l-2.5157-3.3955-2.5157 3.3955h-1.6746l3.3569-4.5222-3.0714-4.1209h1.6746l2.292 3.0791 2.2919-3.0791z" style=""/>
   <path id="path49" d="m349.3 144.18v4.5839h-1.4276v-11.93h1.4276v1.3119q0.44759-0.7717 1.1267-1.1421 0.68681-0.37813 1.636-0.37813 1.5743 0 2.5543 1.2502 0.98777 1.2502 0.98777 3.2874 0 2.0373-0.98777 3.2874-0.98006 1.2502-2.5543 1.2502-0.94919 0-1.636-0.37042-0.67909-0.37813-1.1267-1.1498zm4.8308-3.0173q0-1.5666-0.64823-2.454-0.64051-0.89517-1.7672-0.89517t-1.7749 0.89517q-0.64051 0.88746-0.64051 2.454t0.64051 2.4617q0.64823 0.88745 1.7749 0.88745t1.7672-0.88745q0.64823-0.89517 0.64823-2.4617z" style=""/>
   <path id="path51" d="m362.96 138.16q-0.23922-0.13891-0.52475-0.20064-0.27781-0.0695-0.61736-0.0695-1.2038 0-1.8521 0.78714-0.64051 0.77941-0.64051 2.2456v4.553h-1.4276v-8.643h1.4276v1.3428q0.44758-0.78713 1.1653-1.1653 0.71768-0.38585 1.744-0.38585 0.14662 0 0.32411 0.0232 0.17749 0.0154 0.39357 0.054z" style=""/>
   <path id="path53" d="m371.52 140.8v0.69453h-6.5286q0.0926 1.4662 0.87974 2.2379 0.79485 0.76398 2.2071 0.76398 0.818 0 1.582-0.20064 0.7717-0.20065 1.528-0.60193v1.3428q-0.76398 0.32411-1.5666 0.49389-0.80257 0.16977-1.6283 0.16977-2.0682 0-3.2797-1.2038-1.2038-1.2038-1.2038-3.2566 0-2.1222 1.1421-3.3646 1.1498-1.2502 3.0945-1.2502 1.744 0 2.755 1.1267 1.0186 1.119 1.0186 3.0482zm-1.4199-0.41672q-0.0154-1.1653-0.65594-1.8598-0.6328-0.69453-1.6823-0.69453-1.1884 0-1.9061 0.67137-0.70997 0.67138-0.818 1.8907z" style=""/>
   <path id="path55" d="m379.36 137.09v1.3428q-0.60192-0.30868-1.2502-0.46302t-1.3428-0.15434q-1.0572 0-1.5897 0.32412-0.52475 0.32411-0.52475 0.97234 0 0.49388 0.37813 0.77941 0.37813 0.27782 1.5202 0.53248l0.48617 0.10803q1.5125 0.32412 2.1453 0.91833 0.64051 0.58649 0.64051 1.6437 0 1.2038-0.9569 1.9061-0.94919 0.70225-2.6161 0.70225-0.69453 0-1.4508-0.13891-0.74855-0.13119-1.582-0.40128v-1.4662q0.78713 0.409 1.5511 0.61736 0.76399 0.20064 1.5125 0.20064 1.0032 0 1.5434-0.33955 0.54019-0.34726 0.54019-0.97234 0-0.57877-0.39356-0.88745-0.38585-0.30868-1.7055-0.59421l-0.49389-0.11575q-1.3196-0.27782-1.9061-0.84887-0.5865-0.57878-0.5865-1.582 0-1.2193 0.86431-1.8829 0.8643-0.66366 2.454-0.66366 0.78713 0 1.4817 0.11575 0.69453 0.11576 1.281 0.34727z" style=""/>
   <path id="path57" d="m387.6 137.09v1.3428q-0.60193-0.30868-1.2502-0.46302-0.64823-0.15434-1.3428-0.15434-1.0572 0-1.5897 0.32412-0.52476 0.32411-0.52476 0.97234 0 0.49388 0.37814 0.77941 0.37813 0.27782 1.5202 0.53248l0.48617 0.10803q1.5125 0.32412 2.1453 0.91833 0.64051 0.58649 0.64051 1.6437 0 1.2038-0.95691 1.9061-0.94919 0.70225-2.6161 0.70225-0.69453 0-1.4508-0.13891-0.74855-0.13119-1.582-0.40128v-1.4662q0.78714 0.409 1.5511 0.61736 0.76398 0.20064 1.5125 0.20064 1.0032 0 1.5434-0.33955 0.54019-0.34726 0.54019-0.97234 0-0.57877-0.39357-0.88745-0.38585-0.30868-1.7054-0.59421l-0.49389-0.11575q-1.3196-0.27782-1.9061-0.84887-0.58649-0.57878-0.58649-1.582 0-1.2193 0.8643-1.8829 0.86431-0.66366 2.454-0.66366 0.78713 0 1.4817 0.11575 0.69453 0.11576 1.281 0.34727z" style=""/>
   <path id="path59" d="m390.33 136.83h1.4199v8.643h-1.4199zm0-3.3646h1.4199v1.7981h-1.4199z" style=""/>
   <path id="path61" d="m398.07 137.83q-1.1421 0-1.8058 0.89517-0.66366 0.88745-0.66366 2.4386 0 1.5511 0.65594 2.4463 0.66366 0.88746 1.8135 0.88746 1.1344 0 1.798-0.89517 0.66367-0.89517 0.66367-2.4386 0-1.5357-0.66367-2.4309-0.66366-0.90288-1.798-0.90288zm0-1.2038q1.8521 0 2.9093 1.2038t1.0572 3.3337q0 2.1222-1.0572 3.3337-1.0572 1.2038-2.9093 1.2038-1.8598 0-2.917-1.2038-1.0495-1.2116-1.0495-3.3337 0-2.1299 1.0495-3.3337 1.0572-1.2038 2.917-1.2038z" style=""/>
   <path id="path63" d="m411.56 140.26v5.2167h-1.4199v-5.1704q0-1.227-0.47846-1.8366-0.47845-0.60965-1.4354-0.60965-1.1498 0-1.8135 0.73312-0.66366 0.73311-0.66366 1.9987v4.8849h-1.4276v-8.643h1.4276v1.3428q0.50932-0.77941 1.1961-1.1653 0.69453-0.38585 1.5974-0.38585 1.4894 0 2.2534 0.92603 0.76398 0.91833 0.76398 2.7087z" style=""/>
  </g>
  <path id="rect10" d="m320 220h100v40h-100z" fill="#fff" stroke="#000" stroke-width="2"/>
  <path id="rect12" d="m200 220h100v40h-100z" fill="#fff" stroke="#000" stroke-width="2"/>
  <path id="rect14" d="m440 220h100v40h-100z" fill="#fff" stroke="#000" stroke-width="2"/>
  <path id="rect16" d="m380 320h100v40h-100z" fill="#fff" stroke="#000" stroke-width="2"/>
  <path id="rect18" d="m500 320h100v40h-100z" fill="#fff" stroke="#000" stroke-width="2"/>
  <g id="g24" fill="none" stroke="#000" stroke-width="2">
   <path id="line20" d="m275.2 219 60.194-50.162"/>
   <path id="polygon22" d="m338.6 172.68 4.482-10.243-10.884 2.56z"/>
  </g>
  <g id="g30" fill="none" stroke="#000" stroke-width="2">
   <path id="line26" d="m370 219v-45.76"/>
   <path id="polygon28" d="m375 173.24-5-10-5 10z"/>
  </g>
  <g id="g36" fill="none" stroke="#000" stroke-width="2">
   <path id="line32" d="m464.8 219-60.194-50.162"/>
   <path id="polygon34" d="m407.8 164.99-10.884-2.56 4.482 10.243z"/>
  </g>
  <g id="g42" fill="none" stroke="#000" stroke-width="2">
   <path id="line38" d="m442.6 319 28.502-47.503"/>
   <path id="polygon40" d="m475.39 274.07 0.857-11.147-9.432 6.002z"/>
  </g>
  <g id="g48" fill="none" stroke="#000" stroke-width="2">
   <path id="line44" d="m537.4 319-28.502-47.503"/>
   <path id="polygon46" d="m513.18 268.92-9.432-6.002 0.857 11.147z"/>
  </g>
  <g id="g54" stroke="#000" stroke-width="2">
   <path id="polyline50" d="m420 140h70v71.826" fill="none"/>
   <path id="polygon52" d="m490 209 5 5-5 5-5-5z" fill-rule="evenodd"/>
  </g>
  <g id="text58" aria-label="Constant">
   <path id="path83" d="m224.62 234.84v1.6437q-0.78713-0.73311-1.6823-1.0958-0.88746-0.3627-1.8907-0.3627-1.9756 0-3.0251 1.2116-1.0495 1.2038-1.0495 3.4881 0 2.2765 1.0495 3.4881 1.0495 1.2038 3.0251 1.2038 1.0032 0 1.8907-0.3627 0.89517-0.3627 1.6823-1.0958v1.6283q-0.818 0.55563-1.7363 0.83344-0.91061 0.27781-1.9292 0.27781-2.6161 0-4.1209-1.5974-1.5048-1.6051-1.5048-4.3755 0-2.7781 1.5048-4.3755 1.5048-1.6051 4.1209-1.6051 1.0341 0 1.9447 0.27781 0.91832 0.27009 1.7209 0.818z" style=""/>
   <path id="path85" d="m230.33 237.83q-1.1421 0-1.8058 0.89517-0.66366 0.88745-0.66366 2.4386 0 1.5511 0.65594 2.4463 0.66366 0.88746 1.8135 0.88746 1.1344 0 1.7981-0.89517 0.66366-0.89517 0.66366-2.4386 0-1.5357-0.66366-2.4309-0.66367-0.90288-1.7981-0.90288zm0-1.2038q1.8521 0 2.9093 1.2038t1.0572 3.3337q0 2.1222-1.0572 3.3337-1.0572 1.2038-2.9093 1.2038-1.8598 0-2.917-1.2038-1.0495-1.2116-1.0495-3.3337 0-2.1299 1.0495-3.3337 1.0572-1.2038 2.917-1.2038z" style=""/>
   <path id="path87" d="m243.83 240.26v5.2167h-1.4199v-5.1704q0-1.227-0.47845-1.8366-0.47846-0.60965-1.4354-0.60965-1.1498 0-1.8135 0.73312-0.66366 0.73311-0.66366 1.9987v4.8849h-1.4276v-8.643h1.4276v1.3428q0.50932-0.77941 1.1961-1.1653 0.69452-0.38585 1.5974-0.38585 1.4894 0 2.2534 0.92603 0.76399 0.91833 0.76399 2.7087z" style=""/>
   <path id="path89" d="m252.18 237.09v1.3428q-0.60193-0.30868-1.2502-0.46302-0.64823-0.15434-1.3428-0.15434-1.0572 0-1.5897 0.32412-0.52476 0.32411-0.52476 0.97234 0 0.49388 0.37814 0.77941 0.37813 0.27782 1.5202 0.53248l0.48617 0.10803q1.5125 0.32412 2.1453 0.91833 0.64051 0.58649 0.64051 1.6437 0 1.2038-0.95691 1.9061-0.94919 0.70225-2.6161 0.70225-0.69453 0-1.4508-0.13891-0.74855-0.13119-1.582-0.40128v-1.4662q0.78714 0.409 1.5511 0.61736 0.76398 0.20064 1.5125 0.20064 1.0032 0 1.5434-0.33955 0.54019-0.34726 0.54019-0.97234 0-0.57877-0.39357-0.88745-0.38585-0.30868-1.7054-0.59421l-0.49389-0.11575q-1.3196-0.27782-1.9061-0.84887-0.58649-0.57878-0.58649-1.582 0-1.2193 0.8643-1.8829 0.86431-0.66366 2.454-0.66366 0.78713 0 1.4817 0.11575 0.69453 0.11576 1.281 0.34727z" style=""/>
   <path id="path91" d="m256.32 234.38v2.454h2.9247v1.1035h-2.9247v4.6919q0 1.0572 0.28552 1.3582 0.29325 0.30096 1.1807 0.30096h1.4585v1.1884h-1.4585q-1.6437 0-2.2688-0.60965-0.62508-0.61736-0.62508-2.2379v-4.6919h-1.0418v-1.1035h1.0418v-2.454z" style=""/>
   <path id="path93" d="m265.05 241.13q-1.7209 0-2.3846 0.39357-0.66367 0.39356-0.66367 1.3428 0 0.75627 0.49389 1.2038 0.50161 0.43987 1.3582 0.43987 1.1807 0 1.8907-0.83343 0.71768-0.84116 0.71768-2.2302v-0.3164zm2.8321-0.58649v4.9312h-1.4199v-1.3119q-0.48618 0.78713-1.2116 1.1653-0.7254 0.37042-1.7749 0.37042-1.3273 0-2.1145-0.74083-0.77941-0.74855-0.77941-1.9987 0-1.4585 0.97234-2.1994 0.98006-0.74083 2.917-0.74083h1.991v-0.1389q0-0.98006-0.64823-1.5125-0.64051-0.54019-1.8058-0.54019-0.74083 0-1.4431 0.17749-0.70224 0.17749-1.3505 0.53247v-1.3119q0.77942-0.30096 1.5125-0.44758 0.73312-0.15434 1.4276-0.15434 1.8752 0 2.8013 0.97234t0.92604 2.9479z" style=""/>
   <path id="path95" d="m278 240.26v5.2167h-1.4199v-5.1704q0-1.227-0.47845-1.8366-0.47845-0.60965-1.4354-0.60965-1.1498 0-1.8135 0.73312-0.66367 0.73311-0.66367 1.9987v4.8849h-1.4276v-8.643h1.4276v1.3428q0.50933-0.77941 1.1961-1.1653 0.69453-0.38585 1.5974-0.38585 1.4894 0 2.2534 0.92603 0.76398 0.91833 0.76398 2.7087z" style=""/>
   <path id="path97" d="m282.25 234.38v2.454h2.9247v1.1035h-2.9247v4.6919q0 1.0572 0.28552 1.3582 0.29325 0.30096 1.1807 0.30096h1.4585v1.1884h-1.4585q-1.6437 0-2.2688-0.60965-0.62508-0.61736-0.62508-2.2379v-4.6919h-1.0418v-1.1035h1.0418v-2.454z" style=""/>
  </g>
  <g id="text62" aria-label="Variable">
   <path id="path100" d="m342.53 245.48-4.3987-11.521h1.6283l3.6501 9.7003 3.6579-9.7003h1.6206l-4.391 11.521z" style=""/>
   <path id="path102" d="m352.99 241.13q-1.7209 0-2.3846 0.39357-0.66366 0.39356-0.66366 1.3428 0 0.75627 0.49388 1.2038 0.50161 0.43987 1.3582 0.43987 1.1807 0 1.8907-0.83343 0.71768-0.84116 0.71768-2.2302v-0.3164zm2.8321-0.58649v4.9312h-1.4199v-1.3119q-0.48617 0.78713-1.2116 1.1653-0.7254 0.37042-1.7749 0.37042-1.3273 0-2.1144-0.74083-0.77942-0.74855-0.77942-1.9987 0-1.4585 0.97234-2.1994 0.98006-0.74083 2.917-0.74083h1.991v-0.1389q0-0.98006-0.64823-1.5125-0.64051-0.54019-1.8058-0.54019-0.74084 0-1.4431 0.17749-0.70225 0.17749-1.3505 0.53247v-1.3119q0.77942-0.30096 1.5125-0.44758 0.73312-0.15434 1.4276-0.15434 1.8752 0 2.8013 0.97234t0.92604 2.9479z" style=""/>
   <path id="path104" d="m363.76 238.16q-0.23923-0.13891-0.52476-0.20064-0.27781-0.0695-0.61736-0.0695-1.2038 0-1.8521 0.78714-0.64051 0.77941-0.64051 2.2456v4.553h-1.4276v-8.643h1.4276v1.3428q0.44758-0.78713 1.1653-1.1653 0.71768-0.38585 1.744-0.38585 0.14662 0 0.32412 0.0232 0.17749 0.0154 0.39356 0.054z" style=""/>
   <path id="path106" d="m365.27 236.83h1.4199v8.643h-1.4199zm0-3.3646h1.4199v1.7981h-1.4199z" style=""/>
   <path id="path108" d="m373.58 241.13q-1.7209 0-2.3846 0.39357-0.66366 0.39356-0.66366 1.3428 0 0.75627 0.49389 1.2038 0.5016 0.43987 1.3582 0.43987 1.1807 0 1.8907-0.83343 0.71768-0.84116 0.71768-2.2302v-0.3164zm2.8321-0.58649v4.9312h-1.4199v-1.3119q-0.48617 0.78713-1.2116 1.1653-0.7254 0.37042-1.7749 0.37042-1.3273 0-2.1145-0.74083-0.77941-0.74855-0.77941-1.9987 0-1.4585 0.97234-2.1994 0.98006-0.74083 2.917-0.74083h1.991v-0.1389q0-0.98006-0.64822-1.5125-0.64051-0.54019-1.8058-0.54019-0.74083 0-1.4431 0.17749-0.70224 0.17749-1.3505 0.53247v-1.3119q0.77942-0.30096 1.5125-0.44758 0.73311-0.15434 1.4276-0.15434 1.8752 0 2.8013 0.97234t0.92604 2.9479z" style=""/>
   <path id="path110" d="m385.55 241.16q0-1.5666-0.64823-2.454-0.64051-0.89517-1.7672-0.89517t-1.7749 0.89517q-0.64051 0.88746-0.64051 2.454t0.64051 2.4617q0.64823 0.88745 1.7749 0.88745t1.7672-0.88745q0.64823-0.89517 0.64823-2.4617zm-4.8308-3.0174q0.44759-0.7717 1.1267-1.1421 0.68681-0.37813 1.636-0.37813 1.5743 0 2.5543 1.2502 0.98777 1.2502 0.98777 3.2874 0 2.0373-0.98777 3.2874-0.98006 1.2502-2.5543 1.2502-0.94919 0-1.636-0.37042-0.67909-0.37813-1.1267-1.1498v1.2965h-1.4276v-12.008h1.4276z" style=""/>
   <path id="path112" d="m389.38 233.47h1.4199v12.008h-1.4199z" style=""/>
   <path id="path114" d="m401.15 240.8v0.69453h-6.5286q0.0926 1.4662 0.87974 2.2379 0.79485 0.76398 2.2071 0.76398 0.818 0 1.582-0.20064 0.7717-0.20065 1.528-0.60193v1.3428q-0.76398 0.32411-1.5666 0.49389-0.80257 0.16977-1.6283 0.16977-2.0682 0-3.2797-1.2038-1.2038-1.2038-1.2038-3.2566 0-2.1222 1.1421-3.3646 1.1498-1.2502 3.0945-1.2502 1.744 0 2.755 1.1267 1.0186 1.119 1.0186 3.0482zm-1.4199-0.41672q-0.0154-1.1653-0.65594-1.8598-0.63279-0.69453-1.6823-0.69453-1.1884 0-1.9061 0.67137-0.70997 0.67138-0.818 1.8907z" style=""/>
  </g>
  <g id="text66" aria-label="TwoOperand">
   <path id="path117" d="m440.9 233.95h9.7466v1.3119h-4.09v10.21h-1.5666v-10.21h-4.09z" style=""/>
   <path id="path119" d="m448.65 236.83h1.4199l1.7749 6.7447 1.7672-6.7447h1.6746l1.7749 6.7447 1.7672-6.7447h1.4199l-2.2611 8.643h-1.6746l-1.8598-7.0842-1.8675 7.0842h-1.6746z" style=""/>
   <path id="path121" d="m465.76 237.83q-1.1421 0-1.8058 0.89517-0.66366 0.88745-0.66366 2.4386 0 1.5511 0.65594 2.4463 0.66367 0.88746 1.8135 0.88746 1.1344 0 1.7981-0.89517t0.66366-2.4386q0-1.5357-0.66366-2.4309-0.66366-0.90288-1.7981-0.90288zm0-1.2038q1.8521 0 2.9093 1.2038 1.0572 1.2038 1.0572 3.3337 0 2.1222-1.0572 3.3337-1.0572 1.2038-2.9093 1.2038-1.8598 0-2.917-1.2038-1.0495-1.2116-1.0495-3.3337 0-2.1299 1.0495-3.3337 1.0572-1.2038 2.917-1.2038z" style=""/>
   <path id="path123" d="m476.81 235.01q-1.6977 0-2.701 1.2656-0.99549 1.2656-0.99549 3.4495 0 2.1762 0.99549 3.4418 1.0032 1.2656 2.701 1.2656t2.6855-1.2656q0.9955-1.2656 0.9955-3.4418 0-2.1839-0.9955-3.4495-0.98777-1.2656-2.6855-1.2656zm0-1.2656q2.4231 0 3.8739 1.6283 1.4508 1.6206 1.4508 4.3524 0 2.7241-1.4508 4.3524-1.4508 1.6206-3.8739 1.6206-2.4308 0-3.8894-1.6206-1.4508-1.6206-1.4508-4.3524 0-2.7318 1.4508-4.3524 1.4585-1.6283 3.8894-1.6283z" style=""/>
   <path id="path125" d="m485.89 244.18v4.5839h-1.4276v-11.93h1.4276v1.3119q0.44759-0.7717 1.1267-1.1421 0.68681-0.37813 1.636-0.37813 1.5743 0 2.5543 1.2502 0.98778 1.2502 0.98778 3.2874 0 2.0373-0.98778 3.2874-0.98006 1.2502-2.5543 1.2502-0.94919 0-1.636-0.37042-0.6791-0.37813-1.1267-1.1498zm4.8308-3.0173q0-1.5666-0.64823-2.454-0.64051-0.89517-1.7672-0.89517t-1.7749 0.89517q-0.64051 0.88746-0.64051 2.454t0.64051 2.4617q0.64823 0.88745 1.7749 0.88745t1.7672-0.88745q0.64823-0.89517 0.64823-2.4617z" style=""/>
   <path id="path127" d="m501.94 240.8v0.69453h-6.5286q0.0926 1.4662 0.87974 2.2379 0.79485 0.76398 2.2071 0.76398 0.818 0 1.582-0.20064 0.7717-0.20065 1.528-0.60193v1.3428q-0.76399 0.32411-1.5666 0.49389-0.80257 0.16977-1.6283 0.16977-2.0682 0-3.2797-1.2038-1.2038-1.2038-1.2038-3.2566 0-2.1222 1.1421-3.3646 1.1498-1.2502 3.0945-1.2502 1.744 0 2.755 1.1267 1.0186 1.119 1.0186 3.0482zm-1.4199-0.41672q-0.0154-1.1653-0.65594-1.8598-0.6328-0.69453-1.6823-0.69453-1.1884 0-1.9061 0.67137-0.70997 0.67138-0.81801 1.8907z" style=""/>
   <path id="path129" d="m509.28 238.16q-0.23923-0.13891-0.52476-0.20064-0.27781-0.0695-0.61736-0.0695-1.2038 0-1.8521 0.78714-0.64051 0.77941-0.64051 2.2456v4.553h-1.4276v-8.643h1.4276v1.3428q0.44758-0.78713 1.1653-1.1653 0.71768-0.38585 1.744-0.38585 0.14662 0 0.32411 0.0232 0.1775 0.0154 0.39357 0.054z" style=""/>
   <path id="path131" d="m514.71 241.13q-1.7209 0-2.3846 0.39357-0.66366 0.39356-0.66366 1.3428 0 0.75627 0.49388 1.2038 0.50161 0.43987 1.3582 0.43987 1.1807 0 1.8907-0.83343 0.71768-0.84116 0.71768-2.2302v-0.3164zm2.8321-0.58649v4.9312h-1.4199v-1.3119q-0.48617 0.78713-1.2116 1.1653-0.7254 0.37042-1.7749 0.37042-1.3273 0-2.1144-0.74083-0.77942-0.74855-0.77942-1.9987 0-1.4585 0.97234-2.1994 0.98006-0.74083 2.917-0.74083h1.991v-0.1389q0-0.98006-0.64823-1.5125-0.64051-0.54019-1.8058-0.54019-0.74083 0-1.4431 0.17749-0.70225 0.17749-1.3505 0.53247v-1.3119q0.77942-0.30096 1.5125-0.44758 0.73312-0.15434 1.4276-0.15434 1.8752 0 2.8013 0.97234 0.92604 0.97234 0.92604 2.9479z" style=""/>
   <path id="path133" d="m527.66 240.26v5.2167h-1.4199v-5.1704q0-1.227-0.47845-1.8366-0.47845-0.60965-1.4354-0.60965-1.1498 0-1.8135 0.73312-0.66366 0.73311-0.66366 1.9987v4.8849h-1.4276v-8.643h1.4276v1.3428q0.50932-0.77941 1.1961-1.1653 0.69453-0.38585 1.5974-0.38585 1.4894 0 2.2534 0.92603 0.76398 0.91833 0.76398 2.7087z" style=""/>
   <path id="path135" d="m536.19 238.14v-4.6765h1.4199v12.008h-1.4199v-1.2965q-0.44758 0.7717-1.1344 1.1498-0.6791 0.37042-1.636 0.37042-1.5666 0-2.5543-1.2502-0.98006-1.2502-0.98006-3.2874 0-2.0373 0.98006-3.2874 0.98777-1.2502 2.5543-1.2502 0.95691 0 1.636 0.37813 0.68681 0.37041 1.1344 1.1421zm-4.8386 3.0174q0 1.5666 0.64051 2.4617 0.64823 0.88745 1.7749 0.88745t1.7749-0.88745q0.64822-0.89517 0.64822-2.4617t-0.64822-2.454q-0.64823-0.89517-1.7749-0.89517t-1.7749 0.89517q-0.64051 0.88746-0.64051 2.454z" style=""/>
  </g>
  <g id="text70" aria-label="Sum">
   <path id="path138" d="m420.72 334.33v1.5202q-0.88746-0.42444-1.6746-0.6328-0.78714-0.20836-1.5202-0.20836-1.2733 0-1.9678 0.49389-0.68682 0.49389-0.68682 1.4045 0 0.76399 0.45531 1.1576 0.46302 0.38585 1.744 0.62508l0.94147 0.19292q1.744 0.33184 2.5698 1.173 0.83343 0.83343 0.83343 2.2379 0 1.6746-1.1267 2.5389-1.119 0.8643-3.2874 0.8643-0.818 0-1.744-0.18521-0.91832-0.18521-1.9061-0.54791v-1.6051q0.94919 0.53247 1.8598 0.80257 0.91061 0.27009 1.7903 0.27009 1.335 0 2.0604-0.52475 0.7254-0.52476 0.7254-1.4971 0-0.84887-0.52476-1.3273-0.51703-0.47846-1.7054-0.71768l-0.94919-0.18521q-1.744-0.34727-2.5235-1.0881-0.77941-0.74083-0.77941-2.0604 0-1.528 1.0727-2.4077 1.0804-0.87973 2.971-0.87973 0.81028 0 1.6514 0.14662 0.84115 0.14662 1.7209 0.43987z" style=""/>
   <path id="path140" d="m423.64 342.06v-5.2321h1.4199v5.1781q0 1.227 0.47846 1.8444 0.47845 0.60964 1.4354 0.60964 1.1498 0 1.8135-0.73311 0.67138-0.73312 0.67138-1.9987v-4.9003h1.4199v8.643h-1.4199v-1.3273q-0.51704 0.78714-1.2038 1.173-0.6791 0.37813-1.582 0.37813-1.4894 0-2.2611-0.92604t-0.7717-2.7087zm3.573-5.4405z" style=""/>
   <path id="path142" d="m440.55 338.49q0.53247-0.95691 1.2733-1.4122t1.744-0.4553q1.3505 0 2.0836 0.94919 0.73311 0.94147 0.73311 2.6855v5.2167h-1.4276v-5.1704q0-1.2424-0.43987-1.8444t-1.3428-0.60193q-1.1035 0-1.744 0.73312-0.64051 0.73311-0.64051 1.9987v4.8849h-1.4276v-5.1704q0-1.2502-0.43987-1.8444-0.43987-0.60193-1.3582-0.60193-1.0881 0-1.7286 0.74084-0.64051 0.73311-0.64051 1.991v4.8849h-1.4276v-8.643h1.4276v1.3428q0.48617-0.79485 1.1653-1.173 0.6791-0.37813 1.6128-0.37813 0.94148 0 1.5974 0.47845 0.66366 0.47845 0.98006 1.3891z" style=""/>
  </g>
  <g id="text74" aria-label="Product">
   <path id="path145" d="m523.08 335.23v4.3292h1.9601q1.0881 0 1.6823-0.56334 0.59421-0.56334 0.59421-1.6051 0-1.0341-0.59421-1.5974-0.5942-0.56334-1.6823-0.56334zm-1.5588-1.281h3.519q1.937 0 2.9247 0.87973 0.99549 0.87202 0.99549 2.562 0 1.7054-0.99549 2.5775-0.98778 0.87202-2.9247 0.87202h-1.9601v4.6302h-1.5588z" style=""/>
   <path id="path147" d="m535.72 338.16q-0.23922-0.13891-0.52475-0.20064-0.27781-0.0695-0.61736-0.0695-1.2038 0-1.8521 0.78714-0.64051 0.77941-0.64051 2.2456v4.553h-1.4276v-8.643h1.4276v1.3428q0.44759-0.78713 1.1653-1.1653 0.71768-0.38585 1.744-0.38585 0.14662 0 0.32411 0.0231 0.17749 0.0154 0.39357 0.054z" style=""/>
   <path id="path149" d="m540.24 337.83q-1.1421 0-1.8058 0.89517-0.66366 0.88745-0.66366 2.4386 0 1.5511 0.65594 2.4463 0.66366 0.88746 1.8135 0.88746 1.1344 0 1.7981-0.89517 0.66367-0.89517 0.66367-2.4386 0-1.5357-0.66367-2.4309-0.66366-0.90288-1.7981-0.90288zm0-1.2038q1.8521 0 2.9093 1.2038t1.0572 3.3337q0 2.1222-1.0572 3.3337-1.0572 1.2038-2.9093 1.2038-1.8598 0-2.917-1.2038-1.0495-1.2116-1.0495-3.3337 0-2.1299 1.0495-3.3337 1.0572-1.2038 2.917-1.2038z" style=""/>
   <path id="path151" d="m552.24 338.14v-4.6765h1.4199v12.008h-1.4199v-1.2965q-0.44759 0.7717-1.1344 1.1498-0.6791 0.37042-1.636 0.37042-1.5666 0-2.5543-1.2502-0.98006-1.2502-0.98006-3.2874 0-2.0373 0.98006-3.2874 0.98778-1.2502 2.5543-1.2502 0.9569 0 1.636 0.37813 0.68681 0.37041 1.1344 1.1421zm-4.8386 3.0174q0 1.5666 0.64051 2.4617 0.64823 0.88745 1.7749 0.88745t1.7749-0.88745q0.64823-0.89517 0.64823-2.4617t-0.64823-2.454q-0.64823-0.89517-1.7749-0.89517t-1.7749 0.89517q-0.64051 0.88746-0.64051 2.454z" style=""/>
   <path id="path153" d="m556.44 342.06v-5.2321h1.4199v5.1781q0 1.227 0.47845 1.8444 0.47846 0.60964 1.4354 0.60964 1.1498 0 1.8135-0.73311 0.67137-0.73312 0.67137-1.9987v-4.9003h1.4199v8.643h-1.4199v-1.3273q-0.51703 0.78714-1.2038 1.173-0.67909 0.37813-1.582 0.37813-1.4894 0-2.2611-0.92604t-0.7717-2.7087zm3.573-5.4405z" style=""/>
   <path id="path155" d="m572.83 337.16v1.3273q-0.60192-0.33183-1.2116-0.49389-0.60192-0.16977-1.2193-0.16977-1.3813 0-2.1453 0.87973-0.76398 0.87202-0.76398 2.454 0 1.582 0.76398 2.4617 0.76399 0.87202 2.1453 0.87202 0.61736 0 1.2193-0.16206 0.60965-0.16977 1.2116-0.5016v1.3119q-0.59421 0.27781-1.2347 0.41671-0.63279 0.13891-1.3505 0.13891-1.9524 0-3.1022-1.227t-1.1498-3.3106q0-2.1145 1.1575-3.326 1.1653-1.2116 3.1871-1.2116 0.65595 0 1.281 0.1389 0.62508 0.13119 1.2116 0.40129z" style=""/>
   <path id="path157" d="m576.72 334.38v2.454h2.9247v1.1035h-2.9247v4.6919q0 1.0572 0.28553 1.3582 0.29324 0.30096 1.1807 0.30096h1.4585v1.1884h-1.4585q-1.6437 0-2.2688-0.60965-0.62508-0.61736-0.62508-2.2379v-4.6919h-1.0418v-1.1035h1.0418v-2.454z" style=""/>
  </g>
 </g>
</svg>
