<?xml version="1.0" encoding="UTF-8" standalone="no"?>
<!-- Created with Inkscape (http://www.inkscape.org/) -->
<svg id="svg2" xmlns:rdf="http://www.w3.org/1999/02/22-rdf-syntax-ns#" xmlns="http://www.w3.org/2000/svg" height="281.94" width="552.3" version="1.1" xmlns:cc="http://creativecommons.org/ns#" xmlns:dc="http://purl.org/dc/elements/1.1/" viewBox="299 189 294.20642 154.16397">
 <metadata id="metadata48">
  <rdf:RDF>
   <cc:Work rdf:about="">
    <dc:format>image/svg+xml</dc:format>
    <dc:type rdf:resource="http://purl.org/dc/dcmitype/StillImage"/>
   </cc:Work>
  </rdf:RDF>
 </metadata>
 <path id="line4" d="m416.1 240h120" stroke="#f3d385" stroke-width="2" fill="none"/>
 <path id="line6" d="m536.1 240 10 30" stroke="#f3d385" stroke-width="2" fill="none"/>
 <path id="line8" d="m296.1 300h300" stroke="#000" stroke-width="2" fill="none"/>
 <g id="g10" transform="translate(-3.8968)">
  <path id="rect12" fill="#fff" d="m350 220h70v80h-70z"/>
  <path id="rect14" d="m350 220h70v80h-70z" stroke="#000" stroke-width="2" fill="none"/>
 </g>
 <g id="g16" transform="translate(-3.8968)">
  <path id="ellipse18" fill="#fff" d="m560 210c0 11.046-8.9543 20-20 20s-20-8.9543-20-20 8.9543-20 20-20 20 8.9543 20 20z"/>
  <path id="ellipse20" d="m560 210c0 11.046-8.9543 20-20 20s-20-8.9543-20-20 8.9543-20 20-20 20 8.9543 20 20z" stroke="#000" stroke-width="2" fill="none"/>
 </g>
 <path id="line22" d="m536.1 230-10 40" stroke="#000" stroke-width="2" fill="none"/>
 <path id="line24" d="m526.1 270 20 30" stroke="#000" stroke-width="2" fill="none"/>
 <path id="line26" d="m534.1 240 12 10" stroke="#000" stroke-width="2" fill="none"/>
 <path id="line28" d="m516.1 300 10-30" stroke="#000" stroke-width="2" fill="none"/>
 <g id="g30" stroke="#000" stroke-width="2" fill="none" transform="translate(-3.8968)">
  <path id="line32" d="m420 230h45.528"/>
  <path id="polyline34" d="m457.76 235 10-5-10-5"/>
 </g>
 <g id="text36">
  <path id="path3016" style="" d="m427.65 208.48h6.6212v1.3119h-5.0624v3.3955h4.5685v1.3119h-4.5685v5.5022h-1.5588v-11.521"/>
 </g>
 <g id="text40">
  <path id="path3019" style="" d="m404.96 328.48h1.5743l2.4231 9.7388 2.4154-9.7388h1.7518l2.4231 9.7388 2.4154-9.7388h1.582l-2.8939 11.521h-1.9601l-2.4308-10.001-2.454 10.001h-1.9601l-2.8862-11.521"/>
  <path id="path3021" style="" d="m426.76 332.82h9.8932v1.2964h-9.8932v-1.2964m0 3.1485h9.8932v1.3119h-9.8932v-1.3119"/>
  <path id="path3023" style="" d="m444.91 328.48h6.6212v1.3119h-5.0624v3.3955h4.5685v1.3119h-4.5685v5.5022h-1.5588v-11.521"/>
  <path id="path3025" style="" d="m454.15 333.53h1.6283v1.9601h-1.6283v-1.9601"/>
  <path id="path3027" style="" d="m464.49 331.61v1.3428c-0.40129-0.20578-0.81801-0.36012-1.2502-0.46302-0.43215-0.10289-0.87974-0.15434-1.3428-0.15434-0.70483 0-1.2347 0.10804-1.5897 0.32411-0.34984 0.21608-0.52476 0.5402-0.52476 0.97234 0 0.32927 0.12604 0.58907 0.37813 0.77942 0.25209 0.18521 0.75884 0.3627 1.5202 0.53247l0.48617 0.10804c1.0084 0.21608 1.7235 0.52219 2.1453 0.91832 0.427 0.391 0.6405 0.9389 0.64051 1.6437-0.00001 0.80257-0.31898 1.4379-0.95691 1.9061-0.6328 0.46816-1.5048 0.70224-2.6161 0.70224-0.46302 0-0.94662-0.0463-1.4508-0.1389-0.49903-0.0875-1.0264-0.22122-1.582-0.40129v-1.4662c0.52475 0.27267 1.0418 0.47846 1.5511 0.61736 0.50931 0.13377 1.0135 0.20065 1.5125 0.20065 0.6688 0 1.1833-0.11319 1.5434-0.33955 0.36013-0.23151 0.54019-0.55562 0.54019-0.97234 0-0.38585-0.13119-0.68167-0.39356-0.88746-0.25724-0.20578-0.82573-0.40385-1.7055-0.59421l-0.49389-0.11575c-0.87973-0.1852-1.5151-0.46816-1.9061-0.84887-0.391-0.38584-0.58649-0.91317-0.58649-1.582 0-0.81285 0.2881-1.4405 0.8643-1.883 0.5762-0.44243 1.3942-0.66365 2.454-0.66366 0.52475 0.00001 1.0186 0.0386 1.4817 0.11575 0.46301 0.0772 0.89002 0.19294 1.281 0.34727"/>
  <path id="path3029" style="" d="m472.12 327.99h3.272v1.1035h-1.8521v11.884h1.8521v1.1035h-3.272v-14.091"/>
  <path id="path3031" style="" d="m478.49 328.48h1.5588v10.719c-0.00001 1.3891-0.26496 2.3974-0.79485 3.0251-0.52476 0.62765-1.3711 0.94147-2.5389 0.94148h-0.59421v-1.3119h0.48617c0.68938 0 1.1756-0.19293 1.4585-0.57878 0.28296-0.38585 0.42443-1.0778 0.42444-2.0759v-10.719"/>
  <path id="path3033" style="" d="m486.41 327.99v14.091h-3.272v-1.1035h1.8444v-11.884h-1.8444v-1.1035h3.272"/>
 </g>
</svg>
