<?xml version="1.0" encoding="UTF-8" standalone="no"?>
<svg id="svg2" xmlns:rdf="http://www.w3.org/1999/02/22-rdf-syntax-ns#" xmlns="http://www.w3.org/2000/svg" viewBox="210 89 382.00001 190.26816" height="9.7573cm" width="19.54cm" version="1.1" xmlns:cc="http://creativecommons.org/ns#" xmlns:dc="http://purl.org/dc/elements/1.1/">
 <metadata id="metadata106">
  <rdf:RDF>
   <cc:Work rdf:about="">
    <dc:format>image/svg+xml</dc:format>
    <dc:type rdf:resource="http://purl.org/dc/dcmitype/StillImage"/>
   </cc:Work>
  </rdf:RDF>
 </metadata>
 <g id="g4" stroke="#7f7f7f" stroke-width="2" fill="none" transform="translate(-9 -.24393)">
  <path id="line6" d="m230 180v45.528"/>
  <path id="polyline8" d="m225 217.76 5 10 5-10"/>
 </g>
 <g id="g10" stroke="#7f7f7f" stroke-width="2" fill="none" transform="translate(-9 -.24393)">
  <path id="line12" d="m570 200v45.528"/>
  <path id="polyline14" d="m565 237.76 5 10 5-10"/>
 </g>
 <g id="g16" stroke="#7f7f7f" stroke-width="2" fill="none" transform="translate(-9 -.24393)">
  <path id="line18" d="m230 160 170 10"/>
  <path id="line20" d="m230 160-4.991-0.29401"/>
  <path id="line22" d="m224.72 164.7 10.57-9.396"/>
  <path id="line24" d="m229.71 164.99 0.58802-9.982"/>
  <path id="line26" d="m400 170 4.991 0.29401"/>
  <path id="line28" d="m405.28 165.3-10.57 9.396"/>
  <path id="line30" d="m400.29 165.01-0.58802 9.982"/>
 </g>
 <g id="g32" stroke="#7f7f7f" stroke-width="2" fill="none" transform="translate(-9 -.24393)">
  <path id="line34" d="m400 170 170 10"/>
  <path id="line36" d="m400 170-4.991-0.29401"/>
  <path id="line38" d="m394.72 174.7 10.57-9.396"/>
  <path id="line40" d="m399.71 174.99 0.58802-9.982"/>
  <path id="line42" d="m570 180 4.991 0.29401"/>
  <path id="line44" d="m575.28 175.3-10.57 9.396"/>
  <path id="line46" d="m570.29 175.01-0.58802 9.982"/>
 </g>
 <g id="g48" transform="translate(-9 -.24393)">
  <path id="polygon50" fill="#fff" d="m380 220h40l-20-40z"/>
  <path id="polygon52" d="m380 220h40l-20-40z" stroke="#000" stroke-width="2" fill="none"/>
 </g>
 <path id="line54" d="m211 169.76 360 20" stroke="#000" stroke-width="2" fill="none"/>
 <g id="g56" transform="translate(-9 -.24393)">
  <path id="ellipse58" fill="#fff" d="m260 110a20 20 0 0 1 -20 20 20 20 0 0 1 -20 -20 20 20 0 0 1 20 -20 20 20 0 0 1 20 20z"/>
  <path id="ellipse60" d="m260 110a20 20 0 0 1 -20 20 20 20 0 0 1 -20 -20 20 20 0 0 1 20 -20 20 20 0 0 1 20 20z" stroke="#000" stroke-width="2" fill="none"/>
 </g>
 <path id="line62" d="m231 129.76-10 40" stroke="#000" stroke-width="2" fill="none"/>
 <path id="line64" d="m221 169.76 20 30" stroke="#000" stroke-width="2" fill="none"/>
 <path id="line66" d="m231 139.76 20 30" stroke="#000" stroke-width="2" fill="none"/>
 <g id="g68" transform="translate(-9 -.24393)">
  <path id="ellipse70" fill="#fff" d="m600 130a20 20 0 0 1 -20 20 20 20 0 0 1 -20 -20 20 20 0 0 1 20 -20 20 20 0 0 1 20 20z"/>
  <path id="ellipse72" d="m600 130a20 20 0 0 1 -20 20 20 20 0 0 1 -20 -20 20 20 0 0 1 20 -20 20 20 0 0 1 20 20z" stroke="#000" stroke-width="2" fill="none"/>
 </g>
 <path id="line74" d="m571 149.76-10 40" stroke="#000" stroke-width="2" fill="none"/>
 <path id="line76" d="m561 189.76-30 30" stroke="#000" stroke-width="2" fill="none"/>
 <path id="line78" d="m567 161.76-28 20" stroke="#000" stroke-width="2" fill="none"/>
 <g id="text80">
  <path id="path88" style="" d="m232.55 208.23h6.6212v1.3119h-5.0623v3.3955h4.5685v1.3119h-4.5685v5.5022h-1.5588v-11.521z"/>
  <path id="path90" style="" d="m241.31 218.91h1.5743v-4.7151l-1.7209 0.3164v-0.89517l1.7749-0.30097h1.0572v5.5948h1.582v0.84887h-4.2675v-0.84887z"/>
 </g>
 <g id="text84">
  <path id="path93" style="" d="m308.44 147.75h1.4276v7.0919l4.2366-3.7273h1.8135l-4.5839 4.0437 4.7768 4.5993h-1.8521l-4.391-4.2212v4.2212h-1.4276v-12.008z"/>
  <path id="path95" style="" d="m317.37 158.91h1.5743v-4.7151l-1.7209 0.3164v-0.89517l1.7749-0.30097h1.0572v5.5948h1.582v0.84887h-4.2675v-0.84887z"/>
 </g>
 <g id="text88">
  <path id="path98" style="" d="m540.55 228.23h6.6212v1.3119h-5.0623v3.3955h4.5685v1.3119h-4.5685v5.5022h-1.5588v-11.521z"/>
  <path id="path100" style="" d="m550.17 238.88h3.272v0.87973h-4.6148v-0.84887q0.26238-0.23922 0.74855-0.67137 2.6546-2.3537 2.6546-3.0791 0-0.50933-0.40128-0.81801-0.40128-0.31639-1.0572-0.31639-0.40128 0-0.87202 0.1389-0.47074 0.13119-1.0264 0.40129v-0.94919q0.59421-0.21608 1.1035-0.32412 0.51704-0.10803 0.95691-0.10803 1.119 0 1.7903 0.50932 0.67138 0.50932 0.67138 1.3428 0 1.0727-2.5543 3.2643-0.43215 0.37042-0.67137 0.57878z"/>
 </g>
 <g id="text92">
  <path id="path103" style="" d="m484.44 155.75h1.4276v7.0919l4.2366-3.7273h1.8135l-4.5839 4.0437 4.7768 4.5993h-1.8521l-4.391-4.2212v4.2212h-1.4276v-12.008z"/>
  <path id="path105" style="" d="m494.24 166.88h3.272v0.87973h-4.6148v-0.84887q0.26238-0.23922 0.74855-0.67137 2.6546-2.3537 2.6546-3.0791 0-0.50933-0.40129-0.81801-0.40128-0.31639-1.0572-0.31639-0.40129 0-0.87202 0.1389-0.47074 0.13119-1.0264 0.40129v-0.94919q0.5942-0.21608 1.1035-0.32412 0.51703-0.10803 0.9569-0.10803 1.119 0 1.7904 0.50932 0.67137 0.50932 0.67137 1.3428 0 1.0727-2.5543 3.2643-0.43215 0.37042-0.67138 0.57878z"/>
 </g>
 <g id="text96">
  <path id="path108" style="" d="m336.93 248.23h2.099l5.1086 9.6385v-9.6385h1.5125v11.521h-2.099l-5.1086-9.6385v9.6385h-1.5125v-11.521z"/>
  <path id="path110" style="" d="m353.9 252.58h9.8932v1.2964h-9.8932v-1.2964zm0 3.1485h9.8932v1.3119h-9.8932v-1.3119z"/>
  <path id="path112" style="" d="m372.05 248.23h6.6212v1.3119h-5.0623v3.3955h4.5685v1.3119h-4.5685v5.5022h-1.5588v-11.521z"/>
  <path id="path114" style="" d="m390.69 251.27-3.5267 3.5421 3.5267 3.5267-0.91832 0.93375-3.5421-3.5421-3.5421 3.5421-0.9106-0.93375 3.5189-3.5267-3.5189-3.5421 0.9106-0.93375 3.5421 3.5421 3.5421-3.5421 0.91832 0.93375z"/>
  <path id="path116" style="" d="m394.29 247.75h1.4276v7.0919l4.2366-3.7273h1.8135l-4.5839 4.0437 4.7768 4.5993h-1.8521l-4.391-4.2212v4.2212h-1.4276v-12.008z"/>
  <path id="path118" style="" d="m408.41 247.75h3.272v1.1035h-1.8521v11.884h1.8521v1.1035h-3.272v-14.091z"/>
  <path id="path120" style="" d="m414.78 248.23h2.099l5.1086 9.6385v-9.6385h1.5125v11.521h-2.099l-5.1086-9.6385v9.6385h-1.5125v-11.521z"/>
  <path id="path122" style="" d="m433.27 252.77q0.53247-0.9569 1.2733-1.4122 0.74084-0.45531 1.744-0.45531 1.3505 0 2.0836 0.94919 0.73312 0.94148 0.73312 2.6855v5.2167h-1.4276v-5.1704q0-1.2424-0.43986-1.8444-0.43987-0.60193-1.3428-0.60193-1.1035 0-1.744 0.73312-0.64051 0.73311-0.64051 1.9987v4.8848h-1.4276v-5.1704q0-1.2502-0.43986-1.8444-0.43987-0.60193-1.3582-0.60193-1.0881 0-1.7286 0.74083-0.64051 0.73312-0.64051 1.991v4.8848h-1.4276v-8.643h1.4276v1.3428q0.48617-0.79485 1.1653-1.173 0.6791-0.37814 1.6129-0.37814 0.94147 0 1.5974 0.47846 0.66366 0.47845 0.98006 1.389z"/>
  <path id="path124" style="" d="m445.26 247.75v14.091h-3.272v-1.1035h1.8444v-11.884h-1.8444v-1.1035h3.272z"/>
  <path id="path126" style="" d="m355 267.99h6.6212v1.3119h-5.0624v3.3955h4.5685v1.3119h-4.5685v5.5022h-1.5588v-11.521z"/>
  <path id="path128" style="" d="m363.76 278.66h1.5743v-4.7151l-1.7209 0.3164v-0.89517l1.7749-0.30096h1.0572v5.5948h1.582v0.84886h-4.2675v-0.84886z"/>
  <path id="path130" style="" d="m370.32 267.5h1.4276v7.0919l4.2366-3.7273h1.8135l-4.5839 4.0437 4.7768 4.5993h-1.8521l-4.391-4.2212v4.2212h-1.4276v-12.008z"/>
  <path id="path132" style="" d="m379.25 278.66h1.5743v-4.7151l-1.7209 0.3164v-0.89517l1.7749-0.30096h1.0572v5.5948h1.582v0.84886h-4.2675v-0.84886z"/>
  <path id="path134" style="" d="m386.05 272.34h9.8932v1.2965h-9.8932v-1.2965zm0 3.1485h9.8932v1.3119h-9.8932v-1.3119z"/>
  <path id="path136" style="" d="m399.17 267.99h6.6212v1.3119h-5.0624v3.3955h4.5685v1.3119h-4.5685v5.5022h-1.5588v-11.521z"/>
  <path id="path138" style="" d="m408.8 278.63h3.272v0.87973h-4.6148v-0.84886q0.26237-0.23923 0.74854-0.67138 2.6546-2.3537 2.6546-3.0791 0-0.50932-0.40128-0.818-0.40129-0.3164-1.0572-0.3164-0.40128 0-0.87202 0.13891-0.47074 0.13118-1.0264 0.40128v-0.94919q0.59421-0.21608 1.1035-0.32411 0.51704-0.10804 0.95691-0.10804 1.119 0 1.7903 0.50932 0.67138 0.50932 0.67138 1.3428 0 1.0727-2.5543 3.2643-0.43215 0.37042-0.67138 0.57878z"/>
  <path id="path140" style="" d="m414.49 267.5h1.4276v7.0919l4.2366-3.7273h1.8135l-4.5839 4.0437 4.7768 4.5993h-1.8521l-4.391-4.2212v4.2212h-1.4276v-12.008z"/>
  <path id="path142" style="" d="m424.29 278.63h3.272v0.87973h-4.6148v-0.84886q0.26237-0.23923 0.74854-0.67138 2.6546-2.3537 2.6546-3.0791 0-0.50932-0.40128-0.818-0.40129-0.3164-1.0572-0.3164-0.40129 0-0.87202 0.13891-0.47074 0.13118-1.0264 0.40128v-0.94919q0.59421-0.21608 1.1035-0.32411 0.51704-0.10804 0.95691-0.10804 1.119 0 1.7903 0.50932 0.67138 0.50932 0.67138 1.3428 0 1.0727-2.5543 3.2643-0.43215 0.37042-0.67138 0.57878z"/>
 </g>
</svg>
