<?xml version="1.0" encoding="UTF-8" standalone="no"?>
<svg
   xmlns:dc="http://purl.org/dc/elements/1.1/"
   xmlns:cc="http://creativecommons.org/ns#"
   xmlns:rdf="http://www.w3.org/1999/02/22-rdf-syntax-ns#"
   xmlns:svg="http://www.w3.org/2000/svg"
   xmlns="http://www.w3.org/2000/svg"
   xmlns:sodipodi="http://sodipodi.sourceforge.net/DTD/sodipodi-0.dtd"
   xmlns:inkscape="http://www.inkscape.org/namespaces/inkscape"
   version="1.1"
   id="svg2"
   viewBox="319 -81 422.30511 285.80191"
   height="14.834009cm"
   width="21.912058cm"
   inkscape:version="0.91 r13725"
   sodipodi:docname="elettartam.svg">
  <sodipodi:namedview
     pagecolor="#ffffff"
     bordercolor="#666666"
     borderopacity="1"
     objecttolerance="10"
     gridtolerance="10"
     guidetolerance="10"
     inkscape:pageopacity="0"
     inkscape:pageshadow="2"
     inkscape:window-width="640"
     inkscape:window-height="480"
     id="namedview57"
     showgrid="false"
     inkscape:zoom="0.44402963"
     inkscape:cx="389.76378"
     inkscape:cy="259.94911"
     inkscape:window-x="0"
     inkscape:window-y="25"
     inkscape:window-maximized="0"
     inkscape:current-layer="svg2" />
  <metadata
     id="metadata112">
    <rdf:RDF>
      <cc:Work
         rdf:about="">
        <dc:format>image/svg+xml</dc:format>
        <dc:type
           rdf:resource="http://purl.org/dc/dcmitype/StillImage" />
      </cc:Work>
    </rdf:RDF>
  </metadata>
  <defs
     id="defs110" />
  <g
     id="g4"
     transform="translate(0,-0.04495035)">
    <path
       style="fill:#ffffff"
       d="m 400,160 a 40,40 0 0 1 -40,40 40,40 0 0 1 -40,-40 40,40 0 0 1 40,-40 40,40 0 0 1 40,40 z"
       id="ellipse6" />
    <path
       style="fill:none;fill-opacity:0;stroke:#000000;stroke-width:2"
       d="m 400,160 a 40,40 0 0 1 -40,40 40,40 0 0 1 -40,-40 40,40 0 0 1 40,-40 40,40 0 0 1 40,40 z"
       id="ellipse8" />
    <g
       style="font-style:normal;font-weight:normal;font-size:12.80000019px;font-family:sans-serif;text-anchor:middle;fill:#000000"
       id="text10" />
  </g>
  <g
     id="g14"
     transform="translate(0,-0.04495035)">
    <path
       style="fill:#ffffff"
       d="m 700,160 a 40,40 0 0 1 -40,40 40,40 0 0 1 -40,-40 40,40 0 0 1 40,-40 40,40 0 0 1 40,40 z"
       id="ellipse16" />
    <path
       style="fill:none;fill-opacity:0;stroke:#000000;stroke-width:2"
       d="m 700,160 a 40,40 0 0 1 -40,40 40,40 0 0 1 -40,-40 40,40 0 0 1 40,-40 40,40 0 0 1 40,40 z"
       id="ellipse18" />
    <g
       style="font-style:normal;font-weight:normal;font-size:12.80000019px;font-family:sans-serif;text-anchor:middle;fill:#000000"
       id="text20" />
  </g>
  <g
     id="g24"
     transform="translate(0,-0.04495035)">
    <path
       style="fill:#ffffff"
       d="m 550,-40 a 40,40 0 0 1 -40,40 40,40 0 0 1 -40,-40 40,40 0 0 1 40,-40 40,40 0 0 1 40,40 z"
       id="ellipse26" />
    <path
       style="fill:none;fill-opacity:0;stroke:#000000;stroke-width:2"
       d="m 550,-40 a 40,40 0 0 1 -40,40 40,40 0 0 1 -40,-40 40,40 0 0 1 40,-40 40,40 0 0 1 40,40 z"
       id="ellipse28" />
    <g
       style="font-style:normal;font-weight:normal;font-size:12.80000019px;font-family:sans-serif;text-anchor:middle;fill:#000000"
       id="text30" />
  </g>
  <g
     style="font-style:normal;font-weight:normal;font-size:13.54669952px;font-family:sans-serif;text-anchor:middle;fill:#000000"
     id="text34">
    <path
       d="m 334.26259,150.20184 q 0.45641,-0.82021 1.09141,-1.21047 0.635,-0.39027 1.4949,-0.39027 1.15756,0 1.78594,0.8136 0.62839,0.80698 0.62839,2.30188 l 0,4.47147 -1.2237,0 0,-4.43178 q 0,-1.06495 -0.37703,-1.58089 -0.37703,-0.51594 -1.15094,-0.51594 -0.94589,0 -1.4949,0.62839 -0.54901,0.62838 -0.54901,1.71318 l 0,4.18704 -1.2237,0 0,-4.43178 q 0,-1.07157 -0.37704,-1.58089 -0.37703,-0.51594 -1.16417,-0.51594 -0.93265,0 -1.48167,0.635 -0.54901,0.62839 -0.54901,1.70657 l 0,4.18704 -1.2237,0 0,-7.40835 1.2237,0 0,1.15094 q 0.41672,-0.68131 0.99881,-1.00542 0.58208,-0.32412 1.38245,-0.32412 0.80698,0 1.36922,0.41011 0.56886,0.4101 0.84005,1.19063 z"
       style=""
       id="path69" />
    <path
       d="m 348.03419,152.1796 0,0.59532 -5.59595,0 q 0.0794,1.25677 0.75406,1.91823 0.68131,0.65485 1.89178,0.65485 0.70115,0 1.35599,-0.17198 0.66146,-0.17198 1.30969,-0.51594 l 0,1.15094 q -0.65484,0.27781 -1.34276,0.42333 -0.68792,0.14552 -1.39568,0.14552 -1.77271,0 -2.81121,-1.03187 -1.03187,-1.03188 -1.03187,-2.79137 0,-1.81901 0.97896,-2.88396 0.98557,-1.07157 2.65245,-1.07157 1.4949,0 2.36141,0.96574 0.87313,0.95911 0.87313,2.61276 z m -1.21709,-0.35719 q -0.0132,-0.9988 -0.56224,-1.59411 -0.54239,-0.59532 -1.44198,-0.59532 -1.01865,0 -1.63381,0.57547 -0.60854,0.57547 -0.70114,1.62058 l 4.33917,-0.007 z"
       style=""
       id="path71" />
    <path
       d="m 355.79973,150.20184 q 0.45641,-0.82021 1.09141,-1.21047 0.635,-0.39027 1.4949,-0.39027 1.15755,0 1.78594,0.8136 0.62839,0.80698 0.62839,2.30188 l 0,4.47147 -1.2237,0 0,-4.43178 q 0,-1.06495 -0.37704,-1.58089 -0.37703,-0.51594 -1.15094,-0.51594 -0.94588,0 -1.4949,0.62839 -0.54901,0.62838 -0.54901,1.71318 l 0,4.18704 -1.2237,0 0,-4.43178 q 0,-1.07157 -0.37703,-1.58089 -0.37703,-0.51594 -1.16417,-0.51594 -0.93266,0 -1.48167,0.635 -0.54901,0.62839 -0.54901,1.70657 l 0,4.18704 -1.2237,0 0,-7.40835 1.2237,0 0,1.15094 q 0.41672,-0.68131 0.9988,-1.00542 0.58209,-0.32412 1.38245,-0.32412 0.80698,0 1.36923,0.41011 0.56885,0.4101 0.84005,1.19063 z"
       style=""
       id="path73" />
    <path
       d="m 366.10528,149.63298 q -0.97897,0 -1.54782,0.76729 -0.56886,0.76068 -0.56886,2.09022 0,1.32953 0.56224,2.09683 0.56886,0.76068 1.55444,0.76068 0.97234,0 1.5412,-0.7673 0.56885,-0.76729 0.56885,-2.09021 0,-1.31631 -0.56885,-2.0836 -0.56886,-0.77391 -1.5412,-0.77391 z m 0,-1.03188 q 1.5875,0 2.4937,1.03188 0.9062,1.03188 0.9062,2.85751 0,1.81901 -0.9062,2.85751 -0.9062,1.03187 -2.4937,1.03187 -1.59412,0 -2.50032,-1.03187 -0.89959,-1.0385 -0.89959,-2.85751 0,-1.82563 0.89959,-2.85751 0.9062,-1.03188 2.50032,-1.03188 z m 0.91942,-3.24776 1.31631,0 -2.15636,2.48708 -1.01203,0 1.85208,-2.48708 z"
       style=""
       id="path75" />
    <path
       d="m 375.80889,149.91741 q -0.20505,-0.11906 -0.44979,-0.17198 -0.23813,-0.0595 -0.52917,-0.0595 -1.03188,0 -1.5875,0.67469 -0.54901,0.66807 -0.54901,1.92485 l 0,3.90261 -1.2237,0 0,-7.40835 1.2237,0 0,1.15094 q 0.38364,-0.67469 0.9988,-0.99881 0.61516,-0.33073 1.4949,-0.33073 0.12568,0 0.27781,0.0198 0.15214,0.0132 0.33735,0.0463 l 0.007,1.25016 z"
       style=""
       id="path77" />
    <path
       d="m 377.09874,148.7797 1.21709,0 0,7.40835 -1.21709,0 0,-7.40835 z m 0,-2.88397 1.21709,0 0,1.5412 -1.21709,0 0,-1.5412 z"
       style=""
       id="path79" />
    <path
       d="m 384.22266,152.46403 q -1.47505,0 -2.04391,0.33734 -0.56885,0.33735 -0.56885,1.15094 0,0.64824 0.42333,1.03188 0.42995,0.37703 1.16417,0.37703 1.01203,0 1.62058,-0.71437 0.61515,-0.72099 0.61515,-1.91162 l 0,-0.2712 -1.21047,0 z m 2.42756,-0.50271 0,4.22673 -1.21709,0 0,-1.12448 q -0.41672,0.67469 -1.03849,0.9988 -0.62177,0.3175 -1.52136,0.3175 -1.13771,0 -1.8124,-0.635 -0.66807,-0.64161 -0.66807,-1.71318 0,-1.25016 0.83344,-1.88516 0.84005,-0.635 2.50032,-0.635 l 1.70656,0 0,-0.11907 q 0,-0.84005 -0.55562,-1.29646 -0.54901,-0.46302 -1.54782,-0.46302 -0.635,0 -1.23693,0.15214 -0.60193,0.15213 -1.15755,0.4564 l 0,-1.12448 q 0.66807,-0.25797 1.29646,-0.38364 0.62838,-0.1323 1.2237,-0.1323 1.60735,0 2.4011,0.83344 0.79375,0.83344 0.79375,2.52678 z"
       style=""
       id="path81" />
    <path
       d="m 388.54861,151.93486 3.56527,0 0,1.0848 -3.56527,0 0,-1.0848 z"
       style=""
       id="path83" />
    <path
       d="m 341.31376,165.93199 0,1.15094 q -0.51594,-0.26459 -1.07157,-0.39688 -0.55562,-0.13229 -1.15094,-0.13229 -0.9062,0 -1.36261,0.27781 -0.44979,0.27781 -0.44979,0.83344 0,0.42333 0.32412,0.66808 0.32411,0.23812 1.30307,0.4564 l 0.41672,0.0926 q 1.29646,0.27781 1.83886,0.78713 0.54901,0.50271 0.54901,1.40891 0,1.03188 -0.82021,1.63381 -0.81359,0.60193 -2.24235,0.60193 -0.59531,0 -1.24354,-0.11906 -0.64162,-0.11245 -1.35599,-0.34396 l 0,-1.25678 q 0.67468,0.35058 1.32953,0.52917 0.65485,0.17198 1.29646,0.17198 0.8599,0 1.32292,-0.29104 0.46302,-0.29766 0.46302,-0.83344 0,-0.4961 -0.33734,-0.76068 -0.33073,-0.26458 -1.46183,-0.50932 l -0.42333,-0.0992 q -1.1311,-0.23813 -1.63381,-0.72761 -0.50271,-0.49609 -0.50271,-1.35599 0,-1.04511 0.74084,-1.61396 0.74083,-0.56886 2.10344,-0.56886 0.67469,0 1.27,0.0992 0.59532,0.0992 1.09803,0.29766 z"
       style=""
       id="path85" />
    <path
       d="m 343.12616,165.7137 5.78116,0 0,1.11126 -4.57731,5.32475 4.57731,0 0,0.97235 -5.94653,0 0,-1.11126 4.5773,-5.32475 -4.41193,0 0,-0.97235 z"
       style=""
       id="path87" />
    <path
       d="m 357.10942,169.11361 0,0.59531 -5.59595,0 q 0.0794,1.25678 0.75406,1.91824 0.68131,0.65484 1.89178,0.65484 0.70115,0 1.35599,-0.17198 0.66146,-0.17198 1.30969,-0.51594 l 0,1.15094 q -0.65484,0.27782 -1.34276,0.42334 -0.68792,0.14552 -1.39568,0.14552 -1.77271,0 -2.81121,-1.03188 -1.03187,-1.03188 -1.03187,-2.79136 0,-1.81901 0.97896,-2.88397 0.98557,-1.07156 2.65245,-1.07156 1.4949,0 2.36141,0.96573 0.87313,0.95912 0.87313,2.61277 z m -1.21709,-0.35719 q -0.0132,-0.99881 -0.56224,-1.59412 -0.54239,-0.59531 -1.44198,-0.59531 -1.01865,0 -1.63381,0.57547 -0.60854,0.57547 -0.70114,1.62057 l 4.33917,-0.007 z"
       style=""
       id="path89" />
    <path
       d="m 364.87496,167.13584 q 0.45641,-0.82021 1.09141,-1.21047 0.635,-0.39026 1.4949,-0.39026 1.15755,0 1.78594,0.8136 0.62839,0.80698 0.62839,2.30188 l 0,4.47147 -1.2237,0 0,-4.43179 q 0,-1.06495 -0.37704,-1.58089 -0.37703,-0.51593 -1.15094,-0.51593 -0.94588,0 -1.4949,0.62838 -0.54901,0.62839 -0.54901,1.71318 l 0,4.18705 -1.2237,0 0,-4.43179 q 0,-1.07156 -0.37703,-1.58089 -0.37703,-0.51593 -1.16417,-0.51593 -0.93266,0 -1.48167,0.635 -0.54901,0.62838 -0.54901,1.70656 l 0,4.18705 -1.2237,0 0,-7.40836 1.2237,0 0,1.15094 q 0.41672,-0.6813 0.9988,-1.00542 0.58209,-0.32411 1.38245,-0.32411 0.80698,0 1.36923,0.4101 0.56885,0.41011 0.84005,1.19063 z"
       style=""
       id="path91" />
    <path
       d="m 378.64656,169.11361 0,0.59531 -5.59595,0 q 0.0794,1.25678 0.75406,1.91824 0.6813,0.65484 1.89178,0.65484 0.70114,0 1.35599,-0.17198 0.66146,-0.17198 1.30969,-0.51594 l 0,1.15094 q -0.65485,0.27782 -1.34276,0.42334 -0.68792,0.14552 -1.39569,0.14552 -1.77271,0 -2.8112,-1.03188 -1.03188,-1.03188 -1.03188,-2.79136 0,-1.81901 0.97896,-2.88397 0.98558,-1.07156 2.65246,-1.07156 1.4949,0 2.36141,0.96573 0.87313,0.95912 0.87313,2.61277 z m -1.21709,-0.35719 q -0.0132,-0.99881 -0.56224,-1.59412 -0.5424,-0.59531 -1.44198,-0.59531 -1.01865,0 -1.63381,0.57547 -0.60854,0.57547 -0.70115,1.62057 l 4.33918,-0.007 z m -1.17078,-6.46908 1.3163,0 -2.15636,2.48709 -1.01203,0 1.85209,-2.48709 z"
       style=""
       id="path93" />
    <path
       d="m 381.84802,163.61026 0,2.10344 2.50694,0 0,0.94589 -2.50694,0 0,4.02168 q 0,0.9062 0.24474,1.16417 0.25136,0.25797 1.01204,0.25797 l 1.25016,0 0,1.01865 -1.25016,0 q -1.40891,0 -1.94469,-0.52256 -0.53579,-0.52917 -0.53579,-1.91823 l 0,-4.02168 -0.89297,0 0,-0.94589 0.89297,0 0,-2.10344 1.2237,0 z"
       style=""
       id="path95" />
  </g>
  <g
     style="font-style:normal;font-weight:normal;font-size:13.54669952px;font-family:sans-serif;text-anchor:middle;fill:#000000"
     id="text40">
    <path
       d="m 657.42692,152.1796 0,0.59532 -5.59595,0 q 0.0794,1.25677 0.75406,1.91823 0.68131,0.65485 1.89178,0.65485 0.70115,0 1.35599,-0.17198 0.66146,-0.17198 1.30969,-0.51594 l 0,1.15094 q -0.65484,0.27781 -1.34276,0.42333 -0.68792,0.14552 -1.39568,0.14552 -1.77271,0 -2.81121,-1.03187 -1.03187,-1.03188 -1.03187,-2.79137 0,-1.81901 0.97896,-2.88396 0.98557,-1.07157 2.65245,-1.07157 1.4949,0 2.36141,0.96574 0.87313,0.95911 0.87313,2.61276 z m -1.21709,-0.35719 q -0.0132,-0.9988 -0.56224,-1.59411 -0.54239,-0.59532 -1.44198,-0.59532 -1.01865,0 -1.63381,0.57547 -0.60854,0.57547 -0.70114,1.62058 l 4.33917,-0.007 z m -1.17078,-6.46907 1.31631,0 -2.15636,2.48708 -1.01204,0 1.85209,-2.48708 z"
       style=""
       id="path99" />
    <path
       d="m 659.42453,145.89573 1.21709,0 0,10.29232 -1.21709,0 0,-10.29232 z"
       style=""
       id="path101" />
    <path
       d="m 668.01689,145.35334 1.1774,0 -1.64042,2.48708 -0.89297,0 1.35599,-2.48708 z m -2.20927,0 1.12448,0 -1.47506,2.48708 -0.9062,0 1.25678,-2.48708 z m 0.24474,4.27964 q -0.97896,0 -1.54782,0.76729 -0.56885,0.76068 -0.56885,2.09022 0,1.32953 0.56224,2.09683 0.56885,0.76068 1.55443,0.76068 0.97234,0 1.5412,-0.7673 0.56886,-0.76729 0.56886,-2.09021 0,-1.31631 -0.56886,-2.0836 -0.56886,-0.77391 -1.5412,-0.77391 z m 0,-1.03188 q 1.5875,0 2.4937,1.03188 0.9062,1.03188 0.9062,2.85751 0,1.81901 -0.9062,2.85751 -0.9062,1.03187 -2.4937,1.03187 -1.59412,0 -2.50032,-1.03187 -0.89959,-1.0385 -0.89959,-2.85751 0,-1.82563 0.89959,-2.85751 0.9062,-1.03188 2.50032,-1.03188 z"
       style=""
       id="path103" />
    <path
       d="m 632.17238,166.56699 q -0.97896,0 -1.54782,0.76729 -0.56885,0.76068 -0.56885,2.09021 0,1.32954 0.56224,2.09683 0.56886,0.76068 1.55443,0.76068 0.97235,0 1.5412,-0.76729 0.56886,-0.7673 0.56886,-2.09022 0,-1.3163 -0.56886,-2.08359 -0.56885,-0.77391 -1.5412,-0.77391 z m 0,-1.03188 q 1.5875,0 2.4937,1.03188 0.9062,1.03187 0.9062,2.8575 0,1.81902 -0.9062,2.85751 -0.9062,1.03188 -2.4937,1.03188 -1.59412,0 -2.50032,-1.03188 -0.89958,-1.03849 -0.89958,-2.85751 0,-1.82563 0.89958,-2.8575 0.9062,-1.03188 2.50032,-1.03188 z"
       style=""
       id="path105" />
    <path
       d="m 642.90126,169.42449 q 0,-1.34276 -0.55563,-2.10344 -0.54901,-0.76729 -1.51474,-0.76729 -0.96573,0 -1.52136,0.76729 -0.54901,0.76068 -0.54901,2.10344 0,1.34277 0.54901,2.11006 0.55563,0.76068 1.52136,0.76068 0.96573,0 1.51474,-0.76068 0.55563,-0.76729 0.55563,-2.11006 z m -4.14074,-2.5863 q 0.38365,-0.66146 0.96573,-0.97897 0.5887,-0.32411 1.4023,-0.32411 1.34938,0 2.18943,1.07156 0.84667,1.07157 0.84667,2.81782 0,1.74626 -0.84667,2.81782 -0.84005,1.07157 -2.18943,1.07157 -0.8136,0 -1.4023,-0.3175 -0.58208,-0.32412 -0.96573,-0.98558 l 0,1.11126 -1.2237,0 0,-10.29232 1.2237,0 0,4.00845 z"
       style=""
       id="path107" />
    <path
       d="m 646.1821,165.7137 1.21709,0 0,7.54065 q 0,1.41552 -0.5424,2.05052 -0.53578,0.635 -1.73302,0.635 l -0.46302,0 0,-1.03187 0.32411,0 q 0.69453,0 0.94589,-0.32412 0.25135,-0.3175 0.25135,-1.32953 l 0,-7.54065 z m 0,-2.88396 1.21709,0 0,1.5412 -1.21709,0 0,-1.5412 z"
       style=""
       id="path109" />
    <path
       d="m 656.27598,169.11361 0,0.59531 -5.59595,0 q 0.0794,1.25678 0.75406,1.91824 0.68131,0.65484 1.89178,0.65484 0.70115,0 1.35599,-0.17198 0.66146,-0.17198 1.30969,-0.51594 l 0,1.15094 q -0.65484,0.27782 -1.34276,0.42334 -0.68792,0.14552 -1.39568,0.14552 -1.77271,0 -2.81121,-1.03188 -1.03187,-1.03188 -1.03187,-2.79136 0,-1.81901 0.97896,-2.88397 0.98557,-1.07156 2.65245,-1.07156 1.4949,0 2.36141,0.96573 0.87313,0.95912 0.87313,2.61277 z m -1.21709,-0.35719 q -0.0132,-0.99881 -0.56224,-1.59412 -0.54239,-0.59531 -1.44198,-0.59531 -1.01865,0 -1.63381,0.57547 -0.60854,0.57547 -0.70114,1.62057 l 4.33917,-0.007 z"
       style=""
       id="path111" />
    <path
       d="m 658.22729,162.82974 1.2237,0 0,6.07882 3.63141,-3.19486 1.55444,0 -3.92908,3.46605 4.09444,3.94231 -1.5875,0 -3.76371,-3.61819 0,3.61819 -1.2237,0 0,-10.29232 z"
       style=""
       id="path113" />
    <path
       d="m 667.33559,163.61026 0,2.10344 2.50693,0 0,0.94589 -2.50693,0 0,4.02168 q 0,0.9062 0.24474,1.16417 0.25136,0.25797 1.01203,0.25797 l 1.25016,0 0,1.01865 -1.25016,0 q -1.4089,0 -1.94469,-0.52256 -0.53578,-0.52917 -0.53578,-1.91823 l 0,-4.02168 -0.89297,0 0,-0.94589 0.89297,0 0,-2.10344 1.2237,0 z"
       style=""
       id="path115" />
    <path
       d="m 671.32419,170.1984 0,-4.4847 1.21709,0 0,4.4384 q 0,1.05172 0.41011,1.58089 0.4101,0.52255 1.23031,0.52255 0.98558,0 1.55443,-0.62838 0.57547,-0.62839 0.57547,-1.71319 l 0,-4.20027 1.21709,0 0,7.40836 -1.21709,0 0,-1.13772 q -0.44318,0.67469 -1.03187,1.00542 -0.58209,0.32412 -1.356,0.32412 -1.27662,0 -1.93808,-0.79375 -0.66146,-0.79376 -0.66146,-2.32173 z m 3.06256,-4.66329 0,0 z"
       style=""
       id="path117" />
    <path
       d="m 685.81678,167.13584 q 0.45641,-0.82021 1.09141,-1.21047 0.635,-0.39026 1.4949,-0.39026 1.15756,0 1.78594,0.8136 0.62839,0.80698 0.62839,2.30188 l 0,4.47147 -1.2237,0 0,-4.43179 q 0,-1.06495 -0.37703,-1.58089 -0.37704,-0.51593 -1.15094,-0.51593 -0.94589,0 -1.4949,0.62838 -0.54901,0.62839 -0.54901,1.71318 l 0,4.18705 -1.22371,0 0,-4.43179 q 0,-1.07156 -0.37703,-1.58089 -0.37703,-0.51593 -1.16417,-0.51593 -0.93266,0 -1.48167,0.635 -0.54901,0.62838 -0.54901,1.70656 l 0,4.18705 -1.2237,0 0,-7.40836 1.2237,0 0,1.15094 q 0.41672,-0.6813 0.99881,-1.00542 0.58208,-0.32411 1.38245,-0.32411 0.80698,0 1.36922,0.4101 0.56885,0.41011 0.84005,1.19063 z"
       style=""
       id="path119" />
  </g>
  <g
     style="font-style:normal;font-weight:normal;font-size:13.54669952px;font-family:sans-serif;text-anchor:middle;fill:#000000"
     id="text46">
    <path
       d="m 494.81949,-47.820097 0,0.595314 -5.59595,0 q 0.0794,1.256774 0.75407,1.918234 0.6813,0.654846 1.89177,0.654846 0.70115,0 1.356,-0.17198 0.66146,-0.17198 1.30969,-0.515939 l 0,1.150941 q -0.65485,0.277813 -1.34277,0.423334 -0.68792,0.145521 -1.39568,0.145521 -1.77271,0 -2.8112,-1.031877 -1.03188,-1.031878 -1.03188,-2.791361 0,-1.819015 0.97896,-2.883966 0.98558,-1.071565 2.65246,-1.071565 1.49489,0 2.36141,0.965732 0.87312,0.959117 0.87312,2.612766 z m -1.21708,-0.357188 q -0.0132,-0.998804 -0.56224,-1.594118 -0.5424,-0.595314 -1.44199,-0.595314 -1.01864,0 -1.6338,0.57547 -0.60854,0.57547 -0.70115,1.620577 l 4.33918,-0.0066 z"
       style=""
       id="path122" />
    <path
       d="m 496.8171,-54.103966 1.21709,0 0,10.292317 -1.21709,0 0,-10.292317 z"
       style=""
       id="path124" />
    <path
       d="m 506.34213,-49.797862 q 0.4564,-0.82021 1.09141,-1.210471 0.635,-0.390262 1.4949,-0.390262 1.15755,0 1.78594,0.813596 0.62838,0.806981 0.62838,2.30188 l 0,4.47147 -1.2237,0 0,-4.431782 q 0,-1.06495 -0.37703,-1.580889 -0.37703,-0.515939 -1.15094,-0.515939 -0.94589,0 -1.4949,0.628387 -0.54901,0.628387 -0.54901,1.713181 l 0,4.187042 -1.2237,0 0,-4.431782 q 0,-1.071565 -0.37703,-1.580889 -0.37704,-0.515939 -1.16417,-0.515939 -0.93266,0 -1.48167,0.635002 -0.54902,0.628387 -0.54902,1.706566 l 0,4.187042 -1.2237,0 0,-7.408352 1.2237,0 0,1.150941 q 0.41672,-0.681304 0.99881,-1.005419 0.58208,-0.324116 1.38245,-0.324116 0.80698,0 1.36922,0.410105 0.56886,0.410106 0.84006,1.190628 z"
       style=""
       id="path126" />
    <path
       d="m 516.64767,-50.366717 q -0.97896,0 -1.54781,0.767293 -0.56886,0.760679 -0.56886,2.090214 0,1.329534 0.56224,2.096828 0.56886,0.760679 1.55443,0.760679 0.97235,0 1.5412,-0.767294 0.56886,-0.767293 0.56886,-2.090213 0,-1.316306 -0.56886,-2.083599 -0.56885,-0.773908 -1.5412,-0.773908 z m 0,-1.031878 q 1.58751,0 2.49371,1.031878 0.9062,1.031877 0.9062,2.857507 0,1.819014 -0.9062,2.857507 -0.9062,1.031877 -2.49371,1.031877 -1.59412,0 -2.50032,-1.031877 -0.89958,-1.038493 -0.89958,-2.857507 0,-1.82563 0.89958,-2.857507 0.9062,-1.031878 2.50032,-1.031878 z"
       style=""
       id="path128" />
    <path
       d="m 521.52925,-51.220001 5.78116,0 0,1.111253 -4.57731,5.324753 4.57731,0 0,0.972346 -5.94653,0 0,-1.111253 4.5773,-5.324753 -4.41193,0 0,-0.972346 z"
       style=""
       id="path130" />
    <path
       d="m 528.56057,-48.064837 3.56527,0 0,1.084795 -3.56527,0 0,-1.084795 z"
       style=""
       id="path132" />
    <path
       d="m 496.87663,-30.668416 q 0,-1.322919 -0.54901,-2.050525 -0.54239,-0.727606 -1.52797,-0.727606 -0.97896,0 -1.52797,0.727606 -0.5424,0.727606 -0.5424,2.050525 0,1.316306 0.5424,2.043912 0.54901,0.727606 1.52797,0.727606 0.98558,0 1.52797,-0.727606 0.54901,-0.727606 0.54901,-2.043912 z m 1.21709,2.870737 q 0,1.891775 -0.84005,2.811204 -0.84006,0.926044 -2.57308,0.926044 -0.64162,0 -1.21047,-0.09922 -0.56886,-0.0926 -1.10464,-0.291042 l 0,-1.184013 q 0.53578,0.291042 1.05833,0.429949 0.52256,0.138906 1.06495,0.138906 1.19725,0 1.79256,-0.628387 0.59531,-0.621772 0.59531,-1.885161 l 0,-0.601928 q -0.37703,0.654845 -0.96573,0.978961 -0.5887,0.324115 -1.40891,0.324115 -1.3626,0 -2.19604,-1.038492 -0.83344,-1.038492 -0.83344,-2.751674 0,-1.719795 0.83344,-2.758288 0.83344,-1.038492 2.19604,-1.038492 0.82021,0 1.40891,0.324116 0.5887,0.324115 0.96573,0.97896 l 0,-1.124481 1.21709,0 0,6.488922 z"
       style=""
       id="path134" />
    <path
       d="m 503.96749,-30.60227 q -1.47506,0 -2.04392,0.337345 -0.56885,0.337345 -0.56885,1.15094 0,0.648231 0.42333,1.031878 0.42995,0.377032 1.16417,0.377032 1.01204,0 1.62058,-0.714377 0.61516,-0.720991 0.61516,-1.911619 l 0,-0.271199 -1.21047,0 z m 2.42755,-0.502709 0,4.226729 -1.21708,0 0,-1.124482 q -0.41672,0.674689 -1.0385,0.998804 -0.62177,0.317501 -1.52135,0.317501 -1.13771,0 -1.8124,-0.635001 -0.66808,-0.641616 -0.66808,-1.713182 0,-1.250159 0.83344,-1.88516 0.84006,-0.635002 2.50032,-0.635002 l 1.70657,0 0,-0.119063 q 0,-0.840054 -0.55563,-1.296461 -0.54901,-0.463022 -1.54782,-0.463022 -0.635,0 -1.23693,0.152136 -0.60192,0.152135 -1.15755,0.456407 l 0,-1.124482 q 0.66807,-0.257969 1.29646,-0.383647 0.62839,-0.132292 1.2237,-0.132292 1.60735,0 2.4011,0.83344 0.79375,0.833439 0.79375,2.526777 z"
       style=""
       id="path136" />
    <path
       d="m 510.11245,-36.390044 0,2.103443 2.50693,0 0,0.945887 -2.50693,0 0,4.021677 q 0,0.9062 0.24474,1.164169 0.25135,0.25797 1.01203,0.25797 l 1.25016,0 0,1.018648 -1.25016,0 q -1.40891,0 -1.94469,-0.522553 -0.53578,-0.529168 -0.53578,-1.918234 l 0,-4.021677 -0.89297,0 0,-0.945887 0.89297,0 0,-2.103443 1.2237,0 z"
       style=""
       id="path138" />
    <path
       d="m 513.3536,-34.286601 1.28985,0 2.31511,6.217723 2.31511,-6.217723 1.28985,0 -2.77814,7.408351 -1.65365,0 -2.77813,-7.408351 z"
       style=""
       id="path140" />
    <path
       d="m 525.61045,-30.60227 q -1.47505,0 -2.04391,0.337345 -0.56885,0.337345 -0.56885,1.15094 0,0.648231 0.42333,1.031878 0.42995,0.377032 1.16417,0.377032 1.01203,0 1.62058,-0.714377 0.61516,-0.720991 0.61516,-1.911619 l 0,-0.271199 -1.21048,0 z m 2.42756,-0.502709 0,4.226729 -1.21708,0 0,-1.124482 q -0.41672,0.674689 -1.0385,0.998804 -0.62177,0.317501 -1.52135,0.317501 -1.13772,0 -1.81241,-0.635001 -0.66807,-0.641616 -0.66807,-1.713182 0,-1.250159 0.83344,-1.88516 0.84005,-0.635002 2.50032,-0.635002 l 1.70657,0 0,-0.119063 q 0,-0.840054 -0.55563,-1.296461 -0.54901,-0.463022 -1.54782,-0.463022 -0.635,0 -1.23693,0.152136 -0.60193,0.152135 -1.15755,0.456407 l 0,-1.124482 q 0.66807,-0.257969 1.29646,-0.383647 0.62839,-0.132292 1.2237,-0.132292 1.60735,0 2.4011,0.83344 0.79375,0.833439 0.79375,2.526777 z"
       style=""
       id="path142" />
  </g>
  <g
     style="font-style:normal;font-weight:normal;font-size:12.80000019px;font-family:sans-serif;text-anchor:start;fill:#000000"
     id="text52" />
  <g
     style="font-style:normal;font-weight:normal;font-size:13.54669952px;font-family:sans-serif;text-anchor:middle;fill:#000000"
     id="text56">
    <path
       d="m 472.29678,144.36273 1.2237,0 0,6.07881 3.63142,-3.19485 1.55443,0 -3.92907,3.46605 4.09444,3.9423 -1.58751,0 -3.76371,-3.61818 0,3.61818 -1.2237,0 0,-10.29231 z"
       style=""
       id="path146" />
    <path
       d="m 482.59571,148.09998 q -0.97896,0 -1.54781,0.76729 -0.56886,0.76068 -0.56886,2.09021 0,1.32954 0.56224,2.09683 0.56886,0.76068 1.55443,0.76068 0.97235,0 1.54121,-0.76729 0.56885,-0.7673 0.56885,-2.09022 0,-1.3163 -0.56885,-2.0836 -0.56886,-0.7739 -1.54121,-0.7739 z m 0,-1.03188 q 1.58751,0 2.49371,1.03188 0.9062,1.03187 0.9062,2.8575 0,1.81902 -0.9062,2.85751 -0.9062,1.03188 -2.49371,1.03188 -1.59411,0 -2.50031,-1.03188 -0.89959,-1.03849 -0.89959,-2.85751 0,-1.82563 0.89959,-2.8575 0.9062,-1.03188 2.50031,-1.03188 z"
       style=""
       id="path148" />
    <path
       d="m 494.16465,150.18358 0,4.47146 -1.21709,0 0,-4.43178 q 0,-1.05172 -0.4101,-1.57427 -0.41011,-0.52256 -1.23032,-0.52256 -0.98557,0 -1.55443,0.62839 -0.56885,0.62839 -0.56885,1.71318 l 0,4.18704 -1.2237,0 0,-7.40835 1.2237,0 0,1.15094 q 0.43656,-0.66807 1.02526,-0.9988 0.59531,-0.33073 1.36922,-0.33073 1.27662,0 1.93146,0.79375 0.65485,0.78714 0.65485,2.32173 z"
       style=""
       id="path150" />
    <path
       d="m 501.32826,147.46498 0,1.15094 q -0.51594,-0.26459 -1.07157,-0.39688 -0.55562,-0.13229 -1.15094,-0.13229 -0.9062,0 -1.3626,0.27781 -0.4498,0.27781 -0.4498,0.83344 0,0.42333 0.32412,0.66807 0.32411,0.23813 1.30308,0.45641 l 0.41672,0.0926 q 1.29646,0.27781 1.83885,0.78713 0.54902,0.50271 0.54902,1.40891 0,1.03188 -0.82021,1.63381 -0.8136,0.60193 -2.24235,0.60193 -0.59532,0 -1.24355,-0.11906 -0.64161,-0.11245 -1.35599,-0.34396 l 0,-1.25678 q 0.67469,0.35058 1.32953,0.52917 0.65485,0.17198 1.29646,0.17198 0.8599,0 1.32292,-0.29104 0.46303,-0.29766 0.46303,-0.83344 0,-0.4961 -0.33735,-0.76068 -0.33073,-0.26459 -1.46182,-0.50933 l -0.42334,-0.0992 q -1.1311,-0.23813 -1.6338,-0.72761 -0.50271,-0.4961 -0.50271,-1.35599 0,-1.04511 0.74083,-1.61397 0.74084,-0.56885 2.10344,-0.56885 0.67469,0 1.27001,0.0992 0.59531,0.0992 1.09802,0.29766 z"
       style=""
       id="path152" />
    <path
       d="m 504.87369,145.14325 0,2.10344 2.50693,0 0,0.94589 -2.50693,0 0,4.02168 q 0,0.9062 0.24474,1.16417 0.25135,0.25797 1.01203,0.25797 l 1.25016,0 0,1.01864 -1.25016,0 q -1.40891,0 -1.94469,-0.52255 -0.53579,-0.52917 -0.53579,-1.91823 l 0,-4.02168 -0.89297,0 0,-0.94589 0.89297,0 0,-2.10344 1.22371,0 z"
       style=""
       id="path154" />
    <path
       d="m 513.28084,148.3844 q -0.20505,-0.11906 -0.44979,-0.17198 -0.23813,-0.0595 -0.52917,-0.0595 -1.03188,0 -1.5875,0.67469 -0.54901,0.66808 -0.54901,1.92485 l 0,3.90261 -1.2237,0 0,-7.40835 1.2237,0 0,1.15094 q 0.38364,-0.67469 0.9988,-0.9988 0.61516,-0.33073 1.4949,-0.33073 0.12568,0 0.27781,0.0198 0.15214,0.0132 0.33735,0.0463 l 0.007,1.25015 z"
       style=""
       id="path156" />
    <path
       d="m 514.44501,151.73139 0,-4.4847 1.21709,0 0,4.4384 q 0,1.05172 0.4101,1.58089 0.41011,0.52255 1.23032,0.52255 0.98557,0 1.55443,-0.62838 0.57547,-0.62839 0.57547,-1.71319 l 0,-4.20027 1.21709,0 0,7.40835 -1.21709,0 0,-1.13771 q -0.44318,0.67469 -1.03188,1.00542 -0.58208,0.32412 -1.35599,0.32412 -1.27662,0 -1.93808,-0.79375 -0.66146,-0.79376 -0.66146,-2.32173 z m 3.06256,-4.66329 0,0 z"
       style=""
       id="path158" />
    <path
       d="m 523.12336,144.36273 1.2237,0 0,6.07881 3.63142,-3.19485 1.55443,0 -3.92907,3.46605 4.09444,3.9423 -1.58751,0 -3.76371,-3.61818 0,3.61818 -1.2237,0 0,-10.29231 z"
       style=""
       id="path160" />
    <path
       d="m 532.23167,145.14325 0,2.10344 2.50693,0 0,0.94589 -2.50693,0 0,4.02168 q 0,0.9062 0.24474,1.16417 0.25135,0.25797 1.01203,0.25797 l 1.25016,0 0,1.01864 -1.25016,0 q -1.40891,0 -1.94469,-0.52255 -0.53578,-0.52917 -0.53578,-1.91823 l 0,-4.02168 -0.89297,0 0,-0.94589 0.89297,0 0,-2.10344 1.2237,0 z"
       style=""
       id="path162" />
    <path
       d="m 539.21668,148.09998 q -0.97896,0 -1.54781,0.76729 -0.56886,0.76068 -0.56886,2.09021 0,1.32954 0.56224,2.09683 0.56886,0.76068 1.55443,0.76068 0.97235,0 1.5412,-0.76729 0.56886,-0.7673 0.56886,-2.09022 0,-1.3163 -0.56886,-2.0836 -0.56885,-0.7739 -1.5412,-0.7739 z m 0,-1.03188 q 1.58751,0 2.49371,1.03188 0.9062,1.03187 0.9062,2.8575 0,1.81902 -0.9062,2.85751 -0.9062,1.03188 -2.49371,1.03188 -1.59412,0 -2.50032,-1.03188 -0.89958,-1.03849 -0.89958,-2.85751 0,-1.82563 0.89958,-2.8575 0.9062,-1.03188 2.50032,-1.03188 z"
       style=""
       id="path164" />
    <path
       d="m 548.9203,148.3844 q -0.20505,-0.11906 -0.44979,-0.17198 -0.23813,-0.0595 -0.52917,-0.0595 -1.03188,0 -1.5875,0.67469 -0.54902,0.66808 -0.54902,1.92485 l 0,3.90261 -1.2237,0 0,-7.40835 1.2237,0 0,1.15094 q 0.38365,-0.67469 0.99881,-0.9988 0.61516,-0.33073 1.4949,-0.33073 0.12568,0 0.27781,0.0198 0.15214,0.0132 0.33735,0.0463 l 0.007,1.25015 z"
       style=""
       id="path166" />
  </g>
  <g
     style="font-style:normal;font-weight:normal;font-size:13.54669952px;font-family:sans-serif;text-anchor:middle;fill:#000000"
     id="text60">
    <path
       d="m 480.88253,198.37118 0,-4.00845 1.21709,0 0,10.29231 -1.21709,0 0,-1.11125 q -0.38364,0.66146 -0.97234,0.98558 -0.58209,0.3175 -1.4023,0.3175 -1.34276,0 -2.18943,-1.07157 -0.84005,-1.07156 -0.84005,-2.81782 0,-1.74625 0.84005,-2.81782 0.84667,-1.07156 2.18943,-1.07156 0.82021,0 1.4023,0.32411 0.5887,0.31751 0.97234,0.97897 z m -4.14735,2.5863 q 0,1.34277 0.54901,2.11006 0.55563,0.76068 1.52136,0.76068 0.96573,0 1.52136,-0.76068 0.55562,-0.76729 0.55562,-2.11006 0,-1.34276 -0.55562,-2.10344 -0.55563,-0.76729 -1.52136,-0.76729 -0.96573,0 -1.52136,0.76729 -0.54901,0.76068 -0.54901,2.10344 z"
       style=""
       id="path169" />
    <path
       d="m 490.94334,200.6466 0,0.59531 -5.59595,0 q 0.0794,1.25678 0.75406,1.91824 0.68131,0.65484 1.89178,0.65484 0.70115,0 1.35599,-0.17198 0.66146,-0.17198 1.30969,-0.51594 l 0,1.15094 q -0.65484,0.27782 -1.34276,0.42334 -0.68792,0.14552 -1.39568,0.14552 -1.77272,0 -2.81121,-1.03188 -1.03188,-1.03188 -1.03188,-2.79136 0,-1.81902 0.97897,-2.88397 0.98557,-1.07156 2.65245,-1.07156 1.4949,0 2.36141,0.96573 0.87313,0.95912 0.87313,2.61277 z m -1.21709,-0.35719 q -0.0132,-0.99881 -0.56224,-1.59412 -0.5424,-0.59531 -1.44198,-0.59531 -1.01865,0 -1.63381,0.57547 -0.60854,0.57547 -0.70114,1.62057 l 4.33917,-0.007 z"
       style=""
       id="path171" />
    <path
       d="m 497.66377,197.46498 0,1.15094 q -0.51594,-0.26459 -1.07156,-0.39688 -0.55563,-0.13229 -1.15094,-0.13229 -0.9062,0 -1.36261,0.27781 -0.44979,0.27781 -0.44979,0.83344 0,0.42333 0.32411,0.66807 0.32412,0.23813 1.30308,0.45641 l 0.41672,0.0926 q 1.29646,0.27781 1.83886,0.78713 0.54901,0.50271 0.54901,1.40891 0,1.03188 -0.82021,1.63381 -0.8136,0.60193 -2.24235,0.60193 -0.59532,0 -1.24355,-0.11906 -0.64161,-0.11245 -1.35599,-0.34396 l 0,-1.25678 q 0.67469,0.35058 1.32954,0.52917 0.65484,0.17198 1.29646,0.17198 0.85989,0 1.32292,-0.29104 0.46302,-0.29766 0.46302,-0.83344 0,-0.4961 -0.33735,-0.76068 -0.33073,-0.26459 -1.46182,-0.50933 l -0.42334,-0.0992 q -1.13109,-0.23813 -1.6338,-0.72761 -0.50271,-0.4961 -0.50271,-1.35599 0,-1.04511 0.74083,-1.61397 0.74084,-0.56885 2.10345,-0.56885 0.67468,0 1.27,0.0992 0.59531,0.0992 1.09802,0.29766 z"
       style=""
       id="path173" />
    <path
       d="m 501.2092,195.14325 0,2.10344 2.50693,0 0,0.94589 -2.50693,0 0,4.02168 q 0,0.9062 0.24474,1.16417 0.25135,0.25797 1.01203,0.25797 l 1.25016,0 0,1.01864 -1.25016,0 q -1.40891,0 -1.94469,-0.52255 -0.53578,-0.52917 -0.53578,-1.91823 l 0,-4.02168 -0.89297,0 0,-0.94589 0.89297,0 0,-2.10344 1.2237,0 z"
       style=""
       id="path175" />
    <path
       d="m 509.61635,198.3844 q -0.20505,-0.11906 -0.44979,-0.17198 -0.23812,-0.0595 -0.52917,-0.0595 -1.03187,0 -1.5875,0.67469 -0.54901,0.66808 -0.54901,1.92485 l 0,3.90261 -1.2237,0 0,-7.40835 1.2237,0 0,1.15094 q 0.38364,-0.67469 0.9988,-0.9988 0.61516,-0.33073 1.4949,-0.33073 0.12568,0 0.27781,0.0198 0.15214,0.0132 0.33735,0.0463 l 0.007,1.25015 z"
       style=""
       id="path177" />
    <path
       d="m 510.78052,201.73139 0,-4.4847 1.21709,0 0,4.4384 q 0,1.05172 0.41011,1.58089 0.4101,0.52255 1.23031,0.52255 0.98558,0 1.55443,-0.62838 0.57547,-0.62839 0.57547,-1.71319 l 0,-4.20027 1.21709,0 0,7.40835 -1.21709,0 0,-1.13771 q -0.44318,0.67469 -1.03187,1.00542 -0.58209,0.32412 -1.356,0.32412 -1.27662,0 -1.93808,-0.79375 -0.66146,-0.79376 -0.66146,-2.32173 z m 3.06256,-4.66329 0,0 z"
       style=""
       id="path179" />
    <path
       d="m 519.45888,194.36273 1.2237,0 0,6.07881 3.63141,-3.19485 1.55443,0 -3.92907,3.46605 4.09444,3.9423 -1.58751,0 -3.7637,-3.61818 0,3.61818 -1.2237,0 0,-10.29231 z"
       style=""
       id="path181" />
    <path
       d="m 528.56718,195.14325 0,2.10344 2.50694,0 0,0.94589 -2.50694,0 0,4.02168 q 0,0.9062 0.24474,1.16417 0.25136,0.25797 1.01204,0.25797 l 1.25016,0 0,1.01864 -1.25016,0 q -1.40891,0 -1.9447,-0.52255 -0.53578,-0.52917 -0.53578,-1.91823 l 0,-4.02168 -0.89297,0 0,-0.94589 0.89297,0 0,-2.10344 1.2237,0 z"
       style=""
       id="path183" />
    <path
       d="m 535.5522,198.09998 q -0.97896,0 -1.54782,0.76729 -0.56885,0.76068 -0.56885,2.09021 0,1.32954 0.56224,2.09683 0.56885,0.76068 1.55443,0.76068 0.97235,0 1.5412,-0.76729 0.56886,-0.7673 0.56886,-2.09022 0,-1.3163 -0.56886,-2.0836 -0.56885,-0.7739 -1.5412,-0.7739 z m 0,-1.03188 q 1.5875,0 2.4937,1.03188 0.9062,1.03187 0.9062,2.8575 0,1.81902 -0.9062,2.85751 -0.9062,1.03188 -2.4937,1.03188 -1.59412,0 -2.50032,-1.03188 -0.89958,-1.03849 -0.89958,-2.85751 0,-1.82563 0.89958,-2.8575 0.9062,-1.03188 2.50032,-1.03188 z"
       style=""
       id="path185" />
    <path
       d="m 545.25582,198.3844 q -0.20506,-0.11906 -0.4498,-0.17198 -0.23812,-0.0595 -0.52916,-0.0595 -1.03188,0 -1.58751,0.67469 -0.54901,0.66808 -0.54901,1.92485 l 0,3.90261 -1.2237,0 0,-7.40835 1.2237,0 0,1.15094 q 0.38365,-0.67469 0.99881,-0.9988 0.61515,-0.33073 1.49489,-0.33073 0.12568,0 0.27782,0.0198 0.15213,0.0132 0.33734,0.0463 l 0.007,1.25015 z"
       style=""
       id="path187" />
  </g>
  <g
     style="font-style:normal;font-weight:normal;font-size:13.54669952px;font-family:sans-serif;text-anchor:end;fill:#000000"
     id="text64">
    <path
       d="m 355.61349,58.371175 0,-4.008447 1.21709,0 0,10.292317 -1.21709,0 0,-1.111253 q -0.38365,0.66146 -0.97235,0.985575 -0.58208,0.317501 -1.40229,0.317501 -1.34277,0 -2.18943,-1.071565 -0.84006,-1.071565 -0.84006,-2.817819 0,-1.746255 0.84006,-2.81782 0.84666,-1.071565 2.18943,-1.071565 0.82021,0 1.40229,0.324115 0.5887,0.317501 0.97235,0.978961 z m -4.14735,2.586309 q 0,1.342763 0.54901,2.110057 0.55562,0.760679 1.52136,0.760679 0.96573,0 1.52135,-0.760679 0.55563,-0.767294 0.55563,-2.110057 0,-1.342764 -0.55563,-2.103443 -0.55562,-0.767294 -1.52135,-0.767294 -0.96574,0 -1.52136,0.767294 -0.54901,0.760679 -0.54901,2.103443 z"
       style=""
       id="path190" />
    <path
       d="m 365.6743,60.646597 0,0.595314 -5.59596,0 q 0.0794,1.256774 0.75407,1.918234 0.6813,0.654845 1.89177,0.654845 0.70115,0 1.356,-0.171979 0.66146,-0.17198 1.30969,-0.515939 l 0,1.15094 q -0.65485,0.277814 -1.34277,0.423335 -0.68791,0.145521 -1.39568,0.145521 -1.77271,0 -2.8112,-1.031878 -1.03188,-1.031877 -1.03188,-2.791361 0,-1.819014 0.97896,-2.883965 0.98558,-1.071565 2.65246,-1.071565 1.4949,0 2.36141,0.965732 0.87313,0.959116 0.87313,2.612766 z m -1.21709,-0.357188 q -0.0132,-0.998805 -0.56224,-1.594118 -0.5424,-0.595314 -1.44198,-0.595314 -1.01865,0 -1.63381,0.57547 -0.60854,0.57547 -0.70115,1.620577 l 4.33918,-0.0066 z"
       style=""
       id="path192" />
    <path
       d="m 372.39473,57.464975 0,1.15094 q -0.51594,-0.264584 -1.07157,-0.396876 -0.55562,-0.132292 -1.15094,-0.132292 -0.9062,0 -1.3626,0.277814 -0.4498,0.277813 -0.4498,0.833439 0,0.423334 0.32412,0.668075 0.32411,0.238125 1.30307,0.456407 l 0.41672,0.0926 q 1.29647,0.277814 1.83886,0.787138 0.54901,0.502709 0.54901,1.408909 0,1.031878 -0.82021,1.633806 -0.81359,0.601929 -2.24235,0.601929 -0.59531,0 -1.24354,-0.119063 -0.64162,-0.112448 -1.35599,-0.343959 l 0,-1.256774 q 0.67469,0.350574 1.32953,0.529168 0.65485,0.17198 1.29646,0.17198 0.8599,0 1.32292,-0.291043 0.46302,-0.297657 0.46302,-0.833439 0,-0.496095 -0.33734,-0.760679 -0.33073,-0.264584 -1.46183,-0.509324 l -0.42333,-0.09922 q -1.1311,-0.238126 -1.63381,-0.727606 -0.50271,-0.496095 -0.50271,-1.355993 0,-1.045107 0.74084,-1.613962 0.74083,-0.568856 2.10344,-0.568856 0.67469,0 1.27,0.09922 0.59532,0.09922 1.09803,0.297657 z"
       style=""
       id="path194" />
    <path
       d="m 375.94015,55.143251 0,2.103442 2.50694,0 0,0.945888 -2.50694,0 0,4.021676 q 0,0.906201 0.24474,1.16417 0.25136,0.257969 1.01204,0.257969 l 1.25016,0 0,1.018649 -1.25016,0 q -1.40891,0 -1.94469,-0.522554 -0.53579,-0.529168 -0.53579,-1.918234 l 0,-4.021676 -0.89297,0 0,-0.945888 0.89297,0 0,-2.103442 1.2237,0 z"
       style=""
       id="path196" />
    <path
       d="m 384.34731,58.384404 q -0.20505,-0.119062 -0.44979,-0.171979 -0.23813,-0.05953 -0.52917,-0.05953 -1.03188,0 -1.58751,0.67469 -0.54901,0.668074 -0.54901,1.924848 l 0,3.902614 -1.2237,0 0,-7.408352 1.2237,0 0,1.150941 q 0.38365,-0.67469 0.99881,-0.998805 0.61516,-0.33073 1.4949,-0.33073 0.12567,0 0.27781,0.01984 0.15214,0.01323 0.33734,0.0463 l 0.007,1.250159 z"
       style=""
       id="path198" />
    <path
       d="m 385.51148,61.731392 0,-4.484699 1.21709,0 0,4.438396 q 0,1.051722 0.4101,1.58089 0.41011,0.522553 1.23032,0.522553 0.98557,0 1.55443,-0.628387 0.57547,-0.628387 0.57547,-1.713181 l 0,-4.200271 1.21708,0 0,7.408352 -1.21708,0 0,-1.137712 q -0.44318,0.67469 -1.03188,1.00542 -0.58208,0.324115 -1.35599,0.324115 -1.27662,0 -1.93808,-0.793752 -0.66146,-0.793752 -0.66146,-2.321724 z m 3.06256,-4.663293 0,0 z"
       style=""
       id="path200" />
    <path
       d="m 394.18983,54.362728 1.2237,0 0,6.078817 3.63142,-3.194852 1.55443,0 -3.92907,3.46605 4.09443,3.942302 -1.5875,0 -3.76371,-3.618186 0,3.618186 -1.2237,0 0,-10.292317 z"
       style=""
       id="path202" />
    <path
       d="m 403.29814,55.143251 0,2.103442 2.50693,0 0,0.945888 -2.50693,0 0,4.021676 q 0,0.906201 0.24474,1.16417 0.25135,0.257969 1.01203,0.257969 l 1.25016,0 0,1.018649 -1.25016,0 q -1.40891,0 -1.94469,-0.522554 -0.53578,-0.529168 -0.53578,-1.918234 l 0,-4.021676 -0.89297,0 0,-0.945888 0.89297,0 0,-2.103442 1.2237,0 z"
       style=""
       id="path204" />
    <path
       d="m 410.28316,58.099977 q -0.97897,0 -1.54782,0.767293 -0.56886,0.760679 -0.56886,2.090214 0,1.329534 0.56224,2.096828 0.56886,0.760678 1.55444,0.760678 0.97234,0 1.5412,-0.767293 0.56885,-0.767294 0.56885,-2.090213 0,-1.316306 -0.56885,-2.083599 -0.56886,-0.773908 -1.5412,-0.773908 z m 0,-1.031878 q 1.5875,0 2.4937,1.031878 0.9062,1.031877 0.9062,2.857507 0,1.819014 -0.9062,2.857506 -0.9062,1.031878 -2.4937,1.031878 -1.59412,0 -2.50032,-1.031878 -0.89959,-1.038492 -0.89959,-2.857506 0,-1.82563 0.89959,-2.857507 0.9062,-1.031878 2.50032,-1.031878 z"
       style=""
       id="path206" />
    <path
       d="m 419.98677,58.384404 q -0.20505,-0.119062 -0.44979,-0.171979 -0.23813,-0.05953 -0.52917,-0.05953 -1.03188,0 -1.5875,0.67469 -0.54901,0.668074 -0.54901,1.924848 l 0,3.902614 -1.2237,0 0,-7.408352 1.2237,0 0,1.150941 q 0.38364,-0.67469 0.9988,-0.998805 0.61516,-0.33073 1.4949,-0.33073 0.12568,0 0.27781,0.01984 0.15214,0.01323 0.33735,0.0463 l 0.007,1.250159 z"
       style=""
       id="path208" />
  </g>
  <g
     style="font-style:normal;font-weight:normal;font-size:13.54669952px;font-family:sans-serif;text-anchor:end;fill:#000000"
     id="text68">
    <path
       d="m 494.50885,68.099977 q -0.97896,0 -1.54781,0.767293 -0.56886,0.760679 -0.56886,2.090214 0,1.329534 0.56224,2.096828 0.56886,0.760678 1.55443,0.760678 0.97235,0 1.5412,-0.767293 0.56886,-0.767294 0.56886,-2.090213 0,-1.316306 -0.56886,-2.083599 -0.56885,-0.773908 -1.5412,-0.773908 z m 0,-1.031878 q 1.58751,0 2.49371,1.031878 0.9062,1.031877 0.9062,2.857507 0,1.819014 -0.9062,2.857506 -0.9062,1.031878 -2.49371,1.031878 -1.59412,0 -2.50032,-1.031878 -0.89958,-1.038492 -0.89958,-2.857506 0,-1.82563 0.89958,-2.857507 0.9062,-1.031878 2.50032,-1.031878 z"
       style=""
       id="path211" />
    <path
       d="m 501.09699,73.543792 0,3.929072 -1.2237,0 0,-10.226171 1.2237,0 0,1.124482 q 0.38365,-0.66146 0.96573,-0.978961 0.5887,-0.324115 1.4023,-0.324115 1.34938,0 2.18943,1.071565 0.84667,1.071565 0.84667,2.81782 0,1.746254 -0.84667,2.817819 -0.84005,1.071565 -2.18943,1.071565 -0.8136,0 -1.4023,-0.317501 -0.58208,-0.324115 -0.96573,-0.985575 z m 4.14074,-2.586308 q 0,-1.342764 -0.55562,-2.103443 -0.54902,-0.767294 -1.51475,-0.767294 -0.96573,0 -1.52136,0.767294 -0.54901,0.760679 -0.54901,2.103443 0,1.342763 0.54901,2.110057 0.55563,0.760679 1.52136,0.760679 0.96573,0 1.51475,-0.760679 0.55562,-0.767294 0.55562,-2.110057 z"
       style=""
       id="path213" />
    <path
       d="m 514.85536,70.646597 0,0.595314 -5.59595,0 q 0.0794,1.256774 0.75406,1.918234 0.68131,0.654845 1.89178,0.654845 0.70115,0 1.35599,-0.171979 0.66146,-0.17198 1.30969,-0.515939 l 0,1.15094 q -0.65484,0.277814 -1.34276,0.423335 -0.68792,0.145521 -1.39568,0.145521 -1.77271,0 -2.81121,-1.031878 -1.03187,-1.031877 -1.03187,-2.791361 0,-1.819014 0.97896,-2.883965 0.98557,-1.071565 2.65245,-1.071565 1.4949,0 2.36141,0.965732 0.87313,0.959116 0.87313,2.612766 z m -1.21709,-0.357188 q -0.0132,-0.998805 -0.56224,-1.594118 -0.54239,-0.595314 -1.44198,-0.595314 -1.01865,0 -1.63381,0.57547 -0.60854,0.57547 -0.70114,1.620577 l 4.33917,-0.0066 z"
       style=""
       id="path215" />
    <path
       d="m 521.14584,68.384404 q -0.20505,-0.119062 -0.44979,-0.171979 -0.23812,-0.05953 -0.52917,-0.05953 -1.03187,0 -1.5875,0.67469 -0.54901,0.668074 -0.54901,1.924848 l 0,3.902614 -1.2237,0 0,-7.408352 1.2237,0 0,1.150941 q 0.38364,-0.67469 0.9988,-0.998805 0.61516,-0.33073 1.4949,-0.33073 0.12568,0 0.27781,0.01984 0.15214,0.01323 0.33735,0.0463 l 0.007,1.250159 z"
       style=""
       id="path217" />
    <path
       d="m 525.80252,70.931025 q -1.47505,0 -2.04391,0.337345 -0.56886,0.337344 -0.56886,1.15094 0,0.648231 0.42334,1.031877 0.42995,0.377033 1.16417,0.377033 1.01203,0 1.62058,-0.714377 0.61515,-0.720991 0.61515,-1.911619 l 0,-0.271199 -1.21047,0 z m 2.42756,-0.502709 0,4.226729 -1.21709,0 0,-1.124482 q -0.41672,0.674689 -1.03849,0.998804 -0.62177,0.317501 -1.52136,0.317501 -1.13771,0 -1.8124,-0.635002 -0.66807,-0.641616 -0.66807,-1.713181 0,-1.250159 0.83344,-1.885161 0.84005,-0.635001 2.50032,-0.635001 l 1.70656,0 0,-0.119063 q 0,-0.840054 -0.55562,-1.296461 -0.54901,-0.463022 -1.54782,-0.463022 -0.635,0 -1.23693,0.152135 -0.60193,0.152136 -1.15755,0.456408 l 0,-1.124482 q 0.66807,-0.25797 1.29646,-0.383647 0.62838,-0.132292 1.2237,-0.132292 1.60735,0 2.4011,0.83344 0.79375,0.833439 0.79375,2.526777 z"
       style=""
       id="path219" />
    <path
       d="m 531.94748,65.143251 0,2.103442 2.50694,0 0,0.945888 -2.50694,0 0,4.021676 q 0,0.906201 0.24474,1.16417 0.25136,0.257969 1.01204,0.257969 l 1.25016,0 0,1.018649 -1.25016,0 q -1.40891,0 -1.9447,-0.522554 -0.53578,-0.529168 -0.53578,-1.918234 l 0,-4.021676 -0.89297,0 0,-0.945888 0.89297,0 0,-2.103442 1.2237,0 z"
       style=""
       id="path221" />
    <path
       d="m 538.9325,68.099977 q -0.97896,0 -1.54782,0.767293 -0.56885,0.760679 -0.56885,2.090214 0,1.329534 0.56224,2.096828 0.56886,0.760678 1.55443,0.760678 0.97235,0 1.5412,-0.767293 0.56886,-0.767294 0.56886,-2.090213 0,-1.316306 -0.56886,-2.083599 -0.56885,-0.773908 -1.5412,-0.773908 z m 0,-1.031878 q 1.5875,0 2.4937,1.031878 0.9062,1.031877 0.9062,2.857507 0,1.819014 -0.9062,2.857506 -0.9062,1.031878 -2.4937,1.031878 -1.59412,0 -2.50032,-1.031878 -0.89958,-1.038492 -0.89958,-2.857506 0,-1.82563 0.89958,-2.857507 0.9062,-1.031878 2.50032,-1.031878 z"
       style=""
       id="path223" />
    <path
       d="m 548.63612,68.384404 q -0.20505,-0.119062 -0.44979,-0.171979 -0.23813,-0.05953 -0.52917,-0.05953 -1.03188,0 -1.58751,0.67469 -0.54901,0.668074 -0.54901,1.924848 l 0,3.902614 -1.2237,0 0,-7.408352 1.2237,0 0,1.150941 q 0.38365,-0.67469 0.99881,-0.998805 0.61515,-0.33073 1.4949,-0.33073 0.12567,0 0.27781,0.01984 0.15213,0.01323 0.33734,0.0463 l 0.007,1.250159 z"
       style=""
       id="path225" />
    <path
       d="m 550.08472,68.503467 8.47991,0 0,1.111253 -8.47991,0 0,-1.111253 z m 0,2.698757 8.47991,0 0,1.124482 -8.47991,0 0,-1.124482 z"
       style=""
       id="path227" />
  </g>
  <g
     style="font-style:normal;font-weight:normal;font-size:13.54669952px;font-family:sans-serif;text-anchor:start;fill:#000000"
     id="text72">
    <path
       d="m 624.14735,29.633283 q -0.97896,0 -1.54781,0.767293 -0.56886,0.760679 -0.56886,2.090214 0,1.329534 0.56224,2.096828 0.56886,0.760679 1.55443,0.760679 0.97235,0 1.54121,-0.767294 0.56885,-0.767293 0.56885,-2.090213 0,-1.316306 -0.56885,-2.083599 -0.56886,-0.773908 -1.54121,-0.773908 z m 0,-1.031878 q 1.58751,0 2.49371,1.031878 0.9062,1.031877 0.9062,2.857507 0,1.819014 -0.9062,2.857507 -0.9062,1.031877 -2.49371,1.031877 -1.59411,0 -2.50031,-1.031877 -0.89959,-1.038493 -0.89959,-2.857507 0,-1.82563 0.89959,-2.857507 0.9062,-1.031878 2.50031,-1.031878 z"
       style=""
       id="path230" />
    <path
       d="m 630.7355,35.077098 0,3.929072 -1.22371,0 0,-10.226171 1.22371,0 0,1.124482 q 0.38364,-0.66146 0.96573,-0.97896 0.5887,-0.324116 1.40229,-0.324116 1.34938,0 2.18943,1.071565 0.84667,1.071565 0.84667,2.81782 0,1.746254 -0.84667,2.817819 -0.84005,1.071565 -2.18943,1.071565 -0.81359,0 -1.40229,-0.317501 -0.58209,-0.324115 -0.96573,-0.985575 z m 4.14073,-2.586308 q 0,-1.342764 -0.55562,-2.103443 -0.54901,-0.767294 -1.51475,-0.767294 -0.96573,0 -1.52135,0.767294 -0.54901,0.760679 -0.54901,2.103443 0,1.342763 0.54901,2.110057 0.55562,0.760679 1.52135,0.760679 0.96574,0 1.51475,-0.760679 0.55562,-0.767294 0.55562,-2.110057 z"
       style=""
       id="path232" />
    <path
       d="m 644.49386,32.179903 0,0.595314 -5.59595,0 q 0.0794,1.256774 0.75407,1.918234 0.6813,0.654846 1.89177,0.654846 0.70115,0 1.35599,-0.17198 0.66146,-0.17198 1.30969,-0.515939 l 0,1.150941 q -0.65484,0.277813 -1.34276,0.423334 -0.68792,0.145521 -1.39568,0.145521 -1.77271,0 -2.8112,-1.031877 -1.03188,-1.031878 -1.03188,-2.791361 0,-1.819015 0.97896,-2.883966 0.98557,-1.071565 2.65245,-1.071565 1.4949,0 2.36142,0.965732 0.87312,0.959117 0.87312,2.612766 z m -1.21708,-0.357188 q -0.0132,-0.998804 -0.56224,-1.594118 -0.5424,-0.595314 -1.44199,-0.595314 -1.01865,0 -1.6338,0.57547 -0.60855,0.57547 -0.70115,1.620577 l 4.33918,-0.0066 z"
       style=""
       id="path234" />
    <path
       d="m 650.78435,29.91771 q -0.20506,-0.119062 -0.4498,-0.171979 -0.23812,-0.05953 -0.52916,-0.05953 -1.03188,0 -1.58751,0.67469 -0.54901,0.668074 -0.54901,1.924848 l 0,3.902614 -1.2237,0 0,-7.408352 1.2237,0 0,1.150941 q 0.38365,-0.674689 0.9988,-0.998805 0.61516,-0.33073 1.4949,-0.33073 0.12568,0 0.27782,0.01984 0.15213,0.01323 0.33734,0.0463 l 0.007,1.250159 z"
       style=""
       id="path236" />
    <path
       d="m 655.44102,32.464331 q -1.47505,0 -2.04391,0.337345 -0.56885,0.337344 -0.56885,1.15094 0,0.648231 0.42333,1.031878 0.42995,0.377032 1.16417,0.377032 1.01203,0 1.62058,-0.714377 0.61516,-0.720991 0.61516,-1.911619 l 0,-0.271199 -1.21048,0 z m 2.42756,-0.502709 0,4.226729 -1.21708,0 0,-1.124482 q -0.41672,0.674689 -1.0385,0.998804 -0.62177,0.317501 -1.52135,0.317501 -1.13772,0 -1.8124,-0.635001 -0.66808,-0.641617 -0.66808,-1.713182 0,-1.250159 0.83344,-1.885161 0.84005,-0.635001 2.50032,-0.635001 l 1.70657,0 0,-0.119063 q 0,-0.840054 -0.55563,-1.296461 -0.54901,-0.463022 -1.54782,-0.463022 -0.635,0 -1.23693,0.152135 -0.60193,0.152136 -1.15755,0.456408 l 0,-1.124482 q 0.66807,-0.257969 1.29646,-0.383647 0.62839,-0.132292 1.2237,-0.132292 1.60735,0 2.4011,0.83344 0.79375,0.833439 0.79375,2.526777 z"
       style=""
       id="path238" />
    <path
       d="m 661.58599,26.676557 0,2.103442 2.50693,0 0,0.945888 -2.50693,0 0,4.021677 q 0,0.9062 0.24474,1.164169 0.25135,0.257969 1.01203,0.257969 l 1.25016,0 0,1.018649 -1.25016,0 q -1.40891,0 -1.94469,-0.522554 -0.53579,-0.529168 -0.53579,-1.918233 l 0,-4.021677 -0.89297,0 0,-0.945888 0.89297,0 0,-2.103442 1.22371,0 z"
       style=""
       id="path240" />
    <path
       d="m 668.571,29.633283 q -0.97896,0 -1.54781,0.767293 -0.56886,0.760679 -0.56886,2.090214 0,1.329534 0.56224,2.096828 0.56886,0.760679 1.55443,0.760679 0.97235,0 1.5412,-0.767294 0.56886,-0.767293 0.56886,-2.090213 0,-1.316306 -0.56886,-2.083599 -0.56885,-0.773908 -1.5412,-0.773908 z m 0,-1.031878 q 1.58751,0 2.49371,1.031878 0.9062,1.031877 0.9062,2.857507 0,1.819014 -0.9062,2.857507 -0.9062,1.031877 -2.49371,1.031877 -1.59412,0 -2.50032,-1.031877 -0.89958,-1.038493 -0.89958,-2.857507 0,-1.82563 0.89958,-2.857507 0.9062,-1.031878 2.50032,-1.031878 z"
       style=""
       id="path242" />
    <path
       d="m 678.27462,29.91771 q -0.20505,-0.119062 -0.44979,-0.171979 -0.23813,-0.05953 -0.52917,-0.05953 -1.03188,0 -1.5875,0.67469 -0.54902,0.668074 -0.54902,1.924848 l 0,3.902614 -1.2237,0 0,-7.408352 1.2237,0 0,1.150941 q 0.38365,-0.674689 0.99881,-0.998805 0.61516,-0.33073 1.4949,-0.33073 0.12568,0 0.27781,0.01984 0.15214,0.01323 0.33735,0.0463 l 0.007,1.250159 z"
       style=""
       id="path244" />
    <path
       d="m 679.72322,30.036773 8.47991,0 0,1.111253 -8.47991,0 0,-1.111253 z m 0,2.698757 8.47991,0 0,1.124482 -8.47991,0 0,-1.124482 z"
       style=""
       id="path246" />
    <path
       d="m 693.83877,25.909263 q -0.88635,1.521358 -1.3163,3.009643 -0.42995,1.488285 -0.42995,3.016257 0,1.527973 0.42995,3.029487 0.43656,1.494899 1.3163,3.009643 l -1.05833,0 q -0.99219,-1.554431 -1.48829,-3.055945 -0.48948,-1.501514 -0.48948,-2.983185 0,-1.475055 0.48948,-2.969955 0.48948,-1.494899 1.48829,-3.055945 l 1.05833,0 z"
       style=""
       id="path248" />
    <path
       d="m 697.3842,35.077098 0,3.929072 -1.2237,0 0,-10.226171 1.2237,0 0,1.124482 q 0.38365,-0.66146 0.96573,-0.97896 0.5887,-0.324116 1.4023,-0.324116 1.34937,0 2.18943,1.071565 0.84667,1.071565 0.84667,2.81782 0,1.746254 -0.84667,2.817819 -0.84006,1.071565 -2.18943,1.071565 -0.8136,0 -1.4023,-0.317501 -0.58208,-0.324115 -0.96573,-0.985575 z m 4.14074,-2.586308 q 0,-1.342764 -0.55563,-2.103443 -0.54901,-0.767294 -1.51474,-0.767294 -0.96573,0 -1.52136,0.767294 -0.54901,0.760679 -0.54901,2.103443 0,1.342763 0.54901,2.110057 0.55563,0.760679 1.52136,0.760679 0.96573,0 1.51474,-0.760679 0.55563,-0.767294 0.55563,-2.110057 z"
       style=""
       id="path250" />
    <path
       d="m 711.13595,30.876827 q -0.60193,0.535783 -0.88636,1.071565 -0.27781,0.529168 -0.27781,1.111253 0,0.965732 0.70115,1.607348 0.70115,0.641616 1.75948,0.641616 0.62839,0 1.1774,-0.205053 0.54901,-0.211667 1.03188,-0.635001 l -3.50574,-3.591728 z m 0.93266,-0.740835 3.36022,3.439592 q 0.39026,-0.588699 0.60854,-1.256774 0.21828,-0.674689 0.25797,-1.428753 l 1.23031,0 q -0.0794,0.873127 -0.42333,1.72641 -0.34396,0.853283 -0.95912,1.686723 l 1.84548,1.885161 -1.66688,0 -0.94589,-0.972346 q -0.68792,0.588699 -1.44198,0.879741 -0.75407,0.284428 -1.62058,0.284428 -1.59412,0 -2.60615,-0.9062 -1.01204,-0.912815 -1.01204,-2.334954 0,-0.846668 0.44318,-1.587503 0.44318,-0.74745 1.32954,-1.402296 -0.3175,-0.416719 -0.48287,-0.826824 -0.16536,-0.41672 -0.16536,-0.813596 0,-1.071565 0.73422,-1.719796 0.73422,-0.654845 1.9513,-0.654845 0.54902,0 1.09141,0.119062 0.54901,0.119063 1.11125,0.357189 l 0,1.203857 q -0.57547,-0.310886 -1.09802,-0.469637 -0.52255,-0.165365 -0.97234,-0.165365 -0.69454,0 -1.1311,0.370418 -0.42995,0.363803 -0.42995,0.945888 0,0.337344 0.19182,0.681303 0.19844,0.337345 0.80037,0.959117 z"
       style=""
       id="path252" />
    <path
       d="m 721.69285,30.876827 q -0.60193,0.535783 -0.88636,1.071565 -0.27781,0.529168 -0.27781,1.111253 0,0.965732 0.70115,1.607348 0.70115,0.641616 1.75948,0.641616 0.62839,0 1.1774,-0.205053 0.54901,-0.211667 1.03188,-0.635001 l -3.50574,-3.591728 z m 0.93266,-0.740835 3.36022,3.439592 q 0.39026,-0.588699 0.60854,-1.256774 0.21828,-0.674689 0.25797,-1.428753 l 1.23031,0 q -0.0794,0.873127 -0.42333,1.72641 -0.34396,0.853283 -0.95912,1.686723 l 1.84548,1.885161 -1.66688,0 -0.94589,-0.972346 q -0.68792,0.588699 -1.44198,0.879741 -0.75407,0.284428 -1.62058,0.284428 -1.59412,0 -2.60615,-0.9062 -1.01204,-0.912815 -1.01204,-2.334954 0,-0.846668 0.44318,-1.587503 0.44318,-0.74745 1.32954,-1.402296 -0.3175,-0.416719 -0.48287,-0.826824 -0.16536,-0.41672 -0.16536,-0.813596 0,-1.071565 0.73422,-1.719796 0.73422,-0.654845 1.9513,-0.654845 0.54902,0 1.09141,0.119062 0.54901,0.119063 1.11125,0.357189 l 0,1.203857 q -0.57547,-0.310886 -1.09802,-0.469637 -0.52255,-0.165365 -0.97234,-0.165365 -0.69454,0 -1.1311,0.370418 -0.42995,0.363803 -0.42995,0.945888 0,0.337344 0.19182,0.681303 0.19844,0.337345 0.80037,0.959117 z"
       style=""
       id="path254" />
    <path
       d="m 730.04048,25.909263 1.05833,0 q 0.99219,1.561046 1.48167,3.055945 0.4961,1.4949 0.4961,2.969955 0,1.481671 -0.4961,2.983185 -0.48948,1.501514 -1.48167,3.055945 l -1.05833,0 q 0.87974,-1.514744 1.30969,-3.009643 0.43656,-1.501514 0.43656,-3.029487 0,-1.527972 -0.43656,-3.016257 -0.42995,-1.488285 -1.30969,-3.009643 z"
       style=""
       id="path256" />
    <path
       d="m 621.23032,42.829433 1.2237,0 0,6.078817 3.63141,-3.194851 1.55443,0 -3.92907,3.46605 4.09444,3.942301 -1.58751,0 -3.7637,-3.618186 0,3.618186 -1.2237,0 0,-10.292317 z"
       style=""
       id="path258" />
    <path
       d="m 631.52925,46.566682 q -0.97896,0 -1.54782,0.767293 -0.56886,0.760679 -0.56886,2.090214 0,1.329534 0.56225,2.096828 0.56885,0.760679 1.55443,0.760679 0.97234,0 1.5412,-0.767294 0.56885,-0.767293 0.56885,-2.090213 0,-1.316305 -0.56885,-2.083599 -0.56886,-0.773908 -1.5412,-0.773908 z m 0,-1.031878 q 1.5875,0 2.4937,1.031878 0.9062,1.031877 0.9062,2.857507 0,1.819015 -0.9062,2.857507 -0.9062,1.031877 -2.4937,1.031877 -1.59412,0 -2.50032,-1.031877 -0.89959,-1.038492 -0.89959,-2.857507 0,-1.82563 0.89959,-2.857507 0.9062,-1.031878 2.50032,-1.031878 z"
       style=""
       id="path260" />
    <path
       d="m 643.09818,48.650281 0,4.471469 -1.21708,0 0,-4.431782 q 0,-1.051721 -0.41011,-1.574274 -0.4101,-0.522554 -1.23032,-0.522554 -0.98557,0 -1.55443,0.628387 -0.56885,0.628387 -0.56885,1.713181 l 0,4.187042 -1.2237,0 0,-7.408351 1.2237,0 0,1.15094 q 0.43656,-0.668075 1.02526,-0.998805 0.59532,-0.33073 1.36922,-0.33073 1.27662,0 1.93147,0.793752 0.65484,0.787138 0.65484,2.321725 z"
       style=""
       id="path262" />
    <path
       d="m 650.26179,45.93168 0,1.150941 q -0.51594,-0.264584 -1.07156,-0.396876 -0.55563,-0.132292 -1.15094,-0.132292 -0.9062,0 -1.36261,0.277813 -0.44979,0.277813 -0.44979,0.833439 0,0.423335 0.32411,0.668075 0.32412,0.238126 1.30308,0.456407 l 0.41672,0.0926 q 1.29646,0.277813 1.83886,0.787137 0.54901,0.50271 0.54901,1.40891 0,1.031877 -0.82021,1.633806 -0.8136,0.601928 -2.24235,0.601928 -0.59532,0 -1.24355,-0.119063 -0.64161,-0.112448 -1.35599,-0.343959 l 0,-1.256774 q 0.67469,0.350574 1.32954,0.529168 0.65484,0.17198 1.29646,0.17198 0.85989,0 1.32292,-0.291042 0.46302,-0.297657 0.46302,-0.83344 0,-0.496095 -0.33735,-0.760679 -0.33073,-0.264584 -1.46182,-0.509324 l -0.42334,-0.09922 q -1.13109,-0.238126 -1.6338,-0.727606 -0.50271,-0.496095 -0.50271,-1.355993 0,-1.045107 0.74083,-1.613962 0.74084,-0.568856 2.10345,-0.568856 0.67468,0 1.27,0.09922 0.59531,0.09922 1.09802,0.297657 z"
       style=""
       id="path264" />
    <path
       d="m 653.80722,43.609956 0,2.103443 2.50693,0 0,0.945887 -2.50693,0 0,4.021677 q 0,0.9062 0.24474,1.164169 0.25135,0.25797 1.01203,0.25797 l 1.25016,0 0,1.018648 -1.25016,0 q -1.40891,0 -1.94469,-0.522553 -0.53578,-0.529168 -0.53578,-1.918234 l 0,-4.021677 -0.89297,0 0,-0.945887 0.89297,0 0,-2.103443 1.2237,0 z"
       style=""
       id="path266" />
    <path
       d="m 662.21437,46.85111 q -0.20505,-0.119063 -0.44979,-0.17198 -0.23812,-0.05953 -0.52917,-0.05953 -1.03187,0 -1.5875,0.674689 -0.54901,0.668074 -0.54901,1.924848 l 0,3.902614 -1.2237,0 0,-7.408351 1.2237,0 0,1.15094 q 0.38365,-0.674689 0.9988,-0.998805 0.61516,-0.33073 1.4949,-0.33073 0.12568,0 0.27782,0.01984 0.15213,0.01323 0.33734,0.0463 l 0.007,1.25016 z"
       style=""
       id="path268" />
    <path
       d="m 663.37854,50.198097 0,-4.484698 1.21709,0 0,4.438396 q 0,1.051721 0.41011,1.580889 0.4101,0.522553 1.23031,0.522553 0.98558,0 1.55443,-0.628387 0.57547,-0.628387 0.57547,-1.713181 l 0,-4.20027 1.21709,0 0,7.408351 -1.21709,0 0,-1.137711 q -0.44318,0.674689 -1.03188,1.005419 -0.58208,0.324115 -1.35599,0.324115 -1.27662,0 -1.93808,-0.793752 -0.66146,-0.793752 -0.66146,-2.321724 z m 3.06256,-4.663293 0,0 z"
       style=""
       id="path270" />
    <path
       d="m 672.0569,42.829433 1.2237,0 0,6.078817 3.63141,-3.194851 1.55443,0 -3.92907,3.46605 4.09444,3.942301 -1.58751,0 -3.7637,-3.618186 0,3.618186 -1.2237,0 0,-10.292317 z"
       style=""
       id="path272" />
    <path
       d="m 681.1652,43.609956 0,2.103443 2.50693,0 0,0.945887 -2.50693,0 0,4.021677 q 0,0.9062 0.24474,1.164169 0.25136,0.25797 1.01204,0.25797 l 1.25015,0 0,1.018648 -1.25015,0 q -1.40891,0 -1.9447,-0.522553 -0.53578,-0.529168 -0.53578,-1.918234 l 0,-4.021677 -0.89297,0 0,-0.945887 0.89297,0 0,-2.103443 1.2237,0 z"
       style=""
       id="path274" />
    <path
       d="m 688.15021,46.566682 q -0.97896,0 -1.54781,0.767293 -0.56886,0.760679 -0.56886,2.090214 0,1.329534 0.56224,2.096828 0.56886,0.760679 1.55443,0.760679 0.97235,0 1.54121,-0.767294 0.56885,-0.767293 0.56885,-2.090213 0,-1.316305 -0.56885,-2.083599 -0.56886,-0.773908 -1.54121,-0.773908 z m 0,-1.031878 q 1.58751,0 2.49371,1.031878 0.9062,1.031877 0.9062,2.857507 0,1.819015 -0.9062,2.857507 -0.9062,1.031877 -2.49371,1.031877 -1.59411,0 -2.50031,-1.031877 -0.89959,-1.038492 -0.89959,-2.857507 0,-1.82563 0.89959,-2.857507 0.9062,-1.031878 2.50031,-1.031878 z"
       style=""
       id="path276" />
    <path
       d="m 697.85383,46.85111 q -0.20505,-0.119063 -0.44979,-0.17198 -0.23813,-0.05953 -0.52917,-0.05953 -1.03188,0 -1.5875,0.674689 -0.54901,0.668074 -0.54901,1.924848 l 0,3.902614 -1.2237,0 0,-7.408351 1.2237,0 0,1.15094 q 0.38364,-0.674689 0.9988,-0.998805 0.61516,-0.33073 1.4949,-0.33073 0.12568,0 0.27781,0.01984 0.15214,0.01323 0.33735,0.0463 l 0.007,1.25016 z"
       style=""
       id="path278" />
    <path
       d="m 702.06734,42.842662 q -0.88636,1.521358 -1.31631,3.009643 -0.42995,1.488285 -0.42995,3.016257 0,1.527973 0.42995,3.029487 0.43656,1.494899 1.31631,3.009643 l -1.05834,0 q -0.99219,-1.554431 -1.48828,-3.055945 -0.48949,-1.501514 -0.48949,-2.983185 0,-1.475055 0.48949,-2.969955 0.48948,-1.494899 1.48828,-3.055945 l 1.05834,0 z"
       style=""
       id="path280" />
    <path
       d="m 705.61276,52.010497 0,3.929072 -1.2237,0 0,-10.22617 1.2237,0 0,1.124481 q 0.38365,-0.661459 0.96573,-0.97896 0.5887,-0.324116 1.4023,-0.324116 1.34938,0 2.18943,1.071565 0.84667,1.071566 0.84667,2.81782 0,1.746254 -0.84667,2.817819 -0.84005,1.071565 -2.18943,1.071565 -0.8136,0 -1.4023,-0.317501 -0.58208,-0.324115 -0.96573,-0.985575 z m 4.14074,-2.586308 q 0,-1.342764 -0.55563,-2.103443 -0.54901,-0.767293 -1.51474,-0.767293 -0.96573,0 -1.52136,0.767293 -0.54901,0.760679 -0.54901,2.103443 0,1.342763 0.54901,2.110057 0.55563,0.760679 1.52136,0.760679 0.96573,0 1.51474,-0.760679 0.55563,-0.767294 0.55563,-2.110057 z"
       style=""
       id="path282" />
    <path
       d="m 719.36451,47.810227 q -0.60193,0.535782 -0.88635,1.071565 -0.27782,0.529168 -0.27782,1.111252 0,0.965732 0.70115,1.607348 0.70115,0.641616 1.75948,0.641616 0.62839,0 1.1774,-0.205052 0.54901,-0.211668 1.03188,-0.635002 l -3.50574,-3.591727 z m 0.93266,-0.740836 3.36022,3.439592 q 0.39026,-0.588699 0.60854,-1.256774 0.21828,-0.674689 0.25797,-1.428753 l 1.23032,0 q -0.0794,0.873127 -0.42334,1.72641 -0.34396,0.853284 -0.95912,1.686723 l 1.84548,1.885161 -1.66688,0 -0.94589,-0.972346 q -0.68792,0.588699 -1.44198,0.879741 -0.75407,0.284428 -1.62058,0.284428 -1.59412,0 -2.60615,-0.9062 -1.01203,-0.912815 -1.01203,-2.334953 0,-0.846669 0.44317,-1.587504 0.44318,-0.74745 1.32954,-1.402295 -0.3175,-0.41672 -0.48287,-0.826825 -0.16536,-0.41672 -0.16536,-0.813596 0,-1.071565 0.73422,-1.719796 0.73422,-0.654845 1.9513,-0.654845 0.54902,0 1.09141,0.119063 0.54902,0.119062 1.11126,0.357188 l 0,1.203857 q -0.57547,-0.310886 -1.09803,-0.469636 -0.52255,-0.165365 -0.97234,-0.165365 -0.69454,0 -1.1311,0.370417 -0.42995,0.363803 -0.42995,0.945888 0,0.337344 0.19182,0.681304 0.19844,0.337344 0.80037,0.959116 z"
       style=""
       id="path284" />
    <path
       d="m 729.92141,47.810227 q -0.60193,0.535782 -0.88635,1.071565 -0.27782,0.529168 -0.27782,1.111252 0,0.965732 0.70115,1.607348 0.70115,0.641616 1.75948,0.641616 0.62839,0 1.1774,-0.205052 0.54901,-0.211668 1.03188,-0.635002 l -3.50574,-3.591727 z m 0.93266,-0.740836 3.36022,3.439592 q 0.39026,-0.588699 0.60854,-1.256774 0.21828,-0.674689 0.25797,-1.428753 l 1.23032,0 q -0.0794,0.873127 -0.42334,1.72641 -0.34396,0.853284 -0.95912,1.686723 l 1.84548,1.885161 -1.66688,0 -0.94589,-0.972346 q -0.68792,0.588699 -1.44198,0.879741 -0.75407,0.284428 -1.62058,0.284428 -1.59412,0 -2.60615,-0.9062 -1.01203,-0.912815 -1.01203,-2.334953 0,-0.846669 0.44317,-1.587504 0.44318,-0.74745 1.32954,-1.402295 -0.3175,-0.41672 -0.48287,-0.826825 -0.16536,-0.41672 -0.16536,-0.813596 0,-1.071565 0.73422,-1.719796 0.73422,-0.654845 1.9513,-0.654845 0.54902,0 1.09141,0.119063 0.54902,0.119062 1.11126,0.357188 l 0,1.203857 q -0.57547,-0.310886 -1.09803,-0.469636 -0.52255,-0.165365 -0.97234,-0.165365 -0.69454,0 -1.1311,0.370417 -0.42995,0.363803 -0.42995,0.945888 0,0.337344 0.19182,0.681304 0.19844,0.337344 0.80037,0.959116 z"
       style=""
       id="path286" />
    <path
       d="m 738.26904,42.842662 1.05833,0 q 0.99219,1.561046 1.48167,3.055945 0.4961,1.4949 0.4961,2.969955 0,1.481671 -0.4961,2.983185 -0.48948,1.501514 -1.48167,3.055945 l -1.05833,0 q 0.87974,-1.514744 1.30969,-3.009643 0.43656,-1.501514 0.43656,-3.029487 0,-1.527972 -0.43656,-3.016257 -0.42995,-1.488285 -1.30969,-3.009643 z"
       style=""
       id="path288" />
  </g>
  <g
     id="g78"
     transform="translate(0,-0.04495035)">
    <path
       id="path80"
       d="m 481.688,-11.6881 c -40,40 -59.478,78.3736 -96.998,134.6521"
       style="fill:none;fill-opacity:0;stroke:#000000;stroke-width:2"
       inkscape:connector-curvature="0" />
    <path
       style="fill:none;fill-opacity:0;stroke:#000000;stroke-width:2"
       d="m 384.837,113.731 -1.387,11.094 9.707,-5.547"
       id="polyline82" />
  </g>
  <g
     id="g84"
     transform="translate(0,-0.04495035)">
    <path
       id="path86"
       d="m 399.223,150.194 c 80,-20 141.554,-20 217.216,-1.084"
       style="fill:none;fill-opacity:0;stroke:#000000;stroke-width:2"
       inkscape:connector-curvature="0" />
    <path
       style="fill:none;fill-opacity:0;stroke:#000000;stroke-width:2"
       d="m 607.694,152.077 10.914,-2.425 -8.489,-7.276"
       id="polyline88" />
  </g>
  <g
     id="g90"
     transform="translate(0,-0.04495035)">
    <path
       id="path92"
       d="m 620.777,169.806 c -80,20 -141.554,20 -217.216,1.084"
       style="fill:none;fill-opacity:0;stroke:#000000;stroke-width:2"
       inkscape:connector-curvature="0" />
    <path
       style="fill:none;fill-opacity:0;stroke:#000000;stroke-width:2"
       d="m 412.306,167.923 -10.914,2.425 8.489,7.276"
       id="polyline94" />
  </g>
  <g
     id="g96"
     transform="translate(0,-0.04495035)">
    <path
       id="path98"
       d="M 647.339,122.016 C 627.339,62.0156 603.315,22.2097 547.036,-15.3096"
       style="fill:none;fill-opacity:0;stroke:#000000;stroke-width:2"
       inkscape:connector-curvature="0" />
    <path
       style="fill:none;fill-opacity:0;stroke:#000000;stroke-width:2"
       d="m 556.269,-15.1632 -11.094,-1.3868 5.547,9.70728"
       id="polyline100" />
  </g>
  <g
     id="g102"
     transform="translate(0,-0.04495035)">
    <path
       id="path104"
       d="m 527.906,-4.18797 c 30,59.99997 50.829,99.17577 97.337,136.38197"
       style="fill:none;fill-opacity:0;stroke:#000000;stroke-width:2"
       inkscape:connector-curvature="0" />
    <path
       style="fill:none;fill-opacity:0;stroke:#000000;stroke-width:2"
       d="m 616.057,131.248 10.932,2.343 -4.686,-10.151"
       id="polyline106" />
  </g>
</svg>
