<?xml version="1.0" encoding="UTF-8"?>
<svg id="svg37" width="14cm" height="6.5191cm" version="1.1" viewBox="199 -21 262 113.62" xmlns="http://www.w3.org/2000/svg" xmlns:cc="http://creativecommons.org/ns#" xmlns:dc="http://purl.org/dc/elements/1.1/" xmlns:rdf="http://www.w3.org/1999/02/22-rdf-syntax-ns#">
 <metadata id="metadata41">
  <rdf:RDF>
   <cc:Work rdf:about="">
    <dc:format>image/svg+xml</dc:format>
    <dc:type rdf:resource="http://purl.org/dc/dcmitype/StillImage"/>
   </cc:Work>
  </rdf:RDF>
 </metadata>
 <g id="Háttér" transform="translate(0 -4.1908)">
  <path id="rect4" d="m200 60h100v40h-100z" fill="#fff" stroke="#000" stroke-width="2"/>
  <g id="text8" aria-label="c">
   <path id="path25" d="m252.72 77.694v1.075q-0.4875-0.26875-0.98125-0.4-0.4875-0.1375-0.9875-0.1375-1.1188 0-1.7375 0.7125-0.61875 0.70625-0.61875 1.9875t0.61875 1.9938q0.61875 0.70625 1.7375 0.70625 0.5 0 0.9875-0.13125 0.49375-0.1375 0.98125-0.40625v1.0625q-0.48125 0.225-1 0.3375-0.5125 0.1125-1.0938 0.1125-1.5812 0-2.5125-0.99375t-0.93125-2.6812q0-1.7125 0.9375-2.6938 0.94375-0.98125 2.5812-0.98125 0.53125 0 1.0375 0.1125 0.50625 0.10625 0.98125 0.325z" style=""/>
  </g>
  <path id="rect10" d="m200-20h100v40h-100z" fill="#fff" stroke="#000" stroke-width="2"/>
  <g id="text16" aria-label="(visszatérésiérték)">
   <path id="path29" d="m213.94-13.288q-0.8375 1.4375-1.2438 2.8438-0.40625 1.4062-0.40625 2.85t0.40625 2.8625q0.4125 1.4125 1.2438 2.8438h-1q-0.9375-1.4688-1.4062-2.8875-0.4625-1.4188-0.4625-2.8188 0-1.3938 0.4625-2.8062 0.4625-1.4125 1.4062-2.8875z" style=""/>
   <path id="path31" d="m215.36-10.575h1.2188l2.1875 5.875 2.1875-5.875h1.2188l-2.625 7h-1.5625z" style=""/>
   <path id="path33" d="m223.76-10.575h1.15v7h-1.15zm0-2.725h1.15v1.4562h-1.15z" style=""/>
   <path id="path35" d="m231.77-10.369v1.0875q-0.4875-0.25-1.0125-0.375t-1.0875-0.125q-0.85625 0-1.2875 0.2625-0.425 0.2625-0.425 0.7875 0 0.4 0.30625 0.63125 0.30625 0.225 1.2312 0.43125l0.39375 0.0875q1.225 0.2625 1.7375 0.74375 0.51875 0.475 0.51875 1.3312 0 0.975-0.775 1.5438-0.76875 0.56875-2.1188 0.56875-0.5625 0-1.175-0.1125-0.60625-0.10625-1.2812-0.325v-1.1875q0.6375 0.33125 1.2562 0.5 0.61875 0.1625 1.225 0.1625 0.8125 0 1.25-0.275 0.4375-0.28125 0.4375-0.7875 0-0.46875-0.31875-0.71875-0.3125-0.25-1.3812-0.48125l-0.4-0.09375q-1.0688-0.225-1.5438-0.6875-0.475-0.46875-0.475-1.2812 0-0.9875 0.7-1.525 0.7-0.5375 1.9875-0.5375 0.6375 0 1.2 0.09375t1.0375 0.28125z" style=""/>
   <path id="path37" d="m238.44-10.369v1.0875q-0.4875-0.25-1.0125-0.375t-1.0875-0.125q-0.85625 0-1.2875 0.2625-0.425 0.2625-0.425 0.7875 0 0.4 0.30625 0.63125 0.30625 0.225 1.2312 0.43125l0.39375 0.0875q1.225 0.2625 1.7375 0.74375 0.51875 0.475 0.51875 1.3312 0 0.975-0.775 1.5438-0.76875 0.56875-2.1188 0.56875-0.5625 0-1.175-0.1125-0.60625-0.10625-1.2812-0.325v-1.1875q0.6375 0.33125 1.2562 0.5 0.61875 0.1625 1.225 0.1625 0.8125 0 1.25-0.275 0.4375-0.28125 0.4375-0.7875 0-0.46875-0.31875-0.71875-0.3125-0.25-1.3812-0.48125l-0.4-0.09375q-1.0688-0.225-1.5438-0.6875-0.475-0.46875-0.475-1.2812 0-0.9875 0.7-1.525 0.7-0.5375 1.9875-0.5375 0.6375 0 1.2 0.09375t1.0375 0.28125z" style=""/>
   <path id="path39" d="m240.16-10.575h5.4625v1.05l-4.325 5.0312h4.325v0.91875h-5.6188v-1.05l4.325-5.0312h-4.1688z" style=""/>
   <path id="path41" d="m250.56-7.0938q-1.3938 0-1.9312 0.31875t-0.5375 1.0875q0 0.6125 0.4 0.975 0.40625 0.35625 1.1 0.35625 0.95625 0 1.5312-0.675 0.58125-0.68125 0.58125-1.8062v-0.25625zm2.2938-0.475v3.9938h-1.15v-1.0625q-0.39375 0.6375-0.98125 0.94375-0.5875 0.3-1.4375 0.3-1.075 0-1.7125-0.6-0.63125-0.60625-0.63125-1.6188 0-1.1812 0.7875-1.7812 0.79375-0.6 2.3625-0.6h1.6125v-0.1125q0-0.79375-0.525-1.225-0.51875-0.4375-1.4625-0.4375-0.6 0-1.1688 0.14375t-1.0938 0.43125v-1.0625q0.63125-0.24375 1.225-0.3625 0.59375-0.125 1.1562-0.125 1.5188 0 2.2688 0.7875 0.75 0.7875 0.75 2.3875z" style=""/>
   <path id="path43" d="m256.37-12.562v1.9875h2.3688v0.89375h-2.3688v3.8q0 0.85625 0.23125 1.1 0.2375 0.24375 0.95625 0.24375h1.1812v0.9625h-1.1812q-1.3312 0-1.8375-0.49375-0.50625-0.5-0.50625-1.8125v-3.8h-0.84375v-0.89375h0.84375v-1.9875z" style=""/>
   <path id="path45" d="m266.24-7.3625v0.5625h-5.2875q0.075 1.1875 0.7125 1.8125 0.64375 0.61875 1.7875 0.61875 0.6625 0 1.2812-0.1625 0.625-0.1625 1.2375-0.4875v1.0875q-0.61875 0.2625-1.2688 0.4t-1.3188 0.1375q-1.675 0-2.6562-0.975-0.975-0.975-0.975-2.6375 0-1.7188 0.925-2.725 0.93125-1.0125 2.5062-1.0125 1.4125 0 2.2312 0.9125 0.825 0.90625 0.825 2.4688zm-1.15-0.3375q-0.0125-0.94375-0.53125-1.5062-0.5125-0.5625-1.3625-0.5625-0.9625 0-1.5438 0.54375-0.575 0.54375-0.6625 1.5312zm-1.1062-6.1125h1.2438l-2.0375 2.35h-0.95625z" style=""/>
   <path id="path47" d="m272.19-9.5q-0.19375-0.1125-0.425-0.1625-0.225-0.05625-0.5-0.05625-0.975 0-1.5 0.6375-0.51875 0.63125-0.51875 1.8188v3.6875h-1.1562v-7h1.1562v1.0875q0.3625-0.6375 0.94375-0.94375 0.58125-0.3125 1.4125-0.3125 0.11875 0 0.2625 0.01875 0.14375 0.0125 0.31875 0.04375z" style=""/>
   <path id="path49" d="m279.12-7.3625v0.5625h-5.2875q0.075 1.1875 0.7125 1.8125 0.64375 0.61875 1.7875 0.61875 0.6625 0 1.2812-0.1625 0.625-0.1625 1.2375-0.4875v1.0875q-0.61875 0.2625-1.2688 0.4t-1.3188 0.1375q-1.675 0-2.6562-0.975-0.975-0.975-0.975-2.6375 0-1.7188 0.925-2.725 0.93125-1.0125 2.5062-1.0125 1.4125 0 2.2312 0.9125 0.825 0.90625 0.825 2.4688zm-1.15-0.3375q-0.0125-0.94375-0.53125-1.5062-0.5125-0.5625-1.3625-0.5625-0.9625 0-1.5438 0.54375-0.575 0.54375-0.6625 1.5312zm-1.1062-6.1125h1.2438l-2.0375 2.35h-0.95625z" style=""/>
   <path id="path51" d="m285.47-10.369v1.0875q-0.4875-0.25-1.0125-0.375t-1.0875-0.125q-0.85625 0-1.2875 0.2625-0.425 0.2625-0.425 0.7875 0 0.4 0.30625 0.63125 0.30625 0.225 1.2312 0.43125l0.39375 0.0875q1.225 0.2625 1.7375 0.74375 0.51875 0.475 0.51875 1.3312 0 0.975-0.775 1.5438-0.76875 0.56875-2.1188 0.56875-0.5625 0-1.175-0.1125-0.60625-0.10625-1.2812-0.325v-1.1875q0.6375 0.33125 1.2562 0.5 0.61875 0.1625 1.225 0.1625 0.8125 0 1.25-0.275 0.4375-0.28125 0.4375-0.7875 0-0.46875-0.31875-0.71875-0.3125-0.25-1.3812-0.48125l-0.4-0.09375q-1.0688-0.225-1.5438-0.6875-0.475-0.46875-0.475-1.2812 0-0.9875 0.7-1.525 0.7-0.5375 1.9875-0.5375 0.6375 0 1.2 0.09375t1.0375 0.28125z" style=""/>
   <path id="path53" d="m287.68-10.575h1.15v7h-1.15zm0-2.725h1.15v1.4562h-1.15z" style=""/>
   <path id="path55" d="m237.96 8.6375v0.5625h-5.2875q0.075 1.1875 0.7125 1.8125 0.64375 0.61875 1.7875 0.61875 0.6625 0 1.2812-0.1625 0.625-0.1625 1.2375-0.4875v1.0875q-0.61875 0.2625-1.2688 0.4t-1.3188 0.1375q-1.675 0-2.6562-0.975-0.975-0.975-0.975-2.6375 0-1.7188 0.925-2.725 0.93125-1.0125 2.5062-1.0125 1.4125 0 2.2312 0.9125 0.825 0.90625 0.825 2.4688zm-1.15-0.3375q-0.0125-0.94375-0.53125-1.5062-0.5125-0.5625-1.3625-0.5625-0.9625 0-1.5438 0.54375-0.575 0.54375-0.6625 1.5312zm-1.1062-6.1125h1.2438l-2.0375 2.35h-0.95625z" style=""/>
   <path id="path57" d="m243.9 6.5q-0.19375-0.1125-0.425-0.1625-0.225-0.05625-0.5-0.05625-0.975 0-1.5 0.6375-0.51875 0.63125-0.51875 1.8188v3.6875h-1.1562v-7h1.1562v1.0875q0.3625-0.6375 0.94375-0.94375 0.58125-0.3125 1.4125-0.3125 0.11875 0 0.2625 0.01875 0.14375 0.0125 0.31875 0.04375z" style=""/>
   <path id="path59" d="m246.26 3.4375v1.9875h2.3688v0.89375h-2.3688v3.8q0 0.85625 0.23125 1.1 0.2375 0.24375 0.95625 0.24375h1.1812v0.9625h-1.1812q-1.3312 0-1.8375-0.49375-0.50625-0.5-0.50625-1.8125v-3.8h-0.84375v-0.89375h0.84375v-1.9875z" style=""/>
   <path id="path61" d="m256.13 8.6375v0.5625h-5.2875q0.075 1.1875 0.7125 1.8125 0.64375 0.61875 1.7875 0.61875 0.6625 0 1.2812-0.1625 0.625-0.1625 1.2375-0.4875v1.0875q-0.61875 0.2625-1.2688 0.4t-1.3188 0.1375q-1.675 0-2.6562-0.975-0.975-0.975-0.975-2.6375 0-1.7188 0.925-2.725 0.93125-1.0125 2.5062-1.0125 1.4125 0 2.2312 0.9125 0.825 0.90625 0.825 2.4688zm-1.15-0.3375q-0.0125-0.94375-0.53125-1.5062-0.5125-0.5625-1.3625-0.5625-0.9625 0-1.5438 0.54375-0.575 0.54375-0.6625 1.5312zm-1.1062-6.1125h1.2438l-2.0375 2.35h-0.95625z" style=""/>
   <path id="path63" d="m257.98 2.7h1.1562v5.7438l3.4312-3.0188h1.4688l-3.7125 3.275 3.8688 3.725h-1.5l-3.5562-3.4188v3.4188h-1.1562z" style=""/>
   <path id="path65" d="m265.26 2.7125h1q0.9375 1.475 1.4 2.8875 0.46875 1.4125 0.46875 2.8062 0 1.4-0.46875 2.8188-0.4625 1.4188-1.4 2.8875h-1q0.83125-1.4312 1.2375-2.8438 0.4125-1.4188 0.4125-2.8625t-0.4125-2.85q-0.40625-1.4062-1.2375-2.8438z" style=""/>
  </g>
  <path id="rect18" d="m340-10h120v20h-120z" fill="#fff" stroke="#000" stroke-width="2"/>
  <g id="g24" fill="none" stroke="#000" stroke-width="2">
   <path id="line20" d="m289.33 59.023 86.142-45.942"/>
   <path id="polyline22" d="m370.98 21.146 6.471-9.1177-11.177 0.2941"/>
  </g>
  <g id="g30" fill="none" stroke="#000" stroke-width="2">
   <path id="line26" d="m301 0h33.559"/>
   <path id="polyline28" d="m326.79 5 10-5-10-5"/>
  </g>
  <path id="line32" d="m310-10 20 20" fill="none" stroke="#f00" stroke-width="2"/>
  <path id="line34" d="m330-10-20 20" fill="none" stroke="#f00" stroke-width="2"/>
 </g>
</svg>
