<?xml version="1.0" encoding="UTF-8"?>
<svg id="svg141" width="32.331cm" height="6.8787cm" version="1.1" viewBox="439 242 628.98 136.59" xmlns="http://www.w3.org/2000/svg" xmlns:cc="http://creativecommons.org/ns#" xmlns:dc="http://purl.org/dc/elements/1.1/" xmlns:rdf="http://www.w3.org/1999/02/22-rdf-syntax-ns#">
 <metadata id="metadata145">
  <rdf:RDF>
   <cc:Work rdf:about="">
    <dc:format>image/svg+xml</dc:format>
    <dc:type rdf:resource="http://purl.org/dc/dcmitype/StillImage"/>
   </cc:Work>
  </rdf:RDF>
 </metadata>
 <g id="Háttér" transform="translate(-6.5082 -2.4077)">
  <path id="rect4" d="m520 270h20v20h-20z" fill="#fff" stroke="#000" stroke-width="2"/>
  <g id="text8" aria-label="b">
   <path id="path77" d="m532.3 251q0-1.3428-0.55563-2.1034-0.54901-0.76729-1.5147-0.76729-0.96574 0-1.5214 0.76729-0.54901 0.76068-0.54901 2.1034 0 1.3428 0.54901 2.11 0.55562 0.76068 1.5214 0.76068 0.96573 0 1.5147-0.76068 0.55563-0.76729 0.55563-2.11zm-4.1407-2.5863q0.38364-0.66146 0.96573-0.97896 0.5887-0.32412 1.4023-0.32412 1.3494 0 2.1894 1.0716 0.84666 1.0716 0.84666 2.8178 0 1.7462-0.84666 2.8178-0.84006 1.0716-2.1894 1.0716-0.81359 0-1.4023-0.3175-0.58209-0.32412-0.96573-0.98558v1.1113h-1.2237v-10.292h1.2237z" style=""/>
  </g>
  <path id="rect10" d="m440 270h20v20h-20z" fill="#fff" stroke="#000" stroke-width="2"/>
  <g id="text14" aria-label="a">
   <path id="path81" d="m450.49 250.98q-1.4751 0-2.0439 0.33734-0.56886 0.33735-0.56886 1.1509 0 0.64823 0.42334 1.0319 0.42995 0.37703 1.1642 0.37703 1.012 0 1.6206-0.71437 0.61516-0.721 0.61516-1.9116v-0.2712zm2.4276-0.50271v4.2267h-1.2171v-1.1245q-0.41672 0.67468-1.0385 0.9988-0.62177 0.3175-1.5214 0.3175-1.1377 0-1.8124-0.635-0.66807-0.64162-0.66807-1.7132 0-1.2502 0.83344-1.8852 0.84005-0.635 2.5003-0.635h1.7066v-0.11907q0-0.84005-0.55562-1.2965-0.54902-0.46302-1.5478-0.46302-0.635 0-1.2369 0.15213-0.60193 0.15214-1.1576 0.45641v-1.1245q0.66808-0.25797 1.2965-0.38365 0.62838-0.13229 1.2237-0.13229 1.6073 0 2.4011 0.83344 0.79375 0.83344 0.79375 2.5268z" style=""/>
  </g>
  <path id="rect16" d="m480 270h20v20h-20z" fill="#fff" stroke="#000" stroke-width="2"/>
  <g id="text20" aria-label="temp">
   <path id="path85" d="m474.75 245.19v2.1034h2.5069v0.94588h-2.5069v4.0217q0 0.9062 0.24474 1.1642 0.25135 0.25797 1.012 0.25797h1.2502v1.0186h-1.2502q-1.4089 0-1.9447-0.52256-0.53578-0.52916-0.53578-1.9182v-4.0217h-0.89297v-0.94588h0.89297v-2.1034z" style=""/>
   <path id="path87" d="m485.2 250.69v0.59531h-5.596q0.0794 1.2568 0.75407 1.9182 0.6813 0.65484 1.8918 0.65484 0.70115 0 1.356-0.17198 0.66146-0.17198 1.3097-0.51594v1.1509q-0.65485 0.27782-1.3428 0.42334-0.68791 0.14552-1.3957 0.14552-1.7727 0-2.8112-1.0319-1.0319-1.0319-1.0319-2.7914 0-1.819 0.97896-2.884 0.98558-1.0716 2.6525-1.0716 1.4949 0 2.3614 0.96573 0.87313 0.95912 0.87313 2.6128zm-1.2171-0.35719q-0.0132-0.9988-0.56224-1.5941-0.5424-0.59531-1.442-0.59531-1.0186 0-1.6338 0.57547-0.60854 0.57547-0.70115 1.6206z" style=""/>
   <path id="path89" d="m492.97 248.71q0.4564-0.82021 1.0914-1.2105 0.63501-0.39026 1.4949-0.39026 1.1576 0 1.786 0.8136 0.62838 0.80698 0.62838 2.3019v4.4715h-1.2237v-4.4318q0-1.065-0.37703-1.5809-0.37703-0.51594-1.1509-0.51594-0.94589 0-1.4949 0.62838-0.54901 0.62839-0.54901 1.7132v4.187h-1.2237v-4.4318q0-1.0716-0.37703-1.5809-0.37704-0.51594-1.1642-0.51594-0.93266 0-1.4817 0.635-0.54902 0.62839-0.54902 1.7066v4.187h-1.2237v-7.4084h1.2237v1.1509q0.41672-0.68131 0.99881-1.0054 0.58208-0.32412 1.3824-0.32412 0.80698 0 1.3692 0.41011 0.56886 0.4101 0.84006 1.1906z" style=""/>
   <path id="path91" d="m501.58 253.59v3.9291h-1.2237v-10.226h1.2237v1.1245q0.38365-0.66146 0.96574-0.97896 0.5887-0.32412 1.4023-0.32412 1.3494 0 2.1894 1.0716 0.84667 1.0716 0.84667 2.8178 0 1.7462-0.84667 2.8178-0.84005 1.0716-2.1894 1.0716-0.81359 0-1.4023-0.3175-0.58209-0.32412-0.96574-0.98558zm4.1407-2.5863q0-1.3428-0.55562-2.1034-0.54901-0.76729-1.5148-0.76729-0.96573 0-1.5214 0.76729-0.54902 0.76068-0.54902 2.1034 0 1.3428 0.54902 2.11 0.55562 0.76068 1.5214 0.76068 0.96574 0 1.5148-0.76068 0.55562-0.76729 0.55562-2.11z" style=""/>
  </g>
  <path id="rect22" d="m520 320h20v60h-20z" fill="#7babe3" stroke="#000" stroke-width="2"/>
  <path id="rect24" d="m440 320h20v60h-20z" fill="#7babe3" stroke="#000" stroke-width="2"/>
  <g id="g30" stroke="#000" stroke-width="2">
   <path id="line26" d="m530 290v20.264" fill="none"/>
   <path id="polygon28" d="m530 310.26 5-2.5-5 10-5-10z" fill-rule="evenodd"/>
  </g>
  <g id="g36" stroke="#000" stroke-width="2">
   <path id="line32" d="m450 290.98v19.287" fill="none"/>
   <path id="polygon34" d="m450 310.26 5-2.5-5 10-5-10z" fill-rule="evenodd"/>
  </g>
  <path id="rect38" d="m700 270h20v20h-20z" fill="#fff" stroke="#000" stroke-width="2"/>
  <g id="text42" aria-label="b">
   <path id="path101" d="m712.3 251q0-1.3428-0.55563-2.1034-0.54901-0.76729-1.5147-0.76729-0.96574 0-1.5214 0.76729-0.54901 0.76068-0.54901 2.1034 0 1.3428 0.54901 2.11 0.55562 0.76068 1.5214 0.76068 0.96573 0 1.5147-0.76068 0.55563-0.76729 0.55563-2.11zm-4.1407-2.5863q0.38364-0.66146 0.96573-0.97896 0.5887-0.32412 1.4023-0.32412 1.3494 0 2.1894 1.0716 0.84666 1.0716 0.84666 2.8178 0 1.7462-0.84666 2.8178-0.84006 1.0716-2.1894 1.0716-0.81359 0-1.4023-0.3175-0.58209-0.32412-0.96573-0.98558v1.1113h-1.2237v-10.292h1.2237z" style=""/>
  </g>
  <path id="rect44" d="m620 270h20v20h-20z" fill="#fff" stroke="#000" stroke-width="2"/>
  <g id="text48" aria-label="a">
   <path id="path105" d="m630.49 250.98q-1.4751 0-2.0439 0.33734-0.56886 0.33735-0.56886 1.1509 0 0.64823 0.42334 1.0319 0.42995 0.37703 1.1642 0.37703 1.012 0 1.6206-0.71437 0.61516-0.721 0.61516-1.9116v-0.2712zm2.4276-0.50271v4.2267h-1.2171v-1.1245q-0.41672 0.67468-1.0385 0.9988-0.62177 0.3175-1.5214 0.3175-1.1377 0-1.8124-0.635-0.66807-0.64162-0.66807-1.7132 0-1.2502 0.83344-1.8852 0.84005-0.635 2.5003-0.635h1.7066v-0.11907q0-0.84005-0.55562-1.2965-0.54902-0.46302-1.5478-0.46302-0.635 0-1.2369 0.15213-0.60193 0.15214-1.1576 0.45641v-1.1245q0.66808-0.25797 1.2965-0.38365 0.62838-0.13229 1.2237-0.13229 1.6073 0 2.4011 0.83344 0.79375 0.83344 0.79375 2.5268z" style=""/>
  </g>
  <path id="rect50" d="m660 270h20v20h-20z" fill="#fff" stroke="#000" stroke-width="2"/>
  <g id="text54" aria-label="temp">
   <path id="path109" d="m654.75 245.19v2.1034h2.5069v0.94588h-2.5069v4.0217q0 0.9062 0.24474 1.1642 0.25135 0.25797 1.012 0.25797h1.2502v1.0186h-1.2502q-1.4089 0-1.9447-0.52256-0.53578-0.52916-0.53578-1.9182v-4.0217h-0.89297v-0.94588h0.89297v-2.1034z" style=""/>
   <path id="path111" d="m665.2 250.69v0.59531h-5.596q0.0794 1.2568 0.75407 1.9182 0.6813 0.65484 1.8918 0.65484 0.70115 0 1.356-0.17198 0.66146-0.17198 1.3097-0.51594v1.1509q-0.65485 0.27782-1.3428 0.42334-0.68791 0.14552-1.3957 0.14552-1.7727 0-2.8112-1.0319-1.0319-1.0319-1.0319-2.7914 0-1.819 0.97896-2.884 0.98558-1.0716 2.6525-1.0716 1.4949 0 2.3614 0.96573 0.87313 0.95912 0.87313 2.6128zm-1.2171-0.35719q-0.0132-0.9988-0.56224-1.5941-0.5424-0.59531-1.442-0.59531-1.0186 0-1.6338 0.57547-0.60854 0.57547-0.70115 1.6206z" style=""/>
   <path id="path113" d="m672.97 248.71q0.4564-0.82021 1.0914-1.2105 0.63501-0.39026 1.4949-0.39026 1.1576 0 1.786 0.8136 0.62838 0.80698 0.62838 2.3019v4.4715h-1.2237v-4.4318q0-1.065-0.37703-1.5809-0.37703-0.51594-1.1509-0.51594-0.94589 0-1.4949 0.62838-0.54901 0.62839-0.54901 1.7132v4.187h-1.2237v-4.4318q0-1.0716-0.37703-1.5809-0.37704-0.51594-1.1642-0.51594-0.93266 0-1.4817 0.635-0.54902 0.62839-0.54902 1.7066v4.187h-1.2237v-7.4084h1.2237v1.1509q0.41672-0.68131 0.99881-1.0054 0.58208-0.32412 1.3824-0.32412 0.80698 0 1.3692 0.41011 0.56886 0.4101 0.84006 1.1906z" style=""/>
   <path id="path115" d="m681.58 253.59v3.9291h-1.2237v-10.226h1.2237v1.1245q0.38365-0.66146 0.96574-0.97896 0.5887-0.32412 1.4023-0.32412 1.3494 0 2.1894 1.0716 0.84667 1.0716 0.84667 2.8178 0 1.7462-0.84667 2.8178-0.84005 1.0716-2.1894 1.0716-0.81359 0-1.4023-0.3175-0.58209-0.32412-0.96574-0.98558zm4.1407-2.5863q0-1.3428-0.55562-2.1034-0.54901-0.76729-1.5148-0.76729-0.96573 0-1.5214 0.76729-0.54902 0.76068-0.54902 2.1034 0 1.3428 0.54902 2.11 0.55562 0.76068 1.5214 0.76068 0.96574 0 1.5148-0.76068 0.55562-0.76729 0.55562-2.11z" style=""/>
  </g>
  <path id="rect56" d="m700 320h20v60h-20z" fill="#7babe3" stroke="#000" stroke-width="2"/>
  <path id="rect58" d="m620 320h20v60h-20z" fill="#7babe3" stroke="#000" stroke-width="2"/>
  <g id="g64" stroke="#000" stroke-width="2">
   <path id="line60" d="m710 290v20.264" fill="none"/>
   <path id="polygon62" d="m710 310.26 5-2.5-5 10-5-10z" fill-rule="evenodd"/>
  </g>
  <g id="g70" stroke="#000" stroke-width="2">
   <path id="line66" d="m670 290-32.211 24.158" fill="none"/>
   <path id="polygon68" d="m637.79 314.16 5 2.5-11 2 5-10z" fill-rule="evenodd"/>
  </g>
  <path id="rect72" d="m880 270h20v20h-20z" fill="#fff" stroke="#000" stroke-width="2"/>
  <g id="text76" aria-label="b">
   <path id="path125" d="m892.3 251q0-1.3428-0.55563-2.1034-0.54901-0.76729-1.5147-0.76729-0.96574 0-1.5214 0.76729-0.54901 0.76068-0.54901 2.1034 0 1.3428 0.54901 2.11 0.55562 0.76068 1.5214 0.76068 0.96573 0 1.5147-0.76068 0.55563-0.76729 0.55563-2.11zm-4.1407-2.5863q0.38364-0.66146 0.96573-0.97896 0.5887-0.32412 1.4023-0.32412 1.3494 0 2.1894 1.0716 0.84666 1.0716 0.84666 2.8178 0 1.7462-0.84666 2.8178-0.84006 1.0716-2.1894 1.0716-0.81359 0-1.4023-0.3175-0.58209-0.32412-0.96573-0.98558v1.1113h-1.2237v-10.292h1.2237z" style=""/>
  </g>
  <path id="rect78" d="m800 270h20v20h-20z" fill="#fff" stroke="#000" stroke-width="2"/>
  <g id="text82" aria-label="a">
   <path id="path129" d="m810.49 250.98q-1.4751 0-2.0439 0.33734-0.56886 0.33735-0.56886 1.1509 0 0.64823 0.42334 1.0319 0.42995 0.37703 1.1642 0.37703 1.012 0 1.6206-0.71437 0.61516-0.721 0.61516-1.9116v-0.2712zm2.4276-0.50271v4.2267h-1.2171v-1.1245q-0.41672 0.67468-1.0385 0.9988-0.62177 0.3175-1.5214 0.3175-1.1377 0-1.8124-0.635-0.66807-0.64162-0.66807-1.7132 0-1.2502 0.83344-1.8852 0.84005-0.635 2.5003-0.635h1.7066v-0.11907q0-0.84005-0.55562-1.2965-0.54902-0.46302-1.5478-0.46302-0.635 0-1.2369 0.15213-0.60193 0.15214-1.1576 0.45641v-1.1245q0.66808-0.25797 1.2965-0.38365 0.62838-0.13229 1.2237-0.13229 1.6073 0 2.4011 0.83344 0.79375 0.83344 0.79375 2.5268z" style=""/>
  </g>
  <path id="rect84" d="m840 270h20v20h-20z" fill="#fff" stroke="#000" stroke-width="2"/>
  <g id="text88" aria-label="temp">
   <path id="path133" d="m834.75 245.19v2.1034h2.5069v0.94588h-2.5069v4.0217q0 0.9062 0.24474 1.1642 0.25135 0.25797 1.012 0.25797h1.2502v1.0186h-1.2502q-1.4089 0-1.9447-0.52256-0.53578-0.52916-0.53578-1.9182v-4.0217h-0.89297v-0.94588h0.89297v-2.1034z" style=""/>
   <path id="path135" d="m845.2 250.69v0.59531h-5.596q0.0794 1.2568 0.75407 1.9182 0.6813 0.65484 1.8918 0.65484 0.70115 0 1.356-0.17198 0.66146-0.17198 1.3097-0.51594v1.1509q-0.65485 0.27782-1.3428 0.42334-0.68791 0.14552-1.3957 0.14552-1.7727 0-2.8112-1.0319-1.0319-1.0319-1.0319-2.7914 0-1.819 0.97896-2.884 0.98558-1.0716 2.6525-1.0716 1.4949 0 2.3614 0.96573 0.87313 0.95912 0.87313 2.6128zm-1.2171-0.35719q-0.0132-0.9988-0.56224-1.5941-0.5424-0.59531-1.442-0.59531-1.0186 0-1.6338 0.57547-0.60854 0.57547-0.70115 1.6206z" style=""/>
   <path id="path137" d="m852.97 248.71q0.4564-0.82021 1.0914-1.2105 0.63501-0.39026 1.4949-0.39026 1.1576 0 1.786 0.8136 0.62838 0.80698 0.62838 2.3019v4.4715h-1.2237v-4.4318q0-1.065-0.37703-1.5809-0.37703-0.51594-1.1509-0.51594-0.94589 0-1.4949 0.62838-0.54901 0.62839-0.54901 1.7132v4.187h-1.2237v-4.4318q0-1.0716-0.37703-1.5809-0.37704-0.51594-1.1642-0.51594-0.93266 0-1.4817 0.635-0.54902 0.62839-0.54902 1.7066v4.187h-1.2237v-7.4084h1.2237v1.1509q0.41672-0.68131 0.99881-1.0054 0.58208-0.32412 1.3824-0.32412 0.80698 0 1.3692 0.41011 0.56886 0.4101 0.84006 1.1906z" style=""/>
   <path id="path139" d="m861.58 253.59v3.9291h-1.2237v-10.226h1.2237v1.1245q0.38365-0.66146 0.96574-0.97896 0.5887-0.32412 1.4023-0.32412 1.3494 0 2.1894 1.0716 0.84667 1.0716 0.84667 2.8178 0 1.7462-0.84667 2.8178-0.84005 1.0716-2.1894 1.0716-0.81359 0-1.4023-0.3175-0.58209-0.32412-0.96574-0.98558zm4.1407-2.5863q0-1.3428-0.55562-2.1034-0.54901-0.76729-1.5148-0.76729-0.96573 0-1.5214 0.76729-0.54902 0.76068-0.54902 2.1034 0 1.3428 0.54902 2.11 0.55562 0.76068 1.5214 0.76068 0.96574 0 1.5148-0.76068 0.55562-0.76729 0.55562-2.11z" style=""/>
  </g>
  <g id="g94" stroke="#000" stroke-width="2">
   <path id="line90" d="m810 290 70.884 26.581" fill="none"/>
   <path id="polygon92" d="m880.88 316.58-0.585-5.559 7.607 8.193-11.119 1.17z" fill-rule="evenodd"/>
  </g>
  <g id="g100" stroke="#000" stroke-width="2">
   <path id="line96" d="m850 290-32.211 24.158" fill="none"/>
   <path id="polygon98" d="m817.79 314.16 5 2.5-11 2 5-10z" fill-rule="evenodd"/>
  </g>
  <path id="rect102" d="m1060 270h20v20h-20z" fill="#fff" stroke="#000" stroke-width="2"/>
  <g id="text106" aria-label="b">
   <path id="path147" d="m1072.3 251q0-1.3428-0.5557-2.1034-0.549-0.76729-1.5147-0.76729t-1.5214 0.76729q-0.549 0.76068-0.549 2.1034 0 1.3428 0.549 2.11 0.5557 0.76068 1.5214 0.76068t1.5147-0.76068q0.5557-0.76729 0.5557-2.11zm-4.1408-2.5863q0.3837-0.66146 0.9658-0.97896 0.5887-0.32412 1.4023-0.32412 1.3493 0 2.1894 1.0716 0.8467 1.0716 0.8467 2.8178 0 1.7462-0.8467 2.8178-0.8401 1.0716-2.1894 1.0716-0.8136 0-1.4023-0.3175-0.5821-0.32412-0.9658-0.98558v1.1113h-1.2237v-10.292h1.2237z" style=""/>
  </g>
  <path id="rect108" d="m980 270h20v20h-20z" fill="#fff" stroke="#000" stroke-width="2"/>
  <g id="text112" aria-label="a">
   <path id="path151" d="m990.49 250.98q-1.4751 0-2.0439 0.33734-0.56886 0.33735-0.56886 1.1509 0 0.64823 0.42334 1.0319 0.42995 0.37703 1.1642 0.37703 1.012 0 1.6206-0.71437 0.61516-0.721 0.61516-1.9116v-0.2712zm2.4276-0.50271v4.2267h-1.2171v-1.1245q-0.41672 0.67468-1.0385 0.9988-0.62177 0.3175-1.5214 0.3175-1.1377 0-1.8124-0.635-0.66807-0.64162-0.66807-1.7132 0-1.2502 0.83344-1.8852 0.84005-0.635 2.5003-0.635h1.7066v-0.11907q0-0.84005-0.55562-1.2965-0.54902-0.46302-1.5478-0.46302-0.635 0-1.2369 0.15213-0.60193 0.15214-1.1576 0.45641v-1.1245q0.66808-0.25797 1.2965-0.38365 0.62838-0.13229 1.2237-0.13229 1.6073 0 2.4011 0.83344 0.79375 0.83344 0.79375 2.5268z" style=""/>
  </g>
  <path id="rect114" d="m1020 270h20v20h-20z" fill="#fff" stroke="#000" stroke-width="2"/>
  <g id="text118" aria-label="temp">
   <path id="path155" d="m1014.8 245.19v2.1034h2.507v0.94588h-2.507v4.0217q0 0.9062 0.2448 1.1642 0.2513 0.25797 1.012 0.25797h1.2502v1.0186h-1.2502q-1.4089 0-1.9447-0.52256-0.5358-0.52916-0.5358-1.9182v-4.0217h-0.8929v-0.94588h0.8929v-2.1034z" style=""/>
   <path id="path157" d="m1025.2 250.69v0.59531h-5.5959q0.079 1.2568 0.754 1.9182 0.6813 0.65484 1.8918 0.65484 0.7012 0 1.356-0.17198 0.6615-0.17198 1.3097-0.51594v1.1509q-0.6549 0.27782-1.3428 0.42334t-1.3957 0.14552q-1.7727 0-2.8112-1.0319-1.0318-1.0319-1.0318-2.7914 0-1.819 0.9789-2.884 0.9856-1.0716 2.6525-1.0716 1.4949 0 2.3614 0.96573 0.8731 0.95912 0.8731 2.6128zm-1.2171-0.35719q-0.013-0.9988-0.5622-1.5941-0.5424-0.59531-1.442-0.59531-1.0186 0-1.6338 0.57547-0.6085 0.57547-0.7011 1.6206z" style=""/>
   <path id="path159" d="m1033 248.71q0.4564-0.82021 1.0914-1.2105t1.4949-0.39026q1.1575 0 1.7859 0.8136 0.6284 0.80698 0.6284 2.3019v4.4715h-1.2237v-4.4318q0-1.065-0.377-1.5809-0.3771-0.51594-1.151-0.51594-0.9459 0-1.4949 0.62838-0.549 0.62839-0.549 1.7132v4.187h-1.2237v-4.4318q0-1.0716-0.377-1.5809-0.3771-0.51594-1.1642-0.51594-0.9327 0-1.4817 0.635-0.549 0.62839-0.549 1.7066v4.187h-1.2237v-7.4084h1.2237v1.1509q0.4167-0.68131 0.9988-1.0054 0.5821-0.32412 1.3825-0.32412 0.807 0 1.3692 0.41011 0.5689 0.4101 0.8401 1.1906z" style=""/>
   <path id="path161" d="m1041.6 253.59v3.9291h-1.2237v-10.226h1.2237v1.1245q0.3836-0.66146 0.9657-0.97896 0.5887-0.32412 1.4023-0.32412 1.3494 0 2.1894 1.0716 0.8467 1.0716 0.8467 2.8178 0 1.7462-0.8467 2.8178-0.84 1.0716-2.1894 1.0716-0.8136 0-1.4023-0.3175-0.5821-0.32412-0.9657-0.98558zm4.1407-2.5863q0-1.3428-0.5556-2.1034-0.549-0.76729-1.5148-0.76729-0.9657 0-1.5213 0.76729-0.549 0.76068-0.549 2.1034 0 1.3428 0.549 2.11 0.5556 0.76068 1.5213 0.76068 0.9658 0 1.5148-0.76068 0.5556-0.76729 0.5556-2.11z" style=""/>
  </g>
  <g id="g124" stroke="#000" stroke-width="2">
   <path id="line120" d="m990 290 70.88 26.581" fill="none"/>
   <path id="polygon122" d="m1060.9 316.58-0.58-5.559 7.61 8.193-11.12 1.17z" fill-rule="evenodd"/>
  </g>
  <g id="g130" stroke="#000" stroke-width="2">
   <path id="line126" d="m1070 290-70.884 26.581" fill="none"/>
   <path id="polygon128" d="m999.12 316.58 4.094 3.804-11.116-1.17 7.607-8.193z" fill-rule="evenodd"/>
  </g>
  <path id="rect132" d="m880 320h20v60h-20z" fill="#7babe3" stroke="#000" stroke-width="2"/>
  <path id="rect134" d="m800 320h20v60h-20z" fill="#7babe3" stroke="#000" stroke-width="2"/>
  <path id="rect136" d="m1060 320h20v60h-20z" fill="#7babe3" stroke="#000" stroke-width="2"/>
  <path id="rect138" d="m980 320h20v60h-20z" fill="#7babe3" stroke="#000" stroke-width="2"/>
 </g>
</svg>
