<?xml version="1.0" encoding="UTF-8" standalone="no"?>
<!-- Created with Inkscape (http://www.inkscape.org/) -->

<svg
   xmlns:dc="http://purl.org/dc/elements/1.1/"
   xmlns:cc="http://creativecommons.org/ns#"
   xmlns:rdf="http://www.w3.org/1999/02/22-rdf-syntax-ns#"
   xmlns:svg="http://www.w3.org/2000/svg"
   xmlns="http://www.w3.org/2000/svg"
   xmlns:sodipodi="http://sodipodi.sourceforge.net/DTD/sodipodi-0.dtd"
   xmlns:inkscape="http://www.inkscape.org/namespaces/inkscape"
   version="1.1"
   width="637.79529"
   height="376.7095"
   viewBox="279 99 342 196.20096"
   id="svg2"
   inkscape:version="0.48.4 r9939"
   sodipodi:docname="value.svg">
  <sodipodi:namedview
     pagecolor="#ffffff"
     bordercolor="#666666"
     borderopacity="1"
     objecttolerance="10"
     gridtolerance="10"
     guidetolerance="10"
     inkscape:pageopacity="0"
     inkscape:pageshadow="2"
     inkscape:window-width="640"
     inkscape:window-height="480"
     id="namedview53"
     showgrid="false"
     inkscape:zoom="0.60549493"
     inkscape:cx="318.89764"
     inkscape:cy="187.2349"
     inkscape:window-x="0"
     inkscape:window-y="25"
     inkscape:window-maximized="0"
     inkscape:current-layer="svg2" />
  <metadata
     id="metadata104">
    <rdf:RDF>
      <cc:Work
         rdf:about="">
        <dc:format>image/svg+xml</dc:format>
        <dc:type
           rdf:resource="http://purl.org/dc/dcmitype/StillImage" />
      </cc:Work>
    </rdf:RDF>
  </metadata>
  <defs
     id="defs102" />
  <g
     id="g4"
     transform="translate(0,-2.8995215)">
    <path
       style="fill:#ffffff"
       d="m 400,100 100,0 0,40 -100,0 z"
       id="rect6" />
    <path
       style="fill:none;stroke:#000000;stroke-width:2"
       d="m 400,100 100,0 0,40 -100,0 z"
       id="rect8" />
  </g>
  <g
     style="font-size:15.80440044px;font-style:normal;font-weight:normal;text-anchor:middle;fill:#000000;font-family:sans-serif"
     id="text10">
    <path
       d="m 428.87859,113.93245 1.50482,0 2.70094,7.25397 2.70095,-7.25397 1.50481,0 -3.24113,8.64303 -1.92925,0 -3.24114,-8.64303"
       style=""
       id="path3033" />
    <path
       d="m 443.17818,118.23081 c -1.14726,10e-6 -1.94211,0.13119 -2.38455,0.39357 -0.44245,0.26238 -0.66367,0.70996 -0.66366,1.34275 -1e-5,0.50418 0.16462,0.90547 0.49388,1.20385 0.3344,0.29325 0.78713,0.43987 1.3582,0.43987 0.78712,0 1.41734,-0.27781 1.89066,-0.83343 0.47845,-0.56077 0.71767,-1.30417 0.71768,-2.23021 l 0,-0.3164 -1.41221,0 m 2.83214,-0.58649 0,4.93116 -1.41993,0 0,-1.31189 c -0.32412,0.52476 -0.72798,0.91318 -1.21157,1.16526 -0.4836,0.24695 -1.07524,0.37042 -1.77491,0.37042 -0.88488,0 -1.5897,-0.24694 -2.11445,-0.74083 -0.51962,-0.49903 -0.77942,-1.16527 -0.77942,-1.9987 0,-0.97234 0.32411,-1.70545 0.97234,-2.19934 0.65337,-0.49389 1.62571,-0.74083 2.91702,-0.74084 l 1.99099,0 0,-0.1389 c -1e-5,-0.65337 -0.21608,-1.15754 -0.64823,-1.51253 -0.42701,-0.36012 -1.02894,-0.54018 -1.80578,-0.54019 -0.49389,10e-6 -0.97491,0.0592 -1.44307,0.17749 -0.46817,0.11833 -0.91833,0.29582 -1.35048,0.53247 l 0,-1.31189 c 0.51961,-0.20063 1.02379,-0.34983 1.51253,-0.44758 0.48874,-0.10289 0.96462,-0.15433 1.42765,-0.15434 1.25014,1e-5 2.1839,0.32412 2.80127,0.97234 0.61735,0.64823 0.92603,1.63086 0.92604,2.94789"
       style=""
       id="path3035" />
    <path
       d="m 448.94277,110.56784 1.41993,0 0,12.00764 -1.41993,0 0,-12.00764"
       style=""
       id="path3037" />
    <path
       d="m 453.1794,119.16457 0,-5.23212 1.41993,0 0,5.1781 c -1e-5,0.818 0.15948,1.43279 0.47845,1.84436 0.31897,0.40643 0.79742,0.60964 1.43536,0.60964 0.76655,0 1.37105,-0.24437 1.8135,-0.73311 0.44757,-0.48874 0.67137,-1.15498 0.67137,-1.9987 l 0,-4.90029 1.41993,0 0,8.64303 -1.41993,0 0,-1.32733 c -0.3447,0.52476 -0.74598,0.91576 -1.20385,1.17299 -0.45273,0.25209 -0.98006,0.37813 -1.58198,0.37813 -0.99292,0 -1.74662,-0.30868 -2.26108,-0.92604 -0.51447,-0.61736 -0.7717,-1.52024 -0.7717,-2.70866 m 3.57297,-5.44048 0,0"
       style=""
       id="path3039" />
    <path
       d="m 470.75099,117.89898 0,0.69453 -6.52857,0 c 0.0617,0.97749 0.35498,1.72346 0.87974,2.23793 0.52989,0.50932 1.26558,0.76398 2.20706,0.76398 0.54532,0 1.07265,-0.0669 1.58198,-0.20064 0.51446,-0.13376 1.02378,-0.3344 1.52796,-0.60193 l 0,1.34276 c -0.50933,0.21608 -1.03151,0.3807 -1.56655,0.49389 -0.53505,0.11318 -1.07781,0.16977 -1.62828,0.16977 -1.37878,0 -2.47201,-0.40128 -3.27972,-1.20385 -0.80257,-0.80257 -1.20386,-1.88809 -1.20385,-3.25657 -1e-5,-1.41478 0.3807,-2.53631 1.14211,-3.36461 0.76655,-0.83343 1.79806,-1.25014 3.09451,-1.25015 1.16269,1e-5 2.08101,0.37557 2.75497,1.12668 0.67909,0.74598 1.01863,1.76205 1.01864,3.04821 m -1.41992,-0.41672 c -0.0103,-0.77684 -0.22895,-1.39677 -0.65595,-1.85979 -0.42187,-0.46301 -0.98263,-0.69452 -1.6823,-0.69453 -0.79228,10e-6 -1.42765,0.2238 -1.9061,0.67138 -0.47331,0.44759 -0.74598,1.07781 -0.818,1.89066 l 5.06235,-0.008"
       style=""
       id="path3041" />
  </g>
  <g
     id="g14"
     transform="translate(0,-2.8995215)">
    <path
       style="fill:#ffffff"
       d="m 340,180 100,0 0,40 -100,0 z"
       id="rect16" />
    <path
       style="fill:none;stroke:#000000;stroke-width:2"
       d="m 340,180 100,0 0,40 -100,0 z"
       id="rect18" />
  </g>
  <g
     style="font-size:15.80440044px;font-style:normal;font-weight:normal;text-anchor:middle;fill:#000000;font-family:sans-serif"
     id="text20">
    <path
       d="m 368.37699,198.15365 c -10e-6,-1.02893 -0.21351,-1.82635 -0.64051,-2.39227 -0.42187,-0.5659 -1.01608,-0.84886 -1.78263,-0.84887 -0.76141,1e-5 -1.35562,0.28297 -1.78262,0.84887 -0.42187,0.56592 -0.6328,1.36334 -0.6328,2.39227 0,1.02379 0.21093,1.81864 0.6328,2.38455 0.427,0.56591 1.02121,0.84887 1.78262,0.84887 0.76655,0 1.36076,-0.28296 1.78263,-0.84887 0.427,-0.56591 0.6405,-1.36076 0.64051,-2.38455 m 1.41992,3.34917 c 0,1.47138 -0.32669,2.56462 -0.98005,3.27973 -0.65338,0.72024 -1.65402,1.08037 -3.00191,1.08037 -0.49904,0 -0.96978,-0.0386 -1.41221,-0.11575 -0.44245,-0.072 -0.87203,-0.18521 -1.28874,-0.33955 l 0,-1.38134 c 0.41671,0.22636 0.82829,0.39356 1.23472,0.5016 0.40642,0.10804 0.82057,0.16206 1.24243,0.16206 0.93118,0 1.62828,-0.24437 2.09131,-0.73311 0.46301,-0.4836 0.69452,-1.21672 0.69453,-2.19935 l 0,-0.70224 c -0.29326,0.50932 -0.66882,0.89002 -1.12668,1.14211 -0.45788,0.25209 -1.00579,0.37814 -1.64372,0.37814 -1.05981,0 -1.91382,-0.40386 -2.56204,-1.21157 -0.64823,-0.80771 -0.97235,-1.8778 -0.97235,-3.21027 0,-1.33761 0.32412,-2.41027 0.97235,-3.21799 0.64822,-0.8077 1.50223,-1.21156 2.56204,-1.21157 0.63793,1e-5 1.18584,0.12606 1.64372,0.37814 0.45786,0.25209 0.83342,0.6328 1.12668,1.14211 l 0,-1.31189 1.41992,0 0,7.57037"
       style=""
       id="path3046" />
    <path
       d="m 372.72165,190.56785 1.41993,0 0,12.00764 -1.41993,0 0,-12.00764"
       style=""
       id="path3048" />
    <path
       d="m 376.08626,193.93245 1.50482,0 2.70094,7.25398 2.70095,-7.25398 1.50481,0 -3.24113,8.64304 -1.92925,0 -3.24114,-8.64304"
       style=""
       id="path3050" />
    <path
       d="m 390.38585,198.23082 c -1.14726,0 -1.94211,0.13119 -2.38455,0.39357 -0.44244,0.26238 -0.66366,0.70996 -0.66366,1.34275 0,0.50418 0.16462,0.90546 0.49389,1.20385 0.3344,0.29325 0.78713,0.43987 1.35819,0.43987 0.78712,0 1.41735,-0.27781 1.89066,-0.83343 0.47845,-0.56077 0.71767,-1.30417 0.71768,-2.23021 l 0,-0.3164 -1.41221,0 m 2.83214,-0.58649 0,4.93116 -1.41993,0 0,-1.31189 c -0.32412,0.52475 -0.72798,0.91317 -1.21157,1.16526 -0.4836,0.24695 -1.07524,0.37042 -1.77491,0.37042 -0.88488,0 -1.5897,-0.24695 -2.11445,-0.74083 -0.51961,-0.49903 -0.77942,-1.16527 -0.77942,-1.9987 0,-0.97234 0.32411,-1.70546 0.97234,-2.19935 0.65337,-0.49388 1.62571,-0.74082 2.91703,-0.74083 l 1.99098,0 0,-0.1389 c -1e-5,-0.65337 -0.21608,-1.15755 -0.64823,-1.51253 -0.42701,-0.36012 -1.02893,-0.54019 -1.80577,-0.54019 -0.4939,0 -0.97492,0.0592 -1.44308,0.17749 -0.46817,0.11833 -0.91833,0.29582 -1.35047,0.53247 l 0,-1.31189 c 0.5196,-0.20063 1.02378,-0.34983 1.51253,-0.44759 0.48873,-0.10288 0.96462,-0.15433 1.42764,-0.15434 1.25015,1e-5 2.1839,0.32413 2.80127,0.97235 0.61735,0.64823 0.92603,1.63086 0.92604,2.94789"
       style=""
       id="path3052" />
    <path
       d="m 396.15044,190.56785 1.41993,0 0,12.00764 -1.41993,0 0,-12.00764"
       style=""
       id="path3054" />
    <path
       d="m 400.38707,199.16457 0,-5.23212 1.41993,0 0,5.17811 c 0,0.818 0.15948,1.43279 0.47845,1.84436 0.31897,0.40643 0.79742,0.60964 1.43536,0.60964 0.76655,0 1.37105,-0.24437 1.8135,-0.73312 0.44758,-0.48874 0.67137,-1.15497 0.67137,-1.9987 l 0,-4.90029 1.41993,0 0,8.64304 -1.41993,0 0,-1.32733 c -0.34469,0.52476 -0.74598,0.91575 -1.20385,1.17299 -0.45273,0.25208 -0.98006,0.37813 -1.58198,0.37813 -0.99292,0 -1.74661,-0.30868 -2.26108,-0.92604 -0.51447,-0.61736 -0.7717,-1.52025 -0.7717,-2.70867 m 3.57297,-5.44048 0,0"
       style=""
       id="path3056" />
    <path
       d="m 417.95866,197.89899 0,0.69453 -6.52857,0 c 0.0617,0.97749 0.35498,1.72346 0.87973,2.23792 0.5299,0.50933 1.26559,0.76399 2.20706,0.76399 0.54533,0 1.07266,-0.0669 1.58199,-0.20064 0.51446,-0.13376 1.02378,-0.33441 1.52796,-0.60193 l 0,1.34276 c -0.50933,0.21607 -1.03151,0.3807 -1.56655,0.49388 -0.53505,0.11319 -1.07781,0.16978 -1.62828,0.16978 -1.37878,0 -2.47202,-0.40129 -3.27972,-1.20385 -0.80257,-0.80257 -1.20386,-1.88809 -1.20385,-3.25657 -10e-6,-1.41478 0.3807,-2.53631 1.14211,-3.36461 0.76655,-0.83343 1.79806,-1.25015 3.09451,-1.25016 1.16269,1e-5 2.08101,0.37557 2.75497,1.12669 0.67909,0.74598 1.01863,1.76205 1.01864,3.04821 m -1.41992,-0.41672 c -0.0103,-0.77684 -0.22895,-1.39677 -0.65595,-1.85979 -0.42187,-0.46302 -0.98263,-0.69453 -1.6823,-0.69453 -0.79228,0 -1.42765,0.2238 -1.9061,0.67137 -0.47331,0.4476 -0.74598,1.07782 -0.818,1.89067 l 5.06235,-0.008"
       style=""
       id="path3058" />
  </g>
  <g
     id="g24"
     transform="translate(0,-2.8995215)">
    <path
       style="fill:#ffffff"
       d="m 460,180 100,0 0,40 -100,0 z"
       id="rect26" />
    <path
       style="fill:none;stroke:#000000;stroke-width:2"
       d="m 460,180 100,0 0,40 -100,0 z"
       id="rect28" />
  </g>
  <g
     style="font-size:15.80440044px;font-style:normal;font-weight:normal;text-anchor:middle;fill:#000000;font-family:sans-serif"
     id="text30">
    <path
       d="m 491.64899,195.25978 c -0.15949,-0.0926 -0.33441,-0.15948 -0.52475,-0.20065 -0.18522,-0.0463 -0.391,-0.0694 -0.61736,-0.0695 -0.80257,1e-5 -1.41993,0.26239 -1.85208,0.78713 -0.42701,0.51962 -0.64051,1.26817 -0.64051,2.24565 l 0,4.55303 -1.42764,0 0,-8.64304 1.42764,0 0,1.34276 c 0.29839,-0.52475 0.68681,-0.91317 1.16526,-1.16527 0.47845,-0.25722 1.0598,-0.38584 1.74404,-0.38585 0.0978,1e-5 0.20579,0.008 0.32412,0.0232 0.11832,0.0103 0.24951,0.0283 0.39357,0.054 l 0.008,1.45852"
       style=""
       id="path3063" />
    <path
       d="m 492.13516,193.93245 1.50482,0 2.70094,7.25398 2.70095,-7.25398 1.50481,0 -3.24113,8.64304 -1.92925,0 -3.24114,-8.64304"
       style=""
       id="path3065" />
    <path
       d="m 506.43475,198.23082 c -1.14726,0 -1.94211,0.13119 -2.38455,0.39357 -0.44244,0.26238 -0.66366,0.70996 -0.66366,1.34275 0,0.50418 0.16462,0.90546 0.49389,1.20385 0.33439,0.29325 0.78712,0.43987 1.35819,0.43987 0.78712,0 1.41734,-0.27781 1.89066,-0.83343 0.47845,-0.56077 0.71767,-1.30417 0.71768,-2.23021 l 0,-0.3164 -1.41221,0 m 2.83214,-0.58649 0,4.93116 -1.41993,0 0,-1.31189 c -0.32412,0.52475 -0.72798,0.91317 -1.21157,1.16526 -0.4836,0.24695 -1.07524,0.37042 -1.77491,0.37042 -0.88488,0 -1.5897,-0.24695 -2.11445,-0.74083 -0.51961,-0.49903 -0.77942,-1.16527 -0.77942,-1.9987 0,-0.97234 0.32411,-1.70546 0.97234,-2.19935 0.65337,-0.49388 1.62571,-0.74082 2.91703,-0.74083 l 1.99098,0 0,-0.1389 c -1e-5,-0.65337 -0.21608,-1.15755 -0.64823,-1.51253 -0.42701,-0.36012 -1.02894,-0.54019 -1.80577,-0.54019 -0.4939,0 -0.97492,0.0592 -1.44308,0.17749 -0.46817,0.11833 -0.91833,0.29582 -1.35048,0.53247 l 0,-1.31189 c 0.51961,-0.20063 1.02379,-0.34983 1.51253,-0.44759 0.48874,-0.10288 0.96462,-0.15433 1.42765,-0.15434 1.25015,1e-5 2.1839,0.32413 2.80127,0.97235 0.61735,0.64823 0.92603,1.63086 0.92604,2.94789"
       style=""
       id="path3067" />
    <path
       d="m 512.19934,190.56785 1.41993,0 0,12.00764 -1.41993,0 0,-12.00764"
       style=""
       id="path3069" />
    <path
       d="m 516.43597,199.16457 0,-5.23212 1.41993,0 0,5.17811 c 0,0.818 0.15948,1.43279 0.47845,1.84436 0.31897,0.40643 0.79742,0.60964 1.43536,0.60964 0.76655,0 1.37105,-0.24437 1.8135,-0.73312 0.44757,-0.48874 0.67137,-1.15497 0.67137,-1.9987 l 0,-4.90029 1.41993,0 0,8.64304 -1.41993,0 0,-1.32733 c -0.34469,0.52476 -0.74598,0.91575 -1.20385,1.17299 -0.45273,0.25208 -0.98006,0.37813 -1.58198,0.37813 -0.99292,0 -1.74662,-0.30868 -2.26108,-0.92604 -0.51447,-0.61736 -0.7717,-1.52025 -0.7717,-2.70867 m 3.57297,-5.44048 0,0"
       style=""
       id="path3071" />
    <path
       d="m 534.00756,197.89899 0,0.69453 -6.52857,0 c 0.0617,0.97749 0.35498,1.72346 0.87974,2.23792 0.52989,0.50933 1.26558,0.76399 2.20706,0.76399 0.54532,0 1.07265,-0.0669 1.58198,-0.20064 0.51446,-0.13376 1.02378,-0.33441 1.52796,-0.60193 l 0,1.34276 c -0.50933,0.21607 -1.03151,0.3807 -1.56655,0.49388 -0.53505,0.11319 -1.07781,0.16978 -1.62828,0.16978 -1.37877,0 -2.47201,-0.40129 -3.27972,-1.20385 -0.80257,-0.80257 -1.20385,-1.88809 -1.20385,-3.25657 0,-1.41478 0.3807,-2.53631 1.14211,-3.36461 0.76655,-0.83343 1.79806,-1.25015 3.09452,-1.25016 1.16268,1e-5 2.081,0.37557 2.75496,1.12669 0.67909,0.74598 1.01864,1.76205 1.01864,3.04821 m -1.41992,-0.41672 c -0.0103,-0.77684 -0.22895,-1.39677 -0.65595,-1.85979 -0.42186,-0.46302 -0.98263,-0.69453 -1.6823,-0.69453 -0.79228,0 -1.42765,0.2238 -1.9061,0.67137 -0.47331,0.4476 -0.74598,1.07782 -0.818,1.89067 l 5.06235,-0.008"
       style=""
       id="path3073" />
  </g>
  <g
     id="g34"
     transform="translate(0,-2.8995215)">
    <path
       style="fill:#ffffff"
       d="m 400,260 100,0 0,40 -100,0 z"
       id="rect36" />
    <path
       style="fill:none;stroke:#000000;stroke-width:2"
       d="m 400,260 100,0 0,40 -100,0 z"
       id="rect38" />
  </g>
  <g
     style="font-size:15.80440044px;font-style:normal;font-weight:normal;text-anchor:middle;fill:#000000;font-family:sans-serif"
     id="text40">
    <path
       d="m 432.40526,273.93247 -3.12538,4.20576 3.28743,4.43727 -1.67458,0 -2.51574,-3.39548 -2.51574,3.39548 -1.67459,0 3.35689,-4.52216 -3.07136,-4.12087 1.67459,0 2.29194,3.07908 2.29195,-3.07908 1.67459,0"
       style=""
       id="path3078" />
    <path
       d="m 433.55509,273.93247 1.50481,0 2.70095,7.25397 2.70095,-7.25397 1.50481,0 -3.24114,8.64303 -1.92924,0 -3.24114,-8.64303"
       style=""
       id="path3080" />
    <path
       d="m 447.85468,278.23083 c -1.14727,10e-6 -1.94212,0.1312 -2.38455,0.39357 -0.44245,0.26238 -0.66367,0.70997 -0.66367,1.34276 0,0.50418 0.16463,0.90546 0.49389,1.20385 0.3344,0.29324 0.78713,0.43987 1.35819,0.43987 0.78713,0 1.41735,-0.27781 1.89067,-0.83344 0.47844,-0.56076 0.71767,-1.30417 0.71768,-2.23021 l 0,-0.3164 -1.41221,0 m 2.83213,-0.58649 0,4.93116 -1.41992,0 0,-1.31189 c -0.32412,0.52476 -0.72798,0.91318 -1.21157,1.16527 -0.48361,0.24694 -1.07524,0.37041 -1.77491,0.37041 -0.88488,0 -1.5897,-0.24694 -2.11446,-0.74083 -0.51961,-0.49903 -0.77941,-1.16526 -0.77941,-1.9987 0,-0.97234 0.32411,-1.70545 0.97234,-2.19934 0.65337,-0.49388 1.62571,-0.74083 2.91702,-0.74083 l 1.99099,0 0,-0.13891 c -10e-6,-0.65336 -0.21609,-1.15754 -0.64823,-1.51253 -0.42701,-0.36012 -1.02894,-0.54018 -1.80578,-0.54019 -0.49389,1e-5 -0.97491,0.0592 -1.44308,0.17749 -0.46816,0.11834 -0.91832,0.29583 -1.35047,0.53247 l 0,-1.31188 c 0.51961,-0.20064 1.02379,-0.34983 1.51253,-0.44759 0.48874,-0.10288 0.96462,-0.15433 1.42765,-0.15434 1.25014,1e-5 2.1839,0.32412 2.80126,0.97234 0.61735,0.64824 0.92603,1.63087 0.92604,2.94789"
       style=""
       id="path3082" />
    <path
       d="m 453.61927,270.56786 1.41993,0 0,12.00764 -1.41993,0 0,-12.00764"
       style=""
       id="path3084" />
    <path
       d="m 457.8559,279.16459 0,-5.23212 1.41993,0 0,5.1781 c -10e-6,0.818 0.15948,1.43279 0.47845,1.84436 0.31896,0.40643 0.79742,0.60965 1.43536,0.60964 0.76655,10e-6 1.37105,-0.24437 1.81349,-0.73311 0.44758,-0.48874 0.67137,-1.15497 0.67138,-1.9987 l 0,-4.90029 1.41993,0 0,8.64303 -1.41993,0 0,-1.32732 c -0.3447,0.52475 -0.74598,0.91575 -1.20385,1.17298 -0.45274,0.25209 -0.98006,0.37813 -1.58198,0.37813 -0.99293,0 -1.74662,-0.30868 -2.26108,-0.92604 -0.51447,-0.61735 -0.7717,-1.52024 -0.7717,-2.70866 m 3.57297,-5.44048 0,0"
       style=""
       id="path3086" />
    <path
       d="m 475.42749,277.899 0,0.69453 -6.52858,0 c 0.0617,0.97749 0.35498,1.72347 0.87974,2.23793 0.5299,0.50932 1.26558,0.76398 2.20706,0.76398 0.54533,0 1.07266,-0.0669 1.58198,-0.20064 0.51446,-0.13376 1.02378,-0.3344 1.52797,-0.60192 l 0,1.34275 c -0.50933,0.21608 -1.03151,0.38071 -1.56655,0.49389 -0.53505,0.11318 -1.07781,0.16977 -1.62829,0.16977 -1.37877,0 -2.47201,-0.40128 -3.27972,-1.20385 -0.80257,-0.80256 -1.20385,-1.88809 -1.20385,-3.25657 0,-1.41477 0.3807,-2.53631 1.14212,-3.36461 0.76655,-0.83342 1.79805,-1.25014 3.09451,-1.25015 1.16269,1e-5 2.08101,0.37557 2.75497,1.12668 0.67908,0.74598 1.01863,1.76205 1.01864,3.04821 m -1.41993,-0.41671 c -0.0103,-0.77684 -0.22894,-1.39677 -0.65594,-1.8598 -0.42187,-0.46301 -0.98264,-0.69452 -1.68231,-0.69453 -0.79228,1e-5 -1.42764,0.2238 -1.90609,0.67138 -0.47331,0.44759 -0.74598,1.07781 -0.818,1.89066 l 5.06234,-0.008"
       style=""
       id="path3088" />
  </g>
  <g
     id="g44"
     transform="translate(0,-2.8995215)">
    <path
       style="fill:#ffffff"
       d="m 280,260 100,0 0,40 -100,0 z"
       id="rect46" />
    <path
       style="fill:none;stroke:#000000;stroke-width:2"
       d="m 280,260 100,0 0,40 -100,0 z"
       id="rect48" />
  </g>
  <g
     style="font-size:15.80440044px;font-style:normal;font-weight:normal;text-anchor:middle;fill:#000000;font-family:sans-serif"
     id="text50">
    <path
       d="m 307.70561,270.56786 1.41993,0 0,12.00764 -1.41993,0 0,-12.00764"
       style=""
       id="path3093" />
    <path
       d="m 311.07022,273.93247 1.50481,0 2.70095,7.25397 2.70095,-7.25397 1.50481,0 -3.24114,8.64303 -1.92925,0 -3.24113,-8.64303"
       style=""
       id="path3095" />
    <path
       d="m 325.3698,278.23083 c -1.14726,10e-6 -1.94211,0.1312 -2.38455,0.39357 -0.44244,0.26238 -0.66366,0.70997 -0.66366,1.34276 0,0.50418 0.16463,0.90546 0.49389,1.20385 0.3344,0.29324 0.78713,0.43987 1.35819,0.43987 0.78713,0 1.41735,-0.27781 1.89066,-0.83344 0.47845,-0.56076 0.71768,-1.30417 0.71768,-2.23021 l 0,-0.3164 -1.41221,0 m 2.83214,-0.58649 0,4.93116 -1.41993,0 0,-1.31189 c -0.32412,0.52476 -0.72797,0.91318 -1.21156,1.16527 -0.48361,0.24694 -1.07524,0.37041 -1.77491,0.37041 -0.88489,0 -1.5897,-0.24694 -2.11446,-0.74083 -0.51961,-0.49903 -0.77942,-1.16526 -0.77941,-1.9987 -1e-5,-0.97234 0.32411,-1.70545 0.97234,-2.19934 0.65337,-0.49388 1.62571,-0.74083 2.91702,-0.74083 l 1.99098,0 0,-0.13891 c 0,-0.65336 -0.21608,-1.15754 -0.64822,-1.51253 -0.42702,-0.36012 -1.02894,-0.54018 -1.80578,-0.54019 -0.49389,1e-5 -0.97492,0.0592 -1.44308,0.17749 -0.46816,0.11834 -0.91832,0.29583 -1.35047,0.53247 l 0,-1.31188 c 0.51961,-0.20064 1.02378,-0.34983 1.51253,-0.44759 0.48874,-0.10288 0.96462,-0.15433 1.42764,-0.15434 1.25015,1e-5 2.18391,0.32412 2.80127,0.97234 0.61735,0.64824 0.92603,1.63087 0.92604,2.94789"
       style=""
       id="path3097" />
    <path
       d="m 331.1344,270.56786 1.41992,0 0,12.00764 -1.41992,0 0,-12.00764"
       style=""
       id="path3099" />
    <path
       d="m 335.37103,279.16459 0,-5.23212 1.41992,0 0,5.1781 c 0,0.818 0.15948,1.43279 0.47846,1.84436 0.31896,0.40643 0.79742,0.60965 1.43536,0.60964 0.76655,10e-6 1.37104,-0.24437 1.81349,-0.73311 0.44758,-0.48874 0.67137,-1.15497 0.67138,-1.9987 l 0,-4.90029 1.41993,0 0,8.64303 -1.41993,0 0,-1.32732 c -0.3447,0.52475 -0.74598,0.91575 -1.20385,1.17298 -0.45274,0.25209 -0.98007,0.37813 -1.58199,0.37813 -0.99292,0 -1.74661,-0.30868 -2.26107,-0.92604 -0.51447,-0.61735 -0.7717,-1.52024 -0.7717,-2.70866 m 3.57296,-5.44048 0,0"
       style=""
       id="path3101" />
    <path
       d="m 352.94262,277.899 0,0.69453 -6.52858,0 c 0.0617,0.97749 0.35498,1.72347 0.87974,2.23793 0.5299,0.50932 1.26558,0.76398 2.20706,0.76398 0.54533,0 1.07266,-0.0669 1.58198,-0.20064 0.51446,-0.13376 1.02378,-0.3344 1.52797,-0.60192 l 0,1.34275 c -0.50933,0.21608 -1.03151,0.38071 -1.56655,0.49389 -0.53505,0.11318 -1.07781,0.16977 -1.62829,0.16977 -1.37877,0 -2.47201,-0.40128 -3.27972,-1.20385 -0.80257,-0.80256 -1.20385,-1.88809 -1.20385,-3.25657 0,-1.41477 0.3807,-2.53631 1.14212,-3.36461 0.76655,-0.83342 1.79805,-1.25014 3.09451,-1.25015 1.16269,1e-5 2.08101,0.37557 2.75497,1.12668 0.67908,0.74598 1.01863,1.76205 1.01864,3.04821 m -1.41993,-0.41671 c -0.0103,-0.77684 -0.22894,-1.39677 -0.65594,-1.8598 -0.42187,-0.46301 -0.98264,-0.69452 -1.68231,-0.69453 -0.79228,1e-5 -1.42764,0.2238 -1.90609,0.67138 -0.47331,0.44759 -0.74598,1.07781 -0.818,1.89066 l 5.06234,-0.008"
       style=""
       id="path3103" />
  </g>
  <g
     id="g54"
     transform="translate(0,-2.8995215)">
    <path
       style="fill:#ffffff"
       d="m 520,260 100,0 0,40 -100,0 z"
       id="rect56" />
    <path
       style="fill:none;stroke:#000000;stroke-width:2"
       d="m 520,260 100,0 0,40 -100,0 z"
       id="rect58" />
  </g>
  <g
     style="font-size:15.80440044px;font-style:normal;font-weight:normal;text-anchor:middle;fill:#000000;font-family:sans-serif"
     id="text60">
    <path
       d="m 542.99824,281.27905 0,4.58389 -1.42764,0 0,-11.93047 1.42764,0 0,1.31189 c 0.29839,-0.51446 0.67395,-0.89517 1.12668,-1.14212 0.45787,-0.25208 1.00321,-0.37812 1.63601,-0.37813 1.0495,1e-5 1.90094,0.41673 2.55432,1.25015 0.65851,0.83344 0.98777,1.92926 0.98778,3.28744 -1e-5,1.3582 -0.32927,2.45401 -0.98778,3.28744 -0.65338,0.83344 -1.50482,1.25015 -2.55432,1.25015 -0.6328,0 -1.17814,-0.12347 -1.63601,-0.37041 -0.45273,-0.25209 -0.82829,-0.63537 -1.12668,-1.14983 m 4.83084,-3.01735 c -10e-6,-1.04436 -0.21608,-1.86236 -0.64823,-2.454 -0.42701,-0.59678 -1.01607,-0.89517 -1.76719,-0.89517 -0.75112,0 -1.34276,0.29839 -1.77491,0.89517 -0.42701,0.59164 -0.64051,1.40964 -0.64051,2.454 0,1.04437 0.2135,1.86494 0.64051,2.46172 0.43215,0.59164 1.02379,0.88746 1.77491,0.88746 0.75112,0 1.34018,-0.29582 1.76719,-0.88746 0.43215,-0.59678 0.64822,-1.41735 0.64823,-2.46172"
       style=""
       id="path3108" />
    <path
       d="m 556.66504,275.25979 c -0.15949,-0.0926 -0.33441,-0.15948 -0.52476,-0.20064 -0.18521,-0.0463 -0.391,-0.0694 -0.61736,-0.0694 -0.80257,0 -1.41993,0.26238 -1.85208,0.78713 -0.42701,0.51962 -0.64051,1.26816 -0.64051,2.24564 l 0,4.55303 -1.42764,0 0,-8.64303 1.42764,0 0,1.34276 c 0.29839,-0.52475 0.68681,-0.91317 1.16527,-1.16527 0.47845,-0.25722 1.05979,-0.38584 1.74404,-0.38585 0.0977,1e-5 0.20578,0.008 0.32411,0.0231 0.11832,0.0103 0.24951,0.0283 0.39357,0.054 l 0.008,1.45851"
       style=""
       id="path3110" />
    <path
       d="m 557.15121,273.93247 1.50481,0 2.70095,7.25397 2.70094,-7.25397 1.50482,0 -3.24114,8.64303 -1.92925,0 -3.24113,-8.64303"
       style=""
       id="path3112" />
    <path
       d="m 571.4508,278.23083 c -1.14727,10e-6 -1.94212,0.1312 -2.38455,0.39357 -0.44245,0.26238 -0.66367,0.70997 -0.66367,1.34276 0,0.50418 0.16463,0.90546 0.49389,1.20385 0.3344,0.29324 0.78713,0.43987 1.35819,0.43987 0.78713,0 1.41735,-0.27781 1.89067,-0.83344 0.47844,-0.56076 0.71767,-1.30417 0.71768,-2.23021 l 0,-0.3164 -1.41221,0 m 2.83213,-0.58649 0,4.93116 -1.41992,0 0,-1.31189 c -0.32412,0.52476 -0.72798,0.91318 -1.21157,1.16527 -0.48361,0.24694 -1.07524,0.37041 -1.77491,0.37041 -0.88489,0 -1.5897,-0.24694 -2.11446,-0.74083 -0.51961,-0.49903 -0.77941,-1.16526 -0.77941,-1.9987 0,-0.97234 0.32411,-1.70545 0.97234,-2.19934 0.65337,-0.49388 1.62571,-0.74083 2.91702,-0.74083 l 1.99099,0 0,-0.13891 c -10e-6,-0.65336 -0.21609,-1.15754 -0.64823,-1.51253 -0.42701,-0.36012 -1.02894,-0.54018 -1.80578,-0.54019 -0.49389,1e-5 -0.97491,0.0592 -1.44308,0.17749 -0.46816,0.11834 -0.91832,0.29583 -1.35047,0.53247 l 0,-1.31188 c 0.51961,-0.20064 1.02379,-0.34983 1.51253,-0.44759 0.48874,-0.10288 0.96462,-0.15433 1.42764,-0.15434 1.25015,1e-5 2.18391,0.32412 2.80127,0.97234 0.61735,0.64824 0.92603,1.63087 0.92604,2.94789"
       style=""
       id="path3114" />
    <path
       d="m 577.21539,270.56786 1.41992,0 0,12.00764 -1.41992,0 0,-12.00764"
       style=""
       id="path3116" />
    <path
       d="m 581.45202,279.16459 0,-5.23212 1.41992,0 0,5.1781 c 0,0.818 0.15949,1.43279 0.47846,1.84436 0.31896,0.40643 0.79742,0.60965 1.43536,0.60964 0.76655,10e-6 1.37104,-0.24437 1.81349,-0.73311 0.44758,-0.48874 0.67137,-1.15497 0.67138,-1.9987 l 0,-4.90029 1.41993,0 0,8.64303 -1.41993,0 0,-1.32732 c -0.3447,0.52475 -0.74598,0.91575 -1.20385,1.17298 -0.45274,0.25209 -0.98006,0.37813 -1.58198,0.37813 -0.99293,0 -1.74662,-0.30868 -2.26108,-0.92604 -0.51447,-0.61735 -0.7717,-1.52024 -0.7717,-2.70866 m 3.57297,-5.44048 0,0"
       style=""
       id="path3118" />
    <path
       d="m 599.02361,277.899 0,0.69453 -6.52858,0 c 0.0617,0.97749 0.35498,1.72347 0.87974,2.23793 0.5299,0.50932 1.26558,0.76398 2.20706,0.76398 0.54533,0 1.07266,-0.0669 1.58198,-0.20064 0.51446,-0.13376 1.02378,-0.3344 1.52797,-0.60192 l 0,1.34275 c -0.50933,0.21608 -1.03151,0.38071 -1.56655,0.49389 -0.53505,0.11318 -1.07781,0.16977 -1.62829,0.16977 -1.37877,0 -2.47201,-0.40128 -3.27972,-1.20385 -0.80257,-0.80256 -1.20385,-1.88809 -1.20385,-3.25657 0,-1.41477 0.3807,-2.53631 1.14212,-3.36461 0.76655,-0.83342 1.79805,-1.25014 3.09451,-1.25015 1.16269,1e-5 2.08101,0.37557 2.75497,1.12668 0.67908,0.74598 1.01863,1.76205 1.01864,3.04821 m -1.41993,-0.41671 c -0.0103,-0.77684 -0.22894,-1.39677 -0.65594,-1.8598 -0.42187,-0.46301 -0.98264,-0.69452 -1.68231,-0.69453 -0.79228,1e-5 -1.42764,0.2238 -1.90609,0.67138 -0.47332,0.44759 -0.74598,1.07781 -0.818,1.89066 l 5.06234,-0.008"
       style=""
       id="path3120" />
  </g>
  <g
     id="g64"
     transform="translate(0,-2.8995215)">
    <path
       style="fill:none;stroke:#000000;stroke-width:2"
       d="m 426.92599,150.765 -21.194,28.25799"
       id="line66" />
    <path
       style="fill:none;stroke:#000000;stroke-width:2"
       d="m 432.926,142.765 -10,5 8,6 z"
       id="polygon68" />
  </g>
  <g
     id="g70"
     transform="translate(0,-2.8995215)">
    <path
       style="fill:none;stroke:#000000;stroke-width:2"
       d="m 366.92599,230.765 -21.194,28.25801"
       id="line72" />
    <path
       style="fill:none;stroke:#000000;stroke-width:2"
       d="m 372.926,222.765 -10,5 8,6 z"
       id="polygon74" />
  </g>
  <g
     id="g76"
     transform="translate(0,-2.8995215)">
    <path
       style="fill:none;stroke:#000000;stroke-width:2"
       d="m 413.07401,230.765 21.194,28.25801"
       id="line78" />
    <path
       style="fill:none;stroke:#000000;stroke-width:2"
       d="m 407.074,222.765 2,11 8,-6 z"
       id="polygon80" />
  </g>
  <g
     id="g82"
     transform="translate(0,-2.8995215)">
    <path
       style="fill:none;stroke:#000000;stroke-width:2"
       d="m 486.92599,230.765 -21.194,28.25801"
       id="line84" />
    <path
       style="fill:none;stroke:#000000;stroke-width:2"
       d="m 492.926,222.765 -10,5 8,6 z"
       id="polygon86" />
  </g>
  <g
     id="g88"
     transform="translate(0,-2.8995215)">
    <path
       style="fill:none;stroke:#000000;stroke-width:2"
       d="m 533.07397,230.765 21.19404,28.25801"
       id="line90" />
    <path
       style="fill:none;stroke:#000000;stroke-width:2"
       d="m 527.074,222.765 2,11 8,-6 z"
       id="polygon92" />
  </g>
  <g
     id="g94"
     transform="translate(0,-2.8995215)">
    <path
       style="fill:none;stroke:#000000;stroke-width:2"
       d="m 473.07401,150.765 21.194,28.25799"
       id="line96" />
    <path
       style="fill:none;stroke:#000000;stroke-width:2"
       d="m 467.074,142.765 2,11 8,-6 z"
       id="polygon98" />
  </g>
</svg>
