<?xml version="1.0" encoding="UTF-8"?>
<svg id="svg265" width="45.916cm" height="20.526cm" version="1.1" viewBox="238 73 905.35 398.79" xmlns="http://www.w3.org/2000/svg" xmlns:cc="http://creativecommons.org/ns#" xmlns:dc="http://purl.org/dc/elements/1.1/" xmlns:rdf="http://www.w3.org/1999/02/22-rdf-syntax-ns#">
 <metadata id="metadata269">
  <rdf:RDF>
   <cc:Work rdf:about="">
    <dc:format>image/svg+xml</dc:format>
    <dc:type rdf:resource="http://purl.org/dc/dcmitype/StillImage"/>
   </cc:Work>
  </rdf:RDF>
 </metadata>
 <g id="Háttér" transform="translate(-1 -6.2411)">
  <path id="rect4" d="m240 100h400v380h-400z" fill="#bfbfbf" stroke="#000" stroke-width="2"/>
  <path id="rect6" d="m280 160h40v40h-40z" fill="#ddd" stroke="#000" stroke-width="2"/>
  <g id="text10" aria-label="1">
   <path id="path140" d="m296.49 184.75h2.9104v-10.045l-3.1662 0.635v-1.6228l3.1485-0.63499h1.7815v11.668h2.9104v1.4993h-7.5847z" style=""/>
  </g>
  <path id="rect12" d="m320 160h40v40h-40z" fill="#ddd" stroke="#000" stroke-width="2"/>
  <g id="text16" aria-label="2">
   <path id="path144" d="m337.72 184.75h6.2177v1.4993h-8.3608v-1.4993q1.0142-1.0495 2.7605-2.8134 1.7551-1.7727 2.2049-2.2842 0.85548-0.96131 1.1906-1.6228 0.34396-0.67028 0.34396-1.3141 0-1.0495-0.74084-1.711-0.73201-0.66146-1.9138-0.66146-0.83785 0-1.7727 0.29105-0.92604 0.29104-1.9844 0.88194v-1.7992q1.076-0.43215 2.0108-0.65263 0.93486-0.22049 1.711-0.22049 2.0461 0 3.2632 1.023 1.2171 1.0231 1.2171 2.734 0 0.81139-0.30868 1.5434-0.29986 0.72319-1.1024 1.711-0.22048 0.25576-1.4023 1.4817-1.1818 1.2171-3.3337 3.4131z" style=""/>
  </g>
  <path id="rect18" d="m360 160h40v40h-40z" fill="#ddd" stroke="#000" stroke-width="2"/>
  <g id="text22" aria-label="3">
   <path id="path148" d="m381.58 179.15q1.2788 0.2734 1.9932 1.1377 0.72319 0.86431 0.72319 2.1343 0 1.9491-1.3406 3.0162t-3.81 1.0672q-0.82902 0-1.711-0.16757-0.87312-0.15875-1.808-0.48506v-1.7198q0.74083 0.43215 1.6228 0.65263 0.88194 0.22049 1.8433 0.22049 1.6757 0 2.5488-0.66146 0.88195-0.66146 0.88195-1.9226 0-1.1642-0.82021-1.8168-0.81139-0.66146-2.2666-0.66146h-1.5346v-1.464h1.6051q1.3141 0 2.0108-0.52035 0.69674-0.52916 0.69674-1.5169 0-1.0142-0.7232-1.5522-0.71437-0.54681-2.0549-0.54681-0.73202 0-1.5699 0.15875-0.83785 0.15875-1.8433 0.49389v-1.5875q1.0142-0.28222 1.8962-0.42333 0.89077-0.14111 1.6757-0.14111 2.0285 0 3.2103 0.92604 1.1818 0.91722 1.1818 2.4871 0 1.0936-0.62618 1.8521-0.62618 0.74965-1.7815 1.0407z" style=""/>
  </g>
  <path id="rect24" d="m400 160h40v40h-40z" fill="#ddd" stroke="#000" stroke-width="2"/>
  <g id="text28" aria-label="4">
   <path id="path152" d="m421.08 174.63-4.4979 7.0291h4.4979zm-0.46743-1.5522h2.2401v8.5813h1.8785v1.4817h-1.8785v3.1044h-1.7727v-3.1044h-5.9443v-1.7198z" style=""/>
  </g>
  <path id="rect30" d="m440 160h40v40h-40z" fill="#ddd" stroke="#000" stroke-width="2"/>
  <g id="text34" aria-label="5">
   <path id="path156" d="m456.2 173.08h6.9938v1.4993h-5.3622v3.2279q0.38805-0.13229 0.77611-0.19403 0.38805-0.0705 0.77611-0.0705 2.2049 0 3.4925 1.2083 1.2876 1.2083 1.2876 3.272 0 2.1255-1.3229 3.3073-1.3229 1.173-3.7306 1.173-0.82903 0-1.6933-0.14111-0.85549-0.14111-1.7727-0.42333v-1.7904q0.79375 0.43216 1.6404 0.64382 0.84667 0.21167 1.7904 0.21167 1.5258 0 2.4165-0.80257 0.89077-0.80257 0.89077-2.1784t-0.89077-2.1784q-0.89076-0.80257-2.4165-0.80257-0.71437 0-1.4288 0.15875-0.70555 0.15875-1.4464 0.49389z" style=""/>
  </g>
  <path id="rect36" d="m520 160h40v40h-40z" fill="#ddd" stroke="#000" stroke-width="2"/>
  <g id="text42" aria-label="Containervalues_[0]">
   <path id="path160" d="m291.63 117.85v1.8785q-0.89958-0.83785-1.9226-1.2524-1.0142-0.41451-2.1608-0.41451-2.2578 0-3.4572 1.3846-1.1994 1.3758-1.1994 3.9864 0 2.6017 1.1994 3.9864 1.1994 1.3758 3.4572 1.3758 1.1465 0 2.1608-0.41452 1.023-0.41451 1.9226-1.2524v1.8609q-0.93486 0.63499-1.9844 0.95249-1.0407 0.3175-2.2049 0.3175-2.9898 0-4.7096-1.8256-1.7198-1.8344-1.7198-5.0006 0-3.175 1.7198-5.0006 1.7198-1.8344 4.7096-1.8344 1.1818 0 2.2225 0.3175 1.0495 0.30868 1.9667 0.93486z" style=""/>
   <path id="path162" d="m298.16 121.26q-1.3053 0-2.0637 1.0231-0.75847 1.0142-0.75847 2.7869 0 1.7727 0.74965 2.7958 0.75847 1.0142 2.0726 1.0142 1.2965 0 2.0549-1.023 0.75847-1.0231 0.75847-2.7869 0-1.7551-0.75847-2.7781-0.75847-1.0319-2.0549-1.0319zm0-1.3758q2.1167 0 3.3249 1.3758t1.2083 3.81q0 2.4253-1.2083 3.81-1.2083 1.3758-3.3249 1.3758-2.1255 0-3.3337-1.3758-1.1994-1.3846-1.1994-3.81 0-2.4342 1.1994-3.81 1.2083-1.3758 3.3337-1.3758z" style=""/>
   <path id="path164" d="m313.58 124.04v5.9619h-1.6228v-5.909q0-1.4023-0.54681-2.099-0.5468-0.69673-1.6404-0.69673-1.3141 0-2.0726 0.83784-0.75847 0.83785-0.75847 2.2842v5.5827h-1.6316v-9.8778h1.6316v1.5346q0.58208-0.89077 1.367-1.3317 0.79375-0.44097 1.8256-0.44097 1.7022 0 2.5753 1.0583 0.87312 1.0495 0.87312 3.0956z" style=""/>
   <path id="path166" d="m318.44 117.32v2.8046h3.3426v1.2612h-3.3426v5.3622q0 1.2083 0.32632 1.5522 0.33514 0.34396 1.3494 0.34396h1.6669v1.3582h-1.6669q-1.8785 0-2.5929-0.69674-0.71437-0.70555-0.71437-2.5576v-5.3622h-1.1906v-1.2612h1.1906v-2.8046z" style=""/>
   <path id="path168" d="m328.42 125.03q-1.9667 0-2.7252 0.44979-0.75848 0.44979-0.75848 1.5346 0 0.86431 0.56445 1.3758 0.57326 0.50271 1.5522 0.50271 1.3494 0 2.1608-0.9525 0.82021-0.96132 0.82021-2.5488v-0.3616zm3.2367-0.67028v5.6356h-1.6228v-1.4993q-0.55563 0.89958-1.3846 1.3317-0.82903 0.42333-2.0285 0.42333-1.517 0-2.4165-0.84666-0.89076-0.85549-0.89076-2.2842 0-1.6669 1.1112-2.5135 1.1201-0.84667 3.3337-0.84667h2.2754v-0.15875q0-1.1201-0.74084-1.7286-0.73201-0.61736-2.0637-0.61736-0.84667 0-1.6492 0.20285t-1.5434 0.60854v-1.4993q0.89076-0.34396 1.7286-0.51153 0.83785-0.17639 1.6316-0.17639 2.1431 0 3.2014 1.1112t1.0583 3.369z" style=""/>
   <path id="path170" d="m335.01 120.12h1.6228v9.8778h-1.6228zm0-3.8453h1.6228v2.0549h-1.6228z" style=""/>
   <path id="path172" d="m348.23 124.04v5.9619h-1.6228v-5.909q0-1.4023-0.5468-2.099-0.54681-0.69673-1.6404-0.69673-1.3141 0-2.0726 0.83784-0.75848 0.83785-0.75848 2.2842v5.5827h-1.6316v-9.8778h1.6316v1.5346q0.58209-0.89077 1.367-1.3317 0.79375-0.44097 1.8256-0.44097 1.7022 0 2.5753 1.0583 0.87313 1.0495 0.87313 3.0956z" style=""/>
   <path id="path174" d="m359.93 124.66v0.79375h-7.4612q0.10583 1.6757 1.0054 2.5576 0.9084 0.87312 2.5224 0.87312 0.93486 0 1.808-0.2293 0.88195-0.22931 1.7462-0.68792v1.5346q-0.87312 0.37042-1.7903 0.56445-0.91723 0.19402-1.8609 0.19402-2.3636 0-3.7483-1.3758-1.3758-1.3758-1.3758-3.7218 0-2.4253 1.3053-3.8453 1.3141-1.4288 3.5366-1.4288 1.9932 0 3.1485 1.2876 1.1642 1.2788 1.1642 3.4837zm-1.6228-0.47625q-0.0176-1.3317-0.74965-2.1255-0.7232-0.79375-1.9226-0.79375-1.3582 0-2.1784 0.76729-0.81139 0.76729-0.93486 2.1608z" style=""/>
   <path id="path176" d="m368.32 121.64q-0.2734-0.15875-0.59972-0.22931-0.3175-0.0794-0.70556-0.0794-1.3758 0-2.1167 0.89958-0.73201 0.89076-0.73201 2.5664v5.2035h-1.6316v-9.8778h1.6316v1.5346q0.51152-0.89959 1.3317-1.3317 0.82021-0.44097 1.9932-0.44097 0.16757 0 0.37042 0.0265 0.20285 0.0176 0.44979 0.0617z" style=""/>
   <path id="path178" d="m280.54 142.7h1.7198l3.0868 8.2903 3.0868-8.2903h1.7198l-3.7042 9.8778h-2.2049z" style=""/>
   <path id="path180" d="m296.88 147.61q-1.9667 0-2.7252 0.44979t-0.75847 1.5346q0 0.86431 0.56444 1.3758 0.57327 0.5027 1.5522 0.5027 1.3494 0 2.1608-0.9525 0.8202-0.96131 0.8202-2.5488v-0.3616zm3.2367-0.67028v5.6356h-1.6228v-1.4993q-0.55562 0.89958-1.3846 1.3317-0.82903 0.42334-2.0285 0.42334-1.5169 0-2.4165-0.84667-0.89077-0.85548-0.89077-2.2842 0-1.6669 1.1112-2.5135 1.1201-0.84667 3.3338-0.84667h2.2754v-0.15875q0-1.1201-0.74083-1.7286-0.73201-0.61736-2.0638-0.61736-0.84666 0-1.6492 0.20285t-1.5434 0.60854v-1.4993q0.89076-0.34396 1.7286-0.51153 0.83784-0.17639 1.6316-0.17639 2.1431 0 3.2015 1.1112 1.0583 1.1112 1.0583 3.369z" style=""/>
   <path id="path182" d="m303.47 138.85h1.6228v13.723h-1.6228z" style=""/>
   <path id="path184" d="m308.31 148.68v-5.9796h1.6228v5.9178q0 1.4023 0.5468 2.1078 0.54681 0.69674 1.6404 0.69674 1.3141 0 2.0726-0.83785 0.7673-0.83785 0.7673-2.2842v-5.6003h1.6228v9.8778h-1.6228v-1.5169q-0.59091 0.89958-1.3758 1.3406-0.77611 0.43216-1.808 0.43216-1.7022 0-2.5841-1.0583-0.88195-1.0583-0.88195-3.0956zm4.0834-6.2177z" style=""/>
   <path id="path186" d="m328.39 147.23v0.79375h-7.4612q0.10584 1.6757 1.0054 2.5576 0.9084 0.87312 2.5224 0.87312 0.93486 0 1.808-0.2293 0.88194-0.22931 1.7462-0.68792v1.5346q-0.87313 0.37041-1.7904 0.56444t-1.8609 0.19403q-2.3636 0-3.7483-1.3758-1.3758-1.3758-1.3758-3.7218 0-2.4253 1.3053-3.8453 1.3141-1.4288 3.5366-1.4288 1.9932 0 3.1485 1.2876 1.1642 1.2788 1.1642 3.4837zm-1.6228-0.47625q-0.0176-1.3317-0.74965-2.1255-0.7232-0.79375-1.9226-0.79375-1.3582 0-2.1784 0.76729-0.81139 0.7673-0.93486 2.1608z" style=""/>
   <path id="path188" d="m337.35 142.99v1.5346q-0.68792-0.35278-1.4288-0.52917-0.74083-0.17638-1.5346-0.17638-1.2083 0-1.8168 0.37041-0.59972 0.37042-0.59972 1.1112 0 0.56444 0.43215 0.89076 0.43215 0.3175 1.7374 0.60854l0.55562 0.12348q1.7286 0.37041 2.4518 1.0495 0.73202 0.67028 0.73202 1.8785 0 1.3758-1.0936 2.1784-1.0848 0.80257-2.9898 0.80257-0.79375 0-1.6581-0.15875-0.85548-0.14993-1.808-0.45861v-1.6757q0.89958 0.46743 1.7727 0.70556 0.87312 0.2293 1.7286 0.2293 1.1465 0 1.7639-0.38805 0.61736-0.39688 0.61736-1.1112 0-0.66146-0.44979-1.0142-0.44097-0.35278-1.9491-0.6791l-0.56445-0.13229q-1.5081-0.3175-2.1784-0.97014-0.67027-0.66146-0.67027-1.808 0-1.3935 0.98777-2.152 0.98778-0.75847 2.8046-0.75847 0.89959 0 1.6933 0.13229 0.79375 0.1323 1.464 0.39688z" style=""/>
   <path id="path190" d="m347.98 155.58v1.2612h-9.3839v-1.2612z" style=""/>
   <path id="path192" d="m349.36 138.85h3.7394v1.2612h-2.1167v13.582h2.1167v1.2612h-3.7394z" style=""/>
   <path id="path194" d="m360.6 140.58q-1.3758 0-2.0726 1.3582-0.68792 1.3494-0.68792 4.0658 0 2.7076 0.68792 4.0658 0.69673 1.3494 2.0726 1.3494 1.3846 0 2.0726-1.3494 0.69674-1.3582 0.69674-4.0658 0-2.7164-0.69674-4.0658-0.68792-1.3582-2.0726-1.3582zm0-1.4111q2.2137 0 3.3778 1.7551 1.173 1.7462 1.173 5.08 0 3.3249-1.173 5.08-1.1642 1.7462-3.3778 1.7462-2.2137 0-3.3867-1.7462-1.1642-1.7551-1.1642-5.08 0-3.3337 1.1642-5.08 1.173-1.7551 3.3867-1.7551z" style=""/>
   <path id="path196" d="m371.85 138.85v16.104h-3.7394v-1.2612h2.1078v-13.582h-2.1078v-1.2612z" style=""/>
  </g>
  <path id="rect44" d="m280 280h40v40h-40z" fill="#ddd" stroke="#000" stroke-width="2"/>
  <g id="text48" aria-label="1">
   <path id="path200" d="m296.49 304.75h2.9104v-10.045l-3.1662 0.635v-1.6228l3.1485-0.63499h1.7815v11.668h2.9104v1.4993h-7.5847z" style=""/>
  </g>
  <path id="rect50" d="m320 280h40v40h-40z" fill="#ddd" stroke="#000" stroke-width="2"/>
  <g id="text54" aria-label="2">
   <path id="path204" d="m337.72 304.75h6.2177v1.4993h-8.3608v-1.4993q1.0142-1.0495 2.7605-2.8134 1.7551-1.7727 2.2049-2.2842 0.85548-0.96131 1.1906-1.6228 0.34396-0.67028 0.34396-1.3141 0-1.0495-0.74084-1.711-0.73201-0.66146-1.9138-0.66146-0.83785 0-1.7727 0.29105-0.92604 0.29104-1.9844 0.88194v-1.7992q1.076-0.43215 2.0108-0.65263 0.93486-0.22049 1.711-0.22049 2.0461 0 3.2632 1.023 1.2171 1.0231 1.2171 2.734 0 0.81139-0.30868 1.5434-0.29986 0.72319-1.1024 1.711-0.22048 0.25576-1.4023 1.4817-1.1818 1.2171-3.3337 3.4131z" style=""/>
  </g>
  <path id="rect56" d="m360 280h40v40h-40z" fill="#ddd" stroke="#000" stroke-width="2"/>
  <g id="text60" aria-label="3">
   <path id="path208" d="m381.58 299.15q1.2788 0.2734 1.9932 1.1377 0.72319 0.86431 0.72319 2.1343 0 1.9491-1.3406 3.0162t-3.81 1.0672q-0.82902 0-1.711-0.16757-0.87312-0.15875-1.808-0.48506v-1.7198q0.74083 0.43215 1.6228 0.65263 0.88194 0.22049 1.8433 0.22049 1.6757 0 2.5488-0.66146 0.88195-0.66146 0.88195-1.9226 0-1.1642-0.82021-1.8168-0.81139-0.66146-2.2666-0.66146h-1.5346v-1.464h1.6051q1.3141 0 2.0108-0.52035 0.69674-0.52916 0.69674-1.5169 0-1.0142-0.7232-1.5522-0.71437-0.54681-2.0549-0.54681-0.73202 0-1.5699 0.15875-0.83785 0.15875-1.8433 0.49389v-1.5875q1.0142-0.28222 1.8962-0.42333 0.89077-0.14111 1.6757-0.14111 2.0285 0 3.2103 0.92604 1.1818 0.91722 1.1818 2.4871 0 1.0936-0.62618 1.8521-0.62618 0.74965-1.7815 1.0407z" style=""/>
  </g>
  <path id="rect62" d="m400 280h40v40h-40z" fill="#ddd" stroke="#000" stroke-width="2"/>
  <g id="text66" aria-label="4">
   <path id="path212" d="m421.08 294.63-4.4979 7.0291h4.4979zm-0.46743-1.5522h2.2401v8.5813h1.8785v1.4817h-1.8785v3.1044h-1.7727v-3.1044h-5.9443v-1.7198z" style=""/>
  </g>
  <path id="rect68" d="m440 280h40v40h-40z" fill="#ddd" stroke="#000" stroke-width="2"/>
  <g id="text72" aria-label="5">
   <path id="path216" d="m456.2 293.08h6.9938v1.4993h-5.3622v3.2279q0.38805-0.13229 0.77611-0.19403 0.38805-0.0706 0.77611-0.0706 2.2049 0 3.4925 1.2083 1.2876 1.2083 1.2876 3.272 0 2.1255-1.3229 3.3073-1.3229 1.173-3.7306 1.173-0.82903 0-1.6933-0.14111-0.85549-0.14111-1.7727-0.42333v-1.7904q0.79375 0.43216 1.6404 0.64382 0.84667 0.21167 1.7904 0.21167 1.5258 0 2.4165-0.80257 0.89077-0.80257 0.89077-2.1784t-0.89077-2.1784q-0.89076-0.80257-2.4165-0.80257-0.71437 0-1.4288 0.15875-0.70555 0.15875-1.4464 0.49389z" style=""/>
  </g>
  <path id="rect74" d="m520 280h40v40h-40z" fill="#ddd" stroke="#000" stroke-width="2"/>
  <g id="text80" aria-label="Containervalues_[1]">
   <path id="path221" d="m291.63 237.85v1.8785q-0.89958-0.83785-1.9226-1.2524-1.0142-0.41451-2.1608-0.41451-2.2578 0-3.4572 1.3846-1.1994 1.3758-1.1994 3.9864 0 2.6017 1.1994 3.9864 1.1994 1.3758 3.4572 1.3758 1.1465 0 2.1608-0.41452 1.023-0.41451 1.9226-1.2524v1.8609q-0.93486 0.63499-1.9844 0.95249-1.0407 0.3175-2.2049 0.3175-2.9898 0-4.7096-1.8256-1.7198-1.8344-1.7198-5.0006 0-3.175 1.7198-5.0006 1.7198-1.8344 4.7096-1.8344 1.1818 0 2.2225 0.3175 1.0495 0.30868 1.9667 0.93486z" style=""/>
   <path id="path223" d="m298.16 241.26q-1.3053 0-2.0637 1.0231-0.75847 1.0142-0.75847 2.7869 0 1.7727 0.74965 2.7958 0.75847 1.0142 2.0726 1.0142 1.2965 0 2.0549-1.023 0.75847-1.0231 0.75847-2.7869 0-1.7551-0.75847-2.7781-0.75847-1.0319-2.0549-1.0319zm0-1.3758q2.1167 0 3.3249 1.3758t1.2083 3.81q0 2.4253-1.2083 3.81-1.2083 1.3758-3.3249 1.3758-2.1255 0-3.3337-1.3758-1.1994-1.3846-1.1994-3.81 0-2.4342 1.1994-3.81 1.2083-1.3758 3.3337-1.3758z" style=""/>
   <path id="path225" d="m313.58 244.04v5.9619h-1.6228v-5.909q0-1.4023-0.54681-2.099-0.5468-0.69673-1.6404-0.69673-1.3141 0-2.0726 0.83784-0.75847 0.83785-0.75847 2.2842v5.5827h-1.6316v-9.8778h1.6316v1.5346q0.58208-0.89077 1.367-1.3317 0.79375-0.44097 1.8256-0.44097 1.7022 0 2.5753 1.0583 0.87312 1.0495 0.87312 3.0956z" style=""/>
   <path id="path227" d="m318.44 237.32v2.8046h3.3426v1.2612h-3.3426v5.3622q0 1.2083 0.32632 1.5522 0.33514 0.34396 1.3494 0.34396h1.6669v1.3582h-1.6669q-1.8785 0-2.5929-0.69674-0.71437-0.70555-0.71437-2.5576v-5.3622h-1.1906v-1.2612h1.1906v-2.8046z" style=""/>
   <path id="path229" d="m328.42 245.03q-1.9667 0-2.7252 0.44979-0.75848 0.44979-0.75848 1.5346 0 0.86431 0.56445 1.3758 0.57326 0.50271 1.5522 0.50271 1.3494 0 2.1608-0.9525 0.82021-0.96132 0.82021-2.5488v-0.3616zm3.2367-0.67028v5.6356h-1.6228v-1.4993q-0.55563 0.89958-1.3846 1.3317-0.82903 0.42333-2.0285 0.42333-1.517 0-2.4165-0.84666-0.89076-0.85549-0.89076-2.2842 0-1.6669 1.1112-2.5135 1.1201-0.84667 3.3337-0.84667h2.2754v-0.15875q0-1.1201-0.74084-1.7286-0.73201-0.61736-2.0637-0.61736-0.84667 0-1.6492 0.20285t-1.5434 0.60854v-1.4993q0.89076-0.34396 1.7286-0.51153 0.83785-0.17639 1.6316-0.17639 2.1431 0 3.2014 1.1112t1.0583 3.369z" style=""/>
   <path id="path231" d="m335.01 240.12h1.6228v9.8778h-1.6228zm0-3.8453h1.6228v2.0549h-1.6228z" style=""/>
   <path id="path233" d="m348.23 244.04v5.9619h-1.6228v-5.909q0-1.4023-0.5468-2.099-0.54681-0.69673-1.6404-0.69673-1.3141 0-2.0726 0.83784-0.75848 0.83785-0.75848 2.2842v5.5827h-1.6316v-9.8778h1.6316v1.5346q0.58209-0.89077 1.367-1.3317 0.79375-0.44097 1.8256-0.44097 1.7022 0 2.5753 1.0583 0.87313 1.0495 0.87313 3.0956z" style=""/>
   <path id="path235" d="m359.93 244.66v0.79375h-7.4612q0.10583 1.6757 1.0054 2.5576 0.9084 0.87312 2.5224 0.87312 0.93486 0 1.808-0.2293 0.88195-0.22931 1.7462-0.68792v1.5346q-0.87312 0.37042-1.7903 0.56445-0.91723 0.19402-1.8609 0.19402-2.3636 0-3.7483-1.3758-1.3758-1.3758-1.3758-3.7218 0-2.4253 1.3053-3.8453 1.3141-1.4288 3.5366-1.4288 1.9932 0 3.1485 1.2876 1.1642 1.2788 1.1642 3.4837zm-1.6228-0.47625q-0.0176-1.3317-0.74965-2.1255-0.7232-0.79375-1.9226-0.79375-1.3582 0-2.1784 0.76729-0.81139 0.76729-0.93486 2.1608z" style=""/>
   <path id="path237" d="m368.32 241.64q-0.2734-0.15875-0.59972-0.22931-0.3175-0.0794-0.70556-0.0794-1.3758 0-2.1167 0.89958-0.73201 0.89076-0.73201 2.5664v5.2035h-1.6316v-9.8778h1.6316v1.5346q0.51152-0.89959 1.3317-1.3317 0.82021-0.44097 1.9932-0.44097 0.16757 0 0.37042 0.0265 0.20285 0.0176 0.44979 0.0617z" style=""/>
   <path id="path239" d="m280.54 262.7h1.7198l3.0868 8.2903 3.0868-8.2903h1.7198l-3.7042 9.8778h-2.2049z" style=""/>
   <path id="path241" d="m296.88 267.61q-1.9667 0-2.7252 0.44979t-0.75847 1.5346q0 0.86431 0.56444 1.3758 0.57327 0.5027 1.5522 0.5027 1.3494 0 2.1608-0.9525 0.8202-0.96131 0.8202-2.5488v-0.3616zm3.2367-0.67028v5.6356h-1.6228v-1.4993q-0.55562 0.89958-1.3846 1.3317-0.82903 0.42334-2.0285 0.42334-1.5169 0-2.4165-0.84667-0.89077-0.85548-0.89077-2.2842 0-1.6669 1.1112-2.5135 1.1201-0.84667 3.3338-0.84667h2.2754v-0.15875q0-1.1201-0.74083-1.7286-0.73201-0.61736-2.0638-0.61736-0.84666 0-1.6492 0.20285t-1.5434 0.60854v-1.4993q0.89076-0.34396 1.7286-0.51153 0.83784-0.17639 1.6316-0.17639 2.1431 0 3.2015 1.1112 1.0583 1.1112 1.0583 3.369z" style=""/>
   <path id="path243" d="m303.47 258.85h1.6228v13.723h-1.6228z" style=""/>
   <path id="path245" d="m308.31 268.68v-5.9796h1.6228v5.9178q0 1.4023 0.5468 2.1078 0.54681 0.69674 1.6404 0.69674 1.3141 0 2.0726-0.83785 0.7673-0.83785 0.7673-2.2842v-5.6003h1.6228v9.8778h-1.6228v-1.5169q-0.59091 0.89958-1.3758 1.3406-0.77611 0.43216-1.808 0.43216-1.7022 0-2.5841-1.0583-0.88195-1.0583-0.88195-3.0956zm4.0834-6.2177z" style=""/>
   <path id="path247" d="m328.39 267.23v0.79375h-7.4612q0.10584 1.6757 1.0054 2.5576 0.9084 0.87312 2.5224 0.87312 0.93486 0 1.808-0.2293 0.88194-0.22931 1.7462-0.68792v1.5346q-0.87313 0.37041-1.7904 0.56444t-1.8609 0.19403q-2.3636 0-3.7483-1.3758-1.3758-1.3758-1.3758-3.7218 0-2.4253 1.3053-3.8453 1.3141-1.4288 3.5366-1.4288 1.9932 0 3.1485 1.2876 1.1642 1.2788 1.1642 3.4837zm-1.6228-0.47625q-0.0176-1.3317-0.74965-2.1255-0.7232-0.79375-1.9226-0.79375-1.3582 0-2.1784 0.76729-0.81139 0.7673-0.93486 2.1608z" style=""/>
   <path id="path249" d="m337.35 262.99v1.5346q-0.68792-0.35278-1.4288-0.52917-0.74083-0.17638-1.5346-0.17638-1.2083 0-1.8168 0.37041-0.59972 0.37042-0.59972 1.1112 0 0.56444 0.43215 0.89076 0.43215 0.3175 1.7374 0.60854l0.55562 0.12348q1.7286 0.37041 2.4518 1.0495 0.73202 0.67028 0.73202 1.8785 0 1.3758-1.0936 2.1784-1.0848 0.80257-2.9898 0.80257-0.79375 0-1.6581-0.15875-0.85548-0.14993-1.808-0.45861v-1.6757q0.89958 0.46743 1.7727 0.70556 0.87312 0.2293 1.7286 0.2293 1.1465 0 1.7639-0.38805 0.61736-0.39688 0.61736-1.1112 0-0.66146-0.44979-1.0142-0.44097-0.35278-1.9491-0.6791l-0.56445-0.13229q-1.5081-0.3175-2.1784-0.97014-0.67027-0.66146-0.67027-1.808 0-1.3935 0.98777-2.152 0.98778-0.75847 2.8046-0.75847 0.89959 0 1.6933 0.13229 0.79375 0.1323 1.464 0.39688z" style=""/>
   <path id="path251" d="m347.98 275.58v1.2612h-9.3839v-1.2612z" style=""/>
   <path id="path253" d="m349.36 258.85h3.7394v1.2612h-2.1167v13.582h2.1167v1.2612h-3.7394z" style=""/>
   <path id="path255" d="m357.1 271.08h2.9104v-10.045l-3.1662 0.635v-1.6228l3.1485-0.635h1.7815v11.668h2.9104v1.4993h-7.5847z" style=""/>
   <path id="path257" d="m371.85 258.85v16.104h-3.7394v-1.2612h2.1078v-13.582h-2.1078v-1.2612z" style=""/>
  </g>
  <path id="rect82" d="m280 400h40v40h-40z" fill="#ddd" stroke="#000" stroke-width="2"/>
  <g id="text86" aria-label="1">
   <path id="path261" d="m296.49 424.75h2.9104v-10.045l-3.1662 0.635v-1.6228l3.1485-0.63499h1.7815v11.668h2.9104v1.4993h-7.5847z" style=""/>
  </g>
  <path id="rect88" d="m320 400h40v40h-40z" fill="#ddd" stroke="#000" stroke-width="2"/>
  <g id="text92" aria-label="2">
   <path id="path265" d="m337.72 424.75h6.2177v1.4993h-8.3608v-1.4993q1.0142-1.0495 2.7605-2.8134 1.7551-1.7727 2.2049-2.2842 0.85548-0.96131 1.1906-1.6228 0.34396-0.67028 0.34396-1.3141 0-1.0495-0.74084-1.711-0.73201-0.66146-1.9138-0.66146-0.83785 0-1.7727 0.29105-0.92604 0.29104-1.9844 0.88194v-1.7992q1.076-0.43215 2.0108-0.65263 0.93486-0.22049 1.711-0.22049 2.0461 0 3.2632 1.023 1.2171 1.0231 1.2171 2.734 0 0.81139-0.30868 1.5434-0.29986 0.72319-1.1024 1.711-0.22048 0.25576-1.4023 1.4817-1.1818 1.2171-3.3337 3.4131z" style=""/>
  </g>
  <path id="rect94" d="m360 400h40v40h-40z" fill="#ddd" stroke="#000" stroke-width="2"/>
  <g id="text98" aria-label="3">
   <path id="path269" d="m381.58 419.15q1.2788 0.2734 1.9932 1.1377 0.72319 0.86431 0.72319 2.1343 0 1.9491-1.3406 3.0162t-3.81 1.0672q-0.82902 0-1.711-0.16757-0.87312-0.15875-1.808-0.48506v-1.7198q0.74083 0.43215 1.6228 0.65263 0.88194 0.22049 1.8433 0.22049 1.6757 0 2.5488-0.66146 0.88195-0.66146 0.88195-1.9226 0-1.1642-0.82021-1.8168-0.81139-0.66146-2.2666-0.66146h-1.5346v-1.464h1.6051q1.3141 0 2.0108-0.52035 0.69674-0.52916 0.69674-1.5169 0-1.0142-0.7232-1.5522-0.71437-0.54681-2.0549-0.54681-0.73202 0-1.5699 0.15875-0.83785 0.15875-1.8433 0.49389v-1.5875q1.0142-0.28222 1.8962-0.42333 0.89077-0.14111 1.6757-0.14111 2.0285 0 3.2103 0.92604 1.1818 0.91722 1.1818 2.4871 0 1.0936-0.62618 1.8521-0.62618 0.74965-1.7815 1.0407z" style=""/>
  </g>
  <path id="rect100" d="m400 400h40v40h-40z" fill="#ddd" stroke="#000" stroke-width="2"/>
  <g id="text104" aria-label="4">
   <path id="path273" d="m421.08 414.63-4.4979 7.0291h4.4979zm-0.46743-1.5522h2.2401v8.5813h1.8785v1.4817h-1.8785v3.1044h-1.7727v-3.1044h-5.9443v-1.7198z" style=""/>
  </g>
  <path id="rect106" d="m440 400h40v40h-40z" fill="#ddd" stroke="#000" stroke-width="2"/>
  <g id="text110" aria-label="5">
   <path id="path277" d="m456.2 413.08h6.9938v1.4993h-5.3622v3.2279q0.38805-0.13229 0.77611-0.19403 0.38805-0.0706 0.77611-0.0706 2.2049 0 3.4925 1.2083 1.2876 1.2083 1.2876 3.272 0 2.1255-1.3229 3.3073-1.3229 1.173-3.7306 1.173-0.82903 0-1.6933-0.14111-0.85549-0.14111-1.7727-0.42333v-1.7904q0.79375 0.43216 1.6404 0.64382 0.84667 0.21167 1.7904 0.21167 1.5258 0 2.4165-0.80257 0.89077-0.80257 0.89077-2.1784t-0.89077-2.1784q-0.89076-0.80257-2.4165-0.80257-0.71437 0-1.4288 0.15875-0.70555 0.15875-1.4464 0.49389z" style=""/>
  </g>
  <path id="rect112" d="m520 400h40v40h-40z" fill="#ddd" stroke="#000" stroke-width="2"/>
  <g id="text118" aria-label="Containervalues_[2]">
   <path id="path281" d="m291.63 357.85v1.8785q-0.89958-0.83785-1.9226-1.2524-1.0142-0.41451-2.1608-0.41451-2.2578 0-3.4572 1.3846-1.1994 1.3758-1.1994 3.9864 0 2.6017 1.1994 3.9864 1.1994 1.3758 3.4572 1.3758 1.1465 0 2.1608-0.41452 1.023-0.41451 1.9226-1.2524v1.8609q-0.93486 0.63499-1.9844 0.95249-1.0407 0.3175-2.2049 0.3175-2.9898 0-4.7096-1.8256-1.7198-1.8344-1.7198-5.0006 0-3.175 1.7198-5.0006 1.7198-1.8344 4.7096-1.8344 1.1818 0 2.2225 0.3175 1.0495 0.30868 1.9667 0.93486z" style=""/>
   <path id="path283" d="m298.16 361.26q-1.3053 0-2.0637 1.0231-0.75847 1.0142-0.75847 2.7869 0 1.7727 0.74965 2.7958 0.75847 1.0142 2.0726 1.0142 1.2965 0 2.0549-1.023 0.75847-1.0231 0.75847-2.7869 0-1.7551-0.75847-2.7781-0.75847-1.0319-2.0549-1.0319zm0-1.3758q2.1167 0 3.3249 1.3758t1.2083 3.81q0 2.4253-1.2083 3.81-1.2083 1.3758-3.3249 1.3758-2.1255 0-3.3337-1.3758-1.1994-1.3846-1.1994-3.81 0-2.4342 1.1994-3.81 1.2083-1.3758 3.3337-1.3758z" style=""/>
   <path id="path285" d="m313.58 364.04v5.9619h-1.6228v-5.909q0-1.4023-0.54681-2.099-0.5468-0.69673-1.6404-0.69673-1.3141 0-2.0726 0.83784-0.75847 0.83785-0.75847 2.2842v5.5827h-1.6316v-9.8778h1.6316v1.5346q0.58208-0.89077 1.367-1.3317 0.79375-0.44097 1.8256-0.44097 1.7022 0 2.5753 1.0583 0.87312 1.0495 0.87312 3.0956z" style=""/>
   <path id="path287" d="m318.44 357.32v2.8046h3.3426v1.2612h-3.3426v5.3622q0 1.2083 0.32632 1.5522 0.33514 0.34396 1.3494 0.34396h1.6669v1.3582h-1.6669q-1.8785 0-2.5929-0.69674-0.71437-0.70555-0.71437-2.5576v-5.3622h-1.1906v-1.2612h1.1906v-2.8046z" style=""/>
   <path id="path289" d="m328.42 365.03q-1.9667 0-2.7252 0.44979-0.75848 0.44979-0.75848 1.5346 0 0.86431 0.56445 1.3758 0.57326 0.50271 1.5522 0.50271 1.3494 0 2.1608-0.9525 0.82021-0.96132 0.82021-2.5488v-0.3616zm3.2367-0.67028v5.6356h-1.6228v-1.4993q-0.55563 0.89958-1.3846 1.3317-0.82903 0.42333-2.0285 0.42333-1.517 0-2.4165-0.84666-0.89076-0.85549-0.89076-2.2842 0-1.6669 1.1112-2.5135 1.1201-0.84667 3.3337-0.84667h2.2754v-0.15875q0-1.1201-0.74084-1.7286-0.73201-0.61736-2.0637-0.61736-0.84667 0-1.6492 0.20285t-1.5434 0.60854v-1.4993q0.89076-0.34396 1.7286-0.51153 0.83785-0.17639 1.6316-0.17639 2.1431 0 3.2014 1.1112t1.0583 3.369z" style=""/>
   <path id="path291" d="m335.01 360.12h1.6228v9.8778h-1.6228zm0-3.8453h1.6228v2.0549h-1.6228z" style=""/>
   <path id="path293" d="m348.23 364.04v5.9619h-1.6228v-5.909q0-1.4023-0.5468-2.099-0.54681-0.69673-1.6404-0.69673-1.3141 0-2.0726 0.83784-0.75848 0.83785-0.75848 2.2842v5.5827h-1.6316v-9.8778h1.6316v1.5346q0.58209-0.89077 1.367-1.3317 0.79375-0.44097 1.8256-0.44097 1.7022 0 2.5753 1.0583 0.87313 1.0495 0.87313 3.0956z" style=""/>
   <path id="path295" d="m359.93 364.66v0.79375h-7.4612q0.10583 1.6757 1.0054 2.5576 0.9084 0.87312 2.5224 0.87312 0.93486 0 1.808-0.2293 0.88195-0.22931 1.7462-0.68792v1.5346q-0.87312 0.37042-1.7903 0.56445-0.91723 0.19402-1.8609 0.19402-2.3636 0-3.7483-1.3758-1.3758-1.3758-1.3758-3.7218 0-2.4253 1.3053-3.8453 1.3141-1.4288 3.5366-1.4288 1.9932 0 3.1485 1.2876 1.1642 1.2788 1.1642 3.4837zm-1.6228-0.47625q-0.0176-1.3317-0.74965-2.1255-0.7232-0.79375-1.9226-0.79375-1.3582 0-2.1784 0.76729-0.81139 0.76729-0.93486 2.1608z" style=""/>
   <path id="path297" d="m368.32 361.64q-0.2734-0.15875-0.59972-0.22931-0.3175-0.0794-0.70556-0.0794-1.3758 0-2.1167 0.89958-0.73201 0.89076-0.73201 2.5664v5.2035h-1.6316v-9.8778h1.6316v1.5346q0.51152-0.89959 1.3317-1.3317 0.82021-0.44097 1.9932-0.44097 0.16757 0 0.37042 0.0265 0.20285 0.0176 0.44979 0.0617z" style=""/>
   <path id="path299" d="m280.54 382.7h1.7198l3.0868 8.2903 3.0868-8.2903h1.7198l-3.7042 9.8778h-2.2049z" style=""/>
   <path id="path301" d="m296.88 387.61q-1.9667 0-2.7252 0.44979t-0.75847 1.5346q0 0.86431 0.56444 1.3758 0.57327 0.5027 1.5522 0.5027 1.3494 0 2.1608-0.9525 0.8202-0.96131 0.8202-2.5488v-0.3616zm3.2367-0.67028v5.6356h-1.6228v-1.4993q-0.55562 0.89958-1.3846 1.3317-0.82903 0.42334-2.0285 0.42334-1.5169 0-2.4165-0.84667-0.89077-0.85548-0.89077-2.2842 0-1.6669 1.1112-2.5135 1.1201-0.84667 3.3338-0.84667h2.2754v-0.15875q0-1.1201-0.74083-1.7286-0.73201-0.61736-2.0638-0.61736-0.84666 0-1.6492 0.20285t-1.5434 0.60854v-1.4993q0.89076-0.34396 1.7286-0.51153 0.83784-0.17639 1.6316-0.17639 2.1431 0 3.2015 1.1112 1.0583 1.1112 1.0583 3.369z" style=""/>
   <path id="path303" d="m303.47 378.85h1.6228v13.723h-1.6228z" style=""/>
   <path id="path305" d="m308.31 388.68v-5.9796h1.6228v5.9178q0 1.4023 0.5468 2.1078 0.54681 0.69674 1.6404 0.69674 1.3141 0 2.0726-0.83785 0.7673-0.83785 0.7673-2.2842v-5.6003h1.6228v9.8778h-1.6228v-1.5169q-0.59091 0.89958-1.3758 1.3406-0.77611 0.43216-1.808 0.43216-1.7022 0-2.5841-1.0583-0.88195-1.0583-0.88195-3.0956zm4.0834-6.2177z" style=""/>
   <path id="path307" d="m328.39 387.23v0.79375h-7.4612q0.10584 1.6757 1.0054 2.5576 0.9084 0.87312 2.5224 0.87312 0.93486 0 1.808-0.2293 0.88194-0.22931 1.7462-0.68792v1.5346q-0.87313 0.37041-1.7904 0.56444t-1.8609 0.19403q-2.3636 0-3.7483-1.3758-1.3758-1.3758-1.3758-3.7218 0-2.4253 1.3053-3.8453 1.3141-1.4288 3.5366-1.4288 1.9932 0 3.1485 1.2876 1.1642 1.2788 1.1642 3.4837zm-1.6228-0.47625q-0.0176-1.3317-0.74965-2.1255-0.7232-0.79375-1.9226-0.79375-1.3582 0-2.1784 0.76729-0.81139 0.7673-0.93486 2.1608z" style=""/>
   <path id="path309" d="m337.35 382.99v1.5346q-0.68792-0.35278-1.4288-0.52917-0.74083-0.17638-1.5346-0.17638-1.2083 0-1.8168 0.37041-0.59972 0.37042-0.59972 1.1112 0 0.56444 0.43215 0.89076 0.43215 0.3175 1.7374 0.60854l0.55562 0.12348q1.7286 0.37041 2.4518 1.0495 0.73202 0.67028 0.73202 1.8785 0 1.3758-1.0936 2.1784-1.0848 0.80257-2.9898 0.80257-0.79375 0-1.6581-0.15875-0.85548-0.14993-1.808-0.45861v-1.6757q0.89958 0.46743 1.7727 0.70556 0.87312 0.2293 1.7286 0.2293 1.1465 0 1.7639-0.38805 0.61736-0.39688 0.61736-1.1112 0-0.66146-0.44979-1.0142-0.44097-0.35278-1.9491-0.6791l-0.56445-0.13229q-1.5081-0.3175-2.1784-0.97014-0.67027-0.66146-0.67027-1.808 0-1.3935 0.98777-2.152 0.98778-0.75847 2.8046-0.75847 0.89959 0 1.6933 0.13229 0.79375 0.1323 1.464 0.39688z" style=""/>
   <path id="path311" d="m347.98 395.58v1.2612h-9.3839v-1.2612z" style=""/>
   <path id="path313" d="m349.36 378.85h3.7394v1.2612h-2.1167v13.582h2.1167v1.2612h-3.7394z" style=""/>
   <path id="path315" d="m358.33 391.08h6.2177v1.4993h-8.3608v-1.4993q1.0142-1.0495 2.7605-2.8134 1.7551-1.7727 2.2049-2.2842 0.85548-0.96132 1.1906-1.6228 0.34396-0.67028 0.34396-1.3141 0-1.0495-0.74083-1.711-0.73202-0.66145-1.9138-0.66145-0.83785 0-1.7727 0.29104-0.92604 0.29104-1.9844 0.88194v-1.7992q1.076-0.43215 2.0108-0.65264t1.711-0.22049q2.0461 0 3.2632 1.0231 1.2171 1.023 1.2171 2.734 0 0.81139-0.30869 1.5434-0.29986 0.7232-1.1024 1.711-0.22049 0.25577-1.4023 1.4817-1.1818 1.2171-3.3338 3.4131z" style=""/>
   <path id="path317" d="m371.85 378.85v16.104h-3.7394v-1.2612h2.1078v-13.582h-2.1078v-1.2612z" style=""/>
  </g>
  <g id="text124" aria-label="Iteratoriterators_[2]">
   <path id="path320" d="m521.77 356.83h1.7815v13.167h-1.7815z" style=""/>
   <path id="path322" d="m528.63 357.32v2.8046h3.3426v1.2612h-3.3426v5.3622q0 1.2083 0.32631 1.5522 0.33514 0.34396 1.3494 0.34396h1.6669v1.3582h-1.6669q-1.8785 0-2.5929-0.69674-0.71437-0.70555-0.71437-2.5576v-5.3622h-1.1906v-1.2612h1.1906v-2.8046z" style=""/>
   <path id="path324" d="m542.57 364.66v0.79375h-7.4612q0.10583 1.6757 1.0054 2.5576 0.9084 0.87312 2.5224 0.87312 0.93486 0 1.808-0.2293 0.88194-0.22931 1.7462-0.68792v1.5346q-0.87313 0.37042-1.7904 0.56445-0.91722 0.19402-1.8609 0.19402-2.3636 0-3.7483-1.3758-1.3758-1.3758-1.3758-3.7218 0-2.4253 1.3053-3.8453 1.3141-1.4288 3.5366-1.4288 1.9932 0 3.1485 1.2876 1.1642 1.2788 1.1642 3.4837zm-1.6228-0.47625q-0.0176-1.3317-0.74966-2.1255-0.72319-0.79375-1.9226-0.79375-1.3582 0-2.1784 0.76729-0.81139 0.76729-0.93486 2.1608z" style=""/>
   <path id="path326" d="m550.96 361.64q-0.2734-0.15875-0.59972-0.22931-0.3175-0.0794-0.70555-0.0794-1.3758 0-2.1167 0.89958-0.73201 0.89076-0.73201 2.5664v5.2035h-1.6316v-9.8778h1.6316v1.5346q0.51153-0.89959 1.3317-1.3317 0.8202-0.44097 1.9932-0.44097 0.16757 0 0.37041 0.0265 0.20285 0.0176 0.44979 0.0617z" style=""/>
   <path id="path328" d="m557.17 365.03q-1.9667 0-2.7252 0.44979t-0.75847 1.5346q0 0.86431 0.56444 1.3758 0.57327 0.50271 1.5522 0.50271 1.3494 0 2.1608-0.9525 0.82021-0.96132 0.82021-2.5488v-0.3616zm3.2367-0.67028v5.6356h-1.6228v-1.4993q-0.55562 0.89958-1.3846 1.3317-0.82903 0.42333-2.0285 0.42333-1.5169 0-2.4165-0.84666-0.89077-0.85549-0.89077-2.2842 0-1.6669 1.1112-2.5135 1.1201-0.84667 3.3338-0.84667h2.2754v-0.15875q0-1.1201-0.74083-1.7286-0.73201-0.61736-2.0638-0.61736-0.84666 0-1.6492 0.20285t-1.5434 0.60854v-1.4993q0.89076-0.34396 1.7286-0.51153 0.83784-0.17639 1.6316-0.17639 2.1431 0 3.2014 1.1112 1.0583 1.1112 1.0583 3.369z" style=""/>
   <path id="path330" d="m565.36 357.32v2.8046h3.3426v1.2612h-3.3426v5.3622q0 1.2083 0.32632 1.5522 0.33513 0.34396 1.3494 0.34396h1.6669v1.3582h-1.6669q-1.8785 0-2.5929-0.69674-0.71438-0.70555-0.71438-2.5576v-5.3622h-1.1906v-1.2612h1.1906v-2.8046z" style=""/>
   <path id="path332" d="m574.67 361.26q-1.3053 0-2.0638 1.0231-0.75847 1.0142-0.75847 2.7869 0 1.7727 0.74965 2.7958 0.75847 1.0142 2.0726 1.0142 1.2965 0 2.0549-1.023 0.75847-1.0231 0.75847-2.7869 0-1.7551-0.75847-2.7781-0.75847-1.0319-2.0549-1.0319zm0-1.3758q2.1167 0 3.3249 1.3758 1.2083 1.3758 1.2083 3.81 0 2.4253-1.2083 3.81-1.2083 1.3758-3.3249 1.3758-2.1255 0-3.3338-1.3758-1.1994-1.3846-1.1994-3.81 0-2.4342 1.1994-3.81 1.2083-1.3758 3.3338-1.3758z" style=""/>
   <path id="path334" d="m587.61 361.64q-0.2734-0.15875-0.59972-0.22931-0.3175-0.0794-0.70556-0.0794-1.3758 0-2.1167 0.89958-0.73202 0.89076-0.73202 2.5664v5.2035h-1.6316v-9.8778h1.6316v1.5346q0.51153-0.89959 1.3317-1.3317 0.82021-0.44097 1.9932-0.44097 0.16757 0 0.37042 0.0265 0.20284 0.0176 0.44979 0.0617z" style=""/>
   <path id="path336" d="m521.7 382.7h1.6228v9.8778h-1.6228zm0-3.8453h1.6228v2.0549h-1.6228z" style=""/>
   <path id="path338" d="m528.32 379.9v2.8046h3.3426v1.2612h-3.3426v5.3622q0 1.2083 0.32632 1.5522 0.33513 0.34396 1.3494 0.34396h1.6669v1.3582h-1.6669q-1.8785 0-2.5929-0.69673-0.71438-0.70556-0.71438-2.5576v-5.3622h-1.1906v-1.2612h1.1906v-2.8046z" style=""/>
   <path id="path340" d="m542.25 387.23v0.79375h-7.4612q0.10583 1.6757 1.0054 2.5576 0.9084 0.87312 2.5224 0.87312 0.93486 0 1.808-0.2293 0.88194-0.22931 1.7462-0.68792v1.5346q-0.87313 0.37041-1.7904 0.56444t-1.8609 0.19403q-2.3636 0-3.7483-1.3758-1.3758-1.3758-1.3758-3.7218 0-2.4253 1.3053-3.8453 1.3141-1.4288 3.5366-1.4288 1.9932 0 3.1485 1.2876 1.1642 1.2788 1.1642 3.4837zm-1.6228-0.47625q-0.0176-1.3317-0.74966-2.1255-0.72319-0.79375-1.9226-0.79375-1.3582 0-2.1784 0.76729-0.81139 0.7673-0.93486 2.1608z" style=""/>
   <path id="path342" d="m550.64 384.22q-0.2734-0.15875-0.59972-0.22931-0.3175-0.0794-0.70555-0.0794-1.3758 0-2.1167 0.89958-0.73201 0.89076-0.73201 2.5665v5.2035h-1.6316v-9.8778h1.6316v1.5346q0.51153-0.89958 1.3317-1.3317 0.82021-0.44097 1.9932-0.44097 0.16757 0 0.37041 0.0265 0.20285 0.0176 0.44979 0.0617z" style=""/>
   <path id="path344" d="m556.85 387.61q-1.9667 0-2.7252 0.44979t-0.75847 1.5346q0 0.86431 0.56444 1.3758 0.57327 0.5027 1.5522 0.5027 1.3494 0 2.1608-0.9525 0.82021-0.96131 0.82021-2.5488v-0.3616zm3.2367-0.67028v5.6356h-1.6228v-1.4993q-0.55562 0.89958-1.3846 1.3317-0.82903 0.42334-2.0285 0.42334-1.5169 0-2.4165-0.84667-0.89077-0.85548-0.89077-2.2842 0-1.6669 1.1112-2.5135 1.1201-0.84667 3.3338-0.84667h2.2754v-0.15875q0-1.1201-0.74083-1.7286-0.73201-0.61736-2.0638-0.61736-0.84666 0-1.6492 0.20285t-1.5434 0.60854v-1.4993q0.89076-0.34396 1.7286-0.51153 0.83784-0.17639 1.6316-0.17639 2.1431 0 3.2015 1.1112 1.0583 1.1112 1.0583 3.369z" style=""/>
   <path id="path346" d="m565.04 379.9v2.8046h3.3426v1.2612h-3.3426v5.3622q0 1.2083 0.32632 1.5522 0.33513 0.34396 1.3494 0.34396h1.6669v1.3582h-1.6669q-1.8785 0-2.5929-0.69673-0.71438-0.70556-0.71438-2.5576v-5.3622h-1.1906v-1.2612h1.1906v-2.8046z" style=""/>
   <path id="path348" d="m574.35 383.84q-1.3053 0-2.0638 1.0231-0.75847 1.0142-0.75847 2.7869t0.74965 2.7958q0.75848 1.0142 2.0726 1.0142 1.2965 0 2.0549-1.023t0.75847-2.7869q0-1.7551-0.75847-2.7781-0.75847-1.0319-2.0549-1.0319zm0-1.3758q2.1167 0 3.3249 1.3758 1.2083 1.3758 1.2083 3.81 0 2.4253-1.2083 3.81-1.2083 1.3758-3.3249 1.3758-2.1255 0-3.3337-1.3758-1.1994-1.3846-1.1994-3.81 0-2.4342 1.1994-3.81 1.2083-1.3758 3.3337-1.3758z" style=""/>
   <path id="path350" d="m587.29 384.22q-0.2734-0.15875-0.59972-0.22931-0.3175-0.0794-0.70556-0.0794-1.3758 0-2.1167 0.89958-0.73201 0.89076-0.73201 2.5665v5.2035h-1.6316v-9.8778h1.6316v1.5346q0.51152-0.89958 1.3317-1.3317 0.82021-0.44097 1.9932-0.44097 0.16757 0 0.37042 0.0265 0.20285 0.0176 0.44979 0.0617z" style=""/>
   <path id="path352" d="m595.31 382.99v1.5346q-0.68792-0.35278-1.4288-0.52917-0.74083-0.17638-1.5346-0.17638-1.2083 0-1.8168 0.37041-0.59972 0.37042-0.59972 1.1112 0 0.56444 0.43216 0.89076 0.43215 0.3175 1.7374 0.60854l0.55563 0.12348q1.7286 0.37041 2.4518 1.0495 0.73201 0.67028 0.73201 1.8785 0 1.3758-1.0936 2.1784-1.0848 0.80257-2.9898 0.80257-0.79375 0-1.6581-0.15875-0.85548-0.14993-1.808-0.45861v-1.6757q0.89958 0.46743 1.7727 0.70556 0.87313 0.2293 1.7286 0.2293 1.1465 0 1.7639-0.38805 0.61736-0.39688 0.61736-1.1112 0-0.66146-0.44979-1.0142-0.44097-0.35278-1.9491-0.6791l-0.56444-0.13229q-1.5081-0.3175-2.1784-0.97014-0.67028-0.66146-0.67028-1.808 0-1.3935 0.98778-2.152t2.8046-0.75847q0.89958 0 1.6933 0.13229 0.79375 0.1323 1.464 0.39688z" style=""/>
   <path id="path354" d="m605.94 395.58v1.2612h-9.3839v-1.2612z" style=""/>
   <path id="path356" d="m607.31 378.85h3.7394v1.2612h-2.1167v13.582h2.1167v1.2612h-3.7394z" style=""/>
   <path id="path358" d="m616.28 391.08h6.2177v1.4993h-8.3608v-1.4993q1.0142-1.0495 2.7605-2.8134 1.7551-1.7727 2.2049-2.2842 0.85548-0.96132 1.1906-1.6228 0.34396-0.67028 0.34396-1.3141 0-1.0495-0.74084-1.711-0.73201-0.66145-1.9138-0.66145-0.83785 0-1.7727 0.29104-0.92604 0.29104-1.9844 0.88194v-1.7992q1.076-0.43215 2.0108-0.65264t1.711-0.22049q2.0461 0 3.2632 1.0231 1.2171 1.023 1.2171 2.734 0 0.81139-0.30868 1.5434-0.29986 0.7232-1.1024 1.711-0.22048 0.25577-1.4023 1.4817-1.1818 1.2171-3.3337 3.4131z" style=""/>
   <path id="path360" d="m629.81 378.85v16.104h-3.7394v-1.2612h2.1078v-13.582h-2.1078v-1.2612z" style=""/>
  </g>
  <g id="text130" aria-label="Iteratoriterators_[1]">
   <path id="path363" d="m521.77 236.83h1.7815v13.167h-1.7815z" style=""/>
   <path id="path365" d="m528.63 237.32v2.8046h3.3426v1.2612h-3.3426v5.3622q0 1.2083 0.32631 1.5522 0.33514 0.34396 1.3494 0.34396h1.6669v1.3582h-1.6669q-1.8785 0-2.5929-0.69674-0.71437-0.70555-0.71437-2.5576v-5.3622h-1.1906v-1.2612h1.1906v-2.8046z" style=""/>
   <path id="path367" d="m542.57 244.66v0.79375h-7.4612q0.10583 1.6757 1.0054 2.5576 0.9084 0.87312 2.5224 0.87312 0.93486 0 1.808-0.2293 0.88194-0.22931 1.7462-0.68792v1.5346q-0.87313 0.37042-1.7904 0.56445-0.91722 0.19402-1.8609 0.19402-2.3636 0-3.7483-1.3758-1.3758-1.3758-1.3758-3.7218 0-2.4253 1.3053-3.8453 1.3141-1.4288 3.5366-1.4288 1.9932 0 3.1485 1.2876 1.1642 1.2788 1.1642 3.4837zm-1.6228-0.47625q-0.0176-1.3317-0.74966-2.1255-0.72319-0.79375-1.9226-0.79375-1.3582 0-2.1784 0.76729-0.81139 0.76729-0.93486 2.1608z" style=""/>
   <path id="path369" d="m550.96 241.64q-0.2734-0.15875-0.59972-0.22931-0.3175-0.0794-0.70555-0.0794-1.3758 0-2.1167 0.89958-0.73201 0.89076-0.73201 2.5664v5.2035h-1.6316v-9.8778h1.6316v1.5346q0.51153-0.89959 1.3317-1.3317 0.8202-0.44097 1.9932-0.44097 0.16757 0 0.37041 0.0265 0.20285 0.0176 0.44979 0.0617z" style=""/>
   <path id="path371" d="m557.17 245.03q-1.9667 0-2.7252 0.44979t-0.75847 1.5346q0 0.86431 0.56444 1.3758 0.57327 0.50271 1.5522 0.50271 1.3494 0 2.1608-0.9525 0.82021-0.96132 0.82021-2.5488v-0.3616zm3.2367-0.67028v5.6356h-1.6228v-1.4993q-0.55562 0.89958-1.3846 1.3317-0.82903 0.42333-2.0285 0.42333-1.5169 0-2.4165-0.84666-0.89077-0.85549-0.89077-2.2842 0-1.6669 1.1112-2.5135 1.1201-0.84667 3.3338-0.84667h2.2754v-0.15875q0-1.1201-0.74083-1.7286-0.73201-0.61736-2.0638-0.61736-0.84666 0-1.6492 0.20285t-1.5434 0.60854v-1.4993q0.89076-0.34396 1.7286-0.51153 0.83784-0.17639 1.6316-0.17639 2.1431 0 3.2014 1.1112 1.0583 1.1112 1.0583 3.369z" style=""/>
   <path id="path373" d="m565.36 237.32v2.8046h3.3426v1.2612h-3.3426v5.3622q0 1.2083 0.32632 1.5522 0.33513 0.34396 1.3494 0.34396h1.6669v1.3582h-1.6669q-1.8785 0-2.5929-0.69674-0.71438-0.70555-0.71438-2.5576v-5.3622h-1.1906v-1.2612h1.1906v-2.8046z" style=""/>
   <path id="path375" d="m574.67 241.26q-1.3053 0-2.0638 1.0231-0.75847 1.0142-0.75847 2.7869 0 1.7727 0.74965 2.7958 0.75847 1.0142 2.0726 1.0142 1.2965 0 2.0549-1.023 0.75847-1.0231 0.75847-2.7869 0-1.7551-0.75847-2.7781-0.75847-1.0319-2.0549-1.0319zm0-1.3758q2.1167 0 3.3249 1.3758 1.2083 1.3758 1.2083 3.81 0 2.4253-1.2083 3.81-1.2083 1.3758-3.3249 1.3758-2.1255 0-3.3338-1.3758-1.1994-1.3846-1.1994-3.81 0-2.4342 1.1994-3.81 1.2083-1.3758 3.3338-1.3758z" style=""/>
   <path id="path377" d="m587.61 241.64q-0.2734-0.15875-0.59972-0.22931-0.3175-0.0794-0.70556-0.0794-1.3758 0-2.1167 0.89958-0.73202 0.89076-0.73202 2.5664v5.2035h-1.6316v-9.8778h1.6316v1.5346q0.51153-0.89959 1.3317-1.3317 0.82021-0.44097 1.9932-0.44097 0.16757 0 0.37042 0.0265 0.20284 0.0176 0.44979 0.0617z" style=""/>
   <path id="path379" d="m521.7 262.7h1.6228v9.8778h-1.6228zm0-3.8453h1.6228v2.0549h-1.6228z" style=""/>
   <path id="path381" d="m528.32 259.9v2.8046h3.3426v1.2612h-3.3426v5.3622q0 1.2083 0.32632 1.5522 0.33513 0.34396 1.3494 0.34396h1.6669v1.3582h-1.6669q-1.8785 0-2.5929-0.69673-0.71438-0.70556-0.71438-2.5576v-5.3622h-1.1906v-1.2612h1.1906v-2.8046z" style=""/>
   <path id="path383" d="m542.25 267.23v0.79375h-7.4612q0.10583 1.6757 1.0054 2.5576 0.9084 0.87312 2.5224 0.87312 0.93486 0 1.808-0.2293 0.88194-0.22931 1.7462-0.68792v1.5346q-0.87313 0.37041-1.7904 0.56444t-1.8609 0.19403q-2.3636 0-3.7483-1.3758-1.3758-1.3758-1.3758-3.7218 0-2.4253 1.3053-3.8453 1.3141-1.4288 3.5366-1.4288 1.9932 0 3.1485 1.2876 1.1642 1.2788 1.1642 3.4837zm-1.6228-0.47625q-0.0176-1.3317-0.74966-2.1255-0.72319-0.79375-1.9226-0.79375-1.3582 0-2.1784 0.76729-0.81139 0.7673-0.93486 2.1608z" style=""/>
   <path id="path385" d="m550.64 264.22q-0.2734-0.15875-0.59972-0.22931-0.3175-0.0794-0.70555-0.0794-1.3758 0-2.1167 0.89958-0.73201 0.89076-0.73201 2.5665v5.2035h-1.6316v-9.8778h1.6316v1.5346q0.51153-0.89958 1.3317-1.3317 0.82021-0.44097 1.9932-0.44097 0.16757 0 0.37041 0.0265 0.20285 0.0176 0.44979 0.0617z" style=""/>
   <path id="path387" d="m556.85 267.61q-1.9667 0-2.7252 0.44979t-0.75847 1.5346q0 0.86431 0.56444 1.3758 0.57327 0.5027 1.5522 0.5027 1.3494 0 2.1608-0.9525 0.82021-0.96131 0.82021-2.5488v-0.3616zm3.2367-0.67028v5.6356h-1.6228v-1.4993q-0.55562 0.89958-1.3846 1.3317-0.82903 0.42334-2.0285 0.42334-1.5169 0-2.4165-0.84667-0.89077-0.85548-0.89077-2.2842 0-1.6669 1.1112-2.5135 1.1201-0.84667 3.3338-0.84667h2.2754v-0.15875q0-1.1201-0.74083-1.7286-0.73201-0.61736-2.0638-0.61736-0.84666 0-1.6492 0.20285t-1.5434 0.60854v-1.4993q0.89076-0.34396 1.7286-0.51153 0.83784-0.17639 1.6316-0.17639 2.1431 0 3.2015 1.1112 1.0583 1.1112 1.0583 3.369z" style=""/>
   <path id="path389" d="m565.04 259.9v2.8046h3.3426v1.2612h-3.3426v5.3622q0 1.2083 0.32632 1.5522 0.33513 0.34396 1.3494 0.34396h1.6669v1.3582h-1.6669q-1.8785 0-2.5929-0.69673-0.71438-0.70556-0.71438-2.5576v-5.3622h-1.1906v-1.2612h1.1906v-2.8046z" style=""/>
   <path id="path391" d="m574.35 263.84q-1.3053 0-2.0638 1.0231-0.75847 1.0142-0.75847 2.7869t0.74965 2.7958q0.75848 1.0142 2.0726 1.0142 1.2965 0 2.0549-1.023t0.75847-2.7869q0-1.7551-0.75847-2.7781-0.75847-1.0319-2.0549-1.0319zm0-1.3758q2.1167 0 3.3249 1.3758 1.2083 1.3758 1.2083 3.81 0 2.4253-1.2083 3.81-1.2083 1.3758-3.3249 1.3758-2.1255 0-3.3337-1.3758-1.1994-1.3846-1.1994-3.81 0-2.4342 1.1994-3.81 1.2083-1.3758 3.3337-1.3758z" style=""/>
   <path id="path393" d="m587.29 264.22q-0.2734-0.15875-0.59972-0.22931-0.3175-0.0794-0.70556-0.0794-1.3758 0-2.1167 0.89958-0.73201 0.89076-0.73201 2.5665v5.2035h-1.6316v-9.8778h1.6316v1.5346q0.51152-0.89958 1.3317-1.3317 0.82021-0.44097 1.9932-0.44097 0.16757 0 0.37042 0.0265 0.20285 0.0176 0.44979 0.0617z" style=""/>
   <path id="path395" d="m595.31 262.99v1.5346q-0.68792-0.35278-1.4288-0.52917-0.74083-0.17638-1.5346-0.17638-1.2083 0-1.8168 0.37041-0.59972 0.37042-0.59972 1.1112 0 0.56444 0.43216 0.89076 0.43215 0.3175 1.7374 0.60854l0.55563 0.12348q1.7286 0.37041 2.4518 1.0495 0.73201 0.67028 0.73201 1.8785 0 1.3758-1.0936 2.1784-1.0848 0.80257-2.9898 0.80257-0.79375 0-1.6581-0.15875-0.85548-0.14993-1.808-0.45861v-1.6757q0.89958 0.46743 1.7727 0.70556 0.87313 0.2293 1.7286 0.2293 1.1465 0 1.7639-0.38805 0.61736-0.39688 0.61736-1.1112 0-0.66146-0.44979-1.0142-0.44097-0.35278-1.9491-0.6791l-0.56444-0.13229q-1.5081-0.3175-2.1784-0.97014-0.67028-0.66146-0.67028-1.808 0-1.3935 0.98778-2.152t2.8046-0.75847q0.89958 0 1.6933 0.13229 0.79375 0.1323 1.464 0.39688z" style=""/>
   <path id="path397" d="m605.94 275.58v1.2612h-9.3839v-1.2612z" style=""/>
   <path id="path399" d="m607.31 258.85h3.7394v1.2612h-2.1167v13.582h2.1167v1.2612h-3.7394z" style=""/>
   <path id="path401" d="m615.06 271.08h2.9104v-10.045l-3.1662 0.635v-1.6228l3.1485-0.635h1.7815v11.668h2.9104v1.4993h-7.5847z" style=""/>
   <path id="path403" d="m629.81 258.85v16.104h-3.7394v-1.2612h2.1078v-13.582h-2.1078v-1.2612z" style=""/>
  </g>
  <g id="text136" aria-label="Iteratoriterators_[0]">
   <path id="path406" d="m521.77 116.83h1.7815v13.167h-1.7815z" style=""/>
   <path id="path408" d="m528.63 117.32v2.8046h3.3426v1.2612h-3.3426v5.3622q0 1.2083 0.32631 1.5522 0.33514 0.34396 1.3494 0.34396h1.6669v1.3582h-1.6669q-1.8785 0-2.5929-0.69674-0.71437-0.70555-0.71437-2.5576v-5.3622h-1.1906v-1.2612h1.1906v-2.8046z" style=""/>
   <path id="path410" d="m542.57 124.66v0.79375h-7.4612q0.10583 1.6757 1.0054 2.5576 0.9084 0.87312 2.5224 0.87312 0.93486 0 1.808-0.2293 0.88194-0.22931 1.7462-0.68792v1.5346q-0.87313 0.37042-1.7904 0.56445-0.91722 0.19402-1.8609 0.19402-2.3636 0-3.7483-1.3758-1.3758-1.3758-1.3758-3.7218 0-2.4253 1.3053-3.8453 1.3141-1.4288 3.5366-1.4288 1.9932 0 3.1485 1.2876 1.1642 1.2788 1.1642 3.4837zm-1.6228-0.47625q-0.0176-1.3317-0.74966-2.1255-0.72319-0.79375-1.9226-0.79375-1.3582 0-2.1784 0.76729-0.81139 0.76729-0.93486 2.1608z" style=""/>
   <path id="path412" d="m550.96 121.64q-0.2734-0.15875-0.59972-0.22931-0.3175-0.0794-0.70555-0.0794-1.3758 0-2.1167 0.89958-0.73201 0.89076-0.73201 2.5664v5.2035h-1.6316v-9.8778h1.6316v1.5346q0.51153-0.89959 1.3317-1.3317 0.8202-0.44097 1.9932-0.44097 0.16757 0 0.37041 0.0265 0.20285 0.0176 0.44979 0.0617z" style=""/>
   <path id="path414" d="m557.17 125.03q-1.9667 0-2.7252 0.44979t-0.75847 1.5346q0 0.86431 0.56444 1.3758 0.57327 0.50271 1.5522 0.50271 1.3494 0 2.1608-0.9525 0.82021-0.96132 0.82021-2.5488v-0.3616zm3.2367-0.67028v5.6356h-1.6228v-1.4993q-0.55562 0.89958-1.3846 1.3317-0.82903 0.42333-2.0285 0.42333-1.5169 0-2.4165-0.84666-0.89077-0.85549-0.89077-2.2842 0-1.6669 1.1112-2.5135 1.1201-0.84667 3.3338-0.84667h2.2754v-0.15875q0-1.1201-0.74083-1.7286-0.73201-0.61736-2.0638-0.61736-0.84666 0-1.6492 0.20285t-1.5434 0.60854v-1.4993q0.89076-0.34396 1.7286-0.51153 0.83784-0.17639 1.6316-0.17639 2.1431 0 3.2014 1.1112 1.0583 1.1112 1.0583 3.369z" style=""/>
   <path id="path416" d="m565.36 117.32v2.8046h3.3426v1.2612h-3.3426v5.3622q0 1.2083 0.32632 1.5522 0.33513 0.34396 1.3494 0.34396h1.6669v1.3582h-1.6669q-1.8785 0-2.5929-0.69674-0.71438-0.70555-0.71438-2.5576v-5.3622h-1.1906v-1.2612h1.1906v-2.8046z" style=""/>
   <path id="path418" d="m574.67 121.26q-1.3053 0-2.0638 1.0231-0.75847 1.0142-0.75847 2.7869 0 1.7727 0.74965 2.7958 0.75847 1.0142 2.0726 1.0142 1.2965 0 2.0549-1.023 0.75847-1.0231 0.75847-2.7869 0-1.7551-0.75847-2.7781-0.75847-1.0319-2.0549-1.0319zm0-1.3758q2.1167 0 3.3249 1.3758 1.2083 1.3758 1.2083 3.81 0 2.4253-1.2083 3.81-1.2083 1.3758-3.3249 1.3758-2.1255 0-3.3338-1.3758-1.1994-1.3846-1.1994-3.81 0-2.4342 1.1994-3.81 1.2083-1.3758 3.3338-1.3758z" style=""/>
   <path id="path420" d="m587.61 121.64q-0.2734-0.15875-0.59972-0.22931-0.3175-0.0794-0.70556-0.0794-1.3758 0-2.1167 0.89958-0.73202 0.89076-0.73202 2.5664v5.2035h-1.6316v-9.8778h1.6316v1.5346q0.51153-0.89959 1.3317-1.3317 0.82021-0.44097 1.9932-0.44097 0.16757 0 0.37042 0.0265 0.20284 0.0176 0.44979 0.0617z" style=""/>
   <path id="path422" d="m521.7 142.7h1.6228v9.8778h-1.6228zm0-3.8453h1.6228v2.0549h-1.6228z" style=""/>
   <path id="path424" d="m528.32 139.9v2.8046h3.3426v1.2612h-3.3426v5.3622q0 1.2083 0.32632 1.5522 0.33513 0.34396 1.3494 0.34396h1.6669v1.3582h-1.6669q-1.8785 0-2.5929-0.69673-0.71438-0.70556-0.71438-2.5576v-5.3622h-1.1906v-1.2612h1.1906v-2.8046z" style=""/>
   <path id="path426" d="m542.25 147.23v0.79375h-7.4612q0.10583 1.6757 1.0054 2.5576 0.9084 0.87312 2.5224 0.87312 0.93486 0 1.808-0.2293 0.88194-0.22931 1.7462-0.68792v1.5346q-0.87313 0.37041-1.7904 0.56444t-1.8609 0.19403q-2.3636 0-3.7483-1.3758-1.3758-1.3758-1.3758-3.7218 0-2.4253 1.3053-3.8453 1.3141-1.4288 3.5366-1.4288 1.9932 0 3.1485 1.2876 1.1642 1.2788 1.1642 3.4837zm-1.6228-0.47625q-0.0176-1.3317-0.74966-2.1255-0.72319-0.79375-1.9226-0.79375-1.3582 0-2.1784 0.76729-0.81139 0.7673-0.93486 2.1608z" style=""/>
   <path id="path428" d="m550.64 144.22q-0.2734-0.15875-0.59972-0.22931-0.3175-0.0794-0.70555-0.0794-1.3758 0-2.1167 0.89958-0.73201 0.89076-0.73201 2.5665v5.2035h-1.6316v-9.8778h1.6316v1.5346q0.51153-0.89958 1.3317-1.3317 0.82021-0.44097 1.9932-0.44097 0.16757 0 0.37041 0.0265 0.20285 0.0176 0.44979 0.0617z" style=""/>
   <path id="path430" d="m556.85 147.61q-1.9667 0-2.7252 0.44979t-0.75847 1.5346q0 0.86431 0.56444 1.3758 0.57327 0.5027 1.5522 0.5027 1.3494 0 2.1608-0.9525 0.82021-0.96131 0.82021-2.5488v-0.3616zm3.2367-0.67028v5.6356h-1.6228v-1.4993q-0.55562 0.89958-1.3846 1.3317-0.82903 0.42334-2.0285 0.42334-1.5169 0-2.4165-0.84667-0.89077-0.85548-0.89077-2.2842 0-1.6669 1.1112-2.5135 1.1201-0.84667 3.3338-0.84667h2.2754v-0.15875q0-1.1201-0.74083-1.7286-0.73201-0.61736-2.0638-0.61736-0.84666 0-1.6492 0.20285t-1.5434 0.60854v-1.4993q0.89076-0.34396 1.7286-0.51153 0.83784-0.17639 1.6316-0.17639 2.1431 0 3.2015 1.1112 1.0583 1.1112 1.0583 3.369z" style=""/>
   <path id="path432" d="m565.04 139.9v2.8046h3.3426v1.2612h-3.3426v5.3622q0 1.2083 0.32632 1.5522 0.33513 0.34396 1.3494 0.34396h1.6669v1.3582h-1.6669q-1.8785 0-2.5929-0.69673-0.71438-0.70556-0.71438-2.5576v-5.3622h-1.1906v-1.2612h1.1906v-2.8046z" style=""/>
   <path id="path434" d="m574.35 143.84q-1.3053 0-2.0638 1.0231-0.75847 1.0142-0.75847 2.7869t0.74965 2.7958q0.75848 1.0142 2.0726 1.0142 1.2965 0 2.0549-1.023t0.75847-2.7869q0-1.7551-0.75847-2.7781-0.75847-1.0319-2.0549-1.0319zm0-1.3758q2.1167 0 3.3249 1.3758 1.2083 1.3758 1.2083 3.81 0 2.4253-1.2083 3.81-1.2083 1.3758-3.3249 1.3758-2.1255 0-3.3337-1.3758-1.1994-1.3846-1.1994-3.81 0-2.4342 1.1994-3.81 1.2083-1.3758 3.3337-1.3758z" style=""/>
   <path id="path436" d="m587.29 144.22q-0.2734-0.15875-0.59972-0.22931-0.3175-0.0794-0.70556-0.0794-1.3758 0-2.1167 0.89958-0.73201 0.89076-0.73201 2.5665v5.2035h-1.6316v-9.8778h1.6316v1.5346q0.51152-0.89958 1.3317-1.3317 0.82021-0.44097 1.9932-0.44097 0.16757 0 0.37042 0.0265 0.20285 0.0176 0.44979 0.0617z" style=""/>
   <path id="path438" d="m595.31 142.99v1.5346q-0.68792-0.35278-1.4288-0.52917-0.74083-0.17638-1.5346-0.17638-1.2083 0-1.8168 0.37041-0.59972 0.37042-0.59972 1.1112 0 0.56444 0.43216 0.89076 0.43215 0.3175 1.7374 0.60854l0.55563 0.12348q1.7286 0.37041 2.4518 1.0495 0.73201 0.67028 0.73201 1.8785 0 1.3758-1.0936 2.1784-1.0848 0.80257-2.9898 0.80257-0.79375 0-1.6581-0.15875-0.85548-0.14993-1.808-0.45861v-1.6757q0.89958 0.46743 1.7727 0.70556 0.87313 0.2293 1.7286 0.2293 1.1465 0 1.7639-0.38805 0.61736-0.39688 0.61736-1.1112 0-0.66146-0.44979-1.0142-0.44097-0.35278-1.9491-0.6791l-0.56444-0.13229q-1.5081-0.3175-2.1784-0.97014-0.67028-0.66146-0.67028-1.808 0-1.3935 0.98778-2.152t2.8046-0.75847q0.89958 0 1.6933 0.13229 0.79375 0.1323 1.464 0.39688z" style=""/>
   <path id="path440" d="m605.94 155.58v1.2612h-9.3839v-1.2612z" style=""/>
   <path id="path442" d="m607.31 138.85h3.7394v1.2612h-2.1167v13.582h2.1167v1.2612h-3.7394z" style=""/>
   <path id="path444" d="m618.56 140.58q-1.3758 0-2.0726 1.3582-0.68791 1.3494-0.68791 4.0658 0 2.7076 0.68791 4.0658 0.69674 1.3494 2.0726 1.3494 1.3846 0 2.0726-1.3494 0.69673-1.3582 0.69673-4.0658 0-2.7164-0.69673-4.0658-0.68792-1.3582-2.0726-1.3582zm0-1.4111q2.2137 0 3.3778 1.7551 1.173 1.7462 1.173 5.08 0 3.3249-1.173 5.08-1.1642 1.7462-3.3778 1.7462t-3.3867-1.7462q-1.1642-1.7551-1.1642-5.08 0-3.3337 1.1642-5.08 1.173-1.7551 3.3867-1.7551z" style=""/>
   <path id="path446" d="m629.81 138.85v16.104h-3.7394v-1.2612h2.1078v-13.582h-2.1078v-1.2612z" style=""/>
  </g>
  <path id="rect138" d="m700 160h40v40h-40z" fill="#ddd" stroke="#000" stroke-width="2"/>
  <g id="text144" aria-label="Variablebaker">
   <path id="path450" d="m705.17 130-5.0271-13.167h1.8609l4.1716 11.086 4.1804-11.086h1.8521l-5.0183 13.167z" style=""/>
   <path id="path452" d="m717.13 125.03q-1.9667 0-2.7252 0.44979-0.75848 0.44979-0.75848 1.5346 0 0.86431 0.56445 1.3758 0.57326 0.50271 1.5522 0.50271 1.3494 0 2.1608-0.9525 0.82021-0.96132 0.82021-2.5488v-0.3616zm3.2367-0.67028v5.6356h-1.6228v-1.4993q-0.55563 0.89958-1.3846 1.3317-0.82903 0.42333-2.0285 0.42333-1.517 0-2.4165-0.84666-0.89076-0.85549-0.89076-2.2842 0-1.6669 1.1112-2.5135 1.1201-0.84667 3.3337-0.84667h2.2754v-0.15875q0-1.1201-0.74084-1.7286-0.73201-0.61736-2.0637-0.61736-0.84667 0-1.6492 0.20285t-1.5434 0.60854v-1.4993q0.89076-0.34396 1.7286-0.51153 0.83785-0.17639 1.6316-0.17639 2.1431 0 3.2014 1.1112t1.0583 3.369z" style=""/>
   <path id="path454" d="m729.44 121.64q-0.2734-0.15875-0.59972-0.22931-0.3175-0.0794-0.70556-0.0794-1.3758 0-2.1167 0.89958-0.73201 0.89076-0.73201 2.5664v5.2035h-1.6316v-9.8778h1.6316v1.5346q0.51152-0.89959 1.3317-1.3317 0.82021-0.44097 1.9932-0.44097 0.16757 0 0.37042 0.0265 0.20285 0.0176 0.44979 0.0617z" style=""/>
   <path id="path456" d="m731.16 120.12h1.6228v9.8778h-1.6228zm0-3.8453h1.6228v2.0549h-1.6228z" style=""/>
   <path id="path458" d="m740.66 125.03q-1.9667 0-2.7252 0.44979-0.75847 0.44979-0.75847 1.5346 0 0.86431 0.56445 1.3758 0.57326 0.50271 1.5522 0.50271 1.3494 0 2.1608-0.9525 0.82021-0.96132 0.82021-2.5488v-0.3616zm3.2367-0.67028v5.6356h-1.6228v-1.4993q-0.55563 0.89958-1.3847 1.3317-0.82902 0.42333-2.0285 0.42333-1.5169 0-2.4165-0.84666-0.89076-0.85549-0.89076-2.2842 0-1.6669 1.1112-2.5135 1.1201-0.84667 3.3337-0.84667h2.2754v-0.15875q0-1.1201-0.74084-1.7286-0.73201-0.61736-2.0637-0.61736-0.84667 0-1.6492 0.20285t-1.5434 0.60854v-1.4993q0.89076-0.34396 1.7286-0.51153 0.83785-0.17639 1.6316-0.17639 2.1431 0 3.2015 1.1112t1.0583 3.369z" style=""/>
   <path id="path460" d="m754.34 125.07q0-1.7904-0.74083-2.8046-0.73201-1.0231-2.0196-1.0231t-2.0285 1.0231q-0.73201 1.0142-0.73201 2.8046 0 1.7903 0.73201 2.8134 0.74083 1.0142 2.0285 1.0142t2.0196-1.0142q0.74083-1.0231 0.74083-2.8134zm-5.521-3.4484q0.51152-0.88195 1.2876-1.3053 0.78493-0.43215 1.8697-0.43215 1.7992 0 2.9192 1.4288 1.1289 1.4288 1.1289 3.7571t-1.1289 3.7571q-1.1201 1.4287-2.9192 1.4287-1.0848 0-1.8697-0.42333-0.77611-0.43215-1.2876-1.3141v1.4817h-1.6316v-13.723h1.6316z" style=""/>
   <path id="path462" d="m758.71 116.28h1.6228v13.723h-1.6228z" style=""/>
   <path id="path464" d="m772.17 124.66v0.79375h-7.4612q0.10584 1.6757 1.0054 2.5576 0.9084 0.87312 2.5224 0.87312 0.93486 0 1.808-0.2293 0.88195-0.22931 1.7462-0.68792v1.5346q-0.87312 0.37042-1.7904 0.56445-0.91722 0.19402-1.8609 0.19402-2.3636 0-3.7483-1.3758-1.3758-1.3758-1.3758-3.7218 0-2.4253 1.3053-3.8453 1.3141-1.4288 3.5366-1.4288 1.9932 0 3.1485 1.2876 1.1642 1.2788 1.1642 3.4837zm-1.6228-0.47625q-0.0176-1.3317-0.74965-2.1255-0.7232-0.79375-1.9226-0.79375-1.3582 0-2.1784 0.76729-0.81139 0.76729-0.93486 2.1608z" style=""/>
   <path id="path466" d="m708.79 147.65q0-1.7904-0.74084-2.8046-0.73201-1.023-2.0196-1.023-1.2876 0-2.0285 1.023-0.73201 1.0142-0.73201 2.8046 0 1.7903 0.73201 2.8134 0.74084 1.0142 2.0285 1.0142 1.2876 0 2.0196-1.0142 0.74084-1.0231 0.74084-2.8134zm-5.521-3.4484q0.51153-0.88194 1.2876-1.3053 0.78493-0.43215 1.8697-0.43215 1.7992 0 2.9192 1.4288 1.1289 1.4288 1.1289 3.7571t-1.1289 3.7571q-1.1201 1.4288-2.9192 1.4288-1.0848 0-1.8697-0.42334-0.77611-0.43215-1.2876-1.3141v1.4817h-1.6316v-13.723h1.6316z" style=""/>
   <path id="path468" d="m717.66 147.61q-1.9667 0-2.7252 0.44979t-0.75847 1.5346q0 0.86431 0.56444 1.3758 0.57327 0.5027 1.5522 0.5027 1.3494 0 2.1608-0.9525 0.8202-0.96131 0.8202-2.5488v-0.3616zm3.2367-0.67028v5.6356h-1.6228v-1.4993q-0.55562 0.89958-1.3846 1.3317-0.82902 0.42334-2.0285 0.42334-1.5169 0-2.4165-0.84667-0.89077-0.85548-0.89077-2.2842 0-1.6669 1.1112-2.5135 1.1201-0.84667 3.3338-0.84667h2.2754v-0.15875q0-1.1201-0.74083-1.7286-0.73201-0.61736-2.0638-0.61736-0.84666 0-1.6492 0.20285t-1.5434 0.60854v-1.4993q0.89076-0.34396 1.7286-0.51153 0.83784-0.17639 1.6316-0.17639 2.1431 0 3.2015 1.1112 1.0583 1.1112 1.0583 3.369z" style=""/>
   <path id="path470" d="m724.18 138.85h1.6316v8.1051l4.8419-4.2598h2.0726l-5.2387 4.6214 5.4592 5.2564h-2.1167l-5.0183-4.8242v4.8242h-1.6316z" style=""/>
   <path id="path472" d="m742.54 147.23v0.79375h-7.4612q0.10583 1.6757 1.0054 2.5576 0.9084 0.87312 2.5224 0.87312 0.93486 0 1.808-0.2293 0.88195-0.22931 1.7462-0.68792v1.5346q-0.87312 0.37041-1.7903 0.56444t-1.8609 0.19403q-2.3636 0-3.7483-1.3758-1.3758-1.3758-1.3758-3.7218 0-2.4253 1.3053-3.8453 1.3141-1.4288 3.5366-1.4288 1.9932 0 3.1485 1.2876 1.1642 1.2788 1.1642 3.4837zm-1.6228-0.47625q-0.0176-1.3317-0.74965-2.1255-0.72319-0.79375-1.9226-0.79375-1.3582 0-2.1784 0.76729-0.81138 0.7673-0.93486 2.1608z" style=""/>
   <path id="path474" d="m750.92 144.22q-0.2734-0.15875-0.59972-0.22931-0.3175-0.0794-0.70555-0.0794-1.3758 0-2.1167 0.89958-0.73201 0.89076-0.73201 2.5665v5.2035h-1.6316v-9.8778h1.6316v1.5346q0.51153-0.89958 1.3317-1.3317 0.82021-0.44097 1.9932-0.44097 0.16757 0 0.37042 0.0265 0.20285 0.0176 0.44979 0.0617z" style=""/>
  </g>
  <path id="rect146" d="m700 280h40v40h-40z" fill="#ddd" stroke="#000" stroke-width="2"/>
  <g id="text152" aria-label="Variablecooper">
   <path id="path478" d="m705.17 250-5.0271-13.167h1.8609l4.1716 11.086 4.1804-11.086h1.8521l-5.0183 13.167z" style=""/>
   <path id="path480" d="m717.13 245.03q-1.9667 0-2.7252 0.44979-0.75848 0.44979-0.75848 1.5346 0 0.86431 0.56445 1.3758 0.57326 0.50271 1.5522 0.50271 1.3494 0 2.1608-0.9525 0.82021-0.96132 0.82021-2.5488v-0.3616zm3.2367-0.67028v5.6356h-1.6228v-1.4993q-0.55563 0.89958-1.3846 1.3317-0.82903 0.42333-2.0285 0.42333-1.517 0-2.4165-0.84666-0.89076-0.85549-0.89076-2.2842 0-1.6669 1.1112-2.5135 1.1201-0.84667 3.3337-0.84667h2.2754v-0.15875q0-1.1201-0.74084-1.7286-0.73201-0.61736-2.0637-0.61736-0.84667 0-1.6492 0.20285t-1.5434 0.60854v-1.4993q0.89076-0.34396 1.7286-0.51153 0.83785-0.17639 1.6316-0.17639 2.1431 0 3.2014 1.1112t1.0583 3.369z" style=""/>
   <path id="path482" d="m729.44 241.64q-0.2734-0.15875-0.59972-0.22931-0.3175-0.0794-0.70556-0.0794-1.3758 0-2.1167 0.89958-0.73201 0.89076-0.73201 2.5664v5.2035h-1.6316v-9.8778h1.6316v1.5346q0.51152-0.89959 1.3317-1.3317 0.82021-0.44097 1.9932-0.44097 0.16757 0 0.37042 0.0265 0.20285 0.0176 0.44979 0.0617z" style=""/>
   <path id="path484" d="m731.16 240.12h1.6228v9.8778h-1.6228zm0-3.8453h1.6228v2.0549h-1.6228z" style=""/>
   <path id="path486" d="m740.66 245.03q-1.9667 0-2.7252 0.44979-0.75847 0.44979-0.75847 1.5346 0 0.86431 0.56445 1.3758 0.57326 0.50271 1.5522 0.50271 1.3494 0 2.1608-0.9525 0.82021-0.96132 0.82021-2.5488v-0.3616zm3.2367-0.67028v5.6356h-1.6228v-1.4993q-0.55563 0.89958-1.3847 1.3317-0.82902 0.42333-2.0285 0.42333-1.5169 0-2.4165-0.84666-0.89076-0.85549-0.89076-2.2842 0-1.6669 1.1112-2.5135 1.1201-0.84667 3.3337-0.84667h2.2754v-0.15875q0-1.1201-0.74084-1.7286-0.73201-0.61736-2.0637-0.61736-0.84667 0-1.6492 0.20285t-1.5434 0.60854v-1.4993q0.89076-0.34396 1.7286-0.51153 0.83785-0.17639 1.6316-0.17639 2.1431 0 3.2015 1.1112t1.0583 3.369z" style=""/>
   <path id="path488" d="m754.34 245.07q0-1.7904-0.74083-2.8046-0.73201-1.0231-2.0196-1.0231t-2.0285 1.0231q-0.73201 1.0142-0.73201 2.8046 0 1.7903 0.73201 2.8134 0.74083 1.0142 2.0285 1.0142t2.0196-1.0142q0.74083-1.0231 0.74083-2.8134zm-5.521-3.4484q0.51152-0.88195 1.2876-1.3053 0.78493-0.43215 1.8697-0.43215 1.7992 0 2.9192 1.4288 1.1289 1.4288 1.1289 3.7571t-1.1289 3.7571q-1.1201 1.4287-2.9192 1.4287-1.0848 0-1.8697-0.42333-0.77611-0.43215-1.2876-1.3141v1.4817h-1.6316v-13.723h1.6316z" style=""/>
   <path id="path490" d="m758.71 236.28h1.6228v13.723h-1.6228z" style=""/>
   <path id="path492" d="m772.17 244.66v0.79375h-7.4612q0.10584 1.6757 1.0054 2.5576 0.9084 0.87312 2.5224 0.87312 0.93486 0 1.808-0.2293 0.88195-0.22931 1.7462-0.68792v1.5346q-0.87312 0.37042-1.7904 0.56445-0.91722 0.19402-1.8609 0.19402-2.3636 0-3.7483-1.3758-1.3758-1.3758-1.3758-3.7218 0-2.4253 1.3053-3.8453 1.3141-1.4288 3.5366-1.4288 1.9932 0 3.1485 1.2876 1.1642 1.2788 1.1642 3.4837zm-1.6228-0.47625q-0.0176-1.3317-0.74965-2.1255-0.7232-0.79375-1.9226-0.79375-1.3582 0-2.1784 0.76729-0.81139 0.76729-0.93486 2.1608z" style=""/>
   <path id="path494" d="m708.81 263.08v1.517q-0.68791-0.37924-1.3846-0.56445-0.68791-0.19403-1.3935-0.19403-1.5787 0-2.4518 1.0054-0.87312 0.9966-0.87312 2.8046t0.87312 2.8134q0.87312 0.99659 2.4518 0.99659 0.70556 0 1.3935-0.1852 0.69674-0.19403 1.3846-0.57327v1.4993q-0.67909 0.3175-1.4111 0.47625-0.7232 0.15875-1.5434 0.15875-2.2313 0-3.5454-1.4023-1.3141-1.4023-1.3141-3.7835 0-2.4165 1.3229-3.8012 1.3317-1.3846 3.6424-1.3846 0.74965 0 1.464 0.15875 0.71438 0.14993 1.3846 0.45861z" style=""/>
   <path id="path496" d="m715.48 263.84q-1.3053 0-2.0638 1.0231-0.75847 1.0142-0.75847 2.7869t0.74965 2.7958q0.75847 1.0142 2.0726 1.0142 1.2964 0 2.0549-1.023 0.75848-1.023 0.75848-2.7869 0-1.7551-0.75848-2.7781-0.75847-1.0319-2.0549-1.0319zm0-1.3758q2.1167 0 3.3249 1.3758 1.2083 1.3758 1.2083 3.81 0 2.4253-1.2083 3.81-1.2083 1.3758-3.3249 1.3758-2.1255 0-3.3338-1.3758-1.1994-1.3846-1.1994-3.81 0-2.4342 1.1994-3.81 1.2083-1.3758 3.3338-1.3758z" style=""/>
   <path id="path498" d="m726.52 263.84q-1.3053 0-2.0638 1.0231-0.75847 1.0142-0.75847 2.7869t0.74965 2.7958q0.75847 1.0142 2.0726 1.0142 1.2965 0 2.0549-1.023t0.75847-2.7869q0-1.7551-0.75847-2.7781-0.75847-1.0319-2.0549-1.0319zm0-1.3758q2.1167 0 3.3249 1.3758 1.2083 1.3758 1.2083 3.81 0 2.4253-1.2083 3.81-1.2083 1.3758-3.3249 1.3758-2.1255 0-3.3338-1.3758-1.1994-1.3846-1.1994-3.81 0-2.4342 1.1994-3.81 1.2083-1.3758 3.3338-1.3758z" style=""/>
   <path id="path500" d="m735.3 271.1v5.2387h-1.6316v-13.635h1.6316v1.4993q0.51153-0.88194 1.2876-1.3053 0.78493-0.43215 1.8697-0.43215 1.7992 0 2.9192 1.4288 1.1289 1.4288 1.1289 3.7571t-1.1289 3.7571q-1.1201 1.4288-2.9192 1.4288-1.0848 0-1.8697-0.42334-0.77611-0.43215-1.2876-1.3141zm5.521-3.4484q0-1.7904-0.74083-2.8046-0.73202-1.023-2.0196-1.023-1.2876 0-2.0285 1.023-0.73202 1.0142-0.73202 2.8046 0 1.7903 0.73202 2.8134 0.74083 1.0142 2.0285 1.0142 1.2876 0 2.0196-1.0142 0.74083-1.0231 0.74083-2.8134z" style=""/>
   <path id="path502" d="m753.65 267.23v0.79375h-7.4612q0.10583 1.6757 1.0054 2.5576 0.9084 0.87312 2.5224 0.87312 0.93486 0 1.808-0.2293 0.88195-0.22931 1.7462-0.68792v1.5346q-0.87312 0.37041-1.7903 0.56444-0.91723 0.19403-1.8609 0.19403-2.3636 0-3.7483-1.3758-1.3758-1.3758-1.3758-3.7218 0-2.4253 1.3053-3.8453 1.3141-1.4288 3.5366-1.4288 1.9932 0 3.1485 1.2876 1.1642 1.2788 1.1642 3.4837zm-1.6228-0.47625q-0.0176-1.3317-0.74965-2.1255-0.72319-0.79375-1.9226-0.79375-1.3582 0-2.1784 0.76729-0.81139 0.7673-0.93486 2.1608z" style=""/>
   <path id="path504" d="m762.04 264.22q-0.2734-0.15875-0.59972-0.22931-0.3175-0.0794-0.70556-0.0794-1.3758 0-2.1167 0.89958-0.73201 0.89076-0.73201 2.5665v5.2035h-1.6316v-9.8778h1.6316v1.5346q0.51152-0.89958 1.3317-1.3317 0.82021-0.44097 1.9932-0.44097 0.16757 0 0.37042 0.0265 0.20285 0.0176 0.44979 0.0617z" style=""/>
  </g>
  <path id="rect154" d="m700 400h40v40h-40z" fill="#ddd" stroke="#000" stroke-width="2"/>
  <g id="text160" aria-label="Variablefletcher">
   <path id="path508" d="m705.17 370-5.0271-13.167h1.8609l4.1716 11.086 4.1804-11.086h1.8521l-5.0183 13.167z" style=""/>
   <path id="path510" d="m717.13 365.03q-1.9667 0-2.7252 0.44979-0.75848 0.44979-0.75848 1.5346 0 0.86431 0.56445 1.3758 0.57326 0.50271 1.5522 0.50271 1.3494 0 2.1608-0.9525 0.82021-0.96132 0.82021-2.5488v-0.3616zm3.2367-0.67028v5.6356h-1.6228v-1.4993q-0.55563 0.89958-1.3846 1.3317-0.82903 0.42333-2.0285 0.42333-1.517 0-2.4165-0.84666-0.89076-0.85549-0.89076-2.2842 0-1.6669 1.1112-2.5135 1.1201-0.84667 3.3337-0.84667h2.2754v-0.15875q0-1.1201-0.74084-1.7286-0.73201-0.61736-2.0637-0.61736-0.84667 0-1.6492 0.20285t-1.5434 0.60854v-1.4993q0.89076-0.34396 1.7286-0.51153 0.83785-0.17639 1.6316-0.17639 2.1431 0 3.2014 1.1112t1.0583 3.369z" style=""/>
   <path id="path512" d="m729.44 361.64q-0.2734-0.15875-0.59972-0.22931-0.3175-0.0794-0.70556-0.0794-1.3758 0-2.1167 0.89958-0.73201 0.89076-0.73201 2.5664v5.2035h-1.6316v-9.8778h1.6316v1.5346q0.51152-0.89959 1.3317-1.3317 0.82021-0.44097 1.9932-0.44097 0.16757 0 0.37042 0.0265 0.20285 0.0176 0.44979 0.0617z" style=""/>
   <path id="path514" d="m731.16 360.12h1.6228v9.8778h-1.6228zm0-3.8453h1.6228v2.0549h-1.6228z" style=""/>
   <path id="path516" d="m740.66 365.03q-1.9667 0-2.7252 0.44979-0.75847 0.44979-0.75847 1.5346 0 0.86431 0.56445 1.3758 0.57326 0.50271 1.5522 0.50271 1.3494 0 2.1608-0.9525 0.82021-0.96132 0.82021-2.5488v-0.3616zm3.2367-0.67028v5.6356h-1.6228v-1.4993q-0.55563 0.89958-1.3847 1.3317-0.82902 0.42333-2.0285 0.42333-1.5169 0-2.4165-0.84666-0.89076-0.85549-0.89076-2.2842 0-1.6669 1.1112-2.5135 1.1201-0.84667 3.3337-0.84667h2.2754v-0.15875q0-1.1201-0.74084-1.7286-0.73201-0.61736-2.0637-0.61736-0.84667 0-1.6492 0.20285t-1.5434 0.60854v-1.4993q0.89076-0.34396 1.7286-0.51153 0.83785-0.17639 1.6316-0.17639 2.1431 0 3.2015 1.1112t1.0583 3.369z" style=""/>
   <path id="path518" d="m754.34 365.07q0-1.7904-0.74083-2.8046-0.73201-1.0231-2.0196-1.0231t-2.0285 1.0231q-0.73201 1.0142-0.73201 2.8046 0 1.7903 0.73201 2.8134 0.74083 1.0142 2.0285 1.0142t2.0196-1.0142q0.74083-1.0231 0.74083-2.8134zm-5.521-3.4484q0.51152-0.88195 1.2876-1.3053 0.78493-0.43215 1.8697-0.43215 1.7992 0 2.9192 1.4288 1.1289 1.4288 1.1289 3.7571t-1.1289 3.7571q-1.1201 1.4287-2.9192 1.4287-1.0848 0-1.8697-0.42333-0.77611-0.43215-1.2876-1.3141v1.4817h-1.6316v-13.723h1.6316z" style=""/>
   <path id="path520" d="m758.71 356.28h1.6228v13.723h-1.6228z" style=""/>
   <path id="path522" d="m772.17 364.66v0.79375h-7.4612q0.10584 1.6757 1.0054 2.5576 0.9084 0.87312 2.5224 0.87312 0.93486 0 1.808-0.2293 0.88195-0.22931 1.7462-0.68792v1.5346q-0.87312 0.37042-1.7904 0.56445-0.91722 0.19402-1.8609 0.19402-2.3636 0-3.7483-1.3758-1.3758-1.3758-1.3758-3.7218 0-2.4253 1.3053-3.8453 1.3141-1.4288 3.5366-1.4288 1.9932 0 3.1485 1.2876 1.1642 1.2788 1.1642 3.4837zm-1.6228-0.47625q-0.0176-1.3317-0.74965-2.1255-0.7232-0.79375-1.9226-0.79375-1.3582 0-2.1784 0.76729-0.81139 0.76729-0.93486 2.1608z" style=""/>
   <path id="path524" d="m705.17 378.85h4.5156v13.723h-1.6316v-12.374h-2.9016q-0.87312 0-1.2171 0.35277-0.33514 0.35278-0.33514 1.27v0.87313h2.6723v1.2612h-2.6723v8.6166h-1.6316v-8.6166h-1.5522v-1.2612h1.5522v-0.68792q0-1.6492 0.76729-2.3989 0.7673-0.75848 2.4342-0.75848z" style=""/>
   <path id="path526" d="m721.55 387.23v0.79375h-7.4612q0.10583 1.6757 1.0054 2.5576 0.9084 0.87312 2.5224 0.87312 0.93486 0 1.808-0.2293 0.88195-0.22931 1.7462-0.68792v1.5346q-0.87312 0.37041-1.7903 0.56444t-1.8609 0.19403q-2.3636 0-3.7483-1.3758-1.3758-1.3758-1.3758-3.7218 0-2.4253 1.3053-3.8453 1.3141-1.4288 3.5366-1.4288 1.9932 0 3.1485 1.2876 1.1642 1.2788 1.1642 3.4837zm-1.6228-0.47625q-0.0176-1.3317-0.74965-2.1255-0.72319-0.79375-1.9226-0.79375-1.3582 0-2.1784 0.76729-0.81139 0.7673-0.93486 2.1608z" style=""/>
   <path id="path528" d="m725.81 379.9v2.8046h3.3426v1.2612h-3.3426v5.3622q0 1.2083 0.32632 1.5522 0.33514 0.34396 1.3494 0.34396h1.6669v1.3582h-1.6669q-1.8785 0-2.5929-0.69673-0.71437-0.70556-0.71437-2.5576v-5.3622h-1.1906v-1.2612h1.1906v-2.8046z" style=""/>
   <path id="path530" d="m738.41 383.08v1.517q-0.68791-0.37924-1.3846-0.56445-0.68791-0.19403-1.3935-0.19403-1.5787 0-2.4518 1.0054-0.87312 0.9966-0.87312 2.8046t0.87312 2.8134q0.87312 0.99659 2.4518 0.99659 0.70556 0 1.3935-0.1852 0.69674-0.19403 1.3846-0.57327v1.4993q-0.67909 0.3175-1.4111 0.47625-0.7232 0.15875-1.5434 0.15875-2.2313 0-3.5454-1.4023-1.3141-1.4023-1.3141-3.7835 0-2.4165 1.3229-3.8012 1.3317-1.3846 3.6424-1.3846 0.74965 0 1.464 0.15875 0.71438 0.14993 1.3846 0.45861z" style=""/>
   <path id="path532" d="m749.46 386.62v5.9619h-1.6228v-5.909q0-1.4023-0.54681-2.099-0.5468-0.69674-1.6404-0.69674-1.3141 0-2.0726 0.83785-0.75847 0.83784-0.75847 2.2842v5.5827h-1.6316v-13.723h1.6316v5.3799q0.58208-0.89076 1.367-1.3317 0.79375-0.44097 1.8256-0.44097 1.7022 0 2.5753 1.0583 0.87312 1.0495 0.87312 3.0956z" style=""/>
   <path id="path534" d="m761.16 387.23v0.79375h-7.4612q0.10583 1.6757 1.0054 2.5576 0.9084 0.87312 2.5224 0.87312 0.93486 0 1.808-0.2293 0.88194-0.22931 1.7462-0.68792v1.5346q-0.87313 0.37041-1.7904 0.56444t-1.8609 0.19403q-2.3636 0-3.7483-1.3758-1.3758-1.3758-1.3758-3.7218 0-2.4253 1.3053-3.8453 1.3141-1.4288 3.5366-1.4288 1.9932 0 3.1485 1.2876 1.1642 1.2788 1.1642 3.4837zm-1.6228-0.47625q-0.0176-1.3317-0.74966-2.1255-0.72319-0.79375-1.9226-0.79375-1.3582 0-2.1784 0.76729-0.81139 0.7673-0.93486 2.1608z" style=""/>
   <path id="path536" d="m769.55 384.22q-0.27341-0.15875-0.59973-0.22931-0.3175-0.0794-0.70555-0.0794-1.3758 0-2.1167 0.89958-0.73202 0.89076-0.73202 2.5665v5.2035h-1.6316v-9.8778h1.6316v1.5346q0.51153-0.89958 1.3317-1.3317 0.8202-0.44097 1.9932-0.44097 0.16757 0 0.37041 0.0265 0.20285 0.0176 0.4498 0.0617z" style=""/>
  </g>
  <g id="g166" fill="none" stroke="#000" stroke-width="2">
   <path id="line162" d="m700 180h-135.53"/>
   <path id="polyline164" d="m572.24 175-10 5 10 5"/>
  </g>
  <g id="g172" fill="none" stroke="#000" stroke-width="2">
   <path id="line168" d="m700 300h-135.53"/>
   <path id="polyline170" d="m572.24 295-10 5 10 5"/>
  </g>
  <g id="g178" fill="none" stroke="#000" stroke-width="2">
   <path id="line174" d="m700 420h-135.53"/>
   <path id="polyline176" d="m572.24 415-10 5 10 5"/>
  </g>
  <path id="rect180" d="m860 220h40v40h-40z" fill="#ddd" stroke="#000" stroke-width="2"/>
  <g id="text186" aria-label="Constraintbaker≠cooper">
   <path id="path546" d="m871.63 177.85v1.8785q-0.89958-0.83785-1.9226-1.2524-1.0142-0.41451-2.1608-0.41451-2.2578 0-3.4572 1.3846-1.1994 1.3758-1.1994 3.9864 0 2.6017 1.1994 3.9864 1.1994 1.3758 3.4572 1.3758 1.1465 0 2.1608-0.41452 1.023-0.41451 1.9226-1.2524v1.8609q-0.93486 0.63499-1.9844 0.95249-1.0407 0.3175-2.2049 0.3175-2.9898 0-4.7096-1.8256-1.7198-1.8344-1.7198-5.0006 0-3.175 1.7198-5.0006 1.7198-1.8344 4.7096-1.8344 1.1818 0 2.2225 0.3175 1.0495 0.30868 1.9667 0.93486z" style=""/>
   <path id="path548" d="m878.16 181.26q-1.3053 0-2.0637 1.0231-0.75847 1.0142-0.75847 2.7869 0 1.7727 0.74965 2.7958 0.75847 1.0142 2.0726 1.0142 1.2965 0 2.0549-1.023 0.75847-1.0231 0.75847-2.7869 0-1.7551-0.75847-2.7781-0.75847-1.0319-2.0549-1.0319zm0-1.3758q2.1167 0 3.3249 1.3758t1.2083 3.81q0 2.4253-1.2083 3.81-1.2083 1.3758-3.3249 1.3758-2.1255 0-3.3337-1.3758-1.1994-1.3846-1.1994-3.81 0-2.4342 1.1994-3.81 1.2083-1.3758 3.3337-1.3758z" style=""/>
   <path id="path550" d="m893.58 184.04v5.9619h-1.6228v-5.909q0-1.4023-0.54681-2.099-0.5468-0.69673-1.6404-0.69673-1.3141 0-2.0726 0.83784-0.75847 0.83785-0.75847 2.2842v5.5827h-1.6316v-9.8778h1.6316v1.5346q0.58208-0.89077 1.367-1.3317 0.79375-0.44097 1.8256-0.44097 1.7022 0 2.5753 1.0583 0.87312 1.0495 0.87312 3.0956z" style=""/>
   <path id="path552" d="m903.14 180.41v1.5346q-0.68792-0.35278-1.4288-0.52917t-1.5346-0.17639q-1.2083 0-1.8168 0.37042-0.59972 0.37041-0.59972 1.1112 0 0.56444 0.43215 0.89076 0.43215 0.3175 1.7374 0.60854l0.55562 0.12347q1.7286 0.37042 2.4518 1.0495 0.73202 0.67027 0.73202 1.8785 0 1.3758-1.0936 2.1784-1.0848 0.80256-2.9898 0.80256-0.79375 0-1.6581-0.15875-0.85548-0.14993-1.808-0.45861v-1.6757q0.89958 0.46743 1.7727 0.70556 0.87312 0.2293 1.7286 0.2293 1.1465 0 1.7639-0.38805 0.61736-0.39688 0.61736-1.1112 0-0.66146-0.44979-1.0142-0.44097-0.35278-1.9491-0.67909l-0.56445-0.1323q-1.5081-0.3175-2.1784-0.97013-0.67027-0.66146-0.67027-1.808 0-1.3935 0.98777-2.1519 0.98778-0.75847 2.8046-0.75847 0.89958 0 1.6933 0.13229t1.464 0.39688z" style=""/>
   <path id="path554" d="m907.86 177.32v2.8046h3.3426v1.2612h-3.3426v5.3622q0 1.2083 0.32632 1.5522 0.33513 0.34396 1.3494 0.34396h1.6669v1.3582h-1.6669q-1.8785 0-2.5929-0.69674-0.71438-0.70555-0.71438-2.5576v-5.3622h-1.1906v-1.2612h1.1906v-2.8046z" style=""/>
   <path id="path556" d="m919.07 181.64q-0.27341-0.15875-0.59973-0.22931-0.3175-0.0794-0.70555-0.0794-1.3758 0-2.1167 0.89958-0.73202 0.89076-0.73202 2.5664v5.2035h-1.6316v-9.8778h1.6316v1.5346q0.51153-0.89959 1.3317-1.3317 0.8202-0.44097 1.9932-0.44097 0.16757 0 0.37042 0.0265 0.20284 0.0176 0.44979 0.0617z" style=""/>
   <path id="path558" d="m925.28 185.03q-1.9667 0-2.7252 0.44979t-0.75847 1.5346q0 0.86431 0.56445 1.3758 0.57326 0.50271 1.5522 0.50271 1.3494 0 2.1608-0.9525 0.82021-0.96132 0.82021-2.5488v-0.3616zm3.2367-0.67028v5.6356h-1.6228v-1.4993q-0.55563 0.89958-1.3847 1.3317-0.82902 0.42333-2.0285 0.42333-1.5169 0-2.4165-0.84666-0.89076-0.85549-0.89076-2.2842 0-1.6669 1.1112-2.5135 1.1201-0.84667 3.3337-0.84667h2.2754v-0.15875q0-1.1201-0.74084-1.7286-0.73201-0.61736-2.0637-0.61736-0.84667 0-1.6492 0.20285t-1.5434 0.60854v-1.4993q0.89076-0.34396 1.7286-0.51153 0.83785-0.17639 1.6316-0.17639 2.1431 0 3.2015 1.1112t1.0583 3.369z" style=""/>
   <path id="path560" d="m931.87 180.12h1.6228v9.8778h-1.6228zm0-3.8453h1.6228v2.0549h-1.6228z" style=""/>
   <path id="path562" d="m945.09 184.04v5.9619h-1.6228v-5.909q0-1.4023-0.54681-2.099-0.5468-0.69673-1.6404-0.69673-1.3141 0-2.0726 0.83784-0.75847 0.83785-0.75847 2.2842v5.5827h-1.6316v-9.8778h1.6316v1.5346q0.58208-0.89077 1.367-1.3317 0.79375-0.44097 1.8256-0.44097 1.7022 0 2.5753 1.0583 0.87312 1.0495 0.87312 3.0956z" style=""/>
   <path id="path564" d="m949.95 177.32v2.8046h3.3426v1.2612h-3.3426v5.3622q0 1.2083 0.32632 1.5522 0.33514 0.34396 1.3494 0.34396h1.6669v1.3582h-1.6669q-1.8785 0-2.5929-0.69674-0.71438-0.70555-0.71438-2.5576v-5.3622h-1.1906v-1.2612h1.1906v-2.8046z" style=""/>
   <path id="path566" d="m868.79 207.65q0-1.7904-0.74084-2.8046-0.73201-1.023-2.0196-1.023-1.2876 0-2.0285 1.023-0.73201 1.0142-0.73201 2.8046 0 1.7903 0.73201 2.8134 0.74084 1.0142 2.0285 1.0142 1.2876 0 2.0196-1.0142 0.74084-1.0231 0.74084-2.8134zm-5.521-3.4484q0.51153-0.88194 1.2876-1.3053 0.78493-0.43215 1.8697-0.43215 1.7992 0 2.9192 1.4288 1.1289 1.4288 1.1289 3.7571t-1.1289 3.7571q-1.1201 1.4288-2.9192 1.4288-1.0848 0-1.8697-0.42334-0.77611-0.43215-1.2876-1.3141v1.4817h-1.6316v-13.723h1.6316z" style=""/>
   <path id="path568" d="m877.66 207.61q-1.9667 0-2.7252 0.44979t-0.75847 1.5346q0 0.86431 0.56444 1.3758 0.57327 0.5027 1.5522 0.5027 1.3494 0 2.1608-0.9525 0.8202-0.96131 0.8202-2.5488v-0.3616zm3.2367-0.67028v5.6356h-1.6228v-1.4993q-0.55562 0.89958-1.3846 1.3317-0.82902 0.42334-2.0285 0.42334-1.5169 0-2.4165-0.84667-0.89077-0.85548-0.89077-2.2842 0-1.6669 1.1112-2.5135 1.1201-0.84667 3.3338-0.84667h2.2754v-0.15875q0-1.1201-0.74083-1.7286-0.73201-0.61736-2.0638-0.61736-0.84666 0-1.6492 0.20285t-1.5434 0.60854v-1.4993q0.89076-0.34396 1.7286-0.51153 0.83784-0.17639 1.6316-0.17639 2.1431 0 3.2015 1.1112 1.0583 1.1112 1.0583 3.369z" style=""/>
   <path id="path570" d="m884.18 198.85h1.6316v8.1051l4.8419-4.2598h2.0726l-5.2387 4.6214 5.4592 5.2564h-2.1167l-5.0183-4.8242v4.8242h-1.6316z" style=""/>
   <path id="path572" d="m902.54 207.23v0.79375h-7.4612q0.10583 1.6757 1.0054 2.5576 0.9084 0.87312 2.5224 0.87312 0.93486 0 1.808-0.2293 0.88195-0.22931 1.7462-0.68792v1.5346q-0.87312 0.37041-1.7903 0.56444t-1.8609 0.19403q-2.3636 0-3.7483-1.3758-1.3758-1.3758-1.3758-3.7218 0-2.4253 1.3053-3.8453 1.3141-1.4288 3.5366-1.4288 1.9932 0 3.1485 1.2876 1.1642 1.2788 1.1642 3.4837zm-1.6228-0.47625q-0.0176-1.3317-0.74965-2.1255-0.72319-0.79375-1.9226-0.79375-1.3582 0-2.1784 0.76729-0.81138 0.7673-0.93486 2.1608z" style=""/>
   <path id="path574" d="m910.92 204.22q-0.2734-0.15875-0.59972-0.22931-0.3175-0.0794-0.70555-0.0794-1.3758 0-2.1167 0.89958-0.73201 0.89076-0.73201 2.5665v5.2035h-1.6316v-9.8778h1.6316v1.5346q0.51153-0.89958 1.3317-1.3317 0.82021-0.44097 1.9932-0.44097 0.16757 0 0.37042 0.0265 0.20285 0.0176 0.44979 0.0617z" style=""/>
   <path id="path576" d="m912.85 204.38h6.8086l2.2578-2.7781 1.1024 0.89958-1.5346 1.8785h2.6723v1.4817h-3.8806l-1.7198 2.1167h5.6003v1.4993h-6.8262l-2.2754 2.7605-1.1024-0.89959 1.5346-1.8609h-2.637v-1.4993h3.8629l1.7198-2.1167h-5.5827z" style=""/>
   <path id="path578" d="m934.89 203.08v1.517q-0.68792-0.37924-1.3846-0.56445-0.68792-0.19403-1.3935-0.19403-1.5787 0-2.4518 1.0054-0.87313 0.9966-0.87313 2.8046t0.87313 2.8134q0.87312 0.99659 2.4518 0.99659 0.70555 0 1.3935-0.1852 0.69673-0.19403 1.3846-0.57327v1.4993q-0.6791 0.3175-1.4111 0.47625-0.72319 0.15875-1.5434 0.15875-2.2313 0-3.5454-1.4023-1.3141-1.4023-1.3141-3.7835 0-2.4165 1.3229-3.8012 1.3317-1.3846 3.6424-1.3846 0.74965 0 1.464 0.15875 0.71437 0.14993 1.3846 0.45861z" style=""/>
   <path id="path580" d="m941.55 203.84q-1.3053 0-2.0638 1.0231-0.75847 1.0142-0.75847 2.7869t0.74965 2.7958q0.75847 1.0142 2.0726 1.0142 1.2964 0 2.0549-1.023 0.75848-1.023 0.75848-2.7869 0-1.7551-0.75848-2.7781-0.75847-1.0319-2.0549-1.0319zm0-1.3758q2.1167 0 3.3249 1.3758 1.2083 1.3758 1.2083 3.81 0 2.4253-1.2083 3.81-1.2083 1.3758-3.3249 1.3758-2.1255 0-3.3338-1.3758-1.1994-1.3846-1.1994-3.81 0-2.4342 1.1994-3.81 1.2083-1.3758 3.3338-1.3758z" style=""/>
   <path id="path582" d="m952.6 203.84q-1.3053 0-2.0638 1.0231-0.75847 1.0142-0.75847 2.7869t0.74965 2.7958q0.75847 1.0142 2.0726 1.0142 1.2964 0 2.0549-1.023 0.75847-1.023 0.75847-2.7869 0-1.7551-0.75847-2.7781-0.75848-1.0319-2.0549-1.0319zm0-1.3758q2.1167 0 3.3249 1.3758 1.2083 1.3758 1.2083 3.81 0 2.4253-1.2083 3.81-1.2083 1.3758-3.3249 1.3758-2.1255 0-3.3338-1.3758-1.1994-1.3846-1.1994-3.81 0-2.4342 1.1994-3.81 1.2083-1.3758 3.3338-1.3758z" style=""/>
   <path id="path584" d="m961.38 211.1v5.2387h-1.6316v-13.635h1.6316v1.4993q0.51153-0.88194 1.2876-1.3053 0.78493-0.43215 1.8697-0.43215 1.7992 0 2.9192 1.4288 1.1289 1.4288 1.1289 3.7571t-1.1289 3.7571q-1.1201 1.4288-2.9192 1.4288-1.0848 0-1.8697-0.42334-0.77611-0.43215-1.2876-1.3141zm5.521-3.4484q0-1.7904-0.74083-2.8046-0.73202-1.023-2.0196-1.023-1.2876 0-2.0285 1.023-0.73202 1.0142-0.73202 2.8046 0 1.7903 0.73202 2.8134 0.74083 1.0142 2.0285 1.0142 1.2876 0 2.0196-1.0142 0.74083-1.0231 0.74083-2.8134z" style=""/>
   <path id="path586" d="m979.72 207.23v0.79375h-7.4612q0.10584 1.6757 1.0054 2.5576 0.9084 0.87312 2.5224 0.87312 0.93486 0 1.808-0.2293 0.88195-0.22931 1.7462-0.68792v1.5346q-0.87312 0.37041-1.7904 0.56444-0.91722 0.19403-1.8609 0.19403-2.3636 0-3.7483-1.3758-1.3758-1.3758-1.3758-3.7218 0-2.4253 1.3053-3.8453 1.3141-1.4288 3.5366-1.4288 1.9932 0 3.1485 1.2876 1.1642 1.2788 1.1642 3.4837zm-1.6228-0.47625q-0.0176-1.3317-0.74965-2.1255-0.7232-0.79375-1.9226-0.79375-1.3582 0-2.1784 0.76729-0.81139 0.7673-0.93486 2.1608z" style=""/>
   <path id="path588" d="m988.11 204.22q-0.2734-0.15875-0.59972-0.22931-0.3175-0.0794-0.70556-0.0794-1.3758 0-2.1167 0.89958-0.73202 0.89076-0.73202 2.5665v5.2035h-1.6316v-9.8778h1.6316v1.5346q0.51153-0.89958 1.3317-1.3317 0.82021-0.44097 1.9932-0.44097 0.16757 0 0.37042 0.0265 0.20284 0.0176 0.44979 0.0617z" style=""/>
  </g>
  <path id="rect188" d="m860 340h40v40h-40z" fill="#ddd" stroke="#000" stroke-width="2"/>
  <g id="text194" aria-label="Constraint|cooper-fletcher|≠1">
   <path id="path592" d="m871.63 387.85v1.8785q-0.89958-0.83785-1.9226-1.2524-1.0142-0.41451-2.1608-0.41451-2.2578 0-3.4572 1.3846-1.1994 1.3758-1.1994 3.9864 0 2.6017 1.1994 3.9864 1.1994 1.3758 3.4572 1.3758 1.1465 0 2.1608-0.41452 1.023-0.41451 1.9226-1.2524v1.8609q-0.93486 0.63499-1.9844 0.95249-1.0407 0.3175-2.2049 0.3175-2.9898 0-4.7096-1.8256-1.7198-1.8344-1.7198-5.0006 0-3.175 1.7198-5.0006 1.7198-1.8344 4.7096-1.8344 1.1818 0 2.2225 0.3175 1.0495 0.30868 1.9667 0.93486z" style=""/>
   <path id="path594" d="m878.16 391.26q-1.3053 0-2.0637 1.0231-0.75847 1.0142-0.75847 2.7869 0 1.7727 0.74965 2.7958 0.75847 1.0142 2.0726 1.0142 1.2965 0 2.0549-1.023 0.75847-1.0231 0.75847-2.7869 0-1.7551-0.75847-2.7781-0.75847-1.0319-2.0549-1.0319zm0-1.3758q2.1167 0 3.3249 1.3758t1.2083 3.81q0 2.4253-1.2083 3.81-1.2083 1.3758-3.3249 1.3758-2.1255 0-3.3337-1.3758-1.1994-1.3846-1.1994-3.81 0-2.4342 1.1994-3.81 1.2083-1.3758 3.3337-1.3758z" style=""/>
   <path id="path596" d="m893.58 394.04v5.9619h-1.6228v-5.909q0-1.4023-0.54681-2.099-0.5468-0.69673-1.6404-0.69673-1.3141 0-2.0726 0.83784-0.75847 0.83785-0.75847 2.2842v5.5827h-1.6316v-9.8778h1.6316v1.5346q0.58208-0.89077 1.367-1.3317 0.79375-0.44097 1.8256-0.44097 1.7022 0 2.5753 1.0583 0.87312 1.0495 0.87312 3.0956z" style=""/>
   <path id="path598" d="m903.14 390.41v1.5346q-0.68792-0.35278-1.4288-0.52917t-1.5346-0.17639q-1.2083 0-1.8168 0.37042-0.59972 0.37041-0.59972 1.1112 0 0.56444 0.43215 0.89076 0.43215 0.3175 1.7374 0.60854l0.55562 0.12347q1.7286 0.37042 2.4518 1.0495 0.73202 0.67027 0.73202 1.8785 0 1.3758-1.0936 2.1784-1.0848 0.80256-2.9898 0.80256-0.79375 0-1.6581-0.15875-0.85548-0.14993-1.808-0.45861v-1.6757q0.89958 0.46743 1.7727 0.70556 0.87312 0.2293 1.7286 0.2293 1.1465 0 1.7639-0.38805 0.61736-0.39688 0.61736-1.1112 0-0.66146-0.44979-1.0142-0.44097-0.35278-1.9491-0.67909l-0.56445-0.1323q-1.5081-0.3175-2.1784-0.97013-0.67027-0.66146-0.67027-1.808 0-1.3935 0.98777-2.1519 0.98778-0.75847 2.8046-0.75847 0.89958 0 1.6933 0.13229t1.464 0.39688z" style=""/>
   <path id="path600" d="m907.86 387.32v2.8046h3.3426v1.2612h-3.3426v5.3622q0 1.2083 0.32632 1.5522 0.33513 0.34396 1.3494 0.34396h1.6669v1.3582h-1.6669q-1.8785 0-2.5929-0.69674-0.71438-0.70555-0.71438-2.5576v-5.3622h-1.1906v-1.2612h1.1906v-2.8046z" style=""/>
   <path id="path602" d="m919.07 391.64q-0.27341-0.15875-0.59973-0.22931-0.3175-0.0794-0.70555-0.0794-1.3758 0-2.1167 0.89958-0.73202 0.89076-0.73202 2.5664v5.2035h-1.6316v-9.8778h1.6316v1.5346q0.51153-0.89959 1.3317-1.3317 0.8202-0.44097 1.9932-0.44097 0.16757 0 0.37042 0.0265 0.20284 0.0176 0.44979 0.0617z" style=""/>
   <path id="path604" d="m925.28 395.03q-1.9667 0-2.7252 0.44979t-0.75847 1.5346q0 0.86431 0.56445 1.3758 0.57326 0.50271 1.5522 0.50271 1.3494 0 2.1608-0.9525 0.82021-0.96132 0.82021-2.5488v-0.3616zm3.2367-0.67028v5.6356h-1.6228v-1.4993q-0.55563 0.89958-1.3847 1.3317-0.82902 0.42333-2.0285 0.42333-1.5169 0-2.4165-0.84666-0.89076-0.85549-0.89076-2.2842 0-1.6669 1.1112-2.5135 1.1201-0.84667 3.3337-0.84667h2.2754v-0.15875q0-1.1201-0.74084-1.7286-0.73201-0.61736-2.0637-0.61736-0.84667 0-1.6492 0.20285t-1.5434 0.60854v-1.4993q0.89076-0.34396 1.7286-0.51153 0.83785-0.17639 1.6316-0.17639 2.1431 0 3.2015 1.1112t1.0583 3.369z" style=""/>
   <path id="path606" d="m931.87 390.12h1.6228v9.8778h-1.6228zm0-3.8453h1.6228v2.0549h-1.6228z" style=""/>
   <path id="path608" d="m945.09 394.04v5.9619h-1.6228v-5.909q0-1.4023-0.54681-2.099-0.5468-0.69673-1.6404-0.69673-1.3141 0-2.0726 0.83784-0.75847 0.83785-0.75847 2.2842v5.5827h-1.6316v-9.8778h1.6316v1.5346q0.58208-0.89077 1.367-1.3317 0.79375-0.44097 1.8256-0.44097 1.7022 0 2.5753 1.0583 0.87312 1.0495 0.87312 3.0956z" style=""/>
   <path id="path610" d="m949.95 387.32v2.8046h3.3426v1.2612h-3.3426v5.3622q0 1.2083 0.32632 1.5522 0.33514 0.34396 1.3494 0.34396h1.6669v1.3582h-1.6669q-1.8785 0-2.5929-0.69674-0.71438-0.70555-0.71438-2.5576v-5.3622h-1.1906v-1.2612h1.1906v-2.8046z" style=""/>
   <path id="path612" d="m863.79 408.78v18.062h-1.4993v-18.062z" style=""/>
   <path id="path614" d="m874.91 413.08v1.517q-0.68791-0.37924-1.3846-0.56445-0.68791-0.19403-1.3935-0.19403-1.5787 0-2.4518 1.0054-0.87313 0.9966-0.87313 2.8046t0.87313 2.8134q0.87312 0.99659 2.4518 0.99659 0.70556 0 1.3935-0.1852 0.69674-0.19403 1.3846-0.57327v1.4993q-0.67909 0.3175-1.4111 0.47625-0.72319 0.15875-1.5434 0.15875-2.2313 0-3.5454-1.4023t-1.3141-3.7835q0-2.4165 1.3229-3.8012 1.3317-1.3846 3.6424-1.3846 0.74965 0 1.464 0.15875 0.71438 0.14993 1.3846 0.45861z" style=""/>
   <path id="path616" d="m881.58 413.84q-1.3053 0-2.0637 1.0231-0.75848 1.0142-0.75848 2.7869t0.74966 2.7958q0.75847 1.0142 2.0726 1.0142 1.2965 0 2.0549-1.023t0.75847-2.7869q0-1.7551-0.75847-2.7781-0.75847-1.0319-2.0549-1.0319zm0-1.3758q2.1167 0 3.3249 1.3758 1.2083 1.3758 1.2083 3.81 0 2.4253-1.2083 3.81-1.2083 1.3758-3.3249 1.3758-2.1255 0-3.3337-1.3758-1.1994-1.3846-1.1994-3.81 0-2.4342 1.1994-3.81 1.2083-1.3758 3.3337-1.3758z" style=""/>
   <path id="path618" d="m892.62 413.84q-1.3053 0-2.0637 1.0231-0.75847 1.0142-0.75847 2.7869t0.74965 2.7958q0.75847 1.0142 2.0726 1.0142 1.2965 0 2.0549-1.023t0.75847-2.7869q0-1.7551-0.75847-2.7781-0.75847-1.0319-2.0549-1.0319zm0-1.3758q2.1167 0 3.3249 1.3758 1.2083 1.3758 1.2083 3.81 0 2.4253-1.2083 3.81-1.2083 1.3758-3.3249 1.3758-2.1255 0-3.3337-1.3758-1.1994-1.3846-1.1994-3.81 0-2.4342 1.1994-3.81 1.2083-1.3758 3.3337-1.3758z" style=""/>
   <path id="path620" d="m901.41 421.1v5.2387h-1.6316v-13.635h1.6316v1.4993q0.51153-0.88194 1.2876-1.3053 0.78493-0.43215 1.8697-0.43215 1.7992 0 2.9192 1.4288 1.1289 1.4288 1.1289 3.7571t-1.1289 3.7571q-1.1201 1.4288-2.9192 1.4288-1.0848 0-1.8697-0.42334-0.77611-0.43215-1.2876-1.3141zm5.521-3.4484q0-1.7904-0.74084-2.8046-0.73201-1.023-2.0196-1.023-1.2876 0-2.0285 1.023-0.73201 1.0142-0.73201 2.8046 0 1.7903 0.73201 2.8134 0.74084 1.0142 2.0285 1.0142 1.2876 0 2.0196-1.0142 0.74084-1.0231 0.74084-2.8134z" style=""/>
   <path id="path622" d="m919.75 417.23v0.79375h-7.4612q0.10583 1.6757 1.0054 2.5576 0.9084 0.87312 2.5224 0.87312 0.93486 0 1.808-0.2293 0.88194-0.22931 1.7462-0.68792v1.5346q-0.87313 0.37041-1.7904 0.56444t-1.8609 0.19403q-2.3636 0-3.7483-1.3758-1.3758-1.3758-1.3758-3.7218 0-2.4253 1.3053-3.8453 1.3141-1.4288 3.5366-1.4288 1.9932 0 3.1485 1.2876 1.1642 1.2788 1.1642 3.4837zm-1.6228-0.47625q-0.0176-1.3317-0.74965-2.1255-0.7232-0.79375-1.9226-0.79375-1.3582 0-2.1784 0.76729-0.81139 0.7673-0.93486 2.1608z" style=""/>
   <path id="path624" d="m928.14 414.22q-0.27341-0.15875-0.59973-0.22931-0.3175-0.0794-0.70555-0.0794-1.3758 0-2.1167 0.89958-0.73202 0.89076-0.73202 2.5665v5.2035h-1.6316v-9.8778h1.6316v1.5346q0.51153-0.89958 1.3317-1.3317 0.8202-0.44097 1.9932-0.44097 0.16757 0 0.37041 0.0265 0.20285 0.0176 0.4498 0.0617z" style=""/>
   <path id="path626" d="m927.87 416.91h4.7537v1.4464h-4.7537z" style=""/>
   <path id="path628" d="m938.69 408.85h4.5156v13.723h-1.6316v-12.374h-2.9016q-0.87313 0-1.2171 0.35277-0.33514 0.35278-0.33514 1.27v0.87313h2.6723v1.2612h-2.6723v8.6166h-1.6316v-8.6166h-1.5522v-1.2612h1.5522v-0.68792q0-1.6492 0.76729-2.3989 0.76729-0.75848 2.4342-0.75848z" style=""/>
   <path id="path630" d="m955.06 417.23v0.79375h-7.4612q0.10583 1.6757 1.0054 2.5576 0.9084 0.87312 2.5224 0.87312 0.93486 0 1.808-0.2293 0.88194-0.22931 1.7462-0.68792v1.5346q-0.87313 0.37041-1.7904 0.56444t-1.8609 0.19403q-2.3636 0-3.7483-1.3758-1.3758-1.3758-1.3758-3.7218 0-2.4253 1.3053-3.8453 1.3141-1.4288 3.5366-1.4288 1.9932 0 3.1485 1.2876 1.1642 1.2788 1.1642 3.4837zm-1.6228-0.47625q-0.0176-1.3317-0.74966-2.1255-0.72319-0.79375-1.9226-0.79375-1.3582 0-2.1784 0.76729-0.81139 0.7673-0.93486 2.1608z" style=""/>
   <path id="path632" d="m959.33 409.9v2.8046h3.3426v1.2612h-3.3426v5.3622q0 1.2083 0.32632 1.5522 0.33514 0.34396 1.3494 0.34396h1.6669v1.3582h-1.6669q-1.8785 0-2.5929-0.69673-0.71437-0.70556-0.71437-2.5576v-5.3622h-1.1906v-1.2612h1.1906v-2.8046z" style=""/>
   <path id="path634" d="m971.93 413.08v1.517q-0.68792-0.37924-1.3847-0.56445-0.68791-0.19403-1.3935-0.19403-1.5787 0-2.4518 1.0054-0.87312 0.9966-0.87312 2.8046t0.87312 2.8134q0.87313 0.99659 2.4518 0.99659 0.70556 0 1.3935-0.1852 0.69674-0.19403 1.3847-0.57327v1.4993q-0.6791 0.3175-1.4111 0.47625-0.7232 0.15875-1.5434 0.15875-2.2313 0-3.5454-1.4023-1.3141-1.4023-1.3141-3.7835 0-2.4165 1.3229-3.8012 1.3317-1.3846 3.6424-1.3846 0.74965 0 1.464 0.15875 0.71438 0.14993 1.3847 0.45861z" style=""/>
   <path id="path636" d="m982.98 416.62v5.9619h-1.6228v-5.909q0-1.4023-0.54681-2.099-0.5468-0.69674-1.6404-0.69674-1.3141 0-2.0726 0.83785-0.75847 0.83784-0.75847 2.2842v5.5827h-1.6316v-13.723h1.6316v5.3799q0.58208-0.89076 1.367-1.3317 0.79375-0.44097 1.8256-0.44097 1.7022 0 2.5753 1.0583 0.87312 1.0495 0.87312 3.0956z" style=""/>
   <path id="path638" d="m994.68 417.23v0.79375h-7.4612q0.10583 1.6757 1.0054 2.5576 0.90841 0.87312 2.5224 0.87312 0.93486 0 1.808-0.2293 0.88194-0.22931 1.7462-0.68792v1.5346q-0.87312 0.37041-1.7903 0.56444t-1.8609 0.19403q-2.3636 0-3.7483-1.3758-1.3758-1.3758-1.3758-3.7218 0-2.4253 1.3053-3.8453 1.3141-1.4288 3.5366-1.4288 1.9932 0 3.1485 1.2876 1.1642 1.2788 1.1642 3.4837zm-1.6228-0.47625q-0.0176-1.3317-0.74965-2.1255-0.72319-0.79375-1.9226-0.79375-1.3582 0-2.1784 0.76729-0.81138 0.7673-0.93486 2.1608z" style=""/>
   <path id="path640" d="m1003.1 414.22q-0.2734-0.15875-0.5998-0.22931-0.3175-0.0794-0.7055-0.0794-1.3758 0-2.1167 0.89958-0.73201 0.89076-0.73201 2.5665v5.2035h-1.6316v-9.8778h1.6316v1.5346q0.51153-0.89958 1.3317-1.3317 0.8203-0.44097 1.9932-0.44097 0.1676 0 0.3705 0.0265 0.2028 0.0176 0.4497 0.0617z" style=""/>
   <path id="path642" d="m1006.9 408.78v18.062h-1.4993v-18.062z" style=""/>
   <path id="path644" d="m1011.1 414.38h6.8086l2.2577-2.7781 1.1025 0.89958-1.5346 1.8785h2.6723v1.4817h-3.8806l-1.7198 2.1167h5.6004v1.4993h-6.8263l-2.2754 2.7605-1.1024-0.89959 1.5346-1.8609h-2.637v-1.4993h3.8629l1.7198-2.1167h-5.5827z" style=""/>
   <path id="path646" d="m1026.6 421.08h2.9104v-10.045l-3.1661 0.635v-1.6228l3.1485-0.635h1.7815v11.668h2.9104v1.4993h-7.5847z" style=""/>
  </g>
  <g id="g200" fill="none" stroke="#000" stroke-width="2">
   <path id="line196" d="m860 230-115.87-48.28"/>
   <path id="polyline198" d="m753.22 180.09-11.154 0.769 7.308 8.462"/>
  </g>
  <g id="g206" fill="none" stroke="#000" stroke-width="2">
   <path id="line202" d="m860 250-115.76 38.586"/>
   <path id="polyline204" d="m750.03 281.39-7.906 7.906 11.068 1.581"/>
  </g>
  <g id="g212" fill="none" stroke="#000" stroke-width="2">
   <path id="line208" d="m860 350-115.76-38.586"/>
   <path id="polyline210" d="m753.19 309.13-11.068 1.581 7.906 7.906"/>
  </g>
  <g id="g218" fill="none" stroke="#000" stroke-width="2">
   <path id="line214" d="m860 370-115.87 48.28"/>
   <path id="polyline216" d="m749.37 410.68-7.308 8.462 11.154 0.769"/>
  </g>
  <g id="g230" fill="none" stroke="#000" stroke-width="2">
   <path id="path220" d="m1037.6 320c8.84 0 16-8.954 16-20s-7.16-20-16-20"/>
   <path id="line222" d="m1020 280v40"/>
   <path id="line224" d="m1020 280h17.6"/>
   <path id="line226" d="m1020 320h17.6"/>
   <path id="line228" d="m1053.6 300h6.4"/>
  </g>
  <path id="polyline232" d="m1020 290h-60v-50h-60" fill="none" stroke="#000" stroke-width="2"/>
  <path id="polyline234" d="m1020 310h-60v50h-60" fill="none" stroke="#000" stroke-width="2"/>
  <path id="line236" d="m1060 300h60" fill="none" stroke="#000" stroke-width="2"/>
  <g id="text240" aria-label="satisfied">
   <path id="path664" d="m1078 280.41v1.5346q-0.6879-0.35278-1.4287-0.52917-0.7409-0.17639-1.5346-0.17639-1.2083 0-1.8168 0.37042-0.5997 0.37041-0.5997 1.1112 0 0.56444 0.4321 0.89076 0.4322 0.3175 1.7375 0.60854l0.5556 0.12347q1.7286 0.37042 2.4518 1.0495 0.732 0.67027 0.732 1.8785 0 1.3758-1.0936 2.1784-1.0848 0.80256-2.9898 0.80256-0.7938 0-1.6581-0.15875-0.8554-0.14993-1.8079-0.45861v-1.6757q0.8995 0.46743 1.7727 0.70556 0.8731 0.2293 1.7286 0.2293 1.1465 0 1.7639-0.38805 0.6173-0.39688 0.6173-1.1112 0-0.66146-0.4498-1.0142-0.4409-0.35278-1.9491-0.67909l-0.5644-0.1323q-1.5081-0.3175-2.1784-0.97013-0.6703-0.66146-0.6703-1.808 0-1.3935 0.9878-2.1519t2.8046-0.75847q0.8996 0 1.6933 0.13229t1.464 0.39688z" style=""/>
   <path id="path666" d="m1085.6 285.03q-1.9667 0-2.7252 0.44979t-0.7585 1.5346q0 0.86431 0.5645 1.3758 0.5732 0.50271 1.5522 0.50271 1.3494 0 2.1607-0.9525 0.8203-0.96132 0.8203-2.5488v-0.3616zm3.2367-0.67028v5.6356h-1.6227v-1.4993q-0.5557 0.89958-1.3847 1.3317-0.829 0.42333-2.0285 0.42333-1.5169 0-2.4165-0.84666-0.8908-0.85549-0.8908-2.2842 0-1.6669 1.1113-2.5135 1.1201-0.84667 3.3337-0.84667h2.2755v-0.15875q0-1.1201-0.7409-1.7286-0.732-0.61736-2.0637-0.61736-0.8467 0-1.6493 0.20285-0.8025 0.20285-1.5434 0.60854v-1.4993q0.8908-0.34396 1.7286-0.51153 0.8379-0.17639 1.6316-0.17639 2.1432 0 3.2015 1.1112t1.0583 3.369z" style=""/>
   <path id="path668" d="m1093.8 277.32v2.8046h3.3425v1.2612h-3.3425v5.3622q0 1.2083 0.3263 1.5522 0.3351 0.34396 1.3493 0.34396h1.6669v1.3582h-1.6669q-1.8785 0-2.5929-0.69674-0.7143-0.70555-0.7143-2.5576v-5.3622h-1.1907v-1.2612h1.1907v-2.8046z" style=""/>
   <path id="path670" d="m1099.3 280.12h1.6228v9.8778h-1.6228zm0-3.8453h1.6228v2.0549h-1.6228z" style=""/>
   <path id="path672" d="m1110.6 280.41v1.5346q-0.688-0.35278-1.4288-0.52917t-1.5346-0.17639q-1.2082 0-1.8168 0.37042-0.5997 0.37041-0.5997 1.1112 0 0.56444 0.4322 0.89076 0.4321 0.3175 1.7374 0.60854l0.5556 0.12347q1.7286 0.37042 2.4518 1.0495 0.732 0.67027 0.732 1.8785 0 1.3758-1.0936 2.1784-1.0848 0.80256-2.9898 0.80256-0.7937 0-1.658-0.15875-0.8555-0.14993-1.808-0.45861v-1.6757q0.8996 0.46743 1.7727 0.70556 0.8731 0.2293 1.7286 0.2293 1.1465 0 1.7639-0.38805 0.6173-0.39688 0.6173-1.1112 0-0.66146-0.4497-1.0142-0.441-0.35278-1.9491-0.67909l-0.5645-0.1323q-1.5081-0.3175-2.1784-0.97013-0.6703-0.66146-0.6703-1.808 0-1.3935 0.9878-2.1519t2.8046-0.75847q0.8996 0 1.6933 0.13229 0.7938 0.13229 1.4641 0.39688z" style=""/>
   <path id="path674" d="m1121.7 280.12v9.8778h-1.6316v-8.6166h-4.4538v8.6166h-1.6316v-8.6166h-1.5522v-1.2612h1.5522v-0.68791q0-1.614 0.7585-2.3812 0.7673-0.77611 2.346-0.77611h1.6316v1.3494h-1.5523q-0.8731 0-1.2171 0.35278-0.3351 0.35278-0.3351 1.27v0.87312zm-1.6316-3.8276h1.6316v2.0549h-1.6316z" style=""/>
   <path id="path676" d="m1133.6 284.66v0.79375h-7.4613q0.1059 1.6757 1.0054 2.5576 0.9084 0.87312 2.5224 0.87312 0.9349 0 1.808-0.2293 0.8819-0.22931 1.7462-0.68792v1.5346q-0.8731 0.37042-1.7903 0.56445-0.9172 0.19402-1.8609 0.19402-2.3636 0-3.7483-1.3758-1.3758-1.3758-1.3758-3.7218 0-2.4253 1.3053-3.8453 1.3141-1.4288 3.5366-1.4288 1.9931 0 3.1485 1.2876 1.1642 1.2788 1.1642 3.4837zm-1.6228-0.47625q-0.018-1.3317-0.7497-2.1255-0.7232-0.79375-1.9226-0.79375-1.3582 0-2.1784 0.76729-0.8114 0.76729-0.9349 2.1608z" style=""/>
   <path id="path678" d="m1142.7 281.62v-5.3446h1.6227v13.723h-1.6227v-1.4817q-0.5116 0.88194-1.2965 1.3141-0.7761 0.42333-1.8697 0.42333-1.7904 0-2.9193-1.4287-1.12-1.4288-1.12-3.7571t1.12-3.7571q1.1289-1.4288 2.9193-1.4288 1.0936 0 1.8697 0.43215 0.7849 0.42333 1.2965 1.3053zm-5.5298 3.4484q0 1.7903 0.732 2.8134 0.7408 1.0142 2.0285 1.0142 1.2876 0 2.0284-1.0142 0.7409-1.0231 0.7409-2.8134 0-1.7904-0.7409-2.8046-0.7408-1.0231-2.0284-1.0231-1.2877 0-2.0285 1.0231-0.732 1.0142-0.732 2.8046z" style=""/>
  </g>
  <g id="text244" aria-label="Solver">
   <path id="path681" d="m249.67 77.265v1.7374q-1.0142-0.48507-1.9138-0.72319-0.89958-0.23812-1.7374-0.23812-1.4552 0-2.249 0.56444-0.78493 0.56444-0.78493 1.6051 0 0.87312 0.52035 1.3229 0.52916 0.44097 1.9932 0.71438l1.076 0.22048q1.9932 0.37924 2.9369 1.3406 0.9525 0.9525 0.9525 2.5576 0 1.9138-1.2876 2.9016-1.2788 0.98778-3.7571 0.98778-0.93486 0-1.9932-0.21167-1.0495-0.21167-2.1784-0.62618v-1.8344q1.0848 0.60854 2.1255 0.91722 1.0407 0.30868 2.0461 0.30868 1.5258 0 2.3548-0.59972 0.82903-0.59972 0.82903-1.711 0-0.97014-0.59972-1.5169-0.59091-0.5468-1.9491-0.82021l-1.0848-0.21167q-1.9932-0.39687-2.884-1.2435-0.89077-0.84666-0.89077-2.3548 0-1.7462 1.2259-2.7517 1.2347-1.0054 3.3955-1.0054 0.92604 0 1.8874 0.16757 0.96131 0.16757 1.9667 0.50271z" style=""/>
   <path id="path683" d="m257 81.26q-1.3053 0-2.0638 1.0231-0.75847 1.0142-0.75847 2.7869 0 1.7727 0.74965 2.7958 0.75847 1.0142 2.0726 1.0142 1.2965 0 2.0549-1.0231 0.75847-1.0231 0.75847-2.7869 0-1.7551-0.75847-2.7781-0.75847-1.0319-2.0549-1.0319zm0-1.3758q2.1167 0 3.3249 1.3758 1.2083 1.3758 1.2083 3.81 0 2.4253-1.2083 3.81-1.2083 1.3758-3.3249 1.3758-2.1255 0-3.3338-1.3758-1.1994-1.3847-1.1994-3.81 0-2.4342 1.1994-3.81 1.2083-1.3758 3.3338-1.3758z" style=""/>
   <path id="path685" d="m264.21 76.277h1.6228v13.723h-1.6228z" style=""/>
   <path id="path687" d="m268.05 80.122h1.7198l3.0868 8.2903 3.0868-8.2903h1.7198l-3.7042 9.8778h-2.2049z" style=""/>
   <path id="path689" d="m288.36 84.655v0.79375h-7.4612q0.10584 1.6757 1.0054 2.5576 0.9084 0.87312 2.5224 0.87312 0.93486 0 1.808-0.2293 0.88195-0.22931 1.7462-0.68792v1.5346q-0.87312 0.37042-1.7903 0.56444-0.91723 0.19403-1.8609 0.19403-2.3636 0-3.7482-1.3758-1.3758-1.3758-1.3758-3.7218 0-2.4253 1.3053-3.8453 1.3141-1.4287 3.5366-1.4287 1.9932 0 3.1485 1.2876 1.1642 1.2788 1.1642 3.4837zm-1.6228-0.47625q-0.0176-1.3317-0.74965-2.1255-0.7232-0.79375-1.9226-0.79375-1.3582 0-2.1784 0.76729-0.81139 0.76729-0.93486 2.1608z" style=""/>
   <path id="path691" d="m296.74 81.639q-0.2734-0.15875-0.59972-0.22931-0.3175-0.07937-0.70556-0.07937-1.3758 0-2.1167 0.89958-0.73201 0.89076-0.73201 2.5665v5.2035h-1.6316v-9.8778h1.6316v1.5346q0.51152-0.89958 1.3317-1.3317 0.82021-0.44097 1.9932-0.44097 0.16757 0 0.37042 0.02646 0.20285 0.01764 0.44979 0.06174z" style=""/>
  </g>
  <g id="g250" fill="none" stroke="#000" stroke-width="2">
   <path id="polyline246" d="m540 200v20h-160v-15.528"/>
   <path id="polyline248" d="m385 212.24-5-10-5 10"/>
  </g>
  <g id="g256" fill="none" stroke="#000" stroke-width="2">
   <path id="polyline252" d="m540 320v20h-200v-15.528"/>
   <path id="polyline254" d="m345 332.24-5-10-5 10"/>
  </g>
  <g id="g262" fill="none" stroke="#000" stroke-width="2">
   <path id="polyline258" d="m540 440v20h-120v-15.528"/>
   <path id="polyline260" d="m425 452.24-5-10-5 10"/>
  </g>
 </g>
</svg>
