<?xml version="1.0" encoding="UTF-8" standalone="no"?>
<svg id="svg2" xmlns:rdf="http://www.w3.org/1999/02/22-rdf-syntax-ns#" xmlns="http://www.w3.org/2000/svg" viewBox="298 50 380.62 418.45001" height="20.972cm" width="19.519cm" version="1.1" xmlns:cc="http://creativecommons.org/ns#" xmlns:dc="http://purl.org/dc/elements/1.1/">
 <metadata id="metadata246">
  <rdf:RDF>
   <cc:Work rdf:about="">
    <dc:format>image/svg+xml</dc:format>
    <dc:type rdf:resource="http://purl.org/dc/dcmitype/StillImage"/>
   </cc:Work>
  </rdf:RDF>
 </metadata>
 <g id="g4" transform="translate(-5.415 -0.775)">
  <path id="rect6" fill="#fff" d="m460 80h40v40h-40z"/>
  <path id="rect8" d="m460 80h40v40h-40z" stroke="#000" stroke-width="2" fill="none"/>
 </g>
 <g id="g10" transform="translate(-5.415 -0.775)">
  <path id="rect12" fill="#fff" d="m340 200h40v40h-40z"/>
  <path id="rect14" d="m340 200h40v40h-40z" stroke="#000" stroke-width="2" fill="none"/>
 </g>
 <g id="g16" transform="translate(-5.415 -0.775)">
  <path id="rect18" fill="#fff" d="m460 200h40v40h-40z"/>
  <path id="rect20" d="m460 200h40v40h-40z" stroke="#000" stroke-width="2" fill="none"/>
 </g>
 <g id="g22" transform="translate(-5.415 -0.775)">
  <path id="rect24" fill="#fff" d="m600 200h40v40h-40z"/>
  <path id="rect26" d="m600 200h40v40h-40z" stroke="#000" stroke-width="2" fill="none"/>
 </g>
 <g id="g32" transform="translate(-5.415 -0.775)">
  <path id="rect34" fill="#fff" d="m560 300h40v40h-40z"/>
  <path id="rect36" d="m560 300h40v40h-40z" stroke="#000" stroke-width="2" fill="none"/>
 </g>
 <g id="g38" transform="translate(-5.415 -0.775)">
  <path id="rect40" fill="#fff" d="m640 300h40v40h-40z"/>
  <path id="rect42" d="m640 300h40v40h-40z" stroke="#000" stroke-width="2" fill="none"/>
 </g>
 <g id="g44" transform="translate(-5.415 -0.775)">
  <path id="rect46" fill="#7babe3" d="m300 300h40v40h-40z"/>
  <path id="rect48" d="m300 300h40v40h-40z" stroke="#000" stroke-width="2" fill="none"/>
 </g>
 <g id="text50">
  <path id="path142" style="" d="m309.83 310.59h8.7423v1.8741h-6.7028v4.0349q0.48507-0.16537 0.97014-0.24254 0.48507-0.0882 0.97014-0.0882 2.7561 0 4.3656 1.5103 1.6096 1.5103 1.6096 4.09 0 2.6569-1.6536 4.1341-1.6536 1.4662-4.6633 1.4662-1.0363 0-2.1167-0.17639-1.0694-0.17638-2.2159-0.52916v-2.2379q0.99219 0.54019 2.0505 0.80478 1.0583 0.26458 2.2379 0.26458 1.9072 0 3.0207-1.0032t1.1135-2.723-1.1135-2.723q-1.1134-1.0032-3.0207-1.0032-0.89297 0-1.7859 0.19844-0.88195 0.19844-1.808 0.61736v-8.2682z"/>
 </g>
 <g id="g54" transform="translate(-5.415 -0.775)">
  <path id="rect56" fill="#7babe3" d="m380 300h40v40h-40z"/>
  <path id="rect58" d="m380 300h40v40h-40z" stroke="#000" stroke-width="2" fill="none"/>
 </g>
 <g id="text60">
  <path id="path147" style="" d="m396.56 318.18q1.5985 0.34176 2.4915 1.4221 0.90399 1.0804 0.90399 2.6679 0 2.4364-1.6757 3.7703t-4.7625 1.3339q-1.0363 0-2.1387-0.20946-1.0914-0.19844-2.26-0.60634v-2.1497q0.92604 0.54019 2.0285 0.8158 1.1024 0.27561 2.3041 0.27561 2.0946 0 3.186-0.82682 1.1024-0.82683 1.1024-2.4033 0-1.4552-1.0253-2.271-1.0142-0.82683-2.8332-0.82683h-1.9182v-1.83h2.0064q1.6426 0 2.5135-0.65044 0.87093-0.66146 0.87093-1.8962 0-1.2678-0.904-1.9403-0.89297-0.68351-2.5687-0.68351-0.91502 0-1.9623 0.19844t-2.3041 0.61736v-1.9844q1.2678-0.35278 2.3702-0.52916 1.1135-0.17639 2.0946-0.17639 2.5356 0 4.0128 1.1576 1.4773 1.1465 1.4773 3.1089 0 1.367-0.78272 2.3151-0.78273 0.93707-2.2269 1.3009z"/>
 </g>
 <g id="g64" transform="translate(-5.415 -0.775)">
  <path id="rect66" fill="#7babe3" d="m460 300h40v40h-40z"/>
  <path id="rect68" d="m460 300h40v40h-40z" stroke="#000" stroke-width="2" fill="none"/>
 </g>
 <g id="text70">
  <path id="path152" style="" d="m480.3 314.7-4.4648 6.0083 4.6964 6.339h-2.3923l-3.5939-4.8507-3.5939 4.8507h-2.3923l4.7956-6.4602-4.3877-5.887h2.3923l3.2742 4.3987 3.2742-4.3987h2.3923z"/>
 </g>
 <g id="g74" transform="translate(-5.415 -0.775)">
  <path id="rect76" fill="#7babe3" d="m560 400h40v40h-40z"/>
  <path id="rect78" d="m560 400h40v40h-40z" stroke="#000" stroke-width="2" fill="none"/>
 </g>
 <g id="text80">
  <path id="path157" style="" d="m575.51 412.89v6.1405h6.1406v1.8741h-6.1406v6.1406h-1.8521v-6.1406h-6.1406v-1.8741h6.1406v-6.1405h1.8521z"/>
 </g>
 <g id="g84" transform="translate(-5.415 -0.775)">
  <path id="rect86" fill="#7babe3" d="m640 400h40v40h-40z"/>
  <path id="rect88" d="m640 400h40v40h-40z" stroke="#000" stroke-width="2" fill="none"/>
 </g>
 <g id="text90">
  <path id="path162" style="" d="m652.72 419.97-4.7184-2.723 0.93707-1.6206 4.7184 2.723v-5.457h1.8521v5.457l4.7184-2.723 0.93707 1.6206-4.7184 2.723 4.7184 2.723-0.93707 1.6206-4.7184-2.723v5.457h-1.8521v-5.457l-4.7184 2.723-0.93707-1.6206 4.7184-2.723z"/>
 </g>
 <g id="g94" stroke="#000" stroke-width="2" fill="none" transform="translate(-5.415 -0.775)">
  <path id="line96" d="m455.85 124.15-74.86 74.86"/>
  <path id="polyline98" d="m453.89 133.18 3.536-10.607-10.607 3.536"/>
 </g>
 <g id="g100" stroke="#000" stroke-width="2" fill="none" transform="translate(-5.415 -0.775)">
  <path id="line102" d="m480 125.46v73.546"/>
  <path id="polyline104" d="m485 133.23-5-10-5 10"/>
 </g>
 <g id="g106" stroke="#000" stroke-width="2" fill="none" transform="translate(-5.415 -0.775)">
  <path id="line108" d="m504.39 120.91 94.61 81.09"/>
  <path id="polyline110" d="m513.54 122.16-10.846-2.711 4.338 10.304"/>
 </g>
 <g id="g112" stroke="#000" stroke-width="2" fill="none" transform="translate(-5.415 -0.775)">
  <path id="line114" d="m609.94 245.15-21.54 53.85"/>
  <path id="polyline116" d="m611.7 254.22-0.928-11.142-8.357 7.428"/>
 </g>
 <g id="g118" stroke="#000" stroke-width="2" fill="none" transform="translate(-5.415 -0.775)">
  <path id="line120" d="m630.06 245.15 21.54 53.85"/>
  <path id="polyline122" d="m637.59 250.51-8.357-7.428-0.928 11.142"/>
 </g>
 <g id="g124" stroke="#000" stroke-width="2" fill="none" transform="translate(-5.415 -0.775)">
  <path id="line126" d="m580 345.47v53.524"/>
  <path id="polyline128" d="m585 353.24-5-10-5 10"/>
 </g>
 <g id="g130" stroke="#000" stroke-width="2" fill="none" transform="translate(-5.415 -0.775)">
  <path id="line132" d="m660 345.47v53.524"/>
  <path id="polyline134" d="m665 353.24-5-10-5 10"/>
 </g>
 <g id="g136" stroke="#000" stroke-width="2" fill="none" transform="translate(-5.415 -0.775)">
  <path id="line138" d="m480 245.47v53.524"/>
  <path id="polyline140" d="m485 253.24-5-10-5 10"/>
 </g>
 <g id="g142" stroke="#000" stroke-width="2" fill="none" transform="translate(-5.415 -0.775)">
  <path id="line144" d="m370.06 245.15 21.54 53.85"/>
  <path id="polyline146" d="m377.59 250.51-8.357-7.428-0.928 11.142"/>
 </g>
 <g id="g148" stroke="#000" stroke-width="2" fill="none" transform="translate(-5.415 -0.775)">
  <path id="line150" d="m349.94 245.15-21.54 53.85"/>
  <path id="polyline152" d="m351.7 254.22-0.928-11.142-8.357 7.428"/>
 </g>
 <g id="g154" transform="translate(-5.415 -0.775)">
  <path id="rect156" fill="#fff" d="m445.42 50.775h69.15v18.45h-69.15z"/>
  <g id="text158">
   <path id="path186" style="" d="m446.83 53.467h1.4276v7.0919l4.2366-3.7273h1.8135l-4.5839 4.0437 4.7768 4.5993h-1.8521l-4.391-4.2212v4.2212h-1.4276v-12.008z"/>
   <path id="path188" style="" d="m456.05 56.832h1.4199v8.643h-1.4199v-8.643zm0-3.3646h1.4199v1.7981h-1.4199v-1.7981z"/>
   <path id="path190" style="" d="m464.81 53.467v1.1807h-1.3582q-0.76398 0-1.065 0.30868-0.29324 0.30868-0.29324 1.1112v0.76398h2.3382v1.1035h-2.3382v7.5395h-1.4276v-7.5395h-1.3582v-1.1035h1.3582v-0.60192q0-1.4431 0.67138-2.099 0.67138-0.66366 2.1299-0.66366h1.3428z"/>
   <path id="path192" style="" d="m473.39 60.799v0.69453h-6.5286q0.0926 1.4662 0.87974 2.2379 0.79485 0.76398 2.2071 0.76398 0.818 0 1.582-0.20064 0.7717-0.20064 1.528-0.60193v1.3428q-0.76399 0.32411-1.5666 0.49389-0.80257 0.16977-1.6283 0.16977-2.0682 0-3.2797-1.2039-1.2038-1.2038-1.2038-3.2566 0-2.1222 1.1421-3.3646 1.1498-1.2502 3.0945-1.2502 1.744 0 2.755 1.1267 1.0186 1.119 1.0186 3.0482zm-1.4199-0.41672q-0.0154-1.1653-0.65594-1.8598-0.6328-0.69453-1.6823-0.69453-1.1884 0-1.9061 0.67138-0.70996 0.67138-0.818 1.8907l5.0624-0.0077z"/>
   <path id="path194" style="" d="m475.72 56.832h1.4199v8.7974q0 1.6514-0.63279 2.3923-0.62507 0.74083-2.0218 0.74083h-0.54019v-1.2039h0.37813q0.81029 0 1.1035-0.37813 0.29325-0.37042 0.29325-1.5511v-8.7974zm0-3.3646h1.4199v1.7981h-1.4199v-1.7981z"/>
   <path id="path196" style="" d="m487.49 60.799v0.69453h-6.5286q0.0926 1.4662 0.87974 2.2379 0.79485 0.76398 2.2071 0.76398 0.818 0 1.582-0.20064 0.7717-0.20064 1.528-0.60193v1.3428q-0.76398 0.32411-1.5666 0.49389-0.80257 0.16977-1.6283 0.16977-2.0682 0-3.2797-1.2039-1.2038-1.2038-1.2038-3.2566 0-2.1222 1.1421-3.3646 1.1498-1.2502 3.0945-1.2502 1.744 0 2.755 1.1267 1.0186 1.119 1.0186 3.0482zm-1.4199-0.41672q-0.0154-1.1653-0.65594-1.8598-0.63279-0.69453-1.6823-0.69453-1.1884 0-1.9061 0.67138-0.70997 0.67138-0.818 1.8907l5.0623-0.0077z"/>
   <path id="path198" style="" d="m489.21 56.832h6.7446v1.2965l-5.3402 6.2122h5.3402v1.1344h-6.9376v-1.2965l5.3402-6.2122h-5.1472v-1.1344z"/>
   <path id="path200" style="" d="m505.52 60.799v0.69453h-6.5286q0.0926 1.4662 0.87974 2.2379 0.79485 0.76398 2.2071 0.76398 0.818 0 1.582-0.20064 0.7717-0.20064 1.528-0.60193v1.3428q-0.76398 0.32411-1.5666 0.49389-0.80256 0.16977-1.6283 0.16977-2.0682 0-3.2797-1.2039-1.2038-1.2038-1.2038-3.2566 0-2.1222 1.1421-3.3646 1.1498-1.2502 3.0945-1.2502 1.744 0 2.755 1.1267 1.0186 1.119 1.0186 3.0482zm-1.4199-0.41672q-0.0154-1.1653-0.65595-1.8598-0.63279-0.69453-1.6823-0.69453-1.1884 0-1.9061 0.67138-0.70996 0.67138-0.818 1.8907l5.0624-0.0077z"/>
   <path id="path202" style="" d="m513.36 57.087v1.3428q-0.60193-0.30868-1.2502-0.46302-0.64823-0.15434-1.3428-0.15434-1.0572 0-1.5897 0.32411-0.52476 0.32411-0.52476 0.97234 0 0.49389 0.37814 0.77942 0.37813 0.27781 1.5202 0.53247l0.48617 0.10804q1.5125 0.32411 2.1453 0.91832 0.64051 0.58649 0.64051 1.6437 0 1.2039-0.95691 1.9061-0.94919 0.70225-2.6161 0.70225-0.69453 0-1.4508-0.13891-0.74855-0.13119-1.582-0.40128v-1.4662q0.78714 0.409 1.5511 0.61736 0.76398 0.20064 1.5125 0.20064 1.0032 0 1.5434-0.33955 0.54019-0.34726 0.54019-0.97234 0-0.57878-0.39357-0.88745-0.38585-0.30868-1.7054-0.59421l-0.49389-0.11576q-1.3196-0.27781-1.9061-0.84887-0.58649-0.57877-0.58649-1.582 0-1.2193 0.8643-1.8829 0.86431-0.66366 2.454-0.66366 0.78713 0 1.4817 0.11576 0.69453 0.11576 1.281 0.34726z"/>
  </g>
 </g>
 <g id="g162" transform="translate(-5.415 -0.775)">
  <path id="rect164" fill="#fff" d="m324.67 170.77h70.65v18.45h-70.65z"/>
  <g id="text166">
   <path id="path206" style="" d="m326.08 173.47h1.4276v7.0919l4.2366-3.7273h1.8135l-4.5839 4.0437 4.7768 4.5993h-1.8521l-4.391-4.2212v4.2212h-1.4276v-12.008z"/>
   <path id="path208" style="" d="m338.09 177.83q-1.1421 0-1.8058 0.89517-0.66366 0.88745-0.66366 2.4386 0 1.5511 0.65595 2.4463 0.66366 0.88746 1.8135 0.88746 1.1344 0 1.7981-0.89517 0.66366-0.89517 0.66366-2.4386 0-1.5357-0.66366-2.4309-0.66366-0.90288-1.7981-0.90288zm0-1.2038q1.8521 0 2.9093 1.2038t1.0572 3.3337q0 2.1222-1.0572 3.3337-1.0572 1.2038-2.9093 1.2038-1.8598 0-2.917-1.2038-1.0495-1.2116-1.0495-3.3337 0-2.1299 1.0495-3.3337 1.0572-1.2038 2.917-1.2038z"/>
   <path id="path210" style="" d="m351.59 180.26v5.2167h-1.4199v-5.1704q0-1.227-0.47845-1.8366-0.47846-0.60965-1.4354-0.60965-1.1498 0-1.8135 0.73312-0.66366 0.73311-0.66366 1.9987v4.8849h-1.4276v-8.643h1.4276v1.3428q0.50932-0.77941 1.1961-1.1653 0.69453-0.38585 1.5974-0.38585 1.4894 0 2.2534 0.92603 0.76398 0.91833 0.76398 2.7087z"/>
   <path id="path212" style="" d="m359.95 177.09v1.3428q-0.60193-0.30868-1.2502-0.46302-0.64823-0.15434-1.3428-0.15434-1.0572 0-1.5897 0.32412-0.52476 0.32411-0.52476 0.97234 0 0.49388 0.37814 0.77941 0.37813 0.27782 1.5202 0.53248l0.48618 0.10803q1.5125 0.32412 2.1453 0.91833 0.64051 0.58649 0.64051 1.6437 0 1.2038-0.95691 1.9061-0.94919 0.70225-2.6161 0.70225-0.69453 0-1.4508-0.13891-0.74855-0.13119-1.582-0.40128v-1.4662q0.78714 0.409 1.5511 0.61736 0.76398 0.20064 1.5125 0.20064 1.0032 0 1.5434-0.33955 0.54019-0.34726 0.54019-0.97234 0-0.57877-0.39357-0.88745-0.38585-0.30868-1.7054-0.59421l-0.49389-0.11575q-1.3196-0.27782-1.9061-0.84887-0.58649-0.57878-0.58649-1.582 0-1.2193 0.8643-1.8829 0.86431-0.66366 2.454-0.66366 0.78713 0 1.4817 0.11575 0.69453 0.11576 1.281 0.34727z"/>
   <path id="path214" style="" d="m364.08 174.38v2.454h2.9247v1.1035h-2.9247v4.6919q0 1.0572 0.28553 1.3582 0.29324 0.30096 1.1807 0.30096h1.4585v1.1884h-1.4585q-1.6437 0-2.2688-0.60965-0.62507-0.61736-0.62507-2.2379v-4.6919h-1.0418v-1.1035h1.0418v-2.454h1.4276z"/>
   <path id="path216" style="" d="m372.81 181.13q-1.7209 0-2.3846 0.39357-0.66367 0.39356-0.66367 1.3428 0 0.75627 0.49389 1.2038 0.50161 0.43987 1.3582 0.43987 1.1807 0 1.8907-0.83343 0.71768-0.84116 0.71768-2.2302v-0.3164h-1.4122zm2.8321-0.58649v4.9312h-1.4199v-1.3119q-0.48618 0.78713-1.2116 1.1653-0.7254 0.37042-1.7749 0.37042-1.3273 0-2.1145-0.74083-0.77941-0.74855-0.77941-1.9987 0-1.4585 0.97234-2.1994 0.98006-0.74083 2.917-0.74083h1.991v-0.1389q0-0.98006-0.64823-1.5125-0.64051-0.54019-1.8058-0.54019-0.74083 0-1.4431 0.17749-0.70224 0.17749-1.3505 0.53247v-1.3119q0.77942-0.30096 1.5125-0.44758 0.73312-0.15434 1.4276-0.15434 1.8752 0 2.8013 0.97234 0.92604 0.97234 0.92604 2.9479z"/>
   <path id="path218" style="" d="m385.76 180.26v5.2167h-1.4199v-5.1704q0-1.227-0.47845-1.8366-0.47845-0.60965-1.4354-0.60965-1.1498 0-1.8135 0.73312-0.66367 0.73311-0.66367 1.9987v4.8849h-1.4276v-8.643h1.4276v1.3428q0.50933-0.77941 1.1961-1.1653 0.69453-0.38585 1.5974-0.38585 1.4894 0 2.2534 0.92603 0.76398 0.91833 0.76398 2.7087z"/>
   <path id="path220" style="" d="m394.12 177.09v1.3428q-0.60192-0.30868-1.2502-0.46302-0.64823-0.15434-1.3428-0.15434-1.0572 0-1.5897 0.32412-0.52475 0.32411-0.52475 0.97234 0 0.49388 0.37813 0.77941 0.37813 0.27782 1.5202 0.53248l0.48617 0.10803q1.5125 0.32412 2.1453 0.91833 0.64051 0.58649 0.64051 1.6437 0 1.2038-0.95691 1.9061-0.94919 0.70225-2.6161 0.70225-0.69453 0-1.4508-0.13891-0.74855-0.13119-1.582-0.40128v-1.4662q0.78713 0.409 1.5511 0.61736 0.76398 0.20064 1.5125 0.20064 1.0032 0 1.5434-0.33955 0.54019-0.34726 0.54019-0.97234 0-0.57877-0.39357-0.88745-0.38585-0.30868-1.7054-0.59421l-0.49389-0.11575q-1.3196-0.27782-1.9061-0.84887-0.58649-0.57878-0.58649-1.582 0-1.2193 0.8643-1.8829 0.86431-0.66366 2.454-0.66366 0.78713 0 1.4817 0.11575 0.69453 0.11576 1.281 0.34727z"/>
  </g>
 </g>
 <g id="g170" transform="translate(-5.415 -0.775)">
  <path id="rect172" fill="#fff" d="m451.38 170.77h57.25v18.45h-57.25z"/>
  <g id="text174">
   <path id="path224" style="" d="m451.84 176.83h1.5048l2.701 7.254 2.7009-7.254h1.5048l-3.2411 8.643h-1.9292l-3.2411-8.643z"/>
   <path id="path226" style="" d="m466.14 181.13q-1.7209 0-2.3846 0.39357-0.66366 0.39356-0.66366 1.3428 0 0.75627 0.49389 1.2038 0.5016 0.43987 1.3582 0.43987 1.1807 0 1.8907-0.83343 0.71768-0.84116 0.71768-2.2302v-0.3164h-1.4122zm2.8321-0.58649v4.9312h-1.4199v-1.3119q-0.48617 0.78713-1.2116 1.1653-0.72539 0.37042-1.7749 0.37042-1.3273 0-2.1145-0.74083-0.77942-0.74855-0.77942-1.9987 0-1.4585 0.97234-2.1994 0.98006-0.74083 2.917-0.74083h1.991v-0.1389q0-0.98006-0.64823-1.5125-0.64051-0.54019-1.8058-0.54019-0.74083 0-1.4431 0.17749-0.70225 0.17749-1.3505 0.53247v-1.3119q0.77941-0.30096 1.5125-0.44758 0.73311-0.15434 1.4276-0.15434 1.8752 0 2.8013 0.97234 0.92604 0.97234 0.92604 2.9479z"/>
   <path id="path228" style="" d="m471.9 173.47h1.4199v12.008h-1.4199v-12.008z"/>
   <path id="path230" style="" d="m477.69 174.38v2.454h2.9247v1.1035h-2.9247v4.6919q0 1.0572 0.28553 1.3582 0.29324 0.30096 1.1807 0.30096h1.4585v1.1884h-1.4585q-1.6437 0-2.2688-0.60965-0.62507-0.61736-0.62507-2.2379v-4.6919h-1.0418v-1.1035h1.0418v-2.454h1.4276z"/>
   <path id="path232" style="" d="m485.84 177.83q-1.1421 0-1.8058 0.89517-0.66366 0.88745-0.66366 2.4386 0 1.5511 0.65594 2.4463 0.66366 0.88746 1.8135 0.88746 1.1344 0 1.7981-0.89517 0.66366-0.89517 0.66366-2.4386 0-1.5357-0.66366-2.4309-0.66366-0.90288-1.7981-0.90288zm0-1.2038q1.8521 0 2.9093 1.2038t1.0572 3.3337q0 2.1222-1.0572 3.3337-1.0572 1.2038-2.9093 1.2038-1.8598 0-2.917-1.2038-1.0495-1.2116-1.0495-3.3337 0-2.1299 1.0495-3.3337 1.0572-1.2038 2.917-1.2038z"/>
   <path id="path234" style="" d="m491.54 176.83h6.7447v1.2965l-5.3402 6.2122h5.3402v1.1344h-6.9376v-1.2965l5.3402-6.2122h-5.1472v-1.1344z"/>
   <path id="path236" style="" d="m503.81 177.83q-1.1421 0-1.8058 0.89517-0.66366 0.88745-0.66366 2.4386 0 1.5511 0.65595 2.4463 0.66366 0.88746 1.8135 0.88746 1.1344 0 1.7981-0.89517 0.66366-0.89517 0.66366-2.4386 0-1.5357-0.66366-2.4309-0.66366-0.90288-1.7981-0.90288zm0-1.2038q1.8521 0 2.9093 1.2038t1.0572 3.3337q0 2.1222-1.0572 3.3337-1.0572 1.2038-2.9093 1.2038-1.8598 0-2.917-1.2038-1.0495-1.2116-1.0495-3.3337 0-2.1299 1.0495-3.3337 1.0572-1.2038 2.917-1.2038z"/>
  </g>
 </g>
 <g id="g178" transform="translate(-5.415 -0.775)">
  <path id="rect180" fill="#fff" d="m560.8 170.77h118.4v18.45h-118.4z"/>
  <g id="text182">
   <path id="path240" style="" d="m562.17 173.47h1.4276v7.0919l4.2366-3.7273h1.8135l-4.5839 4.0437 4.7768 4.5993h-1.8521l-4.391-4.2212v4.2212h-1.4276v-12.008z"/>
   <path id="path242" style="" d="m578.23 180.8v0.69453h-6.5286q0.0926 1.4662 0.87974 2.2379 0.79485 0.76398 2.2071 0.76398 0.818 0 1.582-0.20064 0.7717-0.20065 1.528-0.60193v1.3428q-0.76398 0.32411-1.5666 0.49389-0.80257 0.16977-1.6283 0.16977-2.0682 0-3.2797-1.2038-1.2038-1.2038-1.2038-3.2566 0-2.1222 1.1421-3.3646 1.1498-1.2502 3.0945-1.2502 1.744 0 2.755 1.1267 1.0186 1.119 1.0186 3.0482zm-1.4199-0.41672q-0.0154-1.1653-0.65594-1.8598-0.63279-0.69453-1.6823-0.69453-1.1884 0-1.9061 0.67137-0.70997 0.67138-0.818 1.8907l5.0623-0.008z"/>
   <path id="path244" style="" d="m581.96 174.38v2.454h2.9247v1.1035h-2.9247v4.6919q0 1.0572 0.28552 1.3582 0.29325 0.30096 1.1807 0.30096h1.4585v1.1884h-1.4585q-1.6437 0-2.2688-0.60965-0.62508-0.61736-0.62508-2.2379v-4.6919h-1.0418v-1.1035h1.0418v-2.454h1.4276z"/>
   <path id="path246" style="" d="m590.11 177.83q-1.1421 0-1.8058 0.89517-0.66366 0.88745-0.66366 2.4386 0 1.5511 0.65594 2.4463 0.66367 0.88746 1.8135 0.88746 1.1344 0 1.7981-0.89517 0.66366-0.89517 0.66366-2.4386 0-1.5357-0.66366-2.4309-0.66366-0.90288-1.7981-0.90288zm0-1.2038q1.8521 0 2.9093 1.2038t1.0572 3.3337q0 2.1222-1.0572 3.3337-1.0572 1.2038-2.9093 1.2038-1.8598 0-2.917-1.2038-1.0495-1.2116-1.0495-3.3337 0-2.1299 1.0495-3.3337 1.0572-1.2038 2.917-1.2038z"/>
   <path id="path248" style="" d="m597.8 184.18v4.5839h-1.4276v-11.93h1.4276v1.3119q0.44759-0.7717 1.1267-1.1421 0.68682-0.37813 1.636-0.37813 1.5743 0 2.5543 1.2502 0.98778 1.2502 0.98778 3.2874 0 2.0373-0.98778 3.2874-0.98006 1.2502-2.5543 1.2502-0.94919 0-1.636-0.37042-0.67909-0.37813-1.1267-1.1498zm4.8308-3.0173q0-1.5666-0.64823-2.454-0.64051-0.89517-1.7672-0.89517t-1.7749 0.89517q-0.64051 0.88746-0.64051 2.454 0 1.5666 0.64051 2.4617 0.64823 0.88745 1.7749 0.88745t1.7672-0.88745q0.64823-0.89517 0.64823-2.4617z"/>
   <path id="path250" style="" d="m613.85 180.8v0.69453h-6.5286q0.0926 1.4662 0.87974 2.2379 0.79485 0.76398 2.2071 0.76398 0.818 0 1.582-0.20064 0.7717-0.20065 1.528-0.60193v1.3428q-0.76398 0.32411-1.5666 0.49389-0.80257 0.16977-1.6283 0.16977-2.0682 0-3.2797-1.2038-1.2038-1.2038-1.2038-3.2566 0-2.1222 1.1421-3.3646 1.1498-1.2502 3.0945-1.2502 1.744 0 2.755 1.1267 1.0186 1.119 1.0186 3.0482zm-1.4199-0.41672q-0.0154-1.1653-0.65594-1.8598-0.63279-0.69453-1.6823-0.69453-1.1884 0-1.9061 0.67137-0.70997 0.67138-0.818 1.8907l5.0623-0.008z"/>
   <path id="path252" style="" d="m621.19 178.16q-0.23923-0.13891-0.52476-0.20064-0.27781-0.0695-0.61736-0.0695-1.2038 0-1.8521 0.78714-0.64051 0.77941-0.64051 2.2456v4.553h-1.4276v-8.643h1.4276v1.3428q0.44759-0.78713 1.1653-1.1653 0.71768-0.38585 1.744-0.38585 0.14662 0 0.32411 0.0232 0.17749 0.0154 0.39357 0.054l0.008 1.4585z"/>
   <path id="path254" style="" d="m626.62 181.13q-1.7209 0-2.3846 0.39357-0.66366 0.39356-0.66366 1.3428 0 0.75627 0.49388 1.2038 0.50161 0.43987 1.3582 0.43987 1.1807 0 1.8907-0.83343 0.71768-0.84116 0.71768-2.2302v-0.3164h-1.4122zm2.8321-0.58649v4.9312h-1.4199v-1.3119q-0.48617 0.78713-1.2116 1.1653-0.7254 0.37042-1.7749 0.37042-1.3273 0-2.1144-0.74083-0.77942-0.74855-0.77942-1.9987 0-1.4585 0.97234-2.1994 0.98006-0.74083 2.917-0.74083h1.991v-0.1389q0-0.98006-0.64823-1.5125-0.64051-0.54019-1.8058-0.54019-0.74084 0-1.4431 0.17749-0.70225 0.17749-1.3505 0.53247v-1.3119q0.77942-0.30096 1.5125-0.44758 0.73312-0.15434 1.4276-0.15434 1.8752 0 2.8013 0.97234 0.92604 0.97234 0.92604 2.9479z"/>
   <path id="path256" style="" d="m639.57 180.26v5.2167h-1.4199v-5.1704q0-1.227-0.47846-1.8366-0.47845-0.60965-1.4354-0.60965-1.1498 0-1.8135 0.73312-0.66366 0.73311-0.66366 1.9987v4.8849h-1.4276v-8.643h1.4276v1.3428q0.50932-0.77941 1.1961-1.1653 0.69453-0.38585 1.5974-0.38585 1.4894 0 2.2534 0.92603 0.76398 0.91833 0.76398 2.7087z"/>
   <path id="path258" style="" d="m648.11 178.14v-4.6765h1.4199v12.008h-1.4199v-1.2965q-0.44759 0.7717-1.1344 1.1498-0.6791 0.37042-1.636 0.37042-1.5666 0-2.5543-1.2502-0.98006-1.2502-0.98006-3.2874 0-2.0373 0.98006-3.2874 0.98778-1.2502 2.5543-1.2502 0.9569 0 1.636 0.37813 0.68681 0.37041 1.1344 1.1421zm-4.8386 3.0174q0 1.5666 0.64051 2.4617 0.64823 0.88745 1.7749 0.88745t1.7749-0.88745q0.64823-0.89517 0.64823-2.4617 0-1.5666-0.64823-2.454-0.64823-0.89517-1.7749-0.89517t-1.7749 0.89517q-0.64051 0.88746-0.64051 2.454z"/>
   <path id="path260" style="" d="m652.3 182.06v-5.2321h1.4199v5.1781q0 1.227 0.47845 1.8444 0.47845 0.60964 1.4354 0.60964 1.1498 0 1.8135-0.73311 0.67138-0.73312 0.67138-1.9987v-4.9003h1.4199v8.643h-1.4199v-1.3273q-0.51704 0.78714-1.2038 1.173-0.6791 0.37813-1.582 0.37813-1.4894 0-2.2611-0.92604t-0.7717-2.7087zm3.573-5.4405z"/>
   <path id="path262" style="" d="m667.99 177.09v1.3428q-0.60192-0.30868-1.2502-0.46302-0.64823-0.15434-1.3428-0.15434-1.0572 0-1.5897 0.32412-0.52475 0.32411-0.52475 0.97234 0 0.49388 0.37813 0.77941 0.37813 0.27782 1.5202 0.53248l0.48617 0.10803q1.5125 0.32412 2.1453 0.91833 0.64051 0.58649 0.64051 1.6437 0 1.2038-0.9569 1.9061-0.94919 0.70225-2.6161 0.70225-0.69453 0-1.4508-0.13891-0.74855-0.13119-1.582-0.40128v-1.4662q0.78713 0.409 1.5511 0.61736 0.76399 0.20064 1.5125 0.20064 1.0032 0 1.5434-0.33955 0.54019-0.34726 0.54019-0.97234 0-0.57877-0.39357-0.88745-0.38584-0.30868-1.7054-0.59421l-0.49389-0.11575q-1.3196-0.27782-1.9061-0.84887-0.58649-0.57878-0.58649-1.582 0-1.2193 0.86431-1.8829 0.8643-0.66366 2.454-0.66366 0.78713 0 1.4817 0.11575 0.69453 0.11576 1.281 0.34727z"/>
   <path id="path264" style="" d="m670.58 182.06v-5.2321h1.4199v5.1781q0 1.227 0.47845 1.8444 0.47845 0.60964 1.4354 0.60964 1.1498 0 1.8135-0.73311 0.67138-0.73312 0.67138-1.9987v-4.9003h1.4199v8.643h-1.4199v-1.3273q-0.51704 0.78714-1.2038 1.173-0.67909 0.37813-1.582 0.37813-1.4894 0-2.2611-0.92604t-0.7717-2.7087zm3.573-5.4405z"/>
  </g>
 </g>
 <g id="g186" transform="translate(-5.415 -0.775)">
  <path id="rect188" fill="#fff" d="m552.9 270.77h54.2v18.45h-54.2z"/>
  <g id="text190">
   <path id="path268" style="" d="m557.74 277.83q-1.1421 0-1.8058 0.89517-0.66366 0.88745-0.66366 2.4386 0 1.5511 0.65594 2.4463 0.66367 0.88746 1.8135 0.88746 1.1344 0 1.7981-0.89517 0.66366-0.89517 0.66366-2.4386 0-1.5357-0.66366-2.4309-0.66367-0.90288-1.7981-0.90288zm0-1.2038q1.8521 0 2.9093 1.2038t1.0572 3.3337q0 2.1222-1.0572 3.3337-1.0572 1.2038-2.9093 1.2038-1.8598 0-2.917-1.2038-1.0495-1.2116-1.0495-3.3337 0-2.1299 1.0495-3.3337 1.0572-1.2038 2.917-1.2038z"/>
   <path id="path270" style="" d="m569.56 277.09v1.3428q-0.60193-0.30868-1.2502-0.46302-0.64823-0.15434-1.3428-0.15434-1.0572 0-1.5897 0.32412-0.52476 0.32411-0.52476 0.97234 0 0.49388 0.37814 0.77941 0.37813 0.27782 1.5202 0.53248l0.48617 0.10803q1.5125 0.32412 2.1453 0.91833 0.64051 0.58649 0.64051 1.6437 0 1.2038-0.95691 1.9061-0.94919 0.70225-2.6161 0.70225-0.69453 0-1.4508-0.13891-0.74855-0.13119-1.582-0.40128v-1.4662q0.78714 0.409 1.5511 0.61736 0.76398 0.20064 1.5125 0.20064 1.0032 0 1.5434-0.33955 0.54019-0.34726 0.54019-0.97234 0-0.57877-0.39357-0.88745-0.38585-0.30868-1.7054-0.59421l-0.49389-0.11575q-1.3196-0.27782-1.9061-0.84887-0.58649-0.57878-0.58649-1.582 0-1.2193 0.8643-1.8829 0.86431-0.66366 2.454-0.66366 0.78713 0 1.4817 0.11575 0.69453 0.11576 1.281 0.34727z"/>
   <path id="path272" style="" d="m577.8 277.09v1.3428q-0.60193-0.30868-1.2502-0.46302-0.64823-0.15434-1.3428-0.15434-1.0572 0-1.5897 0.32412-0.52476 0.32411-0.52476 0.97234 0 0.49388 0.37814 0.77941 0.37813 0.27782 1.5202 0.53248l0.48617 0.10803q1.5125 0.32412 2.1453 0.91833 0.64051 0.58649 0.64051 1.6437 0 1.2038-0.95691 1.9061-0.94919 0.70225-2.6161 0.70225-0.69453 0-1.4508-0.13891-0.74855-0.13119-1.582-0.40128v-1.4662q0.78714 0.409 1.5511 0.61736 0.76398 0.20064 1.5125 0.20064 1.0032 0 1.5434-0.33955 0.54019-0.34726 0.54019-0.97234 0-0.57877-0.39357-0.88745-0.38585-0.30868-1.7055-0.59421l-0.49388-0.11575q-1.3196-0.27782-1.9061-0.84887-0.58649-0.57878-0.58649-1.582 0-1.2193 0.8643-1.8829 0.8643-0.66366 2.454-0.66366 0.78714 0 1.4817 0.11575 0.69453 0.11576 1.281 0.34727z"/>
   <path id="path274" style="" d="m579.92 276.83h6.7446v1.2965l-5.3402 6.2122h5.3402v1.1344h-6.9376v-1.2965l5.3402-6.2122h-5.1472v-1.1344z"/>
   <path id="path276" style="" d="m596.23 280.8v0.69453h-6.5286q0.0926 1.4662 0.87974 2.2379 0.79485 0.76398 2.2071 0.76398 0.818 0 1.582-0.20064 0.7717-0.20065 1.528-0.60193v1.3428q-0.76398 0.32411-1.5666 0.49389-0.80256 0.16977-1.6283 0.16977-2.0682 0-3.2797-1.2038-1.2038-1.2038-1.2038-3.2566 0-2.1222 1.1421-3.3646 1.1498-1.2502 3.0945-1.2502 1.744 0 2.755 1.1267 1.0186 1.119 1.0186 3.0482zm-1.4199-0.41672q-0.0154-1.1653-0.65595-1.8598-0.63279-0.69453-1.6823-0.69453-1.1884 0-1.9061 0.67137-0.70996 0.67138-0.818 1.8907l5.0624-0.008z"/>
   <path id="path278" style="" d="m604.25 281.05q0-1.5434-0.64051-2.3923-0.63279-0.84887-1.7826-0.84887-1.1421 0-1.7826 0.84887-0.63279 0.84887-0.63279 2.3923 0 1.5357 0.63279 2.3846 0.64051 0.84887 1.7826 0.84887 1.1498 0 1.7826-0.84887 0.64051-0.84887 0.64051-2.3846zm1.4199 3.3492q0 2.2071-0.98006 3.2797-0.98006 1.0804-3.0019 1.0804-0.74855 0-1.4122-0.11575-0.66366-0.10804-1.2887-0.33955v-1.3813q0.62508 0.33955 1.2347 0.50161 0.60964 0.16205 1.2424 0.16205 1.3968 0 2.0913-0.73311 0.69453-0.7254 0.69453-2.1994v-0.70224q-0.43987 0.76398-1.1267 1.1421-0.68681 0.37814-1.6437 0.37814-1.5897 0-2.562-1.2116-0.97234-1.2116-0.97234-3.2103 0-2.0064 0.97234-3.218t2.562-1.2116q0.95691 0 1.6437 0.37813 0.68681 0.37813 1.1267 1.1421v-1.3119h1.4199v7.5704z"/>
  </g>
 </g>
 <g id="g194" transform="translate(-5.415 -0.775)">
  <path id="rect196" fill="#fff" d="m631.55 270.77h56.9v18.45h-56.9z"/>
  <g id="text198">
   <path id="path282" style="" d="m638.54 277.09v1.3428q-0.60192-0.30868-1.2502-0.46302-0.64823-0.15434-1.3428-0.15434-1.0572 0-1.5897 0.32412-0.52475 0.32411-0.52475 0.97234 0 0.49388 0.37813 0.77941 0.37813 0.27782 1.5202 0.53248l0.48617 0.10803q1.5125 0.32412 2.1453 0.91833 0.64051 0.58649 0.64051 1.6437 0 1.2038-0.9569 1.9061-0.94919 0.70225-2.6161 0.70225-0.69453 0-1.4508-0.13891-0.74855-0.13119-1.582-0.40128v-1.4662q0.78713 0.409 1.5511 0.61736 0.76399 0.20064 1.5125 0.20064 1.0032 0 1.5434-0.33955 0.54019-0.34726 0.54019-0.97234 0-0.57877-0.39356-0.88745-0.38585-0.30868-1.7055-0.59421l-0.49389-0.11575q-1.3196-0.27782-1.9061-0.84887-0.5865-0.57878-0.5865-1.582 0-1.2193 0.86431-1.8829 0.8643-0.66366 2.454-0.66366 0.78713 0 1.4817 0.11575 0.69453 0.11576 1.281 0.34727z"/>
   <path id="path284" style="" d="m640.65 276.83h6.7446v1.2965l-5.3402 6.2122h5.3402v1.1344h-6.9376v-1.2965l5.3402-6.2122h-5.1472v-1.1344z"/>
   <path id="path286" style="" d="m652.92 277.83q-1.1421 0-1.8058 0.89517-0.66366 0.88745-0.66366 2.4386 0 1.5511 0.65594 2.4463 0.66367 0.88746 1.8135 0.88746 1.1344 0 1.7981-0.89517 0.66366-0.89517 0.66366-2.4386 0-1.5357-0.66366-2.4309-0.66367-0.90288-1.7981-0.90288zm0-1.2038q1.8521 0 2.9093 1.2038t1.0572 3.3337q0 2.1222-1.0572 3.3337-1.0572 1.2038-2.9093 1.2038-1.8598 0-2.917-1.2038-1.0495-1.2116-1.0495-3.3337 0-2.1299 1.0495-3.3337 1.0572-1.2038 2.917-1.2038z"/>
   <path id="path288" style="" d="m664.24 278.16q-0.23922-0.13891-0.52475-0.20064-0.27781-0.0695-0.61736-0.0695-1.2038 0-1.8521 0.78714-0.64051 0.77941-0.64051 2.2456v4.553h-1.4276v-8.643h1.4276v1.3428q0.44759-0.78713 1.1653-1.1653 0.71768-0.38585 1.744-0.38585 0.14662 0 0.32411 0.0231 0.17749 0.0154 0.39357 0.054l0.008 1.4585z"/>
   <path id="path290" style="" d="m665.13 276.83h6.7446v1.2965l-5.3402 6.2122h5.3402v1.1344h-6.9376v-1.2965l5.3402-6.2122h-5.1472v-1.1344z"/>
   <path id="path292" style="" d="m677.98 281.13q-1.7209 0-2.3846 0.39357-0.66366 0.39356-0.66366 1.3428 0 0.75627 0.49389 1.2038 0.5016 0.43987 1.3582 0.43987 1.1807 0 1.8907-0.83343 0.71768-0.84116 0.71768-2.2302v-0.3164h-1.4122zm2.8321-0.58649v4.9312h-1.4199v-1.3119q-0.48617 0.78713-1.2116 1.1653-0.7254 0.37042-1.7749 0.37042-1.3273 0-2.1145-0.74083-0.77942-0.74855-0.77942-1.9987 0-1.4585 0.97235-2.1994 0.98005-0.74083 2.917-0.74083h1.991v-0.1389q0-0.98006-0.64822-1.5125-0.64051-0.54019-1.8058-0.54019-0.74083 0-1.4431 0.17749-0.70224 0.17749-1.3505 0.53247v-1.3119q0.77941-0.30096 1.5125-0.44758 0.73311-0.15434 1.4276-0.15434 1.8752 0 2.8013 0.97234 0.92604 0.97234 0.92604 2.9479z"/>
   <path id="path294" style="" d="m685.15 274.38v2.454h2.9247v1.1035h-2.9247v4.6919q0 1.0572 0.28552 1.3582 0.29325 0.30096 1.1807 0.30096h1.4585v1.1884h-1.4585q-1.6437 0-2.2688-0.60965-0.62508-0.61736-0.62508-2.2379v-4.6919h-1.0418v-1.1035h1.0418v-2.454h1.4276z"/>
  </g>
 </g>
 <g id="g202" transform="translate(-5.415 -0.775)">
  <path id="rect204" fill="#fff" d="m657.22 450.77h5.55v18.45h-5.55z"/>
  <g id="text206">
   <path id="path298" style="" d="m663.09 453.47v1.1807h-1.3582q-0.76399 0-1.065 0.30868-0.29324 0.30868-0.29324 1.1112v0.76398h2.3382v1.1035h-2.3382v7.5395h-1.4276v-7.5395h-1.3582v-1.1035h1.3582v-0.60192q0-1.4431 0.67138-2.099 0.67138-0.66366 2.1299-0.66366h1.3428z"/>
  </g>
 </g>
 <g id="g210" transform="translate(-5.415 -0.775)">
  <path id="rect212" fill="#fff" d="m303.98 350.77h32.05v18.45h-32.05z"/>
  <g id="text214">
   <path id="path302" style="" d="m309.81 353.47v1.1807h-1.3582q-0.76398 0-1.065 0.30868-0.29324 0.30868-0.29324 1.1112v0.76398h2.3382v1.1035h-2.3382v7.5395h-1.4276v-7.5395h-1.3582v-1.1035h1.3582v-0.60192q0-1.4431 0.67137-2.099 0.67138-0.66366 2.1299-0.66366h1.3428z"/>
   <path id="path304" style="" d="m310.05 363.51h1.6283v1.9601h-1.6283v-1.9601z"/>
   <path id="path306" style="" d="m314.88 353.47h1.4199v12.008h-1.4199v-12.008z"/>
   <path id="path308" style="" d="m326.45 360.26v5.2167h-1.4199v-5.1704q0-1.227-0.47846-1.8366-0.47845-0.60965-1.4354-0.60965-1.1498 0-1.8135 0.73312-0.66366 0.73311-0.66366 1.9987v4.8849h-1.4276v-12.008h1.4276v4.7074q0.50932-0.77941 1.1961-1.1653 0.69453-0.38585 1.5974-0.38585 1.4894 0 2.2534 0.92603 0.76399 0.91833 0.76399 2.7087z"/>
   <path id="path310" style="" d="m334.81 357.09v1.3428q-0.60193-0.30868-1.2502-0.46302-0.64823-0.15434-1.3428-0.15434-1.0572 0-1.5897 0.32412-0.52476 0.32411-0.52476 0.97234 0 0.49388 0.37814 0.77941 0.37813 0.27782 1.5202 0.53248l0.48617 0.10803q1.5125 0.32412 2.1453 0.91833 0.64051 0.58649 0.64051 1.6437 0 1.2038-0.95691 1.9061-0.94919 0.70225-2.6161 0.70225-0.69453 0-1.4508-0.13891-0.74855-0.13119-1.582-0.40128v-1.4662q0.78714 0.409 1.5511 0.61736 0.76398 0.20064 1.5125 0.20064 1.0032 0 1.5434-0.33955 0.54019-0.34726 0.54019-0.97234 0-0.57877-0.39357-0.88745-0.38585-0.30868-1.7055-0.59421l-0.49388-0.11575q-1.3196-0.27782-1.9061-0.84887-0.58649-0.57878-0.58649-1.582 0-1.2193 0.8643-1.8829 0.86431-0.66366 2.454-0.66366 0.78713 0 1.4817 0.11575 0.69453 0.11576 1.281 0.34727z"/>
  </g>
 </g>
 <g id="g218" transform="translate(-5.415 -0.775)">
  <path id="rect220" fill="#fff" d="m563.08 450.77h33.85v18.45h-33.85z"/>
  <g id="text222">
   <path id="path314" style="" d="m568.89 453.47v1.1807h-1.3582q-0.76398 0-1.0649 0.30868-0.29325 0.30868-0.29325 1.1112v0.76398h2.3382v1.1035h-2.3382v7.5395h-1.4276v-7.5395h-1.3582v-1.1035h1.3582v-0.60192q0-1.4431 0.67137-2.099 0.67138-0.66366 2.1299-0.66366h1.3428z"/>
   <path id="path316" style="" d="m569.13 463.51h1.6283v1.9601h-1.6283v-1.9601z"/>
   <path id="path318" style="" d="m578.97 458.16q-0.23922-0.13891-0.52475-0.20064-0.27781-0.0695-0.61736-0.0695-1.2038 0-1.8521 0.78714-0.64051 0.77941-0.64051 2.2456v4.553h-1.4276v-8.643h1.4276v1.3428q0.44759-0.78713 1.1653-1.1653 0.71768-0.38585 1.744-0.38585 0.14662 0 0.32411 0.0231 0.17749 0.0154 0.39357 0.054l0.008 1.4585z"/>
   <path id="path320" style="" d="m587.38 460.26v5.2167h-1.4199v-5.1704q0-1.227-0.47846-1.8366-0.47845-0.60965-1.4354-0.60965-1.1498 0-1.8135 0.73312-0.66366 0.73311-0.66366 1.9987v4.8849h-1.4276v-12.008h1.4276v4.7074q0.50932-0.77941 1.1961-1.1653 0.69453-0.38585 1.5974-0.38585 1.4894 0 2.2534 0.92603 0.76398 0.91833 0.76398 2.7087z"/>
   <path id="path322" style="" d="m595.73 457.09v1.3428q-0.60193-0.30868-1.2502-0.46302-0.64822-0.15434-1.3428-0.15434-1.0572 0-1.5897 0.32412-0.52476 0.32411-0.52476 0.97234 0 0.49388 0.37813 0.77941 0.37814 0.27782 1.5202 0.53248l0.48617 0.10803q1.5125 0.32412 2.1453 0.91833 0.64051 0.58649 0.64051 1.6437 0 1.2038-0.95691 1.9061-0.94919 0.70225-2.6161 0.70225-0.69453 0-1.4508-0.13891-0.74854-0.13119-1.582-0.40128v-1.4662q0.78713 0.409 1.5511 0.61736 0.76398 0.20064 1.5125 0.20064 1.0032 0 1.5434-0.33955 0.54019-0.34726 0.54019-0.97234 0-0.57877-0.39357-0.88745-0.38585-0.30868-1.7055-0.59421l-0.49388-0.11575q-1.3196-0.27782-1.9061-0.84887-0.58649-0.57878-0.58649-1.582 0-1.2193 0.8643-1.8829 0.8643-0.66366 2.454-0.66366 0.78714 0 1.4817 0.11575 0.69453 0.11576 1.281 0.34727z"/>
  </g>
 </g>
 <g id="g226" transform="translate(-5.415 -0.775)">
  <path id="rect228" fill="#fff" d="m369.25 350.77h61.5v18.45h-61.5z"/>
  <g id="text230">
   <path id="path326" style="" d="m375.04 353.47v1.1807h-1.3582q-0.76399 0-1.065 0.30868-0.29324 0.30868-0.29324 1.1112v0.76398h2.3382v1.1035h-2.3382v7.5395h-1.4276v-7.5395h-1.3582v-1.1035h1.3582v-0.60192q0-1.4431 0.67138-2.099 0.67138-0.66366 2.1299-0.66366h1.3428z"/>
   <path id="path328" style="" d="m375.28 363.51h1.6283v1.9601h-1.6283v-1.9601z"/>
   <path id="path330" style="" d="m385.12 358.16q-0.23923-0.13891-0.52476-0.20064-0.27781-0.0695-0.61736-0.0695-1.2038 0-1.8521 0.78714-0.64051 0.77941-0.64051 2.2456v4.553h-1.4276v-8.643h1.4276v1.3428q0.44758-0.78713 1.1653-1.1653 0.71768-0.38585 1.744-0.38585 0.14662 0 0.32411 0.0231 0.1775 0.0154 0.39357 0.054l0.008 1.4585z"/>
   <path id="path332" style="" d="m393.53 360.26v5.2167h-1.4199v-5.1704q0-1.227-0.47845-1.8366-0.47845-0.60965-1.4354-0.60965-1.1498 0-1.8135 0.73312-0.66367 0.73311-0.66367 1.9987v4.8849h-1.4276v-12.008h1.4276v4.7074q0.50933-0.77941 1.1961-1.1653 0.69453-0.38585 1.5974-0.38585 1.4894 0 2.2534 0.92603 0.76398 0.91833 0.76398 2.7087z"/>
   <path id="path334" style="" d="m401.89 357.09v1.3428q-0.60192-0.30868-1.2502-0.46302-0.64823-0.15434-1.3428-0.15434-1.0572 0-1.5897 0.32412-0.52475 0.32411-0.52475 0.97234 0 0.49388 0.37813 0.77941 0.37813 0.27782 1.5202 0.53248l0.48617 0.10803q1.5125 0.32412 2.1453 0.91833 0.64051 0.58649 0.64051 1.6437 0 1.2038-0.9569 1.9061-0.94919 0.70225-2.6161 0.70225-0.69452 0-1.4508-0.13891-0.74855-0.13119-1.582-0.40128v-1.4662q0.78713 0.409 1.5511 0.61736 0.76398 0.20064 1.5125 0.20064 1.0032 0 1.5434-0.33955 0.54019-0.34726 0.54019-0.97234 0-0.57877-0.39357-0.88745-0.38585-0.30868-1.7054-0.59421l-0.49389-0.11575q-1.3196-0.27782-1.9061-0.84887-0.58649-0.57878-0.58649-1.582 0-1.2193 0.86431-1.8829 0.8643-0.66366 2.454-0.66366 0.78713 0 1.4817 0.11575 0.69453 0.11576 1.281 0.34727z"/>
   <path id="path336" style="" d="m404.82 363.51h1.6283v1.9601h-1.6283v-1.9601z"/>
   <path id="path338" style="" d="m409.65 353.47h1.4199v12.008h-1.4199v-12.008z"/>
   <path id="path340" style="" d="m421.22 360.26v5.2167h-1.4199v-5.1704q0-1.227-0.47845-1.8366-0.47846-0.60965-1.4354-0.60965-1.1498 0-1.8135 0.73312-0.66366 0.73311-0.66366 1.9987v4.8849h-1.4276v-12.008h1.4276v4.7074q0.50932-0.77941 1.1961-1.1653 0.69453-0.38585 1.5974-0.38585 1.4894 0 2.2534 0.92603 0.76399 0.91833 0.76399 2.7087z"/>
   <path id="path342" style="" d="m429.58 357.09v1.3428q-0.60192-0.30868-1.2502-0.46302-0.64823-0.15434-1.3428-0.15434-1.0572 0-1.5897 0.32412-0.52475 0.32411-0.52475 0.97234 0 0.49388 0.37813 0.77941 0.37813 0.27782 1.5202 0.53248l0.48617 0.10803q1.5125 0.32412 2.1453 0.91833 0.64051 0.58649 0.64051 1.6437 0 1.2038-0.9569 1.9061-0.94919 0.70225-2.6161 0.70225-0.69452 0-1.4508-0.13891-0.74855-0.13119-1.582-0.40128v-1.4662q0.78713 0.409 1.5511 0.61736 0.76398 0.20064 1.5125 0.20064 1.0032 0 1.5434-0.33955 0.54019-0.34726 0.54019-0.97234 0-0.57877-0.39357-0.88745-0.38585-0.30868-1.7054-0.59421l-0.49389-0.11575q-1.3196-0.27782-1.9061-0.84887-0.58649-0.57878-0.58649-1.582 0-1.2193 0.86431-1.8829 0.8643-0.66366 2.454-0.66366 0.78713 0 1.4817 0.11575 0.69453 0.11576 1.281 0.34727z"/>
  </g>
 </g>
 <g id="g234" transform="translate(-5.415 -0.775)">
  <path id="rect236" fill="#fff" d="m448.35 350.77h63.3v18.45h-63.3z"/>
  <g id="text238">
   <path id="path346" style="" d="m454.12 353.47v1.1807h-1.3582q-0.76399 0-1.065 0.30868-0.29324 0.30868-0.29324 1.1112v0.76398h2.3382v1.1035h-2.3382v7.5395h-1.4276v-7.5395h-1.3582v-1.1035h1.3582v-0.60192q0-1.4431 0.67138-2.099 0.67138-0.66366 2.1299-0.66366h1.3428z"/>
   <path id="path348" style="" d="m454.36 363.51h1.6283v1.9601h-1.6283v-1.9601z"/>
   <path id="path350" style="" d="m464.2 358.16q-0.23923-0.13891-0.52476-0.20064-0.27781-0.0695-0.61736-0.0695-1.2038 0-1.8521 0.78714-0.64051 0.77941-0.64051 2.2456v4.553h-1.4276v-8.643h1.4276v1.3428q0.44758-0.78713 1.1653-1.1653 0.71768-0.38585 1.744-0.38585 0.14663 0 0.32412 0.0231 0.17749 0.0154 0.39356 0.054l0.008 1.4585z"/>
   <path id="path352" style="" d="m472.61 360.26v5.2167h-1.4199v-5.1704q0-1.227-0.47845-1.8366-0.47845-0.60965-1.4354-0.60965-1.1498 0-1.8135 0.73312-0.66366 0.73311-0.66366 1.9987v4.8849h-1.4276v-12.008h1.4276v4.7074q0.50932-0.77941 1.1961-1.1653 0.69453-0.38585 1.5974-0.38585 1.4894 0 2.2534 0.92603 0.76398 0.91833 0.76398 2.7087z"/>
   <path id="path354" style="" d="m480.96 357.09v1.3428q-0.60192-0.30868-1.2502-0.46302-0.64823-0.15434-1.3428-0.15434-1.0572 0-1.5897 0.32412-0.52475 0.32411-0.52475 0.97234 0 0.49388 0.37813 0.77941 0.37813 0.27782 1.5202 0.53248l0.48617 0.10803q1.5125 0.32412 2.1453 0.91833 0.64051 0.58649 0.64051 1.6437 0 1.2038-0.9569 1.9061-0.94919 0.70225-2.6161 0.70225-0.69453 0-1.4508-0.13891-0.74855-0.13119-1.582-0.40128v-1.4662q0.78713 0.409 1.5511 0.61736 0.76399 0.20064 1.5125 0.20064 1.0032 0 1.5434-0.33955 0.54019-0.34726 0.54019-0.97234 0-0.57877-0.39356-0.88745-0.38585-0.30868-1.7055-0.59421l-0.49389-0.11575q-1.3196-0.27782-1.9061-0.84887-0.5865-0.57878-0.5865-1.582 0-1.2193 0.86431-1.8829 0.8643-0.66366 2.454-0.66366 0.78713 0 1.4817 0.11575 0.69453 0.11576 1.281 0.34727z"/>
   <path id="path356" style="" d="m483.9 363.51h1.6283v1.9601h-1.6283v-1.9601z"/>
   <path id="path358" style="" d="m493.74 358.16q-0.23923-0.13891-0.52476-0.20064-0.27781-0.0695-0.61736-0.0695-1.2038 0-1.8521 0.78714-0.64051 0.77941-0.64051 2.2456v4.553h-1.4276v-8.643h1.4276v1.3428q0.44759-0.78713 1.1653-1.1653 0.71768-0.38585 1.744-0.38585 0.14662 0 0.32411 0.0231 0.17749 0.0154 0.39357 0.054l0.008 1.4585z"/>
   <path id="path360" style="" d="m502.15 360.26v5.2167h-1.4199v-5.1704q0-1.227-0.47845-1.8366-0.47846-0.60965-1.4354-0.60965-1.1498 0-1.8135 0.73312-0.66366 0.73311-0.66366 1.9987v4.8849h-1.4276v-12.008h1.4276v4.7074q0.50932-0.77941 1.1961-1.1653 0.69453-0.38585 1.5974-0.38585 1.4894 0 2.2534 0.92603 0.76399 0.91833 0.76399 2.7087z"/>
   <path id="path362" style="" d="m510.51 357.09v1.3428q-0.60192-0.30868-1.2502-0.46302-0.64823-0.15434-1.3428-0.15434-1.0572 0-1.5897 0.32412-0.52475 0.32411-0.52475 0.97234 0 0.49388 0.37813 0.77941 0.37813 0.27782 1.5202 0.53248l0.48617 0.10803q1.5125 0.32412 2.1453 0.91833 0.64051 0.58649 0.64051 1.6437 0 1.2038-0.95691 1.9061-0.94919 0.70225-2.6161 0.70225-0.69453 0-1.4508-0.13891-0.74855-0.13119-1.582-0.40128v-1.4662q0.78713 0.409 1.5511 0.61736 0.76398 0.20064 1.5125 0.20064 1.0032 0 1.5434-0.33955 0.54019-0.34726 0.54019-0.97234 0-0.57877-0.39357-0.88745-0.38585-0.30868-1.7054-0.59421l-0.49389-0.11575q-1.3196-0.27782-1.9061-0.84887-0.58649-0.57878-0.58649-1.582 0-1.2193 0.8643-1.8829 0.86431-0.66366 2.454-0.66366 0.78713 0 1.4817 0.11575 0.69453 0.11576 1.281 0.34727z"/>
  </g>
 </g>
</svg>
