<?xml version="1.0" encoding="UTF-8" standalone="no"?>
<svg id="svg2" xmlns:rdf="http://www.w3.org/1999/02/22-rdf-syntax-ns#" xmlns="http://www.w3.org/2000/svg" viewBox="359 82 148.82608 273.11013" height="13.853cm" width="8.2174cm" version="1.1" xmlns:cc="http://creativecommons.org/ns#" xmlns:dc="http://purl.org/dc/elements/1.1/">
 <metadata id="metadata54">
  <rdf:RDF>
   <cc:Work rdf:about="">
    <dc:format>image/svg+xml</dc:format>
    <dc:type rdf:resource="http://purl.org/dc/dcmitype/StillImage"/>
   </cc:Work>
  </rdf:RDF>
 </metadata>
 <g id="g4" transform="translate(-6.587 -2.4077)">
  <path id="rect6" fill="#fff" d="m360 100h160v100h-160z"/>
  <path id="rect8" d="m360 100h160v100h-160z" stroke="#000" stroke-width="2" fill="none"/>
 </g>
 <g id="text10">
  <path id="path33" style="" d="m370.85 119.48-2.6789 3.605 2.8178 3.8034h-1.4354l-2.1564-2.9104-2.1564 2.9104h-1.4354l2.8774-3.8762-2.6326-3.5322h1.4354l1.9645 2.6392 1.9645-2.6392h1.4354z"/>
  <path id="path35" style="" d="m373.02 125.21h1.3957v1.6801h-1.3957v-1.6801zm0-5.3248h1.3957v1.6801h-1.3957v-1.6801z"/>
  <path id="path37" style="" d="m382 125.77h2.1828v-7.534l-2.3746 0.47625v-1.2171l2.3614-0.47625h1.3362v8.7511h2.1828v1.1245h-5.6886v-1.1245z"/>
  <path id="path39" style="" d="m367.77 144.51q-0.51594 1.3229-1.0054 1.7264-0.48948 0.40349-1.3097 0.40349h-0.97235v-1.0186h0.71438q0.50271 0 0.78052-0.23812 0.27781-0.23813 0.61516-1.1245l0.21828-0.55563-2.9964-7.2893h1.2898l2.3151 5.7944 2.3151-5.7944h1.2898l-3.2544 8.0963z"/>
  <path id="path41" style="" d="m372.04 142.15h1.3957v1.6801h-1.3957v-1.6801zm0-5.3248h1.3957v1.6801h-1.3957v-1.6801z"/>
  <path id="path43" style="" d="m381.94 142.7h4.6633v1.1245h-6.2706v-1.1245q0.76068-0.78714 2.0704-2.1101 1.3163-1.3295 1.6536-1.7132 0.64162-0.72099 0.89297-1.2171 0.25797-0.50271 0.25797-0.98558 0-0.78714-0.55563-1.2832-0.54901-0.4961-1.4354-0.4961-0.62839 0-1.3295 0.21828-0.69453 0.21829-1.4883 0.66146v-1.3494q0.80698-0.32412 1.5081-0.48948 0.70114-0.16537 1.2832-0.16537 1.5346 0 2.4474 0.76729 0.91281 0.7673 0.91281 2.0505 0 0.60854-0.23151 1.1576-0.22489 0.54239-0.82682 1.2832-0.16537 0.19182-1.0517 1.1112-0.88636 0.91281-2.5003 2.5598z"/>
  <path id="path45" style="" d="m365.87 159.65v3.9291h-1.2237v-10.226h1.2237v1.1245q0.38365-0.66146 0.96573-0.97896 0.5887-0.32412 1.4023-0.32412 1.3494 0 2.1894 1.0716 0.84667 1.0716 0.84667 2.8178t-0.84667 2.8178q-0.84005 1.0716-2.1894 1.0716-0.8136 0-1.4023-0.3175-0.58208-0.32411-0.96573-0.98557zm4.1407-2.5863q0-1.3428-0.55563-2.1034-0.54901-0.76729-1.5147-0.76729-0.96573 0-1.5214 0.76729-0.54901 0.76068-0.54901 2.1034 0 1.3428 0.54901 2.11 0.55563 0.76068 1.5214 0.76068 0.96573 0 1.5147-0.76068 0.55563-0.76729 0.55563-2.11z"/>
  <path id="path47" style="" d="m377.58 154.49q-0.20506-0.11907-0.4498-0.17198-0.23812-0.0595-0.52916-0.0595-1.0319 0-1.5875 0.67469-0.54901 0.66807-0.54901 1.9248v3.9026h-1.2237v-7.4084h1.2237v1.1509q0.38365-0.67469 0.99881-0.99881 0.61515-0.33073 1.4949-0.33073 0.12568 0 0.27782 0.0198 0.15213 0.0132 0.33734 0.0463l0.007 1.2502z"/>
  <path id="path49" style="" d="m378.87 153.35h1.2171v7.4084h-1.2171v-7.4084zm0-2.884h1.2171v1.5412h-1.2171v-1.5412z"/>
  <path id="path51" style="" d="m388.79 156.29v4.4715h-1.2171v-4.4318q0-1.0517-0.4101-1.5743-0.41011-0.52255-1.2303-0.52255-0.98557 0-1.5544 0.62839-0.56886 0.62838-0.56886 1.7132v4.187h-1.2237v-7.4084h1.2237v1.1509q0.43657-0.66808 1.0253-0.99881 0.59531-0.33073 1.3692-0.33073 1.2766 0 1.9315 0.79375 0.65485 0.78714 0.65485 2.3217z"/>
  <path id="path53" style="" d="m392.43 151.25v2.1034h2.5069v0.94588h-2.5069v4.0217q0 0.9062 0.24474 1.1642 0.25136 0.25797 1.012 0.25797h1.2502v1.0186h-1.2502q-1.4089 0-1.9447-0.52256-0.53578-0.52916-0.53578-1.9182v-4.0217h-0.89297v-0.94588h0.89297v-2.1034h1.2237z"/>
  <path id="path55" style="" d="m402.17 163.01v0.94589h-7.0379v-0.94589h7.0379z"/>
  <path id="path57" style="" d="m404.5 159.65v3.9291h-1.2237v-10.226h1.2237v1.1245q0.38365-0.66146 0.96573-0.97896 0.5887-0.32412 1.4023-0.32412 1.3494 0 2.1894 1.0716 0.84667 1.0716 0.84667 2.8178t-0.84667 2.8178q-0.84005 1.0716-2.1894 1.0716-0.8136 0-1.4023-0.3175-0.58208-0.32411-0.96573-0.98557zm4.1407-2.5863q0-1.3428-0.55562-2.1034-0.54902-0.76729-1.5148-0.76729-0.96573 0-1.5214 0.76729-0.54901 0.76068-0.54901 2.1034 0 1.3428 0.54901 2.11 0.55563 0.76068 1.5214 0.76068 0.96573 0 1.5148-0.76068 0.55562-0.76729 0.55562-2.11z"/>
  <path id="path59" style="" d="m414.79 154.2q-0.97896 0-1.5478 0.76729-0.56885 0.76068-0.56885 2.0902t0.56224 2.0968q0.56885 0.76068 1.5544 0.76068 0.97235 0 1.5412-0.76729 0.56886-0.76729 0.56886-2.0902 0-1.3163-0.56886-2.0836-0.56885-0.77391-1.5412-0.77391zm0-1.0319q1.5875 0 2.4937 1.0319t0.9062 2.8575q0 1.819-0.9062 2.8575-0.9062 1.0319-2.4937 1.0319-1.5941 0-2.5003-1.0319-0.89958-1.0385-0.89958-2.8575 0-1.8256 0.89958-2.8575 0.9062-1.0319 2.5003-1.0319z"/>
  <path id="path61" style="" d="m424.92 153.57v1.1509q-0.51594-0.26459-1.0716-0.39688-0.55562-0.13229-1.1509-0.13229-0.9062 0-1.3626 0.27781-0.44979 0.27782-0.44979 0.83344 0 0.42334 0.32412 0.66808 0.32411 0.23812 1.3031 0.45641l0.41672 0.0926q1.2965 0.27781 1.8389 0.78714 0.54901 0.50271 0.54901 1.4089 0 1.0319-0.82021 1.6338-0.81359 0.60193-2.2424 0.60193-0.59531 0-1.2435-0.11906-0.64162-0.11245-1.356-0.34396v-1.2568q0.67468 0.35057 1.3295 0.52916 0.65485 0.17198 1.2965 0.17198 0.8599 0 1.3229-0.29104 0.46302-0.29766 0.46302-0.83344 0-0.49609-0.33734-0.76068-0.33073-0.26458-1.4618-0.50932l-0.42333-0.0992q-1.1311-0.23813-1.6338-0.72761-0.50271-0.49609-0.50271-1.356 0-1.0451 0.74084-1.614 0.74083-0.56886 2.1034-0.56886 0.67469 0 1.27 0.0992 0.59532 0.0992 1.098 0.29766z"/>
  <path id="path63" style="" d="m427.57 159.08h1.3957v1.6801h-1.3957v-1.6801zm0-5.3248h1.3957v1.6801h-1.3957v-1.6801z"/>
  <path id="path65" style="" d="m439.9 150.47v1.012h-1.1642q-0.65485 0-0.91282 0.26459-0.25135 0.26458-0.25135 0.9525v0.65485h2.0042v0.94588h-2.0042v6.4625h-1.2237v-6.4625h-1.1642v-0.94588h1.1642v-0.51594q0-1.2369 0.57547-1.7992 0.57547-0.56886 1.8256-0.56886h1.151z"/>
  <path id="path67" style="" d="m440.79 157.84v-4.4847h1.2171v4.4384q0 1.0517 0.4101 1.5809 0.41011 0.52256 1.2303 0.52256 0.98557 0 1.5544-0.62839 0.57547-0.62839 0.57547-1.7132v-4.2003h1.2171v7.4084h-1.2171v-1.1377q-0.44318 0.67469-1.0319 1.0054-0.58208 0.32411-1.356 0.32411-1.2766 0-1.9381-0.79375-0.66146-0.79375-0.66146-2.3217zm3.0626-4.6633z"/>
  <path id="path69" style="" d="m455.67 156.29v4.4715h-1.2171v-4.4318q0-1.0517-0.4101-1.5743-0.41011-0.52255-1.2303-0.52255-0.98557 0-1.5544 0.62839-0.56886 0.62838-0.56886 1.7132v4.187h-1.2237v-7.4084h1.2237v1.1509q0.43657-0.66808 1.0253-0.99881 0.59531-0.33073 1.3692-0.33073 1.2766 0 1.9315 0.79375 0.65485 0.78714 0.65485 2.3217z"/>
  <path id="path71" style="" d="m463.45 153.64v1.1377q-0.51594-0.28443-1.0385-0.42334-0.51594-0.14552-1.0451-0.14552-1.184 0-1.8389 0.75406-0.65484 0.74745-0.65484 2.1034t0.65484 2.11q0.65485 0.74745 1.8389 0.74745 0.52917 0 1.0451-0.1389 0.52255-0.14552 1.0385-0.42995v1.1245q-0.50933 0.23813-1.0583 0.35719-0.54239 0.11906-1.1576 0.11906-1.6735 0-2.6591-1.0517-0.98558-1.0517-0.98558-2.8377 0-1.8124 0.99219-2.8509 0.99881-1.0385 2.7318-1.0385 0.56224 0 1.098 0.11907 0.53578 0.11244 1.0385 0.34395z"/>
  <path id="path73" style="" d="m466.78 151.25v2.1034h2.5069v0.94588h-2.5069v4.0217q0 0.9062 0.24474 1.1642 0.25136 0.25797 1.012 0.25797h1.2502v1.0186h-1.2502q-1.4089 0-1.9447-0.52256-0.53578-0.52916-0.53578-1.9182v-4.0217h-0.89297v-0.94588h0.89297v-2.1034h1.2237z"/>
  <path id="path75" style="" d="m470.89 153.35h1.2171v7.4084h-1.2171v-7.4084zm0-2.884h1.2171v1.5412h-1.2171v-1.5412z"/>
  <path id="path77" style="" d="m477.52 154.2q-0.97896 0-1.5478 0.76729-0.56885 0.76068-0.56885 2.0902t0.56224 2.0968q0.56885 0.76068 1.5544 0.76068 0.97234 0 1.5412-0.76729 0.56885-0.76729 0.56885-2.0902 0-1.3163-0.56885-2.0836-0.56886-0.77391-1.5412-0.77391zm0-1.0319q1.5875 0 2.4937 1.0319t0.9062 2.8575q0 1.819-0.9062 2.8575-0.9062 1.0319-2.4937 1.0319-1.5941 0-2.5003-1.0319-0.89959-1.0385-0.89959-2.8575 0-1.8256 0.89959-2.8575 0.9062-1.0319 2.5003-1.0319z"/>
  <path id="path79" style="" d="m489.09 156.29v4.4715h-1.2171v-4.4318q0-1.0517-0.41011-1.5743-0.4101-0.52255-1.2303-0.52255-0.98557 0-1.5544 0.62839-0.56885 0.62838-0.56885 1.7132v4.187h-1.2237v-7.4084h1.2237v1.1509q0.43656-0.66808 1.0253-0.99881 0.59532-0.33073 1.3692-0.33073 1.2766 0 1.9315 0.79375 0.65484 0.78714 0.65484 2.3217z"/>
  <path id="path81" style="" d="m494.45 150.48q-0.88636 1.5214-1.3163 3.0096-0.42995 1.4883-0.42995 3.0163t0.42995 3.0295q0.43656 1.4949 1.3163 3.0096h-1.0583q-0.99219-1.5544-1.4883-3.056-0.48948-1.5015-0.48948-2.9832 0-1.4751 0.48948-2.97t1.4883-3.056h1.0583z"/>
  <path id="path83" style="" d="m496.63 150.48h1.0583q0.99219 1.561 1.4817 3.056 0.49609 1.4949 0.49609 2.97 0 1.4817-0.49609 2.9832-0.48948 1.5015-1.4817 3.056h-1.0583q0.87974-1.5147 1.3097-3.0096 0.43656-1.5015 0.43656-3.0295t-0.43656-3.0163q-0.42995-1.4883-1.3097-3.0096z"/>
  <path id="path85" style="" d="m370.02 170.57v1.1377q-0.51594-0.28442-1.0385-0.42333-0.51594-0.14552-1.0451-0.14552-1.184 0-1.8389 0.75406-0.65484 0.74745-0.65484 2.1034t0.65484 2.11q0.65485 0.74745 1.8389 0.74745 0.52917 0 1.0451-0.1389 0.52255-0.14553 1.0385-0.42995v1.1245q-0.50932 0.23812-1.0583 0.35719-0.54239 0.11906-1.1576 0.11906-1.6735 0-2.6591-1.0517-0.98557-1.0517-0.98557-2.8377 0-1.8124 0.99219-2.8509 0.9988-1.0385 2.7318-1.0385 0.56225 0 1.098 0.11906 0.53578 0.11245 1.0385 0.34396z"/>
  <path id="path87" style="" d="m375.02 171.14q-0.97896 0-1.5478 0.76729-0.56885 0.76068-0.56885 2.0902t0.56224 2.0968q0.56885 0.76068 1.5544 0.76068 0.97234 0 1.5412-0.76729 0.56885-0.76729 0.56885-2.0902 0-1.3163-0.56885-2.0836-0.56886-0.77391-1.5412-0.77391zm0-1.0319q1.5875 0 2.4937 1.0319t0.9062 2.8575q0 1.819-0.9062 2.8575-0.9062 1.0319-2.4937 1.0319-1.5941 0-2.5003-1.0319-0.89959-1.0385-0.89959-2.8575 0-1.8256 0.89959-2.8575 0.9062-1.0319 2.5003-1.0319z"/>
  <path id="path89" style="" d="m380.43 167.4h1.2171v10.292h-1.2171v-10.292z"/>
  <path id="path91" style="" d="m387.06 171.14q-0.97896 0-1.5478 0.76729-0.56885 0.76068-0.56885 2.0902t0.56224 2.0968q0.56885 0.76068 1.5544 0.76068 0.97235 0 1.5412-0.76729 0.56886-0.76729 0.56886-2.0902 0-1.3163-0.56886-2.0836-0.56885-0.77391-1.5412-0.77391zm0-1.0319q1.5875 0 2.4937 1.0319t0.9062 2.8575q0 1.819-0.9062 2.8575-0.9062 1.0319-2.4937 1.0319-1.5941 0-2.5003-1.0319-0.89959-1.0385-0.89959-2.8575 0-1.8256 0.89959-2.8575 0.9062-1.0319 2.5003-1.0319z"/>
  <path id="path93" style="" d="m396.76 171.42q-0.20506-0.11907-0.4498-0.17198-0.23812-0.0595-0.52916-0.0595-1.0319 0-1.5875 0.67468-0.54901 0.66808-0.54901 1.9248v3.9026h-1.2237v-7.4084h1.2237v1.1509q0.38365-0.67469 0.9988-0.99881 0.61516-0.33073 1.4949-0.33073 0.12568 0 0.27782 0.0198 0.15213 0.0132 0.33734 0.0463l0.007 1.2502z"/>
  <path id="path95" style="" d="m398.13 176.01h1.3957v1.6801h-1.3957v-1.6801zm0-5.3248h1.3957v1.6801h-1.3957v-1.6801z"/>
  <path id="path97" style="" d="m407.86 167.82v3.6711h-1.1245v-3.6711h1.1245z"/>
  <path id="path99" style="" d="m415.75 173.99q0-1.3428-0.55562-2.1034-0.54902-0.76729-1.5148-0.76729-0.96573 0-1.5214 0.76729-0.54901 0.76068-0.54901 2.1034 0 1.3428 0.54901 2.11 0.55563 0.76068 1.5214 0.76068 0.96573 0 1.5148-0.76068 0.55562-0.76729 0.55562-2.11zm-4.1407-2.5863q0.38365-0.66146 0.96573-0.97896 0.5887-0.32412 1.4023-0.32412 1.3494 0 2.1894 1.0716 0.84667 1.0716 0.84667 2.8178t-0.84667 2.8178q-0.84005 1.0716-2.1894 1.0716-0.8136 0-1.4023-0.3175-0.58208-0.32412-0.96573-0.98558v1.1113h-1.2237v-10.292h1.2237v4.0084z"/>
  <path id="path101" style="" d="m419.04 167.4h1.2171v10.292h-1.2171v-10.292z"/>
  <path id="path103" style="" d="m426.16 173.97q-1.4751 0-2.0439 0.33734-0.56886 0.33735-0.56886 1.1509 0 0.64823 0.42333 1.0319 0.42995 0.37703 1.1642 0.37703 1.012 0 1.6206-0.71438 0.61516-0.72099 0.61516-1.9116v-0.2712h-1.2105zm2.4276-0.50271v4.2267h-1.2171v-1.1245q-0.41672 0.67469-1.0385 0.99881-0.62178 0.3175-1.5214 0.3175-1.1377 0-1.8124-0.635-0.66808-0.64162-0.66808-1.7132 0-1.2502 0.83344-1.8852 0.84006-0.63501 2.5003-0.63501h1.7066v-0.11906q0-0.84005-0.55563-1.2965-0.54901-0.46302-1.5478-0.46302-0.63501 0-1.2369 0.15213-0.60193 0.15214-1.1576 0.45641v-1.1245q0.66807-0.25797 1.2965-0.38365 0.62839-0.13229 1.2237-0.13229 1.6074 0 2.4011 0.83344 0.79375 0.83344 0.79375 2.5268z"/>
  <path id="path105" style="" d="m436.43 170.57v1.1377q-0.51594-0.28442-1.0385-0.42333-0.51593-0.14552-1.0451-0.14552-1.184 0-1.8389 0.75406-0.65485 0.74745-0.65485 2.1034t0.65485 2.11q0.65484 0.74745 1.8389 0.74745 0.52917 0 1.0451-0.1389 0.52256-0.14553 1.0385-0.42995v1.1245q-0.50933 0.23812-1.0583 0.35719-0.5424 0.11906-1.1576 0.11906-1.6735 0-2.6591-1.0517-0.98558-1.0517-0.98558-2.8377 0-1.8124 0.99219-2.8509 0.99881-1.0385 2.7318-1.0385 0.56224 0 1.098 0.11906 0.53579 0.11245 1.0385 0.34396z"/>
  <path id="path107" style="" d="m438.52 167.4h1.2237v6.0788l3.6314-3.1948h1.5544l-3.9291 3.466 4.0944 3.9423h-1.5875l-3.7637-3.6182v3.6182h-1.2237v-10.292z"/>
  <path id="path109" style="" d="m447.57 167.82v3.6711h-1.1245v-3.6711h1.1245z"/>
 </g>
 <g id="text20">
  <path id="path112" style="" d="m418.96 85.102v1.1509q-0.51594-0.26458-1.0716-0.39688-0.55563-0.13229-1.1509-0.13229-0.9062 0-1.3626 0.27781-0.44979 0.27781-0.44979 0.83344 0 0.42333 0.32412 0.66807 0.32411 0.23813 1.3031 0.45641l0.41672 0.0926q1.2965 0.27781 1.8389 0.78714 0.54901 0.50271 0.54901 1.4089 0 1.0319-0.82021 1.6338-0.81359 0.60193-2.2424 0.60193-0.59531 0-1.2435-0.11906-0.64162-0.11245-1.356-0.34396v-1.2568q0.67469 0.35057 1.3295 0.52917 0.65484 0.17198 1.2965 0.17198 0.8599 0 1.3229-0.29104 0.46302-0.29766 0.46302-0.83344 0-0.4961-0.33734-0.76068-0.33073-0.26458-1.4618-0.50932l-0.42333-0.09922q-1.1311-0.23812-1.6338-0.72761-0.50271-0.4961-0.50271-1.356 0-1.0451 0.74084-1.614 0.74083-0.56886 2.1034-0.56886 0.67469 0 1.27 0.09922 0.59532 0.09922 1.098 0.29766z"/>
  <path id="path114" style="" d="m427.46 87.821v4.4715h-1.2171v-4.4318q0-1.0517-0.41011-1.5743-0.4101-0.52255-1.2303-0.52255-0.98558 0-1.5544 0.62839-0.56886 0.62839-0.56886 1.7132v4.187h-1.2237v-10.292h1.2237v4.0349q0.43657-0.66807 1.0253-0.9988 0.59531-0.33073 1.3692-0.33073 1.2766 0 1.9315 0.79375 0.65485 0.78714 0.65485 2.3217z"/>
  <path id="path116" style="" d="m433.27 88.568q-1.475 0-2.0439 0.33734-0.56885 0.33734-0.56885 1.1509 0 0.64823 0.42333 1.0319 0.42995 0.37703 1.1642 0.37703 1.012 0 1.6206-0.71438 0.61516-0.72099 0.61516-1.9116v-0.2712h-1.2105zm2.4276-0.50271v4.2267h-1.2171v-1.1245q-0.41672 0.67469-1.0385 0.9988-0.62177 0.3175-1.5214 0.3175-1.1377 0-1.8124-0.635-0.66808-0.64162-0.66808-1.7132 0-1.2502 0.83344-1.8852 0.84005-0.635 2.5003-0.635h1.7066v-0.11906q0-0.84005-0.55563-1.2965-0.54901-0.46302-1.5478-0.46302-0.635 0-1.2369 0.15214-0.60193 0.15214-1.1576 0.45641v-1.1245q0.66807-0.25797 1.2965-0.38365 0.62839-0.13229 1.2237-0.13229 1.6074 0 2.4011 0.83344 0.79375 0.83344 0.79375 2.5268z"/>
  <path id="path118" style="" d="m439.39 91.181v3.9291h-1.2237v-10.226h1.2237v1.1245q0.38365-0.66146 0.96573-0.97896 0.5887-0.32412 1.4023-0.32412 1.3494 0 2.1894 1.0716 0.84667 1.0716 0.84667 2.8178 0 1.7463-0.84667 2.8178-0.84006 1.0716-2.1894 1.0716-0.81359 0-1.4023-0.3175-0.58208-0.32412-0.96573-0.98558zm4.1407-2.5863q0-1.3428-0.55563-2.1034-0.54901-0.76729-1.5147-0.76729-0.96573 0-1.5214 0.76729-0.54901 0.76068-0.54901 2.1034 0 1.3428 0.54901 2.1101 0.55563 0.76068 1.5214 0.76068 0.96573 0 1.5147-0.76068 0.55563-0.76729 0.55563-2.1101z"/>
  <path id="path120" style="" d="m453.14 88.284v0.59531h-5.596q0.0794 1.2568 0.75407 1.9182 0.6813 0.65484 1.8918 0.65484 0.70115 0 1.356-0.17198 0.66146-0.17198 1.3097-0.51594v1.1509q-0.65485 0.27781-1.3428 0.42333-0.68792 0.14552-1.3957 0.14552-1.7727 0-2.8112-1.0319-1.0319-1.0319-1.0319-2.7914 0-1.819 0.97896-2.884 0.98558-1.0716 2.6524-1.0716 1.4949 0 2.3614 0.96573 0.87312 0.95912 0.87312 2.6128zm-1.2171-0.35719q-0.0132-0.9988-0.56224-1.5941-0.5424-0.59531-1.442-0.59531-1.0186 0-1.6338 0.57547-0.60855 0.57547-0.70115 1.6206l4.3392-0.0066z"/>
 </g>
 <g id="g24" transform="translate(-6.587 -2.4077)">
  <path id="rect26" fill="#fff" d="m360 240h160v100h-160z"/>
  <path id="rect28" d="m360 240h160v100h-160z" stroke="#000" stroke-width="2" fill="none"/>
 </g>
 <g id="text30">
  <path id="path125" style="" d="m363.98 259.48h1.2171l1.5214 5.7812 1.5147-5.7812h1.4354l1.5214 5.7812 1.5148-5.7812h1.2171l-1.9381 7.4084h-1.4354l-1.5941-6.0722-1.6007 6.0722h-1.4354l-1.9381-7.4084z"/>
  <path id="path127" style="" d="m375.35 265.21h1.3957v1.6801h-1.3957v-1.6801zm0-5.3248h1.3957v1.6801h-1.3957v-1.6801z"/>
  <path id="path129" style="" d="m388.15 261.57q0.95912 0.20505 1.4949 0.85328 0.5424 0.64824 0.5424 1.6007 0 1.4618-1.0054 2.2622-1.0054 0.80037-2.8575 0.80037-0.62177 0-1.2832-0.12568-0.65485-0.11906-1.356-0.3638v-1.2898q0.55562 0.32411 1.2171 0.48948 0.66146 0.16536 1.3824 0.16536 1.2568 0 1.9116-0.49609 0.66146-0.49609 0.66146-1.442 0-0.87313-0.61515-1.3626-0.60855-0.4961-1.7-0.4961h-1.1509v-1.098h1.2039q0.98558 0 1.5081-0.39026 0.52255-0.39688 0.52255-1.1377 0-0.76068-0.54239-1.1642-0.53579-0.41011-1.5412-0.41011-0.54901 0-1.1774 0.11907-0.62839 0.11906-1.3825 0.37041v-1.1906q0.76068-0.21167 1.4221-0.3175 0.66808-0.10584 1.2568-0.10584 1.5214 0 2.4077 0.69454 0.88636 0.68791 0.88636 1.8653 0 0.82021-0.46964 1.3891-0.46964 0.56224-1.3362 0.78052z"/>
  <path id="path131" style="" d="m370.85 279.35v4.4715h-1.2171v-4.4318q0-1.0517-0.41011-1.5743-0.4101-0.52255-1.2303-0.52255-0.98558 0-1.5544 0.62838-0.56886 0.62839-0.56886 1.7132v4.187h-1.2237v-10.292h1.2237v4.0349q0.43657-0.66808 1.0253-0.99881 0.59532-0.33073 1.3692-0.33073 1.2766 0 1.9315 0.79375 0.65485 0.78714 0.65485 2.3217z"/>
  <path id="path133" style="" d="m373.6 282.15h1.3957v1.6801h-1.3957v-1.6801zm0-5.3248h1.3957v1.6801h-1.3957v-1.6801z"/>
  <path id="path135" style="" d="m386.02 275.11-3.3734 5.2718h3.3734v-5.2718zm-0.35058-1.1642h1.6801v6.436h1.4089v1.1112h-1.4089v2.3283h-1.3295v-2.3283h-4.4582v-1.2898l4.1077-6.2574z"/>
  <path id="path137" style="" d="m369.56 296.97q0-1.3229-0.54901-2.0505-0.5424-0.72761-1.528-0.72761-0.97896 0-1.528 0.72761-0.5424 0.7276-0.5424 2.0505 0 1.3163 0.5424 2.0439 0.54901 0.72761 1.528 0.72761 0.98557 0 1.528-0.72761 0.54901-0.7276 0.54901-2.0439zm1.2171 2.8707q0 1.8918-0.84005 2.8112-0.84006 0.92605-2.5731 0.92605-0.64162 0-1.2105-0.0992-0.56885-0.0926-1.1046-0.29104v-1.184q0.53578 0.29104 1.0583 0.42995 0.52256 0.13891 1.065 0.13891 1.1972 0 1.7926-0.62839 0.59531-0.62177 0.59531-1.8852v-0.60193q-0.37703 0.65485-0.96573 0.97896-0.5887 0.32412-1.4089 0.32412-1.3626 0-2.196-1.0385-0.83343-1.0385-0.83343-2.7517 0-1.7198 0.83343-2.7583 0.83344-1.0385 2.196-1.0385 0.82021 0 1.4089 0.32412 0.5887 0.32411 0.96573 0.97896v-1.1245h1.2171v6.4889z"/>
  <path id="path139" style="" d="m379.63 296.75v0.59531h-5.596q0.0794 1.2568 0.75406 1.9182 0.68131 0.65484 1.8918 0.65484 0.70114 0 1.356-0.17198 0.66146-0.17198 1.3097-0.51593v1.1509q-0.65484 0.27781-1.3428 0.42333-0.68792 0.14552-1.3957 0.14552-1.7727 0-2.8112-1.0319-1.0319-1.0319-1.0319-2.7914 0-1.819 0.97896-2.884 0.98558-1.0716 2.6525-1.0716 1.4949 0 2.3614 0.96573 0.87313 0.95912 0.87313 2.6128zm-1.2171-0.35719q-0.0132-0.9988-0.56224-1.5941-0.5424-0.59531-1.442-0.59531-1.0186 0-1.6338 0.57547-0.60854 0.57547-0.70115 1.6206l4.3392-0.007z"/>
  <path id="path141" style="" d="m382.83 291.25v2.1034h2.5069v0.94588h-2.5069v4.0217q0 0.9062 0.24474 1.1642 0.25136 0.25797 1.012 0.25797h1.2502v1.0186h-1.2502q-1.4089 0-1.9447-0.52256-0.53579-0.52916-0.53579-1.9182v-4.0217h-0.89297v-0.94588h0.89297v-2.1034h1.2237z"/>
  <path id="path143" style="" d="m392.57 303.01v0.94589h-7.0379v-0.94589h7.0379z"/>
  <path id="path145" style="" d="m397.08 297.04q-1.4751 0-2.0439 0.33734-0.56886 0.33735-0.56886 1.1509 0 0.64823 0.42333 1.0319 0.42995 0.37703 1.1642 0.37703 1.012 0 1.6206-0.71437 0.61516-0.721 0.61516-1.9116v-0.2712h-1.2105zm2.4276-0.50271v4.2267h-1.2171v-1.1245q-0.41672 0.67469-1.0385 0.9988-0.62178 0.3175-1.5214 0.3175-1.1377 0-1.8124-0.635-0.66808-0.64162-0.66808-1.7132 0-1.2502 0.83344-1.8852 0.84006-0.635 2.5003-0.635h1.7066v-0.11907q0-0.84005-0.55563-1.2965-0.54901-0.46302-1.5478-0.46302-0.63501 0-1.2369 0.15214-0.60193 0.15213-1.1576 0.4564v-1.1245q0.66808-0.25797 1.2965-0.38365 0.62839-0.13229 1.2237-0.13229 1.6074 0 2.4011 0.83344 0.79375 0.83344 0.79375 2.5268z"/>
  <path id="path147" style="" d="m406.32 294.49q-0.20506-0.11907-0.4498-0.17198-0.23812-0.0595-0.52916-0.0595-1.0319 0-1.5875 0.67469-0.54901 0.66807-0.54901 1.9248v3.9026h-1.2237v-7.4084h1.2237v1.1509q0.38365-0.67469 0.9988-0.99881 0.61516-0.33073 1.4949-0.33073 0.12568 0 0.27782 0.0198 0.15213 0.0132 0.33734 0.0463l0.007 1.2502z"/>
  <path id="path149" style="" d="m413.65 296.75v0.59531h-5.596q0.0794 1.2568 0.75406 1.9182 0.6813 0.65484 1.8918 0.65484 0.70114 0 1.356-0.17198 0.66146-0.17198 1.3097-0.51593v1.1509q-0.65485 0.27781-1.3428 0.42333-0.68792 0.14552-1.3957 0.14552-1.7727 0-2.8112-1.0319-1.0319-1.0319-1.0319-2.7914 0-1.819 0.97896-2.884 0.98558-1.0716 2.6525-1.0716 1.4949 0 2.3614 0.96573 0.87313 0.95912 0.87313 2.6128zm-1.2171-0.35719q-0.0132-0.9988-0.56224-1.5941-0.5424-0.59531-1.442-0.59531-1.0186 0-1.6338 0.57547-0.60854 0.57547-0.70115 1.6206l4.3392-0.007z"/>
  <path id="path151" style="" d="m419.02 297.04q-1.4751 0-2.0439 0.33734-0.56886 0.33735-0.56886 1.1509 0 0.64823 0.42334 1.0319 0.42994 0.37703 1.1642 0.37703 1.012 0 1.6206-0.71437 0.61516-0.721 0.61516-1.9116v-0.2712h-1.2105zm2.4276-0.50271v4.2267h-1.2171v-1.1245q-0.41672 0.67469-1.0385 0.9988-0.62177 0.3175-1.5214 0.3175-1.1377 0-1.8124-0.635-0.66808-0.64162-0.66808-1.7132 0-1.2502 0.83344-1.8852 0.84006-0.635 2.5003-0.635h1.7066v-0.11907q0-0.84005-0.55563-1.2965-0.54901-0.46302-1.5478-0.46302-0.635 0-1.2369 0.15214-0.60193 0.15213-1.1576 0.4564v-1.1245q0.66808-0.25797 1.2965-0.38365 0.62839-0.13229 1.2237-0.13229 1.6074 0 2.4011 0.83344 0.79376 0.83344 0.79376 2.5268z"/>
  <path id="path153" style="" d="m424.27 299.08h1.3957v1.6801h-1.3957v-1.6801zm0-5.3248h1.3957v1.6801h-1.3957v-1.6801z"/>
  <path id="path155" style="" d="m436.6 290.47v1.012h-1.1642q-0.65484 0-0.91281 0.26459-0.25136 0.26458-0.25136 0.9525v0.65485h2.0042v0.94588h-2.0042v6.4625h-1.2237v-6.4625h-1.1642v-0.94588h1.1642v-0.51594q0-1.2369 0.57547-1.7992 0.57547-0.56886 1.8256-0.56886h1.1509z"/>
  <path id="path157" style="" d="m437.48 297.84v-4.4847h1.2171v4.4384q0 1.0517 0.41011 1.5809 0.4101 0.52256 1.2303 0.52256 0.98558 0 1.5544-0.62839 0.57547-0.62839 0.57547-1.7132v-4.2003h1.2171v7.4084h-1.2171v-1.1377q-0.44318 0.67469-1.0319 1.0054-0.58209 0.32411-1.356 0.32411-1.2766 0-1.9381-0.79375-0.66146-0.79375-0.66146-2.3217zm3.0626-4.6633z"/>
  <path id="path159" style="" d="m452.37 296.29v4.4715h-1.2171v-4.4318q0-1.0517-0.4101-1.5743-0.41011-0.52255-1.2303-0.52255-0.98557 0-1.5544 0.62839-0.56885 0.62838-0.56885 1.7132v4.187h-1.2237v-7.4084h1.2237v1.1509q0.43656-0.66808 1.0253-0.99881 0.59531-0.33073 1.3692-0.33073 1.2766 0 1.9315 0.79375 0.65484 0.78714 0.65484 2.3217z"/>
  <path id="path161" style="" d="m460.14 293.64v1.1377q-0.51594-0.28443-1.0385-0.42334-0.51594-0.14552-1.0451-0.14552-1.184 0-1.8389 0.75406-0.65484 0.74745-0.65484 2.1034t0.65484 2.11q0.65485 0.74745 1.8389 0.74745 0.52917 0 1.0451-0.1389 0.52255-0.14552 1.0385-0.42995v1.1245q-0.50932 0.23813-1.0583 0.35719-0.5424 0.11906-1.1576 0.11906-1.6735 0-2.6591-1.0517-0.98557-1.0517-0.98557-2.8377 0-1.8124 0.99219-2.8509 0.9988-1.0385 2.7318-1.0385 0.56224 0 1.098 0.11907 0.53578 0.11244 1.0385 0.34395z"/>
  <path id="path163" style="" d="m463.47 291.25v2.1034h2.5069v0.94588h-2.5069v4.0217q0 0.9062 0.24474 1.1642 0.25135 0.25797 1.012 0.25797h1.2502v1.0186h-1.2502q-1.4089 0-1.9447-0.52256-0.53578-0.52916-0.53578-1.9182v-4.0217h-0.89297v-0.94588h0.89297v-2.1034h1.2237z"/>
  <path id="path165" style="" d="m467.59 293.35h1.2171v7.4084h-1.2171v-7.4084zm0-2.884h1.2171v1.5412h-1.2171v-1.5412z"/>
  <path id="path167" style="" d="m474.21 294.2q-0.97896 0-1.5478 0.76729-0.56885 0.76068-0.56885 2.0902t0.56224 2.0968q0.56885 0.76068 1.5544 0.76068 0.97235 0 1.5412-0.76729 0.56886-0.76729 0.56886-2.0902 0-1.3163-0.56886-2.0836-0.56885-0.77391-1.5412-0.77391zm0-1.0319q1.5875 0 2.4937 1.0319t0.9062 2.8575q0 1.819-0.9062 2.8575-0.9062 1.0319-2.4937 1.0319-1.5941 0-2.5003-1.0319-0.89958-1.0385-0.89958-2.8575 0-1.8256 0.89958-2.8575 0.9062-1.0319 2.5003-1.0319z"/>
  <path id="path169" style="" d="m485.78 296.29v4.4715h-1.2171v-4.4318q0-1.0517-0.41011-1.5743-0.4101-0.52255-1.2303-0.52255-0.98558 0-1.5544 0.62839-0.56886 0.62838-0.56886 1.7132v4.187h-1.2237v-7.4084h1.2237v1.1509q0.43657-0.66808 1.0253-0.99881 0.59532-0.33073 1.3692-0.33073 1.2766 0 1.9315 0.79375 0.65484 0.78714 0.65484 2.3217z"/>
  <path id="path171" style="" d="m491.15 290.48q-0.88635 1.5214-1.3163 3.0096-0.42995 1.4883-0.42995 3.0163t0.42995 3.0295q0.43656 1.4949 1.3163 3.0096h-1.0583q-0.99219-1.5544-1.4883-3.056-0.48948-1.5015-0.48948-2.9832 0-1.4751 0.48948-2.97t1.4883-3.056h1.0583z"/>
  <path id="path173" style="" d="m493.32 290.48h1.0583q0.99219 1.561 1.4817 3.056 0.49609 1.4949 0.49609 2.97 0 1.4817-0.49609 2.9832-0.48948 1.5015-1.4817 3.056h-1.0583q0.87974-1.5147 1.3097-3.0096 0.43657-1.5015 0.43657-3.0295t-0.43657-3.0163q-0.42995-1.4883-1.3097-3.0096z"/>
  <path id="path175" style="" d="m370.85 310.28-2.6789 3.605 2.8178 3.8034h-1.4354l-2.1564-2.9104-2.1564 2.9104h-1.4354l2.8774-3.8762-2.6326-3.5322h1.4354l1.9645 2.6392 1.9645-2.6392h1.4354z"/>
  <path id="path177" style="" d="m373.02 316.01h1.3957v1.6801h-1.3957v-1.6801zm0-5.3248h1.3957v1.6801h-1.3957v-1.6801z"/>
  <path id="path179" style="" d="m382 316.57h2.1828v-7.534l-2.3746 0.47625v-1.2171l2.3614-0.47626h1.3362v8.7511h2.1828v1.1245h-5.6886v-1.1245z"/>
  <path id="path181" style="" d="m393.25 308.7q-1.0319 0-1.5544 1.0186-0.51594 1.012-0.51594 3.0493 0 2.0307 0.51594 3.0493 0.52256 1.012 1.5544 1.012 1.0385 0 1.5544-1.012 0.52256-1.0186 0.52256-3.0493 0-2.0373-0.52256-3.0493-0.51593-1.0186-1.5544-1.0186zm0-1.0583q1.6603 0 2.5334 1.3163 0.87974 1.3097 0.87974 3.81 0 2.4937-0.87974 3.81-0.87313 1.3097-2.5334 1.3097t-2.54-1.3097q-0.87313-1.3163-0.87313-3.81 0-2.5003 0.87313-3.81 0.87974-1.3163 2.54-1.3163z"/>
  <path id="path183" style="" d="m401.88 308.7q-1.0319 0-1.5544 1.0186-0.51594 1.012-0.51594 3.0493 0 2.0307 0.51594 3.0493 0.52255 1.012 1.5544 1.012 1.0385 0 1.5544-1.012 0.52255-1.0186 0.52255-3.0493 0-2.0373-0.52255-3.0493-0.51594-1.0186-1.5544-1.0186zm0-1.0583q1.6603 0 2.5334 1.3163 0.87974 1.3097 0.87974 3.81 0 2.4937-0.87974 3.81-0.87312 1.3097-2.5334 1.3097t-2.54-1.3097q-0.87312-1.3163-0.87312-3.81 0-2.5003 0.87312-3.81 0.87975-1.3163 2.54-1.3163z"/>
 </g>
 <g id="text40">
  <path id="path186" style="" d="m406.98 346.02q-0.20506-0.11907-0.4498-0.17198-0.23812-0.0595-0.52916-0.0595-1.0319 0-1.5875 0.67469-0.54901 0.66807-0.54901 1.9248v3.9026h-1.2237v-7.4084h1.2237v1.1509q0.38365-0.67469 0.9988-0.99881 0.61516-0.33073 1.4949-0.33073 0.12568 0 0.27782 0.0199 0.15213 0.0132 0.33734 0.0463l0.007 1.2502z"/>
  <path id="path188" style="" d="m414.32 348.28v0.59531h-5.596q0.0794 1.2568 0.75406 1.9182 0.6813 0.65484 1.8918 0.65484 0.70114 0 1.356-0.17198 0.66146-0.17198 1.3097-0.51593v1.1509q-0.65485 0.27781-1.3428 0.42333-0.68792 0.14552-1.3957 0.14552-1.7727 0-2.8112-1.0319-1.0319-1.0319-1.0319-2.7914 0-1.819 0.97896-2.884 0.98558-1.0716 2.6525-1.0716 1.4949 0 2.3614 0.96573 0.87313 0.95912 0.87313 2.6128zm-1.2171-0.35719q-0.0132-0.9988-0.56224-1.5941-0.5424-0.59531-1.442-0.59531-1.0186 0-1.6338 0.57547-0.60854 0.57547-0.70115 1.6206l4.3392-0.007z"/>
  <path id="path190" style="" d="m421.65 345.17v1.1377q-0.51594-0.28443-1.0385-0.42334-0.51594-0.14552-1.0451-0.14552-1.184 0-1.8388 0.75406-0.65485 0.74745-0.65485 2.1034t0.65485 2.11q0.65484 0.74745 1.8388 0.74745 0.52917 0 1.0451-0.1389 0.52255-0.14552 1.0385-0.42995v1.1245q-0.50932 0.23813-1.0583 0.35719-0.5424 0.11906-1.1576 0.11906-1.6735 0-2.6591-1.0517-0.98557-1.0517-0.98557-2.8377 0-1.8124 0.99219-2.8509 0.9988-1.0385 2.7318-1.0385 0.56224 0 1.098 0.11907 0.53578 0.11244 1.0385 0.34395z"/>
  <path id="path192" style="" d="m424.98 342.78v2.1034h2.5069v0.94588h-2.5069v4.0217q0 0.9062 0.24474 1.1642 0.25136 0.25797 1.012 0.25797h1.2502v1.0186h-1.2502q-1.4089 0-1.9447-0.52256-0.53578-0.52916-0.53578-1.9182v-4.0217h-0.89297v-0.94588h0.89297v-2.1034h1.2237z"/>
  <path id="path194" style="" d="m432.46 348.57q-1.475 0-2.0439 0.33734-0.56885 0.33735-0.56885 1.1509 0 0.64823 0.42333 1.0319 0.42995 0.37703 1.1642 0.37703 1.012 0 1.6206-0.71437 0.61516-0.721 0.61516-1.9116v-0.2712h-1.2105zm2.4276-0.50271v4.2267h-1.2171v-1.1245q-0.41672 0.67469-1.0385 0.9988-0.62177 0.3175-1.5214 0.3175-1.1377 0-1.8124-0.635-0.66808-0.64162-0.66808-1.7132 0-1.2502 0.83344-1.8852 0.84005-0.635 2.5003-0.635h1.7066v-0.11907q0-0.84005-0.55563-1.2965-0.54901-0.46302-1.5478-0.46302-0.635 0-1.2369 0.15214-0.60193 0.15213-1.1576 0.4564v-1.1245q0.66807-0.25797 1.2965-0.38365 0.62839-0.13229 1.2237-0.13229 1.6074 0 2.4011 0.83344 0.79375 0.83344 0.79375 2.5268z"/>
  <path id="path196" style="" d="m443.56 347.82v4.4715h-1.2171v-4.4318q0-1.0517-0.4101-1.5743-0.41011-0.52255-1.2303-0.52255-0.98557 0-1.5544 0.62839-0.56885 0.62838-0.56885 1.7132v4.187h-1.2237v-7.4084h1.2237v1.1509q0.43656-0.66808 1.0253-0.99881 0.59531-0.33073 1.3692-0.33073 1.2766 0 1.9315 0.79375 0.65484 0.78714 0.65484 2.3217z"/>
  <path id="path198" style="" d="m450.88 348.5q0-1.3229-0.54901-2.0505-0.5424-0.72761-1.528-0.72761-0.97896 0-1.528 0.72761-0.5424 0.7276-0.5424 2.0505 0 1.3163 0.5424 2.0439 0.54901 0.72761 1.528 0.72761 0.98558 0 1.528-0.72761 0.54901-0.7276 0.54901-2.0439zm1.2171 2.8707q0 1.8918-0.84005 2.8112-0.84005 0.92605-2.5731 0.92605-0.64162 0-1.2105-0.0992-0.56886-0.0926-1.1046-0.29104v-1.184q0.53578 0.29104 1.0583 0.42995 0.52255 0.13891 1.065 0.13891 1.1972 0 1.7926-0.62839 0.59532-0.62177 0.59532-1.8852v-0.60193q-0.37703 0.65485-0.96573 0.97896-0.5887 0.32412-1.4089 0.32412-1.3626 0-2.196-1.0385-0.83344-1.0385-0.83344-2.7517 0-1.7198 0.83344-2.7583t2.196-1.0385q0.82021 0 1.4089 0.32412 0.5887 0.32411 0.96573 0.97896v-1.1245h1.2171v6.4889z"/>
  <path id="path200" style="" d="m454.6 342h1.2171v10.292h-1.2171v-10.292z"/>
  <path id="path202" style="" d="m464.69 348.28v0.59531h-5.596q0.0794 1.2568 0.75407 1.9182 0.6813 0.65484 1.8918 0.65484 0.70115 0 1.356-0.17198 0.66146-0.17198 1.3097-0.51593v1.1509q-0.65485 0.27781-1.3428 0.42333-0.68791 0.14552-1.3957 0.14552-1.7727 0-2.8112-1.0319-1.0319-1.0319-1.0319-2.7914 0-1.819 0.97896-2.884 0.98558-1.0716 2.6525-1.0716 1.4949 0 2.3614 0.96573 0.87313 0.95912 0.87313 2.6128zm-1.2171-0.35719q-0.0132-0.9988-0.56224-1.5941-0.5424-0.59531-1.442-0.59531-1.0186 0-1.6338 0.57547-0.60854 0.57547-0.70115 1.6206l4.3392-0.007z"/>
 </g>
 <g id="g44" stroke="#000" stroke-width="2" fill="none" transform="translate(-6.587 -2.4077)">
  <path id="line46" d="m440 240v-35.528"/>
  <path id="polyline48" d="m445 212.24-5-10-5 10"/>
 </g>
</svg>
