<?xml version="1.0" encoding="UTF-8" standalone="no"?>
<!-- Created with Inkscape (http://www.inkscape.org/) -->
<svg id="svg2" xmlns:rdf="http://www.w3.org/1999/02/22-rdf-syntax-ns#" xmlns="http://www.w3.org/2000/svg" height="238.32" width="882.1" version="1.1" xmlns:cc="http://creativecommons.org/ns#" xmlns:dc="http://purl.org/dc/elements/1.1/" viewBox="221 89 495.90206 119.38373">
 <metadata id="metadata108">
  <rdf:RDF>
   <cc:Work rdf:about="">
    <dc:format>image/svg+xml</dc:format>
    <dc:type rdf:resource="http://purl.org/dc/dcmitype/StillImage"/>
   </cc:Work>
  </rdf:RDF>
 </metadata>
 <path id="line4" d="m223 89.175h392" stroke="#000" stroke-dasharray="2" fill="none"/>
 <g id="text6">
  <path id="path3034" style="" d="m640.64 81.702h1.6316v8.1051l4.8419-4.2598h2.0726l-5.2388 4.6214 5.4592 5.2564h-2.1167l-5.0183-4.8242v4.8242h-1.6316v-13.723"/>
  <path id="path3036" style="" d="m658.99 90.081v0.79375h-7.4612c0.0706 1.1171 0.40569 1.9697 1.0054 2.5576 0.6056 0.58208 1.4464 0.87312 2.5224 0.87312 0.62323 0.000001 1.2259-0.07643 1.808-0.2293 0.58796-0.15287 1.17-0.38217 1.7462-0.68792v1.5346c-0.58209 0.24694-1.1789 0.43509-1.7903 0.56444-0.61149 0.12935-1.2318 0.19403-1.8609 0.19403-1.5758-0.000001-2.8252-0.45861-3.7483-1.3758-0.91723-0.91722-1.3758-2.1578-1.3758-3.7218 0-1.6169 0.43509-2.8986 1.3053-3.8453 0.87606-0.95249 2.0549-1.4287 3.5366-1.4287 1.3288 0.00001 2.3783 0.42922 3.1485 1.2876 0.7761 0.85255 1.1642 2.0138 1.1642 3.4837m-1.6228-0.47625c-0.0118-0.88782-0.26165-1.5963-0.74965-2.1255-0.48214-0.52916-1.123-0.79374-1.9226-0.79375-0.90546 0.000009-1.6316 0.25577-2.1784 0.76729-0.54093 0.51153-0.85255 1.2318-0.93486 2.1608l5.7856-0.0088"/>
  <path id="path3038" style="" d="m667.38 87.065c-0.18228-0.10582-0.38218-0.18226-0.59972-0.22931-0.21168-0.05291-0.44686-0.07937-0.70556-0.07937-0.91722 0.000009-1.6228 0.29987-2.1167 0.89958-0.48801 0.59385-0.73202 1.4493-0.73201 2.5665v5.2035h-1.6316v-9.8778h1.6316v1.5346c0.34101-0.59971 0.78492-1.0436 1.3317-1.3317 0.5468-0.29397 1.2112-0.44096 1.9932-0.44097 0.11171 0.00001 0.23518 0.0088 0.37042 0.02646 0.13522 0.01177 0.28515 0.03235 0.44979 0.06174l0.009 1.6669"/>
  <path id="path3040" style="" d="m676.99 89.464v5.9619h-1.6228v-5.909c-0.00001-0.93485-0.18228-1.6345-0.54681-2.099-0.36454-0.46448-0.91135-0.69673-1.6404-0.69674-0.87607 0.000008-1.5669 0.27929-2.0726 0.83785-0.50565 0.55857-0.75848 1.32-0.75847 2.2842v5.5827h-1.6316v-9.8778h1.6316v1.5346c0.38805-0.59383 0.84372-1.0377 1.367-1.3317 0.52916-0.29397 1.1377-0.44096 1.8256-0.44097 1.1348 0.00001 1.9932 0.35279 2.5753 1.0583 0.58207 0.69968 0.87311 1.7316 0.87312 3.0956"/>
  <path id="path3042" style="" d="m688.7 90.081v0.79375h-7.4612c0.0706 1.1171 0.40569 1.9697 1.0054 2.5576 0.6056 0.58208 1.4464 0.87312 2.5224 0.87312 0.62323 0.000001 1.2259-0.07643 1.808-0.2293 0.58795-0.15287 1.17-0.38217 1.7462-0.68792v1.5346c-0.58209 0.24694-1.1789 0.43509-1.7903 0.56444-0.61149 0.12935-1.2318 0.19403-1.8609 0.19403-1.5758-0.000001-2.8252-0.45861-3.7483-1.3758-0.91722-0.91722-1.3758-2.1578-1.3758-3.7218 0-1.6169 0.43509-2.8986 1.3053-3.8453 0.87606-0.95249 2.0549-1.4287 3.5366-1.4287 1.3288 0.00001 2.3783 0.42922 3.1485 1.2876 0.7761 0.85255 1.1642 2.0138 1.1642 3.4837m-1.6228-0.47625c-0.0118-0.88782-0.26165-1.5963-0.74965-2.1255-0.48213-0.52916-1.123-0.79374-1.9226-0.79375-0.90547 0.000009-1.6316 0.25577-2.1784 0.76729-0.54092 0.51153-0.85254 1.2318-0.93486 2.1608l5.7856-0.0088"/>
  <path id="path3044" style="" d="m691.36 81.702h1.6228v13.723h-1.6228v-13.723"/>
 </g>
 <path id="line10" d="m223 149.18h392" stroke="#000" stroke-dasharray="2" fill="none"/>
 <g id="text12">
  <path id="path3048" style="" d="m641.24 153.93h2.9104v-10.045l-3.1662 0.635v-1.6228l3.1485-0.635h1.7815v11.668h2.9104v1.4993h-7.5847v-1.4993"/>
  <path id="path3050" style="" d="m652.43 153.19h1.8609v2.2401h-1.8609v-2.2401"/>
  <path id="path3052" style="" d="m671.39 147.44c0.40568-0.72907 0.89075-1.267 1.4552-1.614 0.56443-0.34689 1.2288-0.52033 1.9932-0.52034 1.0289 0.00001 1.8227 0.3616 2.3812 1.0848 0.55854 0.71732 0.83783 1.7404 0.83784 3.0692v5.9619h-1.6316v-5.909c-0.00002-0.94662-0.16759-1.6492-0.50271-2.1078-0.33515-0.4586-0.84668-0.68791-1.5346-0.68791-0.8408 0-1.5052 0.27929-1.9932 0.83784-0.48802 0.55857-0.73203 1.32-0.73202 2.2842v5.5827h-1.6316v-5.909c-0.00001-0.9525-0.16758-1.6551-0.50271-2.1078-0.33515-0.4586-0.85255-0.68791-1.5522-0.68791-0.82903 0-1.4876 0.28223-1.9756 0.84666-0.48802 0.55857-0.73202 1.317-0.73202 2.2754v5.5827h-1.6316v-9.8778h1.6316v1.5346c0.37042-0.60559 0.81433-1.0524 1.3317-1.3406 0.5174-0.28809 1.1318-0.43214 1.8433-0.43215 0.71731 0.00001 1.3258 0.18227 1.8256 0.5468 0.50564 0.36455 0.879 0.89371 1.1201 1.5875"/>
  <path id="path3054" style="" d="m685.13 146.69c-0.87019 0.00001-1.5581 0.34102-2.0638 1.023-0.50565 0.67617-0.75847 1.6052-0.75847 2.7869 0 1.1818 0.24988 2.1137 0.74965 2.7958 0.50565 0.67616 1.1965 1.0142 2.0726 1.0142 0.8643 0 1.5493-0.34102 2.0549-1.0231 0.50564-0.68203 0.75846-1.611 0.75847-2.7869-0.00001-1.17-0.25283-2.0961-0.75847-2.7781-0.50566-0.68791-1.1906-1.0319-2.0549-1.0319m0-1.3758c1.4111 0.00001 2.5194 0.45862 3.3249 1.3758 0.8055 0.91723 1.2082 2.1872 1.2083 3.81-0.00001 1.6169-0.40276 2.8869-1.2083 3.81-0.80552 0.91722-1.9138 1.3758-3.3249 1.3758-1.417 0-2.5282-0.45861-3.3338-1.3758-0.79963-0.9231-1.1994-2.1931-1.1994-3.81 0-1.6228 0.39981-2.8928 1.1994-3.81 0.80551-0.91721 1.9168-1.3758 3.3338-1.3758"/>
  <path id="path3056" style="" d="m698.85 147.05v-5.3446h1.6228v13.723h-1.6228v-1.4817c-0.34103 0.58796-0.77318 1.026-1.2965 1.3141-0.51741 0.28222-1.1406 0.42333-1.8697 0.42333-1.1936 0-2.1666-0.47625-2.9192-1.4288-0.74671-0.95249-1.1201-2.2048-1.1201-3.7571 0-1.5522 0.37336-2.8046 1.1201-3.7571 0.75259-0.95248 1.7257-1.4287 2.9192-1.4287 0.72907 0.00001 1.3523 0.14406 1.8697 0.43215 0.52328 0.28223 0.95543 0.71732 1.2965 1.3053m-5.5298 3.4484c0 1.1936 0.24401 2.1314 0.73202 2.8134 0.49388 0.67616 1.17 1.0142 2.0285 1.0142 0.85842 0 1.5346-0.33808 2.0285-1.0142 0.49388-0.68203 0.74082-1.6198 0.74083-2.8134-0.00001-1.1936-0.24695-2.1284-0.74083-2.8046-0.4939-0.68202-1.17-1.023-2.0285-1.023-0.85843 0.00001-1.5346 0.34103-2.0285 1.023-0.48801 0.67617-0.73202 1.611-0.73202 2.8046"/>
  <path id="path3058" style="" d="m703.65 151.53v-5.9796h1.6228v5.9178c-0.00001 0.93486 0.18226 1.6375 0.5468 2.1078 0.36453 0.46449 0.91134 0.69673 1.6404 0.69673 0.87605 0 1.5669-0.27928 2.0726-0.83785 0.51152-0.55856 0.76729-1.32 0.76729-2.2842v-5.6003h1.6228v9.8778h-1.6228v-1.517c-0.39394 0.59973-0.85255 1.0466-1.3758 1.3406-0.51741 0.2881-1.1201 0.43215-1.808 0.43215-1.1348 0-1.9961-0.35278-2.5841-1.0583-0.58796-0.70556-0.88194-1.7374-0.88194-3.0956m4.0834-6.2177"/>
  <path id="path3060" style="" d="m715.28 141.7h1.6228v13.723h-1.6228v-13.723"/>
 </g>
 <path id="line16" d="m223 209.18h392" stroke="#000" stroke-dasharray="2" fill="none"/>
 <g id="text18">
  <path id="path3064" style="" d="m642.47 213.93h6.2177v1.4993h-8.3608v-1.4993c0.67615-0.69967 1.5963-1.6375 2.7605-2.8134 1.17-1.1818 1.905-1.9432 2.2049-2.2842 0.57031-0.64087 0.96719-1.1818 1.1906-1.6228 0.2293-0.44684 0.34395-0.88487 0.34396-1.3141-0.00001-0.69967-0.24695-1.27-0.74083-1.711-0.48802-0.44096-1.126-0.66145-1.9138-0.66146-0.55857 0.00001-1.1495 0.097-1.7727 0.29104-0.61736 0.19404-1.2788 0.48802-1.9844 0.88195v-1.7992c0.71731-0.28809 1.3876-0.50563 2.0108-0.65264 0.62324-0.14697 1.1936-0.22047 1.711-0.22048 1.3641 0.00001 2.4518 0.34103 3.2632 1.023 0.81138 0.68205 1.2171 1.5934 1.2171 2.734-0.00001 0.54093-0.1029 1.0554-0.30868 1.5434-0.19991 0.48213-0.56739 1.0525-1.1024 1.711-0.147 0.17051-0.61442 0.6644-1.4023 1.4817-0.78787 0.81139-1.8991 1.9491-3.3337 3.4131"/>
  <path id="path3066" style="" d="m652.43 213.19h1.8609v2.2401h-1.8609v-2.2401"/>
  <path id="path3068" style="" d="m671.39 207.44c0.40568-0.72907 0.89075-1.267 1.4552-1.614 0.56443-0.34689 1.2288-0.52033 1.9932-0.52034 1.0289 0.00001 1.8227 0.3616 2.3812 1.0848 0.55854 0.71732 0.83783 1.7404 0.83784 3.0692v5.9619h-1.6316v-5.909c-0.00002-0.94662-0.16759-1.6492-0.50271-2.1078-0.33515-0.4586-0.84668-0.68791-1.5346-0.68791-0.8408 0-1.5052 0.27929-1.9932 0.83784-0.48802 0.55857-0.73203 1.32-0.73202 2.2842v5.5827h-1.6316v-5.909c-0.00001-0.9525-0.16758-1.6551-0.50271-2.1078-0.33515-0.4586-0.85255-0.68791-1.5522-0.68791-0.82903 0-1.4876 0.28223-1.9756 0.84666-0.48802 0.55857-0.73202 1.317-0.73202 2.2754v5.5827h-1.6316v-9.8778h1.6316v1.5346c0.37042-0.60559 0.81433-1.0524 1.3317-1.3406 0.5174-0.28809 1.1318-0.43214 1.8433-0.43215 0.71731 0.00001 1.3258 0.18227 1.8256 0.5468 0.50564 0.36455 0.879 0.89371 1.1201 1.5875"/>
  <path id="path3070" style="" d="m685.13 206.69c-0.87019 0.00001-1.5581 0.34102-2.0638 1.023-0.50565 0.67617-0.75847 1.6052-0.75847 2.7869 0 1.1818 0.24988 2.1137 0.74965 2.7958 0.50565 0.67616 1.1965 1.0142 2.0726 1.0142 0.8643 0 1.5493-0.34102 2.0549-1.0231 0.50564-0.68203 0.75846-1.611 0.75847-2.7869-0.00001-1.17-0.25283-2.0961-0.75847-2.7781-0.50566-0.68791-1.1906-1.0319-2.0549-1.0319m0-1.3758c1.4111 0.00001 2.5194 0.45862 3.3249 1.3758 0.8055 0.91723 1.2082 2.1872 1.2083 3.81-0.00001 1.6169-0.40276 2.8869-1.2083 3.81-0.80552 0.91722-1.9138 1.3758-3.3249 1.3758-1.417 0-2.5282-0.45861-3.3338-1.3758-0.79963-0.9231-1.1994-2.1931-1.1994-3.81 0-1.6228 0.39981-2.8928 1.1994-3.81 0.80551-0.91721 1.9168-1.3758 3.3338-1.3758"/>
  <path id="path3072" style="" d="m698.85 207.05v-5.3446h1.6228v13.723h-1.6228v-1.4817c-0.34103 0.58796-0.77318 1.026-1.2965 1.3141-0.51741 0.28222-1.1406 0.42333-1.8697 0.42333-1.1936 0-2.1666-0.47625-2.9192-1.4288-0.74671-0.95249-1.1201-2.2048-1.1201-3.7571 0-1.5522 0.37336-2.8046 1.1201-3.7571 0.75259-0.95248 1.7257-1.4287 2.9192-1.4287 0.72907 0.00001 1.3523 0.14406 1.8697 0.43215 0.52328 0.28223 0.95543 0.71732 1.2965 1.3053m-5.5298 3.4484c0 1.1936 0.24401 2.1314 0.73202 2.8134 0.49388 0.67616 1.17 1.0142 2.0285 1.0142 0.85842 0 1.5346-0.33808 2.0285-1.0142 0.49388-0.68203 0.74082-1.6198 0.74083-2.8134-0.00001-1.1936-0.24695-2.1284-0.74083-2.8046-0.4939-0.68202-1.17-1.023-2.0285-1.023-0.85843 0.00001-1.5346 0.34103-2.0285 1.023-0.48801 0.67617-0.73202 1.611-0.73202 2.8046"/>
  <path id="path3074" style="" d="m703.65 211.53v-5.9796h1.6228v5.9178c-0.00001 0.93486 0.18226 1.6375 0.5468 2.1078 0.36453 0.46449 0.91134 0.69673 1.6404 0.69673 0.87605 0 1.5669-0.27928 2.0726-0.83785 0.51152-0.55856 0.76729-1.32 0.76729-2.2842v-5.6003h1.6228v9.8778h-1.6228v-1.517c-0.39394 0.59973-0.85255 1.0466-1.3758 1.3406-0.51741 0.2881-1.1201 0.43215-1.808 0.43215-1.1348 0-1.9961-0.35278-2.5841-1.0583-0.58796-0.70556-0.88194-1.7374-0.88194-3.0956m4.0834-6.2177"/>
  <path id="path3076" style="" d="m715.28 201.7h1.6228v13.723h-1.6228v-13.723"/>
 </g>
 <path id="line22" d="m223 89.175h12" stroke="#000" stroke-width="4" fill="none"/>
 <path id="line24" d="m243 149.18h32" stroke="#000" stroke-width="4" fill="none"/>
 <path id="line26" d="m283 89.175h32" stroke="#000" stroke-width="4" fill="none"/>
 <path id="line28" d="m323 209.18h32" stroke="#000" stroke-width="4" fill="none"/>
 <path id="line30" d="m363 89.175h32" stroke="#000" stroke-width="4" fill="none"/>
 <path id="line32" d="m403 149.18h32" stroke="#000" stroke-width="4" fill="none"/>
 <path id="line34" d="m443 89.175h32" stroke="#000" stroke-width="4" fill="none"/>
 <path id="line36" d="m483 149.18h32" stroke="#000" stroke-width="4" fill="none"/>
 <path id="line38" d="m523 89.175h32" stroke="#000" stroke-width="4" fill="none"/>
 <path id="line40" d="m563 209.18h32" stroke="#000" stroke-width="4" fill="none"/>
 <path id="line42" d="m603 89.175h12" stroke="#000" stroke-width="4" fill="none"/>
 <g id="g44" stroke="#000" stroke-width="2" fill="none" transform="translate(-1 -10.824)">
  <path id="path46" d="m240 100a114.5 114.5 0 0 0 -1.087 55.665"/>
  <path id="polyline48" d="m231.97 149.5 7.445 8.341 2.205-10.961"/>
 </g>
 <g id="g50" stroke="#000" stroke-width="2" fill="none" transform="translate(-1 -10.824)">
  <path id="path52" d="m276 160a114.5 114.5 0 0 0 1.087 -55.665"/>
  <path id="polyline54" d="m284.03 110.5-7.445-8.341-2.205 10.961"/>
 </g>
 <g id="g56" stroke="#000" stroke-width="2" fill="none" transform="translate(-1 -10.824)">
  <path id="path58" d="m320 100a229 229 0 0 0 -1.129 115.67"/>
  <path id="polyline60" d="m311.97 209.5 7.445 8.341 2.205-10.961"/>
 </g>
 <g id="g62" stroke="#000" stroke-width="2" fill="none" transform="translate(-1 -10.824)">
  <path id="path64" d="m360 220a229 229 0 0 0 1.129 -115.67"/>
  <path id="polyline66" d="m368.03 110.5-7.445-8.341-2.205 10.961"/>
 </g>
 <g id="g68" stroke="#000" stroke-width="2" fill="none" transform="translate(-1 -10.824)">
  <path id="path70" d="m400 100a114.5 114.5 0 0 0 -1.087 55.665"/>
  <path id="polyline72" d="m391.97 149.5 7.445 8.341 2.205-10.961"/>
 </g>
 <g id="g74" stroke="#000" stroke-width="2" fill="none" transform="translate(-1 -10.824)">
  <path id="path76" d="m440 160a114.5 114.5 0 0 0 1.087 -55.665"/>
  <path id="polyline78" d="m448.03 110.5-7.445-8.341-2.205 10.961"/>
 </g>
 <g id="g80" stroke="#000" stroke-width="2" fill="none" transform="translate(-1 -10.824)">
  <path id="path82" d="m480 100a114.5 114.5 0 0 0 -1.087 55.665"/>
  <path id="polyline84" d="m471.97 149.5 7.445 8.341 2.205-10.961"/>
 </g>
 <g id="g86" stroke="#000" stroke-width="2" fill="none" transform="translate(-1 -10.824)">
  <path id="path88" d="m520 160a114.5 114.5 0 0 0 1.087 -55.665"/>
  <path id="polyline90" d="m528.03 110.5-7.445-8.341-2.205 10.961"/>
 </g>
 <g id="g92" stroke="#000" stroke-width="2" fill="none" transform="translate(-1 -10.824)">
  <path id="path94" d="m560 100a229 229 0 0 0 -1.129 115.67"/>
  <path id="polyline96" d="m551.97 209.5 7.445 8.341 2.205-10.961"/>
 </g>
 <g id="g98" stroke="#000" stroke-width="2" fill="none" transform="translate(-1 -10.824)">
  <path id="path100" d="m600 220a229 229 0 0 0 1.129 -115.67"/>
  <path id="polyline102" d="m608.03 110.5-7.445-8.341-2.205 10.961"/>
 </g>
</svg>
