<?xml version="1.0" encoding="UTF-8"?>
<svg id="svg129" width="31.578cm" height="22.87cm" version="1.1" viewBox="241 136 623.66 455.42" xmlns="http://www.w3.org/2000/svg" xmlns:cc="http://creativecommons.org/ns#" xmlns:dc="http://purl.org/dc/elements/1.1/" xmlns:rdf="http://www.w3.org/1999/02/22-rdf-syntax-ns#">
 <metadata id="metadata135">
  <rdf:RDF>
   <cc:Work rdf:about="">
    <dc:format>image/svg+xml</dc:format>
    <dc:type rdf:resource="http://purl.org/dc/dcmitype/StillImage"/>
   </cc:Work>
  </rdf:RDF>
 </metadata>
 <g id="Háttér" transform="translate(-3.8528 -2.5)">
  <g id="g6" stroke="#000" stroke-width="3">
   <path id="polygon2" d="m313.25 140 17.75 17.75v71h-71v-88.75z" fill="#fff" fill-rule="evenodd"/>
   <path id="polyline4" d="m313.25 140v17.75h17.75" fill="none"/>
  </g>
  <g id="g12" stroke="#000" stroke-width="3">
   <path id="polygon8" d="m313.25 300 17.75 17.75v71h-71v-88.75z" fill="#bfbfbf" fill-rule="evenodd"/>
   <path id="polyline10" d="m313.25 300v17.75h17.75" fill="none"/>
  </g>
  <g id="g18" stroke="#000" stroke-width="3">
   <path id="polygon14" d="m313.25 460 17.75 17.75v71h-71v-88.75z" fill="#fff" fill-rule="evenodd"/>
   <path id="polyline16" d="m313.25 460v17.75h17.75" fill="none"/>
  </g>
  <g id="g24" stroke="#000" stroke-width="3">
   <path id="polygon20" d="m573.25 160 17.75 17.75v71h-71v-88.75z" fill="#1e90ff" fill-rule="evenodd"/>
   <path id="polyline22" d="m573.25 160v17.75h17.75" fill="none"/>
  </g>
  <g id="g30" stroke="#000" stroke-width="3">
   <path id="polygon26" d="m573.25 440 17.75 17.75v71h-71v-88.75z" fill="#1e90ff" fill-rule="evenodd"/>
   <path id="polyline28" d="m573.25 440v17.75h17.75" fill="none"/>
  </g>
  <g id="g36" stroke="#000" stroke-width="3">
   <path id="polygon32" d="m833.25 300 17.75 17.75v71h-71v-88.75z" fill="#90ee90" fill-rule="evenodd"/>
   <path id="polyline34" d="m833.25 300v17.75h17.75" fill="none"/>
  </g>
  <g id="g42" fill="none" stroke="#000" stroke-width="3">
   <path id="line38" d="m349.13 188.5 159.42 12.263"/>
   <path id="polyline40" d="m356.14 184.02-10.354 4.218 9.587 5.753"/>
  </g>
  <g id="g48" fill="none" stroke="#000" stroke-width="3">
   <path id="line44" d="m347.19 316.54 162.53-87.518"/>
   <path id="polyline46" d="m350.67 308.99-6.434 9.143 11.175-0.338"/>
  </g>
  <g id="g54" fill="none" stroke="#000" stroke-width="3">
   <path id="line50" d="m347.19 372.21 162.53 87.518"/>
   <path id="polyline52" d="m355.41 370.95-11.175-0.338 6.434 9.143"/>
  </g>
  <g id="g60" fill="none" stroke="#000" stroke-width="3">
   <path id="line56" d="m349.13 500.25 159.42-12.263"/>
   <path id="polyline58" d="m355.38 494.75-9.587 5.753 10.354 4.218"/>
  </g>
  <g id="g66" fill="none" stroke="#000" stroke-width="3">
   <path id="line62" d="m607.19 232.21 162.53 87.518"/>
   <path id="polyline64" d="m615.41 230.95-11.175-0.338 6.434 9.143"/>
  </g>
  <g id="g72" fill="none" stroke="#000" stroke-width="3">
   <path id="line68" d="m607.19 456.54 162.53-87.518"/>
   <path id="polyline70" d="m610.67 448.99-6.434 9.143 11.175-0.338"/>
  </g>
  <g id="text76" aria-label="strswap.c">
   <path id="path95" d="m252 245.02v1.9182q-0.85989-0.44097-1.7859-0.66146-0.92604-0.22049-1.9182-0.22049-1.5103 0-2.271 0.46302-0.74965 0.46303-0.74965 1.3891 0 0.70555 0.54019 1.1134 0.54019 0.39688 2.1718 0.76068l0.69453 0.15434q2.1608 0.46302 3.0648 1.3119 0.91502 0.83784 0.91502 2.3482 0 1.7198-1.367 2.723-1.356 1.0032-3.7372 1.0032-0.99219 0-2.0726-0.19844-1.0694-0.18742-2.26-0.57327v-2.0946q1.1245 0.58429 2.2159 0.88195 1.0914 0.28663 2.1608 0.28663 1.4332 0 2.2049-0.48507 0.7717-0.49609 0.7717-1.3891 0-0.82683-0.56224-1.2678-0.55121-0.44097-2.4364-0.84887l-0.70556-0.16537q-1.8852-0.39687-2.723-1.2127-0.83785-0.82683-0.83785-2.26 0-1.7418 1.2347-2.6899 1.2347-0.94809 3.5057-0.94809 1.1245 0 2.1167 0.16536 0.99218 0.16537 1.83 0.4961z" style=""/>
   <path id="path97" d="m257.91 241.15v3.5057h4.1782v1.5765h-4.1782v6.7028q0 1.5103 0.4079 1.9403 0.41892 0.42995 1.6867 0.42995h2.0836v1.6977h-2.0836q-2.3482 0-3.2412-0.87092-0.89297-0.88195-0.89297-3.197v-6.7028h-1.4883v-1.5765h1.4883v-3.5057z" style=""/>
   <path id="path99" d="m271.92 246.55q-0.34175-0.19844-0.74965-0.28663-0.39688-0.0992-0.88195-0.0992-1.7198 0-2.6458 1.1245-0.91502 1.1134-0.91502 3.2081v6.5043h-2.0395v-12.347h2.0395v1.9182q0.63941-1.1245 1.6647-1.6647 1.0253-0.55121 2.4915-0.55121 0.20946 0 0.46302 0.0331 0.25356 0.0221 0.56224 0.0772z" style=""/>
   <path id="path101" d="m281.94 245.02v1.9182q-0.8599-0.44097-1.7859-0.66146t-1.9182-0.22049q-1.5103 0-2.271 0.46302-0.74966 0.46303-0.74966 1.3891 0 0.70555 0.5402 1.1134 0.54019 0.39688 2.1718 0.76068l0.69453 0.15434q2.1608 0.46302 3.0648 1.3119 0.91502 0.83784 0.91502 2.3482 0 1.7198-1.367 2.723-1.356 1.0032-3.7372 1.0032-0.99219 0-2.0726-0.19844-1.0694-0.18742-2.26-0.57327v-2.0946q1.1245 0.58429 2.2159 0.88195 1.0914 0.28663 2.1608 0.28663 1.4332 0 2.2049-0.48507 0.7717-0.49609 0.7717-1.3891 0-0.82683-0.56224-1.2678-0.55122-0.44097-2.4364-0.84887l-0.70556-0.16537q-1.8852-0.39687-2.723-1.2127-0.83784-0.82683-0.83784-2.26 0-1.7418 1.2347-2.6899t3.5057-0.94809q1.1245 0 2.1167 0.16536 0.99219 0.16537 1.83 0.4961z" style=""/>
   <path id="path103" d="m284.67 244.65h2.0285l2.5356 9.6352 2.5246-9.6352h2.3923l2.5356 9.6352 2.5246-9.6352h2.0285l-3.2301 12.347h-2.3923l-2.6569-10.12-2.6679 10.12h-2.3923z" style=""/>
   <path id="path105" d="m309.93 250.79q-2.4584 0-3.4065 0.56224-0.94809 0.56224-0.94809 1.9182 0 1.0804 0.70556 1.7198 0.71658 0.62839 1.9403 0.62839 1.6867 0 2.701-1.1906 1.0253-1.2016 1.0253-3.186v-0.452zm4.0459-0.83785v7.0445h-2.0285v-1.8741q-0.69453 1.1245-1.7308 1.6647-1.0363 0.52917-2.5356 0.52917-1.8962 0-3.0207-1.0583-1.1135-1.0694-1.1135-2.8553 0-2.0836 1.3891-3.1419 1.4001-1.0583 4.1672-1.0583h2.8443v-0.19844q0-1.4001-0.92604-2.1608-0.91502-0.7717-2.5797-0.7717-1.0583 0-2.0616 0.25356t-1.9293 0.76068v-1.8741q1.1135-0.42995 2.1608-0.63942 1.0473-0.22048 2.0395-0.22048 2.6789 0 4.0018 1.3891 1.3229 1.3891 1.3229 4.2113z" style=""/>
   <path id="path107" d="m320.13 255.15v6.5484h-2.0395v-17.044h2.0395v1.8741q0.63941-1.1024 1.6096-1.6316 0.98117-0.54019 2.3372-0.54019 2.249 0 3.649 1.7859 1.4111 1.7859 1.4111 4.6964t-1.4111 4.6964q-1.4001 1.7859-3.649 1.7859-1.356 0-2.3372-0.52917-0.97014-0.54019-1.6096-1.6426zm6.9012-4.3105q0-2.2379-0.92604-3.5057-0.91502-1.2788-2.5246-1.2788t-2.5356 1.2788q-0.91502 1.2678-0.91502 3.5057 0 2.2379 0.91502 3.5168 0.92604 1.2678 2.5356 1.2678t2.5246-1.2678q0.92604-1.2788 0.92604-3.5168z" style=""/>
   <path id="path109" d="m332.79 254.2h2.3261v2.8002h-2.3261z" style=""/>
   <path id="path111" d="m348.57 245.13v1.8962q-0.8599-0.47404-1.7308-0.70555-0.8599-0.24254-1.7418-0.24254-1.9734 0-3.0648 1.2568-1.0914 1.2458-1.0914 3.5057 0 2.26 1.0914 3.5168 1.0914 1.2458 3.0648 1.2458 0.88194 0 1.7418-0.23151 0.87092-0.24253 1.7308-0.71658v1.8741q-0.84888 0.39688-1.7639 0.59532-0.904 0.19844-1.9293 0.19844-2.7892 0-4.4318-1.7529-1.6426-1.7529-1.6426-4.7294 0-3.0207 1.6536-4.7515 1.6647-1.7308 4.553-1.7308 0.93707 0 1.83 0.19844 0.89297 0.18741 1.7308 0.57326z" style=""/>
  </g>
  <g id="text80" aria-label="strswap.h">
   <path id="path114" d="m251.05 405.02v1.9182q-0.8599-0.44097-1.7859-0.66146t-1.9182-0.22049q-1.5103 0-2.271 0.46302-0.74965 0.46303-0.74965 1.3891 0 0.70555 0.54019 1.1134 0.54019 0.39688 2.1718 0.76068l0.69453 0.15434q2.1608 0.46302 3.0648 1.3119 0.91502 0.83784 0.91502 2.3482 0 1.7198-1.367 2.723-1.356 1.0032-3.7372 1.0032-0.99219 0-2.0726-0.19844-1.0694-0.18742-2.26-0.57327v-2.0946q1.1245 0.58429 2.2159 0.88195 1.0914 0.28663 2.1608 0.28663 1.4332 0 2.2049-0.48507 0.7717-0.49609 0.7717-1.3891 0-0.82683-0.56224-1.2678-0.55121-0.44097-2.4364-0.84887l-0.70556-0.16537q-1.8852-0.39687-2.723-1.2127-0.83785-0.82683-0.83785-2.26 0-1.7418 1.2347-2.6899 1.2347-0.94809 3.5057-0.94809 1.1245 0 2.1167 0.16536 0.99219 0.16537 1.83 0.4961z" style=""/>
   <path id="path116" d="m256.96 401.15v3.5057h4.1782v1.5765h-4.1782v6.7028q0 1.5103 0.4079 1.9403 0.41893 0.42995 1.6867 0.42995h2.0836v1.6977h-2.0836q-2.3482 0-3.2411-0.87092-0.89297-0.88195-0.89297-3.197v-6.7028h-1.4883v-1.5765h1.4883v-3.5057z" style=""/>
   <path id="path118" d="m270.97 406.55q-0.34175-0.19844-0.74965-0.28663-0.39688-0.0992-0.88195-0.0992-1.7198 0-2.6458 1.1245-0.91502 1.1134-0.91502 3.2081v6.5043h-2.0395v-12.347h2.0395v1.9182q0.63941-1.1245 1.6647-1.6647 1.0253-0.55121 2.4915-0.55121 0.20946 0 0.46302 0.0331 0.25356 0.0221 0.56224 0.0772z" style=""/>
   <path id="path120" d="m281 405.02v1.9182q-0.8599-0.44097-1.7859-0.66146-0.92605-0.22049-1.9182-0.22049-1.5103 0-2.271 0.46302-0.74966 0.46303-0.74966 1.3891 0 0.70555 0.54019 1.1134 0.5402 0.39688 2.1718 0.76068l0.69454 0.15434q2.1608 0.46302 3.0648 1.3119 0.91501 0.83784 0.91501 2.3482 0 1.7198-1.367 2.723-1.356 1.0032-3.7372 1.0032-0.99219 0-2.0726-0.19844-1.0694-0.18742-2.26-0.57327v-2.0946q1.1245 0.58429 2.2159 0.88195 1.0914 0.28663 2.1608 0.28663 1.4332 0 2.2049-0.48507 0.7717-0.49609 0.7717-1.3891 0-0.82683-0.56224-1.2678-0.55122-0.44097-2.4364-0.84887l-0.70555-0.16537q-1.8852-0.39687-2.723-1.2127-0.83785-0.82683-0.83785-2.26 0-1.7418 1.2347-2.6899 1.2347-0.94809 3.5057-0.94809 1.1245 0 2.1167 0.16536 0.99219 0.16537 1.83 0.4961z" style=""/>
   <path id="path122" d="m283.72 404.65h2.0285l2.5356 9.6352 2.5246-9.6352h2.3923l2.5356 9.6352 2.5246-9.6352h2.0285l-3.2301 12.347h-2.3923l-2.6569-10.12-2.6679 10.12h-2.3923z" style=""/>
   <path id="path124" d="m308.99 410.79q-2.4584 0-3.4065 0.56224t-0.94809 1.9182q0 1.0804 0.70556 1.7198 0.71658 0.62839 1.9403 0.62839 1.6867 0 2.701-1.1906 1.0253-1.2016 1.0253-3.186v-0.452zm4.0459-0.83785v7.0445h-2.0285v-1.8741q-0.69453 1.1245-1.7308 1.6647-1.0363 0.52917-2.5356 0.52917-1.8962 0-3.0207-1.0583-1.1134-1.0694-1.1134-2.8553 0-2.0836 1.3891-3.1419 1.4001-1.0583 4.1672-1.0583h2.8443v-0.19844q0-1.4001-0.92605-2.1608-0.91501-0.7717-2.5797-0.7717-1.0583 0-2.0615 0.25356-1.0032 0.25356-1.9293 0.76068v-1.8741q1.1135-0.42995 2.1608-0.63942 1.0473-0.22048 2.0395-0.22048 2.6789 0 4.0018 1.3891 1.3229 1.3891 1.3229 4.2113z" style=""/>
   <path id="path126" d="m319.18 415.15v6.5484h-2.0395v-17.044h2.0395v1.8741q0.63941-1.1024 1.6096-1.6316 0.98117-0.54019 2.3372-0.54019 2.249 0 3.649 1.7859 1.4111 1.7859 1.4111 4.6964t-1.4111 4.6964q-1.4001 1.7859-3.649 1.7859-1.356 0-2.3372-0.52917-0.97014-0.54019-1.6096-1.6426zm6.9012-4.3105q0-2.2379-0.92604-3.5057-0.91502-1.2788-2.5246-1.2788t-2.5356 1.2788q-0.91502 1.2678-0.91502 3.5057 0 2.2379 0.91502 3.5168 0.92604 1.2678 2.5356 1.2678t2.5246-1.2678q0.92604-1.2788 0.92604-3.5168z" style=""/>
   <path id="path128" d="m331.84 414.2h2.3261v2.8002h-2.3261z" style=""/>
   <path id="path130" d="m349 409.55v7.4524h-2.0285v-7.3863q0-1.7529-0.68351-2.6238t-2.0505-0.87092q-1.6426 0-2.5907 1.0473-0.94809 1.0473-0.94809 2.8553v6.9784h-2.0395v-17.154h2.0395v6.7248q0.72761-1.1135 1.7088-1.6647 0.99219-0.55121 2.282-0.55121 2.1277 0 3.2191 1.3229 1.0914 1.3119 1.0914 3.8695z" style=""/>
  </g>
  <g id="text84" aria-label="main.c">
   <path id="path133" d="m269.71 567.02q0.76068-1.367 1.819-2.0174 1.0583-0.65043 2.4915-0.65043 1.9293 0 2.9766 1.356 1.0473 1.345 1.0473 3.8365v7.4524h-2.0395v-7.3863q0-1.7749-0.62839-2.6348-0.62838-0.8599-1.9182-0.8599-1.5765 0-2.4915 1.0473-0.91502 1.0473-0.91502 2.8553v6.9784h-2.0395v-7.3863q0-1.7859-0.62839-2.6348-0.62838-0.8599-1.9403-0.8599-1.5544 0-2.4694 1.0583-0.91502 1.0473-0.91502 2.8443v6.9784h-2.0395v-12.347h2.0395v1.9182q0.69453-1.1355 1.6647-1.6757t2.3041-0.54019q1.345 0 2.282 0.68351 0.94809 0.6835 1.4001 1.9844z" style=""/>
   <path id="path135" d="m287.71 570.79q-2.4584 0-3.4065 0.56224t-0.94809 1.9182q0 1.0804 0.70555 1.7198 0.71658 0.62839 1.9403 0.62839 1.6867 0 2.701-1.1906 1.0253-1.2016 1.0253-3.186v-0.452zm4.0459-0.83785v7.0445h-2.0285v-1.8741q-0.69453 1.1245-1.7308 1.6647-1.0363 0.52917-2.5356 0.52917-1.8962 0-3.0207-1.0583-1.1135-1.0694-1.1135-2.8553 0-2.0836 1.3891-3.1419 1.4001-1.0583 4.1672-1.0583h2.8443v-0.19844q0-1.4001-0.92604-2.1608-0.91502-0.7717-2.5797-0.7717-1.0583 0-2.0616 0.25356-1.0032 0.25356-1.9292 0.76068v-1.8741q1.1134-0.42995 2.1608-0.63942 1.0473-0.22048 2.0395-0.22048 2.6789 0 4.0018 1.3891 1.3229 1.3891 1.3229 4.2113z" style=""/>
   <path id="path137" d="m295.94 564.65h2.0285v12.347h-2.0285zm0-4.8066h2.0285v2.5687h-2.0285z" style=""/>
   <path id="path139" d="m312.47 569.55v7.4524h-2.0285v-7.3863q0-1.7529-0.6835-2.6238-0.68351-0.87092-2.0505-0.87092-1.6426 0-2.5907 1.0473t-0.94809 2.8553v6.9784h-2.0395v-12.347h2.0395v1.9182q0.7276-1.1135 1.7088-1.6647 0.99218-0.55121 2.282-0.55121 2.1277 0 3.2191 1.3229 1.0914 1.3119 1.0914 3.8695z" style=""/>
   <path id="path141" d="m316.82 574.2h2.3261v2.8002h-2.3261z" style=""/>
   <path id="path143" d="m332.61 565.13v1.8962q-0.85989-0.47404-1.7308-0.70555-0.8599-0.24254-1.7418-0.24254-1.9734 0-3.0648 1.2568-1.0914 1.2458-1.0914 3.5057 0 2.26 1.0914 3.5168 1.0914 1.2458 3.0648 1.2458 0.88195 0 1.7418-0.23151 0.87092-0.24253 1.7308-0.71658v1.8741q-0.84887 0.39688-1.7639 0.59532-0.90399 0.19844-1.9292 0.19844-2.7892 0-4.4318-1.7529-1.6426-1.7529-1.6426-4.7294 0-3.0207 1.6536-4.7515 1.6647-1.7308 4.553-1.7308 0.93707 0 1.83 0.19844 0.89297 0.18741 1.7308 0.57326z" style=""/>
  </g>
  <g id="text90" aria-label="main.o(tárgykód)">
   <path id="path146" d="m529.02 551.02q0.76067-1.367 1.819-2.0174 1.0583-0.65043 2.4915-0.65043 1.9293 0 2.9766 1.356 1.0473 1.345 1.0473 3.8365v7.4524h-2.0395v-7.3863q0-1.7749-0.62838-2.6348-0.62839-0.8599-1.9182-0.8599-1.5765 0-2.4915 1.0473t-0.91502 2.8553v6.9784h-2.0395v-7.3863q0-1.7859-0.62838-2.6348-0.62839-0.8599-1.9403-0.8599-1.5544 0-2.4694 1.0583-0.91502 1.0473-0.91502 2.8443v6.9784h-2.0395v-12.347h2.0395v1.9182q0.69453-1.1355 1.6647-1.6757t2.3041-0.54019q1.345 0 2.282 0.68351 0.94809 0.6835 1.4001 1.9844z" style=""/>
   <path id="path148" d="m547.03 554.79q-2.4584 0-3.4065 0.56224t-0.94809 1.9182q0 1.0804 0.70556 1.7198 0.71658 0.62839 1.9403 0.62839 1.6867 0 2.701-1.1906 1.0253-1.2016 1.0253-3.186v-0.452zm4.0459-0.83785v7.0445h-2.0285v-1.8741q-0.69454 1.1245-1.7308 1.6647-1.0363 0.52917-2.5356 0.52917-1.8962 0-3.0207-1.0583-1.1134-1.0694-1.1134-2.8553 0-2.0836 1.3891-3.1419 1.4001-1.0583 4.1672-1.0583h2.8443v-0.19844q0-1.4001-0.92605-2.1608-0.91502-0.7717-2.5797-0.7717-1.0583 0-2.0615 0.25356-1.0032 0.25356-1.9293 0.76068v-1.8741q1.1135-0.42995 2.1608-0.63942 1.0473-0.22048 2.0395-0.22048 2.6789 0 4.0018 1.3891 1.3229 1.3891 1.3229 4.2113z" style=""/>
   <path id="path150" d="m555.26 548.65h2.0285v12.347h-2.0285zm0-4.8066h2.0285v2.5687h-2.0285z" style=""/>
   <path id="path152" d="m571.79 553.55v7.4524h-2.0285v-7.3863q0-1.7529-0.68351-2.6238t-2.0505-0.87092q-1.6426 0-2.5907 1.0473t-0.94809 2.8553v6.9784h-2.0395v-12.347h2.0395v1.9182q0.7276-1.1135 1.7088-1.6647 0.99219-0.55121 2.282-0.55121 2.1277 0 3.2191 1.3229 1.0914 1.3119 1.0914 3.8695z" style=""/>
   <path id="path154" d="m576.14 558.2h2.3261v2.8002h-2.3261z" style=""/>
   <path id="path156" d="m587.83 550.07q-1.6316 0-2.5797 1.2788-0.94809 1.2678-0.94809 3.4837 0 2.2159 0.93707 3.4947 0.94809 1.2678 2.5907 1.2678 1.6206 0 2.5687-1.2788t0.94809-3.4837q0-2.1938-0.94809-3.4727-0.94809-1.2898-2.5687-1.2898zm0-1.7198q2.6458 0 4.1562 1.7198 1.5103 1.7198 1.5103 4.7625 0 3.0317-1.5103 4.7625-1.5103 1.7198-4.1562 1.7198-2.6569 0-4.1672-1.7198-1.4993-1.7308-1.4993-4.7625 0-3.0427 1.4993-4.7625 1.5103-1.7198 4.1672-1.7198z" style=""/>
   <path id="path158" d="m504.31 572.09q-1.4773 2.5356-2.1938 5.0161t-0.71658 5.0271 0.71658 5.0491q0.7276 2.4915 2.1938 5.0161h-1.7639q-1.6536-2.5907-2.4805-5.0932-0.8158-2.5025-0.8158-4.972 0-2.4584 0.8158-4.9499 0.8158-2.4915 2.4805-5.0932z" style=""/>
   <path id="path160" d="m510.26 573.37v3.5057h4.1782v1.5765h-4.1782v6.7028q0 1.5103 0.4079 1.9403 0.41892 0.42995 1.6867 0.42995h2.0836v1.6977h-2.0836q-2.3482 0-3.2412-0.87092-0.89297-0.88194-0.89297-3.197v-6.7028h-1.4883v-1.5765h1.4883v-3.5057z" style=""/>
   <path id="path162" d="m522.73 583.02q-2.4584 0-3.4065 0.56224t-0.94809 1.9182q0 1.0804 0.70555 1.7198 0.71658 0.62839 1.9403 0.62839 1.6867 0 2.701-1.1906 1.0253-1.2016 1.0253-3.186v-0.452zm4.0459-0.83784v7.0445h-2.0285v-1.8741q-0.69453 1.1245-1.7308 1.6647-1.0363 0.52917-2.5356 0.52917-1.8962 0-3.0207-1.0583-1.1135-1.0694-1.1135-2.8553 0-2.0836 1.3891-3.1419 1.4001-1.0583 4.1672-1.0583h2.8443v-0.19843q0-1.4001-0.92604-2.1608-0.91502-0.7717-2.5797-0.7717-1.0583 0-2.0616 0.25356-1.0032 0.25356-1.9292 0.76067v-1.8741q1.1134-0.42995 2.1608-0.63941 1.0473-0.22049 2.0395-0.22049 2.6789 0 4.0018 1.3891 1.3229 1.3891 1.3229 4.2113zm-3.7042-11.013h2.1938l-3.5939 4.1452h-1.6867z" style=""/>
   <path id="path164" d="m538.12 578.77q-0.34176-0.19844-0.74966-0.28663-0.39687-0.0992-0.88194-0.0992-1.7198 0-2.6458 1.1245-0.91502 1.1135-0.91502 3.2081v6.5043h-2.0395v-12.347h2.0395v1.9182q0.63941-1.1245 1.6647-1.6647 1.0253-0.55122 2.4915-0.55122 0.20946 0 0.46302 0.0331 0.25356 0.022 0.56224 0.0772z" style=""/>
   <path id="path166" d="m548 582.91q0-2.2049-0.91502-3.4175-0.904-1.2127-2.5466-1.2127-1.6316 0-2.5466 1.2127-0.90399 1.2127-0.90399 3.4175 0 2.1938 0.90399 3.4065 0.91502 1.2127 2.5466 1.2127 1.6426 0 2.5466-1.2127 0.91502-1.2127 0.91502-3.4065zm2.0285 4.7846q0 3.153-1.4001 4.6853-1.4001 1.5434-4.2885 1.5434-1.0694 0-2.0174-0.16536-0.94809-0.15434-1.8411-0.48507v-1.9734q0.89297 0.48507 1.7639 0.71658t1.7749 0.23151q1.9954 0 2.9876-1.0473 0.99219-1.0363 0.99219-3.1419v-1.0032q-0.62839 1.0914-1.6096 1.6316-0.98117 0.54019-2.3482 0.54019-2.271 0-3.6601-1.7308-1.3891-1.7308-1.3891-4.5861 0-2.8663 1.3891-4.5971 1.3891-1.7308 3.6601-1.7308 1.367 0 2.3482 0.5402 0.98116 0.54019 1.6096 1.6316v-1.8741h2.0285z" style=""/>
   <path id="path168" d="m559.34 590.37q-0.8599 2.2049-1.6757 2.8774t-2.1828 0.67248h-1.6206v-1.6977h1.1906q0.83785 0 1.3009-0.39688 0.46302-0.39687 1.0253-1.8741l0.3638-0.92604-4.994-12.149h2.1497l3.8585 9.6573 3.8585-9.6573h2.1497z" style=""/>
   <path id="path170" d="m567.49 572.07h2.0395v10.131l6.0524-5.3248h2.5907l-6.5484 5.7767 6.824 6.5705h-2.6458l-6.2728-6.0303v6.0303h-2.0395z" style=""/>
   <path id="path172" d="m584.65 578.3q-1.6316 0-2.5797 1.2788-0.94809 1.2678-0.94809 3.4837t0.93707 3.4947q0.94809 1.2678 2.5907 1.2678 1.6206 0 2.5687-1.2788t0.94809-3.4837q0-2.1938-0.94809-3.4727-0.94809-1.2898-2.5687-1.2898zm0-1.7198q2.6458 0 4.1562 1.7198 1.5103 1.7198 1.5103 4.7625 0 3.0317-1.5103 4.7625-1.5103 1.7198-4.1562 1.7198-2.6569 0-4.1672-1.7198-1.4993-1.7308-1.4993-4.7625 0-3.0427 1.4993-4.7625 1.5103-1.7198 4.1672-1.7198zm1.5324-5.4129h2.1938l-3.5939 4.1452h-1.6867z" style=""/>
   <path id="path174" d="m601.8 578.75v-6.6807h2.0285v17.154h-2.0285v-1.8521q-0.63941 1.1024-1.6206 1.6426-0.97014 0.52917-2.3372 0.52917-2.2379 0-3.649-1.7859-1.4001-1.7859-1.4001-4.6964t1.4001-4.6964q1.4111-1.7859 3.649-1.7859 1.367 0 2.3372 0.5402 0.98116 0.52916 1.6206 1.6316zm-6.9122 4.3105q0 2.2379 0.91502 3.5168 0.92604 1.2678 2.5356 1.2678t2.5356-1.2678q0.92604-1.2788 0.92604-3.5168 0-2.2379-0.92604-3.5057-0.92604-1.2788-2.5356-1.2788t-2.5356 1.2788q-0.91502 1.2678-0.91502 3.5057z" style=""/>
   <path id="path176" d="m607.68 572.09h1.7639q1.6536 2.6017 2.4694 5.0932 0.82682 2.4915 0.82682 4.9499 0 2.4694-0.82682 4.972-0.8158 2.5025-2.4694 5.0932h-1.7639q1.4662-2.5246 2.1828-5.0161 0.72761-2.5025 0.72761-5.0491t-0.72761-5.0271q-0.71658-2.4805-2.1828-5.0161z" style=""/>
  </g>
  <g id="text96" aria-label="strtest(program)">
   <path id="path179" d="m789.33 409.02v1.9182q-0.8599-0.44097-1.7859-0.66146t-1.9182-0.22049q-1.5103 0-2.271 0.46302-0.74966 0.46303-0.74966 1.3891 0 0.70555 0.5402 1.1134 0.54019 0.39688 2.1718 0.76068l0.69453 0.15434q2.1608 0.46302 3.0648 1.3119 0.91502 0.83784 0.91502 2.3482 0 1.7198-1.367 2.723-1.356 1.0032-3.7372 1.0032-0.99219 0-2.0726-0.19844-1.0694-0.18742-2.26-0.57327v-2.0946q1.1245 0.58429 2.2159 0.88195 1.0914 0.28663 2.1608 0.28663 1.4332 0 2.2049-0.48507 0.7717-0.49609 0.7717-1.3891 0-0.82683-0.56224-1.2678-0.55122-0.44097-2.4364-0.84887l-0.70556-0.16537q-1.8852-0.39687-2.723-1.2127-0.83784-0.82683-0.83784-2.26 0-1.7418 1.2347-2.6899t3.5057-0.94809q1.1245 0 2.1167 0.16536 0.99219 0.16537 1.83 0.4961z" style=""/>
   <path id="path181" d="m795.24 405.15v3.5057h4.1782v1.5765h-4.1782v6.7028q0 1.5103 0.4079 1.9403 0.41893 0.42995 1.6867 0.42995h2.0836v1.6977h-2.0836q-2.3482 0-3.2412-0.87092-0.89297-0.88195-0.89297-3.197v-6.7028h-1.4883v-1.5765h1.4883v-3.5057z" style=""/>
   <path id="path183" d="m809.25 410.55q-0.34175-0.19844-0.74965-0.28663-0.39688-0.0992-0.88195-0.0992-1.7198 0-2.6458 1.1245-0.91501 1.1134-0.91501 3.2081v6.5043h-2.0395v-12.347h2.0395v1.9182q0.63941-1.1245 1.6647-1.6647 1.0253-0.55121 2.4915-0.55121 0.20947 0 0.46302 0.0331 0.25356 0.0221 0.56224 0.0772z" style=""/>
   <path id="path185" d="m813.41 405.15v3.5057h4.1782v1.5765h-4.1782v6.7028q0 1.5103 0.4079 1.9403 0.41892 0.42995 1.6867 0.42995h2.0836v1.6977h-2.0836q-2.3482 0-3.2412-0.87092-0.89297-0.88195-0.89297-3.197v-6.7028h-1.4883v-1.5765h1.4883v-3.5057z" style=""/>
   <path id="path187" d="m830.83 414.32v0.99219h-9.3266q0.1323 2.0946 1.2568 3.197 1.1355 1.0914 3.153 1.0914 1.1686 0 2.26-0.28663 1.1024-0.28663 2.1828-0.8599v1.9182q-1.0914 0.46303-2.2379 0.70556-1.1465 0.24254-2.3261 0.24254-2.9545 0-4.6853-1.7198-1.7198-1.7198-1.7198-4.6523 0-3.0317 1.6316-4.8066 1.6426-1.7859 4.4208-1.7859 2.4915 0 3.9357 1.6096 1.4552 1.5985 1.4552 4.3546zm-2.0285-0.59531q-0.022-1.6647-0.93706-2.6569-0.904-0.99219-2.4033-0.99219-1.6977 0-2.723 0.95912-1.0142 0.95911-1.1686 2.701z" style=""/>
   <path id="path189" d="m842.03 409.02v1.9182q-0.85989-0.44097-1.7859-0.66146-0.92604-0.22049-1.9182-0.22049-1.5103 0-2.271 0.46302-0.74965 0.46303-0.74965 1.3891 0 0.70555 0.54019 1.1134 0.54019 0.39688 2.1718 0.76068l0.69453 0.15434q2.1608 0.46302 3.0648 1.3119 0.91502 0.83784 0.91502 2.3482 0 1.7198-1.367 2.723-1.356 1.0032-3.7372 1.0032-0.99218 0-2.0726-0.19844-1.0694-0.18742-2.26-0.57327v-2.0946q1.1245 0.58429 2.2159 0.88195 1.0914 0.28663 2.1608 0.28663 1.4332 0 2.2049-0.48507 0.77171-0.49609 0.77171-1.3891 0-0.82683-0.56224-1.2678-0.55122-0.44097-2.4364-0.84887l-0.70555-0.16537q-1.8852-0.39687-2.723-1.2127-0.83785-0.82683-0.83785-2.26 0-1.7418 1.2347-2.6899 1.2347-0.94809 3.5057-0.94809 1.1245 0 2.1167 0.16536 0.99219 0.16537 1.83 0.4961z" style=""/>
   <path id="path191" d="m847.94 405.15v3.5057h4.1782v1.5765h-4.1782v6.7028q0 1.5103 0.4079 1.9403 0.41892 0.42995 1.6867 0.42995h2.0836v1.6977h-2.0836q-2.3482 0-3.2412-0.87092-0.89297-0.88195-0.89297-3.197v-6.7028h-1.4883v-1.5765h1.4883v-3.5057z" style=""/>
   <path id="path193" d="m765.96 432.09q-1.4773 2.5356-2.1938 5.0161t-0.71658 5.0271 0.71658 5.0491q0.7276 2.4915 2.1938 5.0161h-1.7639q-1.6536-2.5907-2.4805-5.0932-0.8158-2.5025-0.8158-4.972 0-2.4584 0.8158-4.9499 0.8158-2.4915 2.4805-5.0932z" style=""/>
   <path id="path195" d="m771.87 447.37v6.5484h-2.0395v-17.044h2.0395v1.8741q0.63941-1.1024 1.6096-1.6316 0.98116-0.5402 2.3372-0.5402 2.249 0 3.649 1.7859 1.4111 1.7859 1.4111 4.6964t-1.4111 4.6964q-1.4001 1.7859-3.649 1.7859-1.356 0-2.3372-0.52917-0.97014-0.54019-1.6096-1.6426zm6.9012-4.3105q0-2.2379-0.92604-3.5057-0.91502-1.2788-2.5246-1.2788t-2.5356 1.2788q-0.91502 1.2678-0.91502 3.5057 0 2.2379 0.91502 3.5168 0.92604 1.2678 2.5356 1.2678t2.5246-1.2678q0.92604-1.2788 0.92604-3.5168z" style=""/>
   <path id="path197" d="m791.39 438.77q-0.34176-0.19844-0.74966-0.28663-0.39687-0.0992-0.88194-0.0992-1.7198 0-2.6458 1.1245-0.91502 1.1135-0.91502 3.2081v6.5043h-2.0395v-12.347h2.0395v1.9182q0.63941-1.1245 1.6647-1.6647 1.0253-0.55122 2.4915-0.55122 0.20946 0 0.46302 0.0331 0.25356 0.0221 0.56224 0.0772z" style=""/>
   <path id="path199" d="m797.84 438.3q-1.6316 0-2.5797 1.2788-0.94809 1.2678-0.94809 3.4837t0.93707 3.4947q0.94809 1.2678 2.5907 1.2678 1.6206 0 2.5687-1.2788 0.94809-1.2788 0.94809-3.4837 0-2.1938-0.94809-3.4727-0.9481-1.2898-2.5687-1.2898zm0-1.7198q2.6458 0 4.1562 1.7198 1.5103 1.7198 1.5103 4.7625 0 3.0317-1.5103 4.7625-1.5103 1.7198-4.1562 1.7198-2.6569 0-4.1672-1.7198-1.4993-1.7308-1.4993-4.7625 0-3.0427 1.4993-4.7625 1.5103-1.7198 4.1672-1.7198z" style=""/>
   <path id="path201" d="m814.99 442.91q0-2.2049-0.91501-3.4175-0.904-1.2127-2.5466-1.2127-1.6316 0-2.5466 1.2127-0.90399 1.2127-0.90399 3.4175 0 2.1938 0.90399 3.4065 0.91502 1.2127 2.5466 1.2127 1.6426 0 2.5466-1.2127 0.91501-1.2127 0.91501-3.4065zm2.0285 4.7846q0 3.153-1.4001 4.6853-1.4001 1.5434-4.2885 1.5434-1.0694 0-2.0174-0.16536-0.94809-0.15434-1.8411-0.48507v-1.9734q0.89297 0.48507 1.7639 0.71658t1.7749 0.23151q1.9954 0 2.9876-1.0473 0.99218-1.0363 0.99218-3.1419v-1.0032q-0.62838 1.0914-1.6096 1.6316-0.98116 0.54019-2.3482 0.54019-2.271 0-3.6601-1.7308-1.3891-1.7308-1.3891-4.5861 0-2.8663 1.3891-4.5971 1.3891-1.7308 3.6601-1.7308 1.367 0 2.3482 0.5402 0.98117 0.54019 1.6096 1.6316v-1.8741h2.0285z" style=""/>
   <path id="path203" d="m828.35 438.77q-0.34176-0.19844-0.74966-0.28663-0.39687-0.0992-0.88194-0.0992-1.7198 0-2.6458 1.1245-0.91502 1.1135-0.91502 3.2081v6.5043h-2.0395v-12.347h2.0395v1.9182q0.63941-1.1245 1.6647-1.6647 1.0253-0.55122 2.4915-0.55122 0.20946 0 0.46302 0.0331 0.25356 0.0221 0.56224 0.0772z" style=""/>
   <path id="path205" d="m836.11 443.02q-2.4584 0-3.4065 0.56224t-0.94809 1.9182q0 1.0804 0.70555 1.7198 0.71658 0.62839 1.9403 0.62839 1.6867 0 2.701-1.1906 1.0253-1.2016 1.0253-3.186v-0.452zm4.0459-0.83784v7.0445h-2.0285v-1.8741q-0.69453 1.1245-1.7308 1.6647-1.0363 0.52917-2.5356 0.52917-1.8962 0-3.0207-1.0583-1.1135-1.0694-1.1135-2.8553 0-2.0836 1.3891-3.1419 1.4001-1.0583 4.1672-1.0583h2.8443v-0.19843q0-1.4001-0.92604-2.1608-0.91502-0.7717-2.5797-0.7717-1.0583 0-2.0616 0.25356t-1.9292 0.76067v-1.8741q1.1134-0.42995 2.1608-0.63941 1.0473-0.22049 2.0395-0.22049 2.6789 0 4.0018 1.3891 1.3229 1.3891 1.3229 4.2113z" style=""/>
   <path id="path207" d="m853.96 439.24q0.76068-1.367 1.819-2.0174 1.0583-0.65044 2.4915-0.65044 1.9292 0 2.9766 1.356 1.0473 1.345 1.0473 3.8365v7.4524h-2.0395v-7.3863q0-1.7749-0.62839-2.6348t-1.9182-0.8599q-1.5765 0-2.4915 1.0473t-0.91502 2.8553v6.9784h-2.0395v-7.3863q0-1.7859-0.62839-2.6348-0.62839-0.8599-1.9403-0.8599-1.5544 0-2.4694 1.0583-0.91502 1.0473-0.91502 2.8443v6.9784h-2.0395v-12.347h2.0395v1.9182q0.69454-1.1355 1.6647-1.6757 0.97014-0.5402 2.3041-0.5402 1.345 0 2.282 0.68351 0.94809 0.68351 1.4001 1.9844z" style=""/>
   <path id="path209" d="m866.03 432.09h1.7639q1.6536 2.6017 2.4694 5.0932 0.82682 2.4915 0.82682 4.9499 0 2.4694-0.82682 4.972-0.8158 2.5025-2.4694 5.0932h-1.7639q1.4662-2.5246 2.1828-5.0161 0.7276-2.5025 0.7276-5.0491t-0.7276-5.0271q-0.71659-2.4805-2.1828-5.0161z" style=""/>
  </g>
  <g id="text102" aria-label="strswap.o(tárgykód)">
   <path id="path212" d="m511.32 269.02v1.9182q-0.85989-0.44097-1.7859-0.66146-0.92604-0.22049-1.9182-0.22049-1.5103 0-2.271 0.46302-0.74965 0.46303-0.74965 1.3891 0 0.70555 0.54019 1.1134 0.54019 0.39688 2.1718 0.76068l0.69453 0.15434q2.1608 0.46302 3.0648 1.3119 0.91502 0.83784 0.91502 2.3482 0 1.7198-1.367 2.723-1.356 1.0032-3.7372 1.0032-0.99218 0-2.0726-0.19844-1.0694-0.18742-2.26-0.57327v-2.0946q1.1245 0.58429 2.2159 0.88195 1.0914 0.28663 2.1608 0.28663 1.4332 0 2.2049-0.48507 0.7717-0.49609 0.7717-1.3891 0-0.82683-0.56224-1.2678-0.55122-0.44097-2.4364-0.84887l-0.70555-0.16537q-1.8852-0.39687-2.723-1.2127-0.83785-0.82683-0.83785-2.26 0-1.7418 1.2347-2.6899 1.2347-0.94809 3.5057-0.94809 1.1245 0 2.1167 0.16536 0.99219 0.16537 1.83 0.4961z" style=""/>
   <path id="path214" d="m517.23 265.15v3.5057h4.1782v1.5765h-4.1782v6.7028q0 1.5103 0.4079 1.9403 0.41892 0.42995 1.6867 0.42995h2.0836v1.6977h-2.0836q-2.3482 0-3.2412-0.87092-0.89297-0.88195-0.89297-3.197v-6.7028h-1.4883v-1.5765h1.4883v-3.5057z" style=""/>
   <path id="path216" d="m531.24 270.55q-0.34176-0.19844-0.74966-0.28663-0.39687-0.0992-0.88194-0.0992-1.7198 0-2.6458 1.1245-0.91502 1.1134-0.91502 3.2081v6.5043h-2.0395v-12.347h2.0395v1.9182q0.63941-1.1245 1.6647-1.6647 1.0253-0.55121 2.4915-0.55121 0.20946 0 0.46302 0.0331 0.25356 0.0221 0.56224 0.0772z" style=""/>
   <path id="path218" d="m541.26 269.02v1.9182q-0.8599-0.44097-1.7859-0.66146t-1.9182-0.22049q-1.5103 0-2.271 0.46302-0.74965 0.46303-0.74965 1.3891 0 0.70555 0.54019 1.1134 0.54019 0.39688 2.1718 0.76068l0.69453 0.15434q2.1608 0.46302 3.0648 1.3119 0.91502 0.83784 0.91502 2.3482 0 1.7198-1.367 2.723-1.356 1.0032-3.7372 1.0032-0.99219 0-2.0726-0.19844-1.0694-0.18742-2.26-0.57327v-2.0946q1.1245 0.58429 2.2159 0.88195 1.0914 0.28663 2.1608 0.28663 1.4332 0 2.2049-0.48507 0.7717-0.49609 0.7717-1.3891 0-0.82683-0.56224-1.2678-0.55121-0.44097-2.4364-0.84887l-0.70556-0.16537q-1.8852-0.39687-2.723-1.2127-0.83785-0.82683-0.83785-2.26 0-1.7418 1.2347-2.6899t3.5057-0.94809q1.1245 0 2.1167 0.16536 0.99219 0.16537 1.83 0.4961z" style=""/>
   <path id="path220" d="m543.98 268.65h2.0285l2.5356 9.6352 2.5246-9.6352h2.3923l2.5356 9.6352 2.5246-9.6352h2.0285l-3.2301 12.347h-2.3923l-2.6569-10.12-2.6679 10.12h-2.3923z" style=""/>
   <path id="path222" d="m569.25 274.79q-2.4584 0-3.4065 0.56224t-0.94809 1.9182q0 1.0804 0.70555 1.7198 0.71658 0.62839 1.9403 0.62839 1.6867 0 2.701-1.1906 1.0253-1.2016 1.0253-3.186v-0.452zm4.0459-0.83785v7.0445h-2.0285v-1.8741q-0.69453 1.1245-1.7308 1.6647-1.0363 0.52917-2.5356 0.52917-1.8962 0-3.0207-1.0583-1.1135-1.0694-1.1135-2.8553 0-2.0836 1.3891-3.1419 1.4001-1.0583 4.1672-1.0583h2.8443v-0.19844q0-1.4001-0.92604-2.1608-0.91502-0.7717-2.5797-0.7717-1.0583 0-2.0616 0.25356t-1.9292 0.76068v-1.8741q1.1134-0.42995 2.1608-0.63942 1.0473-0.22048 2.0395-0.22048 2.6789 0 4.0018 1.3891 1.3229 1.3891 1.3229 4.2113z" style=""/>
   <path id="path224" d="m579.45 279.15v6.5484h-2.0395v-17.044h2.0395v1.8741q0.63941-1.1024 1.6096-1.6316 0.98117-0.54019 2.3372-0.54019 2.249 0 3.649 1.7859 1.4111 1.7859 1.4111 4.6964t-1.4111 4.6964q-1.4001 1.7859-3.649 1.7859-1.356 0-2.3372-0.52917-0.97014-0.54019-1.6096-1.6426zm6.9012-4.3105q0-2.2379-0.92605-3.5057-0.91501-1.2788-2.5246-1.2788t-2.5356 1.2788q-0.91502 1.2678-0.91502 3.5057 0 2.2379 0.91502 3.5168 0.92605 1.2678 2.5356 1.2678t2.5246-1.2678q0.92605-1.2788 0.92605-3.5168z" style=""/>
   <path id="path226" d="m592.1 278.2h2.3261v2.8002h-2.3261z" style=""/>
   <path id="path228" d="m603.79 270.07q-1.6316 0-2.5797 1.2788-0.94809 1.2678-0.94809 3.4837 0 2.2159 0.93707 3.4947 0.94809 1.2678 2.5907 1.2678 1.6206 0 2.5687-1.2788t0.94809-3.4837q0-2.1938-0.94809-3.4727-0.94809-1.2898-2.5687-1.2898zm0-1.7198q2.6458 0 4.1562 1.7198 1.5103 1.7198 1.5103 4.7625 0 3.0317-1.5103 4.7625-1.5103 1.7198-4.1562 1.7198-2.6569 0-4.1672-1.7198-1.4993-1.7308-1.4993-4.7625 0-3.0427 1.4993-4.7625 1.5103-1.7198 4.1672-1.7198z" style=""/>
   <path id="path230" d="m504.31 292.09q-1.4773 2.5356-2.1938 5.0161t-0.71658 5.0271 0.71658 5.0491q0.7276 2.4915 2.1938 5.0161h-1.7639q-1.6536-2.5907-2.4805-5.0932-0.8158-2.5025-0.8158-4.972 0-2.4584 0.8158-4.9499 0.8158-2.4915 2.4805-5.0932z" style=""/>
   <path id="path232" d="m510.26 293.37v3.5057h4.1782v1.5765h-4.1782v6.7028q0 1.5103 0.4079 1.9403 0.41892 0.42995 1.6867 0.42995h2.0836v1.6977h-2.0836q-2.3482 0-3.2412-0.87092-0.89297-0.88194-0.89297-3.197v-6.7028h-1.4883v-1.5765h1.4883v-3.5057z" style=""/>
   <path id="path234" d="m522.73 303.02q-2.4584 0-3.4065 0.56224t-0.94809 1.9182q0 1.0804 0.70555 1.7198 0.71658 0.62839 1.9403 0.62839 1.6867 0 2.701-1.1906 1.0253-1.2016 1.0253-3.186v-0.452zm4.0459-0.83784v7.0445h-2.0285v-1.8741q-0.69453 1.1245-1.7308 1.6647-1.0363 0.52917-2.5356 0.52917-1.8962 0-3.0207-1.0583-1.1135-1.0694-1.1135-2.8553 0-2.0836 1.3891-3.1419 1.4001-1.0583 4.1672-1.0583h2.8443v-0.19843q0-1.4001-0.92604-2.1608-0.91502-0.7717-2.5797-0.7717-1.0583 0-2.0616 0.25356-1.0032 0.25356-1.9292 0.76067v-1.8741q1.1134-0.42995 2.1608-0.63941 1.0473-0.22049 2.0395-0.22049 2.6789 0 4.0018 1.3891 1.3229 1.3891 1.3229 4.2113zm-3.7042-11.013h2.1938l-3.5939 4.1452h-1.6867z" style=""/>
   <path id="path236" d="m538.12 298.77q-0.34176-0.19844-0.74966-0.28663-0.39687-0.0992-0.88194-0.0992-1.7198 0-2.6458 1.1245-0.91502 1.1135-0.91502 3.2081v6.5043h-2.0395v-12.347h2.0395v1.9182q0.63941-1.1245 1.6647-1.6647 1.0253-0.55122 2.4915-0.55122 0.20946 0 0.46302 0.0331 0.25356 0.0221 0.56224 0.0772z" style=""/>
   <path id="path238" d="m548 302.91q0-2.2049-0.91502-3.4175-0.904-1.2127-2.5466-1.2127-1.6316 0-2.5466 1.2127-0.90399 1.2127-0.90399 3.4175 0 2.1938 0.90399 3.4065 0.91502 1.2127 2.5466 1.2127 1.6426 0 2.5466-1.2127 0.91502-1.2127 0.91502-3.4065zm2.0285 4.7846q0 3.153-1.4001 4.6853-1.4001 1.5434-4.2885 1.5434-1.0694 0-2.0174-0.16536-0.94809-0.15434-1.8411-0.48507v-1.9734q0.89297 0.48507 1.7639 0.71658t1.7749 0.23151q1.9954 0 2.9876-1.0473 0.99219-1.0363 0.99219-3.1419v-1.0032q-0.62839 1.0914-1.6096 1.6316-0.98117 0.54019-2.3482 0.54019-2.271 0-3.6601-1.7308-1.3891-1.7308-1.3891-4.5861 0-2.8663 1.3891-4.5971 1.3891-1.7308 3.6601-1.7308 1.367 0 2.3482 0.5402 0.98116 0.54019 1.6096 1.6316v-1.8741h2.0285z" style=""/>
   <path id="path240" d="m559.34 310.37q-0.8599 2.2049-1.6757 2.8774t-2.1828 0.67248h-1.6206v-1.6977h1.1906q0.83785 0 1.3009-0.39688 0.46302-0.39687 1.0253-1.8741l0.3638-0.92604-4.994-12.149h2.1497l3.8585 9.6573 3.8585-9.6573h2.1497z" style=""/>
   <path id="path242" d="m567.49 292.07h2.0395v10.131l6.0524-5.3248h2.5907l-6.5484 5.7767 6.824 6.5705h-2.6458l-6.2728-6.0303v6.0303h-2.0395z" style=""/>
   <path id="path244" d="m584.65 298.3q-1.6316 0-2.5797 1.2788-0.94809 1.2678-0.94809 3.4837t0.93707 3.4947q0.94809 1.2678 2.5907 1.2678 1.6206 0 2.5687-1.2788t0.94809-3.4837q0-2.1938-0.94809-3.4727-0.94809-1.2898-2.5687-1.2898zm0-1.7198q2.6458 0 4.1562 1.7198 1.5103 1.7198 1.5103 4.7625 0 3.0317-1.5103 4.7625-1.5103 1.7198-4.1562 1.7198-2.6569 0-4.1672-1.7198-1.4993-1.7308-1.4993-4.7625 0-3.0427 1.4993-4.7625 1.5103-1.7198 4.1672-1.7198zm1.5324-5.4129h2.1938l-3.5939 4.1452h-1.6867z" style=""/>
   <path id="path246" d="m601.8 298.75v-6.6807h2.0285v17.154h-2.0285v-1.8521q-0.63941 1.1024-1.6206 1.6426-0.97014 0.52917-2.3372 0.52917-2.2379 0-3.649-1.7859-1.4001-1.7859-1.4001-4.6964t1.4001-4.6964q1.4111-1.7859 3.649-1.7859 1.367 0 2.3372 0.5402 0.98116 0.52916 1.6206 1.6316zm-6.9122 4.3105q0 2.2379 0.91502 3.5168 0.92604 1.2678 2.5356 1.2678t2.5356-1.2678q0.92604-1.2788 0.92604-3.5168 0-2.2379-0.92604-3.5057-0.92604-1.2788-2.5356-1.2788t-2.5356 1.2788q-0.91502 1.2678-0.91502 3.5057z" style=""/>
   <path id="path248" d="m607.68 292.09h1.7639q1.6536 2.6017 2.4694 5.0932 0.82682 2.4915 0.82682 4.9499 0 2.4694-0.82682 4.972-0.8158 2.5025-2.4694 5.0932h-1.7639q1.4662-2.5246 2.1828-5.0161 0.72761-2.5025 0.72761-5.0491t-0.72761-5.0271q-0.71658-2.4805-2.1828-5.0161z" style=""/>
  </g>
  <g id="text110" aria-label="010100110110101">
   <path id="path251" d="m539.19 184.3q-0.975 0-1.4688 0.9625-0.4875 0.95625-0.4875 2.8812 0 1.9188 0.4875 2.8812 0.49375 0.95625 1.4688 0.95625 0.98125 0 1.4688-0.95625 0.49375-0.9625 0.49375-2.8812 0-1.925-0.49375-2.8812-0.4875-0.9625-1.4688-0.9625zm0-1q1.5688 0 2.3938 1.2438 0.83125 1.2375 0.83125 3.6 0 2.3562-0.83125 3.6-0.825 1.2375-2.3938 1.2375t-2.4-1.2375q-0.825-1.2438-0.825-3.6 0-2.3625 0.825-3.6 0.83125-1.2438 2.4-1.2438z" style=""/>
   <path id="path253" d="m544.86 191.74h2.0625v-7.1188l-2.2438 0.45v-1.15l2.2312-0.45h1.2625v8.2688h2.0625v1.0625h-5.375z" style=""/>
   <path id="path255" d="m555.49 184.3q-0.975 0-1.4688 0.9625-0.4875 0.95625-0.4875 2.8812 0 1.9188 0.4875 2.8812 0.49375 0.95625 1.4688 0.95625 0.98125 0 1.4688-0.95625 0.49375-0.9625 0.49375-2.8812 0-1.925-0.49375-2.8812-0.4875-0.9625-1.4688-0.9625zm0-1q1.5688 0 2.3938 1.2438 0.83125 1.2375 0.83125 3.6 0 2.3562-0.83125 3.6-0.825 1.2375-2.3938 1.2375t-2.4-1.2375q-0.825-1.2438-0.825-3.6 0-2.3625 0.825-3.6 0.83125-1.2438 2.4-1.2438z" style=""/>
   <path id="path257" d="m561.16 191.74h2.0625v-7.1188l-2.2438 0.45v-1.15l2.2312-0.45h1.2625v8.2688h2.0625v1.0625h-5.375z" style=""/>
   <path id="path259" d="m571.79 184.3q-0.975 0-1.4688 0.9625-0.4875 0.95625-0.4875 2.8812 0 1.9188 0.4875 2.8812 0.49375 0.95625 1.4688 0.95625 0.98125 0 1.4688-0.95625 0.49375-0.9625 0.49375-2.8812 0-1.925-0.49375-2.8812-0.4875-0.9625-1.4688-0.9625zm0-1q1.5688 0 2.3938 1.2438 0.83125 1.2375 0.83125 3.6 0 2.3562-0.83125 3.6-0.825 1.2375-2.3938 1.2375t-2.4-1.2375q-0.825-1.2438-0.825-3.6 0-2.3625 0.825-3.6 0.83125-1.2438 2.4-1.2438z" style=""/>
   <path id="path261" d="m539.19 200.3q-0.975 0-1.4688 0.9625-0.4875 0.95625-0.4875 2.8812 0 1.9188 0.4875 2.8812 0.49375 0.95625 1.4688 0.95625 0.98125 0 1.4688-0.95625 0.49375-0.9625 0.49375-2.8812 0-1.925-0.49375-2.8812-0.4875-0.9625-1.4688-0.9625zm0-1q1.5688 0 2.3938 1.2438 0.83125 1.2375 0.83125 3.6 0 2.3562-0.83125 3.6-0.825 1.2375-2.3938 1.2375t-2.4-1.2375q-0.825-1.2438-0.825-3.6 0-2.3625 0.825-3.6 0.83125-1.2438 2.4-1.2438z" style=""/>
   <path id="path263" d="m544.86 207.74h2.0625v-7.1188l-2.2438 0.45v-1.15l2.2312-0.45h1.2625v8.2688h2.0625v1.0625h-5.375z" style=""/>
   <path id="path265" d="m553.01 207.74h2.0625v-7.1188l-2.2438 0.45v-1.15l2.2312-0.45h1.2625v8.2688h2.0625v1.0625h-5.375z" style=""/>
   <path id="path267" d="m563.64 200.3q-0.975 0-1.4688 0.9625-0.4875 0.95625-0.4875 2.8812 0 1.9188 0.4875 2.8812 0.49375 0.95625 1.4688 0.95625 0.98125 0 1.4688-0.95625 0.49375-0.9625 0.49375-2.8812 0-1.925-0.49375-2.8812-0.4875-0.9625-1.4688-0.9625zm0-1q1.5688 0 2.3938 1.2438 0.83125 1.2375 0.83125 3.6 0 2.3562-0.83125 3.6-0.825 1.2375-2.3938 1.2375t-2.4-1.2375q-0.825-1.2438-0.825-3.6 0-2.3625 0.825-3.6 0.83125-1.2438 2.4-1.2438z" style=""/>
   <path id="path269" d="m569.31 207.74h2.0625v-7.1188l-2.2438 0.45v-1.15l2.2312-0.45h1.2625v8.2688h2.0625v1.0625h-5.375z" style=""/>
   <path id="path271" d="m536.71 223.74h2.0625v-7.1188l-2.2438 0.45v-1.15l2.2312-0.45h1.2625v8.2688h2.0625v1.0625h-5.375z" style=""/>
   <path id="path273" d="m547.34 216.3q-0.975 0-1.4688 0.9625-0.4875 0.95625-0.4875 2.8812 0 1.9188 0.4875 2.8812 0.49375 0.95625 1.4688 0.95625 0.98125 0 1.4688-0.95625 0.49375-0.9625 0.49375-2.8812 0-1.925-0.49375-2.8812-0.4875-0.9625-1.4688-0.9625zm0-1q1.5688 0 2.3938 1.2438 0.83125 1.2375 0.83125 3.6 0 2.3562-0.83125 3.6-0.825 1.2375-2.3938 1.2375t-2.4-1.2375q-0.825-1.2438-0.825-3.6 0-2.3625 0.825-3.6 0.83125-1.2438 2.4-1.2438z" style=""/>
   <path id="path275" d="m553.01 223.74h2.0625v-7.1188l-2.2438 0.45v-1.15l2.2312-0.45h1.2625v8.2688h2.0625v1.0625h-5.375z" style=""/>
   <path id="path277" d="m563.64 216.3q-0.975 0-1.4688 0.9625-0.4875 0.95625-0.4875 2.8812 0 1.9188 0.4875 2.8812 0.49375 0.95625 1.4688 0.95625 0.98125 0 1.4688-0.95625 0.49375-0.9625 0.49375-2.8812 0-1.925-0.49375-2.8812-0.4875-0.9625-1.4688-0.9625zm0-1q1.5688 0 2.3938 1.2438 0.83125 1.2375 0.83125 3.6 0 2.3562-0.83125 3.6-0.825 1.2375-2.3938 1.2375t-2.4-1.2375q-0.825-1.2438-0.825-3.6 0-2.3625 0.825-3.6 0.83125-1.2438 2.4-1.2438z" style=""/>
   <path id="path279" d="m569.31 223.74h2.0625v-7.1188l-2.2438 0.45v-1.15l2.2312-0.45h1.2625v8.2688h2.0625v1.0625h-5.375z" style=""/>
  </g>
  <g id="text118" aria-label="010100110110101">
   <path id="path282" d="m539.19 464.3q-0.975 0-1.4688 0.9625-0.4875 0.95625-0.4875 2.8812 0 1.9188 0.4875 2.8812 0.49375 0.95625 1.4688 0.95625 0.98125 0 1.4688-0.95625 0.49375-0.9625 0.49375-2.8812 0-1.925-0.49375-2.8812-0.4875-0.9625-1.4688-0.9625zm0-1q1.5688 0 2.3938 1.2438 0.83125 1.2375 0.83125 3.6 0 2.3562-0.83125 3.6-0.825 1.2375-2.3938 1.2375t-2.4-1.2375q-0.825-1.2438-0.825-3.6 0-2.3625 0.825-3.6 0.83125-1.2438 2.4-1.2438z" style=""/>
   <path id="path284" d="m544.86 471.74h2.0625v-7.1188l-2.2438 0.45v-1.15l2.2312-0.45h1.2625v8.2688h2.0625v1.0625h-5.375z" style=""/>
   <path id="path286" d="m555.49 464.3q-0.975 0-1.4688 0.9625-0.4875 0.95625-0.4875 2.8812 0 1.9188 0.4875 2.8812 0.49375 0.95625 1.4688 0.95625 0.98125 0 1.4688-0.95625 0.49375-0.9625 0.49375-2.8812 0-1.925-0.49375-2.8812-0.4875-0.9625-1.4688-0.9625zm0-1q1.5688 0 2.3938 1.2438 0.83125 1.2375 0.83125 3.6 0 2.3562-0.83125 3.6-0.825 1.2375-2.3938 1.2375t-2.4-1.2375q-0.825-1.2438-0.825-3.6 0-2.3625 0.825-3.6 0.83125-1.2438 2.4-1.2438z" style=""/>
   <path id="path288" d="m561.16 471.74h2.0625v-7.1188l-2.2438 0.45v-1.15l2.2312-0.45h1.2625v8.2688h2.0625v1.0625h-5.375z" style=""/>
   <path id="path290" d="m571.79 464.3q-0.975 0-1.4688 0.9625-0.4875 0.95625-0.4875 2.8812 0 1.9188 0.4875 2.8812 0.49375 0.95625 1.4688 0.95625 0.98125 0 1.4688-0.95625 0.49375-0.9625 0.49375-2.8812 0-1.925-0.49375-2.8812-0.4875-0.9625-1.4688-0.9625zm0-1q1.5688 0 2.3938 1.2438 0.83125 1.2375 0.83125 3.6 0 2.3562-0.83125 3.6-0.825 1.2375-2.3938 1.2375t-2.4-1.2375q-0.825-1.2438-0.825-3.6 0-2.3625 0.825-3.6 0.83125-1.2438 2.4-1.2438z" style=""/>
   <path id="path292" d="m539.19 480.3q-0.975 0-1.4688 0.9625-0.4875 0.95625-0.4875 2.8812 0 1.9188 0.4875 2.8812 0.49375 0.95625 1.4688 0.95625 0.98125 0 1.4688-0.95625 0.49375-0.9625 0.49375-2.8812 0-1.925-0.49375-2.8812-0.4875-0.9625-1.4688-0.9625zm0-1q1.5688 0 2.3938 1.2438 0.83125 1.2375 0.83125 3.6 0 2.3562-0.83125 3.6-0.825 1.2375-2.3938 1.2375t-2.4-1.2375q-0.825-1.2438-0.825-3.6 0-2.3625 0.825-3.6 0.83125-1.2438 2.4-1.2438z" style=""/>
   <path id="path294" d="m544.86 487.74h2.0625v-7.1188l-2.2438 0.45v-1.15l2.2312-0.45h1.2625v8.2688h2.0625v1.0625h-5.375z" style=""/>
   <path id="path296" d="m553.01 487.74h2.0625v-7.1188l-2.2438 0.45v-1.15l2.2312-0.45h1.2625v8.2688h2.0625v1.0625h-5.375z" style=""/>
   <path id="path298" d="m563.64 480.3q-0.975 0-1.4688 0.9625-0.4875 0.95625-0.4875 2.8812 0 1.9188 0.4875 2.8812 0.49375 0.95625 1.4688 0.95625 0.98125 0 1.4688-0.95625 0.49375-0.9625 0.49375-2.8812 0-1.925-0.49375-2.8812-0.4875-0.9625-1.4688-0.9625zm0-1q1.5688 0 2.3938 1.2438 0.83125 1.2375 0.83125 3.6 0 2.3562-0.83125 3.6-0.825 1.2375-2.3938 1.2375t-2.4-1.2375q-0.825-1.2438-0.825-3.6 0-2.3625 0.825-3.6 0.83125-1.2438 2.4-1.2438z" style=""/>
   <path id="path300" d="m569.31 487.74h2.0625v-7.1188l-2.2438 0.45v-1.15l2.2312-0.45h1.2625v8.2688h2.0625v1.0625h-5.375z" style=""/>
   <path id="path302" d="m536.71 503.74h2.0625v-7.1188l-2.2438 0.45v-1.15l2.2312-0.45h1.2625v8.2688h2.0625v1.0625h-5.375z" style=""/>
   <path id="path304" d="m547.34 496.3q-0.975 0-1.4688 0.9625-0.4875 0.95625-0.4875 2.8812 0 1.9188 0.4875 2.8812 0.49375 0.95625 1.4688 0.95625 0.98125 0 1.4688-0.95625 0.49375-0.9625 0.49375-2.8812 0-1.925-0.49375-2.8812-0.4875-0.9625-1.4688-0.9625zm0-1q1.5688 0 2.3938 1.2438 0.83125 1.2375 0.83125 3.6 0 2.3562-0.83125 3.6-0.825 1.2375-2.3938 1.2375t-2.4-1.2375q-0.825-1.2438-0.825-3.6 0-2.3625 0.825-3.6 0.83125-1.2438 2.4-1.2438z" style=""/>
   <path id="path306" d="m553.01 503.74h2.0625v-7.1188l-2.2438 0.45v-1.15l2.2312-0.45h1.2625v8.2688h2.0625v1.0625h-5.375z" style=""/>
   <path id="path308" d="m563.64 496.3q-0.975 0-1.4688 0.9625-0.4875 0.95625-0.4875 2.8812 0 1.9188 0.4875 2.8812 0.49375 0.95625 1.4688 0.95625 0.98125 0 1.4688-0.95625 0.49375-0.9625 0.49375-2.8812 0-1.925-0.49375-2.8812-0.4875-0.9625-1.4688-0.9625zm0-1q1.5688 0 2.3938 1.2438 0.83125 1.2375 0.83125 3.6 0 2.3562-0.83125 3.6-0.825 1.2375-2.3938 1.2375t-2.4-1.2375q-0.825-1.2438-0.825-3.6 0-2.3625 0.825-3.6 0.83125-1.2438 2.4-1.2438z" style=""/>
   <path id="path310" d="m569.31 503.74h2.0625v-7.1188l-2.2438 0.45v-1.15l2.2312-0.45h1.2625v8.2688h2.0625v1.0625h-5.375z" style=""/>
  </g>
  <g id="text126" aria-label="int main(){   ...">
   <path id="path313" d="m266.23 490.99h1.15v7h-1.15zm0-2.725h1.15v1.4562h-1.15z" style=""/>
   <path id="path315" d="m275.6 493.76v4.225h-1.15v-4.1875q0-0.99375-0.3875-1.4875t-1.1625-0.49375q-0.93125 0-1.4688 0.59375t-0.5375 1.6188v3.9562h-1.1562v-7h1.1562v1.0875q0.4125-0.63125 0.96875-0.94375 0.5625-0.3125 1.2938-0.3125 1.2062 0 1.825 0.75 0.61875 0.74375 0.61875 2.1938z" style=""/>
   <path id="path317" d="m279.04 489v1.9875h2.3688v0.89375h-2.3688v3.8q0 0.85625 0.23125 1.1 0.2375 0.24375 0.95625 0.24375h1.1812v0.9625h-1.1812q-1.3312 0-1.8375-0.49375-0.50625-0.5-0.50625-1.8125v-3.8h-0.84375v-0.89375h0.84375v-1.9875z" style=""/>
   <path id="path319" d="m292.46 492.33q0.43125-0.775 1.0312-1.1438t1.4125-0.36875q1.0938 0 1.6875 0.76875 0.59375 0.7625 0.59375 2.175v4.225h-1.1562v-4.1875q0-1.0062-0.35625-1.4938t-1.0875-0.4875q-0.89375 0-1.4125 0.59375t-0.51875 1.6188v3.9562h-1.1562v-4.1875q0-1.0125-0.35625-1.4938-0.35625-0.4875-1.1-0.4875-0.88125 0-1.4 0.6-0.51875 0.59375-0.51875 1.6125v3.9562h-1.1562v-7h1.1562v1.0875q0.39375-0.64375 0.94375-0.95t1.3062-0.30625q0.7625 0 1.2938 0.3875 0.5375 0.3875 0.79375 1.125z" style=""/>
   <path id="path321" d="m302.66 494.47q-1.3938 0-1.9312 0.31875t-0.5375 1.0875q0 0.6125 0.4 0.975 0.40625 0.35625 1.1 0.35625 0.95625 0 1.5312-0.675 0.58125-0.68125 0.58125-1.8062v-0.25625zm2.2938-0.475v3.9938h-1.15v-1.0625q-0.39375 0.6375-0.98125 0.94375-0.5875 0.3-1.4375 0.3-1.075 0-1.7125-0.6-0.63125-0.60625-0.63125-1.6188 0-1.1812 0.7875-1.7812 0.79375-0.6 2.3625-0.6h1.6125v-0.1125q0-0.79375-0.525-1.225-0.51875-0.4375-1.4625-0.4375-0.6 0-1.1688 0.14375t-1.0938 0.43125v-1.0625q0.63125-0.24375 1.225-0.3625 0.59375-0.125 1.1562-0.125 1.5188 0 2.2688 0.7875t0.75 2.3875z" style=""/>
   <path id="path323" d="m307.33 490.99h1.15v7h-1.15zm0-2.725h1.15v1.4562h-1.15z" style=""/>
   <path id="path325" d="m316.7 493.76v4.225h-1.15v-4.1875q0-0.99375-0.3875-1.4875t-1.1625-0.49375q-0.93125 0-1.4688 0.59375t-0.5375 1.6188v3.9562h-1.1562v-7h1.1562v1.0875q0.4125-0.63125 0.96875-0.94375 0.5625-0.3125 1.2938-0.3125 1.2062 0 1.825 0.75 0.61875 0.74375 0.61875 2.1938z" style=""/>
   <path id="path327" d="m321.77 488.27q-0.8375 1.4375-1.2438 2.8438t-0.40625 2.85 0.40625 2.8625q0.4125 1.4125 1.2438 2.8438h-1q-0.9375-1.4688-1.4062-2.8875-0.4625-1.4188-0.4625-2.8188 0-1.3938 0.4625-2.8062t1.4062-2.8875z" style=""/>
   <path id="path329" d="m323.82 488.27h1q0.9375 1.475 1.4 2.8875 0.46875 1.4125 0.46875 2.8062 0 1.4-0.46875 2.8188-0.4625 1.4188-1.4 2.8875h-1q0.83125-1.4312 1.2375-2.8438 0.4125-1.4188 0.4125-2.8625t-0.4125-2.85q-0.40625-1.4062-1.2375-2.8438z" style=""/>
   <path id="path331" d="m271.57 515.17v0.9h-0.3875q-1.5562 0-2.0875-0.4625-0.525-0.4625-0.525-1.8438v-1.4938q0-0.94375-0.3375-1.3062t-1.225-0.3625h-0.38125v-0.89375h0.38125q0.89375 0 1.225-0.35625 0.3375-0.3625 0.3375-1.2938v-1.5q0-1.3812 0.525-1.8375 0.53125-0.4625 2.0875-0.4625h0.3875v0.89375h-0.425q-0.88125 0-1.15 0.275t-0.26875 1.1562v1.55q0 0.98125-0.2875 1.425-0.28125 0.44375-0.96875 0.6 0.69375 0.16875 0.975 0.6125t0.28125 1.4188v1.55q0 0.88125 0.26875 1.1562t1.15 0.275z" style=""/>
   <path id="path333" d="m278.62 528.4h1.3188v1.5875h-1.3188z" style=""/>
   <path id="path335" d="m282.69 528.4h1.3188v1.5875h-1.3188z" style=""/>
   <path id="path337" d="m286.77 528.4h1.3188v1.5875h-1.3188z" style=""/>
  </g>
 </g>
</svg>
