<?xml version="1.0" encoding="UTF-8" standalone="no"?>
<!-- Created with Inkscape (http://www.inkscape.org/) -->
<svg id="svg2" xmlns:rdf="http://www.w3.org/1999/02/22-rdf-syntax-ns#" xmlns="http://www.w3.org/2000/svg" height="548.17" width="884.59" version="1.1" xmlns:cc="http://creativecommons.org/ns#" xmlns:dc="http://purl.org/dc/elements/1.1/" viewBox="435 197 495.30915 297.80668">
 <metadata id="metadata54">
  <rdf:RDF>
   <cc:Work rdf:about="">
    <dc:format>image/svg+xml</dc:format>
    <dc:type rdf:resource="http://purl.org/dc/dcmitype/StillImage"/>
   </cc:Work>
  </rdf:RDF>
 </metadata>
 <path id="path4" d="m479.91 194.44c-164 312 190 310 260 300" stroke="#000" stroke-width="4" fill="none"/>
 <path id="path6" d="m479.91 194.44c415 2 302 30 440 80" stroke="#000" stroke-width="4" fill="none"/>
 <path id="path8" d="m919.91 274.44c40 123-70 136-180 220" stroke="#000" stroke-width="4" fill="none"/>
 <path id="path10" d="m439.91 304.44c93 1 69-49 145-30" stroke="#000" stroke-width="4" fill="none"/>
 <path id="path12" d="m583.91 273.86c-80 202.5 8 81.576 96 130.58" stroke="#000" stroke-width="4" fill="none"/>
 <path id="path14" d="m679.91 404.44c64 22-15.5 97 60 90" stroke="#000" stroke-width="4" fill="none"/>
 <path id="path16" d="m679.91 404.44c121 29.376 26.5-68 70-60" stroke="#000" stroke-width="4" fill="none"/>
 <path id="path18" d="m749.91 344.44c136-72 40 70.5 172 10" stroke="#000" stroke-width="4" fill="none"/>
 <path id="path20" d="m583.91 274.44c120 34 33-42.076 137.5 7.424" stroke="#000" stroke-width="4" fill="none"/>
 <path id="path22" d="m728.91 202.86c-50.5 45.5-8.5 35.376-8.5 79" stroke="#000" stroke-width="4" fill="none"/>
 <path id="path24" d="m721.41 281.74c57-36 14 48.7 28.5 62.7" stroke="#000" stroke-width="4" fill="none"/>
 <path id="polyline26" d="m646.5 299.8-6.5-25.5 20.5 15.5" transform="translate(-.087588 -5.5638)" stroke="#000" stroke-width="4" fill="none"/>
 <path id="polyline28" d="m716 460-24.5-8.72 24.5-7.28" transform="translate(-.087588 -5.5638)" stroke="#000" stroke-width="4" fill="none"/>
 <g id="text30">
  <path id="path3008" style="" d="m665.76 299.89-4.833 13.106h9.6837l-4.8507-13.106m-2.0108-3.5101h4.0393l10.037 26.335h-3.7042l-2.3989-6.7557h-11.871l-2.3989 6.7557h-3.7571l10.054-26.335"/>
 </g>
 <g id="text34">
  <path id="path3011" style="" d="m604.52 238.14v9.6485h5.715c1.9167 0.00001 3.3337-0.39393 4.251-1.1818 0.92896-0.79962 1.3934-2.0167 1.3935-3.6512-0.00002-1.6463-0.46451-2.8575-1.3935-3.6336-0.91724-0.78786-2.3342-1.1818-4.251-1.1818h-5.715m0-10.83v7.9375h5.274c1.7404 0.00001 3.0339-0.32336 3.8806-0.97014 0.85841-0.6585 1.2876-1.658 1.2876-2.9986-0.00002-1.3288-0.42923-2.3224-1.2876-2.981-0.84668-0.6585-2.1402-0.98776-3.8806-0.98778h-5.274m-3.563-2.928h9.1016c2.7164 0.00002 4.8095 0.56447 6.2794 1.6933 1.4699 1.1289 2.2048 2.734 2.2049 4.8154-0.00002 1.611-0.37632 2.8928-1.1289 3.8453-0.75261 0.95252-1.858 1.5464-3.3161 1.7815 1.7521 0.37631 3.1103 1.1642 4.0746 2.3636 0.976 1.1877 1.464 2.6752 1.464 4.4626-0.00002 2.3518-0.79965 4.1686-2.3989 5.4504-1.5993 1.2818-3.8747 1.9226-6.8262 1.9226h-9.4544v-26.335"/>
 </g>
 <g id="text38">
  <path id="path3014" style="" d="m796.68 237.91v3.7571c-1.1995-1.1171-2.4812-1.952-3.8453-2.5047-1.3523-0.55266-2.7928-0.829-4.3215-0.82903-3.0104 0.00003-5.3152 0.92313-6.9144 2.7693-1.5993 1.8345-2.3989 4.492-2.3989 7.9728 0 3.469 0.79963 6.1266 2.3989 7.9728 1.5992 1.8344 3.9041 2.7517 6.9144 2.7517 1.5287 0 2.9692-0.27634 4.3215-0.82903 1.364-0.55268 2.6458-1.3876 3.8453-2.5047v3.7218c-1.2465 0.84667-2.5694 1.4817-3.9687 1.905-1.3876 0.42333-2.8575 0.635-4.4097 0.635-3.9864 0-7.1261-1.2171-9.4192-3.6512-2.293-2.4459-3.4396-5.7797-3.4396-10.001 0-4.2333 1.1465-7.567 3.4396-10.001 2.293-2.4459 5.4328-3.6689 9.4192-3.6689 1.5757 0.00003 3.0574 0.2117 4.445 0.635 1.3993 0.4116 2.7105 1.0348 3.9335 1.8697"/>
 </g>
 <g id="text42">
  <path id="path3017" style="" d="m600.02 418.81v20.479h4.3039c3.6336 0 6.2912-0.82314 7.9728-2.4694 1.6933-1.6463 2.54-4.2451 2.54-7.7964-0.00002-3.5278-0.84669-6.1089-2.54-7.7435-1.6816-1.6463-4.3392-2.4694-7.9728-2.4694h-4.3039m-3.563-2.928h7.3201c5.1035 0.00003 8.8488 1.0642 11.236 3.1926 2.3871 2.1167 3.5807 5.4328 3.5807 9.9483-0.00003 4.5391-1.1995 7.8728-3.5983 10.001-2.3989 2.1284-6.1383 3.1926-11.218 3.1926h-7.3201v-26.335"/>
 </g>
 <g id="text46">
  <path id="path3020" style="" d="m776.46 413.88h16.651v2.9986h-13.088v7.7964h12.541v2.9986h-12.541v9.5426h13.406v2.9986h-16.969v-26.335"/>
 </g>
</svg>
