<?xml version="1.0" encoding="UTF-8" standalone="no"?>
<!-- Created with Inkscape (http://www.inkscape.org/) -->
<svg id="svg2" xmlns:rdf="http://www.w3.org/1999/02/22-rdf-syntax-ns#" xmlns="http://www.w3.org/2000/svg" height="171" width="168.93" version="1.1" xmlns:cc="http://creativecommons.org/ns#" xmlns:dc="http://purl.org/dc/elements/1.1/" viewBox="399 75 79.139535 83.007649">
 <metadata id="metadata32">
  <rdf:RDF>
   <cc:Work rdf:about="">
    <dc:format>image/svg+xml</dc:format>
    <dc:type rdf:resource="http://purl.org/dc/dcmitype/StillImage"/>
   </cc:Work>
  </rdf:RDF>
 </metadata>
 <g id="text4">
  <path id="path2995" style="" d="m407.03 75.864v1.5202c-0.59165-0.28295-1.1498-0.49388-1.6746-0.63279-0.52476-0.1389-1.0315-0.20835-1.5202-0.20836-0.84887 0.000011-1.5048 0.16464-1.9678 0.49389-0.45788 0.32927-0.68682 0.79743-0.68681 1.4045-0.00001 0.50933 0.15176 0.89518 0.4553 1.1575 0.30868 0.25724 0.89002 0.4656 1.744 0.62508l0.94147 0.19292c1.1627 0.22123 2.0193 0.61222 2.5698 1.173 0.55562 0.55563 0.83343 1.3016 0.83344 2.2379-0.00001 1.1164-0.37557 1.9627-1.1267 2.5389-0.74599 0.5762-1.8418 0.8643-3.2874 0.8643-0.54534 0-1.1267-0.06174-1.744-0.18521-0.61222-0.12347-1.2476-0.30611-1.9061-0.54791v-1.6051c0.63279 0.35498 1.2527 0.62251 1.8598 0.80257 0.60707 0.18006 1.2038 0.2701 1.7904 0.2701 0.89002 0.000001 1.5768-0.17492 2.0604-0.52476 0.48359-0.34984 0.72539-0.84887 0.7254-1.4971-0.00001-0.56591-0.17493-1.0084-0.52475-1.3273-0.3447-0.31896-0.91319-0.55819-1.7055-0.71768l-0.94919-0.18521c-1.1627-0.2315-2.0038-0.5942-2.5235-1.0881-0.51961-0.49388-0.77941-1.1807-0.77941-2.0604 0-1.0186 0.35755-1.8212 1.0727-2.4077 0.72025-0.58648 1.7106-0.87973 2.971-0.87974 0.54019 0.000011 1.0907 0.04889 1.6514 0.14662 0.56076 0.09776 1.1344 0.24438 1.7209 0.43987"/>
  <path id="path2997" style="" d="m417.28 81.791v5.2167h-1.4199v-5.1704c-0.00001-0.818-0.1595-1.4302-0.47846-1.8366-0.31897-0.40642-0.79743-0.60964-1.4354-0.60964-0.76656 0.000007-1.371 0.24438-1.8135 0.73311-0.44245 0.48875-0.66367 1.155-0.66366 1.9987v4.8849h-1.4276v-12.008h1.4276v4.7074c0.33954-0.5196 0.73825-0.90802 1.1961-1.1653 0.46302-0.25722 0.99549-0.38584 1.5974-0.38585 0.99291 0.000009 1.744 0.30869 2.2534 0.92604 0.50931 0.61222 0.76397 1.5151 0.76398 2.7087"/>
  <path id="path2999" style="" d="m424.05 82.663c-1.1473 0.000005-1.9421 0.13119-2.3846 0.39357-0.44244 0.26238-0.66366 0.70997-0.66366 1.3428 0 0.50418 0.16463 0.90546 0.49389 1.2038 0.3344 0.29325 0.78713 0.43987 1.3582 0.43987 0.78713 0.000001 1.4174-0.27781 1.8907-0.83344 0.47845-0.56077 0.71768-1.3042 0.71768-2.2302v-0.3164h-1.4122m2.8321-0.58649v4.9312h-1.4199v-1.3119c-0.32412 0.52476-0.72797 0.91318-1.2116 1.1653-0.4836 0.24694-1.0752 0.37042-1.7749 0.37042-0.88489 0-1.5897-0.24694-2.1145-0.74083-0.51961-0.49903-0.77942-1.1653-0.77942-1.9987 0-0.97234 0.32412-1.7055 0.97234-2.1993 0.65337-0.49388 1.6257-0.74083 2.917-0.74083h1.991v-0.1389c0-0.65337-0.21608-1.1575-0.64823-1.5125-0.42701-0.36012-1.0289-0.54018-1.8058-0.54019-0.49389 0.000007-0.97492 0.05917-1.4431 0.17749-0.46817 0.11834-0.91832 0.29583-1.3505 0.53247v-1.3119c0.51961-0.20063 1.0238-0.34983 1.5125-0.44758 0.48874-0.10288 0.96462-0.15433 1.4276-0.15434 1.2502 0.000009 2.1839 0.32412 2.8013 0.97234 0.61735 0.64823 0.92603 1.6309 0.92604 2.9479"/>
  <path id="path3001" style="" d="m431.19 85.711v4.5839h-1.4276v-11.93h1.4276v1.3119c0.29839-0.51446 0.67395-0.89516 1.1267-1.1421 0.45787-0.25208 1.0032-0.37812 1.636-0.37813 1.0495 0.000009 1.901 0.41673 2.5543 1.2502 0.6585 0.83344 0.98776 1.9293 0.98777 3.2874-0.00001 1.3582-0.32927 2.454-0.98777 3.2874-0.65338 0.83344-1.5048 1.2502-2.5543 1.2502-0.6328 0-1.1781-0.12347-1.636-0.37042-0.45273-0.25209-0.82829-0.63536-1.1267-1.1498m4.8308-3.0173c-0.00001-1.0444-0.21609-1.8624-0.64823-2.454-0.42701-0.59677-1.0161-0.89516-1.7672-0.89517-0.75113 0.000007-1.3428 0.2984-1.7749 0.89517-0.42701 0.59164-0.64051 1.4096-0.64051 2.454s0.2135 1.8649 0.64051 2.4617c0.43215 0.59164 1.0238 0.88746 1.7749 0.88745 0.75111 0.000001 1.3402-0.29582 1.7672-0.88745 0.43214-0.59678 0.64822-1.4174 0.64823-2.4617"/>
  <path id="path3003" style="" d="m447.24 82.331v0.69453h-6.5286c0.0617 0.97749 0.35498 1.7235 0.87973 2.2379 0.5299 0.50932 1.2656 0.76398 2.2071 0.76398 0.54533 0.000001 1.0727-0.06688 1.582-0.20064 0.51446-0.13376 1.0238-0.3344 1.528-0.60192v1.3428c-0.50933 0.21608-1.0315 0.3807-1.5666 0.49389-0.53505 0.11318-1.0778 0.16977-1.6283 0.16977-1.3788 0-2.472-0.40128-3.2797-1.2039-0.80256-0.80256-1.2038-1.8881-1.2038-3.2566 0-1.4148 0.38071-2.5363 1.1421-3.3646 0.76655-0.83343 1.798-1.2501 3.0945-1.2502 1.1627 0.000009 2.081 0.37557 2.755 1.1267 0.67909 0.74598 1.0186 1.7621 1.0186 3.0482m-1.4199-0.41672c-0.0103-0.77684-0.22895-1.3968-0.65595-1.8598-0.42187-0.46301-0.98263-0.69452-1.6823-0.69453-0.79229 0.000007-1.4276 0.2238-1.9061 0.67138-0.47331 0.44759-0.74598 1.0778-0.818 1.8907l5.0624-0.0077"/>
 </g>
 <g id="g8" transform="translate(-1.4302 -2.9924)">
  <path id="rect10" fill="#fff" d="m400 100h80v30h-80z"/>
  <path id="rect12" d="m400 100h80v30h-80z" stroke="#000" stroke-width="2" fill="none"/>
 </g>
 <g id="g14" transform="translate(-1.4302 -2.9924)">
  <path id="rect16" fill="#fff" d="m400 130h80v30h-80z"/>
  <path id="rect18" d="m400 130h80v30h-80z" stroke="#000" stroke-width="2" fill="none"/>
 </g>
 <g id="text20">
  <path id="path3010" style="" d="m442.57 108.84-3.1254 4.2058 3.2874 4.4373h-1.6746l-2.5157-3.3955-2.5157 3.3955h-1.6746l3.3569-4.5222-3.0714-4.1209h1.6746l2.292 3.0791 2.292-3.0791h1.6746"/>
 </g>
 <g id="text24">
  <path id="path3013" style="" d="m438.98 148.29c-0.40128 1.0289-0.79228 1.7003-1.173 2.0141-0.38071 0.31382-0.89003 0.47074-1.528 0.47074h-1.1344v-1.1884h0.83343c0.391 0 0.69453-0.0926 0.91061-0.27781 0.21607-0.18521 0.4553-0.6225 0.71768-1.3119l0.25466-0.64823-3.4958-8.5041h1.5048l2.7009 6.7601 2.701-6.7601h1.5048l-3.7968 9.4456"/>
 </g>
</svg>
