<?xml version="1.0" encoding="UTF-8" standalone="no"?>
<!-- Created with Inkscape (http://www.inkscape.org/) -->

<svg
   xmlns:dc="http://purl.org/dc/elements/1.1/"
   xmlns:cc="http://creativecommons.org/ns#"
   xmlns:rdf="http://www.w3.org/1999/02/22-rdf-syntax-ns#"
   xmlns:svg="http://www.w3.org/2000/svg"
   xmlns="http://www.w3.org/2000/svg"
   xmlns:sodipodi="http://sodipodi.sourceforge.net/DTD/sodipodi-0.dtd"
   xmlns:inkscape="http://www.inkscape.org/namespaces/inkscape"
   version="1.1"
   width="740.41083"
   height="253.21333"
   viewBox="299 149 401.99999 126.84581"
   id="svg2"
   inkscape:version="0.48.4 r9939"
   sodipodi:docname="float_rajz.svg">
  <sodipodi:namedview
     pagecolor="#ffffff"
     bordercolor="#666666"
     borderopacity="1"
     objecttolerance="10"
     gridtolerance="10"
     guidetolerance="10"
     inkscape:pageopacity="0"
     inkscape:pageshadow="2"
     inkscape:window-width="640"
     inkscape:window-height="480"
     id="namedview27"
     showgrid="false"
     inkscape:zoom="0.57653969"
     inkscape:cx="372.04724"
     inkscape:cy="127.77029"
     inkscape:window-x="0"
     inkscape:window-y="25"
     inkscape:window-maximized="0"
     inkscape:current-layer="svg2" />
  <metadata
     id="metadata52">
    <rdf:RDF>
      <cc:Work
         rdf:about="">
        <dc:format>image/svg+xml</dc:format>
        <dc:type
           rdf:resource="http://purl.org/dc/dcmitype/StillImage" />
      </cc:Work>
    </rdf:RDF>
  </metadata>
  <defs
     id="defs50" />
  <g
     id="g4"
     transform="translate(0,-8.8441146)">
    <path
       style="fill:none;stroke:#000000;stroke-width:2"
       d="m 300,200 395.52802,0"
       id="line6" />
    <path
       style="fill:none;stroke:#000000;stroke-width:2"
       d="m 687.764,205 10,-5 -10,-5"
       id="polyline8" />
  </g>
  <path
     style="fill:none;stroke:#000000;stroke-width:2"
     d="m 500,171.1559 0,40"
     id="line10" />
  <path
     style="fill:none;stroke:#000000;stroke-width:2"
     d="m 420,171.1559 0,40"
     id="line12" />
  <path
     style="fill:none;stroke:#000000;stroke-width:2"
     d="m 580,171.1559 0,40"
     id="line14" />
  <g
     style="font-size:18.06220055px;font-style:normal;font-weight:normal;text-anchor:middle;fill:#000000;font-family:sans-serif"
     id="text16">
    <path
       d="m 503.52777,143.68286 0,1.34937 -1.55222,0 c -0.58208,2e-5 -0.98778,0.11761 -1.21708,0.35278 -0.22343,0.2352 -0.33514,0.65853 -0.33514,1.27 l 0,0.87312 2.67229,0 0,1.26118 -2.67229,0 0,8.61659 -1.63159,0 0,-8.61659 -1.55222,0 0,-1.26118 1.55222,0 0,-0.68791 c 0,-1.09948 0.25576,-1.89911 0.76729,-2.39889 0.51152,-0.50563 1.32291,-0.75846 2.43416,-0.75847 l 1.53458,0"
       style=""
       id="path3010" />
  </g>
  <g
     style="font-size:18.06220055px;font-style:normal;font-weight:normal;text-anchor:middle;fill:#000000;font-family:sans-serif"
     id="text20">
    <path
       d="m 415.8725,143.68286 0,1.34937 -1.55222,0 c -0.58208,2e-5 -0.98778,0.11761 -1.21708,0.35278 -0.22343,0.2352 -0.33514,0.65853 -0.33514,1.27 l 0,0.87312 2.67229,0 0,1.26118 -2.67229,0 0,8.61659 -1.63159,0 0,-8.61659 -1.55222,0 0,-1.26118 1.55222,0 0,-0.68791 c 0,-1.09948 0.25576,-1.89911 0.76729,-2.39889 0.51152,-0.50563 1.32291,-0.75846 2.43416,-0.75847 l 1.53458,0"
       style=""
       id="path3013" />
    <path
       d="m 415.41389,151.735 4.75368,0 0,1.44639 -4.75368,0 0,-1.44639"
       style=""
       id="path3015" />
    <path
       d="m 424.54201,152.07896 c -0.65852,-0.1411 -1.16417,-0.40275 -1.51694,-0.78493 -0.35278,-0.37629 -0.52917,-0.83784 -0.52917,-1.38465 0,-0.82902 0.33514,-1.47578 1.00542,-1.94028 0.66439,-0.4586 1.57279,-0.6879 2.7252,-0.68791 0.44685,1e-5 0.92016,0.0353 1.41993,0.10583 0.49976,0.0706 1.03775,0.1764 1.61396,0.3175 l 0,1.47285 c -0.57033,-0.1705 -1.09068,-0.29398 -1.56104,-0.37042 -0.47626,-0.0764 -0.92311,-0.11464 -1.34056,-0.11465 -0.69968,1e-5 -1.25236,0.13524 -1.65805,0.40569 -0.41158,0.27047 -0.61736,0.59385 -0.61736,0.97014 0,0.41158 0.1999,0.74966 0.59972,1.01423 0.39393,0.25871 0.93192,0.38807 1.61396,0.38806 l 1.36701,0 0,1.34055 -1.30528,0 c -0.80551,1e-5 -1.41993,0.14994 -1.84326,0.4498 -0.45861,0.32926 -0.68792,0.75259 -0.68792,1.26999 0,0.52917 0.24695,0.95838 0.74084,1.28764 0.49976,0.32926 1.19356,0.49389 2.08138,0.49389 0.5468,0 1.07009,-0.0529 1.56986,-0.15875 0.49976,-0.11171 0.95837,-0.27634 1.37583,-0.49389 l 0,1.50812 c -0.52917,0.16463 -1.0407,0.28811 -1.53458,0.37042 -0.49977,0.0823 -0.98484,0.12347 -1.4552,0.12347 -1.39936,0 -2.47827,-0.26752 -3.23674,-0.80257 -0.75847,-0.53504 -1.1377,-1.31115 -1.1377,-2.32833 0,-0.63499 0.20284,-1.1671 0.60854,-1.59631 0.40569,-0.42921 0.97307,-0.71437 1.70215,-0.85549"
       style=""
       id="path3017" />
  </g>
  <g
     style="font-size:18.06220055px;font-style:normal;font-weight:normal;text-anchor:middle;fill:#000000;font-family:sans-serif"
     id="text24">
    <path
       d="m 571.07473,143.68286 0,1.34937 -1.55222,0 c -0.58208,2e-5 -0.98778,0.11761 -1.21708,0.35278 -0.22343,0.2352 -0.33514,0.65853 -0.33514,1.27 l 0,0.87312 2.67229,0 0,1.26118 -2.67229,0 0,8.61659 -1.63159,0 0,-8.61659 -1.55222,0 0,-1.26118 1.55222,0 0,-0.68791 c -10e-6,-1.09948 0.25576,-1.89911 0.76729,-2.39889 0.51152,-0.50563 1.32291,-0.75846 2.43416,-0.75847 l 1.53458,0"
       style=""
       id="path3020" />
    <path
       d="m 579.02986,146.08175 0,4.91242 4.91243,0 0,1.4993 -4.91243,0 0,4.91243 -1.48166,0 0,-4.91243 -4.91243,0 0,-1.4993 4.91243,0 0,-4.91242 1.48166,0"
       style=""
       id="path3022" />
    <path
       d="m 589.33978,152.07896 c -0.65852,-0.1411 -1.16417,-0.40275 -1.51694,-0.78493 -0.35278,-0.37629 -0.52917,-0.83784 -0.52917,-1.38465 0,-0.82902 0.33514,-1.47578 1.00542,-1.94028 0.66439,-0.4586 1.57279,-0.6879 2.7252,-0.68791 0.44685,1e-5 0.92016,0.0353 1.41993,0.10583 0.49976,0.0706 1.03775,0.1764 1.61396,0.3175 l 0,1.47285 c -0.57033,-0.1705 -1.09068,-0.29398 -1.56104,-0.37042 -0.47626,-0.0764 -0.92311,-0.11464 -1.34056,-0.11465 -0.69968,1e-5 -1.25236,0.13524 -1.65805,0.40569 -0.41158,0.27047 -0.61736,0.59385 -0.61736,0.97014 0,0.41158 0.1999,0.74966 0.59972,1.01423 0.39393,0.25871 0.93192,0.38807 1.61396,0.38806 l 1.36701,0 0,1.34055 -1.30528,0 c -0.80551,1e-5 -1.41993,0.14994 -1.84326,0.4498 -0.45861,0.32926 -0.68792,0.75259 -0.68791,1.26999 -10e-6,0.52917 0.24694,0.95838 0.74083,1.28764 0.49976,0.32926 1.19356,0.49389 2.08138,0.49389 0.5468,0 1.07009,-0.0529 1.56986,-0.15875 0.49976,-0.11171 0.95837,-0.27634 1.37584,-0.49389 l 0,1.50812 c -0.52918,0.16463 -1.04071,0.28811 -1.53459,0.37042 -0.49977,0.0823 -0.98484,0.12347 -1.4552,0.12347 -1.39936,0 -2.47827,-0.26752 -3.23673,-0.80257 -0.75848,-0.53504 -1.13771,-1.31115 -1.13771,-2.32833 0,-0.63499 0.20284,-1.1671 0.60854,-1.59631 0.40569,-0.42921 0.97307,-0.71437 1.70215,-0.85549"
       style=""
       id="path3024" />
  </g>
  <path
     d="m 300,251.15588 c 39.84,0 116,0 116,-20"
     inkscape:connector-curvature="0"
     id="path28"
     style="fill:none;stroke:#000000;stroke-width:2" />
  <path
     d="m 700,251.15588 c -40,0 -116,0 -116,-20"
     inkscape:connector-curvature="0"
     id="path30"
     style="fill:none;stroke:#000000;stroke-width:2" />
  <path
     d="m 500,251.15588 c 0,-20 -76,0 -76,-20"
     inkscape:connector-curvature="0"
     id="path32"
     style="fill:none;stroke:#000000;stroke-width:2" />
  <path
     d="m 500,251.15588 c 0,-20 76,0 76,-20"
     inkscape:connector-curvature="0"
     id="path34"
     style="fill:none;stroke:#000000;stroke-width:2" />
  <g
     style="font-size:18.06220055px;font-style:normal;font-weight:normal;text-anchor:middle;fill:#000000;font-family:sans-serif"
     id="text36">
    <path
       d="m 474.20316,272.06131 0,0.79375 -7.46125,0 c 0.0706,1.11713 0.4057,1.96967 1.00542,2.55763 0.6056,0.58209 1.44638,0.87313 2.52236,0.87313 0.62323,0 1.22589,-0.0764 1.80798,-0.22931 0.58796,-0.15287 1.17004,-0.38217 1.74625,-0.68792 l 0,1.53459 c -0.58209,0.24694 -1.17887,0.43509 -1.79034,0.56444 -0.61149,0.12935 -1.23179,0.19403 -1.86091,0.19403 -1.57574,0 -2.82516,-0.45861 -3.74825,-1.37583 -0.91723,-0.91722 -1.37584,-2.15782 -1.37584,-3.72181 0,-1.61689 0.43509,-2.89864 1.30528,-3.84527 0.87606,-0.95249 2.05492,-1.42874 3.53659,-1.42875 1.32879,1e-5 2.3783,0.42923 3.14854,1.28764 0.7761,0.85255 1.16416,2.01378 1.16417,3.48368 m -1.62278,-0.47625 c -0.0118,-0.88782 -0.26165,-1.59631 -0.74965,-2.12549 -0.48214,-0.52915 -1.12302,-0.79374 -1.92264,-0.79375 -0.90547,1e-5 -1.6316,0.25578 -2.1784,0.7673 -0.54093,0.51153 -0.85255,1.23178 -0.93486,2.16076 l 5.78555,-0.009"
       style=""
       id="path3027" />
    <path
       d="m 483.36655,272.35235 c -1e-5,-1.17592 -0.24401,-2.08726 -0.73202,-2.73403 -0.48213,-0.64675 -1.16123,-0.97013 -2.03728,-0.97013 -0.87019,0 -1.54929,0.32338 -2.03729,0.97013 -0.48214,0.64677 -0.7232,1.55811 -0.7232,2.73403 0,1.17005 0.24106,2.07845 0.7232,2.7252 0.488,0.64676 1.1671,0.97014 2.03729,0.97014 0.87605,0 1.55515,-0.32338 2.03728,-0.97014 0.48801,-0.64675 0.73201,-1.55515 0.73202,-2.7252 m 1.62277,3.82763 c -1e-5,1.68157 -0.37336,2.93099 -1.12006,3.74826 -0.74672,0.82315 -1.89031,1.23472 -3.43076,1.23472 -0.57033,0 -1.10832,-0.0441 -1.61396,-0.13229 -0.50565,-0.0823 -0.9966,-0.21167 -1.47285,-0.38805 l 0,-1.57868 c 0.47625,0.2587 0.94662,0.44979 1.41111,0.57326 0.46449,0.12347 0.9378,0.18521 1.41993,0.18521 1.06421,0 1.8609,-0.27929 2.39007,-0.83785 0.52916,-0.55268 0.79374,-1.39053 0.79375,-2.51354 l 0,-0.80256 c -0.33515,0.58208 -0.76436,1.01717 -1.28764,1.30527 -0.52329,0.2881 -1.14947,0.43215 -1.87854,0.43215 -1.2112,0 -2.18722,-0.46155 -2.92805,-1.38465 -0.74083,-0.9231 -1.11125,-2.14606 -1.11125,-3.66888 0,-1.5287 0.37042,-2.7546 1.11125,-3.67771 0.74083,-0.92309 1.71685,-1.38464 2.92805,-1.38465 0.72907,1e-5 1.35525,0.14406 1.87854,0.43216 0.52328,0.28811 0.95249,0.7232 1.28764,1.30527 l 0,-1.4993 1.62277,0 0,8.65186"
       style=""
       id="path3029" />
    <path
       d="m 492.44175,278.3231 c -0.45862,1.17593 -0.90547,1.94322 -1.34056,2.30188 -0.43509,0.35865 -1.01718,0.53798 -1.74625,0.53798 l -1.29645,0 0,-1.35819 0.9525,0 c 0.44684,0 0.79374,-0.10584 1.04069,-0.3175 0.24694,-0.21167 0.52034,-0.71144 0.82021,-1.4993 l 0.29104,-0.74084 -3.99521,-9.71901 1.71979,0 3.08681,7.72582 3.0868,-7.72582 1.71979,0 -4.33916,10.79498"
       style=""
       id="path3031" />
    <path
       d="m 507.47006,272.06131 0,0.79375 -7.46124,0 c 0.0705,1.11713 0.40569,1.96967 1.00542,2.55763 0.60559,0.58209 1.44638,0.87313 2.52236,0.87313 0.62323,0 1.22589,-0.0764 1.80798,-0.22931 0.58795,-0.15287 1.17003,-0.38217 1.74625,-0.68792 l 0,1.53459 c -0.58209,0.24694 -1.17888,0.43509 -1.79035,0.56444 -0.61149,0.12935 -1.23179,0.19403 -1.8609,0.19403 -1.57574,0 -2.82516,-0.45861 -3.74826,-1.37583 -0.91722,-0.91722 -1.37583,-2.15782 -1.37583,-3.72181 0,-1.61689 0.43509,-2.89864 1.30528,-3.84527 0.87606,-0.95249 2.05492,-1.42874 3.53659,-1.42875 1.32879,1e-5 2.3783,0.42923 3.14854,1.28764 0.7761,0.85255 1.16415,2.01378 1.16416,3.48368 m -1.62277,-0.47625 c -0.0118,-0.88782 -0.26165,-1.59631 -0.74966,-2.12549 -0.48213,-0.52915 -1.12301,-0.79374 -1.92263,-0.79375 -0.90547,1e-5 -1.6316,0.25578 -2.1784,0.7673 -0.54093,0.51153 -0.85255,1.23178 -0.93486,2.16076 l 5.78555,-0.009"
       style=""
       id="path3033" />
    <path
       d="m 518.34442,271.44395 0,5.96193 -1.62277,0 0,-5.90902 c -10e-6,-0.93485 -0.18228,-1.63452 -0.54681,-2.09902 -0.36454,-0.46448 -0.91135,-0.69673 -1.64041,-0.69674 -0.87607,1e-5 -1.56693,0.27929 -2.07257,0.83785 -0.50565,0.55857 -0.75848,1.31998 -0.75847,2.28423 l 0,5.5827 -1.6316,0 0,-9.87776 1.6316,0 0,1.53458 c 0.38805,-0.59383 0.84372,-1.03774 1.36701,-1.33174 0.52916,-0.29397 1.1377,-0.44096 1.82562,-0.44097 1.13476,1e-5 1.99319,0.35279 2.57528,1.05834 0.58207,0.69968 0.87311,1.73155 0.87312,3.09562"
       style=""
       id="path3035" />
    <path
       d="m 521.5988,263.68284 1.62277,0 0,13.72304 -1.62277,0 0,-13.72304"
       style=""
       id="path3037" />
    <path
       d="m 533.05524,262.95965 1.56986,0 -2.18722,3.31611 -1.19062,0 1.80798,-3.31611 m -2.94569,0 1.4993,0 -1.96673,3.31611 -1.20826,0 1.67569,-3.31611 m 0.32632,5.70617 c -0.87019,1e-5 -1.55811,0.34103 -2.06375,1.02306 -0.50565,0.67616 -0.75847,1.60514 -0.75847,2.78694 0,1.18181 0.24988,2.11373 0.74965,2.79576 0.50564,0.67616 1.1965,1.01424 2.07257,1.01424 0.8643,0 1.54927,-0.34102 2.05493,-1.02306 0.50564,-0.68203 0.75846,-1.61101 0.75847,-2.78694 -10e-6,-1.17004 -0.25283,-2.09608 -0.75847,-2.77812 -0.50566,-0.68791 -1.19063,-1.03187 -2.05493,-1.03188 m 0,-1.37583 c 1.4111,1e-5 2.51941,0.45862 3.32492,1.37583 0.8055,0.91723 1.20826,2.18723 1.20827,3.81 -10e-6,1.6169 -0.40277,2.8869 -1.20827,3.81 -0.80551,0.91722 -1.91382,1.37583 -3.32492,1.37583 -1.417,0 -2.52824,-0.45861 -3.33375,-1.37583 -0.79963,-0.9231 -1.19944,-2.1931 -1.19944,-3.81 0,-1.62277 0.39981,-2.89277 1.19944,-3.81 0.80551,-0.91721 1.91675,-1.37582 3.33375,-1.37583"
       style=""
       id="path3039" />
  </g>
  <g
     style="font-size:18.06220055px;font-style:normal;font-weight:normal;text-anchor:start;fill:#000000;font-family:sans-serif"
     id="text40">
    <path
       d="m 301.64041,263.68284 1.6316,0 0,8.10506 4.84187,-4.25978 2.07257,0 -5.23875,4.62138 5.45923,5.25638 -2.11666,0 -5.01826,-4.82423 0,4.82423 -1.6316,0 0,-13.72304"
       style=""
       id="path3042" />
    <path
       d="m 312.17964,267.52812 1.62277,0 0,9.87776 -1.62277,0 0,-9.87776 m 0,-3.84528 1.62277,0 0,2.05493 -1.62277,0 0,-2.05493"
       style=""
       id="path3044" />
    <path
       d="m 323.48615,267.81916 0,1.53458 c -0.45862,-0.23518 -0.93486,-0.41156 -1.42875,-0.52917 -0.49389,-0.11758 -1.00542,-0.17638 -1.53458,-0.17638 -0.80551,0 -1.41111,0.12348 -1.8168,0.37041 -0.39982,0.24695 -0.59972,0.61737 -0.59972,1.11125 0,0.3763 0.14405,0.67322 0.43215,0.89076 0.2881,0.21168 0.86724,0.41452 1.73743,0.60854 l 0.55562,0.12348 c 1.1524,0.24695 1.96967,0.59678 2.45181,1.04951 0.488,0.44685 0.732,1.07303 0.73201,1.87854 -10e-6,0.91722 -0.36455,1.64335 -1.09361,2.1784 -0.7232,0.53504 -1.7198,0.80257 -2.98979,0.80257 -0.52917,0 -1.08185,-0.0529 -1.65805,-0.15875 -0.57033,-0.1 -1.17299,-0.25283 -1.80799,-0.45861 l 0,-1.6757 c 0.59972,0.31163 1.19062,0.54681 1.77271,0.70556 0.58208,0.15287 1.15828,0.22931 1.72861,0.2293 0.76434,10e-6 1.35231,-0.12935 1.76389,-0.38805 0.41156,-0.26458 0.61735,-0.635 0.61736,-1.11125 -1e-5,-0.44097 -0.14994,-0.77905 -0.4498,-1.01423 -0.29398,-0.23519 -0.94368,-0.46155 -1.94909,-0.6791 l -0.56444,-0.13229 c -1.00542,-0.21166 -1.73156,-0.53504 -2.1784,-0.97014 -0.44686,-0.44097 -0.67028,-1.04363 -0.67028,-1.80798 0,-0.92898 0.32926,-1.64629 0.98778,-2.15195 0.65851,-0.50563 1.59337,-0.75846 2.80458,-0.75847 0.59971,1e-5 1.16415,0.0441 1.69333,0.13229 0.52916,0.0882 1.01716,0.2205 1.46402,0.39688"
       style=""
       id="path3046" />
    <path
       d="m 335.05725,272.06131 0,0.79375 -7.46124,0 c 0.0706,1.11713 0.40569,1.96967 1.00541,2.55763 0.6056,0.58209 1.44639,0.87313 2.52236,0.87313 0.62324,0 1.2259,-0.0764 1.80799,-0.22931 0.58795,-0.15287 1.17003,-0.38217 1.74624,-0.68792 l 0,1.53459 c -0.58209,0.24694 -1.17887,0.43509 -1.79034,0.56444 -0.61149,0.12935 -1.23179,0.19403 -1.8609,0.19403 -1.57574,0 -2.82516,-0.45861 -3.74826,-1.37583 -0.91722,-0.91722 -1.37583,-2.15782 -1.37583,-3.72181 0,-1.61689 0.43509,-2.89864 1.30527,-3.84527 0.87606,-0.95249 2.05493,-1.42874 3.5366,-1.42875 1.32878,1e-5 2.3783,0.42923 3.14854,1.28764 0.7761,0.85255 1.16415,2.01378 1.16416,3.48368 m -1.62278,-0.47625 c -0.0118,-0.88782 -0.26165,-1.59631 -0.74965,-2.12549 -0.48213,-0.52915 -1.12301,-0.79374 -1.92263,-0.79375 -0.90547,1e-5 -1.6316,0.25578 -2.1784,0.7673 -0.54093,0.51153 -0.85255,1.23178 -0.93486,2.16076 l 5.78554,-0.009"
       style=""
       id="path3048" />
    <path
       d="m 344.81155,272.47582 c -1e-5,-1.19356 -0.24696,-2.12842 -0.74084,-2.80458 -0.48801,-0.68203 -1.16123,-1.02305 -2.01965,-1.02305 -0.85843,0 -1.53458,0.34102 -2.02847,1.02305 -0.48801,0.67616 -0.73201,1.61102 -0.73201,2.80458 0,1.19357 0.244,2.13137 0.73201,2.8134 0.49389,0.67616 1.17004,1.01424 2.02847,1.01423 0.85842,10e-6 1.53164,-0.33807 2.01965,-1.01423 0.49388,-0.68203 0.74083,-1.61983 0.74084,-2.8134 m -5.52097,-3.4484 c 0.34101,-0.58795 0.77023,-1.02304 1.28764,-1.30527 0.52328,-0.2881 1.14652,-0.43215 1.86972,-0.43216 1.19943,1e-5 2.17251,0.47626 2.91923,1.42875 0.75258,0.95251 1.12888,2.20487 1.12889,3.75708 -10e-6,1.55222 -0.37631,2.80458 -1.12889,3.75708 -0.74672,0.9525 -1.7198,1.42875 -2.91923,1.42875 -0.7232,0 -1.34644,-0.14111 -1.86972,-0.42334 -0.51741,-0.2881 -0.94663,-0.72613 -1.28764,-1.31409 l 0,1.48166 -1.6316,0 0,-13.72304 1.6316,0 0,5.34458"
       style=""
       id="path3050" />
    <path
       d="m 356.27681,272.47582 c -1e-5,-1.19356 -0.24695,-2.12842 -0.74083,-2.80458 -0.48802,-0.68203 -1.16124,-1.02305 -2.01965,-1.02305 -0.85843,0 -1.53459,0.34102 -2.02847,1.02305 -0.48802,0.67616 -0.73202,1.61102 -0.73202,2.80458 0,1.19357 0.244,2.13137 0.73202,2.8134 0.49388,0.67616 1.17004,1.01424 2.02847,1.01423 0.85841,10e-6 1.53163,-0.33807 2.01965,-1.01423 0.49388,-0.68203 0.74082,-1.61983 0.74083,-2.8134 m -5.52097,-3.4484 c 0.34102,-0.58795 0.77023,-1.02304 1.28764,-1.30527 0.52328,-0.2881 1.14652,-0.43215 1.86972,-0.43216 1.19944,1e-5 2.17251,0.47626 2.91923,1.42875 0.75258,0.95251 1.12888,2.20487 1.12889,3.75708 -10e-6,1.55222 -0.37631,2.80458 -1.12889,3.75708 -0.74672,0.9525 -1.71979,1.42875 -2.91923,1.42875 -0.7232,0 -1.34644,-0.14111 -1.86972,-0.42334 -0.51741,-0.2881 -0.94662,-0.72613 -1.28764,-1.31409 l 0,1.48166 -1.63159,0 0,-13.72304 1.63159,0 0,5.34458"
       style=""
       id="path3052" />
  </g>
  <g
     style="font-size:18.06220055px;font-style:normal;font-weight:normal;text-anchor:end;fill:#000000;font-family:sans-serif"
     id="text44">
    <path
       d="m 631.24369,271.44395 0,5.96193 -1.62277,0 0,-5.90902 c -10e-6,-0.93485 -0.18228,-1.63452 -0.54681,-2.09902 -0.36454,-0.46448 -0.91135,-0.69673 -1.64041,-0.69674 -0.87607,1e-5 -1.56693,0.27929 -2.07257,0.83785 -0.50565,0.55857 -0.75847,1.31998 -0.75847,2.28423 l 0,5.5827 -1.6316,0 0,-9.87776 1.6316,0 0,1.53458 c 0.38805,-0.59383 0.84372,-1.03774 1.36701,-1.33174 0.52916,-0.29397 1.1377,-0.44096 1.82562,-0.44097 1.13476,1e-5 1.99319,0.35279 2.57528,1.05834 0.58207,0.69968 0.87311,1.73155 0.87312,3.09562"
       style=""
       id="path3055" />
    <path
       d="m 638.98716,272.44054 c -1.31116,10e-6 -2.21956,0.14994 -2.72521,0.44979 -0.50565,0.29987 -0.75847,0.8114 -0.75847,1.53459 0,0.5762 0.18815,1.03481 0.56444,1.37583 0.38218,0.33514 0.89958,0.50271 1.55222,0.5027 0.89958,10e-6 1.61983,-0.31749 2.16077,-0.95249 0.54679,-0.64088 0.8202,-1.49049 0.8202,-2.54882 l 0,-0.3616 -1.61395,0 m 3.23673,-0.67027 0,5.63561 -1.62278,0 0,-1.4993 c -0.37042,0.59972 -0.83197,1.04363 -1.38465,1.33173 -0.55269,0.28223 -1.22884,0.42334 -2.02847,0.42334 -1.0113,0 -1.8168,-0.28222 -2.41652,-0.84667 -0.59385,-0.57032 -0.89077,-1.33173 -0.89077,-2.28423 0,-1.11125 0.37042,-1.94909 1.11125,-2.51354 0.74671,-0.56444 1.85796,-0.84666 3.33375,-0.84667 l 2.27541,0 0,-0.15875 c 0,-0.7467 -0.24695,-1.3229 -0.74083,-1.7286 -0.48801,-0.41157 -1.17593,-0.61736 -2.06375,-0.61737 -0.56444,1e-5 -1.11419,0.0676 -1.64923,0.20285 -0.53505,0.13524 -1.04952,0.33809 -1.5434,0.60854 l 0,-1.4993 c 0.59384,-0.2293 1.17004,-0.39981 1.72861,-0.51153 0.55856,-0.11758 1.10242,-0.17638 1.63159,-0.17639 1.42874,1e-5 2.49589,0.37043 3.20146,1.11125 0.70554,0.74084 1.05832,1.86385 1.05833,3.36903"
       style=""
       id="path3057" />
    <path
       d="m 652.0752,272.35235 c -10e-6,-1.17592 -0.24402,-2.08726 -0.73202,-2.73403 -0.48213,-0.64675 -1.16123,-0.97013 -2.03729,-0.97013 -0.87018,0 -1.54928,0.32338 -2.03729,0.97013 -0.48213,0.64677 -0.72319,1.55811 -0.72319,2.73403 0,1.17005 0.24106,2.07845 0.72319,2.7252 0.48801,0.64676 1.16711,0.97014 2.03729,0.97014 0.87606,0 1.55516,-0.32338 2.03729,-0.97014 0.488,-0.64675 0.73201,-1.55515 0.73202,-2.7252 m 1.62277,3.82763 c -1e-5,1.68157 -0.37336,2.93099 -1.12007,3.74826 -0.74672,0.82315 -1.8903,1.23472 -3.43076,1.23472 -0.57032,0 -1.10831,-0.0441 -1.61395,-0.13229 -0.50565,-0.0823 -0.9966,-0.21167 -1.47285,-0.38805 l 0,-1.57868 c 0.47625,0.2587 0.94662,0.44979 1.41111,0.57326 0.46449,0.12347 0.9378,0.18521 1.41993,0.18521 1.06421,0 1.86089,-0.27929 2.39007,-0.83785 0.52916,-0.55268 0.79374,-1.39053 0.79375,-2.51354 l 0,-0.80256 c -0.33515,0.58208 -0.76436,1.01717 -1.28764,1.30527 -0.52329,0.2881 -1.14947,0.43215 -1.87854,0.43215 -1.21121,0 -2.18722,-0.46155 -2.92805,-1.38465 -0.74084,-0.9231 -1.11125,-2.14606 -1.11125,-3.66888 0,-1.5287 0.37041,-2.7546 1.11125,-3.67771 0.74083,-0.92309 1.71684,-1.38464 2.92805,-1.38465 0.72907,1e-5 1.35525,0.14406 1.87854,0.43216 0.52328,0.28811 0.95249,0.7232 1.28764,1.30527 l 0,-1.4993 1.62277,0 0,8.65186"
       style=""
       id="path3059" />
    <path
       d="m 661.15039,278.3231 c -0.45861,1.17593 -0.90546,1.94322 -1.34055,2.30188 -0.4351,0.35865 -1.01718,0.53798 -1.74625,0.53798 l -1.29646,0 0,-1.35819 0.9525,0 c 0.44685,0 0.79375,-0.10584 1.0407,-0.3175 0.24694,-0.21167 0.52034,-0.71144 0.8202,-1.4993 l 0.29105,-0.74084 -3.99521,-9.71901 1.71979,0 3.0868,7.72582 3.0868,-7.72582 1.71979,0 -4.33916,10.79498"
       style=""
       id="path3061" />
    <path
       d="m 671.55733,268.66582 c -0.87019,1e-5 -1.55811,0.34103 -2.06375,1.02306 -0.50565,0.67616 -0.75847,1.60514 -0.75847,2.78694 0,1.18181 0.24988,2.11373 0.74965,2.79576 0.50564,0.67616 1.1965,1.01424 2.07257,1.01424 0.86429,0 1.54927,-0.34102 2.05492,-1.02306 0.50564,-0.68203 0.75847,-1.61101 0.75848,-2.78694 -10e-6,-1.17004 -0.25284,-2.09608 -0.75848,-2.77812 -0.50565,-0.68791 -1.19063,-1.03187 -2.05492,-1.03188 m 0,-1.37583 c 1.4111,1e-5 2.51941,0.45862 3.32492,1.37583 0.8055,0.91723 1.20826,2.18723 1.20827,3.81 -10e-6,1.6169 -0.40277,2.8869 -1.20827,3.81 -0.80551,0.91722 -1.91382,1.37583 -3.32492,1.37583 -1.417,0 -2.52824,-0.45861 -3.33375,-1.37583 -0.79963,-0.9231 -1.19944,-2.1931 -1.19944,-3.81 0,-1.62277 0.39981,-2.89277 1.19944,-3.81 0.80551,-0.91721 1.91675,-1.37582 3.33375,-1.37583"
       style=""
       id="path3063" />
    <path
       d="m 685.86245,272.47582 c -10e-6,-1.19356 -0.24695,-2.12842 -0.74083,-2.80458 -0.48802,-0.68203 -1.16124,-1.02305 -2.01965,-1.02305 -0.85843,0 -1.53459,0.34102 -2.02847,1.02305 -0.48802,0.67616 -0.73202,1.61102 -0.73202,2.80458 0,1.19357 0.244,2.13137 0.73202,2.8134 0.49388,0.67616 1.17004,1.01424 2.02847,1.01423 0.85841,10e-6 1.53163,-0.33807 2.01965,-1.01423 0.49388,-0.68203 0.74082,-1.61983 0.74083,-2.8134 m -5.52097,-3.4484 c 0.34102,-0.58795 0.77023,-1.02304 1.28764,-1.30527 0.52328,-0.2881 1.14652,-0.43215 1.86972,-0.43216 1.19944,1e-5 2.17251,0.47626 2.91923,1.42875 0.75258,0.95251 1.12888,2.20487 1.12889,3.75708 -10e-6,1.55222 -0.37631,2.80458 -1.12889,3.75708 -0.74672,0.9525 -1.71979,1.42875 -2.91923,1.42875 -0.7232,0 -1.34644,-0.14111 -1.86972,-0.42334 -0.51741,-0.2881 -0.94662,-0.72613 -1.28764,-1.31409 l 0,1.48166 -1.63159,0 0,-13.72304 1.63159,0 0,5.34458"
       style=""
       id="path3065" />
    <path
       d="m 697.32771,272.47582 c -10e-6,-1.19356 -0.24695,-2.12842 -0.74083,-2.80458 -0.48802,-0.68203 -1.16123,-1.02305 -2.01965,-1.02305 -0.85843,0 -1.53459,0.34102 -2.02847,1.02305 -0.48801,0.67616 -0.73202,1.61102 -0.73201,2.80458 -10e-6,1.19357 0.244,2.13137 0.73201,2.8134 0.49388,0.67616 1.17004,1.01424 2.02847,1.01423 0.85842,10e-6 1.53163,-0.33807 2.01965,-1.01423 0.49388,-0.68203 0.74082,-1.61983 0.74083,-2.8134 m -5.52096,-3.4484 c 0.34101,-0.58795 0.77022,-1.02304 1.28763,-1.30527 0.52328,-0.2881 1.14652,-0.43215 1.86972,-0.43216 1.19944,1e-5 2.17252,0.47626 2.91924,1.42875 0.75258,0.95251 1.12887,2.20487 1.12888,3.75708 -10e-6,1.55222 -0.3763,2.80458 -1.12888,3.75708 -0.74672,0.9525 -1.7198,1.42875 -2.91924,1.42875 -0.7232,0 -1.34644,-0.14111 -1.86972,-0.42334 -0.51741,-0.2881 -0.94662,-0.72613 -1.28763,-1.31409 l 0,1.48166 -1.6316,0 0,-13.72304 1.6316,0 0,5.34458"
       style=""
       id="path3067" />
  </g>
</svg>
