<?xml version="1.0" encoding="UTF-8" standalone="no"?>
<!-- Created with Inkscape (http://www.inkscape.org/) -->
<svg id="svg2" xmlns:rdf="http://www.w3.org/1999/02/22-rdf-syntax-ns#" xmlns="http://www.w3.org/2000/svg" height="26cm" width="27cm" version="1.1" xmlns:cc="http://creativecommons.org/ns#" viewBox="198 58 523 503" xmlns:dc="http://purl.org/dc/elements/1.1/">
 <metadata id="metadata144">
  <rdf:RDF>
   <cc:Work rdf:about="">
    <dc:format>image/svg+xml</dc:format>
    <dc:type rdf:resource="http://purl.org/dc/dcmitype/StillImage"/>
   </cc:Work>
  </rdf:RDF>
 </metadata>
 <g id="g4">
  <polygon id="polygon6" points="480 120 340 180 200 120 340 60" fill="#fff"/>
  <polygon id="polygon8" stroke="#000" points="480 120 340 180 200 120 340 60" stroke-width="2" fill="none"/>
  <text id="text10" style="text-anchor:middle" font-family="sans-serif" font-size="13.547px" y="98.733299" x="340" fill="#000000">
   <tspan id="tspan12" y="98.733299" x="340">meg akarjuk</tspan>
   <tspan id="tspan14" y="115.667" x="340">változtatni az</tspan>
   <tspan id="tspan16" y="132.60001" x="340">átvett objektum</tspan>
   <tspan id="tspan18" y="149.533" x="340">állapotát?</tspan>
  </text>
 </g>
 <g id="g20">
  <polygon id="polygon22" points="483.11 280.67 341.56 341.33 200 280.67 341.56 220" fill="#fff"/>
  <polygon id="polygon24" stroke="#000" points="483.11 280.67 341.56 341.33 200 280.67 341.56 220" stroke-width="2" fill="none"/>
  <text id="text26" style="text-anchor:middle" font-family="sans-serif" font-size="13.547px" y="259.39999" x="341.556" fill="#000000">
   <tspan id="tspan28" y="259.39999" x="341.556">szeretnénk</tspan>
   <tspan id="tspan30" y="276.33301" x="341.556">munkamásolatot,</tspan>
   <tspan id="tspan32" y="293.267" x="341.556">ami végül</tspan>
   <tspan id="tspan34" y="310.20001" x="341.556">megszűnhet?</tspan>
  </text>
 </g>
 <g id="g36">
  <polygon id="polygon38" points="481.25 440.97 340.62 501.93 200 440.97 340.62 380" fill="#fff"/>
  <polygon id="polygon40" stroke="#000" points="481.25 440.97 340.62 501.93 200 440.97 340.62 380" stroke-width="2" fill="none"/>
  <text id="text42" style="text-anchor:middle" font-family="sans-serif" font-size="13.547px" y="436.63199" x="340.62399" fill="#000000">
   <tspan id="tspan44" y="436.63199" x="340.62399">beépített típus?</tspan>
   <tspan id="tspan46" y="453.56601" x="340.62399">(int, double, ...)</tspan>
  </text>
 </g>
 <g id="g48" stroke="#000" stroke-width="2" fill="none">
  <line id="line50" y2="215.53" x2="340" y1="180" x1="340"/>
  <polyline id="polyline52" points="335 207.76 340 217.76 345 207.76"/>
 </g>
 <g id="g54" stroke="#000" stroke-width="2" fill="none">
  <line id="line56" y2="375.53" x2="340.55" y1="342" x1="340"/>
  <polyline id="polyline58" points="335.42 367.85 340.59 377.76 345.42 367.68"/>
 </g>
 <g id="g60" stroke="#000" stroke-width="2" fill="none">
  <line id="line62" y2="120" x2="555.53" y1="120" x1="480"/>
  <polyline id="polyline64" points="547.76 125 557.76 120 547.76 115"/>
 </g>
 <line id="line66" stroke-width="2" y2="280" x2="520" stroke="#000" y1="280" x1="482" fill="none"/>
 <line id="line68" stroke-width="2" y2="440" x2="520" stroke="#000" y1="440" x1="482" fill="none"/>
 <line id="line70" stroke-width="2" y2="440" x2="520" stroke="#000" y1="280" x1="520" fill="none"/>
 <g id="g72" stroke="#000" stroke-width="2" fill="none">
  <line id="line74" y2="360" x2="555.53" y1="360" x1="520"/>
  <polyline id="polyline76" points="547.76 365 557.76 360 547.76 355"/>
 </g>
 <line id="line78" stroke-width="2" y2="540" x2="340" stroke="#000" y1="501.93" x1="340.62" fill="none"/>
 <g id="g80" stroke="#000" stroke-width="2" fill="none">
  <line id="line82" y2="540" x2="555.53" y1="540" x1="340"/>
  <polyline id="polyline84" points="547.76 545 557.76 540 547.76 535"/>
 </g>
 <g id="g86">
  <rect id="rect88" height="40" width="160" y="100" x="560" fill="#fff"/>
  <rect id="rect90" height="40" width="160" stroke="#000" y="100" x="560" stroke-width="2" fill="none"/>
  <text id="text92" style="text-anchor:middle" font-family="sans-serif" font-size="13.547px" y="124.133" x="640" fill="#000000">
   <tspan id="tspan94" y="124.133" x="640">referencia</tspan>
  </text>
 </g>
 <g id="g96">
  <rect id="rect98" height="40" width="160" y="340" x="560" fill="#fff"/>
  <rect id="rect100" height="40" width="160" stroke="#000" y="340" x="560" stroke-width="2" fill="none"/>
  <text id="text102" style="text-anchor:middle" font-family="sans-serif" font-size="13.547px" y="364.133" x="640" fill="#000000">
   <tspan id="tspan104" y="364.133" x="640">érték</tspan>
  </text>
 </g>
 <g id="g106">
  <rect id="rect108" height="40" width="160" y="520" x="560" fill="#fff"/>
  <rect id="rect110" height="40" width="160" stroke="#000" y="520" x="560" stroke-width="2" fill="none"/>
  <text id="text112" style="text-anchor:middle" font-family="sans-serif" font-size="13.547px" y="544.133" x="640" fill="#000000">
   <tspan id="tspan114" y="544.133" x="640">konstans referencia</tspan>
  </text>
 </g>
 <text id="text116" style="text-anchor:middle" font-family="sans-serif" font-size="13.547px" y="106.8" x="520" fill="#000000">
  <tspan id="tspan118" y="106.8" x="520">igen</tspan>
 </text>
 <text id="text120" style="text-anchor:middle" font-family="sans-serif" font-size="13.547px" y="266.79999" x="500" fill="#000000">
  <tspan id="tspan122" y="266.79999" x="500">igen</tspan>
 </text>
 <text id="text124" style="text-anchor:middle" font-family="sans-serif" font-size="13.547px" y="426.79999" x="500" fill="#000000">
  <tspan id="tspan126" y="426.79999" x="500">igen</tspan>
 </text>
 <text id="text128" font-family="sans-serif" font-size="13.547px" y="204.7" x="350" fill="#000000">
  <tspan id="tspan130" y="204.7" x="350">nem</tspan>
 </text>
 <text id="text132" font-family="sans-serif" font-size="13.547px" y="364.70001" x="350" fill="#000000">
  <tspan id="tspan134" y="364.70001" x="350">nem</tspan>
 </text>
 <text id="text136" font-family="sans-serif" font-size="13.547px" y="524.70001" x="350" fill="#000000">
  <tspan id="tspan138" y="524.70001" x="350">nem</tspan>
 </text>
</svg>
