<?xml version="1.0" encoding="UTF-8" standalone="no"?>
<svg id="svg2" xmlns:rdf="http://www.w3.org/1999/02/22-rdf-syntax-ns#" xmlns="http://www.w3.org/2000/svg" viewBox="218 106 637.32494 605.98335" height="30.846cm" width="32.658cm" version="1.1" xmlns:cc="http://creativecommons.org/ns#" xmlns:dc="http://purl.org/dc/elements/1.1/">
 <metadata id="metadata152">
  <rdf:RDF>
   <cc:Work rdf:about="">
    <dc:format>image/svg+xml</dc:format>
    <dc:type rdf:resource="http://purl.org/dc/dcmitype/StillImage"/>
   </cc:Work>
  </rdf:RDF>
 </metadata>
 <path id="rect4" d="m217.38 157.27h150v380h-150z" stroke="#000" stroke-dasharray="10" stroke-width="3" fill="none"/>
 <g id="g6" transform="translate(-2.6229 -2.7258)">
  <path id="polygon8" fill="#fff" d="m260 288.75v-88.75h53.25l17.75 17.75v71z"/>
  <path id="polygon10" d="m260 288.75v-88.75h53.25l17.75 17.75v71z" stroke="#000" stroke-width="3" fill="none"/>
  <path id="polyline12" d="m313.25 200v17.75h17.75" stroke="#000" stroke-width="3" fill="none"/>
 </g>
 <g id="g14" transform="translate(-2.6229 -2.7258)">
  <path id="polygon16" fill="#fff" d="m260 664.37v-88.75h53.25l17.75 17.75v71z"/>
  <path id="polygon18" d="m260 664.37v-88.75h53.25l17.75 17.75v71z" stroke="#000" stroke-width="3" fill="none"/>
  <path id="polyline20" d="m313.25 575.62v17.75h17.75" stroke="#000" stroke-width="3" fill="none"/>
 </g>
 <g id="g22" transform="translate(-2.6229 -2.7258)">
  <path id="polygon24" fill="#1e90ff" d="m520 288.75v-88.75h53.25l17.75 17.75v71z"/>
  <path id="polygon26" d="m520 288.75v-88.75h53.25l17.75 17.75v71z" stroke="#000" stroke-width="3" fill="none"/>
  <path id="polyline28" d="m573.25 200v17.75h17.75" stroke="#000" stroke-width="3" fill="none"/>
 </g>
 <g id="g30" transform="translate(-2.6229 -2.7258)">
  <path id="polygon32" fill="#1e90ff" d="m524.5 660v-88.75h53.25l17.75 17.75v71z"/>
  <path id="polygon34" d="m524.5 660v-88.75h53.25l17.75 17.75v71z" stroke="#000" stroke-width="3" fill="none"/>
  <path id="polyline36" d="m577.75 571.25v17.75h17.75" stroke="#000" stroke-width="3" fill="none"/>
 </g>
 <g id="g38" transform="translate(-2.6229 -2.7258)">
  <path id="polygon40" fill="#90ee90" d="m780 468.75v-88.75h53.25l17.75 17.75v71z"/>
  <path id="polygon42" d="m780 468.75v-88.75h53.25l17.75 17.75v71z" stroke="#000" stroke-width="3" fill="none"/>
  <path id="polyline44" d="m833.25 380v17.75h17.75" stroke="#000" stroke-width="3" fill="none"/>
 </g>
 <g id="g46" stroke="#000" stroke-width="3" fill="none" transform="translate(-2.6229 -2.7258)">
  <path id="line48" d="m600.7 275.67 164.09 113.6"/>
  <path id="polyline50" d="m756.48 389.59 11.068 1.582-5.376-9.803"/>
 </g>
 <g id="g52" stroke="#000" stroke-width="3" fill="none" transform="translate(-2.6229 -2.7258)">
  <path id="line54" d="m603.58 583.01 161.55-120.93"/>
  <path id="polyline56" d="m762.8 470.07 5.009-9.995-11.002 1.99"/>
 </g>
 <g id="g58" stroke="#000" stroke-width="3" fill="none" transform="translate(-2.6229 -2.7258)">
  <path id="path60" d="m341.65 224.01c34-15.002 132.54-11.583 161.3-0.284"/>
  <path id="polyline62" d="m494.94 225.95 11.136-0.997-7.479-8.311"/>
 </g>
 <g id="g64" stroke="#000" stroke-width="3" fill="none" transform="translate(-2.6229 -2.7258)">
  <path id="path66" d="m341.65 640.36c34 15 137.27 12.893 166.19-0.529"/>
  <path id="polyline68" d="m503.92 647.17 6.965-8.746-11.176-0.325"/>
 </g>
 <g id="text70">
  <path id="path102" style="" d="m252.18 297.34v2.8046h3.3426v1.2612h-3.3426v5.3622q0 1.2083 0.32632 1.5522 0.33514 0.34396 1.3494 0.34396h1.6669v1.3582h-1.6669q-1.8785 0-2.5929-0.69673-0.71438-0.70556-0.71438-2.5576v-5.3622h-1.1906v-1.2612h1.1906v-2.8046h1.6316z"/>
  <path id="path104" style="" d="m266.12 304.68v0.79375h-7.4612q0.10584 1.6757 1.0054 2.5576 0.9084 0.87312 2.5224 0.87312 0.93486 0 1.808-0.2293 0.88195-0.22931 1.7462-0.68792v1.5346q-0.87312 0.37042-1.7904 0.56445-0.91722 0.19402-1.8609 0.19402-2.3636 0-3.7483-1.3758-1.3758-1.3758-1.3758-3.7218 0-2.4253 1.3053-3.8453 1.3141-1.4288 3.5366-1.4288 1.9932 0 3.1485 1.2876 1.1642 1.2788 1.1642 3.4837zm-1.6228-0.47625q-0.0176-1.3317-0.74965-2.1255-0.7232-0.79375-1.9226-0.79375-1.3582 0-2.1784 0.76729-0.81139 0.76729-0.93486 2.1608l5.7856-0.009z"/>
  <path id="path106" style="" d="m275.28 304.97q0-1.7639-0.73202-2.734-0.72319-0.97014-2.0373-0.97014-1.3053 0-2.0373 0.97014-0.7232 0.97014-0.7232 2.734 0 1.7551 0.7232 2.7252 0.73201 0.97014 2.0373 0.97014 1.3141 0 2.0373-0.97014 0.73202-0.97014 0.73202-2.7252zm1.6228 3.8276q0 2.5224-1.1201 3.7483-1.1201 1.2347-3.4308 1.2347-0.85549 0-1.614-0.13229-0.75847-0.12347-1.4728-0.38806v-1.5787q0.71438 0.38806 1.4111 0.57327 0.69674 0.18521 1.4199 0.18521 1.5963 0 2.3901-0.83785 0.79375-0.82903 0.79375-2.5135v-0.80257q-0.50271 0.87313-1.2876 1.3053-0.78493 0.43215-1.8785 0.43215-1.8168 0-2.928-1.3846t-1.1112-3.6689q0-2.2931 1.1112-3.6777t2.928-1.3846q1.0936 0 1.8785 0.43215 0.78493 0.43215 1.2876 1.3053v-1.4993h1.6228v8.6519z"/>
  <path id="path108" style="" d="m280.24 296.3h1.6228v13.723h-1.6228v-13.723z"/>
  <path id="path110" style="" d="m289.74 305.06q-1.9667 0-2.7252 0.44979-0.75847 0.44979-0.75847 1.5346 0 0.86431 0.56445 1.3758 0.57326 0.50271 1.5522 0.50271 1.3494 0 2.1608-0.9525 0.8202-0.96132 0.8202-2.5488v-0.3616h-1.614zm3.2367-0.67028v5.6356h-1.6228v-1.4993q-0.55562 0.89958-1.3846 1.3317-0.82902 0.42333-2.0285 0.42333-1.5169 0-2.4165-0.84666-0.89076-0.85549-0.89076-2.2842 0-1.6669 1.1112-2.5135 1.1201-0.84667 3.3338-0.84667h2.2754v-0.15875q0-1.1201-0.74083-1.7286-0.73201-0.61736-2.0638-0.61736-0.84666 0-1.6492 0.20285-0.80257 0.20285-1.5434 0.60854v-1.4993q0.89076-0.34396 1.7286-0.51153 0.83784-0.17639 1.6316-0.17639 2.1431 0 3.2015 1.1112 1.0583 1.1112 1.0583 3.369z"/>
  <path id="path112" style="" d="m296.33 296.3h1.6228v13.723h-1.6228v-13.723z"/>
  <path id="path114" style="" d="m305.83 305.06q-1.9667 0-2.7252 0.44979-0.75847 0.44979-0.75847 1.5346 0 0.86431 0.56444 1.3758 0.57327 0.50271 1.5522 0.50271 1.3494 0 2.1608-0.9525 0.82021-0.96132 0.82021-2.5488v-0.3616h-1.614zm3.2367-0.67028v5.6356h-1.6228v-1.4993q-0.55562 0.89958-1.3846 1.3317-0.82903 0.42333-2.0285 0.42333-1.5169 0-2.4165-0.84666-0.89077-0.85549-0.89077-2.2842 0-1.6669 1.1112-2.5135 1.1201-0.84667 3.3338-0.84667h2.2754v-0.15875q0-1.1201-0.74083-1.7286-0.73201-0.61736-2.0638-0.61736-0.84666 0-1.6492 0.20285-0.80257 0.20285-1.5434 0.60854v-1.4993q0.89076-0.34396 1.7286-0.51153 0.83784-0.17639 1.6316-0.17639 2.1431 0 3.2015 1.1112 1.0583 1.1112 1.0583 3.369z"/>
  <path id="path116" style="" d="m313.99 308.54v5.2387h-1.6316v-13.635h1.6316v1.4993q0.51153-0.88194 1.2876-1.3053 0.78493-0.43215 1.8697-0.43215 1.7992 0 2.9192 1.4288 1.1289 1.4288 1.1289 3.7571t-1.1289 3.7571q-1.1201 1.4287-2.9192 1.4287-1.0848 0-1.8697-0.42333-0.77611-0.43215-1.2876-1.3141zm5.521-3.4484q0-1.7904-0.74084-2.8046-0.73201-1.0231-2.0196-1.0231t-2.0285 1.0231q-0.73201 1.0142-0.73201 2.8046 0 1.7903 0.73201 2.8134 0.74084 1.0142 2.0285 1.0142 1.2876 0 2.0196-1.0142 0.74084-1.0231 0.74084-2.8134z"/>
  <path id="path118" style="" d="m324.11 307.78h1.8609v2.2401h-1.8609v-2.2401z"/>
  <path id="path120" style="" d="m336.74 300.53v1.5169q-0.68792-0.37923-1.3846-0.56444-0.68792-0.19403-1.3935-0.19403-1.5787 0-2.4518 1.0054-0.87313 0.99659-0.87313 2.8046t0.87313 2.8134q0.87312 0.99659 2.4518 0.99659 0.70555 0 1.3935-0.18521 0.69673-0.19402 1.3846-0.57326v1.4993q-0.6791 0.31749-1.4111 0.47624-0.72319 0.15875-1.5434 0.15875-2.2313 0-3.5454-1.4023t-1.3141-3.7835q0-2.4165 1.3229-3.8012 1.3317-1.3846 3.6424-1.3846 0.74966 0 1.464 0.15875 0.71437 0.14993 1.3846 0.45861z"/>
  <path id="path122" style="" d="m251.97 318.9q-1.1818 2.0285-1.7551 4.0128-0.57327 1.9844-0.57327 4.0217t0.57327 4.0393q0.58208 1.9932 1.7551 4.0128h-1.4111q-1.3229-2.0726-1.9844-4.0746-0.65264-2.002-0.65264-3.9776 0-1.9667 0.65264-3.9599t1.9844-4.0746h1.4111z"/>
  <path id="path124" style="" d="m260.13 318.88v1.3494h-1.5522q-0.87312 0-1.2171 0.35278-0.33514 0.35277-0.33514 1.27v0.87313h2.6723v1.2612h-2.6723v8.6166h-1.6316v-8.6166h-1.5522v-1.2612h1.5522v-0.68792q0-1.6492 0.76729-2.3989 0.7673-0.75848 2.4342-0.75848h1.5346z"/>
  <path id="path126" style="" d="m265.3 323.86q-1.3053 0-2.0638 1.0231-0.75847 1.0142-0.75847 2.7869t0.74965 2.7958q0.75847 1.0142 2.0726 1.0142 1.2964 0 2.0549-1.0231 0.75847-1.023 0.75847-2.7869 0-1.7551-0.75847-2.7781-0.75848-1.0319-2.0549-1.0319zm0-1.3758q2.1167 0 3.3249 1.3758 1.2083 1.3758 1.2083 3.81 0 2.4253-1.2083 3.81-1.2083 1.3758-3.3249 1.3758-2.1255 0-3.3338-1.3758-1.1994-1.3847-1.1994-3.81 0-2.4342 1.1994-3.81 1.2083-1.3758 3.3338-1.3758z"/>
  <path id="path128" style="" d="m278.24 324.24q-0.2734-0.15875-0.59972-0.2293-0.3175-0.0794-0.70556-0.0794-1.3758 0-2.1167 0.89958-0.73202 0.89077-0.73202 2.5665v5.2035h-1.6316v-9.8778h1.6316v1.5346q0.51153-0.89958 1.3317-1.3317 0.82021-0.44097 1.9932-0.44097 0.16757 0 0.37042 0.0265 0.20284 0.0176 0.44979 0.0617l0.009 1.6669z"/>
  <path id="path130" style="" d="m285.37 324.24q-0.2734-0.15875-0.59972-0.2293-0.3175-0.0794-0.70556-0.0794-1.3758 0-2.1167 0.89958-0.73201 0.89077-0.73201 2.5665v5.2035h-1.6316v-9.8778h1.6316v1.5346q0.51152-0.89958 1.3317-1.3317 0.82021-0.44097 1.9932-0.44097 0.16757 0 0.37042 0.0265 0.20285 0.0176 0.44979 0.0617l0.009 1.6669z"/>
  <path id="path133" style="" d="m291.58 327.64q-1.9667 0-2.7252 0.44979-0.75847 0.44979-0.75847 1.5346 0 0.8643 0.56445 1.3758 0.57326 0.5027 1.5522 0.5027 1.3494 0 2.1608-0.95249 0.82021-0.96132 0.82021-2.5488v-0.3616h-1.614zm3.2367-0.67027v5.6356h-1.6228v-1.4993q-0.55563 0.89958-1.3847 1.3317-0.82902 0.42334-2.0285 0.42334-1.517 0-2.4165-0.84667-0.89076-0.85548-0.89076-2.2842 0-1.6669 1.1112-2.5135 1.1201-0.84667 3.3337-0.84667h2.2754v-0.15875q0-1.1201-0.74084-1.7286-0.73201-0.61737-2.0637-0.61737-0.84667 0-1.6492 0.20285-0.80257 0.20285-1.5434 0.60854v-1.4993q0.89076-0.34396 1.7286-0.51153 0.83785-0.17639 1.6316-0.17639 2.1431 0 3.2014 1.1112t1.0583 3.369zm-2.9633-8.8106h1.7551l-2.8751 3.3161h-1.3494l2.4694-3.3161z"/>
  <path id="path135" style="" d="m304.46 323.02v1.5346q-0.68791-0.35278-1.4288-0.52917-0.74083-0.17638-1.5346-0.17638-1.2083 0-1.8168 0.37041-0.59972 0.37042-0.59972 1.1112 0 0.56444 0.43215 0.89076 0.43215 0.3175 1.7374 0.60854l0.55562 0.12348q1.7286 0.37041 2.4518 1.0495 0.73201 0.67028 0.73201 1.8785 0 1.3758-1.0936 2.1784-1.0848 0.80257-2.9898 0.80257-0.79375 0-1.658-0.15875-0.85549-0.14993-1.808-0.45861v-1.6757q0.89959 0.46743 1.7727 0.70556 0.87312 0.2293 1.7286 0.2293 1.1465 0 1.7639-0.38805 0.61736-0.39687 0.61736-1.1112 0-0.66146-0.4498-1.0142-0.44097-0.35278-1.9491-0.6791l-0.56444-0.13229q-1.5081-0.3175-2.1784-0.97014-0.67028-0.66146-0.67028-1.808 0-1.3935 0.98778-2.152 0.98777-0.75847 2.8046-0.75847 0.89958 0 1.6933 0.13229 0.79375 0.1323 1.464 0.39688z"/>
  <path id="path137" style="" d="m312.59 318.88v1.3494h-1.5522q-0.87312 0-1.2171 0.35278-0.33514 0.35277-0.33514 1.27v0.87313h2.6723v1.2612h-2.6723v8.6166h-1.6316v-8.6166h-1.5522v-1.2612h1.5522v-0.68792q0-1.6492 0.76729-2.3989 0.76729-0.75848 2.4342-0.75848h1.5346z"/>
  <path id="path139" style="" d="m318.42 327.64q-1.9667 0-2.7252 0.44979-0.75847 0.44979-0.75847 1.5346 0 0.8643 0.56445 1.3758 0.57326 0.5027 1.5522 0.5027 1.3494 0 2.1608-0.95249 0.82021-0.96132 0.82021-2.5488v-0.3616h-1.614zm3.2367-0.67027v5.6356h-1.6228v-1.4993q-0.55563 0.89958-1.3847 1.3317-0.82902 0.42334-2.0285 0.42334-1.5169 0-2.4165-0.84667-0.89076-0.85548-0.89076-2.2842 0-1.6669 1.1112-2.5135 1.1201-0.84667 3.3337-0.84667h2.2754v-0.15875q0-1.1201-0.74084-1.7286-0.73201-0.61737-2.0637-0.61737-0.84667 0-1.6492 0.20285-0.80257 0.20285-1.5434 0.60854v-1.4993q0.89076-0.34396 1.7286-0.51153 0.83785-0.17639 1.6316-0.17639 2.1431 0 3.2015 1.1112 1.0583 1.1112 1.0583 3.369zm-2.9633-8.8106h1.7551l-2.8751 3.3161h-1.3494l2.4694-3.3161z"/>
  <path id="path141" style="" d="m325.01 322.72h1.6228v10.054q0 1.8874-0.72319 2.734-0.71438 0.84666-2.3107 0.84666h-0.61736v-1.3758h0.43215q0.92604 0 1.2612-0.43215 0.33514-0.42333 0.33514-1.7727v-10.054zm0-3.8453h1.6228v2.0549h-1.6228v-2.0549z"/>
  <path id="path143" style="" d="m330.02 318.88h1.6228v13.723h-1.6228v-13.723z"/>
  <path id="path145" style="" d="m334.78 318.9h1.4111q1.3229 2.0814 1.9756 4.0746 0.66146 1.9932 0.66146 3.9599 0 1.9756-0.66146 3.9776-0.65264 2.002-1.9756 4.0746h-1.4111q1.173-2.0196 1.7462-4.0128 0.58208-2.002 0.58208-4.0393t-0.58208-4.0217q-0.57327-1.9844-1.7462-4.0128z"/>
 </g>
 <g id="text76">
  <path id="path148" style="" d="m272.34 677.67q0.60854-1.0936 1.4552-1.614 0.84667-0.52035 1.9932-0.52035 1.5434 0 2.3812 1.0848 0.83785 1.076 0.83785 3.0692v5.9619h-1.6316v-5.909q0-1.4199-0.50271-2.1078-0.5027-0.68792-1.5346-0.68792-1.2612 0-1.9932 0.83785-0.73201 0.83785-0.73201 2.2842v5.5827h-1.6316v-5.909q0-1.4287-0.5027-2.1078-0.50271-0.68792-1.5522-0.68792-1.2436 0-1.9756 0.84667-0.73201 0.83785-0.73201 2.2754v5.5827h-1.6316v-9.8778h1.6316v1.5346q0.55562-0.9084 1.3317-1.3406 0.77611-0.43216 1.8433-0.43216 1.076 0 1.8256 0.54681 0.75847 0.5468 1.1201 1.5875z"/>
  <path id="path150" style="" d="m286.74 680.68q-1.9667 0-2.7252 0.44979-0.75847 0.4498-0.75847 1.5346 0 0.8643 0.56444 1.3758 0.57326 0.50271 1.5522 0.50271 1.3494 0 2.1608-0.9525 0.82021-0.96132 0.82021-2.5488v-0.3616h-1.614zm3.2367-0.67027v5.6356h-1.6228v-1.4993q-0.55563 0.89958-1.3846 1.3317-0.82903 0.42333-2.0285 0.42333-1.517 0-2.4165-0.84667-0.89076-0.85548-0.89076-2.2842 0-1.6669 1.1112-2.5135 1.1201-0.84667 3.3337-0.84667h2.2754v-0.15875q0-1.1201-0.74083-1.7286-0.73202-0.61736-2.0638-0.61736-0.84667 0-1.6492 0.20284-0.80256 0.20285-1.5434 0.60854v-1.4993q0.89077-0.34396 1.7286-0.51153 0.83785-0.17639 1.6316-0.17639 2.1431 0 3.2014 1.1112t1.0583 3.369z"/>
  <path id="path152" style="" d="m293.33 675.77h1.6228v9.8778h-1.6228v-9.8778zm0-3.8453h1.6228v2.0549h-1.6228v-2.0549z"/>
  <path id="path154" style="" d="m306.55 679.69v5.9619h-1.6228v-5.909q0-1.4023-0.54681-2.099-0.5468-0.69674-1.6404-0.69674-1.3141 0-2.0726 0.83785-0.75847 0.83785-0.75847 2.2842v5.5827h-1.6316v-9.8778h1.6316v1.5346q0.58208-0.89076 1.367-1.3317 0.79375-0.44098 1.8256-0.44098 1.7022 0 2.5753 1.0583 0.87312 1.0495 0.87312 3.0956z"/>
  <path id="path156" style="" d="m310.04 683.41h1.8609v2.2401h-1.8609v-2.2401z"/>
  <path id="path158" style="" d="m322.67 676.15v1.517q-0.68792-0.37924-1.3846-0.56445-0.68792-0.19402-1.3935-0.19402-1.5787 0-2.4518 1.0054-0.87312 0.9966-0.87312 2.8046t0.87312 2.8134q0.87313 0.9966 2.4518 0.9966 0.70556 0 1.3935-0.18521 0.69673-0.19403 1.3846-0.57327v1.4993q-0.6791 0.3175-1.4111 0.47625-0.7232 0.15875-1.5434 0.15875-2.2313 0-3.5454-1.4023t-1.3141-3.7835q0-2.4165 1.3229-3.8012 1.3317-1.3846 3.6424-1.3846 0.74965 0 1.464 0.15875 0.71437 0.14993 1.3846 0.45861z"/>
  <path id="path160" style="" d="m251.97 694.52q-1.1818 2.0285-1.7551 4.0128-0.57327 1.9844-0.57327 4.0217t0.57327 4.0393q0.58208 1.9932 1.7551 4.0128h-1.4111q-1.3229-2.0726-1.9844-4.0746-0.65264-2.002-0.65264-3.9776 0-1.9667 0.65264-3.9599t1.9844-4.0746h1.4111z"/>
  <path id="path162" style="" d="m260.13 694.5v1.3494h-1.5522q-0.87312 0-1.2171 0.35278-0.33514 0.35278-0.33514 1.27v0.87312h2.6723v1.2612h-2.6723v8.6166h-1.6316v-8.6166h-1.5522v-1.2612h1.5522v-0.68791q0-1.6492 0.76729-2.3989 0.7673-0.75847 2.4342-0.75847h1.5346z"/>
  <path id="path164" style="" d="m265.3 699.49q-1.3053 0-2.0638 1.023-0.75847 1.0142-0.75847 2.7869t0.74965 2.7958q0.75847 1.0142 2.0726 1.0142 1.2964 0 2.0549-1.0231 0.75847-1.023 0.75847-2.7869 0-1.7551-0.75847-2.7781-0.75848-1.0319-2.0549-1.0319zm0-1.3758q2.1167 0 3.3249 1.3758 1.2083 1.3758 1.2083 3.81 0 2.4254-1.2083 3.81-1.2083 1.3758-3.3249 1.3758-2.1255 0-3.3338-1.3758-1.1994-1.3846-1.1994-3.81 0-2.4342 1.1994-3.81 1.2083-1.3758 3.3338-1.3758z"/>
  <path id="path166" style="" d="m278.24 699.87q-0.2734-0.15875-0.59972-0.2293-0.3175-0.0794-0.70556-0.0794-1.3758 0-2.1167 0.89959-0.73202 0.89076-0.73202 2.5664v5.2035h-1.6316v-9.8778h1.6316v1.5346q0.51153-0.89958 1.3317-1.3317 0.82021-0.44097 1.9932-0.44097 0.16757 0 0.37042 0.0264 0.20284 0.0176 0.44979 0.0617l0.009 1.6669z"/>
  <path id="path168" style="" d="m285.37 699.87q-0.2734-0.15875-0.59972-0.2293-0.3175-0.0794-0.70556-0.0794-1.3758 0-2.1167 0.89959-0.73201 0.89076-0.73201 2.5664v5.2035h-1.6316v-9.8778h1.6316v1.5346q0.51152-0.89958 1.3317-1.3317 0.82021-0.44097 1.9932-0.44097 0.16757 0 0.37042 0.0264 0.20285 0.0176 0.44979 0.0617l0.009 1.6669z"/>
  <path id="path170" style="" d="m291.58 703.26q-1.9667 0-2.7252 0.44979-0.75847 0.44979-0.75847 1.5346 0 0.8643 0.56445 1.3758 0.57326 0.50271 1.5522 0.50271 1.3494 0 2.1608-0.9525 0.82021-0.96132 0.82021-2.5488v-0.36159h-1.614zm3.2367-0.67028v5.6356h-1.6228v-1.4993q-0.55563 0.89959-1.3847 1.3317-0.82902 0.42333-2.0285 0.42333-1.517 0-2.4165-0.84666-0.89076-0.85549-0.89076-2.2842 0-1.6669 1.1112-2.5135 1.1201-0.84666 3.3337-0.84666h2.2754v-0.15875q0-1.1201-0.74084-1.7286-0.73201-0.61736-2.0637-0.61736-0.84667 0-1.6492 0.20285-0.80257 0.20284-1.5434 0.60854v-1.4993q0.89076-0.34396 1.7286-0.51152 0.83785-0.17639 1.6316-0.17639 2.1431 0 3.2014 1.1112t1.0583 3.369zm-2.9633-8.8106h1.7551l-2.8751 3.3161h-1.3494l2.4694-3.3161z"/>
  <path id="path172" style="" d="m304.46 698.64v1.5346q-0.68791-0.35277-1.4288-0.52916-0.74083-0.17639-1.5346-0.17639-1.2083 0-1.8168 0.37042-0.59972 0.37041-0.59972 1.1112 0 0.56445 0.43215 0.89077 0.43215 0.3175 1.7374 0.60854l0.55562 0.12347q1.7286 0.37042 2.4518 1.0495 0.73201 0.67028 0.73201 1.8785 0 1.3758-1.0936 2.1784-1.0848 0.80257-2.9898 0.80257-0.79375 0-1.658-0.15875-0.85549-0.14993-1.808-0.45861v-1.6757q0.89959 0.46743 1.7727 0.70555 0.87312 0.22931 1.7286 0.22931 1.1465 0 1.7639-0.38806 0.61736-0.39687 0.61736-1.1112 0-0.66145-0.4498-1.0142-0.44097-0.35278-1.9491-0.6791l-0.56444-0.13229q-1.5081-0.3175-2.1784-0.97014-0.67028-0.66145-0.67028-1.808 0-1.3935 0.98778-2.1519 0.98777-0.75847 2.8046-0.75847 0.89958 0 1.6933 0.13229 0.79375 0.13229 1.464 0.39687z"/>
  <path id="path174" style="" d="m312.59 694.5v1.3494h-1.5522q-0.87312 0-1.2171 0.35278-0.33514 0.35278-0.33514 1.27v0.87312h2.6723v1.2612h-2.6723v8.6166h-1.6316v-8.6166h-1.5522v-1.2612h1.5522v-0.68791q0-1.6492 0.76729-2.3989 0.76729-0.75847 2.4342-0.75847h1.5346z"/>
  <path id="path176" style="" d="m318.42 703.26q-1.9667 0-2.7252 0.44979-0.75847 0.44979-0.75847 1.5346 0 0.8643 0.56445 1.3758 0.57326 0.50271 1.5522 0.50271 1.3494 0 2.1608-0.9525 0.82021-0.96132 0.82021-2.5488v-0.36159h-1.614zm3.2367-0.67028v5.6356h-1.6228v-1.4993q-0.55563 0.89959-1.3847 1.3317-0.82902 0.42333-2.0285 0.42333-1.5169 0-2.4165-0.84666-0.89076-0.85549-0.89076-2.2842 0-1.6669 1.1112-2.5135 1.1201-0.84666 3.3337-0.84666h2.2754v-0.15875q0-1.1201-0.74084-1.7286-0.73201-0.61736-2.0637-0.61736-0.84667 0-1.6492 0.20285-0.80257 0.20284-1.5434 0.60854v-1.4993q0.89076-0.34396 1.7286-0.51152 0.83785-0.17639 1.6316-0.17639 2.1431 0 3.2015 1.1112 1.0583 1.1112 1.0583 3.369zm-2.9633-8.8106h1.7551l-2.8751 3.3161h-1.3494l2.4694-3.3161z"/>
  <path id="path178" style="" d="m325.01 698.35h1.6228v10.054q0 1.8874-0.72319 2.734-0.71438 0.84667-2.3107 0.84667h-0.61736v-1.3758h0.43215q0.92604 0 1.2612-0.43215 0.33514-0.42333 0.33514-1.7727v-10.054zm0-3.8453h1.6228v2.0549h-1.6228v-2.0549z"/>
  <path id="path180" style="" d="m330.02 694.5h1.6228v13.723h-1.6228v-13.723z"/>
  <path id="path182" style="" d="m334.78 694.52h1.4111q1.3229 2.0814 1.9756 4.0746 0.66146 1.9932 0.66146 3.9599 0 1.9756-0.66146 3.9776-0.65264 2.002-1.9756 4.0746h-1.4111q1.173-2.0196 1.7462-4.0128 0.58208-2.002 0.58208-4.0393t-0.58208-4.0217q-0.57327-1.9844-1.7462-4.0128z"/>
 </g>
 <g id="text82">
  <path id="path185" style="" d="m536.3 677.29q0.60854-1.0936 1.4552-1.614 0.84666-0.52034 1.9932-0.52034 1.5434 0 2.3812 1.0848 0.83784 1.076 0.83784 3.0692v5.9619h-1.6316v-5.909q0-1.4199-0.50271-2.1078-0.50271-0.68791-1.5346-0.68791-1.2612 0-1.9932 0.83784-0.73202 0.83785-0.73202 2.2842v5.5827h-1.6316v-5.909q0-1.4288-0.50271-2.1078-0.50271-0.68791-1.5522-0.68791-1.2435 0-1.9756 0.84666-0.73202 0.83785-0.73202 2.2754v5.5827h-1.6316v-9.8778h1.6316v1.5346q0.55563-0.9084 1.3317-1.3406 0.77611-0.43215 1.8433-0.43215 1.076 0 1.8256 0.5468 0.75847 0.54681 1.1201 1.5875z"/>
  <path id="path187" style="" d="m550.7 680.31q-1.9667 0-2.7252 0.44979-0.75847 0.44979-0.75847 1.5346 0 0.8643 0.56444 1.3758 0.57327 0.50271 1.5522 0.50271 1.3494 0 2.1608-0.9525 0.8202-0.96132 0.8202-2.5488v-0.36159h-1.614zm3.2367-0.67028v5.6356h-1.6228v-1.4993q-0.55562 0.89959-1.3846 1.3317-0.82902 0.42333-2.0285 0.42333-1.5169 0-2.4165-0.84667-0.89077-0.85548-0.89077-2.2842 0-1.6669 1.1112-2.5135 1.1201-0.84666 3.3338-0.84666h2.2754v-0.15875q0-1.1201-0.74083-1.7286-0.73201-0.61736-2.0638-0.61736-0.84666 0-1.6492 0.20284-0.80257 0.20285-1.5434 0.60855v-1.4993q0.89076-0.34396 1.7286-0.51153 0.83784-0.17638 1.6316-0.17638 2.1431 0 3.2015 1.1112 1.0583 1.1112 1.0583 3.369z"/>
  <path id="path189" style="" d="m557.29 675.39h1.6228v9.8778h-1.6228v-9.8778zm0-3.8453h1.6228v2.0549h-1.6228v-2.0549z"/>
  <path id="path191" style="" d="m570.51 679.31v5.9619h-1.6228v-5.909q0-1.4023-0.5468-2.099-0.54681-0.69673-1.6404-0.69673-1.3141 0-2.0726 0.83784-0.75847 0.83785-0.75847 2.2842v5.5827h-1.6316v-9.8778h1.6316v1.5346q0.58209-0.89076 1.367-1.3317 0.79374-0.44097 1.8256-0.44097 1.7022 0 2.5753 1.0583 0.87313 1.0495 0.87313 3.0956z"/>
  <path id="path193" style="" d="m573.99 683.03h1.8609v2.2401h-1.8609v-2.2401z"/>
  <path id="path195" style="" d="m583.34 676.53q-1.3053 0-2.0637 1.023-0.75848 1.0142-0.75848 2.7869t0.74966 2.7958q0.75847 1.0142 2.0726 1.0142 1.2965 0 2.0549-1.0231 0.75847-1.023 0.75847-2.7869 0-1.7551-0.75847-2.7781-0.75847-1.0319-2.0549-1.0319zm0-1.3758q2.1167 0 3.3249 1.3758 1.2083 1.3758 1.2083 3.81 0 2.4254-1.2083 3.81-1.2083 1.3758-3.3249 1.3758-2.1255 0-3.3337-1.3758-1.1994-1.3846-1.1994-3.81 0-2.4342 1.1994-3.81 1.2083-1.3758 3.3337-1.3758z"/>
  <path id="path197" style="" d="m516.52 694.14q-1.1818 2.0285-1.7551 4.0128-0.57326 1.9844-0.57326 4.0217t0.57326 4.0393q0.58209 1.9932 1.7551 4.0128h-1.4111q-1.3229-2.0726-1.9844-4.0746-0.65264-2.002-0.65264-3.9776 0-1.9667 0.65264-3.9599t1.9844-4.0746h1.4111z"/>
  <path id="path199" style="" d="m521.29 695.17v2.8046h3.3426v1.2612h-3.3426v5.3622q0 1.2083 0.32631 1.5522 0.33514 0.34396 1.3494 0.34396h1.6669v1.3582h-1.6669q-1.8785 0-2.5929-0.69674-0.71437-0.70555-0.71437-2.5576v-5.3622h-1.1906v-1.2612h1.1906v-2.8046h1.6316z"/>
  <path id="path201" style="" d="m531.26 702.88q-1.9667 0-2.7252 0.44979-0.75847 0.44979-0.75847 1.5346 0 0.86431 0.56444 1.3758 0.57327 0.50271 1.5522 0.50271 1.3494 0 2.1608-0.9525 0.82021-0.96132 0.82021-2.5488v-0.3616h-1.614zm3.2367-0.67028v5.6356h-1.6228v-1.4993q-0.55562 0.89958-1.3846 1.3317-0.82903 0.42333-2.0285 0.42333-1.5169 0-2.4165-0.84666-0.89077-0.85549-0.89077-2.2842 0-1.6669 1.1112-2.5135 1.1201-0.84667 3.3338-0.84667h2.2754v-0.15875q0-1.1201-0.74083-1.7286-0.73201-0.61736-2.0638-0.61736-0.84666 0-1.6492 0.20285-0.80257 0.20284-1.5434 0.60854v-1.4993q0.89076-0.34395 1.7286-0.51152 0.83784-0.17639 1.6316-0.17639 2.1431 0 3.2014 1.1112t1.0583 3.369zm-2.9633-8.8106h1.7551l-2.8751 3.3161h-1.3494l2.4694-3.3161z"/>
  <path id="path203" style="" d="m543.57 699.49q-0.2734-0.15875-0.59972-0.22931-0.3175-0.0794-0.70555-0.0794-1.3758 0-2.1167 0.89958-0.73201 0.89076-0.73201 2.5664v5.2035h-1.6316v-9.8778h1.6316v1.5346q0.51153-0.89959 1.3317-1.3317 0.82021-0.44097 1.9932-0.44097 0.16757 0 0.37041 0.0265 0.20285 0.0176 0.44979 0.0617l0.009 1.6669z"/>
  <path id="path205" style="" d="m551.47 702.8q0-1.7639-0.73202-2.734-0.72319-0.97014-2.0373-0.97014-1.3053 0-2.0373 0.97014-0.72319 0.97014-0.72319 2.734 0 1.7551 0.72319 2.7252 0.73202 0.97014 2.0373 0.97014 1.3141 0 2.0373-0.97014 0.73202-0.97014 0.73202-2.7252zm1.6228 3.8276q0 2.5224-1.1201 3.7483-1.1201 1.2347-3.4308 1.2347-0.85548 0-1.614-0.13229-0.75847-0.12348-1.4728-0.38806v-1.5787q0.71438 0.38806 1.4111 0.57327 0.69674 0.1852 1.4199 0.1852 1.5963 0 2.3901-0.83784 0.79375-0.82903 0.79375-2.5135v-0.80257q-0.50271 0.87313-1.2876 1.3053-0.78493 0.43215-1.8785 0.43215-1.8168 0-2.928-1.3846t-1.1112-3.6689q0-2.293 1.1112-3.6777 1.1112-1.3846 2.928-1.3846 1.0936 0 1.8785 0.43215 0.78493 0.43215 1.2876 1.3053v-1.4993h1.6228v8.6519z"/>
  <path id="path207" style="" d="m560.55 708.77q-0.68792 1.7639-1.3406 2.3019-0.65264 0.53799-1.7462 0.53799h-1.2964v-1.3582h0.9525q0.67027 0 1.0407-0.3175 0.37042-0.3175 0.82021-1.4993l0.29104-0.74083-3.9952-9.719h1.7198l3.0868 7.7258 3.0868-7.7258h1.7198l-4.3392 10.795z"/>
  <path id="path209" style="" d="m567.07 694.13h1.6316v8.1051l4.8419-4.2598h2.0726l-5.2388 4.6214 5.4592 5.2564h-2.1167l-5.0183-4.8242v4.8242h-1.6316v-13.723z"/>
  <path id="path211" style="" d="m580.8 699.11q-1.3053 0-2.0637 1.0231-0.75848 1.0142-0.75848 2.7869t0.74966 2.7958q0.75847 1.0142 2.0726 1.0142 1.2965 0 2.0549-1.023 0.75847-1.0231 0.75847-2.7869 0-1.7551-0.75847-2.7781-0.75847-1.0319-2.0549-1.0319zm0-1.3758q2.1167 0 3.3249 1.3758 1.2083 1.3758 1.2083 3.81 0 2.4253-1.2083 3.81-1.2083 1.3758-3.3249 1.3758-2.1255 0-3.3337-1.3758-1.1994-1.3846-1.1994-3.81 0-2.4342 1.1994-3.81 1.2083-1.3758 3.3337-1.3758zm1.2259-4.3303h1.7551l-2.8751 3.3161h-1.3494l2.4694-3.3161z"/>
  <path id="path213" style="" d="m594.51 699.47v-5.3446h1.6228v13.723h-1.6228v-1.4817q-0.51152 0.88195-1.2964 1.3141-0.77611 0.42333-1.8697 0.42333-1.7904 0-2.9192-1.4287-1.1201-1.4288-1.1201-3.7571t1.1201-3.7571q1.1289-1.4288 2.9192-1.4288 1.0936 0 1.8697 0.43215 0.78493 0.42333 1.2964 1.3053zm-5.5298 3.4484q0 1.7903 0.73201 2.8134 0.74083 1.0142 2.0285 1.0142 1.2876 0 2.0285-1.0142 0.74083-1.0231 0.74083-2.8134 0-1.7904-0.74083-2.8046-0.74083-1.0231-2.0285-1.0231-1.2876 0-2.0285 1.0231-0.73201 1.0142-0.73201 2.8046z"/>
  <path id="path215" style="" d="m599.22 694.14h1.4111q1.3229 2.0814 1.9756 4.0746 0.66146 1.9932 0.66146 3.9599 0 1.9756-0.66146 3.9776-0.65264 2.002-1.9756 4.0746h-1.4111q1.173-2.0196 1.7462-4.0128 0.58208-2.002 0.58208-4.0393t-0.58208-4.0217q-0.57327-1.9844-1.7462-4.0128z"/>
 </g>
 <g id="text88">
  <path id="path218" style="" d="m782.73 492.54v5.2387h-1.6316v-13.635h1.6316v1.4993q0.51153-0.88194 1.2876-1.3053 0.78493-0.43215 1.8697-0.43215 1.7992 0 2.9192 1.4288 1.1289 1.4288 1.1289 3.7571t-1.1289 3.7571q-1.1201 1.4287-2.9192 1.4287-1.0848 0-1.8697-0.42333-0.77611-0.43215-1.2876-1.3141zm5.521-3.4484q0-1.7904-0.74083-2.8046-0.73202-1.0231-2.0196-1.0231t-2.0285 1.0231q-0.73202 1.0142-0.73202 2.8046 0 1.7903 0.73202 2.8134 0.74083 1.0142 2.0285 1.0142 1.2876 0 2.0196-1.0142 0.74083-1.0231 0.74083-2.8134z"/>
  <path id="path220" style="" d="m798.35 485.66q-0.2734-0.15875-0.59972-0.22931-0.3175-0.0794-0.70555-0.0794-1.3758 0-2.1167 0.89958-0.73201 0.89076-0.73201 2.5664v5.2035h-1.6316v-9.8778h1.6316v1.5346q0.51153-0.89959 1.3317-1.3317 0.82021-0.44097 1.9932-0.44097 0.16757 0 0.37042 0.0265 0.20285 0.0176 0.44979 0.0617l0.009 1.6669z"/>
  <path id="path222" style="" d="m806.25 488.97q0-1.7639-0.73201-2.734-0.72319-0.97014-2.0373-0.97014-1.3053 0-2.0373 0.97014-0.72319 0.97014-0.72319 2.734 0 1.7551 0.72319 2.7252 0.73201 0.97014 2.0373 0.97014 1.3141 0 2.0373-0.97014 0.73201-0.97014 0.73201-2.7252zm1.6228 3.8276q0 2.5224-1.1201 3.7483-1.1201 1.2347-3.4308 1.2347-0.85548 0-1.614-0.13229-0.75847-0.12347-1.4728-0.38806v-1.5787q0.71437 0.38806 1.4111 0.57327t1.4199 0.18521q1.5963 0 2.3901-0.83785 0.79375-0.82903 0.79375-2.5135v-0.80257q-0.5027 0.87313-1.2876 1.3053-0.78493 0.43215-1.8785 0.43215-1.8168 0-2.9281-1.3846-1.1112-1.3846-1.1112-3.6689 0-2.2931 1.1112-3.6777t2.9281-1.3846q1.0936 0 1.8785 0.43215 0.78493 0.43215 1.2876 1.3053v-1.4993h1.6228v8.6519z"/>
  <path id="path224" style="" d="m811.45 491.78h1.8609v2.2401h-1.8609v-2.2401z"/>
  <path id="path226" style="" d="m825.42 488.68v0.79375h-7.4612q0.10583 1.6757 1.0054 2.5576 0.9084 0.87312 2.5224 0.87312 0.93486 0 1.808-0.2293 0.88194-0.22931 1.7462-0.68792v1.5346q-0.87313 0.37042-1.7904 0.56445-0.91722 0.19402-1.8609 0.19402-2.3636 0-3.7483-1.3758-1.3758-1.3758-1.3758-3.7218 0-2.4253 1.3053-3.8453 1.3141-1.4288 3.5366-1.4288 1.9932 0 3.1485 1.2876 1.1642 1.2788 1.1642 3.4837zm-1.6228-0.47625q-0.0176-1.3317-0.74966-2.1255-0.72319-0.79375-1.9226-0.79375-1.3582 0-2.1784 0.76729-0.81139 0.76729-0.93486 2.1608l5.7856-0.009z"/>
  <path id="path228" style="" d="m835.97 484.15-3.5719 4.8066 3.7571 5.0712h-1.9138l-2.8751-3.8806-2.8751 3.8806h-1.9138l3.8364-5.1682-3.5101-4.7096h1.9138l2.6194 3.519 2.6194-3.519h1.9138z"/>
  <path id="path230" style="" d="m846.34 488.68v0.79375h-7.4612q0.10583 1.6757 1.0054 2.5576 0.9084 0.87312 2.5224 0.87312 0.93486 0 1.808-0.2293 0.88194-0.22931 1.7462-0.68792v1.5346q-0.87313 0.37042-1.7904 0.56445-0.91722 0.19402-1.8609 0.19402-2.3636 0-3.7483-1.3758-1.3758-1.3758-1.3758-3.7218 0-2.4253 1.3053-3.8453 1.3141-1.4288 3.5366-1.4288 1.9932 0 3.1485 1.2876 1.1642 1.2788 1.1642 3.4837zm-1.6228-0.47625q-0.0176-1.3317-0.74966-2.1255-0.72319-0.79375-1.9226-0.79375-1.3582 0-2.1784 0.76729-0.81139 0.76729-0.93486 2.1608l5.7856-0.009z"/>
  <path id="path232" style="" d="m773.35 502.9q-1.1818 2.0285-1.7551 4.0128-0.57326 1.9844-0.57326 4.0217t0.57326 4.0393q0.58208 1.9932 1.7551 4.0128h-1.4111q-1.3229-2.0726-1.9844-4.0746-0.65263-2.002-0.65263-3.9776 0-1.9667 0.65263-3.9599 0.65264-1.9932 1.9844-4.0746h1.4111z"/>
  <path id="path234" style="" d="m778.07 515.12v5.2387h-1.6316v-13.635h1.6316v1.4993q0.51153-0.88194 1.2876-1.3053 0.78493-0.43216 1.8697-0.43216 1.7992 0 2.9192 1.4288 1.1289 1.4288 1.1289 3.7571t-1.1289 3.7571q-1.1201 1.4288-2.9192 1.4288-1.0848 0-1.8697-0.42334-0.77611-0.43215-1.2876-1.3141zm5.521-3.4484q0-1.7903-0.74083-2.8046-0.73202-1.023-2.0196-1.023t-2.0285 1.023q-0.73202 1.0142-0.73202 2.8046t0.73202 2.8134q0.74083 1.0142 2.0285 1.0142 1.2876 0 2.0196-1.0142 0.74083-1.023 0.74083-2.8134z"/>
  <path id="path236" style="" d="m793.69 508.24q-0.2734-0.15875-0.59972-0.2293-0.3175-0.0794-0.70556-0.0794-1.3758 0-2.1167 0.89958-0.73201 0.89077-0.73201 2.5665v5.2035h-1.6316v-9.8778h1.6316v1.5346q0.51152-0.89958 1.3317-1.3317 0.82021-0.44097 1.9932-0.44097 0.16757 0 0.37042 0.0265 0.20285 0.0176 0.44979 0.0617l0.009 1.6669z"/>
  <path id="path238" style="" d="m798.85 507.86q-1.3053 0-2.0638 1.0231-0.75847 1.0142-0.75847 2.7869t0.74965 2.7958q0.75847 1.0142 2.0726 1.0142 1.2965 0 2.0549-1.0231 0.75847-1.023 0.75847-2.7869 0-1.7551-0.75847-2.7781-0.75847-1.0319-2.0549-1.0319zm0-1.3758q2.1167 0 3.3249 1.3758 1.2083 1.3758 1.2083 3.81 0 2.4253-1.2083 3.81-1.2083 1.3758-3.3249 1.3758-2.1255 0-3.3338-1.3758-1.1994-1.3847-1.1994-3.81 0-2.4342 1.1994-3.81 1.2083-1.3758 3.3338-1.3758z"/>
  <path id="path240" style="" d="m812.57 511.55q0-1.7639-0.73201-2.734-0.7232-0.97013-2.0373-0.97013-1.3053 0-2.0373 0.97013-0.7232 0.97014-0.7232 2.734 0 1.7551 0.7232 2.7252 0.73201 0.97014 2.0373 0.97014 1.3141 0 2.0373-0.97014 0.73201-0.97013 0.73201-2.7252zm1.6228 3.8276q0 2.5224-1.1201 3.7483-1.1201 1.2347-3.4308 1.2347-0.85549 0-1.614-0.13229-0.75847-0.12347-1.4728-0.38805v-1.5787q0.71438 0.38805 1.4111 0.57326 0.69674 0.18521 1.4199 0.18521 1.5963 0 2.3901-0.83785 0.79375-0.82902 0.79375-2.5135v-0.80256q-0.50271 0.87312-1.2876 1.3053-0.78493 0.43215-1.8785 0.43215-1.8168 0-2.928-1.3846t-1.1112-3.6689q0-2.293 1.1112-3.6777 1.1112-1.3846 2.928-1.3846 1.0936 0 1.8785 0.43216 0.78493 0.43215 1.2876 1.3053v-1.4993h1.6228v8.6519z"/>
  <path id="path242" style="" d="m823.25 508.24q-0.2734-0.15875-0.59972-0.2293-0.3175-0.0794-0.70555-0.0794-1.3758 0-2.1167 0.89958-0.73201 0.89077-0.73201 2.5665v5.2035h-1.6316v-9.8778h1.6316v1.5346q0.51153-0.89958 1.3317-1.3317 0.82021-0.44097 1.9932-0.44097 0.16756 0 0.37041 0.0265 0.20285 0.0176 0.44979 0.0617l0.009 1.6669z"/>
  <path id="path244" style="" d="m829.46 511.64q-1.9667 0-2.7252 0.44979-0.75847 0.44979-0.75847 1.5346 0 0.8643 0.56444 1.3758 0.57327 0.5027 1.5522 0.5027 1.3494 0 2.1608-0.95249 0.82021-0.96132 0.82021-2.5488v-0.3616h-1.614zm3.2367-0.67027v5.6356h-1.6228v-1.4993q-0.55562 0.89958-1.3846 1.3317-0.82903 0.42334-2.0285 0.42334-1.5169 0-2.4165-0.84667-0.89077-0.85548-0.89077-2.2842 0-1.6669 1.1112-2.5135 1.1201-0.84667 3.3338-0.84667h2.2754v-0.15875q0-1.1201-0.74083-1.7286-0.73201-0.61737-2.0638-0.61737-0.84666 0-1.6492 0.20285-0.80257 0.20285-1.5434 0.60854v-1.4993q0.89076-0.34396 1.7286-0.51153 0.83784-0.17639 1.6316-0.17639 2.1431 0 3.2014 1.1112t1.0583 3.369z"/>
  <path id="path246" style="" d="m843.74 508.62q0.60855-1.0936 1.4552-1.614 0.84667-0.52035 1.9932-0.52035 1.5434 0 2.3812 1.0848 0.83785 1.076 0.83785 3.0692v5.9619h-1.6316v-5.909q0-1.4199-0.50271-2.1078-0.5027-0.68792-1.5346-0.68792-1.2612 0-1.9932 0.83785-0.73201 0.83785-0.73201 2.2842v5.5827h-1.6316v-5.909q0-1.4288-0.50271-2.1078-0.5027-0.68792-1.5522-0.68792-1.2435 0-1.9756 0.84667-0.73201 0.83784-0.73201 2.2754v5.5827h-1.6316v-9.8778h1.6316v1.5346q0.55562-0.9084 1.3317-1.3406 0.77611-0.43216 1.8433-0.43216 1.076 0 1.8256 0.54681 0.75847 0.5468 1.1201 1.5875z"/>
  <path id="path248" style="" d="m853.4 502.9h1.4111q1.3229 2.0814 1.9756 4.0746 0.66146 1.9932 0.66146 3.9599 0 1.9756-0.66146 3.9776-0.65264 2.002-1.9756 4.0746h-1.4111q1.173-2.0196 1.7462-4.0128 0.58209-2.002 0.58209-4.0393t-0.58209-4.0217q-0.57326-1.9844-1.7462-4.0128z"/>
 </g>
 <g id="text94">
  <path id="path251" style="" d="m511.63 301.34v2.8046h3.3426v1.2612h-3.3426v5.3622q0 1.2083 0.32631 1.5522 0.33514 0.34396 1.3494 0.34396h1.6669v1.3582h-1.6669q-1.8785 0-2.5929-0.69673-0.71437-0.70556-0.71437-2.5576v-5.3622h-1.1906v-1.2612h1.1906v-2.8046h1.6316z"/>
  <path id="path253" style="" d="m525.57 308.68v0.79375h-7.4612q0.10583 1.6757 1.0054 2.5576 0.9084 0.87312 2.5224 0.87312 0.93486 0 1.808-0.2293 0.88194-0.22931 1.7462-0.68792v1.5346q-0.87313 0.37042-1.7904 0.56445-0.91722 0.19402-1.8609 0.19402-2.3636 0-3.7483-1.3758-1.3758-1.3758-1.3758-3.7218 0-2.4253 1.3053-3.8453 1.3141-1.4288 3.5366-1.4288 1.9932 0 3.1485 1.2876 1.1642 1.2788 1.1642 3.4837zm-1.6228-0.47625q-0.0176-1.3317-0.74966-2.1255-0.72319-0.79375-1.9226-0.79375-1.3582 0-2.1784 0.76729-0.81139 0.76729-0.93486 2.1608l5.7856-0.009z"/>
  <path id="path255" style="" d="m534.73 308.97q0-1.7639-0.73201-2.734-0.72319-0.97014-2.0373-0.97014-1.3053 0-2.0373 0.97014-0.72319 0.97014-0.72319 2.734 0 1.7551 0.72319 2.7252 0.73202 0.97014 2.0373 0.97014 1.3141 0 2.0373-0.97014 0.73201-0.97014 0.73201-2.7252zm1.6228 3.8276q0 2.5224-1.1201 3.7483-1.1201 1.2347-3.4308 1.2347-0.85548 0-1.614-0.13229-0.75848-0.12347-1.4728-0.38806v-1.5787q0.71437 0.38806 1.4111 0.57327t1.4199 0.18521q1.5963 0 2.3901-0.83785 0.79375-0.82903 0.79375-2.5135v-0.80257q-0.5027 0.87313-1.2876 1.3053-0.78493 0.43215-1.8785 0.43215-1.8168 0-2.9281-1.3846-1.1112-1.3846-1.1112-3.6689 0-2.2931 1.1112-3.6777t2.9281-1.3846q1.0936 0 1.8785 0.43215 0.78493 0.43215 1.2876 1.3053v-1.4993h1.6228v8.6519z"/>
  <path id="path257" style="" d="m539.7 300.3h1.6228v13.723h-1.6228v-13.723z"/>
  <path id="path259" style="" d="m549.2 309.06q-1.9667 0-2.7252 0.44979-0.75847 0.44979-0.75847 1.5346 0 0.86431 0.56444 1.3758 0.57326 0.50271 1.5522 0.50271 1.3494 0 2.1608-0.9525 0.82021-0.96132 0.82021-2.5488v-0.3616h-1.614zm3.2367-0.67028v5.6356h-1.6228v-1.4993q-0.55562 0.89958-1.3846 1.3317-0.82903 0.42333-2.0285 0.42333-1.5169 0-2.4165-0.84666-0.89076-0.85549-0.89076-2.2842 0-1.6669 1.1112-2.5135 1.1201-0.84667 3.3338-0.84667h2.2754v-0.15875q0-1.1201-0.74083-1.7286-0.73202-0.61736-2.0638-0.61736-0.84667 0-1.6492 0.20285-0.80257 0.20285-1.5434 0.60854v-1.4993q0.89077-0.34396 1.7286-0.51153 0.83785-0.17639 1.6316-0.17639 2.1431 0 3.2014 1.1112t1.0583 3.369z"/>
  <path id="path261" style="" d="m555.78 300.3h1.6228v13.723h-1.6228v-13.723z"/>
  <path id="path263" style="" d="m565.28 309.06q-1.9667 0-2.7252 0.44979-0.75848 0.44979-0.75848 1.5346 0 0.86431 0.56445 1.3758 0.57326 0.50271 1.5522 0.50271 1.3494 0 2.1608-0.9525 0.82021-0.96132 0.82021-2.5488v-0.3616h-1.614zm3.2367-0.67028v5.6356h-1.6228v-1.4993q-0.55563 0.89958-1.3846 1.3317-0.82903 0.42333-2.0285 0.42333-1.517 0-2.4165-0.84666-0.89076-0.85549-0.89076-2.2842 0-1.6669 1.1112-2.5135 1.1201-0.84667 3.3337-0.84667h2.2754v-0.15875q0-1.1201-0.74084-1.7286-0.73201-0.61736-2.0637-0.61736-0.84667 0-1.6492 0.20285-0.80257 0.20285-1.5434 0.60854v-1.4993q0.89076-0.34396 1.7286-0.51153 0.83785-0.17639 1.6316-0.17639 2.1431 0 3.2014 1.1112t1.0583 3.369z"/>
  <path id="path265" style="" d="m573.44 312.54v5.2387h-1.6316v-13.635h1.6316v1.4993q0.51152-0.88194 1.2876-1.3053 0.78493-0.43215 1.8697-0.43215 1.7992 0 2.9192 1.4288 1.1289 1.4288 1.1289 3.7571t-1.1289 3.7571q-1.1201 1.4287-2.9192 1.4287-1.0848 0-1.8697-0.42333-0.77611-0.43215-1.2876-1.3141zm5.521-3.4484q0-1.7904-0.74083-2.8046-0.73201-1.0231-2.0196-1.0231t-2.0285 1.0231q-0.73201 1.0142-0.73201 2.8046 0 1.7903 0.73201 2.8134 0.74083 1.0142 2.0285 1.0142 1.2876 0 2.0196-1.0142 0.74083-1.0231 0.74083-2.8134z"/>
  <path id="path267" style="" d="m583.57 311.78h1.8609v2.2401h-1.8609v-2.2401z"/>
  <path id="path269" style="" d="m592.91 305.28q-1.3053 0-2.0638 1.0231-0.75847 1.0142-0.75847 2.7869t0.74965 2.7958q0.75847 1.0142 2.0726 1.0142 1.2964 0 2.0549-1.023 0.75848-1.0231 0.75848-2.7869 0-1.7551-0.75848-2.7781-0.75847-1.0319-2.0549-1.0319zm0-1.3758q2.1167 0 3.3249 1.3758 1.2083 1.3758 1.2083 3.81 0 2.4253-1.2083 3.81-1.2083 1.3758-3.3249 1.3758-2.1255 0-3.3338-1.3758-1.1994-1.3846-1.1994-3.81 0-2.4342 1.1994-3.81 1.2083-1.3758 3.3338-1.3758z"/>
  <path id="path271" style="" d="m512.02 322.9q-1.1818 2.0285-1.7551 4.0128-0.57326 1.9844-0.57326 4.0217t0.57326 4.0393q0.58209 1.9932 1.7551 4.0128h-1.4111q-1.3229-2.0726-1.9844-4.0746-0.65264-2.002-0.65264-3.9776 0-1.9667 0.65264-3.9599t1.9844-4.0746h1.4111z"/>
  <path id="path273" style="" d="m516.79 323.92v2.8046h3.3426v1.2612h-3.3426v5.3622q0 1.2083 0.32631 1.5522 0.33514 0.34396 1.3494 0.34396h1.6669v1.3582h-1.6669q-1.8785 0-2.5929-0.69673-0.71437-0.70556-0.71437-2.5576v-5.3622h-1.1906v-1.2612h1.1906v-2.8046h1.6316z"/>
  <path id="path275" style="" d="m526.76 331.64q-1.9667 0-2.7252 0.44979-0.75847 0.44979-0.75847 1.5346 0 0.8643 0.56444 1.3758 0.57327 0.5027 1.5522 0.5027 1.3494 0 2.1608-0.95249 0.82021-0.96132 0.82021-2.5488v-0.3616h-1.614zm3.2367-0.67027v5.6356h-1.6228v-1.4993q-0.55562 0.89958-1.3846 1.3317-0.82903 0.42334-2.0285 0.42334-1.5169 0-2.4165-0.84667-0.89077-0.85548-0.89077-2.2842 0-1.6669 1.1112-2.5135 1.1201-0.84667 3.3338-0.84667h2.2754v-0.15875q0-1.1201-0.74083-1.7286-0.73201-0.61737-2.0638-0.61737-0.84666 0-1.6492 0.20285-0.80257 0.20285-1.5434 0.60854v-1.4993q0.89076-0.34396 1.7286-0.51153 0.83784-0.17639 1.6316-0.17639 2.1431 0 3.2014 1.1112t1.0583 3.369zm-2.9633-8.8106h1.7551l-2.8751 3.3161h-1.3494l2.4694-3.3161z"/>
  <path id="path277" style="" d="m539.07 328.24q-0.2734-0.15875-0.59972-0.2293-0.3175-0.0794-0.70555-0.0794-1.3758 0-2.1167 0.89958-0.73201 0.89077-0.73201 2.5665v5.2035h-1.6316v-9.8778h1.6316v1.5346q0.51153-0.89958 1.3317-1.3317 0.82021-0.44097 1.9932-0.44097 0.16757 0 0.37041 0.0265 0.20285 0.0176 0.44979 0.0617l0.009 1.6669z"/>
  <path id="path279" style="" d="m546.97 331.55q0-1.7639-0.73202-2.734-0.72319-0.97013-2.0373-0.97013-1.3053 0-2.0373 0.97013-0.72319 0.97014-0.72319 2.734 0 1.7551 0.72319 2.7252 0.73202 0.97014 2.0373 0.97014 1.3141 0 2.0373-0.97014 0.73202-0.97013 0.73202-2.7252zm1.6228 3.8276q0 2.5224-1.1201 3.7483-1.1201 1.2347-3.4308 1.2347-0.85548 0-1.614-0.13229-0.75847-0.12347-1.4728-0.38805v-1.5787q0.71438 0.38805 1.4111 0.57326 0.69674 0.18521 1.4199 0.18521 1.5963 0 2.3901-0.83785 0.79375-0.82902 0.79375-2.5135v-0.80256q-0.50271 0.87312-1.2876 1.3053-0.78493 0.43215-1.8785 0.43215-1.8168 0-2.928-1.3846t-1.1112-3.6689q0-2.293 1.1112-3.6777 1.1112-1.3846 2.928-1.3846 1.0936 0 1.8785 0.43216 0.78493 0.43215 1.2876 1.3053v-1.4993h1.6228v8.6519z"/>
  <path id="path281" style="" d="m556.05 337.52q-0.68792 1.7639-1.3406 2.3019-0.65264 0.53798-1.7462 0.53798h-1.2964v-1.3582h0.9525q0.67027 0 1.0407-0.3175 0.37042-0.3175 0.82021-1.4993l0.29104-0.74084-3.9952-9.719h1.7198l3.0868 7.7258 3.0868-7.7258h1.7198l-4.3392 10.795z"/>
  <path id="path283" style="" d="m562.57 322.88h1.6316v8.1051l4.8419-4.2598h2.0726l-5.2388 4.6214 5.4592 5.2564h-2.1167l-5.0183-4.8242v4.8242h-1.6316v-13.723z"/>
  <path id="path285" style="" d="m576.3 327.86q-1.3053 0-2.0637 1.0231-0.75848 1.0142-0.75848 2.7869t0.74966 2.7958q0.75847 1.0142 2.0726 1.0142 1.2965 0 2.0549-1.0231 0.75847-1.023 0.75847-2.7869 0-1.7551-0.75847-2.7781-0.75847-1.0319-2.0549-1.0319zm0-1.3758q2.1167 0 3.3249 1.3758 1.2083 1.3758 1.2083 3.81 0 2.4253-1.2083 3.81-1.2083 1.3758-3.3249 1.3758-2.1255 0-3.3337-1.3758-1.1994-1.3847-1.1994-3.81 0-2.4342 1.1994-3.81 1.2083-1.3758 3.3337-1.3758zm1.2259-4.3303h1.7551l-2.8751 3.3161h-1.3494l2.4694-3.3161z"/>
  <path id="path287" style="" d="m590.01 328.22v-5.3446h1.6228v13.723h-1.6228v-1.4817q-0.51152 0.88194-1.2964 1.3141-0.77611 0.42334-1.8697 0.42334-1.7904 0-2.9192-1.4288-1.1201-1.4288-1.1201-3.7571t1.1201-3.7571q1.1289-1.4288 2.9192-1.4288 1.0936 0 1.8697 0.43216 0.78493 0.42333 1.2964 1.3053zm-5.5298 3.4484q0 1.7904 0.73201 2.8134 0.74083 1.0142 2.0285 1.0142 1.2876 0 2.0285-1.0142 0.74083-1.023 0.74083-2.8134 0-1.7903-0.74083-2.8046-0.74083-1.023-2.0285-1.023-1.2876 0-2.0285 1.023-0.73201 1.0142-0.73201 2.8046z"/>
  <path id="path289" style="" d="m594.72 322.9h1.4111q1.3229 2.0814 1.9756 4.0746 0.66146 1.9932 0.66146 3.9599 0 1.9756-0.66146 3.9776-0.65264 2.002-1.9756 4.0746h-1.4111q1.173-2.0196 1.7462-4.0128 0.58208-2.002 0.58208-4.0393t-0.58208-4.0217q-0.57327-1.9844-1.7462-4.0128z"/>
 </g>
 <g id="text100">
  <path id="path292" style="" d="m536.57 221.6q-0.975 0-1.4688 0.9625-0.4875 0.95625-0.4875 2.8812 0 1.9188 0.4875 2.8812 0.49375 0.95625 1.4688 0.95625 0.98125 0 1.4688-0.95625 0.49375-0.9625 0.49375-2.8812 0-1.925-0.49375-2.8812-0.4875-0.9625-1.4688-0.9625zm0-1q1.5688 0 2.3938 1.2438 0.83125 1.2375 0.83125 3.6 0 2.3562-0.83125 3.6-0.825 1.2375-2.3938 1.2375t-2.4-1.2375q-0.825-1.2438-0.825-3.6 0-2.3625 0.825-3.6 0.83125-1.2438 2.4-1.2438z"/>
  <path id="path294" style="" d="m542.24 229.04h2.0625v-7.1188l-2.2438 0.45v-1.15l2.2312-0.45h1.2625v8.2688h2.0625v1.0625h-5.375v-1.0625z"/>
  <path id="path296" style="" d="m552.87 221.6q-0.975 0-1.4688 0.9625-0.4875 0.95625-0.4875 2.8812 0 1.9188 0.4875 2.8812 0.49375 0.95625 1.4688 0.95625 0.98125 0 1.4688-0.95625 0.49375-0.9625 0.49375-2.8812 0-1.925-0.49375-2.8812-0.4875-0.9625-1.4688-0.9625zm0-1q1.5688 0 2.3938 1.2438 0.83125 1.2375 0.83125 3.6 0 2.3562-0.83125 3.6-0.825 1.2375-2.3938 1.2375t-2.4-1.2375q-0.825-1.2438-0.825-3.6 0-2.3625 0.825-3.6 0.83125-1.2438 2.4-1.2438z"/>
  <path id="path298" style="" d="m558.54 229.04h2.0625v-7.1188l-2.2438 0.45v-1.15l2.2312-0.45h1.2625v8.2688h2.0625v1.0625h-5.375v-1.0625z"/>
  <path id="path300" style="" d="m569.17 221.6q-0.975 0-1.4688 0.9625-0.4875 0.95625-0.4875 2.8812 0 1.9188 0.4875 2.8812 0.49375 0.95625 1.4688 0.95625 0.98125 0 1.4688-0.95625 0.49375-0.9625 0.49375-2.8812 0-1.925-0.49375-2.8812-0.4875-0.9625-1.4688-0.9625zm0-1q1.5688 0 2.3938 1.2438 0.83125 1.2375 0.83125 3.6 0 2.3562-0.83125 3.6-0.825 1.2375-2.3938 1.2375t-2.4-1.2375q-0.825-1.2438-0.825-3.6 0-2.3625 0.825-3.6 0.83125-1.2438 2.4-1.2438z"/>
  <path id="path302" style="" d="m536.57 237.6q-0.975 0-1.4688 0.9625-0.4875 0.95625-0.4875 2.8812 0 1.9188 0.4875 2.8812 0.49375 0.95625 1.4688 0.95625 0.98125 0 1.4688-0.95625 0.49375-0.9625 0.49375-2.8812 0-1.925-0.49375-2.8812-0.4875-0.9625-1.4688-0.9625zm0-1q1.5688 0 2.3938 1.2438 0.83125 1.2375 0.83125 3.6 0 2.3562-0.83125 3.6-0.825 1.2375-2.3938 1.2375t-2.4-1.2375q-0.825-1.2438-0.825-3.6 0-2.3625 0.825-3.6 0.83125-1.2438 2.4-1.2438z"/>
  <path id="path304" style="" d="m542.24 245.04h2.0625v-7.1188l-2.2438 0.45v-1.15l2.2312-0.45h1.2625v8.2688h2.0625v1.0625h-5.375v-1.0625z"/>
  <path id="path306" style="" d="m550.39 245.04h2.0625v-7.1188l-2.2438 0.45v-1.15l2.2312-0.45h1.2625v8.2688h2.0625v1.0625h-5.375v-1.0625z"/>
  <path id="path308" style="" d="m561.02 237.6q-0.975 0-1.4688 0.9625-0.4875 0.95625-0.4875 2.8812 0 1.9188 0.4875 2.8812 0.49375 0.95625 1.4688 0.95625 0.98125 0 1.4688-0.95625 0.49375-0.9625 0.49375-2.8812 0-1.925-0.49375-2.8812-0.4875-0.9625-1.4688-0.9625zm0-1q1.5688 0 2.3938 1.2438 0.83125 1.2375 0.83125 3.6 0 2.3562-0.83125 3.6-0.825 1.2375-2.3938 1.2375t-2.4-1.2375q-0.825-1.2438-0.825-3.6 0-2.3625 0.825-3.6 0.83125-1.2438 2.4-1.2438z"/>
  <path id="path310" style="" d="m566.69 245.04h2.0625v-7.1188l-2.2438 0.45v-1.15l2.2312-0.45h1.2625v8.2688h2.0625v1.0625h-5.375v-1.0625z"/>
  <path id="path312" style="" d="m534.09 261.04h2.0625v-7.1188l-2.2438 0.45v-1.15l2.2312-0.45h1.2625v8.2688h2.0625v1.0625h-5.375v-1.0625z"/>
  <path id="path314" style="" d="m544.72 253.6q-0.975 0-1.4688 0.9625-0.4875 0.95625-0.4875 2.8812 0 1.9188 0.4875 2.8812 0.49375 0.95625 1.4688 0.95625 0.98125 0 1.4688-0.95625 0.49375-0.9625 0.49375-2.8812 0-1.925-0.49375-2.8812-0.4875-0.9625-1.4688-0.9625zm0-1q1.5688 0 2.3938 1.2438 0.83125 1.2375 0.83125 3.6 0 2.3562-0.83125 3.6-0.825 1.2375-2.3938 1.2375t-2.4-1.2375q-0.825-1.2438-0.825-3.6 0-2.3625 0.825-3.6 0.83125-1.2438 2.4-1.2438z"/>
  <path id="path316" style="" d="m550.39 261.04h2.0625v-7.1188l-2.2438 0.45v-1.15l2.2312-0.45h1.2625v8.2688h2.0625v1.0625h-5.375v-1.0625z"/>
  <path id="path318" style="" d="m561.02 253.6q-0.975 0-1.4688 0.9625-0.4875 0.95625-0.4875 2.8812 0 1.9188 0.4875 2.8812 0.49375 0.95625 1.4688 0.95625 0.98125 0 1.4688-0.95625 0.49375-0.9625 0.49375-2.8812 0-1.925-0.49375-2.8812-0.4875-0.9625-1.4688-0.9625zm0-1q1.5688 0 2.3938 1.2438 0.83125 1.2375 0.83125 3.6 0 2.3562-0.83125 3.6-0.825 1.2375-2.3938 1.2375t-2.4-1.2375q-0.825-1.2438-0.825-3.6 0-2.3625 0.825-3.6 0.83125-1.2438 2.4-1.2438z"/>
  <path id="path320" style="" d="m566.69 261.04h2.0625v-7.1188l-2.2438 0.45v-1.15l2.2312-0.45h1.2625v8.2688h2.0625v1.0625h-5.375v-1.0625z"/>
 </g>
 <g id="text108">
  <path id="path323" style="" d="m541.07 592.85q-0.975 0-1.4688 0.9625-0.4875 0.95625-0.4875 2.8812 0 1.9188 0.4875 2.8812 0.49375 0.95625 1.4688 0.95625 0.98125 0 1.4688-0.95625 0.49375-0.9625 0.49375-2.8812 0-1.925-0.49375-2.8812-0.4875-0.9625-1.4688-0.9625zm0-1q1.5688 0 2.3938 1.2438 0.83125 1.2375 0.83125 3.6 0 2.3562-0.83125 3.6-0.825 1.2375-2.3938 1.2375t-2.4-1.2375q-0.825-1.2438-0.825-3.6 0-2.3625 0.825-3.6 0.83125-1.2438 2.4-1.2438z"/>
  <path id="path325" style="" d="m546.74 600.29h2.0625v-7.1188l-2.2438 0.45v-1.15l2.2312-0.45h1.2625v8.2688h2.0625v1.0625h-5.375v-1.0625z"/>
  <path id="path327" style="" d="m557.37 592.85q-0.975 0-1.4688 0.9625-0.4875 0.95625-0.4875 2.8812 0 1.9188 0.4875 2.8812 0.49375 0.95625 1.4688 0.95625 0.98125 0 1.4688-0.95625 0.49375-0.9625 0.49375-2.8812 0-1.925-0.49375-2.8812-0.4875-0.9625-1.4688-0.9625zm0-1q1.5688 0 2.3938 1.2438 0.83125 1.2375 0.83125 3.6 0 2.3562-0.83125 3.6-0.825 1.2375-2.3938 1.2375t-2.4-1.2375q-0.825-1.2438-0.825-3.6 0-2.3625 0.825-3.6 0.83125-1.2438 2.4-1.2438z"/>
  <path id="path329" style="" d="m563.04 600.29h2.0625v-7.1188l-2.2438 0.45v-1.15l2.2312-0.45h1.2625v8.2688h2.0625v1.0625h-5.375v-1.0625z"/>
  <path id="path331" style="" d="m573.67 592.85q-0.975 0-1.4688 0.9625-0.4875 0.95625-0.4875 2.8812 0 1.9188 0.4875 2.8812 0.49375 0.95625 1.4688 0.95625 0.98125 0 1.4688-0.95625 0.49375-0.9625 0.49375-2.8812 0-1.925-0.49375-2.8812-0.4875-0.9625-1.4688-0.9625zm0-1q1.5688 0 2.3938 1.2438 0.83125 1.2375 0.83125 3.6 0 2.3562-0.83125 3.6-0.825 1.2375-2.3938 1.2375t-2.4-1.2375q-0.825-1.2438-0.825-3.6 0-2.3625 0.825-3.6 0.83125-1.2438 2.4-1.2438z"/>
  <path id="path333" style="" d="m541.07 608.85q-0.975 0-1.4688 0.9625-0.4875 0.95625-0.4875 2.8812 0 1.9188 0.4875 2.8812 0.49375 0.95625 1.4688 0.95625 0.98125 0 1.4688-0.95625 0.49375-0.9625 0.49375-2.8812 0-1.925-0.49375-2.8812-0.4875-0.9625-1.4688-0.9625zm0-1q1.5688 0 2.3938 1.2438 0.83125 1.2375 0.83125 3.6 0 2.3562-0.83125 3.6-0.825 1.2375-2.3938 1.2375t-2.4-1.2375q-0.825-1.2438-0.825-3.6 0-2.3625 0.825-3.6 0.83125-1.2438 2.4-1.2438z"/>
  <path id="path335" style="" d="m546.74 616.29h2.0625v-7.1188l-2.2438 0.45v-1.15l2.2312-0.45h1.2625v8.2688h2.0625v1.0625h-5.375v-1.0625z"/>
  <path id="path337" style="" d="m554.89 616.29h2.0625v-7.1188l-2.2438 0.45v-1.15l2.2312-0.45h1.2625v8.2688h2.0625v1.0625h-5.375v-1.0625z"/>
  <path id="path339" style="" d="m565.52 608.85q-0.975 0-1.4688 0.9625-0.4875 0.95625-0.4875 2.8812 0 1.9188 0.4875 2.8812 0.49375 0.95625 1.4688 0.95625 0.98125 0 1.4688-0.95625 0.49375-0.9625 0.49375-2.8812 0-1.925-0.49375-2.8812-0.4875-0.9625-1.4688-0.9625zm0-1q1.5688 0 2.3938 1.2438 0.83125 1.2375 0.83125 3.6 0 2.3562-0.83125 3.6-0.825 1.2375-2.3938 1.2375t-2.4-1.2375q-0.825-1.2438-0.825-3.6 0-2.3625 0.825-3.6 0.83125-1.2438 2.4-1.2438z"/>
  <path id="path341" style="" d="m571.19 616.29h2.0625v-7.1188l-2.2438 0.45v-1.15l2.2312-0.45h1.2625v8.2688h2.0625v1.0625h-5.375v-1.0625z"/>
  <path id="path343" style="" d="m538.59 632.29h2.0625v-7.1188l-2.2438 0.45v-1.15l2.2312-0.45h1.2625v8.2688h2.0625v1.0625h-5.375v-1.0625z"/>
  <path id="path345" style="" d="m549.22 624.85q-0.975 0-1.4688 0.9625-0.4875 0.95625-0.4875 2.8812 0 1.9188 0.4875 2.8812 0.49375 0.95625 1.4688 0.95625 0.98125 0 1.4688-0.95625 0.49375-0.9625 0.49375-2.8812 0-1.925-0.49375-2.8812-0.4875-0.9625-1.4688-0.9625zm0-1q1.5688 0 2.3938 1.2438 0.83125 1.2375 0.83125 3.6 0 2.3562-0.83125 3.6-0.825 1.2375-2.3938 1.2375t-2.4-1.2375q-0.825-1.2438-0.825-3.6 0-2.3625 0.825-3.6 0.83125-1.2438 2.4-1.2438z"/>
  <path id="path347" style="" d="m554.89 632.29h2.0625v-7.1188l-2.2438 0.45v-1.15l2.2312-0.45h1.2625v8.2688h2.0625v1.0625h-5.375v-1.0625z"/>
  <path id="path349" style="" d="m565.52 624.85q-0.975 0-1.4688 0.9625-0.4875 0.95625-0.4875 2.8812 0 1.9188 0.4875 2.8812 0.49375 0.95625 1.4688 0.95625 0.98125 0 1.4688-0.95625 0.49375-0.9625 0.49375-2.8812 0-1.925-0.49375-2.8812-0.4875-0.9625-1.4688-0.9625zm0-1q1.5688 0 2.3938 1.2438 0.83125 1.2375 0.83125 3.6 0 2.3562-0.83125 3.6-0.825 1.2375-2.3938 1.2375t-2.4-1.2375q-0.825-1.2438-0.825-3.6 0-2.3625 0.825-3.6 0.83125-1.2438 2.4-1.2438z"/>
  <path id="path351" style="" d="m571.19 632.29h2.0625v-7.1188l-2.2438 0.45v-1.15l2.2312-0.45h1.2625v8.2688h2.0625v1.0625h-5.375v-1.0625z"/>
 </g>
 <g id="g116" transform="translate(-2.6229 -2.7258)">
  <path id="polygon118" fill="#fff" d="m260 468.75v-88.75h53.25l17.75 17.75v71z"/>
  <path id="polygon120" d="m260 468.75v-88.75h53.25l17.75 17.75v71z" stroke="#000" stroke-width="3" fill="none"/>
  <path id="polyline122" d="m313.25 380v17.75h17.75" stroke="#000" stroke-width="3" fill="none"/>
 </g>
 <g id="text124">
  <path id="path357" style="" d="m251.42 477.34v2.8046h3.3426v1.2612h-3.3426v5.3622q0 1.2083 0.32632 1.5522 0.33514 0.34396 1.3494 0.34396h1.6669v1.3582h-1.6669q-1.8785 0-2.5929-0.69673-0.71438-0.70556-0.71438-2.5576v-5.3622h-1.1906v-1.2612h1.1906v-2.8046h1.6316z"/>
  <path id="path359" style="" d="m265.36 484.68v0.79375h-7.4612q0.10584 1.6757 1.0054 2.5576 0.9084 0.87312 2.5224 0.87312 0.93486 0 1.808-0.2293 0.88194-0.22931 1.7462-0.68792v1.5346q-0.87313 0.37042-1.7904 0.56445-0.91722 0.19402-1.8609 0.19402-2.3636 0-3.7483-1.3758-1.3758-1.3758-1.3758-3.7218 0-2.4253 1.3053-3.8453 1.3141-1.4288 3.5366-1.4288 1.9932 0 3.1485 1.2876 1.1642 1.2788 1.1642 3.4837zm-1.6228-0.47625q-0.0176-1.3317-0.74965-2.1255-0.7232-0.79375-1.9226-0.79375-1.3582 0-2.1784 0.76729-0.81139 0.76729-0.93486 2.1608l5.7856-0.009z"/>
  <path id="path361" style="" d="m274.52 484.97q0-1.7639-0.73202-2.734-0.72319-0.97014-2.0373-0.97014-1.3053 0-2.0373 0.97014-0.7232 0.97014-0.7232 2.734 0 1.7551 0.7232 2.7252 0.73201 0.97014 2.0373 0.97014 1.3141 0 2.0373-0.97014 0.73202-0.97014 0.73202-2.7252zm1.6228 3.8276q0 2.5224-1.1201 3.7483-1.1201 1.2347-3.4308 1.2347-0.85548 0-1.614-0.13229-0.75847-0.12347-1.4728-0.38806v-1.5787q0.71438 0.38806 1.4111 0.57327 0.69674 0.18521 1.4199 0.18521 1.5963 0 2.3901-0.83785 0.79375-0.82903 0.79375-2.5135v-0.80257q-0.50271 0.87313-1.2876 1.3053-0.78493 0.43215-1.8785 0.43215-1.8168 0-2.928-1.3846t-1.1112-3.6689q0-2.2931 1.1112-3.6777t2.928-1.3846q1.0936 0 1.8785 0.43215 0.78493 0.43215 1.2876 1.3053v-1.4993h1.6228v8.6519z"/>
  <path id="path363" style="" d="m279.49 476.3h1.6228v13.723h-1.6228v-13.723z"/>
  <path id="path365" style="" d="m288.99 485.06q-1.9667 0-2.7252 0.44979-0.75847 0.44979-0.75847 1.5346 0 0.86431 0.56444 1.3758 0.57327 0.50271 1.5522 0.50271 1.3494 0 2.1608-0.9525 0.8202-0.96132 0.8202-2.5488v-0.3616h-1.614zm3.2367-0.67028v5.6356h-1.6228v-1.4993q-0.55562 0.89958-1.3846 1.3317-0.82902 0.42333-2.0285 0.42333-1.5169 0-2.4165-0.84666-0.89077-0.85549-0.89077-2.2842 0-1.6669 1.1112-2.5135 1.1201-0.84667 3.3338-0.84667h2.2754v-0.15875q0-1.1201-0.74083-1.7286-0.73201-0.61736-2.0638-0.61736-0.84666 0-1.6492 0.20285-0.80257 0.20285-1.5434 0.60854v-1.4993q0.89076-0.34396 1.7286-0.51153 0.83784-0.17639 1.6316-0.17639 2.1431 0 3.2015 1.1112 1.0583 1.1112 1.0583 3.369z"/>
  <path id="path367" style="" d="m295.57 476.3h1.6228v13.723h-1.6228v-13.723z"/>
  <path id="path369" style="" d="m305.07 485.06q-1.9667 0-2.7252 0.44979-0.75847 0.44979-0.75847 1.5346 0 0.86431 0.56444 1.3758 0.57326 0.50271 1.5522 0.50271 1.3494 0 2.1608-0.9525 0.82021-0.96132 0.82021-2.5488v-0.3616h-1.614zm3.2367-0.67028v5.6356h-1.6228v-1.4993q-0.55562 0.89958-1.3846 1.3317-0.82903 0.42333-2.0285 0.42333-1.5169 0-2.4165-0.84666-0.89076-0.85549-0.89076-2.2842 0-1.6669 1.1112-2.5135 1.1201-0.84667 3.3338-0.84667h2.2754v-0.15875q0-1.1201-0.74083-1.7286-0.73202-0.61736-2.0638-0.61736-0.84667 0-1.6492 0.20285-0.80257 0.20285-1.5434 0.60854v-1.4993q0.89077-0.34396 1.7286-0.51153 0.83785-0.17639 1.6316-0.17639 2.1431 0 3.2014 1.1112t1.0583 3.369z"/>
  <path id="path371" style="" d="m313.23 488.54v5.2387h-1.6316v-13.635h1.6316v1.4993q0.51153-0.88194 1.2876-1.3053 0.78493-0.43215 1.8697-0.43215 1.7992 0 2.9192 1.4288 1.1289 1.4288 1.1289 3.7571t-1.1289 3.7571q-1.1201 1.4287-2.9192 1.4287-1.0848 0-1.8697-0.42333-0.77611-0.43215-1.2876-1.3141zm5.521-3.4484q0-1.7904-0.74084-2.8046-0.73201-1.0231-2.0196-1.0231t-2.0285 1.0231q-0.73201 1.0142-0.73201 2.8046 0 1.7903 0.73201 2.8134 0.74084 1.0142 2.0285 1.0142 1.2876 0 2.0196-1.0142 0.74084-1.0231 0.74084-2.8134z"/>
  <path id="path373" style="" d="m323.35 487.78h1.8609v2.2401h-1.8609v-2.2401z"/>
  <path id="path375" style="" d="m337.09 484.06v5.9619h-1.6228v-5.909q0-1.4023-0.5468-2.099-0.54681-0.69674-1.6404-0.69674-1.3141 0-2.0726 0.83785-0.75848 0.83784-0.75848 2.2842v5.5827h-1.6316v-13.723h1.6316v5.3799q0.58209-0.89077 1.367-1.3317 0.79375-0.44097 1.8256-0.44097 1.7022 0 2.5753 1.0583 0.87313 1.0495 0.87313 3.0956z"/>
  <path id="path377" style="" d="m251.97 498.9q-1.1818 2.0285-1.7551 4.0128-0.57327 1.9844-0.57327 4.0217t0.57327 4.0393q0.58208 1.9932 1.7551 4.0128h-1.4111q-1.3229-2.0726-1.9844-4.0746-0.65264-2.002-0.65264-3.9776 0-1.9667 0.65264-3.9599t1.9844-4.0746h1.4111z"/>
  <path id="path379" style="" d="m260.13 498.88v1.3494h-1.5522q-0.87312 0-1.2171 0.35278-0.33514 0.35277-0.33514 1.27v0.87313h2.6723v1.2612h-2.6723v8.6166h-1.6316v-8.6166h-1.5522v-1.2612h1.5522v-0.68792q0-1.6492 0.76729-2.3989 0.7673-0.75848 2.4342-0.75848h1.5346z"/>
  <path id="path381" style="" d="m265.3 503.86q-1.3053 0-2.0638 1.0231-0.75847 1.0142-0.75847 2.7869t0.74965 2.7958q0.75847 1.0142 2.0726 1.0142 1.2964 0 2.0549-1.0231 0.75847-1.023 0.75847-2.7869 0-1.7551-0.75847-2.7781-0.75848-1.0319-2.0549-1.0319zm0-1.3758q2.1167 0 3.3249 1.3758 1.2083 1.3758 1.2083 3.81 0 2.4253-1.2083 3.81-1.2083 1.3758-3.3249 1.3758-2.1255 0-3.3338-1.3758-1.1994-1.3847-1.1994-3.81 0-2.4342 1.1994-3.81 1.2083-1.3758 3.3338-1.3758z"/>
  <path id="path383" style="" d="m278.24 504.24q-0.2734-0.15875-0.59972-0.2293-0.3175-0.0794-0.70556-0.0794-1.3758 0-2.1167 0.89958-0.73202 0.89077-0.73202 2.5665v5.2035h-1.6316v-9.8778h1.6316v1.5346q0.51153-0.89958 1.3317-1.3317 0.82021-0.44097 1.9932-0.44097 0.16757 0 0.37042 0.0265 0.20284 0.0176 0.44979 0.0617l0.009 1.6669z"/>
  <path id="path385" style="" d="m285.37 504.24q-0.2734-0.15875-0.59972-0.2293-0.3175-0.0794-0.70556-0.0794-1.3758 0-2.1167 0.89958-0.73201 0.89077-0.73201 2.5665v5.2035h-1.6316v-9.8778h1.6316v1.5346q0.51152-0.89958 1.3317-1.3317 0.82021-0.44097 1.9932-0.44097 0.16757 0 0.37042 0.0265 0.20285 0.0176 0.44979 0.0617l0.009 1.6669z"/>
  <path id="path387" style="" d="m291.58 507.64q-1.9667 0-2.7252 0.44979-0.75847 0.44979-0.75847 1.5346 0 0.8643 0.56445 1.3758 0.57326 0.5027 1.5522 0.5027 1.3494 0 2.1608-0.95249 0.82021-0.96132 0.82021-2.5488v-0.3616h-1.614zm3.2367-0.67027v5.6356h-1.6228v-1.4993q-0.55563 0.89958-1.3847 1.3317-0.82902 0.42334-2.0285 0.42334-1.517 0-2.4165-0.84667-0.89076-0.85548-0.89076-2.2842 0-1.6669 1.1112-2.5135 1.1201-0.84667 3.3337-0.84667h2.2754v-0.15875q0-1.1201-0.74084-1.7286-0.73201-0.61737-2.0637-0.61737-0.84667 0-1.6492 0.20285-0.80257 0.20285-1.5434 0.60854v-1.4993q0.89076-0.34396 1.7286-0.51153 0.83785-0.17639 1.6316-0.17639 2.1431 0 3.2014 1.1112t1.0583 3.369zm-2.9633-8.8106h1.7551l-2.8751 3.3161h-1.3494l2.4694-3.3161z"/>
  <path id="path389" style="" d="m304.46 503.02v1.5346q-0.68791-0.35278-1.4288-0.52917-0.74083-0.17638-1.5346-0.17638-1.2083 0-1.8168 0.37041-0.59972 0.37042-0.59972 1.1112 0 0.56444 0.43215 0.89076 0.43215 0.3175 1.7374 0.60854l0.55562 0.12348q1.7286 0.37041 2.4518 1.0495 0.73201 0.67028 0.73201 1.8785 0 1.3758-1.0936 2.1784-1.0848 0.80257-2.9898 0.80257-0.79375 0-1.658-0.15875-0.85549-0.14993-1.808-0.45861v-1.6757q0.89959 0.46743 1.7727 0.70556 0.87312 0.2293 1.7286 0.2293 1.1465 0 1.7639-0.38805 0.61736-0.39687 0.61736-1.1112 0-0.66146-0.4498-1.0142-0.44097-0.35278-1.9491-0.6791l-0.56444-0.13229q-1.5081-0.3175-2.1784-0.97014-0.67028-0.66146-0.67028-1.808 0-1.3935 0.98778-2.152 0.98777-0.75847 2.8046-0.75847 0.89958 0 1.6933 0.13229 0.79375 0.1323 1.464 0.39688z"/>
  <path id="path391" style="" d="m312.59 498.88v1.3494h-1.5522q-0.87312 0-1.2171 0.35278-0.33514 0.35277-0.33514 1.27v0.87313h2.6723v1.2612h-2.6723v8.6166h-1.6316v-8.6166h-1.5522v-1.2612h1.5522v-0.68792q0-1.6492 0.76729-2.3989 0.76729-0.75848 2.4342-0.75848h1.5346z"/>
  <path id="path393" style="" d="m318.42 507.64q-1.9667 0-2.7252 0.44979-0.75847 0.44979-0.75847 1.5346 0 0.8643 0.56445 1.3758 0.57326 0.5027 1.5522 0.5027 1.3494 0 2.1608-0.95249 0.82021-0.96132 0.82021-2.5488v-0.3616h-1.614zm3.2367-0.67027v5.6356h-1.6228v-1.4993q-0.55563 0.89958-1.3847 1.3317-0.82902 0.42334-2.0285 0.42334-1.5169 0-2.4165-0.84667-0.89076-0.85548-0.89076-2.2842 0-1.6669 1.1112-2.5135 1.1201-0.84667 3.3337-0.84667h2.2754v-0.15875q0-1.1201-0.74084-1.7286-0.73201-0.61737-2.0637-0.61737-0.84667 0-1.6492 0.20285-0.80257 0.20285-1.5434 0.60854v-1.4993q0.89076-0.34396 1.7286-0.51153 0.83785-0.17639 1.6316-0.17639 2.1431 0 3.2015 1.1112 1.0583 1.1112 1.0583 3.369zm-2.9633-8.8106h1.7551l-2.8751 3.3161h-1.3494l2.4694-3.3161z"/>
  <path id="path395" style="" d="m325.01 502.72h1.6228v10.054q0 1.8874-0.72319 2.734-0.71438 0.84666-2.3107 0.84666h-0.61736v-1.3758h0.43215q0.92604 0 1.2612-0.43215 0.33514-0.42333 0.33514-1.7727v-10.054zm0-3.8453h1.6228v2.0549h-1.6228v-2.0549z"/>
  <path id="path397" style="" d="m330.02 498.88h1.6228v13.723h-1.6228v-13.723z"/>
  <path id="path399" style="" d="m334.78 498.9h1.4111q1.3229 2.0814 1.9756 4.0746 0.66146 1.9932 0.66146 3.9599 0 1.9756-0.66146 3.9776-0.65264 2.002-1.9756 4.0746h-1.4111q1.173-2.0196 1.7462-4.0128 0.58208-2.002 0.58208-4.0393t-0.58208-4.0217q-0.57327-1.9844-1.7462-4.0128z"/>
 </g>
 <g id="g130" stroke="#000" stroke-width="3" fill="none" transform="translate(-2.6229 -2.7258)">
  <path id="path132" d="m342.46 419.76c44.5-4.376 112.14-110.62 162-142.62"/>
  <path id="polyline134" d="m501.56 284.94 5.715-9.61-11.117 1.194"/>
 </g>
 <g id="g136" stroke="#000" stroke-width="3" fill="none" transform="translate(-2.6229 -2.7258)">
  <path id="path138" d="m341.94 440.68c44.5 15.624 112.6 112.33 166.83 144.53"/>
  <path id="polyline140" d="m500.5 586.11 11.152 0.806-6.046-9.404"/>
 </g>
 <g id="text142">
  <path id="path404" style="" d="m264.03 107.76v2.8046h3.3426v1.2612h-3.3426v5.3622q0 1.2083 0.32632 1.5522 0.33513 0.34396 1.3494 0.34396h1.6669v1.3582h-1.6669q-1.8785 0-2.5929-0.69674-0.71438-0.70555-0.71438-2.5576v-5.3622h-1.1906v-1.2612h1.1906v-2.8046h1.6316z"/>
  <path id="path406" style="" d="m277.97 115.1v0.79375h-7.4612q0.10583 1.6757 1.0054 2.5576 0.9084 0.87313 2.5224 0.87313 0.93486 0 1.808-0.22931 0.88194-0.2293 1.7462-0.68791v1.5346q-0.87313 0.37041-1.7904 0.56444-0.91722 0.19403-1.8609 0.19403-2.3636 0-3.7483-1.3758-1.3758-1.3758-1.3758-3.7218 0-2.4254 1.3053-3.8453 1.3141-1.4287 3.5366-1.4287 1.9932 0 3.1485 1.2876 1.1642 1.2788 1.1642 3.4837zm-1.6228-0.47625q-0.0176-1.3317-0.74966-2.1255-0.72319-0.79375-1.9226-0.79375-1.3582 0-2.1784 0.76729-0.81139 0.76729-0.93486 2.1608l5.7856-0.009zm-1.57-8.62h1.7551l-2.8751 3.3161h-1.3494l2.47-3.32z"/>
  <path id="path408" style="" d="m287.13 115.39q0-1.7639-0.73201-2.734-0.72319-0.97014-2.0373-0.97014-1.3053 0-2.0373 0.97014-0.72319 0.97013-0.72319 2.734 0 1.7551 0.72319 2.7252 0.73202 0.97013 2.0373 0.97013 1.3141 0 2.0373-0.97013 0.73201-0.97014 0.73201-2.7252zm1.6228 3.8276q0 2.5224-1.1201 3.7483-1.1201 1.2347-3.4308 1.2347-0.85548 0-1.614-0.13229-0.75848-0.12347-1.4728-0.38805v-1.5787q0.71437 0.38805 1.4111 0.57326t1.4199 0.18521q1.5963 0 2.3901-0.83785 0.79375-0.82902 0.79375-2.5135v-0.80257q-0.5027 0.87312-1.2876 1.3053-0.78493 0.43216-1.8785 0.43216-1.8168 0-2.928-1.3847-1.1112-1.3846-1.1112-3.6689 0-2.293 1.1112-3.6777 1.1112-1.3846 2.928-1.3846 1.0936 0 1.8785 0.43215 0.78493 0.43215 1.2876 1.3053v-1.4993h1.6228v8.6519z"/>
  <path id="path410" style="" d="m292.09 106.72h1.6228v13.723h-1.6228v-13.723z"/>
  <path id="path412" style="" d="m301.59 115.48q-1.9667 0-2.7252 0.4498-0.75847 0.44979-0.75847 1.5346 0 0.8643 0.56444 1.3758 0.57326 0.50271 1.5522 0.50271 1.3494 0 2.1608-0.9525 0.82021-0.96132 0.82021-2.5488v-0.3616h-1.614zm3.2367-0.67027v5.6356h-1.6228v-1.4993q-0.55562 0.89958-1.3846 1.3317-0.82903 0.42333-2.0285 0.42333-1.5169 0-2.4165-0.84667-0.89076-0.85548-0.89076-2.2842 0-1.6669 1.1112-2.5135 1.1201-0.84666 3.3338-0.84666h2.2754v-0.15875q0-1.1201-0.74083-1.7286-0.73202-0.61736-2.0638-0.61736-0.84667 0-1.6492 0.20284-0.80257 0.20285-1.5434 0.60854v-1.4993q0.89076-0.34396 1.7286-0.51153 0.83785-0.17638 1.6316-0.17638 2.1431 0 3.2014 1.1112t1.0583 3.369z"/>
  <path id="path414" style="" d="m308.18 106.72h1.6228v13.723h-1.6228v-13.723z"/>
  <path id="path416" style="" d="m317.68 115.48q-1.9667 0-2.7252 0.4498-0.75848 0.44979-0.75848 1.5346 0 0.8643 0.56445 1.3758 0.57326 0.50271 1.5522 0.50271 1.3494 0 2.1608-0.9525 0.82021-0.96132 0.82021-2.5488v-0.3616h-1.614zm3.2367-0.67027v5.6356h-1.6228v-1.4993q-0.55563 0.89958-1.3846 1.3317-0.82903 0.42333-2.0285 0.42333-1.517 0-2.4165-0.84667-0.89076-0.85548-0.89076-2.2842 0-1.6669 1.1112-2.5135 1.1201-0.84666 3.3337-0.84666h2.2754v-0.15875q0-1.1201-0.74084-1.7286-0.73201-0.61736-2.0637-0.61736-0.84667 0-1.6492 0.20284-0.80257 0.20285-1.5434 0.60854v-1.4993q0.89077-0.34396 1.7286-0.51153 0.83785-0.17638 1.6316-0.17638 2.1431 0 3.2014 1.1112t1.0583 3.369z"/>
  <path id="path418" style="" d="m325.84 118.96v5.2387h-1.6316v-13.635h1.6316v1.4993q0.51153-0.88194 1.2876-1.3053 0.78492-0.43215 1.8697-0.43215 1.7992 0 2.9192 1.4287 1.1289 1.4288 1.1289 3.7571t-1.1289 3.7571q-1.1201 1.4288-2.9192 1.4288-1.0848 0-1.8697-0.42333-0.77611-0.43216-1.2876-1.3141zm5.521-3.4484q0-1.7903-0.74083-2.8046-0.73201-1.023-2.0196-1.023t-2.0285 1.023q-0.73201 1.0142-0.73201 2.8046t0.73201 2.8134q0.74083 1.0142 2.0285 1.0142 1.2876 0 2.0196-1.0142 0.74083-1.023 0.74083-2.8134z"/>
  <path id="path420" style="" d="m267.63 129.32q-1.1818 2.0285-1.7551 4.0128-0.57327 1.9844-0.57327 4.0217t0.57327 4.0393q0.58208 1.9932 1.7551 4.0128h-1.4111q-1.3229-2.0726-1.9844-4.0746-0.65263-2.002-0.65263-3.9776 0-1.9667 0.65263-3.9599 0.65264-1.9932 1.9844-4.0746h1.4111z"/>
  <path id="path422" style="" d="m278.48 135.04q0.60854-1.0936 1.4552-1.614 0.84666-0.52034 1.9932-0.52034 1.5434 0 2.3812 1.0848 0.83785 1.076 0.83785 3.0692v5.9619h-1.6316v-5.909q0-1.4199-0.50271-2.1078-0.50271-0.68792-1.5346-0.68792-1.2612 0-1.9932 0.83785-0.73201 0.83785-0.73201 2.2842v5.5827h-1.6316v-5.909q0-1.4288-0.50271-2.1078-0.50271-0.68792-1.5522-0.68792-1.2435 0-1.9756 0.84667-0.73202 0.83785-0.73202 2.2754v5.5827h-1.6316v-9.8778h1.6316v1.5346q0.55563-0.9084 1.3317-1.3406 0.77611-0.43215 1.8433-0.43215 1.076 0 1.8256 0.5468 0.75847 0.5468 1.1201 1.5875z"/>
  <path id="path424" style="" d="m292.22 134.28q-1.3053 0-2.0638 1.023-0.75847 1.0142-0.75847 2.7869t0.74965 2.7958q0.75847 1.0142 2.0726 1.0142 1.2964 0 2.0549-1.0231 0.75847-1.023 0.75847-2.7869 0-1.7551-0.75847-2.7781-0.75848-1.0319-2.0549-1.0319zm0-1.3758q2.1167 0 3.3249 1.3758 1.2083 1.3758 1.2083 3.81 0 2.4254-1.2083 3.81-1.2083 1.3758-3.3249 1.3758-2.1255 0-3.3338-1.3758-1.1994-1.3846-1.1994-3.81 0-2.4342 1.1994-3.81 1.2083-1.3758 3.3338-1.3758z"/>
  <path id="path426" style="" d="m305.93 134.65v-5.3446h1.6228v13.723h-1.6228v-1.4817q-0.51153 0.88194-1.2965 1.3141-0.77611 0.42333-1.8697 0.42333-1.7903 0-2.9192-1.4288-1.1201-1.4288-1.1201-3.7571t1.1201-3.7571q1.1289-1.4287 2.9192-1.4287 1.0936 0 1.8697 0.43215 0.78493 0.42333 1.2965 1.3053zm-5.5298 3.4484q0 1.7904 0.73202 2.8134 0.74083 1.0142 2.0285 1.0142 1.2876 0 2.0285-1.0142 0.74084-1.023 0.74084-2.8134 0-1.7903-0.74084-2.8046-0.74083-1.023-2.0285-1.023-1.2876 0-2.0285 1.023-0.73202 1.0142-0.73202 2.8046z"/>
  <path id="path428" style="" d="m310.73 139.13v-5.9796h1.6228v5.9178q0 1.4023 0.54681 2.1078 0.5468 0.69674 1.6404 0.69674 1.3141 0 2.0726-0.83785 0.76729-0.83784 0.76729-2.2842v-5.6003h1.6228v9.8778h-1.6228v-1.517q-0.5909 0.89959-1.3758 1.3406-0.77611 0.43215-1.808 0.43215-1.7022 0-2.5841-1.0583-0.88194-1.0583-0.88194-3.0956zm4.0834-6.2177z"/>
  <path id="path430" style="" d="m322.36 129.3h1.6228v13.723h-1.6228v-13.723z"/>
  <path id="path432" style="" d="m327.12 129.32h1.4111q1.3229 2.0814 1.9756 4.0746 0.66146 1.9932 0.66146 3.9599 0 1.9756-0.66146 3.9776-0.65264 2.002-1.9756 4.0746h-1.4111q1.173-2.0196 1.7462-4.0128 0.58208-2.002 0.58208-4.0393t-0.58208-4.0217q-0.57327-1.9844-1.7462-4.0128z"/>
 </g>
</svg>
