<?xml version="1.0" encoding="UTF-8" standalone="no"?>
<svg id="svg2" xmlns:rdf="http://www.w3.org/1999/02/22-rdf-syntax-ns#" xmlns="http://www.w3.org/2000/svg" viewBox="249 198 609.52603 327.25058" height="17.224cm" width="30.824cm" version="1.1" xmlns:cc="http://creativecommons.org/ns#" xmlns:dc="http://purl.org/dc/elements/1.1/">
 <metadata id="metadata134">
  <rdf:RDF>
   <cc:Work rdf:about="">
    <dc:format>image/svg+xml</dc:format>
    <dc:type rdf:resource="http://purl.org/dc/dcmitype/StillImage"/>
   </cc:Work>
  </rdf:RDF>
 </metadata>
 <g id="g4" transform="translate(-1.5446 -7.1673)">
  <path id="polygon6" fill="#fff" d="m260 288.75v-88.75h53.25l17.75 17.75v71z"/>
  <path id="polygon8" d="m260 288.75v-88.75h53.25l17.75 17.75v71z" stroke="#000" stroke-width="3" fill="none"/>
  <path id="polyline10" d="m313.25 200v17.75h17.75" stroke="#000" stroke-width="3" fill="none"/>
 </g>
 <g id="g12" transform="translate(-1.5446 -7.1673)">
  <path id="polygon14" fill="#fff" d="m260 488.75v-88.75h53.25l17.75 17.75v71z"/>
  <path id="polygon16" d="m260 488.75v-88.75h53.25l17.75 17.75v71z" stroke="#000" stroke-width="3" fill="none"/>
  <path id="polyline18" d="m313.25 400v17.75h17.75" stroke="#000" stroke-width="3" fill="none"/>
 </g>
 <g id="g20" transform="translate(-1.5446 -7.1673)">
  <path id="polygon22" fill="#1e90ff" d="m520 288.75v-88.75h53.25l17.75 17.75v71z"/>
  <path id="polygon24" d="m520 288.75v-88.75h53.25l17.75 17.75v71z" stroke="#000" stroke-width="3" fill="none"/>
  <path id="polyline26" d="m573.25 200v17.75h17.75" stroke="#000" stroke-width="3" fill="none"/>
 </g>
 <g id="g28" transform="translate(-1.5446 -7.1673)">
  <path id="polygon30" fill="#1e90ff" d="m524.5 484.37v-88.75h53.25l17.75 17.75v71z"/>
  <path id="polygon32" d="m524.5 484.37v-88.75h53.25l17.75 17.75v71z" stroke="#000" stroke-width="3" fill="none"/>
  <path id="polyline34" d="m577.75 395.62v17.75h17.75" stroke="#000" stroke-width="3" fill="none"/>
 </g>
 <g id="g36" transform="translate(-1.5446 -7.1673)">
  <path id="polygon38" fill="#90ee90" d="m780 388.75v-88.75h53.25l17.75 17.75v71z"/>
  <path id="polygon40" d="m780 388.75v-88.75h53.25l17.75 17.75v71z" stroke="#000" stroke-width="3" fill="none"/>
  <path id="polyline42" d="m833.25 300v17.75h17.75" stroke="#000" stroke-width="3" fill="none"/>
 </g>
 <g id="g44" stroke="#000" stroke-width="3" fill="none" transform="translate(-1.5446 -7.1673)">
  <path id="line46" d="m601.81 262.19 161.12 61.97"/>
  <path id="polyline48" d="m754.93 326.44 11.128-1.077-7.539-8.257"/>
 </g>
 <g id="g50" stroke="#000" stroke-width="3" fill="none" transform="translate(-1.5446 -7.1673)">
  <path id="line52" d="m606.36 422.65 156.49-58.57"/>
  <path id="polyline54" d="m758.38 371.09 7.613-8.188-11.118-1.178"/>
 </g>
 <g id="g56" stroke="#000" stroke-width="3" fill="none" transform="translate(-1.5446 -7.1673)">
  <path id="path58" d="m341.65 224.01c34-15.002 132.54-11.583 161.3-0.284"/>
  <path id="polyline60" d="m494.94 225.95 11.136-0.997-7.479-8.311"/>
 </g>
 <g id="g62" stroke="#000" stroke-width="3" fill="none" transform="translate(-1.5446 -7.1673)">
  <path id="path64" d="m341.65 464.74c34 15 137.27 12.893 166.19-0.529"/>
  <path id="polyline66" d="m503.92 471.54 6.965-8.746-11.176-0.325"/>
 </g>
 <g id="text68">
  <path id="path92" style="" d="m261.96 297.6q0.60854-1.0936 1.4552-1.614 0.84666-0.52035 1.9932-0.52035 1.5434 0 2.3812 1.0848 0.83785 1.076 0.83785 3.0692v5.9619h-1.6316v-5.909q0-1.4199-0.50271-2.1078-0.50271-0.68792-1.5346-0.68792-1.2612 0-1.9932 0.83785-0.73201 0.83784-0.73201 2.2842v5.5827h-1.6316v-5.909q0-1.4288-0.50271-2.1078-0.50271-0.68792-1.5522-0.68792-1.2435 0-1.9756 0.84667-0.73201 0.83784-0.73201 2.2754v5.5827h-1.6316v-9.8778h1.6316v1.5346q0.55563-0.9084 1.3317-1.3406 0.77611-0.43215 1.8433-0.43215 1.076 0 1.8256 0.54681 0.75847 0.5468 1.1201 1.5875z"/>
  <path id="path94" style="" d="m275.7 296.84q-1.3053 0-2.0638 1.0231-0.75847 1.0142-0.75847 2.7869t0.74965 2.7958q0.75847 1.0142 2.0726 1.0142 1.2964 0 2.0549-1.0231 0.75847-1.023 0.75847-2.7869 0-1.7551-0.75847-2.7781-0.75848-1.0319-2.0549-1.0319zm0-1.3758q2.1167 0 3.3249 1.3758 1.2083 1.3758 1.2083 3.81 0 2.4253-1.2083 3.81-1.2083 1.3758-3.3249 1.3758-2.1255 0-3.3338-1.3758-1.1994-1.3847-1.1994-3.81 0-2.4342 1.1994-3.81 1.2083-1.3758 3.3338-1.3758z"/>
  <path id="path96" style="" d="m289.41 297.2v-5.3446h1.6228v13.723h-1.6228v-1.4817q-0.51153 0.88194-1.2965 1.3141-0.77611 0.42334-1.8697 0.42334-1.7904 0-2.9192-1.4288-1.1201-1.4288-1.1201-3.7571t1.1201-3.7571q1.1289-1.4288 2.9192-1.4288 1.0936 0 1.8697 0.43215 0.78493 0.42334 1.2965 1.3053zm-5.5298 3.4484q0 1.7903 0.73201 2.8134 0.74084 1.0142 2.0285 1.0142 1.2876 0 2.0285-1.0142 0.74084-1.0231 0.74084-2.8134 0-1.7904-0.74084-2.8046-0.74083-1.023-2.0285-1.023-1.2876 0-2.0285 1.023-0.73201 1.0142-0.73201 2.8046z"/>
  <path id="path98" style="" d="m294.21 301.68v-5.9796h1.6228v5.9178q0 1.4023 0.5468 2.1078 0.54681 0.69674 1.6404 0.69674 1.3141 0 2.0726-0.83785 0.76729-0.83785 0.76729-2.2842v-5.6003h1.6228v9.8778h-1.6228v-1.5169q-0.5909 0.89958-1.3758 1.3406-0.77611 0.43216-1.808 0.43216-1.7022 0-2.5841-1.0583-0.88194-1.0583-0.88194-3.0956zm4.0834-6.2177z"/>
  <path id="path100" style="" d="m305.84 291.86h1.6228v13.723h-1.6228v-13.723z"/>
  <path id="path102" style="" d="m311.39 304.08h2.9104v-10.045l-3.1662 0.635v-1.6228l3.1485-0.635h1.7815v11.668h2.9104v1.4993h-7.5847v-1.4993z"/>
  <path id="path104" style="" d="m322.58 303.34h1.8609v2.2401h-1.8609v-2.2401z"/>
  <path id="path106" style="" d="m335.21 296.08v1.517q-0.68792-0.37924-1.3846-0.56445-0.68792-0.19403-1.3935-0.19403-1.5787 0-2.4518 1.0054-0.87313 0.9966-0.87313 2.8046t0.87313 2.8134q0.87312 0.9966 2.4518 0.9966 0.70555 0 1.3935-0.18521 0.69673-0.19403 1.3846-0.57327v1.4993q-0.6791 0.3175-1.4111 0.47625-0.72319 0.15875-1.5434 0.15875-2.2313 0-3.5454-1.4023t-1.3141-3.7835q0-2.4165 1.3229-3.8012 1.3317-1.3846 3.6424-1.3846 0.74965 0 1.464 0.15875 0.71437 0.14993 1.3846 0.45861z"/>
  <path id="path108" style="" d="m253.05 314.46q-1.1818 2.0285-1.7551 4.0128-0.57326 1.9844-0.57326 4.0217t0.57326 4.0393q0.58209 1.9932 1.7551 4.0128h-1.4111q-1.3229-2.0726-1.9844-4.0746-0.65264-2.002-0.65264-3.9776 0-1.9667 0.65264-3.9599t1.9844-4.0746h1.4111z"/>
  <path id="path110" style="" d="m261.21 314.44v1.3494h-1.5522q-0.87313 0-1.2171 0.35278-0.33514 0.35278-0.33514 1.27v0.87312h2.6723v1.2612h-2.6723v8.6166h-1.6316v-8.6166h-1.5522v-1.2612h1.5522v-0.68792q0-1.6492 0.76729-2.3989 0.76729-0.75847 2.4342-0.75847h1.5346z"/>
  <path id="path112" style="" d="m266.38 319.42q-1.3053 0-2.0637 1.023-0.75847 1.0142-0.75847 2.7869t0.74965 2.7958q0.75847 1.0142 2.0726 1.0142 1.2965 0 2.0549-1.0231 0.75847-1.023 0.75847-2.7869 0-1.7551-0.75847-2.7781-0.75847-1.0319-2.0549-1.0319zm0-1.3758q2.1167 0 3.3249 1.3758 1.2083 1.3758 1.2083 3.81 0 2.4254-1.2083 3.81-1.2083 1.3758-3.3249 1.3758-2.1255 0-3.3337-1.3758-1.1994-1.3846-1.1994-3.81 0-2.4342 1.1994-3.81 1.2083-1.3758 3.3337-1.3758z"/>
  <path id="path114" style="" d="m279.32 319.8q-0.27341-0.15875-0.59973-0.2293-0.3175-0.0794-0.70555-0.0794-1.3758 0-2.1167 0.89958-0.73201 0.89077-0.73201 2.5665v5.2035h-1.6316v-9.8778h1.6316v1.5346q0.51153-0.89958 1.3317-1.3317 0.8202-0.44097 1.9932-0.44097 0.16757 0 0.37041 0.0265 0.20285 0.0176 0.4498 0.0617l0.009 1.6669z"/>
  <path id="path116" style="" d="m286.45 319.8q-0.2734-0.15875-0.59972-0.2293-0.3175-0.0794-0.70556-0.0794-1.3758 0-2.1167 0.89958-0.73202 0.89077-0.73202 2.5665v5.2035h-1.6316v-9.8778h1.6316v1.5346q0.51153-0.89958 1.3317-1.3317 0.82021-0.44097 1.9932-0.44097 0.16757 0 0.37042 0.0265 0.20284 0.0176 0.44979 0.0617l0.009 1.6669z"/>
  <path id="path118" style="" d="m292.66 323.2q-1.9667 0-2.7252 0.4498-0.75847 0.44979-0.75847 1.5346 0 0.8643 0.56444 1.3758 0.57327 0.50271 1.5522 0.50271 1.3494 0 2.1608-0.9525 0.8202-0.96132 0.8202-2.5488v-0.3616h-1.614zm3.2367-0.67027v5.6356h-1.6228v-1.4993q-0.55562 0.89958-1.3846 1.3317-0.82902 0.42333-2.0285 0.42333-1.5169 0-2.4165-0.84667-0.89077-0.85548-0.89077-2.2842 0-1.6669 1.1112-2.5135 1.1201-0.84666 3.3338-0.84666h2.2754v-0.15875q0-1.1201-0.74083-1.7286-0.73201-0.61736-2.0638-0.61736-0.84666 0-1.6492 0.20284-0.80257 0.20285-1.5434 0.60855v-1.4993q0.89076-0.34396 1.7286-0.51153 0.83784-0.17638 1.6316-0.17638 2.1431 0 3.2015 1.1112 1.0583 1.1112 1.0583 3.369zm-2.9633-8.8106h1.7551l-2.8751 3.3161h-1.3494l2.4694-3.3161z"/>
  <path id="path120" style="" d="m305.54 318.57v1.5346q-0.68792-0.35277-1.4288-0.52916-0.74083-0.17639-1.5346-0.17639-1.2083 0-1.8168 0.37041-0.59972 0.37042-0.59972 1.1112 0 0.56445 0.43215 0.89077 0.43215 0.3175 1.7374 0.60854l0.55562 0.12347q1.7286 0.37042 2.4518 1.0495 0.73202 0.67028 0.73202 1.8785 0 1.3758-1.0936 2.1784-1.0848 0.80257-2.9898 0.80257-0.79375 0-1.6581-0.15875-0.85548-0.14993-1.808-0.45861v-1.6757q0.89958 0.46743 1.7727 0.70555 0.87312 0.22931 1.7286 0.22931 1.1465 0 1.7639-0.38806 0.61736-0.39687 0.61736-1.1112 0-0.66145-0.44979-1.0142-0.44097-0.35278-1.9491-0.6791l-0.56445-0.13229q-1.5081-0.3175-2.1784-0.97014-0.67027-0.66145-0.67027-1.808 0-1.3935 0.98777-2.1519 0.98778-0.75847 2.8046-0.75847 0.89958 0 1.6933 0.13229 0.79375 0.13229 1.464 0.39687z"/>
  <path id="path122" style="" d="m313.66 314.44v1.3494h-1.5522q-0.87313 0-1.2171 0.35278-0.33514 0.35278-0.33514 1.27v0.87312h2.6723v1.2612h-2.6723v8.6166h-1.6316v-8.6166h-1.5522v-1.2612h1.5522v-0.68792q0-1.6492 0.76729-2.3989 0.76729-0.75847 2.4342-0.75847h1.5346z"/>
  <path id="path124" style="" d="m319.5 323.2q-1.9667 0-2.7252 0.4498-0.75847 0.44979-0.75847 1.5346 0 0.8643 0.56444 1.3758 0.57327 0.50271 1.5522 0.50271 1.3494 0 2.1608-0.9525 0.82021-0.96132 0.82021-2.5488v-0.3616h-1.614zm3.2367-0.67027v5.6356h-1.6228v-1.4993q-0.55562 0.89958-1.3846 1.3317-0.82903 0.42333-2.0285 0.42333-1.5169 0-2.4165-0.84667-0.89077-0.85548-0.89077-2.2842 0-1.6669 1.1112-2.5135 1.1201-0.84666 3.3338-0.84666h2.2754v-0.15875q0-1.1201-0.74083-1.7286-0.73201-0.61736-2.0638-0.61736-0.84666 0-1.6492 0.20284-0.80257 0.20285-1.5434 0.60855v-1.4993q0.89076-0.34396 1.7286-0.51153 0.83784-0.17638 1.6316-0.17638 2.1431 0 3.2015 1.1112 1.0583 1.1112 1.0583 3.369zm-2.9633-8.8106h1.7551l-2.8751 3.3161h-1.3494l2.4694-3.3161z"/>
  <path id="path126" style="" d="m326.09 318.28h1.6228v10.054q0 1.8874-0.72319 2.734-0.71438 0.84666-2.3107 0.84666h-0.61736v-1.3758h0.43216q0.92604 0 1.2612-0.43215 0.33513-0.42333 0.33513-1.7727v-10.054zm0-3.8453h1.6228v2.0549h-1.6228v-2.0549z"/>
  <path id="path128" style="" d="m331.1 314.44h1.6228v13.723h-1.6228v-13.723z"/>
  <path id="path130" style="" d="m335.85 314.46h1.4111q1.3229 2.0814 1.9756 4.0746 0.66146 1.9932 0.66146 3.9599 0 1.9756-0.66146 3.9776-0.65264 2.002-1.9756 4.0746h-1.4111q1.173-2.0196 1.7462-4.0128 0.58209-2.002 0.58209-4.0393t-0.58209-4.0217q-0.57326-1.9844-1.7462-4.0128z"/>
 </g>
 <g id="text74">
  <path id="path133" style="" d="m261.96 497.6q0.60854-1.0936 1.4552-1.614 0.84666-0.52035 1.9932-0.52035 1.5434 0 2.3812 1.0848 0.83785 1.076 0.83785 3.0692v5.9619h-1.6316v-5.909q0-1.4199-0.50271-2.1078-0.50271-0.68792-1.5346-0.68792-1.2612 0-1.9932 0.83785-0.73201 0.83784-0.73201 2.2842v5.5827h-1.6316v-5.909q0-1.4288-0.50271-2.1078-0.50271-0.68792-1.5522-0.68792-1.2435 0-1.9756 0.84667-0.73201 0.83784-0.73201 2.2754v5.5827h-1.6316v-9.8778h1.6316v1.5346q0.55563-0.9084 1.3317-1.3406 0.77611-0.43215 1.8433-0.43215 1.076 0 1.8256 0.54681 0.75847 0.5468 1.1201 1.5875z"/>
  <path id="path135" style="" d="m275.7 496.84q-1.3053 0-2.0638 1.0231-0.75847 1.0142-0.75847 2.7869t0.74965 2.7958q0.75847 1.0142 2.0726 1.0142 1.2964 0 2.0549-1.0231 0.75847-1.023 0.75847-2.7869 0-1.7551-0.75847-2.7781-0.75848-1.0319-2.0549-1.0319zm0-1.3758q2.1167 0 3.3249 1.3758 1.2083 1.3758 1.2083 3.81 0 2.4253-1.2083 3.81-1.2083 1.3758-3.3249 1.3758-2.1255 0-3.3338-1.3758-1.1994-1.3847-1.1994-3.81 0-2.4342 1.1994-3.81 1.2083-1.3758 3.3338-1.3758z"/>
  <path id="path137" style="" d="m289.41 497.2v-5.3446h1.6228v13.723h-1.6228v-1.4817q-0.51153 0.88194-1.2965 1.3141-0.77611 0.42334-1.8697 0.42334-1.7904 0-2.9192-1.4288-1.1201-1.4288-1.1201-3.7571t1.1201-3.7571q1.1289-1.4288 2.9192-1.4288 1.0936 0 1.8697 0.43215 0.78493 0.42334 1.2965 1.3053zm-5.5298 3.4484q0 1.7903 0.73201 2.8134 0.74084 1.0142 2.0285 1.0142 1.2876 0 2.0285-1.0142 0.74084-1.0231 0.74084-2.8134 0-1.7904-0.74084-2.8046-0.74083-1.023-2.0285-1.023-1.2876 0-2.0285 1.023-0.73201 1.0142-0.73201 2.8046z"/>
  <path id="path139" style="" d="m294.21 501.68v-5.9796h1.6228v5.9178q0 1.4023 0.5468 2.1078 0.54681 0.69674 1.6404 0.69674 1.3141 0 2.0726-0.83785 0.76729-0.83785 0.76729-2.2842v-5.6003h1.6228v9.8778h-1.6228v-1.5169q-0.5909 0.89958-1.3758 1.3406-0.77611 0.43216-1.808 0.43216-1.7022 0-2.5841-1.0583-0.88194-1.0583-0.88194-3.0956zm4.0834-6.2177z"/>
  <path id="path141" style="" d="m305.84 491.86h1.6228v13.723h-1.6228v-13.723z"/>
  <path id="path143" style="" d="m312.61 504.08h6.2177v1.4993h-8.3608v-1.4993q1.0142-1.0495 2.7605-2.8134 1.7551-1.7727 2.2049-2.2842 0.85548-0.96132 1.1906-1.6228 0.34396-0.67028 0.34396-1.3141 0-1.0495-0.74084-1.711-0.73201-0.66145-1.9138-0.66145-0.83785 0-1.7727 0.29104-0.92604 0.29104-1.9844 0.88194v-1.7992q1.076-0.43215 2.0108-0.65264 0.93486-0.22049 1.711-0.22049 2.0461 0 3.2632 1.0231 1.2171 1.023 1.2171 2.734 0 0.81139-0.30868 1.5434-0.29986 0.7232-1.1024 1.711-0.22048 0.25577-1.4023 1.4817-1.1818 1.2171-3.3337 3.4131z"/>
  <path id="path145" style="" d="m322.58 503.34h1.8609v2.2401h-1.8609v-2.2401z"/>
  <path id="path147" style="" d="m335.21 496.08v1.517q-0.68792-0.37924-1.3846-0.56445-0.68792-0.19403-1.3935-0.19403-1.5787 0-2.4518 1.0054-0.87313 0.9966-0.87313 2.8046t0.87313 2.8134q0.87312 0.9966 2.4518 0.9966 0.70555 0 1.3935-0.18521 0.69673-0.19403 1.3846-0.57327v1.4993q-0.6791 0.3175-1.4111 0.47625-0.72319 0.15875-1.5434 0.15875-2.2313 0-3.5454-1.4023t-1.3141-3.7835q0-2.4165 1.3229-3.8012 1.3317-1.3846 3.6424-1.3846 0.74965 0 1.464 0.15875 0.71437 0.14993 1.3846 0.45861z"/>
  <path id="path149" style="" d="m253.05 514.46q-1.1818 2.0285-1.7551 4.0128-0.57326 1.9844-0.57326 4.0217t0.57326 4.0393q0.58209 1.9932 1.7551 4.0128h-1.4111q-1.3229-2.0726-1.9844-4.0746-0.65264-2.002-0.65264-3.9776 0-1.9667 0.65264-3.9599t1.9844-4.0746h1.4111z"/>
  <path id="path151" style="" d="m261.21 514.44v1.3494h-1.5522q-0.87313 0-1.2171 0.35278-0.33514 0.35278-0.33514 1.27v0.87312h2.6723v1.2612h-2.6723v8.6166h-1.6316v-8.6166h-1.5522v-1.2612h1.5522v-0.68792q0-1.6492 0.76729-2.3989 0.76729-0.75847 2.4342-0.75847h1.5346z"/>
  <path id="path153" style="" d="m266.38 519.42q-1.3053 0-2.0637 1.023-0.75847 1.0142-0.75847 2.7869t0.74965 2.7958q0.75847 1.0142 2.0726 1.0142 1.2965 0 2.0549-1.0231 0.75847-1.023 0.75847-2.7869 0-1.7551-0.75847-2.7781-0.75847-1.0319-2.0549-1.0319zm0-1.3758q2.1167 0 3.3249 1.3758 1.2083 1.3758 1.2083 3.81 0 2.4254-1.2083 3.81-1.2083 1.3758-3.3249 1.3758-2.1255 0-3.3337-1.3758-1.1994-1.3846-1.1994-3.81 0-2.4342 1.1994-3.81 1.2083-1.3758 3.3337-1.3758z"/>
  <path id="path155" style="" d="m279.32 519.8q-0.27341-0.15875-0.59973-0.2293-0.3175-0.0794-0.70555-0.0794-1.3758 0-2.1167 0.89959-0.73201 0.89076-0.73201 2.5664v5.2035h-1.6316v-9.8778h1.6316v1.5346q0.51153-0.89958 1.3317-1.3317 0.8202-0.44097 1.9932-0.44097 0.16757 0 0.37041 0.0264 0.20285 0.0176 0.4498 0.0617l0.009 1.6669z"/>
  <path id="path157" style="" d="m286.45 519.8q-0.2734-0.15875-0.59972-0.2293-0.3175-0.0794-0.70556-0.0794-1.3758 0-2.1167 0.89959-0.73202 0.89076-0.73202 2.5664v5.2035h-1.6316v-9.8778h1.6316v1.5346q0.51153-0.89958 1.3317-1.3317 0.82021-0.44097 1.9932-0.44097 0.16757 0 0.37042 0.0264 0.20284 0.0176 0.44979 0.0617l0.009 1.6669z"/>
  <path id="path159" style="" d="m292.66 523.2q-1.9667 0-2.7252 0.44979-0.75847 0.44979-0.75847 1.5346 0 0.8643 0.56444 1.3758 0.57327 0.50271 1.5522 0.50271 1.3494 0 2.1608-0.9525 0.8202-0.96132 0.8202-2.5488v-0.36159h-1.614zm3.2367-0.67028v5.6356h-1.6228v-1.4993q-0.55562 0.89959-1.3846 1.3317-0.82902 0.42333-2.0285 0.42333-1.5169 0-2.4165-0.84667-0.89077-0.85548-0.89077-2.2842 0-1.6669 1.1112-2.5135 1.1201-0.84666 3.3338-0.84666h2.2754v-0.15875q0-1.1201-0.74083-1.7286-0.73201-0.61736-2.0638-0.61736-0.84666 0-1.6492 0.20284-0.80257 0.20285-1.5434 0.60855v-1.4993q0.89076-0.34396 1.7286-0.51153 0.83784-0.17638 1.6316-0.17638 2.1431 0 3.2015 1.1112 1.0583 1.1112 1.0583 3.369zm-2.9633-8.8106h1.7551l-2.8751 3.3161h-1.3494l2.4694-3.3161z"/>
  <path id="path161" style="" d="m305.54 518.57v1.5346q-0.68792-0.35277-1.4288-0.52916-0.74083-0.17639-1.5346-0.17639-1.2083 0-1.8168 0.37042-0.59972 0.37041-0.59972 1.1112 0 0.56445 0.43215 0.89077 0.43215 0.3175 1.7374 0.60854l0.55562 0.12347q1.7286 0.37042 2.4518 1.0495 0.73202 0.67028 0.73202 1.8785 0 1.3758-1.0936 2.1784-1.0848 0.80257-2.9898 0.80257-0.79375 0-1.6581-0.15875-0.85548-0.14993-1.808-0.45861v-1.6757q0.89958 0.46743 1.7727 0.70555 0.87312 0.22931 1.7286 0.22931 1.1465 0 1.7639-0.38806 0.61736-0.39687 0.61736-1.1112 0-0.66145-0.44979-1.0142-0.44097-0.35278-1.9491-0.6791l-0.56445-0.13229q-1.5081-0.3175-2.1784-0.97014-0.67027-0.66145-0.67027-1.808 0-1.3935 0.98777-2.1519 0.98778-0.75847 2.8046-0.75847 0.89958 0 1.6933 0.13229 0.79375 0.13229 1.464 0.39687z"/>
  <path id="path163" style="" d="m313.66 514.44v1.3494h-1.5522q-0.87313 0-1.2171 0.35278-0.33514 0.35278-0.33514 1.27v0.87312h2.6723v1.2612h-2.6723v8.6166h-1.6316v-8.6166h-1.5522v-1.2612h1.5522v-0.68792q0-1.6492 0.76729-2.3989 0.76729-0.75847 2.4342-0.75847h1.5346z"/>
  <path id="path165" style="" d="m319.5 523.2q-1.9667 0-2.7252 0.44979-0.75847 0.44979-0.75847 1.5346 0 0.8643 0.56444 1.3758 0.57327 0.50271 1.5522 0.50271 1.3494 0 2.1608-0.9525 0.82021-0.96132 0.82021-2.5488v-0.36159h-1.614zm3.2367-0.67028v5.6356h-1.6228v-1.4993q-0.55562 0.89959-1.3846 1.3317-0.82903 0.42333-2.0285 0.42333-1.5169 0-2.4165-0.84667-0.89077-0.85548-0.89077-2.2842 0-1.6669 1.1112-2.5135 1.1201-0.84666 3.3338-0.84666h2.2754v-0.15875q0-1.1201-0.74083-1.7286-0.73201-0.61736-2.0638-0.61736-0.84666 0-1.6492 0.20284-0.80257 0.20285-1.5434 0.60855v-1.4993q0.89076-0.34396 1.7286-0.51153 0.83784-0.17638 1.6316-0.17638 2.1431 0 3.2015 1.1112 1.0583 1.1112 1.0583 3.369zm-2.9633-8.8106h1.7551l-2.8751 3.3161h-1.3494l2.4694-3.3161z"/>
  <path id="path167" style="" d="m326.09 518.28h1.6228v10.054q0 1.8874-0.72319 2.734-0.71438 0.84667-2.3107 0.84667h-0.61736v-1.3758h0.43216q0.92604 0 1.2612-0.43215 0.33513-0.42333 0.33513-1.7727v-10.054zm0-3.8453h1.6228v2.0549h-1.6228v-2.0549z"/>
  <path id="path169" style="" d="m331.1 514.44h1.6228v13.723h-1.6228v-13.723z"/>
  <path id="path171" style="" d="m335.85 514.46h1.4111q1.3229 2.0814 1.9756 4.0746 0.66146 1.9932 0.66146 3.9599 0 1.9756-0.66146 3.9776-0.65264 2.002-1.9756 4.0746h-1.4111q1.173-2.0196 1.7462-4.0128 0.58209-2.002 0.58209-4.0393t-0.58209-4.0217q-0.57326-1.9844-1.7462-4.0128z"/>
 </g>
 <g id="text80">
  <path id="path174" style="" d="m525.91 497.23q0.60855-1.0936 1.4552-1.614 0.84667-0.52034 1.9932-0.52034 1.5434 0 2.3812 1.0848 0.83785 1.076 0.83785 3.0692v5.9619h-1.6316v-5.909q0-1.4199-0.50271-2.1078-0.5027-0.68791-1.5346-0.68791-1.2612 0-1.9932 0.83784-0.73201 0.83785-0.73201 2.2842v5.5827h-1.6316v-5.909q0-1.4288-0.50271-2.1078-0.5027-0.68791-1.5522-0.68791-1.2435 0-1.9756 0.84666-0.73201 0.83785-0.73201 2.2754v5.5827h-1.6316v-9.8778h1.6316v1.5346q0.55562-0.9084 1.3317-1.3406 0.77611-0.43215 1.8433-0.43215 1.076 0 1.8256 0.5468 0.75847 0.54681 1.1201 1.5875z"/>
  <path id="path176" style="" d="m539.65 496.47q-1.3053 0-2.0637 1.023-0.75848 1.0142-0.75848 2.7869t0.74966 2.7958q0.75847 1.0142 2.0726 1.0142 1.2965 0 2.0549-1.0231 0.75847-1.023 0.75847-2.7869 0-1.7551-0.75847-2.7781-0.75847-1.0319-2.0549-1.0319zm0-1.3758q2.1167 0 3.3249 1.3758 1.2083 1.3758 1.2083 3.81 0 2.4254-1.2083 3.81-1.2083 1.3758-3.3249 1.3758-2.1255 0-3.3337-1.3758-1.1994-1.3846-1.1994-3.81 0-2.4342 1.1994-3.81 1.2083-1.3758 3.3337-1.3758z"/>
  <path id="path178" style="" d="m553.36 496.83v-5.3446h1.6228v13.723h-1.6228v-1.4817q-0.51152 0.88195-1.2964 1.3141-0.77611 0.42333-1.8697 0.42333-1.7904 0-2.9192-1.4288-1.1201-1.4288-1.1201-3.7571t1.1201-3.7571q1.1289-1.4287 2.9192-1.4287 1.0936 0 1.8697 0.43215 0.78493 0.42333 1.2964 1.3053zm-5.5298 3.4484q0 1.7904 0.73201 2.8134 0.74083 1.0142 2.0285 1.0142 1.2876 0 2.0285-1.0142 0.74083-1.023 0.74083-2.8134 0-1.7903-0.74083-2.8046-0.74083-1.023-2.0285-1.023-1.2876 0-2.0285 1.023-0.73201 1.0142-0.73201 2.8046z"/>
  <path id="path180" style="" d="m558.16 501.31v-5.9796h1.6228v5.9178q0 1.4023 0.54681 2.1078 0.5468 0.69673 1.6404 0.69673 1.3141 0 2.0726-0.83785 0.76729-0.83784 0.76729-2.2842v-5.6003h1.6228v9.8778h-1.6228v-1.517q-0.5909 0.89959-1.3758 1.3406-0.77611 0.43215-1.808 0.43215-1.7022 0-2.5841-1.0583-0.88194-1.0583-0.88194-3.0956zm4.0834-6.2177z"/>
  <path id="path182" style="" d="m569.79 491.48h1.6228v13.723h-1.6228v-13.723z"/>
  <path id="path184" style="" d="m576.57 503.71h6.2177v1.4993h-8.3608v-1.4993q1.0142-1.0495 2.7605-2.8134 1.7551-1.7727 2.2049-2.2842 0.85549-0.96132 1.1906-1.6228 0.34396-0.67027 0.34396-1.3141 0-1.0495-0.74083-1.711-0.73201-0.66146-1.9138-0.66146-0.83784 0-1.7727 0.29104-0.92604 0.29104-1.9844 0.88195v-1.7992q1.076-0.43215 2.0108-0.65264 0.93486-0.22048 1.711-0.22048 2.0461 0 3.2632 1.023 1.2171 1.0231 1.2171 2.734 0 0.81138-0.30868 1.5434-0.29986 0.72319-1.1024 1.711-0.22049 0.25576-1.4023 1.4817-1.1818 1.2171-3.3338 3.4131z"/>
  <path id="path186" style="" d="m586.53 502.97h1.8609v2.2401h-1.8609v-2.2401z"/>
  <path id="path188" style="" d="m595.88 496.47q-1.3053 0-2.0638 1.023-0.75847 1.0142-0.75847 2.7869t0.74965 2.7958q0.75847 1.0142 2.0726 1.0142 1.2964 0 2.0549-1.0231 0.75848-1.023 0.75848-2.7869 0-1.7551-0.75848-2.7781-0.75847-1.0319-2.0549-1.0319zm0-1.3758q2.1167 0 3.3249 1.3758 1.2083 1.3758 1.2083 3.81 0 2.4254-1.2083 3.81-1.2083 1.3758-3.3249 1.3758-2.1255 0-3.3338-1.3758-1.1994-1.3846-1.1994-3.81 0-2.4342 1.1994-3.81 1.2083-1.3758 3.3338-1.3758z"/>
  <path id="path190" style="" d="m517.6 514.08q-1.1818 2.0285-1.7551 4.0128-0.57326 1.9844-0.57326 4.0217t0.57326 4.0393q0.58208 1.9932 1.7551 4.0128h-1.4111q-1.3229-2.0726-1.9844-4.0746-0.65264-2.002-0.65264-3.9776 0-1.9667 0.65264-3.9599 0.65263-1.9932 1.9844-4.0746h1.4111z"/>
  <path id="path192" style="" d="m522.36 515.1v2.8046h3.3426v1.2612h-3.3426v5.3622q0 1.2083 0.32632 1.5522 0.33514 0.34396 1.3494 0.34396h1.6669v1.3582h-1.6669q-1.8785 0-2.5929-0.69674-0.71437-0.70555-0.71437-2.5576v-5.3622h-1.1906v-1.2612h1.1906v-2.8046h1.6316z"/>
  <path id="path194" style="" d="m532.34 522.82q-1.9667 0-2.7252 0.44979-0.75847 0.44979-0.75847 1.5346 0 0.86431 0.56444 1.3758 0.57326 0.50271 1.5522 0.50271 1.3494 0 2.1608-0.9525 0.82021-0.96132 0.82021-2.5488v-0.3616h-1.614zm3.2367-0.67028v5.6356h-1.6228v-1.4993q-0.55563 0.89958-1.3846 1.3317-0.82903 0.42333-2.0285 0.42333-1.517 0-2.4165-0.84666-0.89076-0.85549-0.89076-2.2842 0-1.6669 1.1112-2.5135 1.1201-0.84667 3.3337-0.84667h2.2754v-0.15875q0-1.1201-0.74083-1.7286-0.73202-0.61736-2.0638-0.61736-0.84667 0-1.6492 0.20285-0.80256 0.20285-1.5434 0.60854v-1.4993q0.89077-0.34396 1.7286-0.51153 0.83785-0.17639 1.6316-0.17639 2.1431 0 3.2014 1.1112t1.0583 3.369zm-2.9633-8.8106h1.7551l-2.8751 3.3161h-1.3494l2.4694-3.3161z"/>
  <path id="path196" style="" d="m544.65 519.42q-0.2734-0.15875-0.59972-0.22931-0.3175-0.0794-0.70556-0.0794-1.3758 0-2.1167 0.89958-0.73201 0.89076-0.73201 2.5664v5.2035h-1.6316v-9.8778h1.6316v1.5346q0.51152-0.89959 1.3317-1.3317 0.82021-0.44097 1.9932-0.44097 0.16757 0 0.37042 0.0265 0.20285 0.0176 0.44979 0.0617l0.009 1.6669z"/>
  <path id="path198" style="" d="m552.55 522.73q0-1.7639-0.73201-2.734-0.72319-0.97014-2.0373-0.97014-1.3053 0-2.0373 0.97014-0.72319 0.97014-0.72319 2.734 0 1.7551 0.72319 2.7252 0.73201 0.97014 2.0373 0.97014 1.3141 0 2.0373-0.97014 0.73201-0.97014 0.73201-2.7252zm1.6228 3.8276q0 2.5224-1.1201 3.7483-1.1201 1.2347-3.4308 1.2347-0.85548 0-1.614-0.13229-0.75847-0.12347-1.4728-0.38806v-1.5787q0.71437 0.38806 1.4111 0.57327 0.69673 0.1852 1.4199 0.1852 1.5963 0 2.3901-0.83784 0.79375-0.82903 0.79375-2.5135v-0.80257q-0.5027 0.87313-1.2876 1.3053-0.78493 0.43215-1.8785 0.43215-1.8168 0-2.9281-1.3846-1.1112-1.3846-1.1112-3.6689 0-2.293 1.1112-3.6777 1.1112-1.3846 2.9281-1.3846 1.0936 0 1.8785 0.43215 0.78493 0.43215 1.2876 1.3053v-1.4993h1.6228v8.6519z"/>
  <path id="path200" style="" d="m561.63 528.7q-0.68791 1.7639-1.3406 2.3019-0.65264 0.53799-1.7462 0.53799h-1.2965v-1.3582h0.9525q0.67028 0 1.0407-0.3175 0.37041-0.3175 0.8202-1.4993l0.29105-0.74083-3.9952-9.719h1.7198l3.0868 7.7258 3.0868-7.7258h1.7198l-4.3392 10.795z"/>
  <path id="path202" style="" d="m568.15 514.06h1.6316v8.1051l4.8419-4.2598h2.0726l-5.2387 4.6214 5.4592 5.2564h-2.1167l-5.0183-4.8242v4.8242h-1.6316v-13.723z"/>
  <path id="path204" style="" d="m581.88 519.04q-1.3053 0-2.0638 1.0231-0.75847 1.0142-0.75847 2.7869t0.74965 2.7958q0.75847 1.0142 2.0726 1.0142 1.2965 0 2.0549-1.023 0.75847-1.0231 0.75847-2.7869 0-1.7551-0.75847-2.7781-0.75847-1.0319-2.0549-1.0319zm0-1.3758q2.1167 0 3.3249 1.3758 1.2083 1.3758 1.2083 3.81 0 2.4253-1.2083 3.81-1.2083 1.3758-3.3249 1.3758-2.1255 0-3.3338-1.3758-1.1994-1.3846-1.1994-3.81 0-2.4342 1.1994-3.81 1.2083-1.3758 3.3338-1.3758zm1.2259-4.3303h1.7551l-2.8751 3.3161h-1.3494l2.4694-3.3161z"/>
  <path id="path206" style="" d="m595.59 519.41v-5.3446h1.6228v13.723h-1.6228v-1.4817q-0.51153 0.88194-1.2965 1.3141-0.77611 0.42333-1.8697 0.42333-1.7903 0-2.9192-1.4287-1.1201-1.4288-1.1201-3.7571t1.1201-3.7571q1.1289-1.4288 2.9192-1.4288 1.0936 0 1.8697 0.43215 0.78493 0.42333 1.2965 1.3053zm-5.5298 3.4484q0 1.7903 0.73201 2.8134 0.74083 1.0142 2.0285 1.0142 1.2876 0 2.0285-1.0142 0.74083-1.0231 0.74083-2.8134 0-1.7904-0.74083-2.8046-0.74083-1.0231-2.0285-1.0231-1.2876 0-2.0285 1.0231-0.73201 1.0142-0.73201 2.8046z"/>
  <path id="path208" style="" d="m600.3 514.08h1.4111q1.3229 2.0814 1.9756 4.0746 0.66146 1.9932 0.66146 3.9599 0 1.9756-0.66146 3.9776-0.65264 2.002-1.9756 4.0746h-1.4111q1.173-2.0196 1.7462-4.0128 0.58208-2.002 0.58208-4.0393t-0.58208-4.0217q-0.57327-1.9844-1.7462-4.0128z"/>
 </g>
 <g id="text86">
  <path id="path211" style="" d="m783.81 408.1v5.2387h-1.6316v-13.635h1.6316v1.4993q0.51153-0.88194 1.2876-1.3053 0.78493-0.43215 1.8697-0.43215 1.7992 0 2.9192 1.4288 1.1289 1.4288 1.1289 3.7571t-1.1289 3.7571q-1.1201 1.4288-2.9192 1.4288-1.0848 0-1.8697-0.42334-0.77611-0.43215-1.2876-1.3141zm5.521-3.4484q0-1.7904-0.74084-2.8046-0.73201-1.023-2.0196-1.023t-2.0285 1.023q-0.73201 1.0142-0.73201 2.8046 0 1.7903 0.73201 2.8134 0.74084 1.0142 2.0285 1.0142 1.2876 0 2.0196-1.0142 0.74084-1.0231 0.74084-2.8134z"/>
  <path id="path213" style="" d="m799.43 401.22q-0.2734-0.15875-0.59972-0.22931-0.3175-0.0794-0.70556-0.0794-1.3758 0-2.1167 0.89958-0.73202 0.89076-0.73202 2.5665v5.2035h-1.6316v-9.8778h1.6316v1.5346q0.51153-0.89958 1.3317-1.3317 0.82021-0.44097 1.9932-0.44097 0.16757 0 0.37042 0.0265 0.20284 0.0176 0.44979 0.0617l0.009 1.6669z"/>
  <path id="path215" style="" d="m807.33 404.53q0-1.7639-0.73201-2.734-0.7232-0.97013-2.0373-0.97013-1.3053 0-2.0373 0.97013-0.7232 0.97014-0.7232 2.734 0 1.7551 0.7232 2.7252 0.73201 0.97014 2.0373 0.97014 1.3141 0 2.0373-0.97014 0.73201-0.97014 0.73201-2.7252zm1.6228 3.8276q0 2.5224-1.1201 3.7483-1.1201 1.2347-3.4308 1.2347-0.85549 0-1.614-0.13229-0.75847-0.12347-1.4728-0.38805v-1.5787q0.71437 0.38805 1.4111 0.57326t1.4199 0.18521q1.5963 0 2.3901-0.83785 0.79375-0.82902 0.79375-2.5135v-0.80257q-0.50271 0.87313-1.2876 1.3053-0.78493 0.43215-1.8785 0.43215-1.8168 0-2.928-1.3846t-1.1112-3.6689q0-2.2931 1.1112-3.6777t2.928-1.3846q1.0936 0 1.8785 0.43215 0.78493 0.43216 1.2876 1.3053v-1.4993h1.6228v8.6519z"/>
  <path id="path217" style="" d="m812.52 407.34h1.8609v2.2401h-1.8609v-2.2401z"/>
  <path id="path219" style="" d="m826.49 404.24v0.79375h-7.4612q0.10583 1.6757 1.0054 2.5576 0.90841 0.87313 2.5224 0.87313 0.93486 0 1.808-0.22931 0.88194-0.22931 1.7462-0.68792v1.5346q-0.87312 0.37041-1.7903 0.56444-0.91722 0.19403-1.8609 0.19403-2.3636 0-3.7483-1.3758-1.3758-1.3758-1.3758-3.7218 0-2.4253 1.3053-3.8453 1.3141-1.4288 3.5366-1.4288 1.9932 0 3.1485 1.2876 1.1642 1.2788 1.1642 3.4837zm-1.6228-0.47625q-0.0176-1.3317-0.74965-2.1255-0.72319-0.79375-1.9226-0.79375-1.3582 0-2.1784 0.76729-0.81138 0.7673-0.93486 2.1608l5.7856-0.009z"/>
  <path id="path221" style="" d="m837.05 399.7-3.5719 4.8066 3.7571 5.0712h-1.9138l-2.8751-3.8806-2.8751 3.8806h-1.9138l3.8364-5.1682-3.5101-4.7096h1.9138l2.6194 3.519 2.6194-3.519h1.9138z"/>
  <path id="path223" style="" d="m847.41 404.24v0.79375h-7.4612q0.10583 1.6757 1.0054 2.5576 0.90841 0.87313 2.5224 0.87313 0.93486 0 1.808-0.22931 0.88194-0.22931 1.7462-0.68792v1.5346q-0.87312 0.37041-1.7903 0.56444-0.91722 0.19403-1.8609 0.19403-2.3636 0-3.7483-1.3758-1.3758-1.3758-1.3758-3.7218 0-2.4253 1.3053-3.8453 1.3141-1.4288 3.5366-1.4288 1.9932 0 3.1485 1.2876 1.1642 1.2788 1.1642 3.4837zm-1.6228-0.47625q-0.0176-1.3317-0.74965-2.1255-0.72319-0.79375-1.9226-0.79375-1.3582 0-2.1784 0.76729-0.81139 0.7673-0.93486 2.1608l5.7855-0.009z"/>
  <path id="path225" style="" d="m774.42 418.46q-1.1818 2.0285-1.7551 4.0128-0.57327 1.9844-0.57327 4.0217t0.57327 4.0393q0.58208 1.9932 1.7551 4.0128h-1.4111q-1.3229-2.0726-1.9844-4.0746-0.65264-2.002-0.65264-3.9776 0-1.9667 0.65264-3.9599t1.9844-4.0746h1.4111z"/>
  <path id="path227" style="" d="m779.15 430.68v5.2387h-1.6316v-13.635h1.6316v1.4993q0.51153-0.88194 1.2876-1.3053 0.78493-0.43215 1.8697-0.43215 1.7992 0 2.9192 1.4287 1.1289 1.4288 1.1289 3.7571t-1.1289 3.7571q-1.1201 1.4288-2.9192 1.4288-1.0848 0-1.8697-0.42333-0.77611-0.43216-1.2876-1.3141zm5.521-3.4484q0-1.7903-0.74084-2.8046-0.73201-1.023-2.0196-1.023t-2.0285 1.023q-0.73201 1.0142-0.73201 2.8046t0.73201 2.8134q0.74084 1.0142 2.0285 1.0142 1.2876 0 2.0196-1.0142 0.74084-1.023 0.74084-2.8134z"/>
  <path id="path229" style="" d="m794.77 423.8q-0.27341-0.15875-0.59972-0.2293-0.3175-0.0794-0.70556-0.0794-1.3758 0-2.1167 0.89958-0.73202 0.89077-0.73202 2.5665v5.2035h-1.6316v-9.8778h1.6316v1.5346q0.51153-0.89958 1.3317-1.3317 0.82021-0.44097 1.9932-0.44097 0.16757 0 0.37042 0.0265 0.20284 0.0176 0.44979 0.0617l0.009 1.6669z"/>
  <path id="path231" style="" d="m799.93 423.42q-1.3053 0-2.0638 1.023-0.75847 1.0142-0.75847 2.7869t0.74965 2.7958q0.75847 1.0142 2.0726 1.0142 1.2964 0 2.0549-1.0231 0.75848-1.023 0.75848-2.7869 0-1.7551-0.75848-2.7781-0.75847-1.0319-2.0549-1.0319zm0-1.3758q2.1167 0 3.3249 1.3758 1.2083 1.3758 1.2083 3.81 0 2.4254-1.2083 3.81-1.2083 1.3758-3.3249 1.3758-2.1255 0-3.3338-1.3758-1.1994-1.3846-1.1994-3.81 0-2.4342 1.1994-3.81 1.2083-1.3758 3.3338-1.3758z"/>
  <path id="path233" style="" d="m813.64 427.11q0-1.7639-0.73202-2.734-0.72319-0.97014-2.0373-0.97014-1.3053 0-2.0373 0.97014-0.72319 0.97013-0.72319 2.734 0 1.7551 0.72319 2.7252 0.73202 0.97013 2.0373 0.97013 1.3141 0 2.0373-0.97013 0.73202-0.97014 0.73202-2.7252zm1.6228 3.8276q0 2.5224-1.1201 3.7483-1.1201 1.2347-3.4308 1.2347-0.85548 0-1.614-0.13229-0.75847-0.12347-1.4728-0.38805v-1.5787q0.71438 0.38805 1.4111 0.57326 0.69674 0.18521 1.4199 0.18521 1.5963 0 2.3901-0.83785 0.79375-0.82902 0.79375-2.5135v-0.80257q-0.50271 0.87312-1.2876 1.3053-0.78493 0.43216-1.8785 0.43216-1.8168 0-2.928-1.3847-1.1112-1.3846-1.1112-3.6689 0-2.293 1.1112-3.6777 1.1112-1.3846 2.928-1.3846 1.0936 0 1.8785 0.43215 0.78493 0.43215 1.2876 1.3053v-1.4993h1.6228v8.6519z"/>
  <path id="path235" style="" d="m824.33 423.8q-0.2734-0.15875-0.59972-0.2293-0.3175-0.0794-0.70556-0.0794-1.3758 0-2.1167 0.89958-0.73201 0.89077-0.73201 2.5665v5.2035h-1.6316v-9.8778h1.6316v1.5346q0.51152-0.89958 1.3317-1.3317 0.82021-0.44097 1.9932-0.44097 0.16757 0 0.37042 0.0265 0.20285 0.0176 0.44979 0.0617l0.009 1.6669z"/>
  <path id="path237" style="" d="m830.54 427.2q-1.9667 0-2.7252 0.4498-0.75847 0.44979-0.75847 1.5346 0 0.8643 0.56444 1.3758 0.57326 0.50271 1.5522 0.50271 1.3494 0 2.1608-0.9525 0.82021-0.96132 0.82021-2.5488v-0.3616h-1.614zm3.2367-0.67027v5.6356h-1.6228v-1.4993q-0.55563 0.89958-1.3846 1.3317-0.82903 0.42333-2.0285 0.42333-1.517 0-2.4165-0.84667-0.89076-0.85548-0.89076-2.2842 0-1.6669 1.1112-2.5135 1.1201-0.84666 3.3337-0.84666h2.2754v-0.15875q0-1.1201-0.74083-1.7286-0.73202-0.61736-2.0638-0.61736-0.84667 0-1.6492 0.20284-0.80256 0.20285-1.5434 0.60855v-1.4993q0.89077-0.34396 1.7286-0.51153 0.83785-0.17638 1.6316-0.17638 2.1431 0 3.2014 1.1112t1.0583 3.369z"/>
  <path id="path239" style="" d="m844.82 424.18q0.60854-1.0936 1.4552-1.614 0.84666-0.52034 1.9932-0.52034 1.5434 0 2.3812 1.0848 0.83784 1.076 0.83784 3.0692v5.9619h-1.6316v-5.909q0-1.4199-0.50271-2.1078-0.50271-0.68792-1.5346-0.68792-1.2612 0-1.9932 0.83785-0.73202 0.83785-0.73202 2.2842v5.5827h-1.6316v-5.909q0-1.4288-0.50271-2.1078-0.50271-0.68792-1.5522-0.68792-1.2435 0-1.9756 0.84667-0.73202 0.83785-0.73202 2.2754v5.5827h-1.6316v-9.8778h1.6316v1.5346q0.55563-0.9084 1.3317-1.3406 0.77611-0.43215 1.8433-0.43215 1.076 0 1.8256 0.5468 0.75848 0.54681 1.1201 1.5875z"/>
  <path id="path241" style="" d="m854.48 418.46h1.4111q1.3229 2.0814 1.9756 4.0746 0.66145 1.9932 0.66145 3.9599 0 1.9756-0.66145 3.9776-0.65264 2.002-1.9756 4.0746h-1.4111q1.173-2.0196 1.7462-4.0128 0.58208-2.002 0.58208-4.0393t-0.58208-4.0217q-0.57326-1.9844-1.7462-4.0128z"/>
 </g>
 <g id="text92">
  <path id="path244" style="" d="m521.41 301.6q0.60855-1.0936 1.4552-1.614 0.84667-0.52035 1.9932-0.52035 1.5434 0 2.3812 1.0848 0.83785 1.076 0.83785 3.0692v5.9619h-1.6316v-5.909q0-1.4199-0.50271-2.1078-0.5027-0.68792-1.5346-0.68792-1.2612 0-1.9932 0.83785-0.73201 0.83784-0.73201 2.2842v5.5827h-1.6316v-5.909q0-1.4288-0.50271-2.1078-0.5027-0.68792-1.5522-0.68792-1.2435 0-1.9756 0.84667-0.73201 0.83784-0.73201 2.2754v5.5827h-1.6316v-9.8778h1.6316v1.5346q0.55562-0.9084 1.3317-1.3406 0.77611-0.43215 1.8433-0.43215 1.076 0 1.8256 0.54681 0.75847 0.5468 1.1201 1.5875z"/>
  <path id="path246" style="" d="m535.15 300.84q-1.3053 0-2.0637 1.0231-0.75848 1.0142-0.75848 2.7869t0.74966 2.7958q0.75847 1.0142 2.0726 1.0142 1.2965 0 2.0549-1.0231 0.75847-1.023 0.75847-2.7869 0-1.7551-0.75847-2.7781-0.75847-1.0319-2.0549-1.0319zm0-1.3758q2.1167 0 3.3249 1.3758 1.2083 1.3758 1.2083 3.81 0 2.4253-1.2083 3.81-1.2083 1.3758-3.3249 1.3758-2.1255 0-3.3337-1.3758-1.1994-1.3847-1.1994-3.81 0-2.4342 1.1994-3.81 1.2083-1.3758 3.3337-1.3758z"/>
  <path id="path248" style="" d="m548.86 301.2v-5.3446h1.6228v13.723h-1.6228v-1.4817q-0.51152 0.88194-1.2964 1.3141-0.77611 0.42334-1.8697 0.42334-1.7904 0-2.9192-1.4288-1.1201-1.4288-1.1201-3.7571t1.1201-3.7571q1.1289-1.4288 2.9192-1.4288 1.0936 0 1.8697 0.43215 0.78493 0.42334 1.2964 1.3053zm-5.5298 3.4484q0 1.7903 0.73201 2.8134 0.74083 1.0142 2.0285 1.0142 1.2876 0 2.0285-1.0142 0.74083-1.0231 0.74083-2.8134 0-1.7904-0.74083-2.8046-0.74083-1.023-2.0285-1.023-1.2876 0-2.0285 1.023-0.73201 1.0142-0.73201 2.8046z"/>
  <path id="path250" style="" d="m553.66 305.68v-5.9796h1.6228v5.9178q0 1.4023 0.54681 2.1078 0.5468 0.69674 1.6404 0.69674 1.3141 0 2.0726-0.83785 0.76729-0.83785 0.76729-2.2842v-5.6003h1.6228v9.8778h-1.6228v-1.5169q-0.5909 0.89958-1.3758 1.3406-0.77611 0.43216-1.808 0.43216-1.7022 0-2.5841-1.0583-0.88194-1.0583-0.88194-3.0956zm4.0834-6.2177z"/>
  <path id="path252" style="" d="m565.29 295.86h1.6228v13.723h-1.6228v-13.723z"/>
  <path id="path254" style="" d="m570.84 308.08h2.9104v-10.045l-3.1662 0.635v-1.6228l3.1485-0.635h1.7815v11.668h2.9104v1.4993h-7.5847v-1.4993z"/>
  <path id="path256" style="" d="m582.03 307.34h1.8609v2.2401h-1.8609v-2.2401z"/>
  <path id="path258" style="" d="m591.38 300.84q-1.3053 0-2.0638 1.0231-0.75847 1.0142-0.75847 2.7869t0.74965 2.7958q0.75847 1.0142 2.0726 1.0142 1.2964 0 2.0549-1.0231 0.75848-1.023 0.75848-2.7869 0-1.7551-0.75848-2.7781-0.75847-1.0319-2.0549-1.0319zm0-1.3758q2.1167 0 3.3249 1.3758 1.2083 1.3758 1.2083 3.81 0 2.4253-1.2083 3.81-1.2083 1.3758-3.3249 1.3758-2.1255 0-3.3338-1.3758-1.1994-1.3847-1.1994-3.81 0-2.4342 1.1994-3.81 1.2083-1.3758 3.3338-1.3758z"/>
  <path id="path260" style="" d="m513.1 318.46q-1.1818 2.0285-1.7551 4.0128-0.57326 1.9844-0.57326 4.0217t0.57326 4.0393q0.58208 1.9932 1.7551 4.0128h-1.4111q-1.3229-2.0726-1.9844-4.0746-0.65264-2.002-0.65264-3.9776 0-1.9667 0.65264-3.9599 0.65263-1.9932 1.9844-4.0746h1.4111z"/>
  <path id="path262" style="" d="m517.86 319.48v2.8046h3.3426v1.2612h-3.3426v5.3622q0 1.2083 0.32632 1.5522 0.33514 0.34395 1.3494 0.34395h1.6669v1.3582h-1.6669q-1.8785 0-2.5929-0.69674-0.71437-0.70555-0.71437-2.5576v-5.3622h-1.1906v-1.2612h1.1906v-2.8046h1.6316z"/>
  <path id="path264" style="" d="m527.84 327.2q-1.9667 0-2.7252 0.4498-0.75847 0.44979-0.75847 1.5346 0 0.8643 0.56444 1.3758 0.57326 0.50271 1.5522 0.50271 1.3494 0 2.1608-0.9525 0.82021-0.96132 0.82021-2.5488v-0.3616h-1.614zm3.2367-0.67027v5.6356h-1.6228v-1.4993q-0.55563 0.89958-1.3846 1.3317-0.82903 0.42333-2.0285 0.42333-1.517 0-2.4165-0.84667-0.89076-0.85548-0.89076-2.2842 0-1.6669 1.1112-2.5135 1.1201-0.84666 3.3337-0.84666h2.2754v-0.15875q0-1.1201-0.74083-1.7286-0.73202-0.61736-2.0638-0.61736-0.84667 0-1.6492 0.20284-0.80256 0.20285-1.5434 0.60855v-1.4993q0.89077-0.34396 1.7286-0.51153 0.83785-0.17638 1.6316-0.17638 2.1431 0 3.2014 1.1112t1.0583 3.369zm-2.9633-8.8106h1.7551l-2.8751 3.3161h-1.3494l2.4694-3.3161z"/>
  <path id="path266" style="" d="m540.15 323.8q-0.2734-0.15875-0.59972-0.2293-0.3175-0.0794-0.70556-0.0794-1.3758 0-2.1167 0.89958-0.73201 0.89077-0.73201 2.5665v5.2035h-1.6316v-9.8778h1.6316v1.5346q0.51152-0.89958 1.3317-1.3317 0.82021-0.44097 1.9932-0.44097 0.16757 0 0.37042 0.0265 0.20285 0.0176 0.44979 0.0617l0.009 1.6669z"/>
  <path id="path268" style="" d="m548.05 327.11q0-1.7639-0.73201-2.734-0.72319-0.97014-2.0373-0.97014-1.3053 0-2.0373 0.97014-0.72319 0.97013-0.72319 2.734 0 1.7551 0.72319 2.7252 0.73201 0.97013 2.0373 0.97013 1.3141 0 2.0373-0.97013 0.73201-0.97014 0.73201-2.7252zm1.6228 3.8276q0 2.5224-1.1201 3.7483-1.1201 1.2347-3.4308 1.2347-0.85548 0-1.614-0.13229-0.75847-0.12347-1.4728-0.38805v-1.5787q0.71437 0.38805 1.4111 0.57326t1.4199 0.18521q1.5963 0 2.3901-0.83785 0.79375-0.82902 0.79375-2.5135v-0.80257q-0.5027 0.87312-1.2876 1.3053-0.78493 0.43216-1.8785 0.43216-1.8168 0-2.9281-1.3847-1.1112-1.3846-1.1112-3.6689 0-2.293 1.1112-3.6777 1.1112-1.3846 2.9281-1.3846 1.0936 0 1.8785 0.43215 0.78493 0.43215 1.2876 1.3053v-1.4993h1.6228v8.6519z"/>
  <path id="path270" style="" d="m557.13 333.08q-0.68791 1.7639-1.3406 2.3019-0.65264 0.53798-1.7462 0.53798h-1.2965v-1.3582h0.9525q0.67028 0 1.0407-0.3175 0.37041-0.3175 0.8202-1.4993l0.29105-0.74083-3.9952-9.719h1.7198l3.0868 7.7258 3.0868-7.7258h1.7198l-4.3392 10.795z"/>
  <path id="path272" style="" d="m563.65 318.44h1.6316v8.1051l4.8419-4.2598h2.0726l-5.2387 4.6214 5.4592 5.2564h-2.1167l-5.0183-4.8242v4.8242h-1.6316v-13.723z"/>
  <path id="path274" style="" d="m577.38 323.42q-1.3053 0-2.0638 1.023-0.75847 1.0142-0.75847 2.7869t0.74965 2.7958q0.75847 1.0142 2.0726 1.0142 1.2965 0 2.0549-1.0231 0.75847-1.023 0.75847-2.7869 0-1.7551-0.75847-2.7781-0.75847-1.0319-2.0549-1.0319zm0-1.3758q2.1167 0 3.3249 1.3758 1.2083 1.3758 1.2083 3.81 0 2.4254-1.2083 3.81-1.2083 1.3758-3.3249 1.3758-2.1255 0-3.3338-1.3758-1.1994-1.3846-1.1994-3.81 0-2.4342 1.1994-3.81 1.2083-1.3758 3.3338-1.3758zm1.2259-4.3304h1.7551l-2.8751 3.3161h-1.3494l2.4694-3.3161z"/>
  <path id="path276" style="" d="m591.09 323.78v-5.3446h1.6228v13.723h-1.6228v-1.4817q-0.51153 0.88194-1.2965 1.3141-0.77611 0.42333-1.8697 0.42333-1.7903 0-2.9192-1.4288-1.1201-1.4288-1.1201-3.7571t1.1201-3.7571q1.1289-1.4287 2.9192-1.4287 1.0936 0 1.8697 0.43215 0.78493 0.42333 1.2965 1.3053zm-5.5298 3.4484q0 1.7904 0.73201 2.8134 0.74083 1.0142 2.0285 1.0142 1.2876 0 2.0285-1.0142 0.74083-1.023 0.74083-2.8134 0-1.7903-0.74083-2.8046-0.74083-1.023-2.0285-1.023-1.2876 0-2.0285 1.023-0.73201 1.0142-0.73201 2.8046z"/>
  <path id="path278" style="" d="m595.8 318.46h1.4111q1.3229 2.0814 1.9756 4.0746 0.66146 1.9932 0.66146 3.9599 0 1.9756-0.66146 3.9776-0.65264 2.002-1.9756 4.0746h-1.4111q1.173-2.0196 1.7462-4.0128 0.58208-2.002 0.58208-4.0393t-0.58208-4.0217q-0.57327-1.9844-1.7462-4.0128z"/>
 </g>
 <g id="text98">
  <path id="path281" style="" d="m537.65 217.16q-0.975 0-1.4688 0.9625-0.4875 0.95625-0.4875 2.8812 0 1.9188 0.4875 2.8812 0.49375 0.95625 1.4688 0.95625 0.98125 0 1.4688-0.95625 0.49375-0.9625 0.49375-2.8812 0-1.925-0.49375-2.8812-0.4875-0.9625-1.4688-0.9625zm0-1q1.5688 0 2.3938 1.2438 0.83125 1.2375 0.83125 3.6 0 2.3562-0.83125 3.6-0.825 1.2375-2.3938 1.2375t-2.4-1.2375q-0.825-1.2438-0.825-3.6 0-2.3625 0.825-3.6 0.83125-1.2438 2.4-1.2438z"/>
  <path id="path283" style="" d="m543.32 224.6h2.0625v-7.1188l-2.2438 0.45v-1.15l2.2312-0.45h1.2625v8.2688h2.0625v1.0625h-5.375v-1.0625z"/>
  <path id="path285" style="" d="m553.95 217.16q-0.975 0-1.4688 0.9625-0.4875 0.95625-0.4875 2.8812 0 1.9188 0.4875 2.8812 0.49375 0.95625 1.4688 0.95625 0.98125 0 1.4688-0.95625 0.49375-0.9625 0.49375-2.8812 0-1.925-0.49375-2.8812-0.4875-0.9625-1.4688-0.9625zm0-1q1.5688 0 2.3938 1.2438 0.83125 1.2375 0.83125 3.6 0 2.3562-0.83125 3.6-0.825 1.2375-2.3938 1.2375t-2.4-1.2375q-0.825-1.2438-0.825-3.6 0-2.3625 0.825-3.6 0.83125-1.2438 2.4-1.2438z"/>
  <path id="path287" style="" d="m559.62 224.6h2.0625v-7.1188l-2.2438 0.45v-1.15l2.2312-0.45h1.2625v8.2688h2.0625v1.0625h-5.375v-1.0625z"/>
  <path id="path289" style="" d="m570.25 217.16q-0.975 0-1.4688 0.9625-0.4875 0.95625-0.4875 2.8812 0 1.9188 0.4875 2.8812 0.49375 0.95625 1.4688 0.95625 0.98125 0 1.4688-0.95625 0.49375-0.9625 0.49375-2.8812 0-1.925-0.49375-2.8812-0.4875-0.9625-1.4688-0.9625zm0-1q1.5688 0 2.3938 1.2438 0.83125 1.2375 0.83125 3.6 0 2.3562-0.83125 3.6-0.825 1.2375-2.3938 1.2375t-2.4-1.2375q-0.825-1.2438-0.825-3.6 0-2.3625 0.825-3.6 0.83125-1.2438 2.4-1.2438z"/>
  <path id="path291" style="" d="m537.65 233.16q-0.975 0-1.4688 0.9625-0.4875 0.95625-0.4875 2.8812 0 1.9188 0.4875 2.8812 0.49375 0.95625 1.4688 0.95625 0.98125 0 1.4688-0.95625 0.49375-0.9625 0.49375-2.8812 0-1.925-0.49375-2.8812-0.4875-0.9625-1.4688-0.9625zm0-1q1.5688 0 2.3938 1.2438 0.83125 1.2375 0.83125 3.6 0 2.3562-0.83125 3.6-0.825 1.2375-2.3938 1.2375t-2.4-1.2375q-0.825-1.2438-0.825-3.6 0-2.3625 0.825-3.6 0.83125-1.2438 2.4-1.2438z"/>
  <path id="path293" style="" d="m543.32 240.6h2.0625v-7.1188l-2.2438 0.45v-1.15l2.2312-0.45h1.2625v8.2688h2.0625v1.0625h-5.375v-1.0625z"/>
  <path id="path295" style="" d="m551.47 240.6h2.0625v-7.1188l-2.2438 0.45v-1.15l2.2312-0.45h1.2625v8.2688h2.0625v1.0625h-5.375v-1.0625z"/>
  <path id="path297" style="" d="m562.1 233.16q-0.975 0-1.4688 0.9625-0.4875 0.95625-0.4875 2.8812 0 1.9188 0.4875 2.8812 0.49375 0.95625 1.4688 0.95625 0.98125 0 1.4688-0.95625 0.49375-0.9625 0.49375-2.8812 0-1.925-0.49375-2.8812-0.4875-0.9625-1.4688-0.9625zm0-1q1.5688 0 2.3938 1.2438 0.83125 1.2375 0.83125 3.6 0 2.3562-0.83125 3.6-0.825 1.2375-2.3938 1.2375t-2.4-1.2375q-0.825-1.2438-0.825-3.6 0-2.3625 0.825-3.6 0.83125-1.2438 2.4-1.2438z"/>
  <path id="path299" style="" d="m567.77 240.6h2.0625v-7.1188l-2.2438 0.45v-1.15l2.2312-0.45h1.2625v8.2688h2.0625v1.0625h-5.375v-1.0625z"/>
  <path id="path301" style="" d="m535.17 256.6h2.0625v-7.1188l-2.2438 0.45v-1.15l2.2312-0.45h1.2625v8.2688h2.0625v1.0625h-5.375v-1.0625z"/>
  <path id="path303" style="" d="m545.8 249.16q-0.975 0-1.4688 0.9625-0.4875 0.95625-0.4875 2.8812 0 1.9188 0.4875 2.8812 0.49375 0.95625 1.4688 0.95625 0.98125 0 1.4688-0.95625 0.49375-0.9625 0.49375-2.8812 0-1.925-0.49375-2.8812-0.4875-0.9625-1.4688-0.9625zm0-1q1.5688 0 2.3938 1.2438 0.83125 1.2375 0.83125 3.6 0 2.3562-0.83125 3.6-0.825 1.2375-2.3938 1.2375t-2.4-1.2375q-0.825-1.2438-0.825-3.6 0-2.3625 0.825-3.6 0.83125-1.2438 2.4-1.2438z"/>
  <path id="path305" style="" d="m551.47 256.6h2.0625v-7.1188l-2.2438 0.45v-1.15l2.2312-0.45h1.2625v8.2688h2.0625v1.0625h-5.375v-1.0625z"/>
  <path id="path307" style="" d="m562.1 249.16q-0.975 0-1.4688 0.9625-0.4875 0.95625-0.4875 2.8812 0 1.9188 0.4875 2.8812 0.49375 0.95625 1.4688 0.95625 0.98125 0 1.4688-0.95625 0.49375-0.9625 0.49375-2.8812 0-1.925-0.49375-2.8812-0.4875-0.9625-1.4688-0.9625zm0-1q1.5688 0 2.3938 1.2438 0.83125 1.2375 0.83125 3.6 0 2.3562-0.83125 3.6-0.825 1.2375-2.3938 1.2375t-2.4-1.2375q-0.825-1.2438-0.825-3.6 0-2.3625 0.825-3.6 0.83125-1.2438 2.4-1.2438z"/>
  <path id="path309" style="" d="m567.77 256.6h2.0625v-7.1188l-2.2438 0.45v-1.15l2.2312-0.45h1.2625v8.2688h2.0625v1.0625h-5.375v-1.0625z"/>
 </g>
 <g id="text106">
  <path id="path312" style="" d="m542.15 412.78q-0.975 0-1.4688 0.9625-0.4875 0.95625-0.4875 2.8812 0 1.9188 0.4875 2.8812 0.49375 0.95625 1.4688 0.95625 0.98125 0 1.4688-0.95625 0.49375-0.9625 0.49375-2.8812 0-1.925-0.49375-2.8812-0.4875-0.9625-1.4688-0.9625zm0-1q1.5688 0 2.3938 1.2438 0.83125 1.2375 0.83125 3.6 0 2.3562-0.83125 3.6-0.825 1.2375-2.3938 1.2375t-2.4-1.2375q-0.825-1.2438-0.825-3.6 0-2.3625 0.825-3.6 0.83125-1.2438 2.4-1.2438z"/>
  <path id="path314" style="" d="m547.82 420.22h2.0625v-7.1188l-2.2438 0.45v-1.15l2.2312-0.45h1.2625v8.2688h2.0625v1.0625h-5.375v-1.0625z"/>
  <path id="path316" style="" d="m558.45 412.78q-0.975 0-1.4688 0.9625-0.4875 0.95625-0.4875 2.8812 0 1.9188 0.4875 2.8812 0.49375 0.95625 1.4688 0.95625 0.98125 0 1.4688-0.95625 0.49375-0.9625 0.49375-2.8812 0-1.925-0.49375-2.8812-0.4875-0.9625-1.4688-0.9625zm0-1q1.5688 0 2.3938 1.2438 0.83125 1.2375 0.83125 3.6 0 2.3562-0.83125 3.6-0.825 1.2375-2.3938 1.2375t-2.4-1.2375q-0.825-1.2438-0.825-3.6 0-2.3625 0.825-3.6 0.83125-1.2438 2.4-1.2438z"/>
  <path id="path318" style="" d="m564.12 420.22h2.0625v-7.1188l-2.2438 0.45v-1.15l2.2312-0.45h1.2625v8.2688h2.0625v1.0625h-5.375v-1.0625z"/>
  <path id="path320" style="" d="m574.75 412.78q-0.975 0-1.4688 0.9625-0.4875 0.95625-0.4875 2.8812 0 1.9188 0.4875 2.8812 0.49375 0.95625 1.4688 0.95625 0.98125 0 1.4688-0.95625 0.49375-0.9625 0.49375-2.8812 0-1.925-0.49375-2.8812-0.4875-0.9625-1.4688-0.9625zm0-1q1.5688 0 2.3938 1.2438 0.83125 1.2375 0.83125 3.6 0 2.3562-0.83125 3.6-0.825 1.2375-2.3938 1.2375t-2.4-1.2375q-0.825-1.2438-0.825-3.6 0-2.3625 0.825-3.6 0.83125-1.2438 2.4-1.2438z"/>
  <path id="path322" style="" d="m542.15 428.78q-0.975 0-1.4688 0.9625-0.4875 0.95625-0.4875 2.8812 0 1.9188 0.4875 2.8812 0.49375 0.95625 1.4688 0.95625 0.98125 0 1.4688-0.95625 0.49375-0.9625 0.49375-2.8812 0-1.925-0.49375-2.8812-0.4875-0.9625-1.4688-0.9625zm0-1q1.5688 0 2.3938 1.2438 0.83125 1.2375 0.83125 3.6 0 2.3562-0.83125 3.6-0.825 1.2375-2.3938 1.2375t-2.4-1.2375q-0.825-1.2438-0.825-3.6 0-2.3625 0.825-3.6 0.83125-1.2438 2.4-1.2438z"/>
  <path id="path324" style="" d="m547.82 436.22h2.0625v-7.1188l-2.2438 0.45v-1.15l2.2312-0.45h1.2625v8.2688h2.0625v1.0625h-5.375v-1.0625z"/>
  <path id="path326" style="" d="m555.97 436.22h2.0625v-7.1188l-2.2438 0.45v-1.15l2.2312-0.45h1.2625v8.2688h2.0625v1.0625h-5.375v-1.0625z"/>
  <path id="path328" style="" d="m566.6 428.78q-0.975 0-1.4688 0.9625-0.4875 0.95625-0.4875 2.8812 0 1.9188 0.4875 2.8812 0.49375 0.95625 1.4688 0.95625 0.98125 0 1.4688-0.95625 0.49375-0.9625 0.49375-2.8812 0-1.925-0.49375-2.8812-0.4875-0.9625-1.4688-0.9625zm0-1q1.5688 0 2.3938 1.2438 0.83125 1.2375 0.83125 3.6 0 2.3562-0.83125 3.6-0.825 1.2375-2.3938 1.2375t-2.4-1.2375q-0.825-1.2438-0.825-3.6 0-2.3625 0.825-3.6 0.83125-1.2438 2.4-1.2438z"/>
  <path id="path330" style="" d="m572.27 436.22h2.0625v-7.1188l-2.2438 0.45v-1.15l2.2312-0.45h1.2625v8.2688h2.0625v1.0625h-5.375v-1.0625z"/>
  <path id="path332" style="" d="m539.67 452.22h2.0625v-7.1188l-2.2438 0.45v-1.15l2.2312-0.45h1.2625v8.2688h2.0625v1.0625h-5.375v-1.0625z"/>
  <path id="path334" style="" d="m550.3 444.78q-0.975 0-1.4688 0.9625-0.4875 0.95625-0.4875 2.8812 0 1.9188 0.4875 2.8812 0.49375 0.95625 1.4688 0.95625 0.98125 0 1.4688-0.95625 0.49375-0.9625 0.49375-2.8812 0-1.925-0.49375-2.8812-0.4875-0.9625-1.4688-0.9625zm0-1q1.5688 0 2.3938 1.2438 0.83125 1.2375 0.83125 3.6 0 2.3562-0.83125 3.6-0.825 1.2375-2.3938 1.2375t-2.4-1.2375q-0.825-1.2438-0.825-3.6 0-2.3625 0.825-3.6 0.83125-1.2438 2.4-1.2438z"/>
  <path id="path336" style="" d="m555.97 452.22h2.0625v-7.1188l-2.2438 0.45v-1.15l2.2312-0.45h1.2625v8.2688h2.0625v1.0625h-5.375v-1.0625z"/>
  <path id="path338" style="" d="m566.6 444.78q-0.975 0-1.4688 0.9625-0.4875 0.95625-0.4875 2.8812 0 1.9188 0.4875 2.8812 0.49375 0.95625 1.4688 0.95625 0.98125 0 1.4688-0.95625 0.49375-0.9625 0.49375-2.8812 0-1.925-0.49375-2.8812-0.4875-0.9625-1.4688-0.9625zm0-1q1.5688 0 2.3938 1.2438 0.83125 1.2375 0.83125 3.6 0 2.3562-0.83125 3.6-0.825 1.2375-2.3938 1.2375t-2.4-1.2375q-0.825-1.2438-0.825-3.6 0-2.3625 0.825-3.6 0.83125-1.2438 2.4-1.2438z"/>
  <path id="path340" style="" d="m572.27 452.22h2.0625v-7.1188l-2.2438 0.45v-1.15l2.2312-0.45h1.2625v8.2688h2.0625v1.0625h-5.375v-1.0625z"/>
 </g>
 <g id="text114">
  <path id="path343" style="" d="m259.66 418.66h1.15v7h-1.15v-7zm0-2.725h1.15v1.4562h-1.15v-1.4562z"/>
  <path id="path345" style="" d="m269.03 421.43v4.225h-1.15v-4.1875q0-0.99375-0.3875-1.4875t-1.1625-0.49375q-0.93125 0-1.4688 0.59375-0.5375 0.59375-0.5375 1.6188v3.9562h-1.1562v-7h1.1562v1.0875q0.4125-0.63125 0.96875-0.94375 0.5625-0.3125 1.2938-0.3125 1.2062 0 1.825 0.75 0.61875 0.74375 0.61875 2.1938z"/>
  <path id="path347" style="" d="m272.47 416.67v1.9875h2.3688v0.89375h-2.3688v3.8q0 0.85625 0.23125 1.1 0.2375 0.24375 0.95625 0.24375h1.1812v0.9625h-1.1812q-1.3312 0-1.8375-0.49375-0.50625-0.5-0.50625-1.8125v-3.8h-0.84375v-0.89375h0.84375v-1.9875h1.1562z"/>
  <path id="path349" style="" d="m285.89 420q0.43125-0.775 1.0312-1.1438 0.6-0.36875 1.4125-0.36875 1.0938 0 1.6875 0.76875 0.59375 0.7625 0.59375 2.175v4.225h-1.1562v-4.1875q0-1.0062-0.35625-1.4938-0.35625-0.4875-1.0875-0.4875-0.89375 0-1.4125 0.59375t-0.51875 1.6188v3.9562h-1.1562v-4.1875q0-1.0125-0.35625-1.4938-0.35625-0.4875-1.1-0.4875-0.88125 0-1.4 0.6-0.51875 0.59375-0.51875 1.6125v3.9562h-1.1562v-7h1.1562v1.0875q0.39375-0.64375 0.94375-0.95t1.3062-0.30625q0.7625 0 1.2938 0.3875 0.5375 0.3875 0.79375 1.125z"/>
  <path id="path351" style="" d="m296.09 422.14q-1.3938 0-1.9312 0.31875-0.5375 0.31875-0.5375 1.0875 0 0.6125 0.4 0.975 0.40625 0.35625 1.1 0.35625 0.95625 0 1.5312-0.675 0.58125-0.68125 0.58125-1.8062v-0.25625h-1.1438zm2.2938-0.475v3.9938h-1.15v-1.0625q-0.39375 0.6375-0.98125 0.94375-0.5875 0.3-1.4375 0.3-1.075 0-1.7125-0.6-0.63125-0.60625-0.63125-1.6188 0-1.1812 0.7875-1.7812 0.79375-0.6 2.3625-0.6h1.6125v-0.1125q0-0.79375-0.525-1.225-0.51875-0.4375-1.4625-0.4375-0.6 0-1.1688 0.14375-0.56875 0.14375-1.0938 0.43125v-1.0625q0.63125-0.24375 1.225-0.3625 0.59375-0.125 1.1562-0.125 1.5188 0 2.2688 0.7875t0.75 2.3875z"/>
  <path id="path353" style="" d="m300.76 418.66h1.15v7h-1.15v-7zm0-2.725h1.15v1.4562h-1.15v-1.4562z"/>
  <path id="path355" style="" d="m310.13 421.43v4.225h-1.15v-4.1875q0-0.99375-0.3875-1.4875t-1.1625-0.49375q-0.93125 0-1.4688 0.59375-0.5375 0.59375-0.5375 1.6188v3.9562h-1.1562v-7h1.1562v1.0875q0.4125-0.63125 0.96875-0.94375 0.5625-0.3125 1.2938-0.3125 1.2062 0 1.825 0.75 0.61875 0.74375 0.61875 2.1938z"/>
  <path id="path357" style="" d="m315.2 415.95q-0.8375 1.4375-1.2438 2.8438-0.40625 1.4062-0.40625 2.85t0.40625 2.8625q0.4125 1.4125 1.2438 2.8438h-1q-0.9375-1.4688-1.4062-2.8875-0.4625-1.4188-0.4625-2.8188 0-1.3938 0.4625-2.8062 0.4625-1.4125 1.4062-2.8875h1z"/>
  <path id="path359" style="" d="m316.61 418.66h1.2188l2.1875 5.875 2.1875-5.875h1.2188l-2.625 7h-1.5625l-2.625-7z"/>
  <path id="path361" style="" d="m259.82 440.07h1.3188v1.5875h-1.3188v-1.5875z"/>
  <path id="path363" style="" d="m263.9 440.07h1.3188v1.5875h-1.3188v-1.5875z"/>
  <path id="path365" style="" d="m267.97 440.07h1.3188v1.5875h-1.3188v-1.5875z"/>
  <path id="path367" style="" d="m260.06 458.85h0.4375q0.875 0 1.1375-0.26875 0.26875-0.26875 0.26875-1.1625v-1.55q0-0.975 0.28125-1.4188 0.28125-0.44375 0.975-0.6125-0.69375-0.15625-0.975-0.6t-0.28125-1.425v-1.55q0-0.8875-0.26875-1.1562-0.2625-0.275-1.1375-0.275h-0.4375v-0.89375h0.39375q1.5562 0 2.075 0.4625 0.525 0.45625 0.525 1.8375v1.5q0 0.93125 0.3375 1.2938 0.3375 0.35625 1.225 0.35625h0.3875v0.89375h-0.3875q-0.8875 0-1.225 0.3625t-0.3375 1.3062v1.4938q0 1.3812-0.525 1.8438-0.51875 0.4625-2.075 0.4625h-0.39375v-0.9z"/>
 </g>
 <g id="text122">
  <path id="path370" style="" d="m258.84 218.66h1.2188l2.1875 5.875 2.1875-5.875h1.2188l-2.625 7h-1.5625l-2.625-7z"/>
  <path id="path372" style="" d="m269.95 219.46q-0.925 0-1.4625 0.725-0.5375 0.71875-0.5375 1.975t0.53125 1.9812q0.5375 0.71875 1.4688 0.71875 0.91875 0 1.4562-0.725 0.5375-0.725 0.5375-1.975 0-1.2438-0.5375-1.9688-0.5375-0.73125-1.4562-0.73125zm0-0.975q1.5 0 2.3562 0.975 0.85625 0.975 0.85625 2.7 0 1.7188-0.85625 2.7-0.85625 0.975-2.3562 0.975-1.5062 0-2.3625-0.975-0.85-0.98125-0.85-2.7 0-1.725 0.85-2.7 0.85625-0.975 2.3625-0.975z"/>
  <path id="path374" style="" d="m275.06 218.66h1.15v7h-1.15v-7zm0-2.725h1.15v1.4562h-1.15v-1.4562z"/>
  <path id="path376" style="" d="m283.22 219.72v-3.7875h1.15v9.725h-1.15v-1.05q-0.3625 0.625-0.91875 0.93125-0.55 0.3-1.325 0.3-1.2688 0-2.0688-1.0125-0.79375-1.0125-0.79375-2.6625t0.79375-2.6625q0.8-1.0125 2.0688-1.0125 0.775 0 1.325 0.30625 0.55625 0.3 0.91875 0.925zm-3.9188 2.4438q0 1.2688 0.51875 1.9938 0.525 0.71875 1.4375 0.71875t1.4375-0.71875q0.525-0.725 0.525-1.9938t-0.525-1.9875q-0.525-0.725-1.4375-0.725t-1.4375 0.725q-0.51875 0.71875-0.51875 1.9875z"/>
  <path id="path378" style="" d="m294.36 215.93v0.95625h-1.1q-0.61875 0-0.8625 0.25-0.2375 0.25-0.2375 0.9v0.61875h1.8938v0.89375h-1.8938v6.1062h-1.1562v-6.1062h-1.1v-0.89375h1.1v-0.4875q0-1.1688 0.54375-1.7 0.54375-0.5375 1.725-0.5375h1.0875z"/>
  <path id="path380" style="" d="m298.07 215.95q-0.8375 1.4375-1.2438 2.8438-0.40625 1.4062-0.40625 2.85t0.40625 2.8625q0.4125 1.4125 1.2438 2.8438h-1q-0.9375-1.4688-1.4062-2.8875-0.4625-1.4188-0.4625-2.8188 0-1.3938 0.4625-2.8062 0.4625-1.4125 1.4062-2.8875h1z"/>
  <path id="path382" style="" d="m300.31 218.66h1.15v7h-1.15v-7zm0-2.725h1.15v1.4562h-1.15v-1.4562z"/>
  <path id="path384" style="" d="m309.68 221.43v4.225h-1.15v-4.1875q0-0.99375-0.3875-1.4875t-1.1625-0.49375q-0.93125 0-1.4688 0.59375-0.5375 0.59375-0.5375 1.6188v3.9562h-1.1562v-7h1.1562v1.0875q0.4125-0.63125 0.96875-0.94375 0.5625-0.3125 1.2938-0.3125 1.2062 0 1.825 0.75 0.61875 0.74375 0.61875 2.1938z"/>
  <path id="path386" style="" d="m313.12 216.67v1.9875h2.3688v0.89375h-2.3688v3.8q0 0.85625 0.23125 1.1 0.2375 0.24375 0.95625 0.24375h1.1812v0.9625h-1.1812q-1.3312 0-1.8375-0.49375-0.50625-0.5-0.50625-1.8125v-3.8h-0.84375v-0.89375h0.84375v-1.9875h1.1562z"/>
  <path id="path388" style="" d="m321.09 218.66h1.15v7h-1.15v-7zm0-2.725h1.15v1.4562h-1.15v-1.4562z"/>
  <path id="path390" style="" d="m259.82 240.07h1.3188v1.5875h-1.3188v-1.5875z"/>
  <path id="path392" style="" d="m263.9 240.07h1.3188v1.5875h-1.3188v-1.5875z"/>
  <path id="path394" style="" d="m267.97 240.07h1.3188v1.5875h-1.3188v-1.5875z"/>
  <path id="path396" style="" d="m260.06 258.85h0.4375q0.875 0 1.1375-0.26875 0.26875-0.26875 0.26875-1.1625v-1.55q0-0.975 0.28125-1.4188 0.28125-0.44375 0.975-0.6125-0.69375-0.15625-0.975-0.6t-0.28125-1.425v-1.55q0-0.8875-0.26875-1.1562-0.2625-0.275-1.1375-0.275h-0.4375v-0.89375h0.39375q1.5562 0 2.075 0.4625 0.525 0.45625 0.525 1.8375v1.5q0 0.93125 0.3375 1.2938 0.3375 0.35625 1.225 0.35625h0.3875v0.89375h-0.3875q-0.8875 0-1.225 0.3625t-0.3375 1.3062v1.4938q0 1.3812-0.525 1.8438-0.51875 0.4625-2.075 0.4625h-0.39375v-0.9z"/>
 </g>
</svg>
