<?xml version="1.0" encoding="UTF-8"?>
<svg id="svg65" width="33cm" height="13.467cm" version="1.1" viewBox="79 149 642 252.03" xmlns="http://www.w3.org/2000/svg" xmlns:cc="http://creativecommons.org/ns#" xmlns:dc="http://purl.org/dc/elements/1.1/" xmlns:rdf="http://www.w3.org/1999/02/22-rdf-syntax-ns#">
 <metadata id="metadata69">
  <rdf:RDF>
   <cc:Work rdf:about="">
    <dc:format>image/svg+xml</dc:format>
    <dc:type rdf:resource="http://purl.org/dc/dcmitype/StillImage"/>
   </cc:Work>
  </rdf:RDF>
 </metadata>
 <g id="Háttér" transform="translate(0 -4.9846)">
  <path id="rect4" d="m360 150h120v100h-120z" fill="#fff" stroke="#000" stroke-width="2"/>
  <g id="text8" aria-label="base_rule">
   <path id="path844" d="m385.22 201.32q0-1.7904-0.74083-2.8046-0.73201-1.0231-2.0196-1.0231t-2.0285 1.0231q-0.73201 1.0142-0.73201 2.8046 0 1.7903 0.73201 2.8134 0.74083 1.0142 2.0285 1.0142t2.0196-1.0142q0.74083-1.0231 0.74083-2.8134zm-5.521-3.4484q0.51152-0.88195 1.2876-1.3053 0.78493-0.43215 1.8697-0.43215 1.7992 0 2.9192 1.4288 1.1289 1.4288 1.1289 3.7571t-1.1289 3.7571q-1.1201 1.4287-2.9192 1.4287-1.0848 0-1.8697-0.42333-0.77611-0.43215-1.2876-1.3141v1.4817h-1.6316v-13.723h1.6316z"/>
   <path id="path846" d="m394.09 201.28q-1.9667 0-2.7252 0.44979t-0.75847 1.5346q0 0.86431 0.56444 1.3758 0.57326 0.50271 1.5522 0.50271 1.3494 0 2.1608-0.9525 0.82021-0.96132 0.82021-2.5488v-0.3616zm3.2367-0.67028v5.6356h-1.6228v-1.4993q-0.55562 0.89958-1.3846 1.3317-0.82903 0.42333-2.0285 0.42333-1.5169 0-2.4165-0.84666-0.89076-0.85549-0.89076-2.2842 0-1.6669 1.1112-2.5135 1.1201-0.84667 3.3338-0.84667h2.2754v-0.15875q0-1.1201-0.74083-1.7286-0.73202-0.61736-2.0638-0.61736-0.84667 0-1.6492 0.20285-0.80257 0.20285-1.5434 0.60854v-1.4993q0.89077-0.34396 1.7286-0.51153 0.83785-0.17639 1.6316-0.17639 2.1431 0 3.2014 1.1112 1.0583 1.1112 1.0583 3.369z"/>
   <path id="path848" d="m406.97 196.66v1.5346q-0.68792-0.35278-1.4288-0.52917t-1.5346-0.17639q-1.2083 0-1.8168 0.37042-0.59972 0.37041-0.59972 1.1112 0 0.56444 0.43215 0.89076 0.43216 0.3175 1.7374 0.60854l0.55563 0.12347q1.7286 0.37042 2.4518 1.0495 0.73201 0.67027 0.73201 1.8785 0 1.3758-1.0936 2.1784-1.0848 0.80256-2.9898 0.80256-0.79374 0-1.658-0.15875-0.85548-0.14993-1.808-0.45861v-1.6757q0.89958 0.46743 1.7727 0.70556 0.87313 0.2293 1.7286 0.2293 1.1465 0 1.7639-0.38805 0.61736-0.39688 0.61736-1.1112 0-0.66146-0.44979-1.0142-0.44097-0.35278-1.9491-0.67909l-0.56444-0.1323q-1.5081-0.3175-2.1784-0.97013-0.67028-0.66146-0.67028-1.808 0-1.3935 0.98778-2.1519t2.8046-0.75847q0.89958 0 1.6933 0.13229t1.464 0.39688z"/>
   <path id="path850" d="m418.54 200.91v0.79375h-7.4612q0.10584 1.6757 1.0054 2.5576 0.9084 0.87312 2.5224 0.87312 0.93486 0 1.808-0.2293 0.88194-0.22931 1.7462-0.68792v1.5346q-0.87313 0.37042-1.7904 0.56445-0.91722 0.19402-1.8609 0.19402-2.3636 0-3.7483-1.3758-1.3758-1.3758-1.3758-3.7218 0-2.4253 1.3053-3.8453 1.3141-1.4288 3.5366-1.4288 1.9932 0 3.1485 1.2876 1.1642 1.2788 1.1642 3.4837zm-1.6228-0.47625q-0.0176-1.3317-0.74965-2.1255-0.7232-0.79375-1.9226-0.79375-1.3582 0-2.1784 0.76729-0.81139 0.76729-0.93486 2.1608z"/>
   <path id="path852" d="m428.71 209.25v1.2612h-9.3839v-1.2612z"/>
   <path id="path854" d="m435.96 197.89q-0.27341-0.15875-0.59972-0.22931-0.3175-0.0794-0.70556-0.0794-1.3758 0-2.1167 0.89958-0.73202 0.89076-0.73202 2.5664v5.2035h-1.6316v-9.8778h1.6316v1.5346q0.51153-0.89959 1.3317-1.3317 0.82021-0.44097 1.9932-0.44097 0.16757 0 0.37042 0.0265 0.20284 0.0176 0.44979 0.0617z"/>
   <path id="path856" d="m437.52 202.35v-5.9796h1.6228v5.9178q0 1.4023 0.54681 2.1078 0.5468 0.69673 1.6404 0.69673 1.3141 0 2.0726-0.83784 0.76729-0.83785 0.76729-2.2842v-5.6003h1.6228v9.8778h-1.6228v-1.5169q-0.5909 0.89958-1.3758 1.3406-0.77611 0.43215-1.808 0.43215-1.7022 0-2.5841-1.0583-0.88195-1.0583-0.88195-3.0956zm4.0834-6.2177z"/>
   <path id="path858" d="m449.15 192.53h1.6228v13.723h-1.6228z"/>
   <path id="path860" d="m462.61 200.91v0.79375h-7.4612q0.10583 1.6757 1.0054 2.5576 0.9084 0.87312 2.5224 0.87312 0.93486 0 1.808-0.2293 0.88195-0.22931 1.7462-0.68792v1.5346q-0.87312 0.37042-1.7903 0.56445-0.91723 0.19402-1.8609 0.19402-2.3636 0-3.7483-1.3758-1.3758-1.3758-1.3758-3.7218 0-2.4253 1.3053-3.8453 1.3141-1.4288 3.5366-1.4288 1.9932 0 3.1485 1.2876 1.1642 1.2788 1.1642 3.4837zm-1.6228-0.47625q-0.0176-1.3317-0.74965-2.1255-0.72319-0.79375-1.9226-0.79375-1.3582 0-2.1784 0.76729-0.81139 0.76729-0.93486 2.1608z"/>
  </g>
  <path id="rect10" d="m360 310h120v100h-120z" fill="#fff" stroke="#000" stroke-width="2"/>
  <g id="text14" aria-label="character">
   <path id="path864" d="m385.51 356.75v1.5169q-0.68791-0.37923-1.3846-0.56444-0.68791-0.19403-1.3935-0.19403-1.5787 0-2.4518 1.0054-0.87312 0.99659-0.87312 2.8046 0 1.808 0.87312 2.8134 0.87312 0.99659 2.4518 0.99659 0.70556 0 1.3935-0.18521 0.69674-0.19402 1.3846-0.57326v1.4993q-0.67909 0.3175-1.4111 0.47625-0.72319 0.15875-1.5434 0.15875-2.2313 0-3.5454-1.4023-1.3141-1.4023-1.3141-3.7835 0-2.4165 1.3229-3.8012 1.3317-1.3846 3.6424-1.3846 0.74965 0 1.464 0.15875 0.71438 0.14993 1.3846 0.45861z"/>
   <path id="path866" d="m396.56 360.29v5.9619h-1.6228v-5.909q0-1.4023-0.54681-2.099-0.5468-0.69673-1.6404-0.69673-1.3141 0-2.0726 0.83784-0.75847 0.83785-0.75847 2.2842v5.5827h-1.6316v-13.723h1.6316v5.3799q0.58208-0.89077 1.367-1.3317 0.79375-0.44097 1.8256-0.44097 1.7022 0 2.5753 1.0583 0.87312 1.0495 0.87312 3.0956z"/>
   <path id="path868" d="m404.3 361.28q-1.9667 0-2.7252 0.44979t-0.75847 1.5346q0 0.86431 0.56445 1.3758 0.57326 0.50271 1.5522 0.50271 1.3494 0 2.1608-0.9525 0.8202-0.96132 0.8202-2.5488v-0.3616zm3.2367-0.67028v5.6356h-1.6228v-1.4993q-0.55562 0.89958-1.3846 1.3317-0.82902 0.42333-2.0285 0.42333-1.5169 0-2.4165-0.84666-0.89076-0.85549-0.89076-2.2842 0-1.6669 1.1112-2.5135 1.1201-0.84667 3.3338-0.84667h2.2754v-0.15875q0-1.1201-0.74083-1.7286-0.73201-0.61736-2.0638-0.61736-0.84666 0-1.6492 0.20285t-1.5434 0.60854v-1.4993q0.89076-0.34396 1.7286-0.51153 0.83784-0.17639 1.6316-0.17639 2.1431 0 3.2015 1.1112t1.0583 3.369z"/>
   <path id="path870" d="m416.61 357.89q-0.2734-0.15875-0.59972-0.22931-0.3175-0.0794-0.70556-0.0794-1.3758 0-2.1167 0.89958-0.73202 0.89076-0.73202 2.5664v5.2035h-1.6316v-9.8778h1.6316v1.5346q0.51153-0.89959 1.3317-1.3317 0.82021-0.44097 1.9932-0.44097 0.16757 0 0.37042 0.0265 0.20284 0.0176 0.44979 0.0617z"/>
   <path id="path872" d="m422.82 361.28q-1.9667 0-2.7252 0.44979t-0.75847 1.5346q0 0.86431 0.56444 1.3758 0.57327 0.50271 1.5522 0.50271 1.3494 0 2.1608-0.9525 0.8202-0.96132 0.8202-2.5488v-0.3616zm3.2367-0.67028v5.6356h-1.6228v-1.4993q-0.55562 0.89958-1.3846 1.3317-0.82902 0.42333-2.0285 0.42333-1.5169 0-2.4165-0.84666-0.89077-0.85549-0.89077-2.2842 0-1.6669 1.1112-2.5135 1.1201-0.84667 3.3338-0.84667h2.2754v-0.15875q0-1.1201-0.74083-1.7286-0.73201-0.61736-2.0638-0.61736-0.84666 0-1.6492 0.20285t-1.5434 0.60854v-1.4993q0.89076-0.34396 1.7286-0.51153 0.83784-0.17639 1.6316-0.17639 2.1431 0 3.2015 1.1112t1.0583 3.369z"/>
   <path id="path874" d="m436.52 356.75v1.5169q-0.68792-0.37923-1.3846-0.56444-0.68792-0.19403-1.3935-0.19403-1.5787 0-2.4518 1.0054-0.87312 0.99659-0.87312 2.8046 0 1.808 0.87312 2.8134 0.87313 0.99659 2.4518 0.99659 0.70555 0 1.3935-0.18521 0.69673-0.19402 1.3846-0.57326v1.4993q-0.6791 0.3175-1.4111 0.47625-0.72319 0.15875-1.5434 0.15875-2.2313 0-3.5454-1.4023-1.3141-1.4023-1.3141-3.7835 0-2.4165 1.3229-3.8012 1.3317-1.3846 3.6424-1.3846 0.74965 0 1.464 0.15875 0.71437 0.14993 1.3846 0.45861z"/>
   <path id="path876" d="m440.96 353.57v2.8046h3.3426v1.2612h-3.3426v5.3622q0 1.2083 0.32632 1.5522 0.33514 0.34396 1.3494 0.34396h1.6669v1.3582h-1.6669q-1.8785 0-2.5929-0.69674-0.71437-0.70555-0.71437-2.5576v-5.3622h-1.1906v-1.2612h1.1906v-2.8046z"/>
   <path id="path878" d="m454.9 360.91v0.79375h-7.4612q0.10583 1.6757 1.0054 2.5576 0.9084 0.87312 2.5224 0.87312 0.93486 0 1.808-0.2293 0.88194-0.22931 1.7462-0.68792v1.5346q-0.87312 0.37042-1.7903 0.56445-0.91722 0.19402-1.8609 0.19402-2.3636 0-3.7483-1.3758-1.3758-1.3758-1.3758-3.7218 0-2.4253 1.3053-3.8453 1.3141-1.4288 3.5366-1.4288 1.9932 0 3.1485 1.2876 1.1642 1.2788 1.1642 3.4837zm-1.6228-0.47625q-0.0176-1.3317-0.74965-2.1255-0.72319-0.79375-1.9226-0.79375-1.3582 0-2.1784 0.76729-0.81138 0.76729-0.93486 2.1608z"/>
   <path id="path880" d="m463.29 357.89q-0.2734-0.15875-0.59972-0.22931-0.3175-0.0794-0.70555-0.0794-1.3758 0-2.1167 0.89958-0.73201 0.89076-0.73201 2.5664v5.2035h-1.6316v-9.8778h1.6316v1.5346q0.51153-0.89959 1.3317-1.3317 0.82021-0.44097 1.9932-0.44097 0.16757 0 0.37042 0.0265 0.20285 0.0176 0.44979 0.0617z"/>
  </g>
  <path id="rect16" d="m540 310h120v100h-120z" fill="#fff" stroke="#000" stroke-width="2"/>
  <g id="text20" aria-label="succession">
   <path id="path884" d="m558.87 356.66v1.5346q-0.68792-0.35278-1.4288-0.52917t-1.5346-0.17639q-1.2083 0-1.8168 0.37042-0.59972 0.37041-0.59972 1.1112 0 0.56444 0.43215 0.89076 0.43215 0.3175 1.7374 0.60854l0.55562 0.12347q1.7286 0.37042 2.4518 1.0495 0.73202 0.67027 0.73202 1.8785 0 1.3758-1.0936 2.1784-1.0848 0.80256-2.9898 0.80256-0.79375 0-1.6581-0.15875-0.85548-0.14993-1.808-0.45861v-1.6757q0.89958 0.46743 1.7727 0.70556 0.87312 0.2293 1.7286 0.2293 1.1465 0 1.7639-0.38805 0.61736-0.39688 0.61736-1.1112 0-0.66146-0.44979-1.0142-0.44097-0.35278-1.9491-0.67909l-0.56445-0.1323q-1.5081-0.3175-2.1784-0.97013-0.67027-0.66146-0.67027-1.808 0-1.3935 0.98777-2.1519 0.98778-0.75847 2.8046-0.75847 0.89958 0 1.6933 0.13229t1.464 0.39688z"/>
   <path id="path886" d="m561.83 362.35v-5.9796h1.6228v5.9178q0 1.4023 0.5468 2.1078 0.54681 0.69673 1.6404 0.69673 1.3141 0 2.0726-0.83784 0.76729-0.83785 0.76729-2.2842v-5.6003h1.6228v9.8778h-1.6228v-1.5169q-0.5909 0.89958-1.3758 1.3406-0.77611 0.43215-1.808 0.43215-1.7022 0-2.5841-1.0583-0.88194-1.0583-0.88194-3.0956zm4.0834-6.2177z"/>
   <path id="path888" d="m580.57 356.75v1.5169q-0.68792-0.37923-1.3846-0.56444-0.68792-0.19403-1.3935-0.19403-1.5787 0-2.4518 1.0054-0.87312 0.99659-0.87312 2.8046 0 1.808 0.87312 2.8134 0.87313 0.99659 2.4518 0.99659 0.70556 0 1.3935-0.18521 0.69673-0.19402 1.3846-0.57326v1.4993q-0.6791 0.3175-1.4111 0.47625-0.7232 0.15875-1.5434 0.15875-2.2313 0-3.5454-1.4023-1.3141-1.4023-1.3141-3.7835 0-2.4165 1.3229-3.8012 1.3317-1.3846 3.6424-1.3846 0.74965 0 1.464 0.15875 0.71437 0.14993 1.3846 0.45861z"/>
   <path id="path890" d="m590.52 356.75v1.5169q-0.68792-0.37923-1.3846-0.56444-0.68792-0.19403-1.3935-0.19403-1.5787 0-2.4518 1.0054-0.87312 0.99659-0.87312 2.8046 0 1.808 0.87312 2.8134 0.87313 0.99659 2.4518 0.99659 0.70555 0 1.3935-0.18521 0.69673-0.19402 1.3846-0.57326v1.4993q-0.6791 0.3175-1.4111 0.47625-0.72319 0.15875-1.5434 0.15875-2.2313 0-3.5454-1.4023-1.3141-1.4023-1.3141-3.7835 0-2.4165 1.3229-3.8012 1.3317-1.3846 3.6424-1.3846 0.74965 0 1.464 0.15875 0.71437 0.14993 1.3846 0.45861z"/>
   <path id="path892" d="m601.81 360.91v0.79375h-7.4612q0.10584 1.6757 1.0054 2.5576 0.9084 0.87312 2.5224 0.87312 0.93486 0 1.808-0.2293 0.88194-0.22931 1.7462-0.68792v1.5346q-0.87312 0.37042-1.7904 0.56445-0.91722 0.19402-1.8609 0.19402-2.3636 0-3.7483-1.3758-1.3758-1.3758-1.3758-3.7218 0-2.4253 1.3053-3.8453 1.3141-1.4288 3.5366-1.4288 1.9932 0 3.1485 1.2876 1.1642 1.2788 1.1642 3.4837zm-1.6228-0.47625q-0.0176-1.3317-0.74965-2.1255-0.7232-0.79375-1.9226-0.79375-1.3582 0-2.1784 0.76729-0.81139 0.76729-0.93486 2.1608z"/>
   <path id="path894" d="m610.77 356.66v1.5346q-0.68792-0.35278-1.4288-0.52917t-1.5346-0.17639q-1.2083 0-1.8168 0.37042-0.59972 0.37041-0.59972 1.1112 0 0.56444 0.43215 0.89076 0.43216 0.3175 1.7374 0.60854l0.55563 0.12347q1.7286 0.37042 2.4518 1.0495 0.73201 0.67027 0.73201 1.8785 0 1.3758-1.0936 2.1784-1.0848 0.80256-2.9898 0.80256-0.79375 0-1.6581-0.15875-0.85548-0.14993-1.808-0.45861v-1.6757q0.89958 0.46743 1.7727 0.70556 0.87313 0.2293 1.7286 0.2293 1.1465 0 1.7639-0.38805 0.61736-0.39688 0.61736-1.1112 0-0.66146-0.44979-1.0142-0.44097-0.35278-1.9491-0.67909l-0.56444-0.1323q-1.5081-0.3175-2.1784-0.97013-0.67028-0.66146-0.67028-1.808 0-1.3935 0.98778-2.1519t2.8046-0.75847q0.89958 0 1.6933 0.13229t1.464 0.39688z"/>
   <path id="path896" d="m620.19 356.66v1.5346q-0.68792-0.35278-1.4288-0.52917t-1.5346-0.17639q-1.2083 0-1.8168 0.37042-0.59972 0.37041-0.59972 1.1112 0 0.56444 0.43215 0.89076 0.43216 0.3175 1.7374 0.60854l0.55563 0.12347q1.7286 0.37042 2.4518 1.0495 0.73201 0.67027 0.73201 1.8785 0 1.3758-1.0936 2.1784-1.0848 0.80256-2.9898 0.80256-0.79374 0-1.658-0.15875-0.85548-0.14993-1.808-0.45861v-1.6757q0.89958 0.46743 1.7727 0.70556 0.87313 0.2293 1.7286 0.2293 1.1465 0 1.7639-0.38805 0.61736-0.39688 0.61736-1.1112 0-0.66146-0.44979-1.0142-0.44097-0.35278-1.9491-0.67909l-0.56444-0.1323q-1.5081-0.3175-2.1784-0.97013-0.67028-0.66146-0.67028-1.808 0-1.3935 0.98778-2.1519t2.8046-0.75847q0.89958 0 1.6933 0.13229t1.464 0.39688z"/>
   <path id="path898" d="m623.31 356.37h1.6228v9.8778h-1.6228zm0-3.8453h1.6228v2.0549h-1.6228z"/>
   <path id="path900" d="m632.15 357.51q-1.3053 0-2.0637 1.0231-0.75848 1.0142-0.75848 2.7869 0 1.7727 0.74966 2.7958 0.75847 1.0142 2.0726 1.0142 1.2965 0 2.0549-1.023 0.75847-1.0231 0.75847-2.7869 0-1.7551-0.75847-2.7781-0.75847-1.0319-2.0549-1.0319zm0-1.3758q2.1167 0 3.3249 1.3758t1.2083 3.81q0 2.4253-1.2083 3.81-1.2083 1.3758-3.3249 1.3758-2.1255 0-3.3337-1.3758-1.1994-1.3846-1.1994-3.81 0-2.4342 1.1994-3.81 1.2083-1.3758 3.3337-1.3758z"/>
   <path id="path902" d="m647.57 360.29v5.9619h-1.6228v-5.909q0-1.4023-0.54681-2.099-0.5468-0.69673-1.6404-0.69673-1.3141 0-2.0726 0.83784-0.75847 0.83785-0.75847 2.2842v5.5827h-1.6316v-9.8778h1.6316v1.5346q0.58208-0.89077 1.367-1.3317 0.79375-0.44097 1.8256-0.44097 1.7022 0 2.5753 1.0583 0.87312 1.0495 0.87312 3.0956z"/>
  </g>
  <g id="g26" fill="none" stroke="#000" stroke-width="2">
   <path id="line22" d="m297.35 309.02 48.683-43.274"/>
   <path id="polygon24" d="m352.68 273.22 8.304-20.761-21.592 5.813z"/>
  </g>
  <g id="g32" fill="none" stroke="#000" stroke-width="2">
   <path id="line28" d="m542.65 309.02-48.683-43.274"/>
   <path id="polygon30" d="m500.61 258.28-21.592-5.813 8.304 20.761z"/>
  </g>
  <g id="g38" stroke="#000" stroke-width="2">
   <path id="polyline34" d="m480.97 200h239.03v160h-41.825" fill="none"/>
   <path id="polygon36" d="m671 350 10 10-10 10-10-10z" fill-rule="evenodd"/>
  </g>
  <path id="rect40" d="m180 310h120v100h-120z" fill="#fff" stroke="#000" stroke-width="2"/>
  <g id="text44" aria-label="rule">
   <path id="path912" d="m229.91 357.89q-0.2734-0.15875-0.59972-0.22931-0.3175-0.0794-0.70556-0.0794-1.3758 0-2.1167 0.89958-0.73202 0.89076-0.73202 2.5664v5.2035h-1.6316v-9.8778h1.6316v1.5346q0.51153-0.89959 1.3317-1.3317 0.82021-0.44097 1.9932-0.44097 0.16757 0 0.37042 0.0265 0.20284 0.0176 0.44979 0.0617z"/>
   <path id="path914" d="m231.46 362.35v-5.9796h1.6228v5.9178q0 1.4023 0.54681 2.1078 0.5468 0.69673 1.6404 0.69673 1.3141 0 2.0726-0.83784 0.76729-0.83785 0.76729-2.2842v-5.6003h1.6228v9.8778h-1.6228v-1.5169q-0.5909 0.89958-1.3758 1.3406-0.77611 0.43215-1.808 0.43215-1.7022 0-2.5841-1.0583t-0.88194-3.0956zm4.0834-6.2177z"/>
   <path id="path916" d="m243.1 352.53h1.6228v13.723h-1.6228z"/>
   <path id="path918" d="m256.55 360.91v0.79375h-7.4612q0.10583 1.6757 1.0054 2.5576 0.9084 0.87312 2.5224 0.87312 0.93486 0 1.808-0.2293 0.88195-0.22931 1.7462-0.68792v1.5346q-0.87312 0.37042-1.7903 0.56445-0.91722 0.19402-1.8609 0.19402-2.3636 0-3.7483-1.3758-1.3758-1.3758-1.3758-3.7218 0-2.4253 1.3053-3.8453 1.3141-1.4288 3.5366-1.4288 1.9932 0 3.1485 1.2876 1.1642 1.2788 1.1642 3.4837zm-1.6228-0.47625q-0.0176-1.3317-0.74965-2.1255-0.72319-0.79375-1.9226-0.79375-1.3582 0-2.1784 0.76729-0.81139 0.76729-0.93486 2.1608z"/>
  </g>
  <g id="g54" stroke="#000" stroke-width="2">
   <path id="polygon46" d="m151.86 332 28 28-28 28-27.86-28.002z" fill="#fdfd04" fill-rule="evenodd"/>
   <path id="ellipse48" d="m145.86 352a2 4 0 0 1-2 4 2 4 0 0 1-2-4 2 4 0 0 1 2-4 2 4 0 0 1 2 4z"/>
   <path id="ellipse50" d="m161.86 352a2 4 0 0 1-2 4 2 4 0 0 1-2-4 2 4 0 0 1 2-4 2 4 0 0 1 2 4z"/>
   <path id="path52" d="m137.86 366a16.25 16.25 0 0 0 28 0" fill="none"/>
  </g>
  <path id="polyline56" d="m360 200h-280v160h44" fill="none" stroke="#000" stroke-width="2"/>
  <g id="g62" fill="none" stroke="#000" stroke-width="2">
   <path id="line58" d="m420 309.02v-35.81"/>
   <path id="polygon60" d="m430 273.21-10-20-10 20z"/>
  </g>
 </g>
</svg>
