<?xml version="1.0" encoding="UTF-8"?>
<svg id="svg77" width="32.79cm" height="19cm" version="1.1" viewBox="79 -1 637.92 372" xmlns="http://www.w3.org/2000/svg" xmlns:cc="http://creativecommons.org/ns#" xmlns:dc="http://purl.org/dc/elements/1.1/" xmlns:rdf="http://www.w3.org/1999/02/22-rdf-syntax-ns#">
 <metadata id="metadata81">
  <rdf:RDF>
   <cc:Work rdf:about="">
    <dc:format>image/svg+xml</dc:format>
    <dc:type rdf:resource="http://purl.org/dc/dcmitype/StillImage"/>
   </cc:Work>
  </rdf:RDF>
 </metadata>
 <g id="Háttér" transform="translate(-2.0396)">
  <path id="rect4" d="m440 150h120v80h-120z" fill="#fff" stroke="#000" stroke-width="2"/>
  <g id="text8" aria-label="base_rule">
   <path id="path850" d="m465.37 190.22q0-1.2788-0.5909-2.002-0.58208-0.7232-1.614-0.7232-0.74965 0-1.4111 0.37042-0.65263 0.3616-1.1377 1.0583-0.51153 0.73201-0.81139 1.7022-0.29104 0.96132-0.29104 1.9226 0 1.2171 0.57326 1.9138 0.58208 0.68792 1.5963 0.68792 0.76729 0 1.4199-0.35278 0.65264-0.36159 1.1465-1.0583 0.50271-0.72319 0.81139-1.6845t0.30868-1.8344zm-5.0447-2.346q0.59972-0.81139 1.4993-1.27 0.9084-0.46743 1.8962-0.46743 1.5169 0 2.4077 1.023 0.89959 1.0231 0.89959 2.7693 0 1.4287-0.52917 2.7693-0.52035 1.3406-1.4905 2.3812-0.635 0.68791-1.464 1.0583-0.82903 0.37041-1.7374 0.37041-0.96132 0-1.6669-0.44097-0.70556-0.44097-1.1465-1.3141l-0.29104 1.4993h-1.6228l2.6723-13.723h1.6228z"/>
   <path id="path852" d="m477.6 190.61-1.1024 5.6356h-1.6228l0.29986-1.4993q-0.71437 0.88194-1.6316 1.3229-0.9084 0.43215-2.0285 0.43215-1.2612 0-2.0726-0.76729-0.80257-0.77611-0.80257-1.9844 0-1.7286 1.3758-2.734 1.3846-1.0054 3.81-1.0054h2.2578l0.0882-0.43215q0.0176-0.0706 0.0265-0.14993 9e-3 -0.0882 9e-3 -0.26459 0-0.78493-0.64382-1.2171-0.635-0.44097-1.7904-0.44097-0.79375 0-1.6316 0.20285-0.82903 0.20285-1.711 0.60854l0.28222-1.4993q0.91722-0.34396 1.7904-0.51153 0.88194-0.17639 1.7022-0.17639 1.7462 0 2.6546 0.75847 0.91722 0.75847 0.91722 2.2049 0 0.29104-0.0441 0.68791-0.0441 0.38806-0.13229 0.82903zm-1.7551 0.67028h-1.6228q-1.9932 0-2.9545 0.53798-0.95249 0.52917-0.95249 1.6492 0 0.77611 0.48506 1.2171 0.49389 0.44097 1.3582 0.44097 1.3229 0 2.3107-0.94368 0.98778-0.9525 1.3053-2.54z"/>
   <path id="path854" d="m488.01 186.66-0.30868 1.5346q-0.64382-0.35278-1.3582-0.52917-0.71438-0.17639-1.4728-0.17639-1.2788 0-2.0196 0.44097-0.73201 0.43216-0.73201 1.1818 0 0.87312 1.711 1.3406 0.13229 0.0353 0.19403 0.0529l0.52034 0.15875q1.6228 0.44979 2.1608 0.94368 0.54681 0.49389 0.54681 1.3494 0 1.5699-1.2524 2.5576-1.2435 0.98777-3.2632 0.98777-0.78493 0-1.6492-0.14993-0.8643-0.14993-1.905-0.46743l0.3175-1.6757q0.89076 0.45861 1.7551 0.69674 0.86431 0.23812 1.6581 0.23812 1.1906 0 1.9314-0.51153 0.74965-0.51152 0.74965-1.2964 0-0.84667-1.9579-1.367l-0.16757-0.0441-0.55562-0.14111q-1.2347-0.32632-1.808-0.85549-0.57326-0.53798-0.57326-1.367 0-1.5787 1.1818-2.5047 1.1906-0.92604 3.2279-0.92604 0.80257 0 1.561 0.13229 0.76729 0.13229 1.5081 0.39688z"/>
   <path id="path856" d="m497.08 190.43q0.0265-0.14111 0.0353-0.29104 0.0176-0.14993 0.0176-0.29986 0-1.076-0.635-1.7022-0.62618-0.62618-1.711-0.62618-1.2083 0-2.1343 0.76729-0.92604 0.75847-1.4023 2.1608zm1.4111 1.27h-7.5494q-0.0529 0.33514-0.0705 0.52917t-0.0176 0.33514q0 1.2259 0.74965 1.8962 0.75847 0.67028 2.1343 0.67028 1.0583 0 2.002-0.23812 0.94368-0.23813 1.7551-0.69674l-0.30868 1.6051q-0.87312 0.35278-1.808 0.52916-0.92604 0.17639-1.8874 0.17639-2.0549 0-3.1662-0.97895-1.1024-0.98778-1.1024-2.7958 0-1.5434 0.54681-2.8663 0.55562-1.3317 1.6228-2.3724 0.68792-0.65264 1.6316-1.0054 0.9525-0.35278 2.0196-0.35278 1.6757 0 2.6635 1.0054 0.99659 1.0054 0.99659 2.6988 0 0.4057-0.0529 0.87313-0.0529 0.45861-0.15875 0.98777z"/>
   <path id="path858" d="m508.71 199.25v1.2612h-9.3839v-1.2612z"/>
   <path id="path860" d="m516.59 187.87q-0.24695-0.13229-0.56445-0.20285-0.3175-0.0705-0.67909-0.0705-1.2965 0-2.2666 0.98777-0.97014 0.97896-1.2876 2.6282l-0.99659 5.0359h-1.6228l1.9315-9.8778h1.6228l-0.30868 1.5346q0.64382-0.85549 1.5346-1.3141 0.89958-0.45861 1.9138-0.45861 0.26459 0 0.52035 0.0353 0.25576 0.0265 0.51153 0.097z"/>
   <path id="path862" d="m517.19 192.33 1.1553-5.9619h1.6316l-1.1554 5.9002q-0.0882 0.43215-0.13229 0.74083-0.0353 0.30868-0.0353 0.51152 0 0.74966 0.45861 1.1642 0.45861 0.40569 1.2965 0.40569 1.3053 0 2.2578-0.88194 0.9525-0.88194 1.2435-2.3724l1.0848-5.468h1.6228l-1.9138 9.8778h-1.6228l0.32632-1.5522q-0.68792 0.8643-1.6404 1.3406-0.94368 0.46743-2.0108 0.46743-1.2965 0-2.0196-0.70555-0.72319-0.71438-0.72319-1.9844 0-0.26459 0.0441-0.66146 0.0441-0.39688 0.1323-0.82021z"/>
   <path id="path864" d="m530.75 182.53h1.6228l-2.6723 13.723h-1.6228z"/>
   <path id="path866" d="m541.14 190.43q0.0265-0.14111 0.0353-0.29104 0.0176-0.14993 0.0176-0.29986 0-1.076-0.635-1.7022-0.62618-0.62618-1.711-0.62618-1.2083 0-2.1343 0.76729-0.92604 0.75847-1.4023 2.1608zm1.4111 1.27h-7.5494q-0.0529 0.33514-0.0706 0.52917-0.0176 0.19403-0.0176 0.33514 0 1.2259 0.74965 1.8962 0.75847 0.67028 2.1343 0.67028 1.0583 0 2.002-0.23812 0.94368-0.23813 1.7551-0.69674l-0.30868 1.6051q-0.87312 0.35278-1.808 0.52916-0.92604 0.17639-1.8874 0.17639-2.0549 0-3.1662-0.97895-1.1024-0.98778-1.1024-2.7958 0-1.5434 0.54681-2.8663 0.55562-1.3317 1.6228-2.3724 0.68791-0.65264 1.6316-1.0054 0.9525-0.35278 2.0196-0.35278 1.6757 0 2.6635 1.0054 0.9966 1.0054 0.9966 2.6988 0 0.4057-0.0529 0.87313-0.0529 0.45861-0.15875 0.98777z"/>
  </g>
  <path id="rect10" d="m360 290h120v80h-120z" fill="#fff" stroke="#000" stroke-width="2"/>
  <g id="text14" aria-label="character">
   <path id="path870" d="m385.51 326.75v1.5169q-0.68791-0.37923-1.3846-0.56444-0.68791-0.19403-1.3935-0.19403-1.5787 0-2.4518 1.0054-0.87312 0.99659-0.87312 2.8046 0 1.808 0.87312 2.8134 0.87312 0.99659 2.4518 0.99659 0.70556 0 1.3935-0.18521 0.69674-0.19402 1.3846-0.57326v1.4993q-0.67909 0.3175-1.4111 0.47625-0.72319 0.15875-1.5434 0.15875-2.2313 0-3.5454-1.4023-1.3141-1.4023-1.3141-3.7835 0-2.4165 1.3229-3.8012 1.3317-1.3846 3.6424-1.3846 0.74965 0 1.464 0.15875 0.71438 0.14993 1.3846 0.45861z"/>
   <path id="path872" d="m396.56 330.29v5.9619h-1.6228v-5.909q0-1.4023-0.54681-2.099-0.5468-0.69673-1.6404-0.69673-1.3141 0-2.0726 0.83784-0.75847 0.83785-0.75847 2.2842v5.5827h-1.6316v-13.723h1.6316v5.3799q0.58208-0.89077 1.367-1.3317 0.79375-0.44097 1.8256-0.44097 1.7022 0 2.5753 1.0583 0.87312 1.0495 0.87312 3.0956z"/>
   <path id="path874" d="m404.3 331.28q-1.9667 0-2.7252 0.44979t-0.75847 1.5346q0 0.86431 0.56445 1.3758 0.57326 0.50271 1.5522 0.50271 1.3494 0 2.1608-0.9525 0.8202-0.96132 0.8202-2.5488v-0.3616zm3.2367-0.67028v5.6356h-1.6228v-1.4993q-0.55562 0.89958-1.3846 1.3317-0.82902 0.42333-2.0285 0.42333-1.5169 0-2.4165-0.84666-0.89076-0.85549-0.89076-2.2842 0-1.6669 1.1112-2.5135 1.1201-0.84667 3.3338-0.84667h2.2754v-0.15875q0-1.1201-0.74083-1.7286-0.73201-0.61736-2.0638-0.61736-0.84666 0-1.6492 0.20285t-1.5434 0.60854v-1.4993q0.89076-0.34396 1.7286-0.51153 0.83784-0.17639 1.6316-0.17639 2.1431 0 3.2015 1.1112t1.0583 3.369z"/>
   <path id="path876" d="m416.61 327.89q-0.2734-0.15875-0.59972-0.22931-0.3175-0.0794-0.70556-0.0794-1.3758 0-2.1167 0.89958-0.73202 0.89076-0.73202 2.5664v5.2035h-1.6316v-9.8778h1.6316v1.5346q0.51153-0.89959 1.3317-1.3317 0.82021-0.44097 1.9932-0.44097 0.16757 0 0.37042 0.0265 0.20284 0.0176 0.44979 0.0617z"/>
   <path id="path878" d="m422.82 331.28q-1.9667 0-2.7252 0.44979t-0.75847 1.5346q0 0.86431 0.56444 1.3758 0.57327 0.50271 1.5522 0.50271 1.3494 0 2.1608-0.9525 0.8202-0.96132 0.8202-2.5488v-0.3616zm3.2367-0.67028v5.6356h-1.6228v-1.4993q-0.55562 0.89958-1.3846 1.3317-0.82902 0.42333-2.0285 0.42333-1.5169 0-2.4165-0.84666-0.89077-0.85549-0.89077-2.2842 0-1.6669 1.1112-2.5135 1.1201-0.84667 3.3338-0.84667h2.2754v-0.15875q0-1.1201-0.74083-1.7286-0.73201-0.61736-2.0638-0.61736-0.84666 0-1.6492 0.20285t-1.5434 0.60854v-1.4993q0.89076-0.34396 1.7286-0.51153 0.83784-0.17639 1.6316-0.17639 2.1431 0 3.2015 1.1112t1.0583 3.369z"/>
   <path id="path880" d="m436.52 326.75v1.5169q-0.68792-0.37923-1.3846-0.56444-0.68792-0.19403-1.3935-0.19403-1.5787 0-2.4518 1.0054-0.87312 0.99659-0.87312 2.8046 0 1.808 0.87312 2.8134 0.87313 0.99659 2.4518 0.99659 0.70555 0 1.3935-0.18521 0.69673-0.19402 1.3846-0.57326v1.4993q-0.6791 0.3175-1.4111 0.47625-0.72319 0.15875-1.5434 0.15875-2.2313 0-3.5454-1.4023-1.3141-1.4023-1.3141-3.7835 0-2.4165 1.3229-3.8012 1.3317-1.3846 3.6424-1.3846 0.74965 0 1.464 0.15875 0.71437 0.14993 1.3846 0.45861z"/>
   <path id="path882" d="m440.96 323.57v2.8046h3.3426v1.2612h-3.3426v5.3622q0 1.2083 0.32632 1.5522 0.33514 0.34396 1.3494 0.34396h1.6669v1.3582h-1.6669q-1.8785 0-2.5929-0.69674-0.71437-0.70555-0.71437-2.5576v-5.3622h-1.1906v-1.2612h1.1906v-2.8046z"/>
   <path id="path884" d="m454.9 330.91v0.79375h-7.4612q0.10583 1.6757 1.0054 2.5576 0.9084 0.87312 2.5224 0.87312 0.93486 0 1.808-0.2293 0.88194-0.22931 1.7462-0.68792v1.5346q-0.87312 0.37042-1.7903 0.56445-0.91722 0.19402-1.8609 0.19402-2.3636 0-3.7483-1.3758-1.3758-1.3758-1.3758-3.7218 0-2.4253 1.3053-3.8453 1.3141-1.4288 3.5366-1.4288 1.9932 0 3.1485 1.2876 1.1642 1.2788 1.1642 3.4837zm-1.6228-0.47625q-0.0176-1.3317-0.74965-2.1255-0.72319-0.79375-1.9226-0.79375-1.3582 0-2.1784 0.76729-0.81138 0.76729-0.93486 2.1608z"/>
   <path id="path886" d="m463.29 327.89q-0.2734-0.15875-0.59972-0.22931-0.3175-0.0794-0.70555-0.0794-1.3758 0-2.1167 0.89958-0.73201 0.89076-0.73201 2.5664v5.2035h-1.6316v-9.8778h1.6316v1.5346q0.51153-0.89959 1.3317-1.3317 0.82021-0.44097 1.9932-0.44097 0.16757 0 0.37042 0.0265 0.20285 0.0176 0.44979 0.0617z"/>
  </g>
  <path id="rect16" d="m540 290h120v80h-120z" fill="#fff" stroke="#000" stroke-width="2"/>
  <g id="text20" aria-label="succession">
   <path id="path890" d="m558.87 326.66v1.5346q-0.68792-0.35278-1.4288-0.52917t-1.5346-0.17639q-1.2083 0-1.8168 0.37042-0.59972 0.37041-0.59972 1.1112 0 0.56444 0.43215 0.89076 0.43215 0.3175 1.7374 0.60854l0.55562 0.12347q1.7286 0.37042 2.4518 1.0495 0.73202 0.67027 0.73202 1.8785 0 1.3758-1.0936 2.1784-1.0848 0.80256-2.9898 0.80256-0.79375 0-1.6581-0.15875-0.85548-0.14993-1.808-0.45861v-1.6757q0.89958 0.46743 1.7727 0.70556 0.87312 0.2293 1.7286 0.2293 1.1465 0 1.7639-0.38805 0.61736-0.39688 0.61736-1.1112 0-0.66146-0.44979-1.0142-0.44097-0.35278-1.9491-0.67909l-0.56445-0.1323q-1.5081-0.3175-2.1784-0.97013-0.67027-0.66146-0.67027-1.808 0-1.3935 0.98777-2.1519 0.98778-0.75847 2.8046-0.75847 0.89958 0 1.6933 0.13229t1.464 0.39688z"/>
   <path id="path892" d="m561.83 332.35v-5.9796h1.6228v5.9178q0 1.4023 0.5468 2.1078 0.54681 0.69673 1.6404 0.69673 1.3141 0 2.0726-0.83784 0.76729-0.83785 0.76729-2.2842v-5.6003h1.6228v9.8778h-1.6228v-1.5169q-0.5909 0.89958-1.3758 1.3406-0.77611 0.43215-1.808 0.43215-1.7022 0-2.5841-1.0583-0.88194-1.0583-0.88194-3.0956zm4.0834-6.2177z"/>
   <path id="path894" d="m580.57 326.75v1.5169q-0.68792-0.37923-1.3846-0.56444-0.68792-0.19403-1.3935-0.19403-1.5787 0-2.4518 1.0054-0.87312 0.99659-0.87312 2.8046 0 1.808 0.87312 2.8134 0.87313 0.99659 2.4518 0.99659 0.70556 0 1.3935-0.18521 0.69673-0.19402 1.3846-0.57326v1.4993q-0.6791 0.3175-1.4111 0.47625-0.7232 0.15875-1.5434 0.15875-2.2313 0-3.5454-1.4023-1.3141-1.4023-1.3141-3.7835 0-2.4165 1.3229-3.8012 1.3317-1.3846 3.6424-1.3846 0.74965 0 1.464 0.15875 0.71437 0.14993 1.3846 0.45861z"/>
   <path id="path896" d="m590.52 326.75v1.5169q-0.68792-0.37923-1.3846-0.56444-0.68792-0.19403-1.3935-0.19403-1.5787 0-2.4518 1.0054-0.87312 0.99659-0.87312 2.8046 0 1.808 0.87312 2.8134 0.87313 0.99659 2.4518 0.99659 0.70555 0 1.3935-0.18521 0.69673-0.19402 1.3846-0.57326v1.4993q-0.6791 0.3175-1.4111 0.47625-0.72319 0.15875-1.5434 0.15875-2.2313 0-3.5454-1.4023-1.3141-1.4023-1.3141-3.7835 0-2.4165 1.3229-3.8012 1.3317-1.3846 3.6424-1.3846 0.74965 0 1.464 0.15875 0.71437 0.14993 1.3846 0.45861z"/>
   <path id="path898" d="m601.81 330.91v0.79375h-7.4612q0.10584 1.6757 1.0054 2.5576 0.9084 0.87312 2.5224 0.87312 0.93486 0 1.808-0.2293 0.88194-0.22931 1.7462-0.68792v1.5346q-0.87312 0.37042-1.7904 0.56445-0.91722 0.19402-1.8609 0.19402-2.3636 0-3.7483-1.3758-1.3758-1.3758-1.3758-3.7218 0-2.4253 1.3053-3.8453 1.3141-1.4288 3.5366-1.4288 1.9932 0 3.1485 1.2876 1.1642 1.2788 1.1642 3.4837zm-1.6228-0.47625q-0.0176-1.3317-0.74965-2.1255-0.7232-0.79375-1.9226-0.79375-1.3582 0-2.1784 0.76729-0.81139 0.76729-0.93486 2.1608z"/>
   <path id="path900" d="m610.77 326.66v1.5346q-0.68792-0.35278-1.4288-0.52917t-1.5346-0.17639q-1.2083 0-1.8168 0.37042-0.59972 0.37041-0.59972 1.1112 0 0.56444 0.43215 0.89076 0.43216 0.3175 1.7374 0.60854l0.55563 0.12347q1.7286 0.37042 2.4518 1.0495 0.73201 0.67027 0.73201 1.8785 0 1.3758-1.0936 2.1784-1.0848 0.80256-2.9898 0.80256-0.79375 0-1.6581-0.15875-0.85548-0.14993-1.808-0.45861v-1.6757q0.89958 0.46743 1.7727 0.70556 0.87313 0.2293 1.7286 0.2293 1.1465 0 1.7639-0.38805 0.61736-0.39688 0.61736-1.1112 0-0.66146-0.44979-1.0142-0.44097-0.35278-1.9491-0.67909l-0.56444-0.1323q-1.5081-0.3175-2.1784-0.97013-0.67028-0.66146-0.67028-1.808 0-1.3935 0.98778-2.1519t2.8046-0.75847q0.89958 0 1.6933 0.13229t1.464 0.39688z"/>
   <path id="path902" d="m620.19 326.66v1.5346q-0.68792-0.35278-1.4288-0.52917t-1.5346-0.17639q-1.2083 0-1.8168 0.37042-0.59972 0.37041-0.59972 1.1112 0 0.56444 0.43215 0.89076 0.43216 0.3175 1.7374 0.60854l0.55563 0.12347q1.7286 0.37042 2.4518 1.0495 0.73201 0.67027 0.73201 1.8785 0 1.3758-1.0936 2.1784-1.0848 0.80256-2.9898 0.80256-0.79374 0-1.658-0.15875-0.85548-0.14993-1.808-0.45861v-1.6757q0.89958 0.46743 1.7727 0.70556 0.87313 0.2293 1.7286 0.2293 1.1465 0 1.7639-0.38805 0.61736-0.39688 0.61736-1.1112 0-0.66146-0.44979-1.0142-0.44097-0.35278-1.9491-0.67909l-0.56444-0.1323q-1.5081-0.3175-2.1784-0.97013-0.67028-0.66146-0.67028-1.808 0-1.3935 0.98778-2.1519t2.8046-0.75847q0.89958 0 1.6933 0.13229t1.464 0.39688z"/>
   <path id="path904" d="m623.31 326.37h1.6228v9.8778h-1.6228zm0-3.8453h1.6228v2.0549h-1.6228z"/>
   <path id="path906" d="m632.15 327.51q-1.3053 0-2.0637 1.0231-0.75848 1.0142-0.75848 2.7869 0 1.7727 0.74966 2.7958 0.75847 1.0142 2.0726 1.0142 1.2965 0 2.0549-1.023 0.75847-1.0231 0.75847-2.7869 0-1.7551-0.75847-2.7781-0.75847-1.0319-2.0549-1.0319zm0-1.3758q2.1167 0 3.3249 1.3758t1.2083 3.81q0 2.4253-1.2083 3.81-1.2083 1.3758-3.3249 1.3758-2.1255 0-3.3337-1.3758-1.1994-1.3846-1.1994-3.81 0-2.4342 1.1994-3.81 1.2083-1.3758 3.3337-1.3758z"/>
   <path id="path908" d="m647.57 330.29v5.9619h-1.6228v-5.909q0-1.4023-0.54681-2.099-0.5468-0.69673-1.6404-0.69673-1.3141 0-2.0726 0.83784-0.75847 0.83785-0.75847 2.2842v5.5827h-1.6316v-9.8778h1.6316v1.5346q0.58208-0.89077 1.367-1.3317 0.79375-0.44097 1.8256-0.44097 1.7022 0 2.5753 1.0583 0.87312 1.0495 0.87312 3.0956z"/>
  </g>
  <g id="g26" fill="none" stroke="#000" stroke-width="2">
   <path id="line22" d="m270 180 64.25-81.773"/>
   <path id="polygon24" d="m342.11 104.4 4.493-21.905-20.22 9.5482z"/>
  </g>
  <g id="g32" fill="none" stroke="#000" stroke-width="2">
   <path id="line28" d="m570.9 289.26-28.872-40.422"/>
   <path id="polygon30" d="m550.16 243.02-19.762-10.462 3.488 22.087z"/>
  </g>
  <g id="g38" stroke="#000" stroke-width="2">
   <path id="polyline34" d="m460.35 40h259.65v290h-41.825" fill="none"/>
   <path id="polygon36" d="m671 320 10 10-10 10-10-10z" fill-rule="evenodd"/>
  </g>
  <path id="rect40" d="m200 150h120v80h-120z" fill="#fff" stroke="#000" stroke-width="2"/>
  <g id="text44" aria-label="rule">
   <path id="path918" d="m249.91 187.89q-0.2734-0.15875-0.59972-0.22931-0.3175-0.0794-0.70556-0.0794-1.3758 0-2.1167 0.89958-0.73202 0.89076-0.73202 2.5664v5.2035h-1.6316v-9.8778h1.6316v1.5346q0.51153-0.89959 1.3317-1.3317 0.82021-0.44097 1.9932-0.44097 0.16757 0 0.37042 0.0265 0.20284 0.0176 0.44979 0.0617z"/>
   <path id="path920" d="m251.46 192.35v-5.9796h1.6228v5.9178q0 1.4023 0.54681 2.1078 0.5468 0.69673 1.6404 0.69673 1.3141 0 2.0726-0.83784 0.76729-0.83785 0.76729-2.2842v-5.6003h1.6228v9.8778h-1.6228v-1.5169q-0.5909 0.89958-1.3758 1.3406-0.77611 0.43215-1.808 0.43215-1.7022 0-2.5841-1.0583t-0.88194-3.0956zm4.0834-6.2177z"/>
   <path id="path922" d="m263.1 182.53h1.6228v13.723h-1.6228z"/>
   <path id="path924" d="m276.55 190.91v0.79375h-7.4612q0.10583 1.6757 1.0054 2.5576 0.9084 0.87312 2.5224 0.87312 0.93486 0 1.808-0.2293 0.88195-0.22931 1.7462-0.68792v1.5346q-0.87312 0.37042-1.7903 0.56445-0.91722 0.19402-1.8609 0.19402-2.3636 0-3.7483-1.3758-1.3758-1.3758-1.3758-3.7218 0-2.4253 1.3053-3.8453 1.3141-1.4288 3.5366-1.4288 1.9932 0 3.1485 1.2876 1.1642 1.2788 1.1642 3.4837zm-1.6228-0.47625q-0.0176-1.3317-0.74965-2.1255-0.72319-0.79375-1.9226-0.79375-1.3582 0-2.1784 0.76729-0.81139 0.76729-0.93486 2.1608z"/>
  </g>
  <g id="g54" stroke="#000" stroke-width="2">
   <path id="polygon46" d="m169.86 162 28 28-28 28-27.86-28.002z" fill="#fdfd04" fill-rule="evenodd"/>
   <path id="ellipse48" d="m163.86 182a2 4 0 0 1-2 4 2 4 0 0 1-2-4 2 4 0 0 1 2-4 2 4 0 0 1 2 4z"/>
   <path id="ellipse50" d="m179.86 182a2 4 0 0 1-2 4 2 4 0 0 1-2-4 2 4 0 0 1 2-4 2 4 0 0 1 2 4z"/>
   <path id="path52" d="m155.86 196a16.25 16.25 0 0 0 28 0" fill="none"/>
  </g>
  <path id="polyline56" d="m300 40h-220v150h62" fill="none" stroke="#000" stroke-width="2"/>
  <g id="g62" fill="none" stroke="#000" stroke-width="2">
   <path id="line58" d="m443.28 289.26 22.406-39.209"/>
   <path id="polygon60" d="m474.37 255.01 1.24-22.326-18.605 12.403z"/>
  </g>
  <path id="rect64" d="m300 0h160v80h-160z" fill="#fff" stroke="#000" stroke-width="2"/>
  <g id="text68" aria-label="rule_interface">
   <path id="path934" d="m325.72 37.872q-0.24694-0.13229-0.56444-0.20285-0.3175-0.07056-0.6791-0.07056-1.2964 0-2.2666 0.98778-0.97014 0.97896-1.2876 2.6282l-0.99659 5.0359h-1.6228l1.9315-9.8778h1.6228l-0.30868 1.5346q0.64382-0.85549 1.5346-1.3141 0.89959-0.45861 1.9138-0.45861 0.26458 0 0.52035 0.03528 0.25576 0.02646 0.51152 0.09701z"/>
   <path id="path936" d="m326.32 42.334 1.1553-5.9619h1.6316l-1.1554 5.9002q-0.0882 0.43215-0.13229 0.74083-0.0353 0.30868-0.0353 0.51153 0 0.74965 0.45861 1.1642 0.45861 0.40569 1.2965 0.40569 1.3053 0 2.2578-0.88194 0.9525-0.88194 1.2435-2.3724l1.0848-5.468h1.6228l-1.9138 9.8778h-1.6228l0.32632-1.5522q-0.68792 0.8643-1.6404 1.3406-0.94368 0.46743-2.0108 0.46743-1.2965 0-2.0196-0.70556-0.72319-0.71437-0.72319-1.9844 0-0.26458 0.0441-0.66146 0.0441-0.39688 0.1323-0.82021z"/>
   <path id="path938" d="m339.88 32.527h1.6228l-2.6723 13.723h-1.6228z"/>
   <path id="path940" d="m350.27 40.429q0.0265-0.14111 0.0353-0.29104 0.0176-0.14993 0.0176-0.29986 0-1.076-0.63499-1.7022-0.62618-0.62618-1.711-0.62618-1.2083 0-2.1343 0.76729-0.92604 0.75847-1.4023 2.1608zm1.4111 1.27h-7.5494q-0.0529 0.33514-0.0705 0.52917-0.0176 0.19403-0.0176 0.33514 0 1.2259 0.74965 1.8962 0.75847 0.67028 2.1343 0.67028 1.0583 0 2.002-0.23812t1.7551-0.69674l-0.30868 1.6051q-0.87312 0.35278-1.808 0.52917-0.92604 0.17639-1.8874 0.17639-2.0549 0-3.1662-0.97896-1.1024-0.98778-1.1024-2.7958 0-1.5434 0.54681-2.8663 0.55562-1.3317 1.6228-2.3724 0.68792-0.65264 1.6316-1.0054 0.9525-0.35278 2.0196-0.35278 1.6757 0 2.6635 1.0054 0.99659 1.0054 0.99659 2.6987 0 0.40569-0.0529 0.87312-0.0529 0.45861-0.15875 0.98778z"/>
   <path id="path942" d="m361.9 49.249v1.2612h-9.3839v-1.2612z"/>
   <path id="path944" d="m365.03 32.527h1.6228l-0.39688 2.0549h-1.6228zm-0.74083 3.8453h1.6228l-1.9315 9.8778h-1.6228z"/>
   <path id="path946" d="m376.8 40.288-1.1554 5.9619h-1.6316l1.1553-5.9002q0.0794-0.41451 0.12347-0.73201 0.0441-0.3175 0.0441-0.50271 0-0.74083-0.46743-1.1553-0.46743-0.41451-1.3053-0.41451-1.3053 0-2.249 0.87312-0.94368 0.8643-1.2347 2.3548l-1.0848 5.4769h-1.6228l1.9138-9.8778h1.6228l-0.32631 1.5522q0.67909-0.85548 1.6316-1.3229t2.002-0.46743q1.3053 0 2.0196 0.70556 0.7232 0.70556 0.7232 1.9844 0 0.3175-0.0441 0.6791-0.0353 0.3616-0.11465 0.78493z"/>
   <path id="path948" d="m385.84 36.372-0.24695 1.2612h-3.2367l-1.0495 5.3622q-0.0529 0.29986-0.0794 0.50271t-0.0265 0.3175q0 0.56444 0.33514 0.82021 0.34396 0.25576 1.0936 0.25576h1.6404l-0.27335 1.3582h-1.5522q-1.4464 0-2.1608-0.56444-0.70555-0.56444-0.70555-1.711 0-0.20285 0.0265-0.44097 0.0264-0.24694 0.0794-0.53798l1.0495-5.3622h-1.3758l0.25577-1.2612h1.3494l0.5468-2.8046h1.6228l-0.53799 2.8046z"/>
   <path id="path950" d="m393.98 40.429q0.0265-0.14111 0.0353-0.29104 0.0176-0.14993 0.0176-0.29986 0-1.076-0.635-1.7022-0.62618-0.62618-1.711-0.62618-1.2083 0-2.1343 0.76729-0.92604 0.75847-1.4023 2.1608zm1.4111 1.27h-7.5494q-0.0529 0.33514-0.0706 0.52917-0.0176 0.19403-0.0176 0.33514 0 1.2259 0.74965 1.8962 0.75848 0.67028 2.1343 0.67028 1.0583 0 2.002-0.23812t1.7551-0.69674l-0.30868 1.6051q-0.87313 0.35278-1.808 0.52917-0.92604 0.17639-1.8874 0.17639-2.0549 0-3.1662-0.97896-1.1024-0.98778-1.1024-2.7958 0-1.5434 0.5468-2.8663 0.55563-1.3317 1.6228-2.3724 0.68791-0.65264 1.6316-1.0054 0.9525-0.35278 2.0196-0.35278 1.6757 0 2.6635 1.0054 0.9966 1.0054 0.9966 2.6987 0 0.40569-0.0529 0.87312-0.0529 0.45861-0.15875 0.98778z"/>
   <path id="path952" d="m404.46 37.872q-0.24694-0.13229-0.56444-0.20285-0.3175-0.07056-0.6791-0.07056-1.2965 0-2.2666 0.98778-0.97014 0.97896-1.2876 2.6282l-0.9966 5.0359h-1.6228l1.9314-9.8778h1.6228l-0.30868 1.5346q0.64382-0.85549 1.5346-1.3141 0.89958-0.45861 1.9138-0.45861 0.26458 0 0.52034 0.03528 0.25577 0.02646 0.51153 0.09701z"/>
   <path id="path954" d="m412.48 32.527-0.25577 1.3494h-1.5522q-0.88194 0-1.2876 0.35278-0.39688 0.34396-0.59091 1.27l-0.17638 0.87312h2.6723l-0.23812 1.2612h-2.6723l-1.6757 8.6166h-1.6316l1.6845-8.6166h-1.5522l0.22931-1.2612h1.5522l0.13229-0.68792q0.33514-1.7462 1.173-2.4518 0.84666-0.70556 2.6546-0.70556z"/>
   <path id="path956" d="m419.9 40.614-1.1024 5.6356h-1.6228l0.29987-1.4993q-0.71438 0.88194-1.6316 1.3229-0.9084 0.43215-2.0285 0.43215-1.2612 0-2.0726-0.76729-0.80257-0.77611-0.80257-1.9844 0-1.7286 1.3758-2.734 1.3846-1.0054 3.81-1.0054h2.2578l0.0882-0.43215q0.0176-0.07055 0.0265-0.14993 9e-3 -0.08819 9e-3 -0.26458 0-0.78493-0.64382-1.2171-0.635-0.44097-1.7903-0.44097-0.79375 0-1.6316 0.20285-0.82903 0.20285-1.711 0.60854l0.28222-1.4993q0.91722-0.34396 1.7904-0.51153 0.88194-0.17639 1.7022-0.17639 1.7462 0 2.6546 0.75847 0.91722 0.75847 0.91722 2.2049 0 0.29104-0.0441 0.68792-0.0441 0.38806-0.13229 0.82903zm-1.7551 0.67028h-1.6228q-1.9932 0-2.9545 0.53798-0.9525 0.52917-0.9525 1.6492 0 0.77611 0.48507 1.2171 0.49388 0.44097 1.3582 0.44097 1.3229 0 2.3107-0.94368 0.98778-0.9525 1.3053-2.54z"/>
   <path id="path958" d="m430.96 36.751-0.32632 1.6051q-0.58208-0.42333-1.2435-0.635-0.65264-0.21167-1.3582-0.21167-0.77611 0-1.4817 0.2734-0.69673 0.2734-1.173 0.77611-0.75847 0.76729-1.173 1.7992-0.41451 1.0319-0.41451 2.1343 0 1.3317 0.66146 1.9844 0.67027 0.65264 2.0285 0.65264 0.67027 0 1.4199-0.20285 0.75847-0.20285 1.5787-0.60854l-0.30869 1.6051q-0.70555 0.29104-1.4552 0.43215-0.74083 0.14993-1.5258 0.14993-1.9667 0-3.0251-0.97896-1.0583-0.98778-1.0583-2.8134 0-1.5346 0.5468-2.8222 0.55563-1.2965 1.6404-2.3283 0.74083-0.70556 1.7374-1.0672 0.99659-0.3616 2.1784-0.3616 0.68791 0 1.367 0.15875 0.6791 0.14993 1.3846 0.45861z"/>
   <path id="path960" d="m439.91 40.429q0.0265-0.14111 0.0353-0.29104 0.0176-0.14993 0.0176-0.29986 0-1.076-0.635-1.7022-0.62618-0.62618-1.711-0.62618-1.2083 0-2.1343 0.76729-0.92604 0.75847-1.4023 2.1608zm1.4111 1.27h-7.5494q-0.0529 0.33514-0.0706 0.52917-0.0176 0.19403-0.0176 0.33514 0 1.2259 0.74965 1.8962 0.75848 0.67028 2.1343 0.67028 1.0583 0 2.002-0.23812t1.7551-0.69674l-0.30868 1.6051q-0.87313 0.35278-1.808 0.52917-0.92604 0.17639-1.8874 0.17639-2.0549 0-3.1662-0.97896-1.1024-0.98778-1.1024-2.7958 0-1.5434 0.5468-2.8663 0.55563-1.3317 1.6228-2.3724 0.68791-0.65264 1.6316-1.0054 0.9525-0.35278 2.0196-0.35278 1.6757 0 2.6635 1.0054 0.9966 1.0054 0.9966 2.6987 0 0.40569-0.0529 0.87312-0.0529 0.45861-0.15875 0.98778z"/>
  </g>
  <g id="g74" fill="none" stroke="#000" stroke-width="2">
   <path id="line70" d="m467.66 149.57-41.421-51.777"/>
   <path id="polygon72" d="m434.04 91.546-20.302-9.3704 4.685 21.864z"/>
  </g>
 </g>
</svg>
