<?xml version="1.0" encoding="UTF-8"?>
<svg id="svg105" width="34.678cm" height="11.853cm" version="1.1" viewBox="9 32 675.72 233.11" xmlns="http://www.w3.org/2000/svg" xmlns:cc="http://creativecommons.org/ns#" xmlns:dc="http://purl.org/dc/elements/1.1/" xmlns:rdf="http://www.w3.org/1999/02/22-rdf-syntax-ns#">
 <metadata id="metadata111">
  <rdf:RDF>
   <cc:Work rdf:about="">
    <dc:format>image/svg+xml</dc:format>
    <dc:type rdf:resource="http://purl.org/dc/dcmitype/StillImage"/>
   </cc:Work>
  </rdf:RDF>
 </metadata>
 <g id="Háttér" transform="translate(-3.1375 -2.4077)">
  <g id="g8">
   <path id="ellipse2" d="m390 150a40 40 0 0 1-40 40 40 40 0 0 1-40-40 40 40 0 0 1 40-40 40 40 0 0 1 40 40z" fill="#fff" stroke="#000" stroke-width="2"/>
  </g>
  <g id="g16">
   <path id="ellipse10" d="m690 150a40 40 0 0 1-40 40 40 40 0 0 1-40-40 40 40 0 0 1 40-40 40 40 0 0 1 40 40z" fill="#fff" stroke="#000" stroke-width="2"/>
  </g>
  <g id="text22" aria-label="memória-szemét">
   <path id="path868" d="m324.26 140.25q0.45641-0.82021 1.0914-1.2105t1.4949-0.39026q1.1576 0 1.7859 0.81359 0.62839 0.80698 0.62839 2.3019v4.4715h-1.2237v-4.4318q0-1.065-0.37703-1.5809t-1.1509-0.51594q-0.94589 0-1.4949 0.62839t-0.54901 1.7132v4.187h-1.2237v-4.4318q0-1.0716-0.37704-1.5809-0.37703-0.51594-1.1642-0.51594-0.93265 0-1.4817 0.635-0.54901 0.62839-0.54901 1.7066v4.187h-1.2237v-7.4084h1.2237v1.1509q0.41672-0.6813 0.99881-1.0054 0.58208-0.32411 1.3824-0.32411 0.80698 0 1.3692 0.4101 0.56886 0.41011 0.84005 1.1906z" style=""/>
   <path id="path870" d="m338.03 142.22v0.59532h-5.596q0.0794 1.2568 0.75406 1.9182 0.68131 0.65485 1.8918 0.65485 0.70115 0 1.356-0.17198 0.66146-0.17198 1.3097-0.51594v1.1509q-0.65484 0.27781-1.3428 0.42333-0.68792 0.14553-1.3957 0.14553-1.7727 0-2.8112-1.0319-1.0319-1.0319-1.0319-2.7914 0-1.819 0.97896-2.884 0.98557-1.0716 2.6524-1.0716 1.4949 0 2.3614 0.96573 0.87313 0.95911 0.87313 2.6128zm-1.2171-0.35718q-0.0132-0.99881-0.56224-1.5941-0.54239-0.59532-1.442-0.59532-1.0186 0-1.6338 0.57547-0.60854 0.57547-0.70114 1.6206z" style=""/>
   <path id="path872" d="m345.8 140.25q0.45641-0.82021 1.0914-1.2105t1.4949-0.39026q1.1576 0 1.7859 0.81359 0.62839 0.80698 0.62839 2.3019v4.4715h-1.2237v-4.4318q0-1.065-0.37704-1.5809-0.37703-0.51594-1.1509-0.51594-0.94588 0-1.4949 0.62839-0.54901 0.62839-0.54901 1.7132v4.187h-1.2237v-4.4318q0-1.0716-0.37703-1.5809-0.37703-0.51594-1.1642-0.51594-0.93266 0-1.4817 0.635-0.54901 0.62839-0.54901 1.7066v4.187h-1.2237v-7.4084h1.2237v1.1509q0.41672-0.6813 0.9988-1.0054 0.58209-0.32411 1.3824-0.32411 0.80698 0 1.3692 0.4101 0.56885 0.41011 0.84005 1.1906z" style=""/>
   <path id="path874" d="m356.11 139.68q-0.97897 0-1.5478 0.7673-0.56886 0.76068-0.56886 2.0902 0 1.3295 0.56224 2.0968 0.56886 0.76068 1.5544 0.76068 0.97234 0 1.5412-0.7673 0.56885-0.76729 0.56885-2.0902 0-1.3163-0.56885-2.0836-0.56886-0.77391-1.5412-0.77391zm0-1.0319q1.5875 0 2.4937 1.0319 0.9062 1.0319 0.9062 2.8575 0 1.819-0.9062 2.8575-0.9062 1.0319-2.4937 1.0319-1.5941 0-2.5003-1.0319-0.89959-1.0385-0.89959-2.8575 0-1.8256 0.89959-2.8575 0.9062-1.0319 2.5003-1.0319zm0.91942-3.2478h1.3163l-2.1564 2.4871h-1.012z" style=""/>
   <path id="path876" d="m365.81 139.96q-0.20505-0.11906-0.44979-0.17198-0.23813-0.0595-0.52917-0.0595-1.0319 0-1.5875 0.67469-0.54901 0.66807-0.54901 1.9248v3.9026h-1.2237v-7.4084h1.2237v1.1509q0.38364-0.67469 0.9988-0.9988 0.61516-0.33073 1.4949-0.33073 0.12568 0 0.27781 0.0198 0.15214 0.0132 0.33735 0.0463z" style=""/>
   <path id="path878" d="m367.1 138.82h1.2171v7.4084h-1.2171zm0-2.884h1.2171v1.5412h-1.2171z" style=""/>
   <path id="path880" d="m374.22 142.51q-1.475 0-2.0439 0.33735-0.56885 0.33734-0.56885 1.1509 0 0.64823 0.42333 1.0319 0.42995 0.37704 1.1642 0.37704 1.012 0 1.6206-0.71438 0.61515-0.72099 0.61515-1.9116v-0.2712zm2.4276-0.50271v4.2267h-1.2171v-1.1245q-0.41672 0.67469-1.0385 0.9988-0.62177 0.31751-1.5214 0.31751-1.1377 0-1.8124-0.63501-0.66807-0.64161-0.66807-1.7132 0-1.2502 0.83344-1.8852 0.84005-0.635 2.5003-0.635h1.7066v-0.11906q0-0.84006-0.55562-1.2965-0.54901-0.46303-1.5478-0.46303-0.635 0-1.2369 0.15214t-1.1576 0.45641v-1.1245q0.66807-0.25796 1.2965-0.38364 0.62838-0.13229 1.2237-0.13229 1.6074 0 2.4011 0.83344t0.79375 2.5268z" style=""/>
   <path id="path882" d="m378.55 141.98h3.5653v1.0848h-3.5653z" style=""/>
   <path id="path884" d="m331.31 155.98v1.1509q-0.51594-0.26459-1.0716-0.39688-0.55562-0.13229-1.1509-0.13229-0.9062 0-1.3626 0.27781-0.44979 0.27782-0.44979 0.83344 0 0.42334 0.32412 0.66808 0.32411 0.23812 1.3031 0.4564l0.41672 0.0926q1.2965 0.27781 1.8389 0.78714 0.54901 0.50271 0.54901 1.4089 0 1.0319-0.82021 1.6338-0.81359 0.60193-2.2424 0.60193-0.59531 0-1.2435-0.11906-0.64162-0.11245-1.356-0.34396v-1.2568q0.67468 0.35058 1.3295 0.52917 0.65485 0.17198 1.2965 0.17198 0.8599 0 1.3229-0.29104 0.46302-0.29766 0.46302-0.83344 0-0.49609-0.33734-0.76068-0.33073-0.26458-1.4618-0.50932l-0.42333-0.0992q-1.1311-0.23813-1.6338-0.72761-0.50271-0.49609-0.50271-1.356 0-1.0451 0.74084-1.614 0.74083-0.56886 2.1034-0.56886 0.67469 0 1.27 0.0992 0.59532 0.0992 1.098 0.29766z" style=""/>
   <path id="path886" d="m333.13 155.76h5.7812v1.1112l-4.5773 5.3248h4.5773v0.97235h-5.9465v-1.1113l4.5773-5.3248h-4.4119z" style=""/>
   <path id="path888" d="m347.11 159.16v0.59531h-5.596q0.0794 1.2568 0.75406 1.9182 0.68131 0.65484 1.8918 0.65484 0.70115 0 1.356-0.17198 0.66146-0.17198 1.3097-0.51594v1.151q-0.65484 0.27781-1.3428 0.42333t-1.3957 0.14552q-1.7727 0-2.8112-1.0319-1.0319-1.0319-1.0319-2.7914 0-1.819 0.97896-2.884 0.98557-1.0716 2.6524-1.0716 1.4949 0 2.3614 0.96573 0.87313 0.95912 0.87313 2.6128zm-1.2171-0.35719q-0.0132-0.9988-0.56224-1.5941-0.54239-0.59531-1.442-0.59531-1.0186 0-1.6338 0.57547-0.60854 0.57547-0.70114 1.6206z" style=""/>
   <path id="path890" d="m354.87 157.18q0.45641-0.82022 1.0914-1.2105t1.4949-0.39026q1.1576 0 1.7859 0.8136 0.62839 0.80698 0.62839 2.3019v4.4715h-1.2237v-4.4318q0-1.065-0.37704-1.5809-0.37703-0.51594-1.1509-0.51594-0.94588 0-1.4949 0.62838-0.54901 0.62839-0.54901 1.7132v4.187h-1.2237v-4.4318q0-1.0716-0.37703-1.5809-0.37703-0.51594-1.1642-0.51594-0.93266 0-1.4817 0.635-0.54901 0.62839-0.54901 1.7066v4.187h-1.2237v-7.4084h1.2237v1.1509q0.41672-0.68131 0.9988-1.0054 0.58209-0.32412 1.3824-0.32412 0.80698 0 1.3692 0.41011 0.56885 0.4101 0.84005 1.1906z" style=""/>
   <path id="path892" d="m368.65 159.16v0.59531h-5.596q0.0794 1.2568 0.75406 1.9182 0.6813 0.65484 1.8918 0.65484 0.70114 0 1.356-0.17198 0.66146-0.17198 1.3097-0.51594v1.151q-0.65485 0.27781-1.3428 0.42333-0.68792 0.14552-1.3957 0.14552-1.7727 0-2.8112-1.0319-1.0319-1.0319-1.0319-2.7914 0-1.819 0.97896-2.884 0.98558-1.0716 2.6525-1.0716 1.4949 0 2.3614 0.96573 0.87313 0.95912 0.87313 2.6128zm-1.2171-0.35719q-0.0132-0.9988-0.56224-1.5941-0.5424-0.59531-1.442-0.59531-1.0186 0-1.6338 0.57547-0.60854 0.57547-0.70115 1.6206zm-1.1708-6.4691h1.3163l-2.1564 2.4871h-1.012z" style=""/>
   <path id="path894" d="m371.85 153.66v2.1034h2.5069v0.94588h-2.5069v4.0217q0 0.9062 0.24474 1.1642 0.25136 0.25797 1.012 0.25797h1.2502v1.0186h-1.2502q-1.4089 0-1.9447-0.52256-0.53579-0.52916-0.53579-1.9182v-4.0217h-0.89297v-0.94588h0.89297v-2.1034z" style=""/>
  </g>
  <g id="text26" aria-label="objektum">
   <path id="path897" d="m622.17 148.14q-0.97896 0-1.5478 0.76729-0.56885 0.76068-0.56885 2.0902 0 1.3295 0.56224 2.0968 0.56886 0.76068 1.5544 0.76068 0.97235 0 1.5412-0.76729 0.56886-0.76729 0.56886-2.0902 0-1.3163-0.56886-2.0836-0.56885-0.77391-1.5412-0.77391zm0-1.0319q1.5875 0 2.4937 1.0319t0.9062 2.8575q0 1.819-0.9062 2.8575-0.9062 1.0319-2.4937 1.0319-1.5941 0-2.5003-1.0319-0.89958-1.0385-0.89958-2.8575 0-1.8256 0.89958-2.8575 0.9062-1.0319 2.5003-1.0319z" style=""/>
   <path id="path899" d="m632.9 151q0-1.3428-0.55563-2.1034-0.54901-0.76729-1.5147-0.76729t-1.5214 0.76729q-0.54901 0.76068-0.54901 2.1034 0 1.3428 0.54901 2.11 0.55563 0.76068 1.5214 0.76068t1.5147-0.76068q0.55563-0.76729 0.55563-2.11zm-4.1407-2.5863q0.38365-0.66146 0.96573-0.97896 0.5887-0.32412 1.4023-0.32412 1.3494 0 2.1894 1.0716 0.84667 1.0716 0.84667 2.8178 0 1.7462-0.84667 2.8178-0.84005 1.0716-2.1894 1.0716-0.8136 0-1.4023-0.3175-0.58208-0.32412-0.96573-0.98558v1.1113h-1.2237v-10.292h1.2237z" style=""/>
   <path id="path901" d="m636.18 147.29h1.2171v7.5406q0 1.4155-0.5424 2.0505-0.53578 0.63501-1.733 0.63501h-0.46302v-1.0319h0.32411q0.69453 0 0.94589-0.32412 0.25135-0.3175 0.25135-1.3295zm0-2.884h1.2171v1.5412h-1.2171z" style=""/>
   <path id="path903" d="m646.28 150.69v0.59531h-5.596q0.0794 1.2568 0.75406 1.9182 0.68131 0.65484 1.8918 0.65484 0.70115 0 1.356-0.17198 0.66146-0.17198 1.3097-0.51594v1.1509q-0.65484 0.27782-1.3428 0.42334t-1.3957 0.14552q-1.7727 0-2.8112-1.0319-1.0319-1.0319-1.0319-2.7914 0-1.819 0.97896-2.884 0.98557-1.0716 2.6524-1.0716 1.4949 0 2.3614 0.96573 0.87313 0.95912 0.87313 2.6128zm-1.2171-0.35719q-0.0132-0.9988-0.56224-1.5941-0.54239-0.59531-1.442-0.59531-1.0186 0-1.6338 0.57547-0.60854 0.57547-0.70114 1.6206z" style=""/>
   <path id="path905" d="m648.23 144.41h1.2237v6.0788l3.6314-3.1948h1.5544l-3.9291 3.466 4.0944 3.9423h-1.5875l-3.7637-3.6182v3.6182h-1.2237z" style=""/>
   <path id="path907" d="m657.34 145.19v2.1034h2.5069v0.94588h-2.5069v4.0217q0 0.9062 0.24474 1.1642 0.25136 0.25797 1.012 0.25797h1.2502v1.0186h-1.2502q-1.4089 0-1.9447-0.52256-0.53578-0.52916-0.53578-1.9182v-4.0217h-0.89297v-0.94588h0.89297v-2.1034z" style=""/>
   <path id="path909" d="m661.32 151.78v-4.4847h1.2171v4.4384q0 1.0517 0.41011 1.5809 0.4101 0.52255 1.2303 0.52255 0.98558 0 1.5544-0.62838 0.57547-0.62839 0.57547-1.7132v-4.2003h1.2171v7.4084h-1.2171v-1.1377q-0.44318 0.67468-1.0319 1.0054-0.58209 0.32412-1.356 0.32412-1.2766 0-1.9381-0.79375t-0.66146-2.3217zm3.0626-4.6633z" style=""/>
   <path id="path911" d="m675.82 148.71q0.45641-0.82021 1.0914-1.2105t1.4949-0.39026q1.1576 0 1.7859 0.8136 0.62839 0.80698 0.62839 2.3019v4.4715h-1.2237v-4.4318q0-1.065-0.37703-1.5809-0.37704-0.51594-1.1509-0.51594-0.94589 0-1.4949 0.62838-0.54901 0.62839-0.54901 1.7132v4.187h-1.2237v-4.4318q0-1.0716-0.37703-1.5809-0.37703-0.51594-1.1642-0.51594-0.93266 0-1.4817 0.635-0.54901 0.62839-0.54901 1.7066v4.187h-1.2237v-7.4084h1.2237v1.1509q0.41672-0.68131 0.99881-1.0054 0.58208-0.32412 1.3824-0.32412 0.80698 0 1.3692 0.41011 0.56885 0.4101 0.84005 1.1906z" style=""/>
  </g>
  <g id="text34" aria-label="konstruktor: new (p) T()">
   <path id="path915" d="m420.62 104.41h1.2237v6.0788l3.6314-3.1948h1.5544l-3.9291 3.466 4.0944 3.9423h-1.5875l-3.7637-3.6182v3.6182h-1.2237z" style=""/>
   <path id="path917" d="m430.92 108.14q-0.97896 0-1.5478 0.76729-0.56885 0.76068-0.56885 2.0902 0 1.3295 0.56224 2.0968 0.56885 0.76068 1.5544 0.76068 0.97234 0 1.5412-0.76729t0.56886-2.0902q0-1.3163-0.56886-2.0836-0.56886-0.77391-1.5412-0.77391zm0-1.0319q1.5875 0 2.4937 1.0319t0.9062 2.8575q0 1.819-0.9062 2.8575-0.9062 1.0319-2.4937 1.0319-1.5941 0-2.5003-1.0319-0.89959-1.0385-0.89959-2.8575 0-1.8256 0.89959-2.8575 0.9062-1.0319 2.5003-1.0319z" style=""/>
   <path id="path919" d="m442.49 110.23v4.4715h-1.2171v-4.4318q0-1.0517-0.41011-1.5743-0.4101-0.52255-1.2303-0.52255-0.98558 0-1.5544 0.62838-0.56886 0.62839-0.56886 1.7132v4.187h-1.2237v-7.4084h1.2237v1.1509q0.43656-0.66808 1.0253-0.99881 0.59532-0.33073 1.3692-0.33073 1.2766 0 1.9315 0.79375 0.65484 0.78714 0.65484 2.3217z" style=""/>
   <path id="path921" d="m449.66 107.51v1.1509q-0.51594-0.26459-1.0716-0.39688-0.55563-0.13229-1.1509-0.13229-0.9062 0-1.3626 0.27781-0.44979 0.27782-0.44979 0.83344 0 0.42334 0.32411 0.66808 0.32412 0.23812 1.3031 0.4564l0.41672 0.0926q1.2965 0.27781 1.8389 0.78714 0.54901 0.50271 0.54901 1.4089 0 1.0319-0.82021 1.6338-0.8136 0.60193-2.2424 0.60193-0.59531 0-1.2435-0.11906-0.64162-0.11245-1.356-0.34396v-1.2568q0.67469 0.35058 1.3295 0.52917 0.65484 0.17198 1.2965 0.17198 0.8599 0 1.3229-0.29104 0.46302-0.29766 0.46302-0.83344 0-0.49609-0.33734-0.76068-0.33073-0.26458-1.4618-0.50932l-0.42334-0.0992q-1.1311-0.23813-1.6338-0.72761-0.50271-0.49609-0.50271-1.356 0-1.0451 0.74083-1.614 0.74084-0.56886 2.1034-0.56886 0.67469 0 1.27 0.0992t1.098 0.29766z" style=""/>
   <path id="path923" d="m453.2 105.19v2.1034h2.5069v0.94588h-2.5069v4.0217q0 0.9062 0.24474 1.1642 0.25135 0.25797 1.012 0.25797h1.2502v1.0186h-1.2502q-1.4089 0-1.9447-0.52256-0.53578-0.52916-0.53578-1.9182v-4.0217h-0.89297v-0.94588h0.89297v-2.1034z" style=""/>
   <path id="path925" d="m461.61 108.43q-0.20506-0.11907-0.4498-0.17198-0.23812-0.0595-0.52916-0.0595-1.0319 0-1.5875 0.67468-0.54901 0.66808-0.54901 1.9248v3.9026h-1.2237v-7.4084h1.2237v1.1509q0.38365-0.67469 0.99881-0.99881 0.61515-0.33073 1.4949-0.33073 0.12568 0 0.27782 0.0199 0.15213 0.0132 0.33734 0.0463z" style=""/>
   <path id="path927" d="m462.77 111.78v-4.4847h1.2171v4.4384q0 1.0517 0.41011 1.5809 0.4101 0.52255 1.2303 0.52255 0.98558 0 1.5544-0.62838 0.57547-0.62839 0.57547-1.7132v-4.2003h1.2171v7.4084h-1.2171v-1.1377q-0.44317 0.67468-1.0319 1.0054-0.58209 0.32412-1.356 0.32412-1.2766 0-1.9381-0.79375t-0.66146-2.3217zm3.0626-4.6633z" style=""/>
   <path id="path929" d="m471.45 104.41h1.2237v6.0788l3.6314-3.1948h1.5544l-3.9291 3.466 4.0944 3.9423h-1.5875l-3.7637-3.6182v3.6182h-1.2237z" style=""/>
   <path id="path931" d="m480.56 105.19v2.1034h2.5069v0.94588h-2.5069v4.0217q0 0.9062 0.24474 1.1642 0.25136 0.25797 1.012 0.25797h1.2502v1.0186h-1.2502q-1.4089 0-1.9447-0.52256-0.53579-0.52916-0.53579-1.9182v-4.0217h-0.89297v-0.94588h0.89297v-2.1034z" style=""/>
   <path id="path933" d="m487.54 108.14q-0.97896 0-1.5478 0.76729-0.56885 0.76068-0.56885 2.0902 0 1.3295 0.56224 2.0968 0.56885 0.76068 1.5544 0.76068 0.97234 0 1.5412-0.76729 0.56885-0.76729 0.56885-2.0902 0-1.3163-0.56885-2.0836-0.56886-0.77391-1.5412-0.77391zm0-1.0319q1.5875 0 2.4937 1.0319t0.9062 2.8575q0 1.819-0.9062 2.8575-0.9062 1.0319-2.4937 1.0319-1.5941 0-2.5003-1.0319-0.89959-1.0385-0.89959-2.8575 0-1.8256 0.89959-2.8575 0.9062-1.0319 2.5003-1.0319z" style=""/>
   <path id="path935" d="m497.25 108.43q-0.20505-0.11907-0.44979-0.17198-0.23812-0.0595-0.52917-0.0595-1.0319 0-1.5875 0.67468-0.54901 0.66808-0.54901 1.9248v3.9026h-1.2237v-7.4084h1.2237v1.1509q0.38365-0.67469 0.9988-0.99881 0.61516-0.33073 1.4949-0.33073 0.12568 0 0.27782 0.0199 0.15213 0.0132 0.33734 0.0463z" style=""/>
   <path id="path937" d="m498.61 113.02h1.3957v1.6801h-1.3957zm0-5.3248h1.3957v1.6801h-1.3957z" style=""/>
   <path id="path939" d="m513.35 110.23v4.4715h-1.2171v-4.4318q0-1.0517-0.4101-1.5743-0.41011-0.52255-1.2303-0.52255-0.98557 0-1.5544 0.62838-0.56885 0.62839-0.56885 1.7132v4.187h-1.2237v-7.4084h1.2237v1.1509q0.43656-0.66808 1.0253-0.99881 0.59531-0.33073 1.3692-0.33073 1.2766 0 1.9315 0.79375 0.65484 0.78714 0.65484 2.3217z" style=""/>
   <path id="path941" d="m522.13 110.69v0.59531h-5.596q0.0794 1.2568 0.75406 1.9182 0.68131 0.65484 1.8918 0.65484 0.70114 0 1.356-0.17198 0.66146-0.17198 1.3097-0.51594v1.1509q-0.65484 0.27782-1.3428 0.42334t-1.3957 0.14552q-1.7727 0-2.8112-1.0319-1.0319-1.0319-1.0319-2.7914 0-1.819 0.97897-2.884 0.98557-1.0716 2.6524-1.0716 1.4949 0 2.3614 0.96573 0.87313 0.95912 0.87313 2.6128zm-1.2171-0.35719q-0.0132-0.9988-0.56224-1.5941-0.5424-0.59531-1.442-0.59531-1.0186 0-1.6338 0.57547-0.60854 0.57547-0.70114 1.6206z" style=""/>
   <path id="path943" d="m523.42 107.29h1.2171l1.5214 5.7812 1.5148-5.7812h1.4354l1.5214 5.7812 1.5148-5.7812h1.2171l-1.9381 7.4084h-1.4354l-1.5941-6.0722-1.6007 6.0722h-1.4354z" style=""/>
   <path id="path945" d="m542.45 104.42q-0.88635 1.5214-1.3163 3.0096-0.42995 1.4883-0.42995 3.0163t0.42995 3.0295q0.43656 1.4949 1.3163 3.0096h-1.0583q-0.99219-1.5544-1.4883-3.056-0.48948-1.5015-0.48948-2.9832 0-1.4751 0.48948-2.97t1.4883-3.0559z" style=""/>
   <path id="path947" d="m545.99 113.59v3.9291h-1.2237v-10.226h1.2237v1.1245q0.38364-0.66146 0.96573-0.97896 0.5887-0.32412 1.4023-0.32412 1.3494 0 2.1894 1.0716 0.84667 1.0716 0.84667 2.8178 0 1.7462-0.84667 2.8178-0.84006 1.0716-2.1894 1.0716-0.81359 0-1.4023-0.3175-0.58209-0.32412-0.96573-0.98558zm4.1407-2.5863q0-1.3428-0.55563-2.1034-0.54901-0.76729-1.5147-0.76729t-1.5214 0.76729q-0.54901 0.76068-0.54901 2.1034 0 1.3428 0.54901 2.11 0.55563 0.76068 1.5214 0.76068t1.5147-0.76068q0.55563-0.76729 0.55563-2.11z" style=""/>
   <path id="path949" d="m553.22 104.42h1.0583q0.99219 1.561 1.4817 3.0559 0.49609 1.4949 0.49609 2.97 0 1.4817-0.49609 2.9832-0.48948 1.5015-1.4817 3.056h-1.0583q0.87974-1.5147 1.3097-3.0096 0.43657-1.5015 0.43657-3.0295t-0.43657-3.0163q-0.42995-1.4883-1.3097-3.0096z" style=""/>
   <path id="path951" d="m561.7 104.82h8.3542v1.1245h-3.5057v8.7511h-1.3428v-8.7511h-3.5057z" style=""/>
   <path id="path953" d="m574.22 104.42q-0.88636 1.5214-1.3163 3.0096-0.42995 1.4883-0.42995 3.0163t0.42995 3.0295q0.43657 1.4949 1.3163 3.0096h-1.0583q-0.99219-1.5544-1.4883-3.056-0.48948-1.5015-0.48948-2.9832 0-1.4751 0.48948-2.97t1.4883-3.0559z" style=""/>
   <path id="path955" d="m576.4 104.42h1.0583q0.99219 1.561 1.4817 3.0559 0.4961 1.4949 0.4961 2.97 0 1.4817-0.4961 2.9832-0.48948 1.5015-1.4817 3.056h-1.0583q0.87974-1.5147 1.3097-3.0096 0.43656-1.5015 0.43656-3.0295t-0.43656-3.0163q-0.42995-1.4883-1.3097-3.0096z" style=""/>
  </g>
  <g id="text38" aria-label="destruktor: p-&gt;~T()">
   <path id="path958" d="m439.03 188.42v-4.0084h1.2171v10.292h-1.2171v-1.1113q-0.38364 0.66146-0.97234 0.98558-0.58209 0.3175-1.4023 0.3175-1.3428 0-2.1894-1.0716-0.84005-1.0716-0.84005-2.8178 0-1.7463 0.84005-2.8178 0.84667-1.0716 2.1894-1.0716 0.82021 0 1.4023 0.32412 0.5887 0.3175 0.97234 0.97896zm-4.1474 2.5863q0 1.3428 0.54901 2.11 0.55563 0.76068 1.5214 0.76068t1.5214-0.76068q0.55562-0.76729 0.55562-2.11 0-1.3428-0.55562-2.1034-0.55563-0.76729-1.5214-0.76729t-1.5214 0.76729q-0.54901 0.76068-0.54901 2.1034z" style=""/>
   <path id="path960" d="m449.09 190.69v0.59531h-5.596q0.0794 1.2568 0.75406 1.9182 0.68131 0.65484 1.8918 0.65484 0.70114 0 1.356-0.17198 0.66146-0.17198 1.3097-0.51594v1.1509q-0.65484 0.27782-1.3428 0.42334t-1.3957 0.14552q-1.7727 0-2.8112-1.0319-1.0319-1.0319-1.0319-2.7914 0-1.819 0.97896-2.884 0.98558-1.0716 2.6525-1.0716 1.4949 0 2.3614 0.96573 0.87313 0.95912 0.87313 2.6128zm-1.2171-0.35719q-0.0132-0.9988-0.56224-1.5941-0.5424-0.59531-1.442-0.59531-1.0186 0-1.6338 0.57547-0.60854 0.57547-0.70115 1.6206z" style=""/>
   <path id="path962" d="m455.81 187.51v1.1509q-0.51594-0.26459-1.0716-0.39688-0.55563-0.13229-1.1509-0.13229-0.9062 0-1.3626 0.27781-0.44979 0.27782-0.44979 0.83344 0 0.42334 0.32411 0.66808 0.32412 0.23812 1.3031 0.4564l0.41672 0.0926q1.2965 0.27781 1.8389 0.78714 0.54901 0.50271 0.54901 1.4089 0 1.0319-0.82021 1.6338-0.8136 0.60193-2.2424 0.60193-0.59532 0-1.2436-0.11906-0.64161-0.11245-1.356-0.34396v-1.2568q0.67469 0.35058 1.3295 0.52917 0.65485 0.17198 1.2965 0.17198 0.85989 0 1.3229-0.29104 0.46302-0.29766 0.46302-0.83344 0-0.49609-0.33735-0.76068-0.33073-0.26458-1.4618-0.50932l-0.42334-0.0992q-1.1311-0.23813-1.6338-0.72761-0.50271-0.49609-0.50271-1.356 0-1.0451 0.74083-1.614 0.74084-0.56886 2.1034-0.56886 0.67469 0 1.27 0.0992 0.59531 0.0992 1.098 0.29766z" style=""/>
   <path id="path964" d="m459.35 185.19v2.1034h2.5069v0.94588h-2.5069v4.0217q0 0.9062 0.24474 1.1642 0.25135 0.25797 1.012 0.25797h1.2502v1.0186h-1.2502q-1.4089 0-1.9447-0.52256-0.53578-0.52916-0.53578-1.9182v-4.0217h-0.89298v-0.94588h0.89298v-2.1034z" style=""/>
   <path id="path966" d="m467.76 188.43q-0.20505-0.11907-0.44979-0.17198-0.23813-0.0595-0.52917-0.0595-1.0319 0-1.5875 0.67468-0.54901 0.66808-0.54901 1.9248v3.9026h-1.2237v-7.4084h1.2237v1.1509q0.38364-0.67469 0.9988-0.99881 0.61516-0.33073 1.4949-0.33073 0.12568 0 0.27781 0.0199 0.15214 0.0132 0.33735 0.0463z" style=""/>
   <path id="path968" d="m468.92 191.78v-4.4847h1.2171v4.4384q0 1.0517 0.41011 1.5809 0.4101 0.52255 1.2303 0.52255 0.98558 0 1.5544-0.62838 0.57547-0.62839 0.57547-1.7132v-4.2003h1.2171v7.4084h-1.2171v-1.1377q-0.44318 0.67468-1.0319 1.0054-0.58208 0.32412-1.356 0.32412-1.2766 0-1.9381-0.79375t-0.66146-2.3217zm3.0626-4.6633z" style=""/>
   <path id="path970" d="m477.6 184.41h1.2237v6.0788l3.6314-3.1948h1.5544l-3.9291 3.466 4.0944 3.9423h-1.5875l-3.7637-3.6182v3.6182h-1.2237z" style=""/>
   <path id="path972" d="m486.71 185.19v2.1034h2.5069v0.94588h-2.5069v4.0217q0 0.9062 0.24474 1.1642 0.25136 0.25797 1.012 0.25797h1.2502v1.0186h-1.2502q-1.4089 0-1.9447-0.52256-0.53578-0.52916-0.53578-1.9182v-4.0217h-0.89297v-0.94588h0.89297v-2.1034z" style=""/>
   <path id="path974" d="m493.7 188.14q-0.97896 0-1.5478 0.76729-0.56885 0.76068-0.56885 2.0902 0 1.3295 0.56224 2.0968 0.56885 0.76068 1.5544 0.76068 0.97234 0 1.5412-0.76729t0.56886-2.0902q0-1.3163-0.56886-2.0836-0.56886-0.77391-1.5412-0.77391zm0-1.0319q1.5875 0 2.4937 1.0319t0.9062 2.8575q0 1.819-0.9062 2.8575-0.9062 1.0319-2.4937 1.0319-1.5941 0-2.5003-1.0319-0.89959-1.0385-0.89959-2.8575 0-1.8256 0.89959-2.8575 0.9062-1.0319 2.5003-1.0319z" style=""/>
   <path id="path976" d="m503.4 188.43q-0.20506-0.11907-0.4498-0.17198-0.23812-0.0595-0.52916-0.0595-1.0319 0-1.5875 0.67468-0.54901 0.66808-0.54901 1.9248v3.9026h-1.2237v-7.4084h1.2237v1.1509q0.38365-0.67469 0.9988-0.99881 0.61516-0.33073 1.4949-0.33073 0.12568 0 0.27782 0.0199 0.15213 0.0132 0.33734 0.0463z" style=""/>
   <path id="path978" d="m504.76 193.02h1.3957v1.6801h-1.3957zm0-5.3248h1.3957v1.6801h-1.3957z" style=""/>
   <path id="path980" d="m514.52 193.59v3.9291h-1.2237v-10.226h1.2237v1.1245q0.38365-0.66146 0.96573-0.97896 0.5887-0.32412 1.4023-0.32412 1.3494 0 2.1894 1.0716 0.84667 1.0716 0.84667 2.8178 0 1.7462-0.84667 2.8178-0.84006 1.0716-2.1894 1.0716-0.8136 0-1.4023-0.3175-0.58208-0.32412-0.96573-0.98558zm4.1407-2.5863q0-1.3428-0.55563-2.1034-0.54901-0.76729-1.5147-0.76729t-1.5214 0.76729q-0.54901 0.76068-0.54901 2.1034 0 1.3428 0.54901 2.11 0.55563 0.76068 1.5214 0.76068t1.5147-0.76068q0.55563-0.76729 0.55563-2.11z" style=""/>
   <path id="path982" d="m521.33 190.45h3.5653v1.0848h-3.5653z" style=""/>
   <path id="path984" d="m526.99 188.03v-1.2039l8.4799 3.0758v1.098l-8.4799 3.0758v-1.2038l6.813-2.4143z" style=""/>
   <path id="path986" d="m546.82 189.3v1.1774q-0.69453 0.52255-1.2898 0.74745-0.5887 0.22489-1.2303 0.22489-0.7276 0-1.6933-0.39026-0.0728-0.0265-0.10583-0.0397-0.0463-0.0198-0.14552-0.0529-1.0253-0.41011-1.647-0.41011-0.58208 0-1.1509 0.25797-0.56885 0.25136-1.2171 0.80037v-1.1774q0.69453-0.52255 1.2832-0.74745 0.59531-0.23151 1.2369-0.23151 0.72761 0 1.7 0.39688 0.0661 0.0265 0.0992 0.0397 0.0529 0.0199 0.14552 0.0529 1.0253 0.41011 1.647 0.41011 0.56885 0 1.1245-0.25136 0.56224-0.25135 1.2435-0.80698z" style=""/>
   <path id="path988" d="m548.22 184.82h8.3542v1.1245h-3.5057v8.7511h-1.3428v-8.7511h-3.5057z" style=""/>
   <path id="path990" d="m560.74 184.42q-0.88636 1.5214-1.3163 3.0096-0.42995 1.4883-0.42995 3.0163t0.42995 3.0295q0.43656 1.4949 1.3163 3.0096h-1.0583q-0.99219-1.5544-1.4883-3.056-0.48949-1.5015-0.48949-2.9832 0-1.4751 0.48949-2.97 0.48948-1.4949 1.4883-3.0559z" style=""/>
   <path id="path992" d="m562.92 184.42h1.0583q0.99219 1.561 1.4817 3.0559 0.4961 1.4949 0.4961 2.97 0 1.4817-0.4961 2.9832-0.48948 1.5015-1.4817 3.056h-1.0583q0.87974-1.5147 1.3097-3.0096 0.43656-1.5015 0.43656-3.0295t-0.43656-3.0163q-0.42995-1.4883-1.3097-3.0096z" style=""/>
  </g>
  <g id="g44" fill="none" stroke="#000" stroke-width="2">
   <path id="path40" d="m389.22 140.19c80-20 141.55-20 217.22-1.084"/>
   <path id="polyline42" d="m597.69 142.08 10.914-2.425-8.489-7.276"/>
  </g>
  <g id="g50" fill="none" stroke="#000" stroke-width="2">
   <path id="path46" d="m610.78 159.81c-80 20-141.55 20-217.22 1.084"/>
   <path id="polyline48" d="m402.31 157.92-10.914 2.425 8.489 7.276"/>
  </g>
  <g id="g58">
   <path id="ellipse52" d="m90 150a40 40 0 0 1-40 40 40 40 0 0 1-40-40 40 40 0 0 1 40-40 40 40 0 0 1 40 40z" fill="#fff" stroke="#000" stroke-width="2"/>
  </g>
  <g id="text62" aria-label="malloc(), operator new()">
   <path id="path999" d="m124.45 108.71q0.45641-0.82021 1.0914-1.2105t1.4949-0.39026q1.1576 0 1.7859 0.8136 0.62839 0.80698 0.62839 2.3019v4.4715h-1.2237v-4.4318q0-1.065-0.37704-1.5809-0.37703-0.51594-1.1509-0.51594-0.94588 0-1.4949 0.62838-0.54901 0.62839-0.54901 1.7132v4.187h-1.2237v-4.4318q0-1.0716-0.37703-1.5809-0.37703-0.51594-1.1642-0.51594-0.93266 0-1.4817 0.635-0.54901 0.62839-0.54901 1.7066v4.187h-1.2237v-7.4084h1.2237v1.1509q0.41672-0.68131 0.9988-1.0054 0.58209-0.32412 1.3824-0.32412 0.80699 0 1.3692 0.41011 0.56885 0.4101 0.84005 1.1906z" style=""/>
   <path id="path1001" d="m135.26 110.98q-1.475 0-2.0439 0.33734-0.56886 0.33735-0.56886 1.1509 0 0.64823 0.42334 1.0319 0.42995 0.37703 1.1642 0.37703 1.012 0 1.6206-0.71437 0.61515-0.721 0.61515-1.9116v-0.2712zm2.4276-0.50271v4.2267h-1.2171v-1.1245q-0.41672 0.67468-1.0385 0.9988-0.62177 0.3175-1.5214 0.3175-1.1377 0-1.8124-0.635-0.66807-0.64162-0.66807-1.7132 0-1.2502 0.83344-1.8852 0.84005-0.635 2.5003-0.635h1.7066v-0.11907q0-0.84005-0.55562-1.2965-0.54901-0.46302-1.5478-0.46302-0.635 0-1.2369 0.15213-0.60193 0.15214-1.1576 0.45641v-1.1245q0.66807-0.25797 1.2965-0.38365 0.62838-0.13229 1.2237-0.13229 1.6074 0 2.4011 0.83344t0.79375 2.5268z" style=""/>
   <path id="path1003" d="m140.2 104.41h1.2171v10.292h-1.2171z" style=""/>
   <path id="path1005" d="m143.95 104.41h1.2171v10.292h-1.2171z" style=""/>
   <path id="path1007" d="m150.58 108.14q-0.97896 0-1.5478 0.76729-0.56885 0.76068-0.56885 2.0902 0 1.3295 0.56224 2.0968 0.56885 0.76068 1.5544 0.76068 0.97234 0 1.5412-0.76729t0.56886-2.0902q0-1.3163-0.56886-2.0836-0.56886-0.77391-1.5412-0.77391zm0-1.0319q1.5875 0 2.4937 1.0319t0.9062 2.8575q0 1.819-0.9062 2.8575-0.9062 1.0319-2.4937 1.0319-1.5941 0-2.5003-1.0319-0.89959-1.0385-0.89959-2.8575 0-1.8256 0.89959-2.8575 0.9062-1.0319 2.5003-1.0319z" style=""/>
   <path id="path1009" d="m161.32 107.58v1.1377q-0.51594-0.28442-1.0385-0.42333-0.51594-0.14552-1.0451-0.14552-1.184 0-1.8389 0.75406-0.65484 0.74745-0.65484 2.1034 0 1.356 0.65484 2.11 0.65485 0.74745 1.8389 0.74745 0.52917 0 1.0451-0.1389 0.52255-0.14552 1.0385-0.42995v1.1245q-0.50932 0.23812-1.0583 0.35719-0.54239 0.11906-1.1576 0.11906-1.6735 0-2.6591-1.0517t-0.98558-2.8377q0-1.8124 0.99219-2.8509 0.99881-1.0385 2.7318-1.0385 0.56225 0 1.098 0.11906 0.53578 0.11245 1.0385 0.34396z" style=""/>
   <path id="path1011" d="m166.38 104.42q-0.88635 1.5214-1.3163 3.0096-0.42995 1.4883-0.42995 3.0163t0.42995 3.0295q0.43656 1.4949 1.3163 3.0096h-1.0583q-0.99219-1.5544-1.4883-3.056-0.48948-1.5015-0.48948-2.9832 0-1.4751 0.48948-2.97t1.4883-3.0559z" style=""/>
   <path id="path1013" d="m168.55 104.42h1.0583q0.99219 1.561 1.4817 3.0559 0.4961 1.4949 0.4961 2.97 0 1.4817-0.4961 2.9832-0.48948 1.5015-1.4817 3.056h-1.0583q0.87975-1.5147 1.3097-3.0096 0.43656-1.5015 0.43656-3.0295t-0.43656-3.0163q-0.42995-1.4883-1.3097-3.0096z" style=""/>
   <path id="path1015" d="m174.35 113.02h1.3957v1.1377l-1.0848 2.1167h-0.85328l0.54239-2.1167z" style=""/>
   <path id="path1017" d="m185.53 108.14q-0.97896 0-1.5478 0.76729-0.56886 0.76068-0.56886 2.0902 0 1.3295 0.56224 2.0968 0.56886 0.76068 1.5544 0.76068 0.97235 0 1.5412-0.76729 0.56886-0.76729 0.56886-2.0902 0-1.3163-0.56886-2.0836-0.56885-0.77391-1.5412-0.77391zm0-1.0319q1.5875 0 2.4937 1.0319t0.9062 2.8575q0 1.819-0.9062 2.8575-0.9062 1.0319-2.4937 1.0319-1.5941 0-2.5003-1.0319-0.89958-1.0385-0.89958-2.8575 0-1.8256 0.89958-2.8575 0.9062-1.0319 2.5003-1.0319z" style=""/>
   <path id="path1019" d="m192.12 113.59v3.9291h-1.2237v-10.226h1.2237v1.1245q0.38365-0.66146 0.96573-0.97896 0.5887-0.32412 1.4023-0.32412 1.3494 0 2.1894 1.0716 0.84667 1.0716 0.84667 2.8178 0 1.7462-0.84667 2.8178-0.84006 1.0716-2.1894 1.0716-0.8136 0-1.4023-0.3175-0.58208-0.32412-0.96573-0.98558zm4.1407-2.5863q0-1.3428-0.55563-2.1034-0.54901-0.76729-1.5147-0.76729t-1.5214 0.76729q-0.54901 0.76068-0.54901 2.1034 0 1.3428 0.54901 2.11 0.55563 0.76068 1.5214 0.76068t1.5147-0.76068q0.55563-0.76729 0.55563-2.11z" style=""/>
   <path id="path1021" d="m205.88 110.69v0.59531h-5.596q0.0794 1.2568 0.75406 1.9182 0.68131 0.65484 1.8918 0.65484 0.70115 0 1.356-0.17198 0.66146-0.17198 1.3097-0.51594v1.1509q-0.65484 0.27782-1.3428 0.42334t-1.3957 0.14552q-1.7727 0-2.8112-1.0319-1.0319-1.0319-1.0319-2.7914 0-1.819 0.97896-2.884 0.98557-1.0716 2.6524-1.0716 1.4949 0 2.3614 0.96573 0.87313 0.95912 0.87313 2.6128zm-1.2171-0.35719q-0.0132-0.9988-0.56224-1.5941-0.54239-0.59531-1.442-0.59531-1.0186 0-1.6338 0.57547-0.60855 0.57547-0.70115 1.6206z" style=""/>
   <path id="path1023" d="m212.17 108.43q-0.20506-0.11907-0.4498-0.17198-0.23812-0.0595-0.52916-0.0595-1.0319 0-1.5875 0.67468-0.54901 0.66808-0.54901 1.9248v3.9026h-1.2237v-7.4084h1.2237v1.1509q0.38365-0.67469 0.9988-0.99881 0.61516-0.33073 1.4949-0.33073 0.12568 0 0.27782 0.0199 0.15213 0.0132 0.33734 0.0463z" style=""/>
   <path id="path1025" d="m216.83 110.98q-1.4751 0-2.0439 0.33734-0.56886 0.33735-0.56886 1.1509 0 0.64823 0.42334 1.0319 0.42995 0.37703 1.1642 0.37703 1.012 0 1.6206-0.71437 0.61516-0.721 0.61516-1.9116v-0.2712zm2.4276-0.50271v4.2267h-1.2171v-1.1245q-0.41672 0.67468-1.0385 0.9988-0.62177 0.3175-1.5214 0.3175-1.1377 0-1.8124-0.635-0.66807-0.64162-0.66807-1.7132 0-1.2502 0.83344-1.8852 0.84005-0.635 2.5003-0.635h1.7066v-0.11907q0-0.84005-0.55562-1.2965-0.54902-0.46302-1.5478-0.46302-0.635 0-1.2369 0.15213-0.60193 0.15214-1.1576 0.45641v-1.1245q0.66808-0.25797 1.2965-0.38365 0.62838-0.13229 1.2237-0.13229 1.6073 0 2.4011 0.83344 0.79375 0.83344 0.79375 2.5268z" style=""/>
   <path id="path1027" d="m222.97 105.19v2.1034h2.5069v0.94588h-2.5069v4.0217q0 0.9062 0.24474 1.1642 0.25136 0.25797 1.012 0.25797h1.2502v1.0186h-1.2502q-1.4089 0-1.9447-0.52256-0.53579-0.52916-0.53579-1.9182v-4.0217h-0.89297v-0.94588h0.89297v-2.1034z" style=""/>
   <path id="path1029" d="m229.96 108.14q-0.97896 0-1.5478 0.76729-0.56885 0.76068-0.56885 2.0902 0 1.3295 0.56224 2.0968 0.56886 0.76068 1.5544 0.76068 0.97235 0 1.5412-0.76729 0.56886-0.76729 0.56886-2.0902 0-1.3163-0.56886-2.0836-0.56885-0.77391-1.5412-0.77391zm0-1.0319q1.5875 0 2.4937 1.0319 0.90621 1.0319 0.90621 2.8575 0 1.819-0.90621 2.8575-0.9062 1.0319-2.4937 1.0319-1.5941 0-2.5003-1.0319-0.89958-1.0385-0.89958-2.8575 0-1.8256 0.89958-2.8575 0.9062-1.0319 2.5003-1.0319z" style=""/>
   <path id="path1031" d="m239.66 108.43q-0.20505-0.11907-0.44979-0.17198-0.23813-0.0595-0.52917-0.0595-1.0319 0-1.5875 0.67468-0.54901 0.66808-0.54901 1.9248v3.9026h-1.2237v-7.4084h1.2237v1.1509q0.38365-0.67469 0.99881-0.99881 0.61515-0.33073 1.4949-0.33073 0.12567 0 0.27781 0.0199 0.15214 0.0132 0.33734 0.0463z" style=""/>
   <path id="path1033" d="m251.42 110.23v4.4715h-1.2171v-4.4318q0-1.0517-0.41011-1.5743-0.4101-0.52255-1.2303-0.52255-0.98558 0-1.5544 0.62838-0.56886 0.62839-0.56886 1.7132v4.187h-1.2237v-7.4084h1.2237v1.1509q0.43657-0.66808 1.0253-0.99881 0.59532-0.33073 1.3692-0.33073 1.2766 0 1.9315 0.79375 0.65484 0.78714 0.65484 2.3217z" style=""/>
   <path id="path1035" d="m260.2 110.69v0.59531h-5.596q0.0794 1.2568 0.75407 1.9182 0.6813 0.65484 1.8918 0.65484 0.70115 0 1.356-0.17198 0.66146-0.17198 1.3097-0.51594v1.1509q-0.65485 0.27782-1.3428 0.42334-0.68791 0.14552-1.3957 0.14552-1.7727 0-2.8112-1.0319-1.0319-1.0319-1.0319-2.7914 0-1.819 0.97896-2.884 0.98558-1.0716 2.6525-1.0716 1.4949 0 2.3614 0.96573 0.87313 0.95912 0.87313 2.6128zm-1.2171-0.35719q-0.0132-0.9988-0.56224-1.5941-0.5424-0.59531-1.442-0.59531-1.0186 0-1.6338 0.57547-0.60854 0.57547-0.70115 1.6206z" style=""/>
   <path id="path1037" d="m261.49 107.29h1.2171l1.5214 5.7812 1.5147-5.7812h1.4354l1.5214 5.7812 1.5147-5.7812h1.2171l-1.9381 7.4084h-1.4354l-1.5941-6.0722-1.6007 6.0722h-1.4354z" style=""/>
   <path id="path1039" d="m276.21 104.42q-0.88635 1.5214-1.3163 3.0096-0.42995 1.4883-0.42995 3.0163t0.42995 3.0295q0.43656 1.4949 1.3163 3.0096h-1.0583q-0.99219-1.5544-1.4883-3.056-0.48948-1.5015-0.48948-2.9832 0-1.4751 0.48948-2.97t1.4883-3.0559z" style=""/>
   <path id="path1041" d="m278.38 104.42h1.0583q0.99219 1.561 1.4817 3.0559 0.4961 1.4949 0.4961 2.97 0 1.4817-0.4961 2.9832-0.48948 1.5015-1.4817 3.056h-1.0583q0.87974-1.5147 1.3097-3.0096 0.43656-1.5015 0.43656-3.0295t-0.43656-3.0163q-0.42995-1.4883-1.3097-3.0096z" style=""/>
  </g>
  <g id="text66" aria-label="free(), operator delete()">
   <path id="path1044" d="m124.13 184.41v1.012h-1.1642q-0.65485 0-0.91282 0.26459-0.25135 0.26458-0.25135 0.9525v0.65485h2.0042v0.94588h-2.0042v6.4625h-1.2237v-6.4625h-1.1642v-0.94588h1.1642v-0.51594q0-1.2369 0.57547-1.7992 0.57547-0.56886 1.8256-0.56886z" style=""/>
   <path id="path1046" d="m129.44 188.43q-0.20505-0.11907-0.44979-0.17198-0.23812-0.0595-0.52917-0.0595-1.0319 0-1.5875 0.67468-0.54901 0.66808-0.54901 1.9248v3.9026h-1.2237v-7.4084h1.2237v1.1509q0.38364-0.67469 0.9988-0.99881 0.61516-0.33073 1.4949-0.33073 0.12568 0 0.27781 0.0199 0.15214 0.0132 0.33735 0.0463z" style=""/>
   <path id="path1048" d="m136.77 190.69v0.59531h-5.596q0.0794 1.2568 0.75407 1.9182 0.6813 0.65484 1.8918 0.65484 0.70115 0 1.356-0.17198 0.66146-0.17198 1.3097-0.51594v1.1509q-0.65485 0.27782-1.3428 0.42334-0.68791 0.14552-1.3957 0.14552-1.7727 0-2.8112-1.0319-1.0319-1.0319-1.0319-2.7914 0-1.819 0.97896-2.884 0.98558-1.0716 2.6525-1.0716 1.4949 0 2.3614 0.96573 0.87313 0.95912 0.87313 2.6128zm-1.2171-0.35719q-0.0132-0.9988-0.56224-1.5941-0.5424-0.59531-1.442-0.59531-1.0186 0-1.6338 0.57547-0.60854 0.57547-0.70115 1.6206z" style=""/>
   <path id="path1050" d="m145.11 190.69v0.59531h-5.596q0.0794 1.2568 0.75406 1.9182 0.68131 0.65484 1.8918 0.65484 0.70115 0 1.356-0.17198 0.66146-0.17198 1.3097-0.51594v1.1509q-0.65484 0.27782-1.3428 0.42334t-1.3957 0.14552q-1.7727 0-2.8112-1.0319-1.0319-1.0319-1.0319-2.7914 0-1.819 0.97896-2.884 0.98557-1.0716 2.6524-1.0716 1.4949 0 2.3614 0.96573 0.87313 0.95912 0.87313 2.6128zm-1.2171-0.35719q-0.0132-0.9988-0.56224-1.5941-0.54239-0.59531-1.442-0.59531-1.0186 0-1.6338 0.57547-0.60854 0.57547-0.70114 1.6206z" style=""/>
   <path id="path1052" d="m150.03 184.42q-0.88635 1.5214-1.3163 3.0096-0.42995 1.4883-0.42995 3.0163t0.42995 3.0295q0.43656 1.4949 1.3163 3.0096h-1.0583q-0.99219-1.5544-1.4883-3.056-0.48948-1.5015-0.48948-2.9832 0-1.4751 0.48948-2.97t1.4883-3.0559z" style=""/>
   <path id="path1054" d="m152.2 184.42h1.0583q0.99219 1.561 1.4817 3.0559 0.49609 1.4949 0.49609 2.97 0 1.4817-0.49609 2.9832-0.48948 1.5015-1.4817 3.056h-1.0583q0.87975-1.5147 1.3097-3.0096 0.43657-1.5015 0.43657-3.0295t-0.43657-3.0163q-0.42994-1.4883-1.3097-3.0096z" style=""/>
   <path id="path1056" d="m158 193.02h1.3957v1.1377l-1.0848 2.1167h-0.85328l0.54239-2.1167z" style=""/>
   <path id="path1058" d="m169.18 188.14q-0.97896 0-1.5478 0.76729-0.56886 0.76068-0.56886 2.0902 0 1.3295 0.56224 2.0968 0.56886 0.76068 1.5544 0.76068 0.97235 0 1.5412-0.76729 0.56886-0.76729 0.56886-2.0902 0-1.3163-0.56886-2.0836-0.56885-0.77391-1.5412-0.77391zm0-1.0319q1.5875 0 2.4937 1.0319t0.9062 2.8575q0 1.819-0.9062 2.8575-0.9062 1.0319-2.4937 1.0319-1.5941 0-2.5003-1.0319-0.89958-1.0385-0.89958-2.8575 0-1.8256 0.89958-2.8575 0.9062-1.0319 2.5003-1.0319z" style=""/>
   <path id="path1060" d="m175.77 193.59v3.9291h-1.2237v-10.226h1.2237v1.1245q0.38365-0.66146 0.96573-0.97896 0.5887-0.32412 1.4023-0.32412 1.3494 0 2.1894 1.0716 0.84667 1.0716 0.84667 2.8178 0 1.7462-0.84667 2.8178-0.84005 1.0716-2.1894 1.0716-0.8136 0-1.4023-0.3175-0.58208-0.32412-0.96573-0.98558zm4.1407-2.5863q0-1.3428-0.55562-2.1034-0.54902-0.76729-1.5148-0.76729t-1.5214 0.76729q-0.54901 0.76068-0.54901 2.1034 0 1.3428 0.54901 2.11 0.55563 0.76068 1.5214 0.76068t1.5148-0.76068q0.55562-0.76729 0.55562-2.11z" style=""/>
   <path id="path1062" d="m189.53 190.69v0.59531h-5.596q0.0794 1.2568 0.75406 1.9182 0.68131 0.65484 1.8918 0.65484 0.70115 0 1.356-0.17198 0.66146-0.17198 1.3097-0.51594v1.1509q-0.65484 0.27782-1.3428 0.42334t-1.3957 0.14552q-1.7727 0-2.8112-1.0319-1.0319-1.0319-1.0319-2.7914 0-1.819 0.97896-2.884 0.98557-1.0716 2.6524-1.0716 1.4949 0 2.3614 0.96573 0.87313 0.95912 0.87313 2.6128zm-1.2171-0.35719q-0.0132-0.9988-0.56224-1.5941-0.54239-0.59531-1.442-0.59531-1.0186 0-1.6338 0.57547-0.60854 0.57547-0.70114 1.6206z" style=""/>
   <path id="path1064" d="m195.82 188.43q-0.20505-0.11907-0.44979-0.17198-0.23813-0.0595-0.52917-0.0595-1.0319 0-1.5875 0.67468-0.54901 0.66808-0.54901 1.9248v3.9026h-1.2237v-7.4084h1.2237v1.1509q0.38364-0.67469 0.9988-0.99881 0.61516-0.33073 1.4949-0.33073 0.12568 0 0.27781 0.0199 0.15214 0.0132 0.33735 0.0463z" style=""/>
   <path id="path1066" d="m200.48 190.98q-1.475 0-2.0439 0.33734-0.56885 0.33735-0.56885 1.1509 0 0.64823 0.42333 1.0319 0.42995 0.37703 1.1642 0.37703 1.012 0 1.6206-0.71437 0.61515-0.721 0.61515-1.9116v-0.2712zm2.4276-0.50271v4.2267h-1.2171v-1.1245q-0.41671 0.67468-1.0385 0.9988-0.62177 0.3175-1.5214 0.3175-1.1377 0-1.8124-0.635-0.66807-0.64162-0.66807-1.7132 0-1.2502 0.83344-1.8852 0.84005-0.635 2.5003-0.635h1.7066v-0.11907q0-0.84005-0.55562-1.2965-0.54901-0.46302-1.5478-0.46302-0.635 0-1.2369 0.15213-0.60193 0.15214-1.1576 0.45641v-1.1245q0.66807-0.25797 1.2965-0.38365 0.62839-0.13229 1.2237-0.13229 1.6074 0 2.4011 0.83344t0.79375 2.5268z" style=""/>
   <path id="path1068" d="m206.62 185.19v2.1034h2.5069v0.94588h-2.5069v4.0217q0 0.9062 0.24474 1.1642 0.25135 0.25797 1.012 0.25797h1.2502v1.0186h-1.2502q-1.4089 0-1.9447-0.52256-0.53578-0.52916-0.53578-1.9182v-4.0217h-0.89297v-0.94588h0.89297v-2.1034z" style=""/>
   <path id="path1070" d="m213.61 188.14q-0.97896 0-1.5478 0.76729-0.56886 0.76068-0.56886 2.0902 0 1.3295 0.56224 2.0968 0.56886 0.76068 1.5544 0.76068 0.97235 0 1.5412-0.76729 0.56885-0.76729 0.56885-2.0902 0-1.3163-0.56885-2.0836-0.56886-0.77391-1.5412-0.77391zm0-1.0319q1.5875 0 2.4937 1.0319t0.9062 2.8575q0 1.819-0.9062 2.8575-0.9062 1.0319-2.4937 1.0319-1.5941 0-2.5003-1.0319-0.89959-1.0385-0.89959-2.8575 0-1.8256 0.89959-2.8575 0.9062-1.0319 2.5003-1.0319z" style=""/>
   <path id="path1072" d="m223.31 188.43q-0.20505-0.11907-0.44979-0.17198-0.23813-0.0595-0.52917-0.0595-1.0319 0-1.5875 0.67468-0.54901 0.66808-0.54901 1.9248v3.9026h-1.2237v-7.4084h1.2237v1.1509q0.38364-0.67469 0.9988-0.99881 0.61516-0.33073 1.4949-0.33073 0.12568 0 0.27781 0.0199 0.15214 0.0132 0.33735 0.0463z" style=""/>
   <path id="path1074" d="m233.79 188.42v-4.0084h1.2171v10.292h-1.2171v-1.1113q-0.38365 0.66146-0.97235 0.98558-0.58209 0.3175-1.4023 0.3175-1.3428 0-2.1894-1.0716-0.84005-1.0716-0.84005-2.8178 0-1.7463 0.84005-2.8178 0.84667-1.0716 2.1894-1.0716 0.82021 0 1.4023 0.32412 0.5887 0.3175 0.97235 0.97896zm-4.1474 2.5863q0 1.3428 0.54901 2.11 0.55563 0.76068 1.5214 0.76068t1.5214-0.76068q0.55563-0.76729 0.55563-2.11 0-1.3428-0.55563-2.1034-0.55563-0.76729-1.5214-0.76729t-1.5214 0.76729q-0.54901 0.76068-0.54901 2.1034z" style=""/>
   <path id="path1076" d="m243.85 190.69v0.59531h-5.596q0.0794 1.2568 0.75406 1.9182 0.68131 0.65484 1.8918 0.65484 0.70114 0 1.356-0.17198 0.66146-0.17198 1.3097-0.51594v1.1509q-0.65484 0.27782-1.3428 0.42334t-1.3957 0.14552q-1.7727 0-2.8112-1.0319-1.0319-1.0319-1.0319-2.7914 0-1.819 0.97896-2.884 0.98558-1.0716 2.6525-1.0716 1.4949 0 2.3614 0.96573 0.87313 0.95912 0.87313 2.6128zm-1.2171-0.35719q-0.0132-0.9988-0.56224-1.5941-0.5424-0.59531-1.442-0.59531-1.0186 0-1.6338 0.57547-0.60854 0.57547-0.70115 1.6206z" style=""/>
   <path id="path1078" d="m245.85 184.41h1.2171v10.292h-1.2171z" style=""/>
   <path id="path1080" d="m255.94 190.69v0.59531h-5.596q0.0794 1.2568 0.75407 1.9182 0.6813 0.65484 1.8918 0.65484 0.70115 0 1.356-0.17198 0.66146-0.17198 1.3097-0.51594v1.1509q-0.65484 0.27782-1.3428 0.42334t-1.3957 0.14552q-1.7727 0-2.8112-1.0319-1.0319-1.0319-1.0319-2.7914 0-1.819 0.97896-2.884 0.98557-1.0716 2.6524-1.0716 1.4949 0 2.3614 0.96573 0.87312 0.95912 0.87312 2.6128zm-1.2171-0.35719q-0.0132-0.9988-0.56224-1.5941-0.5424-0.59531-1.442-0.59531-1.0186 0-1.6338 0.57547-0.60855 0.57547-0.70115 1.6206z" style=""/>
   <path id="path1082" d="m259.14 185.19v2.1034h2.5069v0.94588h-2.5069v4.0217q0 0.9062 0.24474 1.1642 0.25135 0.25797 1.012 0.25797h1.2502v1.0186h-1.2502q-1.4089 0-1.9447-0.52256-0.53578-0.52916-0.53578-1.9182v-4.0217h-0.89297v-0.94588h0.89297v-2.1034z" style=""/>
   <path id="path1084" d="m269.59 190.69v0.59531h-5.596q0.0794 1.2568 0.75407 1.9182 0.6813 0.65484 1.8918 0.65484 0.70115 0 1.356-0.17198 0.66146-0.17198 1.3097-0.51594v1.1509q-0.65485 0.27782-1.3428 0.42334t-1.3957 0.14552q-1.7727 0-2.8112-1.0319-1.0319-1.0319-1.0319-2.7914 0-1.819 0.97896-2.884 0.98558-1.0716 2.6525-1.0716 1.4949 0 2.3614 0.96573 0.87312 0.95912 0.87312 2.6128zm-1.2171-0.35719q-0.0132-0.9988-0.56224-1.5941-0.5424-0.59531-1.442-0.59531-1.0186 0-1.6338 0.57547-0.60854 0.57547-0.70115 1.6206z" style=""/>
   <path id="path1086" d="m274.51 184.42q-0.88636 1.5214-1.3163 3.0096-0.42995 1.4883-0.42995 3.0163t0.42995 3.0295q0.43657 1.4949 1.3163 3.0096h-1.0583q-0.99219-1.5544-1.4883-3.056-0.48948-1.5015-0.48948-2.9832 0-1.4751 0.48948-2.97t1.4883-3.0559z" style=""/>
   <path id="path1088" d="m276.69 184.42h1.0583q0.99219 1.561 1.4817 3.0559 0.49609 1.4949 0.49609 2.97 0 1.4817-0.49609 2.9832-0.48948 1.5015-1.4817 3.056h-1.0583q0.87974-1.5147 1.3097-3.0096 0.43657-1.5015 0.43657-3.0295t-0.43657-3.0163q-0.42995-1.4883-1.3097-3.0096z" style=""/>
  </g>
  <g id="g72" fill="none" stroke="#000" stroke-width="2">
   <path id="path68" d="m89.223 140.19c80-20 141.55-20 217.22-1.084"/>
   <path id="polyline70" d="m297.69 142.08 10.914-2.425-8.489-7.276"/>
  </g>
  <g id="g78" fill="none" stroke="#000" stroke-width="2">
   <path id="path74" d="m310.78 159.81c-80 20-141.55 20-217.22 1.084"/>
   <path id="polyline76" d="m102.31 157.92-10.914 2.425 8.4887 7.276"/>
  </g>
  <g id="text82" aria-label="semmi">
   <path id="path1093" d="m33.219 147.51v1.1509q-0.51594-0.26459-1.0716-0.39688-0.55563-0.13229-1.1509-0.13229-0.9062 0-1.3626 0.27781-0.44979 0.27782-0.44979 0.83344 0 0.42334 0.32412 0.66808 0.32412 0.23812 1.3031 0.4564l0.41672 0.0926q1.2965 0.27781 1.8389 0.78714 0.54901 0.50271 0.54901 1.4089 0 1.0319-0.82021 1.6338-0.8136 0.60193-2.2423 0.60193-0.59531 0-1.2435-0.11906-0.64162-0.11245-1.356-0.34396v-1.2568q0.67469 0.35058 1.3295 0.52917 0.65484 0.17198 1.2965 0.17198 0.8599 0 1.3229-0.29104 0.46302-0.29766 0.46302-0.83344 0-0.49609-0.33734-0.76068-0.33073-0.26458-1.4618-0.50932l-0.42333-0.0992q-1.1311-0.23813-1.6338-0.72761-0.50271-0.49609-0.50271-1.356 0-1.0451 0.74084-1.614 0.74084-0.56886 2.1034-0.56886 0.67469 0 1.27 0.0992t1.098 0.29766z" style=""/>
   <path id="path1095" d="m41.897 150.69v0.59531h-5.596q0.07938 1.2568 0.75406 1.9182 0.6813 0.65484 1.8918 0.65484 0.70115 0 1.356-0.17198 0.66146-0.17198 1.3097-0.51594v1.1509q-0.65484 0.27782-1.3428 0.42334-0.68792 0.14552-1.3957 0.14552-1.7727 0-2.8112-1.0319-1.0319-1.0319-1.0319-2.7914 0-1.819 0.97896-2.884 0.98558-1.0716 2.6525-1.0716 1.4949 0 2.3614 0.96573 0.87313 0.95912 0.87313 2.6128zm-1.2171-0.35719q-0.01323-0.9988-0.56224-1.5941-0.5424-0.59531-1.442-0.59531-1.0186 0-1.6338 0.57547-0.60854 0.57547-0.70115 1.6206z" style=""/>
   <path id="path1097" d="m49.663 148.71q0.45641-0.82021 1.0914-1.2105 0.635-0.39026 1.4949-0.39026 1.1576 0 1.7859 0.8136 0.62839 0.80698 0.62839 2.3019v4.4715h-1.2237v-4.4318q0-1.065-0.37703-1.5809-0.37703-0.51594-1.1509-0.51594-0.94589 0-1.4949 0.62838-0.54901 0.62839-0.54901 1.7132v4.187h-1.2237v-4.4318q0-1.0716-0.37703-1.5809-0.37703-0.51594-1.1642-0.51594-0.93266 0-1.4817 0.635-0.54901 0.62839-0.54901 1.7066v4.187h-1.2237v-7.4084h1.2237v1.1509q0.41672-0.68131 0.9988-1.0054 0.58208-0.32412 1.3825-0.32412 0.80698 0 1.3692 0.41011 0.56886 0.4101 0.84006 1.1906z" style=""/>
   <path id="path1099" d="m62.865 148.71q0.45641-0.82021 1.0914-1.2105 0.635-0.39026 1.4949-0.39026 1.1576 0 1.7859 0.8136 0.62839 0.80698 0.62839 2.3019v4.4715h-1.2237v-4.4318q0-1.065-0.37703-1.5809-0.37703-0.51594-1.1509-0.51594-0.94589 0-1.4949 0.62838-0.54901 0.62839-0.54901 1.7132v4.187h-1.2237v-4.4318q0-1.0716-0.37703-1.5809-0.37703-0.51594-1.1642-0.51594-0.93266 0-1.4817 0.635-0.54901 0.62839-0.54901 1.7066v4.187h-1.2237v-7.4084h1.2237v1.1509q0.41672-0.68131 0.9988-1.0054 0.58208-0.32412 1.3825-0.32412 0.80698 0 1.3692 0.41011 0.56886 0.4101 0.84005 1.1906z" style=""/>
   <path id="path1101" d="m70.3 147.29h1.2171v7.4084h-1.2171zm0-2.884h1.2171v1.5412h-1.2171z" style=""/>
  </g>
  <g id="g88" fill="none" stroke="#000" stroke-width="2">
   <path id="path84" d="m78.588 121.41c90-90 452.82-90 539.66-3.162"/>
   <path id="polyline86" d="m609.22 116.3 10.607 3.536-3.536-10.607"/>
  </g>
  <g id="text92" aria-label="new T, new T[]">
   <path id="path1105" d="m307.22 40.229v4.4715h-1.2171v-4.4318q0-1.0517-0.4101-1.5743-0.41011-0.52255-1.2303-0.52255-0.98557 0-1.5544 0.62839-0.56885 0.62839-0.56885 1.7132v4.187h-1.2237v-7.4084h1.2237v1.1509q0.43656-0.66808 1.0253-0.9988 0.59531-0.33073 1.3692-0.33073 1.2766 0 1.9315 0.79375 0.65484 0.78714 0.65484 2.3217z" style=""/>
   <path id="path1107" d="m315.99 40.692v0.59531h-5.596q0.0794 1.2568 0.75407 1.9182 0.6813 0.65485 1.8918 0.65485 0.70115 0 1.356-0.17198 0.66146-0.17198 1.3097-0.51594v1.1509q-0.65485 0.27781-1.3428 0.42333t-1.3957 0.14552q-1.7727 0-2.8112-1.0319-1.0319-1.0319-1.0319-2.7914 0-1.819 0.97896-2.884 0.98558-1.0716 2.6525-1.0716 1.4949 0 2.3614 0.96573 0.87312 0.95912 0.87312 2.6128zm-1.2171-0.35719q-0.0132-0.9988-0.56224-1.5941-0.5424-0.59531-1.442-0.59531-1.0186 0-1.6338 0.57547-0.60854 0.57547-0.70115 1.6206z" style=""/>
   <path id="path1109" d="m317.28 37.292h1.2171l1.5214 5.7812 1.5147-5.7812h1.4354l1.5214 5.7812 1.5148-5.7812h1.2171l-1.9381 7.4084h-1.4354l-1.5941-6.0722-1.6007 6.0722h-1.4354z" style=""/>
   <path id="path1111" d="m332.07 34.824h8.3542v1.1245h-3.5057v8.7511h-1.3428v-8.7511h-3.5057z" style=""/>
   <path id="path1113" d="m341.98 43.02h1.3957v1.1377l-1.0848 2.1167h-0.85328l0.5424-2.1167z" style=""/>
   <path id="path1115" d="m356.46 40.229v4.4715h-1.2171v-4.4318q0-1.0517-0.4101-1.5743-0.41011-0.52255-1.2303-0.52255-0.98557 0-1.5544 0.62839-0.56885 0.62839-0.56885 1.7132v4.187h-1.2237v-7.4084h1.2237v1.1509q0.43656-0.66808 1.0253-0.9988 0.59531-0.33073 1.3692-0.33073 1.2766 0 1.9315 0.79375 0.65485 0.78714 0.65485 2.3217z" style=""/>
   <path id="path1117" d="m365.23 40.692v0.59531h-5.596q0.0794 1.2568 0.75407 1.9182 0.6813 0.65485 1.8918 0.65485 0.70115 0 1.356-0.17198 0.66146-0.17198 1.3097-0.51594v1.1509q-0.65485 0.27781-1.3428 0.42333t-1.3957 0.14552q-1.7727 0-2.8112-1.0319-1.0319-1.0319-1.0319-2.7914 0-1.819 0.97896-2.884 0.98558-1.0716 2.6524-1.0716 1.4949 0 2.3614 0.96573 0.87312 0.95912 0.87312 2.6128zm-1.2171-0.35719q-0.0132-0.9988-0.56224-1.5941-0.5424-0.59531-1.442-0.59531-1.0186 0-1.6338 0.57547-0.60855 0.57547-0.70115 1.6206z" style=""/>
   <path id="path1119" d="m366.52 37.292h1.2171l1.5214 5.7812 1.5147-5.7812h1.4354l1.5214 5.7812 1.5147-5.7812h1.2171l-1.9381 7.4084h-1.4354l-1.5941-6.0722-1.6007 6.0722h-1.4354z" style=""/>
   <path id="path1121" d="m381.31 34.824h8.3542v1.1245h-3.5057v8.7511h-1.3428v-8.7511h-3.5057z" style=""/>
   <path id="path1123" d="m390.8 34.408h2.8046v0.94589h-1.5875v10.186h1.5875v0.94589h-2.8046z" style=""/>
   <path id="path1125" d="m399.05 34.408v12.078h-2.8046v-0.94589h1.5809v-10.186h-1.5809v-0.94589z" style=""/>
  </g>
  <g id="g98" fill="none" stroke="#000" stroke-width="2">
   <path id="path94" d="m81.75 181.75c86.838 86.838 449.66 86.838 539.66-3.162"/>
   <path id="polyline96" d="m90.776 183.7-10.607-3.536 3.5356 10.607"/>
  </g>
  <g id="text102" aria-label="delete p, delete[] p">
   <path id="path1129" d="m290.96 258.42v-4.0084h1.2171v10.292h-1.2171v-1.1112q-0.38365 0.66146-0.97235 0.98557-0.58208 0.31751-1.4023 0.31751-1.3428 0-2.1894-1.0716-0.84005-1.0716-0.84005-2.8178 0-1.7462 0.84005-2.8178 0.84667-1.0716 2.1894-1.0716 0.82022 0 1.4023 0.32411 0.5887 0.3175 0.97235 0.97896zm-4.1474 2.5863q0 1.3428 0.54901 2.1101 0.55563 0.76068 1.5214 0.76068t1.5214-0.76068q0.55563-0.7673 0.55563-2.1101t-0.55563-2.1034q-0.55563-0.76729-1.5214-0.76729t-1.5214 0.76729q-0.54901 0.76068-0.54901 2.1034z" style=""/>
   <path id="path1131" d="m301.02 260.69v0.59532h-5.596q0.0794 1.2568 0.75406 1.9182 0.68131 0.65485 1.8918 0.65485 0.70115 0 1.356-0.17198 0.66146-0.17198 1.3097-0.51594v1.1509q-0.65484 0.27781-1.3428 0.42333-0.68792 0.14553-1.3957 0.14553-1.7727 0-2.8112-1.0319-1.0319-1.0319-1.0319-2.7914 0-1.819 0.97896-2.884 0.98557-1.0716 2.6524-1.0716 1.4949 0 2.3614 0.96573 0.87313 0.95912 0.87313 2.6128zm-1.2171-0.35718q-0.0132-0.99881-0.56225-1.5941-0.54239-0.59532-1.442-0.59532-1.0186 0-1.6338 0.57547-0.60855 0.57547-0.70115 1.6206z" style=""/>
   <path id="path1133" d="m303.02 254.41h1.2171v10.292h-1.2171z" style=""/>
   <path id="path1135" d="m313.11 260.69v0.59532h-5.596q0.0794 1.2568 0.75406 1.9182 0.68131 0.65485 1.8918 0.65485 0.70115 0 1.356-0.17198 0.66146-0.17198 1.3097-0.51594v1.1509q-0.65484 0.27781-1.3428 0.42333-0.68792 0.14553-1.3957 0.14553-1.7727 0-2.8112-1.0319-1.0319-1.0319-1.0319-2.7914 0-1.819 0.97896-2.884 0.98557-1.0716 2.6524-1.0716 1.4949 0 2.3614 0.96573 0.87313 0.95912 0.87313 2.6128zm-1.2171-0.35718q-0.0132-0.99881-0.56224-1.5941-0.54239-0.59532-1.442-0.59532-1.0186 0-1.6338 0.57547-0.60854 0.57547-0.70114 1.6206z" style=""/>
   <path id="path1137" d="m316.31 255.19v2.1034h2.5069v0.94589h-2.5069v4.0217q0 0.9062 0.24474 1.1642 0.25135 0.25797 1.012 0.25797h1.2502v1.0186h-1.2502q-1.4089 0-1.9447-0.52255-0.53579-0.52917-0.53579-1.9182v-4.0217h-0.89297v-0.94589h0.89297v-2.1034z" style=""/>
   <path id="path1139" d="m326.76 260.69v0.59532h-5.596q0.0794 1.2568 0.75407 1.9182 0.6813 0.65485 1.8918 0.65485 0.70115 0 1.356-0.17198 0.66146-0.17198 1.3097-0.51594v1.1509q-0.65485 0.27781-1.3428 0.42333-0.68792 0.14553-1.3957 0.14553-1.7727 0-2.8112-1.0319-1.0319-1.0319-1.0319-2.7914 0-1.819 0.97896-2.884 0.98558-1.0716 2.6525-1.0716 1.4949 0 2.3614 0.96573 0.87312 0.95912 0.87312 2.6128zm-1.2171-0.35718q-0.0132-0.99881-0.56224-1.5941-0.5424-0.59532-1.442-0.59532-1.0186 0-1.6338 0.57547-0.60854 0.57547-0.70115 1.6206z" style=""/>
   <path id="path1141" d="m334.25 263.59v3.9291h-1.2237v-10.226h1.2237v1.1245q0.38365-0.66146 0.96573-0.97896 0.5887-0.32411 1.4023-0.32411 1.3494 0 2.1894 1.0716 0.84667 1.0716 0.84667 2.8178 0 1.7463-0.84667 2.8178-0.84005 1.0716-2.1894 1.0716-0.8136 0-1.4023-0.31751-0.58208-0.32411-0.96573-0.98557zm4.1407-2.5863q0-1.3428-0.55563-2.1034-0.54901-0.76729-1.5147-0.76729t-1.5214 0.76729q-0.54901 0.76068-0.54901 2.1034t0.54901 2.1101q0.55563 0.76068 1.5214 0.76068t1.5147-0.76068q0.55563-0.7673 0.55563-2.1101z" style=""/>
   <path id="path1143" d="m341.98 263.02h1.3957v1.1377l-1.0848 2.1167h-0.85328l0.54239-2.1167z" style=""/>
   <path id="path1145" d="m355.17 258.42v-4.0084h1.2171v10.292h-1.2171v-1.1112q-0.38365 0.66146-0.97235 0.98557-0.58208 0.31751-1.4023 0.31751-1.3428 0-2.1894-1.0716-0.84005-1.0716-0.84005-2.8178 0-1.7462 0.84005-2.8178 0.84667-1.0716 2.1894-1.0716 0.82021 0 1.4023 0.32411 0.5887 0.3175 0.97235 0.97896zm-4.1474 2.5863q0 1.3428 0.54901 2.1101 0.55563 0.76068 1.5214 0.76068t1.5214-0.76068q0.55563-0.7673 0.55563-2.1101t-0.55563-2.1034q-0.55563-0.76729-1.5214-0.76729t-1.5214 0.76729q-0.54901 0.76068-0.54901 2.1034z" style=""/>
   <path id="path1147" d="m365.23 260.69v0.59532h-5.596q0.0794 1.2568 0.75406 1.9182 0.68131 0.65485 1.8918 0.65485 0.70115 0 1.356-0.17198 0.66146-0.17198 1.3097-0.51594v1.1509q-0.65484 0.27781-1.3428 0.42333-0.68792 0.14553-1.3957 0.14553-1.7727 0-2.8112-1.0319-1.0319-1.0319-1.0319-2.7914 0-1.819 0.97896-2.884 0.98557-1.0716 2.6524-1.0716 1.4949 0 2.3614 0.96573 0.87313 0.95912 0.87313 2.6128zm-1.2171-0.35718q-0.0132-0.99881-0.56224-1.5941-0.54239-0.59532-1.442-0.59532-1.0186 0-1.6338 0.57547-0.60854 0.57547-0.70114 1.6206z" style=""/>
   <path id="path1149" d="m367.23 254.41h1.2171v10.292h-1.2171z" style=""/>
   <path id="path1151" d="m377.32 260.69v0.59532h-5.596q0.0794 1.2568 0.75406 1.9182 0.68131 0.65485 1.8918 0.65485 0.70115 0 1.356-0.17198 0.66146-0.17198 1.3097-0.51594v1.1509q-0.65484 0.27781-1.3428 0.42333-0.68792 0.14553-1.3957 0.14553-1.7727 0-2.8112-1.0319-1.0319-1.0319-1.0319-2.7914 0-1.819 0.97896-2.884 0.98557-1.0716 2.6524-1.0716 1.4949 0 2.3614 0.96573 0.87313 0.95912 0.87313 2.6128zm-1.2171-0.35718q-0.0132-0.99881-0.56224-1.5941-0.54239-0.59532-1.442-0.59532-1.0186 0-1.6338 0.57547-0.60855 0.57547-0.70115 1.6206z" style=""/>
   <path id="path1153" d="m380.53 255.19v2.1034h2.5069v0.94589h-2.5069v4.0217q0 0.9062 0.24474 1.1642 0.25135 0.25797 1.012 0.25797h1.2502v1.0186h-1.2502q-1.4089 0-1.9447-0.52255-0.53578-0.52917-0.53578-1.9182v-4.0217h-0.89297v-0.94589h0.89297v-2.1034z" style=""/>
   <path id="path1155" d="m390.98 260.69v0.59532h-5.596q0.0794 1.2568 0.75407 1.9182 0.6813 0.65485 1.8918 0.65485 0.70115 0 1.356-0.17198 0.66146-0.17198 1.3097-0.51594v1.1509q-0.65485 0.27781-1.3428 0.42333-0.68791 0.14553-1.3957 0.14553-1.7727 0-2.8112-1.0319-1.0319-1.0319-1.0319-2.7914 0-1.819 0.97896-2.884 0.98558-1.0716 2.6525-1.0716 1.4949 0 2.3614 0.96573 0.87313 0.95912 0.87313 2.6128zm-1.2171-0.35718q-0.0132-0.99881-0.56224-1.5941-0.5424-0.59532-1.442-0.59532-1.0186 0-1.6338 0.57547-0.60854 0.57547-0.70115 1.6206z" style=""/>
   <path id="path1157" d="m392.86 254.41h2.8046v0.94588h-1.5875v10.186h1.5875v0.94588h-2.8046z" style=""/>
   <path id="path1159" d="m401.11 254.41v12.078h-2.8046v-0.94588h1.5809v-10.186h-1.5809v-0.94588z" style=""/>
   <path id="path1161" d="m409.05 263.59v3.9291h-1.2237v-10.226h1.2237v1.1245q0.38364-0.66146 0.96573-0.97896 0.5887-0.32411 1.4023-0.32411 1.3494 0 2.1894 1.0716 0.84666 1.0716 0.84666 2.8178 0 1.7463-0.84666 2.8178-0.84006 1.0716-2.1894 1.0716-0.81359 0-1.4023-0.31751-0.58209-0.32411-0.96573-0.98557zm4.1407-2.5863q0-1.3428-0.55563-2.1034-0.54901-0.76729-1.5147-0.76729t-1.5214 0.76729q-0.54901 0.76068-0.54901 2.1034t0.54901 2.1101q0.55563 0.76068 1.5214 0.76068t1.5147-0.76068q0.55563-0.7673 0.55563-2.1101z" style=""/>
  </g>
 </g>
</svg>
