<?xml version="1.0" encoding="UTF-8" standalone="no"?>
<svg id="svg2" xmlns:rdf="http://www.w3.org/1999/02/22-rdf-syntax-ns#" xmlns="http://www.w3.org/2000/svg" viewBox="196 99 535.3694 111.38347" height="6.2375cm" width="26.868cm" version="1.1" xmlns:cc="http://creativecommons.org/ns#" xmlns:dc="http://purl.org/dc/elements/1.1/">
 <metadata id="metadata154">
  <rdf:RDF>
   <cc:Work rdf:about="">
    <dc:format>image/svg+xml</dc:format>
    <dc:type rdf:resource="http://purl.org/dc/dcmitype/StillImage"/>
   </cc:Work>
  </rdf:RDF>
 </metadata>
 <g id="g4" transform="translate(-1.5436 -6.452)">
  <path id="rect6" fill="#fff" d="m200 100h40v40h-40z"/>
  <path id="rect8" d="m200 100h40v40h-40z" stroke="#000" stroke-width="2" fill="none"/>
 </g>
 <g id="g10" transform="translate(-1.5436 -6.452)">
  <path id="rect12" fill="#fff" d="m320 100h40v40h-40z"/>
  <path id="rect14" d="m320 100h40v40h-40z" stroke="#000" stroke-width="2" fill="none"/>
 </g>
 <g id="text16">
  <path id="path85" style="" d="m197.43 172.25v4.5839h-1.4276v-11.93h1.4276v1.3119q0.44758-0.7717 1.1267-1.1421 0.68681-0.37813 1.636-0.37813 1.5743 0 2.5543 1.2502 0.98778 1.2502 0.98778 3.2874 0 2.0373-0.98778 3.2874-0.98005 1.2502-2.5543 1.2502-0.94919 0-1.636-0.37041-0.6791-0.37814-1.1267-1.1498zm4.8308-3.0173q0-1.5666-0.64822-2.454-0.64051-0.89517-1.7672-0.89517t-1.7749 0.89517q-0.64051 0.88745-0.64051 2.454t0.64051 2.4617q0.64822 0.88746 1.7749 0.88746t1.7672-0.88746q0.64822-0.89517 0.64822-2.4617z"/>
  <path id="path87" style="" d="m207.71 163.31v8.9594h1.883q2.3846 0 3.4881-1.0804 1.1112-1.0804 1.1112-3.4109 0-2.3151-1.1112-3.3878-1.1035-1.0804-3.4881-1.0804h-1.883zm-1.5588-1.281h3.2026q3.3492 0 4.9157 1.3968 1.5666 1.389 1.5666 4.3524 0 2.9788-1.5743 4.3755-1.5743 1.3968-4.908 1.3968h-3.2026v-11.521z"/>
  <path id="path89" style="" d="m222.18 169.2q-1.7209 0-2.3846 0.39357-0.66366 0.39357-0.66366 1.3428 0 0.75626 0.49389 1.2038 0.5016 0.43987 1.3582 0.43987 1.1807 0 1.8907-0.83344 0.71768-0.84115 0.71768-2.2302v-0.3164h-1.4122zm2.8321-0.58649v4.9312h-1.4199v-1.3119q-0.48617 0.78713-1.2116 1.1653-0.72539 0.37041-1.7749 0.37041-1.3273 0-2.1144-0.74083-0.77942-0.74855-0.77942-1.9987 0-1.4585 0.97234-2.1993 0.98006-0.74083 2.917-0.74083h1.991v-0.13891q0-0.98006-0.64823-1.5125-0.64051-0.54019-1.8058-0.54019-0.74083 0-1.4431 0.17749-0.70225 0.17749-1.3505 0.53247v-1.3119q0.77941-0.30096 1.5125-0.44758 0.73311-0.15434 1.4276-0.15434 1.8752 0 2.8013 0.97234 0.92604 0.97234 0.92604 2.9479z"/>
  <path id="path91" style="" d="m229.35 162.45v2.454h2.9247v1.1035h-2.9247v4.6919q0 1.0572 0.28553 1.3582 0.29324 0.30096 1.1807 0.30096h1.4585v1.1884h-1.4585q-1.6437 0-2.2688-0.60964-0.62508-0.61736-0.62508-2.2379v-4.6919h-1.0418v-1.1035h1.0418v-2.454h1.4276z"/>
  <path id="path93" style="" d="m238.07 169.2q-1.7209 0-2.3846 0.39357-0.66366 0.39357-0.66366 1.3428 0 0.75626 0.49389 1.2038 0.5016 0.43987 1.3582 0.43987 1.1807 0 1.8907-0.83344 0.71768-0.84115 0.71768-2.2302v-0.3164h-1.4122zm2.8321-0.58649v4.9312h-1.4199v-1.3119q-0.48617 0.78713-1.2116 1.1653-0.7254 0.37041-1.7749 0.37041-1.3273 0-2.1145-0.74083-0.77941-0.74855-0.77941-1.9987 0-1.4585 0.97234-2.1993 0.98005-0.74083 2.917-0.74083h1.991v-0.13891q0-0.98006-0.64822-1.5125-0.64051-0.54019-1.8058-0.54019-0.74083 0-1.4431 0.17749-0.70224 0.17749-1.3505 0.53247v-1.3119q0.77941-0.30096 1.5125-0.44758 0.73311-0.15434 1.4276-0.15434 1.8752 0 2.8013 0.97234 0.92604 0.97234 0.92604 2.9479z"/>
 </g>
 <g id="text20">
  <path id="path96" style="" d="m325.33 123.55q-0.68792 0-1.0363 0.6791-0.34396 0.67468-0.34396 2.0329 0 1.3538 0.34396 2.0329 0.34836 0.67469 1.0363 0.67469 0.69233 0 1.0363-0.67469 0.34837-0.6791 0.34837-2.0329 0-1.3582-0.34837-2.0329-0.34395-0.6791-1.0363-0.6791zm0-0.70556q1.1068 0 1.6889 0.87754 0.5865 0.87312 0.5865 2.54 0 1.6625-0.5865 2.54-0.58208 0.87312-1.6889 0.87312t-1.6933-0.87312q-0.58209-0.87754-0.58209-2.54 0-1.6669 0.58209-2.54 0.58649-0.87754 1.6933-0.87754z"/>
 </g>
 <g id="text24">
  <path id="path99" style="" d="m333.58 107.48h9.7466v1.3119h-4.09v10.21h-1.5666v-10.21h-4.09v-1.3119z"/>
 </g>
 <g id="g28" transform="translate(-1.5436 -6.452)">
  <path id="rect30" fill="#fff" d="m360 100h40v40h-40z"/>
  <path id="rect32" d="m360 100h40v40h-40z" stroke="#000" stroke-width="2" fill="none"/>
 </g>
 <g id="text34">
  <path id="path104" style="" d="m373.58 107.48h9.7466v1.3119h-4.09v10.21h-1.5666v-10.21h-4.09v-1.3119z"/>
 </g>
 <g id="g38" transform="translate(-1.5436 -6.452)">
  <path id="rect40" fill="#fff" d="m400 100h40v40h-40z"/>
  <path id="rect42" d="m400 100h40v40h-40z" stroke="#000" stroke-width="2" fill="none"/>
 </g>
 <g id="text44">
  <path id="path109" style="" d="m413.58 107.48h9.7466v1.3119h-4.09v10.21h-1.5666v-10.21h-4.09v-1.3119z"/>
 </g>
 <g id="g48" transform="translate(-1.5436 -6.452)">
  <path id="rect50" fill="#fff" d="m440 100h40v40h-40z"/>
  <path id="rect52" d="m440 100h40v40h-40z" stroke="#000" stroke-width="2" fill="none"/>
 </g>
 <g id="text54">
  <path id="path114" style="" d="m453.58 107.48h9.7466v1.3119h-4.09v10.21h-1.5666v-10.21h-4.09v-1.3119z"/>
 </g>
 <g id="g58" transform="translate(-1.5436 -6.452)">
  <path id="rect60" fill="#fff" d="m480 100h40v40h-40z"/>
  <path id="rect62" d="m480 100h40v40h-40z" stroke="#000" stroke-width="2" fill="none"/>
 </g>
 <g id="text64">
  <path id="path119" style="" d="m493.58 107.48h9.7466v1.3119h-4.09v10.21h-1.5666v-10.21h-4.09v-1.3119z"/>
 </g>
 <g id="g68" transform="translate(-1.5436 -6.452)">
  <path id="rect70" fill="#fff" d="m520 100h40v40h-40z"/>
  <path id="rect72" d="m520 100h40v40h-40z" stroke="#000" stroke-width="2" fill="none"/>
 </g>
 <g id="g74" transform="translate(-1.5436 -6.452)">
  <path id="rect76" fill="#fff" d="m560 100h40v40h-40z"/>
  <path id="rect78" d="m560 100h40v40h-40z" stroke="#000" stroke-width="2" fill="none"/>
 </g>
 <g id="g80" transform="translate(-1.5436 -6.452)">
  <path id="rect82" fill="#fff" d="m600 100h40v40h-40z"/>
  <path id="rect84" d="m600 100h40v40h-40z" stroke="#000" stroke-width="2" fill="none"/>
 </g>
 <g id="g86" transform="translate(-1.5436 -6.452)">
  <path id="rect88" fill="#fff" d="m640 100h40v40h-40z"/>
  <path id="rect90" d="m640 100h40v40h-40z" stroke="#000" stroke-width="2" fill="none"/>
 </g>
 <g id="text92">
  <path id="path130" style="" d="m530.13 205.16v1.3428q-0.60193-0.30868-1.2502-0.46302-0.64822-0.15434-1.3428-0.15434-1.0572 0-1.5897 0.32411-0.52476 0.32411-0.52476 0.97234 0 0.49389 0.37813 0.77942 0.37814 0.27781 1.5202 0.53247l0.48617 0.10804q1.5125 0.32411 2.1453 0.91832 0.64051 0.58649 0.64051 1.6437 0 1.2038-0.95691 1.9061-0.94919 0.70224-2.6161 0.70224-0.69453 0-1.4508-0.1389-0.74854-0.13119-1.582-0.40129v-1.4662q0.78713 0.409 1.5511 0.61736 0.76398 0.20065 1.5125 0.20065 1.0032 0 1.5434-0.33955 0.54019-0.34727 0.54019-0.97234 0-0.57878-0.39356-0.88746-0.38585-0.30868-1.7055-0.59421l-0.49389-0.11575q-1.3196-0.27781-1.9061-0.84887-0.58649-0.57877-0.58649-1.582 0-1.2193 0.8643-1.883 0.8643-0.66366 2.454-0.66366 0.78714 0 1.4817 0.11575 0.69452 0.11576 1.281 0.34727z"/>
  <path id="path132" style="" d="m532.86 204.9h1.4199v8.643h-1.4199v-8.643zm0-3.3646h1.4199v1.7981h-1.4199v-1.7981z"/>
  <path id="path134" style="" d="m536.63 204.9h6.7447v1.2964l-5.3402 6.2122h5.3402v1.1344h-6.9376v-1.2965l5.3402-6.2122h-5.1472v-1.1344z"/>
  <path id="path136" style="" d="m552.94 208.87v0.69453h-6.5286q0.0926 1.4662 0.87974 2.2379 0.79485 0.76398 2.2071 0.76398 0.818 0 1.582-0.20064 0.7717-0.20064 1.528-0.60193v1.3428q-0.76399 0.32411-1.5666 0.49389-0.80257 0.16977-1.6283 0.16977-2.0682 0-3.2797-1.2038-1.2038-1.2038-1.2038-3.2566 0-2.1222 1.1421-3.3646 1.1498-1.2502 3.0945-1.2502 1.744 0 2.755 1.1267 1.0186 1.119 1.0186 3.0482zm-1.4199-0.41672q-0.0154-1.1653-0.65594-1.8598-0.6328-0.69453-1.6823-0.69453-1.1884 0-1.9061 0.67138-0.70996 0.67138-0.818 1.8907l5.0624-0.008z"/>
 </g>
 <g id="text96">
  <path id="path139" style="" d="m672.78 205.24v1.3273q-0.60193-0.33183-1.2116-0.49389-0.60193-0.16977-1.2193-0.16977-1.3813 0-2.1453 0.87974-0.76398 0.87202-0.76398 2.454t0.76398 2.4617q0.76398 0.87202 2.1453 0.87202 0.61736 0 1.2193-0.16206 0.60964-0.16977 1.2116-0.5016v1.3119q-0.59421 0.27781-1.2347 0.41672-0.63279 0.1389-1.3505 0.1389-1.9524 0-3.1022-1.227t-1.1498-3.3106q0-2.1145 1.1576-3.326 1.1653-1.2116 3.1871-1.2116 0.65594 0 1.281 0.1389 0.62508 0.13119 1.2116 0.40129z"/>
  <path id="path141" style="" d="m679.19 209.2q-1.7209 0-2.3846 0.39357-0.66366 0.39357-0.66366 1.3428 0 0.75626 0.49388 1.2038 0.50161 0.43987 1.3582 0.43987 1.1807 0 1.8907-0.83344 0.71768-0.84115 0.71768-2.2302v-0.3164h-1.4122zm2.8321-0.58649v4.9312h-1.4199v-1.3119q-0.48617 0.78713-1.2116 1.1653-0.7254 0.37041-1.7749 0.37041-1.3273 0-2.1144-0.74083-0.77942-0.74855-0.77942-1.9987 0-1.4585 0.97234-2.1993 0.98006-0.74083 2.917-0.74083h1.991v-0.13891q0-0.98006-0.64823-1.5125-0.64051-0.54019-1.8058-0.54019-0.74083 0-1.4431 0.17749-0.70225 0.17749-1.3505 0.53247v-1.3119q0.77942-0.30096 1.5125-0.44758 0.73312-0.15434 1.4276-0.15434 1.8752 0 2.8013 0.97234 0.92604 0.97234 0.92604 2.9479z"/>
  <path id="path143" style="" d="m686.33 212.25v4.5839h-1.4276v-11.93h1.4276v1.3119q0.44759-0.7717 1.1267-1.1421 0.68681-0.37813 1.636-0.37813 1.5743 0 2.5543 1.2502 0.98778 1.2502 0.98778 3.2874 0 2.0373-0.98778 3.2874-0.98006 1.2502-2.5543 1.2502-0.94919 0-1.636-0.37041-0.6791-0.37814-1.1267-1.1498zm4.8308-3.0173q0-1.5666-0.64823-2.454-0.64051-0.89517-1.7672-0.89517t-1.7749 0.89517q-0.64051 0.88745-0.64051 2.454t0.64051 2.4617q0.64823 0.88746 1.7749 0.88746t1.7672-0.88746q0.64823-0.89517 0.64823-2.4617z"/>
  <path id="path145" style="" d="m698.92 209.2q-1.7209 0-2.3846 0.39357-0.66366 0.39357-0.66366 1.3428 0 0.75626 0.49389 1.2038 0.5016 0.43987 1.3582 0.43987 1.1807 0 1.8907-0.83344 0.71768-0.84115 0.71768-2.2302v-0.3164h-1.4122zm2.8321-0.58649v4.9312h-1.4199v-1.3119q-0.48617 0.78713-1.2116 1.1653-0.7254 0.37041-1.7749 0.37041-1.3273 0-2.1144-0.74083-0.77942-0.74855-0.77942-1.9987 0-1.4585 0.97234-2.1993 0.98006-0.74083 2.917-0.74083h1.991v-0.13891q0-0.98006-0.64823-1.5125-0.64051-0.54019-1.8058-0.54019-0.74084 0-1.4431 0.17749-0.70225 0.17749-1.3505 0.53247v-1.3119q0.77942-0.30096 1.5125-0.44758 0.73311-0.15434 1.4276-0.15434 1.8752 0 2.8013 0.97234 0.92604 0.97234 0.92604 2.9479z"/>
  <path id="path147" style="" d="m710.9 205.24v1.3273q-0.60193-0.33183-1.2116-0.49389-0.60193-0.16977-1.2193-0.16977-1.3814 0-2.1453 0.87974-0.76398 0.87202-0.76398 2.454t0.76398 2.4617q0.76398 0.87202 2.1453 0.87202 0.61735 0 1.2193-0.16206 0.60964-0.16977 1.2116-0.5016v1.3119q-0.59421 0.27781-1.2347 0.41672-0.63279 0.1389-1.3505 0.1389-1.9524 0-3.1022-1.227t-1.1498-3.3106q0-2.1145 1.1576-3.326 1.1653-1.2116 3.1871-1.2116 0.65594 0 1.281 0.1389 0.62508 0.13119 1.2116 0.40129z"/>
  <path id="path149" style="" d="m713.39 204.9h1.4199v8.643h-1.4199v-8.643zm0-3.3646h1.4199v1.7981h-1.4199v-1.7981z"/>
  <path id="path151" style="" d="m719.18 202.45v2.454h2.9247v1.1035h-2.9247v4.6919q0 1.0572 0.28553 1.3582 0.29325 0.30096 1.1807 0.30096h1.4585v1.1884h-1.4585q-1.6437 0-2.2688-0.60964-0.62508-0.61736-0.62508-2.2379v-4.6919h-1.0418v-1.1035h1.0418v-2.454h1.4276z"/>
  <path id="path153" style="" d="m727.57 214.35q-0.60192 1.5434-1.173 2.0141-0.57106 0.47074-1.528 0.47074h-1.1344v-1.1884h0.83343q0.58649 0 0.91061-0.27781 0.32411-0.27781 0.71768-1.3119l0.25466-0.64823-3.4958-8.5041h1.5048l2.701 6.7601 2.701-6.7601h1.5048l-3.7968 9.4456z"/>
 </g>
 <g id="g100" stroke="#000" stroke-width="2" fill="none" transform="translate(-1.5436 -6.452)">
  <path id="line102" d="m540 200v-35.528"/>
  <path id="polyline104" d="m545 172.24-5-10-5 10"/>
 </g>
 <g id="g106" stroke="#000" stroke-width="2" fill="none" transform="translate(-1.5436 -6.452)">
  <path id="line108" d="m700 200v-35.528"/>
  <path id="polyline110" d="m705 172.24-5-10-5 10"/>
 </g>
 <g id="g112" stroke="#000" stroke-width="2" fill="none" transform="translate(-1.5436 -6.452)">
  <path id="line114" d="m240 120h75.528"/>
  <path id="polyline116" d="m307.76 125 10-5-10-5"/>
 </g>
 <g id="text118">
  <path id="path162" style="" d="m363.58 128.8h1.4552v-5.0227l-1.5831 0.3175v-0.81138l1.5743-0.3175h0.89076v5.8341h1.4552v0.74965h-3.7924v-0.74965z"/>
 </g>
 <g id="text122">
  <path id="path165" style="" d="m404.19 128.8h3.1089v0.74965h-4.1804v-0.74965q0.50712-0.52476 1.3802-1.4067 0.87754-0.88636 1.1024-1.1421 0.42775-0.48066 0.59532-0.81139 0.17197-0.33514 0.17197-0.65705 0-0.52476-0.37041-0.85549-0.36601-0.33072-0.95691-0.33072-0.41893 0-0.88636 0.14552-0.46302 0.14552-0.99218 0.44097v-0.89958q0.53798-0.21608 1.0054-0.32632 0.46743-0.11025 0.85549-0.11025 1.023 0 1.6316 0.51153 0.60854 0.51153 0.60854 1.367 0 0.4057-0.15434 0.77171-0.14993 0.36159-0.55122 0.85548-0.11024 0.12788-0.70114 0.74083-0.59091 0.60855-1.6669 1.7066z"/>
 </g>
 <g id="text126">
  <path id="path168" style="" d="m446.12 126q0.63941 0.1367 0.9966 0.56886 0.36159 0.43215 0.36159 1.0672 0 0.97455-0.67027 1.5081-0.67028 0.53357-1.905 0.53357-0.41452 0-0.85549-0.0838-0.43656-0.0794-0.90399-0.24254v-0.85989q0.37041 0.21607 0.81139 0.32632 0.44097 0.11024 0.92163 0.11024 0.83785 0 1.2744-0.33073 0.44097-0.33073 0.44097-0.96132 0-0.58208-0.4101-0.9084-0.4057-0.33073-1.1333-0.33073h-0.76729v-0.73202h0.80257q0.65704 0 1.0054-0.26017 0.34837-0.26458 0.34837-0.75847 0-0.50712-0.3616-0.77611-0.35718-0.2734-1.0275-0.2734-0.36601 0-0.78493 0.0794-0.41893 0.0794-0.92163 0.24694v-0.79375q0.50711-0.14111 0.94809-0.21166 0.44538-0.0706 0.83784-0.0706 1.0142 0 1.6051 0.46302 0.5909 0.45861 0.5909 1.2435 0 0.54681-0.31309 0.92605-0.31309 0.37482-0.89076 0.52034z"/>
 </g>
 <g id="text130">
  <path id="path171" style="" d="m485.87 123.74-2.249 3.5145h2.249v-3.5145zm-0.23372-0.77611h1.1201v4.2906h0.93927v0.74084h-0.93927v1.5522h-0.88635v-1.5522h-2.9722v-0.8599l2.7384-4.1716z"/>
 </g>
 <g id="text134">
  <path id="path174" style="" d="m523.43 122.96h3.4969v0.74965h-2.6811v1.614q0.19403-0.0662 0.38805-0.097 0.19403-0.0353 0.38806-0.0353 1.1024 0 1.7462 0.60414 0.64382 0.60413 0.64382 1.636 0 1.0628-0.66146 1.6536-0.66146 0.58649-1.8653 0.58649-0.41452 0-0.84667-0.0706-0.42774-0.0706-0.88635-0.21167v-0.89517q0.39687 0.21607 0.82021 0.32191 0.42333 0.10583 0.89517 0.10583 0.76288 0 1.2083-0.40129 0.44538-0.40128 0.44538-1.0892 0-0.68791-0.44538-1.0892-0.44538-0.40128-1.2083-0.40128-0.35719 0-0.71438 0.0794-0.35277 0.0794-0.72319 0.24695v-3.3073z"/>
 </g>
 <g id="text138">
  <path id="path177" style="" d="m565.44 125.9q-0.59972 0-0.9525 0.4101-0.34837 0.41011-0.34837 1.1245 0 0.70997 0.34837 1.1245 0.35278 0.41011 0.9525 0.41011t0.94809-0.41011q0.35278-0.41451 0.35278-1.1245 0-0.71437-0.35278-1.1245-0.34837-0.4101-0.94809-0.4101zm1.7683-2.7914v0.81138q-0.33514-0.15875-0.6791-0.24253-0.33954-0.0838-0.67468-0.0838-0.88195 0-1.3494 0.59531-0.46302 0.59531-0.52916 1.7992 0.26017-0.38364 0.65263-0.58649 0.39247-0.20726 0.86431-0.20726 0.99219 0 1.5654 0.60414 0.57767 0.59972 0.57767 1.636 0 1.0142-0.59972 1.6272-0.59972 0.61295-1.5963 0.61295-1.1421 0-1.7462-0.87312-0.60413-0.87754-0.60413-2.54 0-1.561 0.74083-2.4871 0.74084-0.93045 1.9888-0.93045 0.33514 0 0.67469 0.0661 0.34395 0.0661 0.71437 0.19844z"/>
 </g>
 <g id="text142">
  <path id="path180" style="" d="m603.2 122.96h4.2333v0.37923l-2.3901 6.2045h-0.93045l2.249-5.8341h-3.1618v-0.74965z"/>
 </g>
 <g id="text146">
  <path id="path183" style="" d="m645.33 126.42q-0.635 0-1.001 0.33955-0.36159 0.33954-0.36159 0.93486 0 0.59531 0.36159 0.93486 0.36601 0.33955 1.001 0.33955 0.635 0 1.001-0.33955 0.366-0.34396 0.366-0.93486 0-0.59532-0.366-0.93486-0.3616-0.33955-1.001-0.33955zm-0.89076-0.37924q-0.57327-0.14111-0.89518-0.53358-0.3175-0.39246-0.3175-0.95691 0-0.78934 0.56004-1.248 0.56444-0.45861 1.5434-0.45861 0.98337 0 1.5434 0.45861 0.56004 0.45861 0.56004 1.248 0 0.56445-0.32191 0.95691-0.3175 0.39247-0.88636 0.53358 0.64382 0.14993 1.001 0.58649 0.3616 0.43657 0.3616 1.0672 0 0.95691-0.5865 1.4684-0.58208 0.51153-1.6713 0.51153t-1.6757-0.51153q-0.58209-0.51152-0.58209-1.4684 0-0.63059 0.3616-1.0672 0.3616-0.43656 1.0054-0.58649zm-0.32632-1.4067q0 0.51153 0.3175 0.79816 0.32191 0.28663 0.89958 0.28663 0.57326 0 0.89517-0.28663 0.32632-0.28663 0.32632-0.79816t-0.32632-0.79816q-0.32191-0.28663-0.89517-0.28663-0.57767 0-0.89958 0.28663-0.3175 0.28663-0.3175 0.79816z"/>
 </g>
</svg>
