<?xml version="1.0" encoding="UTF-8" standalone="no"?>
<svg
   xmlns:dc="http://purl.org/dc/elements/1.1/"
   xmlns:cc="http://creativecommons.org/ns#"
   xmlns:rdf="http://www.w3.org/1999/02/22-rdf-syntax-ns#"
   xmlns:svg="http://www.w3.org/2000/svg"
   xmlns="http://www.w3.org/2000/svg"
   xmlns:sodipodi="http://sodipodi.sourceforge.net/DTD/sodipodi-0.dtd"
   xmlns:inkscape="http://www.inkscape.org/namespaces/inkscape"
   version="1.1"
   id="svg2"
   viewBox="299 99 301.60057 188.11253"
   height="9.9530439cm"
   width="15.978838cm"
   inkscape:version="0.91 r13725"
   sodipodi:docname="okosptr.svg">
  <sodipodi:namedview
     pagecolor="#ffffff"
     bordercolor="#666666"
     borderopacity="1"
     objecttolerance="10"
     gridtolerance="10"
     guidetolerance="10"
     inkscape:pageopacity="0"
     inkscape:pageshadow="2"
     inkscape:window-width="640"
     inkscape:window-height="480"
     id="namedview52"
     showgrid="false"
     inkscape:zoom="0.66604444"
     inkscape:cx="283.09015"
     inkscape:cy="175.50153"
     inkscape:window-x="0"
     inkscape:window-y="25"
     inkscape:window-maximized="0"
     inkscape:current-layer="svg2" />
  <metadata
     id="metadata102">
    <rdf:RDF>
      <cc:Work
         rdf:about="">
        <dc:format>image/svg+xml</dc:format>
        <dc:type
           rdf:resource="http://purl.org/dc/dcmitype/StillImage" />
      </cc:Work>
    </rdf:RDF>
  </metadata>
  <defs
     id="defs100" />
  <g
     id="g4"
     transform="translate(-0.19971569,0)">
    <path
       style="fill:#ffffff"
       d="m 300,100 100,0 0,80 -100,0 z"
       id="rect6" />
    <path
       style="fill:none;fill-opacity:0;stroke:#000000;stroke-width:2"
       d="m 300,100 100,0 0,80 -100,0 z"
       id="rect8" />
  </g>
  <g
     style="font-style:normal;font-weight:normal;font-size:12.80000019px;font-family:sans-serif;text-anchor:middle;fill:#000000"
     id="text10">
    <path
       d="m 331.95029,126.725 1.15625,0 0,5.74375 3.43125,-3.01875 1.46875,0 -3.7125,3.275 3.86875,3.725 -1.5,0 -3.55625,-3.41875 0,3.41875 -1.15625,0 0,-9.725 z"
       style=""
       id="path57" />
    <path
       d="m 344.95654,132.6625 0,0.5625 -5.2875,0 q 0.075,1.1875 0.7125,1.8125 0.64375,0.61875 1.7875,0.61875 0.6625,0 1.28125,-0.1625 0.625,-0.1625 1.2375,-0.4875 l 0,1.0875 q -0.61875,0.2625 -1.26875,0.4 -0.65,0.1375 -1.31875,0.1375 -1.675,0 -2.65625,-0.975 -0.975,-0.975 -0.975,-2.6375 0,-1.71875 0.925,-2.725 0.93125,-1.0125 2.50625,-1.0125 1.4125,0 2.23125,0.9125 0.825,0.90625 0.825,2.46875 z m -1.15,-0.3375 q -0.0125,-0.94375 -0.53125,-1.50625 -0.5125,-0.5625 -1.3625,-0.5625 -0.9625,0 -1.54375,0.54375 -0.575,0.54375 -0.6625,1.53125 l 4.1,-0.006 z"
       style=""
       id="path59" />
    <path
       d="m 346.34404,129.45 5.4625,0 0,1.05 -4.325,5.03125 4.325,0 0,0.91875 -5.61875,0 0,-1.05 4.325,-5.03125 -4.16875,0 0,-0.91875 z"
       style=""
       id="path61" />
    <path
       d="m 359.55654,132.6625 0,0.5625 -5.2875,0 q 0.075,1.1875 0.7125,1.8125 0.64375,0.61875 1.7875,0.61875 0.6625,0 1.28125,-0.1625 0.625,-0.1625 1.2375,-0.4875 l 0,1.0875 q -0.61875,0.2625 -1.26875,0.4 -0.65,0.1375 -1.31875,0.1375 -1.675,0 -2.65625,-0.975 -0.975,-0.975 -0.975,-2.6375 0,-1.71875 0.925,-2.725 0.93125,-1.0125 2.50625,-1.0125 1.4125,0 2.23125,0.9125 0.825,0.90625 0.825,2.46875 z m -1.15,-0.3375 q -0.0125,-0.94375 -0.53125,-1.50625 -0.5125,-0.5625 -1.3625,-0.5625 -0.9625,0 -1.54375,0.54375 -0.575,0.54375 -0.6625,1.53125 l 4.1,-0.006 z"
       style=""
       id="path63" />
    <path
       d="m 361.44404,126.725 1.15,0 0,9.725 -1.15,0 0,-9.725 z"
       style=""
       id="path65" />
    <path
       d="m 366.13154,127.4625 0,1.9875 2.36875,0 0,0.89375 -2.36875,0 0,3.8 q 0,0.85625 0.23125,1.1 0.2375,0.24375 0.95625,0.24375 l 1.18125,0 0,0.9625 -1.18125,0 q -1.33125,0 -1.8375,-0.49375 -0.50625,-0.5 -0.50625,-1.8125 l 0,-3.8 -0.84375,0 0,-0.89375 0.84375,0 0,-1.9875 1.15625,0 z"
       style=""
       id="path67" />
    <path
       d="m 323.50654,146.25625 q -0.925,0 -1.4625,0.725 -0.5375,0.71875 -0.5375,1.975 0,1.25625 0.53125,1.98125 0.5375,0.71875 1.46875,0.71875 0.91875,0 1.45625,-0.725 0.5375,-0.725 0.5375,-1.975 0,-1.24375 -0.5375,-1.96875 -0.5375,-0.73125 -1.45625,-0.73125 z m 0,-0.975 q 1.5,0 2.35625,0.975 0.85625,0.975 0.85625,2.7 0,1.71875 -0.85625,2.7 -0.85625,0.975 -2.35625,0.975 -1.50625,0 -2.3625,-0.975 -0.85,-0.98125 -0.85,-2.7 0,-1.725 0.85,-2.7 0.85625,-0.975 2.3625,-0.975 z"
       style=""
       id="path69" />
    <path
       d="m 333.64404,148.95625 q 0,-1.26875 -0.525,-1.9875 -0.51875,-0.725 -1.43125,-0.725 -0.9125,0 -1.4375,0.725 -0.51875,0.71875 -0.51875,1.9875 0,1.26875 0.51875,1.99375 0.525,0.71875 1.4375,0.71875 0.9125,0 1.43125,-0.71875 0.525,-0.725 0.525,-1.99375 z m -3.9125,-2.44375 q 0.3625,-0.625 0.9125,-0.925 0.55625,-0.30625 1.325,-0.30625 1.275,0 2.06875,1.0125 0.8,1.0125 0.8,2.6625 0,1.65 -0.8,2.6625 -0.79375,1.0125 -2.06875,1.0125 -0.76875,0 -1.325,-0.3 -0.55,-0.30625 -0.9125,-0.93125 l 0,1.05 -1.15625,0 0,-9.725 1.15625,0 0,3.7875 z"
       style=""
       id="path71" />
    <path
       d="m 336.74404,145.45 1.15,0 0,7.125 q 0,1.3375 -0.5125,1.9375 -0.50625,0.6 -1.6375,0.6 l -0.4375,0 0,-0.975 0.30625,0 q 0.65625,0 0.89375,-0.30625 0.2375,-0.3 0.2375,-1.25625 l 0,-7.125 z m 0,-2.725 1.15,0 0,1.45625 -1.15,0 0,-1.45625 z"
       style=""
       id="path73" />
    <path
       d="m 346.28154,148.6625 0,0.5625 -5.2875,0 q 0.075,1.1875 0.7125,1.8125 0.64375,0.61875 1.7875,0.61875 0.6625,0 1.28125,-0.1625 0.625,-0.1625 1.2375,-0.4875 l 0,1.0875 q -0.61875,0.2625 -1.26875,0.4 -0.65,0.1375 -1.31875,0.1375 -1.675,0 -2.65625,-0.975 -0.975,-0.975 -0.975,-2.6375 0,-1.71875 0.925,-2.725 0.93125,-1.0125 2.50625,-1.0125 1.4125,0 2.23125,0.9125 0.825,0.90625 0.825,2.46875 z m -1.15,-0.3375 q -0.0125,-0.94375 -0.53125,-1.50625 -0.5125,-0.5625 -1.3625,-0.5625 -0.9625,0 -1.54375,0.54375 -0.575,0.54375 -0.6625,1.53125 l 4.1,-0.006 z"
       style=""
       id="path75" />
    <path
       d="m 348.12529,142.725 1.15625,0 0,5.74375 3.43125,-3.01875 1.46875,0 -3.7125,3.275 3.86875,3.725 -1.5,0 -3.55625,-3.41875 0,3.41875 -1.15625,0 0,-9.725 z"
       style=""
       id="path77" />
    <path
       d="m 356.73154,143.4625 0,1.9875 2.36875,0 0,0.89375 -2.36875,0 0,3.8 q 0,0.85625 0.23125,1.1 0.2375,0.24375 0.95625,0.24375 l 1.18125,0 0,0.9625 -1.18125,0 q -1.33125,0 -1.8375,-0.49375 -0.50625,-0.5 -0.50625,-1.8125 l 0,-3.8 -0.84375,0 0,-0.89375 0.84375,0 0,-1.9875 1.15625,0 z"
       style=""
       id="path79" />
    <path
       d="m 360.50029,149.6875 0,-4.2375 1.15,0 0,4.19375 q 0,0.99375 0.3875,1.49375 0.3875,0.49375 1.1625,0.49375 0.93125,0 1.46875,-0.59375 0.54375,-0.59375 0.54375,-1.61875 l 0,-3.96875 1.15,0 0,7 -1.15,0 0,-1.075 q -0.41875,0.6375 -0.975,0.95 -0.55,0.30625 -1.28125,0.30625 -1.20625,0 -1.83125,-0.75 -0.625,-0.75 -0.625,-2.19375 z m 2.89375,-4.40625 0,0 z"
       style=""
       id="path81" />
    <path
       d="m 374.19404,146.79375 q 0.43125,-0.775 1.03125,-1.14375 0.6,-0.36875 1.4125,-0.36875 1.09375,0 1.6875,0.76875 0.59375,0.7625 0.59375,2.175 l 0,4.225 -1.15625,0 0,-4.1875 q 0,-1.00625 -0.35625,-1.49375 -0.35625,-0.4875 -1.0875,-0.4875 -0.89375,0 -1.4125,0.59375 -0.51875,0.59375 -0.51875,1.61875 l 0,3.95625 -1.15625,0 0,-4.1875 q 0,-1.0125 -0.35625,-1.49375 -0.35625,-0.4875 -1.1,-0.4875 -0.88125,0 -1.4,0.6 -0.51875,0.59375 -0.51875,1.6125 l 0,3.95625 -1.15625,0 0,-7 1.15625,0 0,1.0875 q 0.39375,-0.64375 0.94375,-0.95 0.55,-0.30625 1.30625,-0.30625 0.7625,0 1.29375,0.3875 0.5375,0.3875 0.79375,1.125 z"
       style=""
       id="path83" />
  </g>
  <g
     id="g16"
     transform="translate(-0.19971569,0)">
    <path
       style="fill:#ffffff"
       d="m 300,240 50,0 0,20 -50,0 z"
       id="rect18" />
    <path
       style="fill:none;fill-opacity:0;stroke:#000000;stroke-width:2"
       d="m 300,240 50,0 0,20 -50,0 z"
       id="rect20" />
  </g>
  <g
     id="g22"
     transform="translate(-0.19971569,0)">
    <path
       style="fill:none;fill-opacity:0;stroke:#000000;stroke-width:2"
       d="M 327.496,239.01601 339.69199,185.356"
       id="line24" />
    <path
       style="fill:none;fill-opacity:0;stroke:#000000;stroke-width:2"
       d="m 342.847,194.035 -2.66,-10.86 -7.091,8.644"
       id="polyline26" />
  </g>
  <g
     id="g28"
     transform="translate(-0.19971569,0)">
    <path
       style="fill:none;fill-opacity:0;stroke:#000000;stroke-width:2"
       d="m 507.526,239.01601 -102.76901,-64.597"
       id="line30" />
    <path
       style="fill:none;fill-opacity:0;stroke:#000000;stroke-width:2"
       d="m 413.991,174.317 -11.127,-1.088 5.805,9.554"
       id="polyline32" />
  </g>
  <g
     id="g34"
     transform="translate(-0.19971569,0)">
    <path
       style="fill:#ffffff"
       d="m 510,110 80,0 0,60 -80,0 z"
       id="rect36" />
    <path
       style="fill:none;fill-opacity:0;stroke:#000000;stroke-width:2"
       d="m 510,110 80,0 0,60 -80,0 z"
       id="rect38" />
  </g>
  <g
     style="font-style:normal;font-weight:normal;font-size:12.80000019px;font-family:sans-serif;text-anchor:middle;fill:#000000"
     id="text40">
    <path
       d="m 532.95029,118.725 1.15625,0 0,5.74375 3.43125,-3.01875 1.46875,0 -3.7125,3.275 3.86875,3.725 -1.5,0 -3.55625,-3.41875 0,3.41875 -1.15625,0 0,-9.725 z"
       style=""
       id="path94" />
    <path
       d="m 542.68154,122.25625 q -0.925,0 -1.4625,0.725 -0.5375,0.71875 -0.5375,1.975 0,1.25625 0.53125,1.98125 0.5375,0.71875 1.46875,0.71875 0.91875,0 1.45625,-0.725 0.5375,-0.725 0.5375,-1.975 0,-1.24375 -0.5375,-1.96875 -0.5375,-0.73125 -1.45625,-0.73125 z m 0,-0.975 q 1.5,0 2.35625,0.975 0.85625,0.975 0.85625,2.7 0,1.71875 -0.85625,2.7 -0.85625,0.975 -2.35625,0.975 -1.50625,0 -2.3625,-0.975 -0.85,-0.98125 -0.85,-2.7 0,-1.725 0.85,-2.7 0.85625,-0.975 2.3625,-0.975 z m 0.5875,-2.53125 1.26875,0 0,1.2625 -1.26875,0 0,-1.2625 z m -2.44375,0 1.26875,0 0,1.2625 -1.26875,0 0,-1.2625 z"
       style=""
       id="path96" />
    <path
       d="m 547.29404,121.45 5.4625,0 0,1.05 -4.325,5.03125 4.325,0 0,0.91875 -5.61875,0 0,-1.05 4.325,-5.03125 -4.16875,0 0,-0.91875 z"
       style=""
       id="path98" />
    <path
       d="m 557.23154,122.25625 q -0.925,0 -1.4625,0.725 -0.5375,0.71875 -0.5375,1.975 0,1.25625 0.53125,1.98125 0.5375,0.71875 1.46875,0.71875 0.91875,0 1.45625,-0.725 0.5375,-0.725 0.5375,-1.975 0,-1.24375 -0.5375,-1.96875 -0.5375,-0.73125 -1.45625,-0.73125 z m 0,-0.975 q 1.5,0 2.35625,0.975 0.85625,0.975 0.85625,2.7 0,1.71875 -0.85625,2.7 -0.85625,0.975 -2.35625,0.975 -1.50625,0 -2.3625,-0.975 -0.85,-0.98125 -0.85,-2.7 0,-1.725 0.85,-2.7 0.85625,-0.975 2.3625,-0.975 z m 0.5875,-2.53125 1.26875,0 0,1.2625 -1.26875,0 0,-1.2625 z m -2.44375,0 1.26875,0 0,1.2625 -1.26875,0 0,-1.2625 z"
       style=""
       id="path100" />
    <path
       d="m 566.80654,121.65625 0,1.0875 q -0.4875,-0.25 -1.0125,-0.375 -0.525,-0.125 -1.0875,-0.125 -0.85625,0 -1.2875,0.2625 -0.425,0.2625 -0.425,0.7875 0,0.4 0.30625,0.63125 0.30625,0.225 1.23125,0.43125 l 0.39375,0.0875 q 1.225,0.2625 1.7375,0.74375 0.51875,0.475 0.51875,1.33125 0,0.975 -0.775,1.54375 -0.76875,0.56875 -2.11875,0.56875 -0.5625,0 -1.175,-0.1125 -0.60625,-0.10625 -1.28125,-0.325 l 0,-1.1875 q 0.6375,0.33125 1.25625,0.5 0.61875,0.1625 1.225,0.1625 0.8125,0 1.25,-0.275 0.4375,-0.28125 0.4375,-0.7875 0,-0.46875 -0.31875,-0.71875 -0.3125,-0.25 -1.38125,-0.48125 l -0.4,-0.0937 q -1.06875,-0.225 -1.54375,-0.6875 -0.475,-0.46875 -0.475,-1.28125 0,-0.9875 0.7,-1.525 0.7,-0.5375 1.9875,-0.5375 0.6375,0 1.2,0.0937 0.5625,0.0937 1.0375,0.28125 z"
       style=""
       id="path102" />
    <path
       d="m 527.21904,137.65625 0,1.0875 q -0.4875,-0.25 -1.0125,-0.375 -0.525,-0.125 -1.0875,-0.125 -0.85625,0 -1.2875,0.2625 -0.425,0.2625 -0.425,0.7875 0,0.4 0.30625,0.63125 0.30625,0.225 1.23125,0.43125 l 0.39375,0.0875 q 1.225,0.2625 1.7375,0.74375 0.51875,0.475 0.51875,1.33125 0,0.975 -0.775,1.54375 -0.76875,0.56875 -2.11875,0.56875 -0.5625,0 -1.175,-0.1125 -0.60625,-0.10625 -1.28125,-0.325 l 0,-1.1875 q 0.6375,0.33125 1.25625,0.5 0.61875,0.1625 1.225,0.1625 0.8125,0 1.25,-0.275 0.4375,-0.28125 0.4375,-0.7875 0,-0.46875 -0.31875,-0.71875 -0.3125,-0.25 -1.38125,-0.48125 l -0.4,-0.0937 q -1.06875,-0.225 -1.54375,-0.6875 -0.475,-0.46875 -0.475,-1.28125 0,-0.9875 0.7,-1.525 0.7,-0.5375 1.9875,-0.5375 0.6375,0 1.2,0.0937 0.5625,0.0937 1.0375,0.28125 z"
       style=""
       id="path104" />
    <path
       d="m 528.93154,137.45 5.4625,0 0,1.05 -4.325,5.03125 4.325,0 0,0.91875 -5.61875,0 0,-1.05 4.325,-5.03125 -4.16875,0 0,-0.91875 z"
       style=""
       id="path106" />
    <path
       d="m 539.33779,140.93125 q -1.39375,0 -1.93125,0.31875 -0.5375,0.31875 -0.5375,1.0875 0,0.6125 0.4,0.975 0.40625,0.35625 1.1,0.35625 0.95625,0 1.53125,-0.675 0.58125,-0.68125 0.58125,-1.80625 l 0,-0.25625 -1.14375,0 z m 2.29375,-0.475 0,3.99375 -1.15,0 0,-1.0625 q -0.39375,0.6375 -0.98125,0.94375 -0.5875,0.3 -1.4375,0.3 -1.075,0 -1.7125,-0.6 -0.63125,-0.60625 -0.63125,-1.61875 0,-1.18125 0.7875,-1.78125 0.79375,-0.6 2.3625,-0.6 l 1.6125,0 0,-0.1125 q 0,-0.79375 -0.525,-1.225 -0.51875,-0.4375 -1.4625,-0.4375 -0.6,0 -1.16875,0.14375 -0.56875,0.14375 -1.09375,0.43125 l 0,-1.0625 q 0.63125,-0.24375 1.225,-0.3625 0.59375,-0.125 1.15625,-0.125 1.51875,0 2.26875,0.7875 0.75,0.7875 0.75,2.3875 z m -2.1,-6.24375 1.24375,0 -2.0375,2.35 -0.95625,0 1.75,-2.35 z"
       style=""
       id="path108" />
    <path
       d="m 549.45654,138.79375 q 0.43125,-0.775 1.03125,-1.14375 0.6,-0.36875 1.4125,-0.36875 1.09375,0 1.6875,0.76875 0.59375,0.7625 0.59375,2.175 l 0,4.225 -1.15625,0 0,-4.1875 q 0,-1.00625 -0.35625,-1.49375 -0.35625,-0.4875 -1.0875,-0.4875 -0.89375,0 -1.4125,0.59375 -0.51875,0.59375 -0.51875,1.61875 l 0,3.95625 -1.15625,0 0,-4.1875 q 0,-1.0125 -0.35625,-1.49375 -0.35625,-0.4875 -1.1,-0.4875 -0.88125,0 -1.4,0.6 -0.51875,0.59375 -0.51875,1.6125 l 0,3.95625 -1.15625,0 0,-7 1.15625,0 0,1.0875 q 0.39375,-0.64375 0.94375,-0.95 0.55,-0.30625 1.30625,-0.30625 0.7625,0 1.29375,0.3875 0.5375,0.3875 0.79375,1.125 z"
       style=""
       id="path110" />
    <path
       d="m 556.48154,134.725 1.15,0 0,9.725 -1.15,0 0,-9.725 z"
       style=""
       id="path112" />
    <path
       d="m 563.21279,140.93125 q -1.39375,0 -1.93125,0.31875 -0.5375,0.31875 -0.5375,1.0875 0,0.6125 0.4,0.975 0.40625,0.35625 1.1,0.35625 0.95625,0 1.53125,-0.675 0.58125,-0.68125 0.58125,-1.80625 l 0,-0.25625 -1.14375,0 z m 2.29375,-0.475 0,3.99375 -1.15,0 0,-1.0625 q -0.39375,0.6375 -0.98125,0.94375 -0.5875,0.3 -1.4375,0.3 -1.075,0 -1.7125,-0.6 -0.63125,-0.60625 -0.63125,-1.61875 0,-1.18125 0.7875,-1.78125 0.79375,-0.6 2.3625,-0.6 l 1.6125,0 0,-0.1125 q 0,-0.79375 -0.525,-1.225 -0.51875,-0.4375 -1.4625,-0.4375 -0.6,0 -1.16875,0.14375 -0.56875,0.14375 -1.09375,0.43125 l 0,-1.0625 q 0.63125,-0.24375 1.225,-0.3625 0.59375,-0.125 1.15625,-0.125 1.51875,0 2.26875,0.7875 0.75,0.7875 0.75,2.3875 z m -2.1,-6.24375 1.24375,0 -2.0375,2.35 -0.95625,0 1.75,-2.35 z"
       style=""
       id="path114" />
    <path
       d="m 567.88154,134.725 1.15,0 0,9.725 -1.15,0 0,-9.725 z"
       style=""
       id="path116" />
    <path
       d="m 574.14404,138.25625 q -0.925,0 -1.4625,0.725 -0.5375,0.71875 -0.5375,1.975 0,1.25625 0.53125,1.98125 0.5375,0.71875 1.46875,0.71875 0.91875,0 1.45625,-0.725 0.5375,-0.725 0.5375,-1.975 0,-1.24375 -0.5375,-1.96875 -0.5375,-0.73125 -1.45625,-0.73125 z m 0,-0.975 q 1.5,0 2.35625,0.975 0.85625,0.975 0.85625,2.7 0,1.71875 -0.85625,2.7 -0.85625,0.975 -2.35625,0.975 -1.50625,0 -2.3625,-0.975 -0.85,-0.98125 -0.85,-2.7 0,-1.725 0.85,-2.7 0.85625,-0.975 2.3625,-0.975 z m 0.86875,-3.06875 1.24375,0 -2.0375,2.35 -0.95625,0 1.75,-2.35 z"
       style=""
       id="path118" />
    <path
       d="m 548.18154,159.3875 4.40625,0 0,1.0625 -5.925,0 0,-1.0625 q 0.71875,-0.74375 1.95625,-1.99375 1.24375,-1.25625 1.5625,-1.61875 0.60625,-0.68125 0.84375,-1.15 0.24375,-0.475 0.24375,-0.93125 0,-0.74375 -0.525,-1.2125 -0.51875,-0.46875 -1.35625,-0.46875 -0.59375,0 -1.25625,0.20625 -0.65625,0.20625 -1.40625,0.625 l 0,-1.275 q 0.7625,-0.30625 1.425,-0.4625 0.6625,-0.15625 1.2125,-0.15625 1.45,0 2.3125,0.725 0.8625,0.725 0.8625,1.9375 0,0.575 -0.21875,1.09375 -0.2125,0.5125 -0.78125,1.2125 -0.15625,0.18125 -0.99375,1.05 -0.8375,0.8625 -2.3625,2.41875 z"
       style=""
       id="path120" />
  </g>
  <g
     id="g48"
     transform="translate(-0.19971569,0)">
    <path
       style="fill:none;fill-opacity:0;stroke:#000000;stroke-width:2"
       d="M 392.474,239.01601 506.565,167.302"
       id="line50" />
    <path
       style="fill:none;fill-opacity:0;stroke:#000000;stroke-width:2"
       d="m 502.653,175.667 5.805,-9.555 -11.127,1.088"
       id="polyline52" />
  </g>
  <g
     id="g54"
     transform="translate(-0.19971569,0)">
    <path
       style="fill:none;fill-opacity:0;stroke:#000000;stroke-width:2"
       d="M 571.57001,239.02299 551.33398,174.269"
       id="line56" />
    <path
       style="fill:none;fill-opacity:0;stroke:#000000;stroke-width:2"
       d="m 558.422,180.188 -7.755,-8.054 -1.79,11.036"
       id="polyline58" />
  </g>
  <g
     style="font-style:normal;font-weight:normal;font-size:12.80000019px;font-family:sans-serif;text-anchor:middle;fill:#000000"
     id="text60">
    <path
       d="m 406.61904,278.25626 q -0.925,0 -1.4625,0.725 -0.5375,0.71875 -0.5375,1.975 0,1.25625 0.53125,1.98125 0.5375,0.71875 1.46875,0.71875 0.91875,0 1.45625,-0.725 0.5375,-0.725 0.5375,-1.975 0,-1.24375 -0.5375,-1.96875 -0.5375,-0.73125 -1.45625,-0.73125 z m 0,-0.975 q 1.5,0 2.35625,0.975 0.85625,0.975 0.85625,2.7 0,1.71875 -0.85625,2.7 -0.85625,0.975 -2.35625,0.975 -1.50625,0 -2.3625,-0.975 -0.85,-0.98125 -0.85,-2.7 0,-1.725 0.85,-2.7 0.85625,-0.975 2.3625,-0.975 z"
       style=""
       id="path127" />
    <path
       d="m 411.68779,274.72501 1.15625,0 0,5.74375 3.43125,-3.01875 1.46875,0 -3.7125,3.275 3.86875,3.725 -1.5,0 -3.55625,-3.41875 0,3.41875 -1.15625,0 0,-9.725 z"
       style=""
       id="path129" />
    <path
       d="m 421.41904,278.25626 q -0.925,0 -1.4625,0.725 -0.5375,0.71875 -0.5375,1.975 0,1.25625 0.53125,1.98125 0.5375,0.71875 1.46875,0.71875 0.91875,0 1.45625,-0.725 0.5375,-0.725 0.5375,-1.975 0,-1.24375 -0.5375,-1.96875 -0.5375,-0.73125 -1.45625,-0.73125 z m 0,-0.975 q 1.5,0 2.35625,0.975 0.85625,0.975 0.85625,2.7 0,1.71875 -0.85625,2.7 -0.85625,0.975 -2.35625,0.975 -1.50625,0 -2.3625,-0.975 -0.85,-0.98125 -0.85,-2.7 0,-1.725 0.85,-2.7 0.85625,-0.975 2.3625,-0.975 z"
       style=""
       id="path131" />
    <path
       d="m 430.99404,277.65626 0,1.0875 q -0.4875,-0.25 -1.0125,-0.375 -0.525,-0.125 -1.0875,-0.125 -0.85625,0 -1.2875,0.2625 -0.425,0.2625 -0.425,0.7875 0,0.4 0.30625,0.63125 0.30625,0.225 1.23125,0.43125 l 0.39375,0.0875 q 1.225,0.2625 1.7375,0.74375 0.51875,0.475 0.51875,1.33125 0,0.975 -0.775,1.54375 -0.76875,0.56875 -2.11875,0.56875 -0.5625,0 -1.175,-0.1125 -0.60625,-0.10625 -1.28125,-0.325 l 0,-1.1875 q 0.6375,0.33125 1.25625,0.5 0.61875,0.1625 1.225,0.1625 0.8125,0 1.25,-0.275 0.4375,-0.28125 0.4375,-0.7875 0,-0.46875 -0.31875,-0.71875 -0.3125,-0.25 -1.38125,-0.48125 l -0.4,-0.0937 q -1.06875,-0.225 -1.54375,-0.6875 -0.475,-0.46875 -0.475,-1.28125 0,-0.9875 0.7,-1.525 0.7,-0.5375 1.9875,-0.5375 0.6375,0 1.2,0.0937 0.5625,0.0937 1.0375,0.28125 z"
       style=""
       id="path133" />
    <path
       d="m 438.39404,283.40001 0,3.7125 -1.15625,0 0,-9.6625 1.15625,0 0,1.0625 q 0.3625,-0.625 0.9125,-0.925 0.55625,-0.30625 1.325,-0.30625 1.275,0 2.06875,1.0125 0.8,1.0125 0.8,2.6625 0,1.65 -0.8,2.6625 -0.79375,1.0125 -2.06875,1.0125 -0.76875,0 -1.325,-0.3 -0.55,-0.30625 -0.9125,-0.93125 z m 3.9125,-2.44375 q 0,-1.26875 -0.525,-1.9875 -0.51875,-0.725 -1.43125,-0.725 -0.9125,0 -1.4375,0.725 -0.51875,0.71875 -0.51875,1.9875 0,1.26875 0.51875,1.99375 0.525,0.71875 1.4375,0.71875 0.9125,0 1.43125,-0.71875 0.525,-0.725 0.525,-1.99375 z"
       style=""
       id="path135" />
    <path
       d="m 448.11904,278.25626 q -0.925,0 -1.4625,0.725 -0.5375,0.71875 -0.5375,1.975 0,1.25625 0.53125,1.98125 0.5375,0.71875 1.46875,0.71875 0.91875,0 1.45625,-0.725 0.5375,-0.725 0.5375,-1.975 0,-1.24375 -0.5375,-1.96875 -0.5375,-0.73125 -1.45625,-0.73125 z m 0,-0.975 q 1.5,0 2.35625,0.975 0.85625,0.975 0.85625,2.7 0,1.71875 -0.85625,2.7 -0.85625,0.975 -2.35625,0.975 -1.50625,0 -2.3625,-0.975 -0.85,-0.98125 -0.85,-2.7 0,-1.725 0.85,-2.7 0.85625,-0.975 2.3625,-0.975 z"
       style=""
       id="path137" />
    <path
       d="m 453.23154,277.45001 1.15,0 0,7 -1.15,0 0,-7 z m 0,-2.725 1.15,0 0,1.45625 -1.15,0 0,-1.45625 z"
       style=""
       id="path139" />
    <path
       d="m 462.60029,280.22501 0,4.225 -1.15,0 0,-4.1875 q 0,-0.99375 -0.3875,-1.4875 -0.3875,-0.49375 -1.1625,-0.49375 -0.93125,0 -1.46875,0.59375 -0.5375,0.59375 -0.5375,1.61875 l 0,3.95625 -1.15625,0 0,-7 1.15625,0 0,1.0875 q 0.4125,-0.63125 0.96875,-0.94375 0.5625,-0.3125 1.29375,-0.3125 1.20625,0 1.825,0.75 0.61875,0.74375 0.61875,2.19375 z"
       style=""
       id="path141" />
    <path
       d="m 466.04404,275.46251 0,1.9875 2.36875,0 0,0.89375 -2.36875,0 0,3.8 q 0,0.85625 0.23125,1.1 0.2375,0.24375 0.95625,0.24375 l 1.18125,0 0,0.9625 -1.18125,0 q -1.33125,0 -1.8375,-0.49375 -0.50625,-0.5 -0.50625,-1.8125 l 0,-3.8 -0.84375,0 0,-0.89375 0.84375,0 0,-1.9875 1.15625,0 z"
       style=""
       id="path143" />
    <path
       d="m 475.91904,280.66251 0,0.5625 -5.2875,0 q 0.075,1.1875 0.7125,1.8125 0.64375,0.61875 1.7875,0.61875 0.6625,0 1.28125,-0.1625 0.625,-0.1625 1.2375,-0.4875 l 0,1.0875 q -0.61875,0.2625 -1.26875,0.4 -0.65,0.1375 -1.31875,0.1375 -1.675,0 -2.65625,-0.975 -0.975,-0.975 -0.975,-2.6375 0,-1.71875 0.925,-2.725 0.93125,-1.0125 2.50625,-1.0125 1.4125,0 2.23125,0.9125 0.825,0.90625 0.825,2.46875 z m -1.15,-0.3375 q -0.0125,-0.94375 -0.53125,-1.50625 -0.5125,-0.5625 -1.3625,-0.5625 -0.9625,0 -1.54375,0.54375 -0.575,0.54375 -0.6625,1.53125 l 4.1,-0.006 z"
       style=""
       id="path145" />
    <path
       d="m 481.86279,278.52501 q -0.19375,-0.1125 -0.425,-0.1625 -0.225,-0.0562 -0.5,-0.0562 -0.975,0 -1.5,0.6375 -0.51875,0.63125 -0.51875,1.81875 l 0,3.6875 -1.15625,0 0,-7 1.15625,0 0,1.0875 q 0.3625,-0.6375 0.94375,-0.94375 0.58125,-0.3125 1.4125,-0.3125 0.11875,0 0.2625,0.0188 0.14375,0.0125 0.31875,0.0437 l 0.006,1.18125 z"
       style=""
       id="path147" />
    <path
       d="m 488.79404,280.66251 0,0.5625 -5.2875,0 q 0.075,1.1875 0.7125,1.8125 0.64375,0.61875 1.7875,0.61875 0.6625,0 1.28125,-0.1625 0.625,-0.1625 1.2375,-0.4875 l 0,1.0875 q -0.61875,0.2625 -1.26875,0.4 -0.65,0.1375 -1.31875,0.1375 -1.675,0 -2.65625,-0.975 -0.975,-0.975 -0.975,-2.6375 0,-1.71875 0.925,-2.725 0.93125,-1.0125 2.50625,-1.0125 1.4125,0 2.23125,0.9125 0.825,0.90625 0.825,2.46875 z m -1.15,-0.3375 q -0.0125,-0.94375 -0.53125,-1.50625 -0.5125,-0.5625 -1.3625,-0.5625 -0.9625,0 -1.54375,0.54375 -0.575,0.54375 -0.6625,1.53125 l 4.1,-0.006 z"
       style=""
       id="path149" />
    <path
       d="m 490.63779,274.72501 1.15625,0 0,5.74375 3.43125,-3.01875 1.46875,0 -3.7125,3.275 3.86875,3.725 -1.5,0 -3.55625,-3.41875 0,3.41875 -1.15625,0 0,-9.725 z"
       style=""
       id="path151" />
  </g>
  <g
     id="g64"
     transform="translate(-0.19971569,0)">
    <path
       style="fill:#ffffff"
       d="m 350,240 50,0 0,20 -50,0 z"
       id="rect66" />
    <path
       style="fill:none;fill-opacity:0;stroke:#000000;stroke-width:2"
       d="m 350,240 50,0 0,20 -50,0 z"
       id="rect68" />
  </g>
  <g
     style="font-style:normal;font-weight:normal;font-size:12.80000019px;font-family:sans-serif;text-anchor:middle;fill:#000000"
     id="text70">
    <path
       d="m 317.90654,253.4 0,3.7125 -1.15625,0 0,-9.6625 1.15625,0 0,1.0625 q 0.3625,-0.625 0.9125,-0.925 0.55625,-0.30625 1.325,-0.30625 1.275,0 2.06875,1.0125 0.8,1.0125 0.8,2.6625 0,1.65 -0.8,2.6625 -0.79375,1.0125 -2.06875,1.0125 -0.76875,0 -1.325,-0.3 -0.55,-0.30625 -0.9125,-0.93125 z m 3.9125,-2.44375 q 0,-1.26875 -0.525,-1.9875 -0.51875,-0.725 -1.43125,-0.725 -0.9125,0 -1.4375,0.725 -0.51875,0.71875 -0.51875,1.9875 0,1.26875 0.51875,1.99375 0.525,0.71875 1.4375,0.71875 0.9125,0 1.43125,-0.71875 0.525,-0.725 0.525,-1.99375 z"
       style=""
       id="path156" />
    <path
       d="m 326.05654,245.4625 0,1.9875 2.36875,0 0,0.89375 -2.36875,0 0,3.8 q 0,0.85625 0.23125,1.1 0.2375,0.24375 0.95625,0.24375 l 1.18125,0 0,0.9625 -1.18125,0 q -1.33125,0 -1.8375,-0.49375 -0.50625,-0.5 -0.50625,-1.8125 l 0,-3.8 -0.84375,0 0,-0.89375 0.84375,0 0,-1.9875 1.15625,0 z"
       style=""
       id="path158" />
    <path
       d="m 334.00029,248.525 q -0.19375,-0.1125 -0.425,-0.1625 -0.225,-0.0563 -0.5,-0.0563 -0.975,0 -1.5,0.6375 -0.51875,0.63125 -0.51875,1.81875 l 0,3.6875 -1.15625,0 0,-7 1.15625,0 0,1.0875 q 0.3625,-0.6375 0.94375,-0.94375 0.58125,-0.3125 1.4125,-0.3125 0.11875,0 0.2625,0.0188 0.14375,0.0125 0.31875,0.0437 l 0.006,1.18125 z"
       style=""
       id="path160" />
  </g>
  <g
     style="font-style:normal;font-weight:normal;font-size:12.80000019px;font-family:sans-serif;text-anchor:middle;fill:#000000"
     id="text74">
    <path
       d="m 361.27529,248.525 q -0.19375,-0.1125 -0.425,-0.1625 -0.225,-0.0563 -0.5,-0.0563 -0.975,0 -1.5,0.6375 -0.51875,0.63125 -0.51875,1.81875 l 0,3.6875 -1.15625,0 0,-7 1.15625,0 0,1.0875 q 0.3625,-0.6375 0.94375,-0.94375 0.58125,-0.3125 1.4125,-0.3125 0.11875,0 0.2625,0.0188 0.14375,0.0125 0.31875,0.0437 l 0.006,1.18125 z"
       style=""
       id="path163" />
    <path
       d="m 368.20654,250.6625 0,0.5625 -5.2875,0 q 0.075,1.1875 0.7125,1.8125 0.64375,0.61875 1.7875,0.61875 0.6625,0 1.28125,-0.1625 0.625,-0.1625 1.2375,-0.4875 l 0,1.0875 q -0.61875,0.2625 -1.26875,0.4 -0.65,0.1375 -1.31875,0.1375 -1.675,0 -2.65625,-0.975 -0.975,-0.975 -0.975,-2.6375 0,-1.71875 0.925,-2.725 0.93125,-1.0125 2.50625,-1.0125 1.4125,0 2.23125,0.9125 0.825,0.90625 0.825,2.46875 z m -1.15,-0.3375 q -0.0125,-0.94375 -0.53125,-1.50625 -0.5125,-0.5625 -1.3625,-0.5625 -0.9625,0 -1.54375,0.54375 -0.575,0.54375 -0.6625,1.53125 l 4.1,-0.006 z"
       style=""
       id="path165" />
    <path
       d="m 373.63779,244.725 0,0.95625 -1.1,0 q -0.61875,0 -0.8625,0.25 -0.2375,0.25 -0.2375,0.9 l 0,0.61875 1.89375,0 0,0.89375 -1.89375,0 0,6.10625 -1.15625,0 0,-6.10625 -1.1,0 0,-0.89375 1.1,0 0,-0.4875 q 0,-1.16875 0.54375,-1.7 0.54375,-0.5375 1.725,-0.5375 l 1.0875,0 z"
       style=""
       id="path167" />
    <path
       d="m 379.63154,247.71875 0,1.075 q -0.4875,-0.26875 -0.98125,-0.4 -0.4875,-0.1375 -0.9875,-0.1375 -1.11875,0 -1.7375,0.7125 -0.61875,0.70625 -0.61875,1.9875 0,1.28125 0.61875,1.99375 0.61875,0.70625 1.7375,0.70625 0.5,0 0.9875,-0.13125 0.49375,-0.1375 0.98125,-0.40625 l 0,1.0625 q -0.48125,0.225 -1,0.3375 -0.5125,0.1125 -1.09375,0.1125 -1.58125,0 -2.5125,-0.99375 -0.93125,-0.99375 -0.93125,-2.68125 0,-1.7125 0.9375,-2.69375 0.94375,-0.98125 2.58125,-0.98125 0.53125,0 1.0375,0.1125 0.50625,0.10625 0.98125,0.325 z"
       style=""
       id="path169" />
    <path
       d="m 387.46279,250.225 0,4.225 -1.15,0 0,-4.1875 q 0,-0.99375 -0.3875,-1.4875 -0.3875,-0.49375 -1.1625,-0.49375 -0.93125,0 -1.46875,0.59375 -0.5375,0.59375 -0.5375,1.61875 l 0,3.95625 -1.15625,0 0,-7 1.15625,0 0,1.0875 q 0.4125,-0.63125 0.96875,-0.94375 0.5625,-0.3125 1.29375,-0.3125 1.20625,0 1.825,0.75 0.61875,0.74375 0.61875,2.19375 z"
       style=""
       id="path171" />
    <path
       d="m 390.90654,245.4625 0,1.9875 2.36875,0 0,0.89375 -2.36875,0 0,3.8 q 0,0.85625 0.23125,1.1 0.2375,0.24375 0.95625,0.24375 l 1.18125,0 0,0.9625 -1.18125,0 q -1.33125,0 -1.8375,-0.49375 -0.50625,-0.5 -0.50625,-1.8125 l 0,-3.8 -0.84375,0 0,-0.89375 0.84375,0 0,-1.9875 1.15625,0 z"
       style=""
       id="path173" />
  </g>
  <g
     id="g78"
     transform="translate(-0.19971569,0)">
    <path
       style="fill:#ffffff"
       d="m 500,240 50,0 0,20 -50,0 z"
       id="rect80" />
    <path
       style="fill:none;fill-opacity:0;stroke:#000000;stroke-width:2"
       d="m 500,240 50,0 0,20 -50,0 z"
       id="rect82" />
  </g>
  <g
     id="g84"
     transform="translate(-0.19971569,0)">
    <path
       style="fill:#ffffff"
       d="m 550,240 50,0 0,20 -50,0 z"
       id="rect86" />
    <path
       style="fill:none;fill-opacity:0;stroke:#000000;stroke-width:2"
       d="m 550,240 50,0 0,20 -50,0 z"
       id="rect88" />
  </g>
  <g
     style="font-style:normal;font-weight:normal;font-size:12.80000019px;font-family:sans-serif;text-anchor:middle;fill:#000000"
     id="text90">
    <path
       d="m 517.90654,253.4 0,3.7125 -1.15625,0 0,-9.6625 1.15625,0 0,1.0625 q 0.3625,-0.625 0.9125,-0.925 0.55625,-0.30625 1.325,-0.30625 1.275,0 2.06875,1.0125 0.8,1.0125 0.8,2.6625 0,1.65 -0.8,2.6625 -0.79375,1.0125 -2.06875,1.0125 -0.76875,0 -1.325,-0.3 -0.55,-0.30625 -0.9125,-0.93125 z m 3.9125,-2.44375 q 0,-1.26875 -0.525,-1.9875 -0.51875,-0.725 -1.43125,-0.725 -0.9125,0 -1.4375,0.725 -0.51875,0.71875 -0.51875,1.9875 0,1.26875 0.51875,1.99375 0.525,0.71875 1.4375,0.71875 0.9125,0 1.43125,-0.71875 0.525,-0.725 0.525,-1.99375 z"
       style=""
       id="path180" />
    <path
       d="m 526.05654,245.4625 0,1.9875 2.36875,0 0,0.89375 -2.36875,0 0,3.8 q 0,0.85625 0.23125,1.1 0.2375,0.24375 0.95625,0.24375 l 1.18125,0 0,0.9625 -1.18125,0 q -1.33125,0 -1.8375,-0.49375 -0.50625,-0.5 -0.50625,-1.8125 l 0,-3.8 -0.84375,0 0,-0.89375 0.84375,0 0,-1.9875 1.15625,0 z"
       style=""
       id="path182" />
    <path
       d="m 534.00029,248.525 q -0.19375,-0.1125 -0.425,-0.1625 -0.225,-0.0563 -0.5,-0.0563 -0.975,0 -1.5,0.6375 -0.51875,0.63125 -0.51875,1.81875 l 0,3.6875 -1.15625,0 0,-7 1.15625,0 0,1.0875 q 0.3625,-0.6375 0.94375,-0.94375 0.58125,-0.3125 1.4125,-0.3125 0.11875,0 0.2625,0.0188 0.14375,0.0125 0.31875,0.0437 l 0.006,1.18125 z"
       style=""
       id="path184" />
  </g>
  <g
     style="font-style:normal;font-weight:normal;font-size:12.80000019px;font-family:sans-serif;text-anchor:middle;fill:#000000"
     id="text94">
    <path
       d="m 561.27529,248.525 q -0.19375,-0.1125 -0.425,-0.1625 -0.225,-0.0563 -0.5,-0.0563 -0.975,0 -1.5,0.6375 -0.51875,0.63125 -0.51875,1.81875 l 0,3.6875 -1.15625,0 0,-7 1.15625,0 0,1.0875 q 0.3625,-0.6375 0.94375,-0.94375 0.58125,-0.3125 1.4125,-0.3125 0.11875,0 0.2625,0.0188 0.14375,0.0125 0.31875,0.0437 l 0.006,1.18125 z"
       style=""
       id="path187" />
    <path
       d="m 568.20654,250.6625 0,0.5625 -5.2875,0 q 0.075,1.1875 0.7125,1.8125 0.64375,0.61875 1.7875,0.61875 0.6625,0 1.28125,-0.1625 0.625,-0.1625 1.2375,-0.4875 l 0,1.0875 q -0.61875,0.2625 -1.26875,0.4 -0.65,0.1375 -1.31875,0.1375 -1.675,0 -2.65625,-0.975 -0.975,-0.975 -0.975,-2.6375 0,-1.71875 0.925,-2.725 0.93125,-1.0125 2.50625,-1.0125 1.4125,0 2.23125,0.9125 0.825,0.90625 0.825,2.46875 z m -1.15,-0.3375 q -0.0125,-0.94375 -0.53125,-1.50625 -0.5125,-0.5625 -1.3625,-0.5625 -0.9625,0 -1.54375,0.54375 -0.575,0.54375 -0.6625,1.53125 l 4.1,-0.006 z"
       style=""
       id="path189" />
    <path
       d="m 573.63779,244.725 0,0.95625 -1.1,0 q -0.61875,0 -0.8625,0.25 -0.2375,0.25 -0.2375,0.9 l 0,0.61875 1.89375,0 0,0.89375 -1.89375,0 0,6.10625 -1.15625,0 0,-6.10625 -1.1,0 0,-0.89375 1.1,0 0,-0.4875 q 0,-1.16875 0.54375,-1.7 0.54375,-0.5375 1.725,-0.5375 l 1.0875,0 z"
       style=""
       id="path191" />
    <path
       d="m 579.63154,247.71875 0,1.075 q -0.4875,-0.26875 -0.98125,-0.4 -0.4875,-0.1375 -0.9875,-0.1375 -1.11875,0 -1.7375,0.7125 -0.61875,0.70625 -0.61875,1.9875 0,1.28125 0.61875,1.99375 0.61875,0.70625 1.7375,0.70625 0.5,0 0.9875,-0.13125 0.49375,-0.1375 0.98125,-0.40625 l 0,1.0625 q -0.48125,0.225 -1,0.3375 -0.5125,0.1125 -1.09375,0.1125 -1.58125,0 -2.5125,-0.99375 -0.93125,-0.99375 -0.93125,-2.68125 0,-1.7125 0.9375,-2.69375 0.94375,-0.98125 2.58125,-0.98125 0.53125,0 1.0375,0.1125 0.50625,0.10625 0.98125,0.325 z"
       style=""
       id="path193" />
    <path
       d="m 587.46279,250.225 0,4.225 -1.15,0 0,-4.1875 q 0,-0.99375 -0.3875,-1.4875 -0.3875,-0.49375 -1.1625,-0.49375 -0.93125,0 -1.46875,0.59375 -0.5375,0.59375 -0.5375,1.61875 l 0,3.95625 -1.15625,0 0,-7 1.15625,0 0,1.0875 q 0.4125,-0.63125 0.96875,-0.94375 0.5625,-0.3125 1.29375,-0.3125 1.20625,0 1.825,0.75 0.61875,0.74375 0.61875,2.19375 z"
       style=""
       id="path195" />
    <path
       d="m 590.90654,245.4625 0,1.9875 2.36875,0 0,0.89375 -2.36875,0 0,3.8 q 0,0.85625 0.23125,1.1 0.2375,0.24375 0.95625,0.24375 l 1.18125,0 0,0.9625 -1.18125,0 q -1.33125,0 -1.8375,-0.49375 -0.50625,-0.5 -0.50625,-1.8125 l 0,-3.8 -0.84375,0 0,-0.89375 0.84375,0 0,-1.9875 1.15625,0 z"
       style=""
       id="path197" />
  </g>
</svg>
