<?xml version="1.0" encoding="UTF-8" standalone="no"?>
<svg
   xmlns:dc="http://purl.org/dc/elements/1.1/"
   xmlns:cc="http://creativecommons.org/ns#"
   xmlns:rdf="http://www.w3.org/1999/02/22-rdf-syntax-ns#"
   xmlns:svg="http://www.w3.org/2000/svg"
   xmlns="http://www.w3.org/2000/svg"
   xmlns:sodipodi="http://sodipodi.sourceforge.net/DTD/sodipodi-0.dtd"
   xmlns:inkscape="http://www.inkscape.org/namespaces/inkscape"
   version="1.1"
   id="svg2"
   viewBox="270 155 474.57545 151.27473"
   height="8.201642cm"
   width="23.87801cm"
   inkscape:version="0.91 r13725"
   sodipodi:docname="sharedweak.svg">
  <sodipodi:namedview
     pagecolor="#ffffff"
     bordercolor="#666666"
     borderopacity="1"
     objecttolerance="10"
     gridtolerance="10"
     guidetolerance="10"
     inkscape:pageopacity="0"
     inkscape:pageshadow="2"
     inkscape:window-width="640"
     inkscape:window-height="480"
     id="namedview50"
     showgrid="false"
     inkscape:zoom="0.48448148"
     inkscape:cx="424.01369"
     inkscape:cy="146.95398"
     inkscape:window-x="0"
     inkscape:window-y="25"
     inkscape:window-maximized="0"
     inkscape:current-layer="svg2" />
  <metadata
     id="metadata98">
    <rdf:RDF>
      <cc:Work
         rdf:about="">
        <dc:format>image/svg+xml</dc:format>
        <dc:type
           rdf:resource="http://purl.org/dc/dcmitype/StillImage" />
      </cc:Work>
    </rdf:RDF>
  </metadata>
  <defs
     id="defs96" />
  <g
     id="g4"
     transform="translate(-0.66365251,-8.8588181)">
    <path
       style="fill:#ffffff"
       d="m 320,180 20,0 0,20 -20,0 z"
       id="rect6" />
    <path
       style="fill:none;fill-opacity:0;stroke:#000000;stroke-width:2"
       d="m 320,180 20,0 0,20 -20,0 z"
       id="rect8" />
  </g>
  <g
     id="g10"
     transform="translate(-0.66365251,-8.8588181)">
    <path
       style="fill:#ffffff"
       d="m 320,210 20,0 0,20 -20,0 z"
       id="rect12" />
    <path
       style="fill:none;fill-opacity:0;stroke:#000000;stroke-width:2"
       d="m 320,210 20,0 0,20 -20,0 z"
       id="rect14" />
  </g>
  <g
     style="font-style:normal;font-weight:normal;font-size:15.80440044px;font-family:sans-serif;text-anchor:start;fill:#000000"
     id="text16">
    <path
       d="m 276.33565,152.75282 0,1.34276 q -0.60193,-0.30868 -1.25016,-0.46302 -0.64822,-0.15434 -1.34275,-0.15434 -1.05723,0 -1.5897,0.32411 -0.52476,0.32411 -0.52476,0.97234 0,0.49389 0.37813,0.77942 0.37814,0.27781 1.52025,0.53247 l 0.48617,0.10804 q 1.51253,0.32411 2.14533,0.91832 0.64051,0.58649 0.64051,1.64372 0,1.20385 -0.95691,1.9061 -0.94919,0.70224 -2.61606,0.70224 -0.69453,0 -1.4508,-0.1389 -0.74854,-0.13119 -1.58198,-0.40129 l 0,-1.46623 q 0.78713,0.409 1.55112,0.61736 0.76398,0.20065 1.51253,0.20065 1.00321,0 1.54339,-0.33955 0.54019,-0.34727 0.54019,-0.97234 0,-0.57878 -0.39356,-0.88746 -0.38585,-0.30868 -1.70546,-0.59421 l -0.49389,-0.11575 q -1.3196,-0.27781 -1.90609,-0.84887 -0.58649,-0.57877 -0.58649,-1.58198 0,-1.21929 0.8643,-1.88295 0.8643,-0.66366 2.454,-0.66366 0.78714,0 1.48167,0.11575 0.69452,0.11576 1.28102,0.34727 z"
       style=""
       id="path57" />
    <path
       d="m 286.25198,155.9245 0,5.21669 -1.41993,0 0,-5.17039 q 0,-1.227 -0.47845,-1.83664 -0.47845,-0.60964 -1.43536,-0.60964 -1.14983,0 -1.81349,0.73311 -0.66366,0.73312 -0.66366,1.9987 l 0,4.88486 -1.42765,0 0,-12.00764 1.42765,0 0,4.70736 q 0.50932,-0.77941 1.19613,-1.16526 0.69453,-0.38585 1.59742,-0.38585 1.48938,0 2.25336,0.92604 0.76398,0.91832 0.76398,2.70866 z"
       style=""
       id="path59" />
    <path
       d="m 293.0275,156.79652 q -1.72089,0 -2.38455,0.39357 -0.66366,0.39357 -0.66366,1.34276 0,0.75626 0.49389,1.20385 0.5016,0.43987 1.35819,0.43987 1.1807,0 1.89066,-0.83344 0.71768,-0.84115 0.71768,-2.23021 l 0,-0.3164 -1.41221,0 z m 2.83214,-0.58649 0,4.93116 -1.41993,0 0,-1.31189 q -0.48617,0.78713 -1.21157,1.16527 -0.72539,0.37041 -1.77491,0.37041 -1.32732,0 -2.11445,-0.74083 -0.77942,-0.74855 -0.77942,-1.9987 0,-1.45851 0.97234,-2.19934 0.98006,-0.74083 2.91703,-0.74083 l 1.99098,0 0,-0.13891 q 0,-0.98006 -0.64823,-1.51253 -0.64051,-0.54019 -1.80577,-0.54019 -0.74083,0 -1.44308,0.17749 -0.70225,0.17749 -1.35047,0.53247 l 0,-1.31189 q 0.77941,-0.30096 1.51253,-0.44758 0.73311,-0.15434 1.42764,-0.15434 1.87523,0 2.80127,0.97234 0.92604,0.97234 0.92604,2.94789 z"
       style=""
       id="path61" />
    <path
       d="m 303.80042,153.82548 q -0.23922,-0.13891 -0.52475,-0.20064 -0.27781,-0.0695 -0.61736,-0.0695 -1.20385,0 -1.85208,0.78713 -0.64051,0.77942 -0.64051,2.24564 l 0,4.55303 -1.42764,0 0,-8.64303 1.42764,0 0,1.34275 q 0.44759,-0.78713 1.16527,-1.16526 0.71768,-0.38585 1.74404,-0.38585 0.14662,0 0.32411,0.0231 0.17749,0.0154 0.39357,0.054 l 0.008,1.45851 z"
       style=""
       id="path63" />
    <path
       d="m 312.35857,156.46469 0,0.69453 -6.52858,0 q 0.0926,1.46623 0.87974,2.23793 0.79485,0.76398 2.20706,0.76398 0.818,0 1.58198,-0.20064 0.7717,-0.20064 1.52796,-0.60193 l 0,1.34276 q -0.76398,0.32411 -1.56654,0.49389 -0.80257,0.16977 -1.62829,0.16977 -2.06815,0 -3.27972,-1.20385 -1.20385,-1.20385 -1.20385,-3.25657 0,-2.12217 1.14211,-3.36461 1.14983,-1.25015 3.09452,-1.25015 1.74404,0 2.75496,1.12668 1.01865,1.11896 1.01865,3.04821 z m -1.41993,-0.41672 q -0.0154,-1.16526 -0.65595,-1.85979 -0.63279,-0.69453 -1.6823,-0.69453 -1.18842,0 -1.9061,0.67138 -0.70996,0.67138 -0.818,1.89066 l 5.06235,-0.008 z"
       style=""
       id="path65" />
    <path
       d="m 320.37652,153.81005 0,-4.6765 1.41993,0 0,12.00764 -1.41993,0 0,-1.29646 q -0.44758,0.7717 -1.1344,1.14984 -0.67909,0.37041 -1.636,0.37041 -1.56655,0 -2.55432,-1.25015 -0.98006,-1.25015 -0.98006,-3.28744 0,-2.03729 0.98006,-3.28744 0.98777,-1.25015 2.55432,-1.25015 0.95691,0 1.636,0.37813 0.68682,0.37042 1.1344,1.14212 z m -4.83855,3.01734 q 0,1.56655 0.64051,2.46172 0.64822,0.88746 1.77491,0.88746 1.12668,0 1.7749,-0.88746 0.64823,-0.89517 0.64823,-2.46172 0,-1.56655 -0.64823,-2.454 -0.64822,-0.89517 -1.7749,-0.89517 -1.12669,0 -1.77491,0.89517 -0.64051,0.88745 -0.64051,2.454 z"
       style=""
       id="path67" />
    <path
       d="m 331.28835,163.76497 0,1.10353 -8.21088,0 0,-1.10353 8.21088,0 z"
       style=""
       id="path69" />
    <path
       d="m 333.99701,159.84473 0,4.5839 -1.42764,0 0,-11.93047 1.42764,0 0,1.31189 q 0.44759,-0.7717 1.12669,-1.14212 0.68681,-0.37813 1.636,-0.37813 1.57426,0 2.55432,1.25015 0.98778,1.25015 0.98778,3.28744 0,2.03729 -0.98778,3.28744 -0.98006,1.25015 -2.55432,1.25015 -0.94919,0 -1.636,-0.37041 -0.6791,-0.37814 -1.12669,-1.14984 z m 4.83084,-3.01734 q 0,-1.56655 -0.64823,-2.454 -0.64051,-0.89517 -1.76719,-0.89517 -1.12668,0 -1.77491,0.89517 -0.64051,0.88745 -0.64051,2.454 0,1.56655 0.64051,2.46172 0.64823,0.88746 1.77491,0.88746 1.12668,0 1.76719,-0.88746 0.64823,-0.89517 0.64823,-2.46172 z"
       style=""
       id="path71" />
    <path
       d="m 344.05997,150.04415 0,2.45401 2.92474,0 0,1.10353 -2.92474,0 0,4.69193 q 0,1.05723 0.28553,1.35819 0.29325,0.30096 1.1807,0.30096 l 1.45851,0 0,1.18842 -1.45851,0 q -1.64372,0 -2.2688,-0.60964 -0.62507,-0.61736 -0.62507,-2.23793 l 0,-4.69193 -1.0418,0 0,-1.10353 1.0418,0 0,-2.45401 1.42764,0 z"
       style=""
       id="path73" />
    <path
       d="m 353.86827,153.82548 q -0.23923,-0.13891 -0.52476,-0.20064 -0.27781,-0.0695 -0.61736,-0.0695 -1.20385,0 -1.85208,0.78713 -0.64051,0.77942 -0.64051,2.24564 l 0,4.55303 -1.42764,0 0,-8.64303 1.42764,0 0,1.34275 q 0.44759,-0.78713 1.16527,-1.16526 0.71768,-0.38585 1.74404,-0.38585 0.14662,0 0.32411,0.0231 0.17749,0.0154 0.39357,0.054 l 0.008,1.45851 z"
       style=""
       id="path75" />
  </g>
  <g
     style="font-style:normal;font-weight:normal;font-size:15.80440044px;font-family:sans-serif;text-anchor:end;fill:#000000"
     id="text20">
    <path
       d="m 287.99885,178.20282 0,1.34275 q -0.60193,-0.30868 -1.25015,-0.46302 -0.64823,-0.15434 -1.34276,-0.15434 -1.05723,0 -1.5897,0.32412 -0.52476,0.32411 -0.52476,0.97234 0,0.49389 0.37814,0.77941 0.37813,0.27782 1.52024,0.53248 l 0.48618,0.10803 q 1.51253,0.32412 2.14532,0.91833 0.64051,0.58649 0.64051,1.64372 0,1.20385 -0.95691,1.90609 -0.94919,0.70225 -2.61606,0.70225 -0.69453,0 -1.45079,-0.13891 -0.74855,-0.13119 -1.58199,-0.40128 l 0,-1.46623 q 0.78714,0.409 1.55112,0.61736 0.76398,0.20064 1.51253,0.20064 1.00321,0 1.5434,-0.33955 0.54019,-0.34726 0.54019,-0.97234 0,-0.57877 -0.39357,-0.88745 -0.38585,-0.30868 -1.70545,-0.59421 l -0.49389,-0.11575 q -1.31961,-0.27782 -1.9061,-0.84887 -0.58649,-0.57878 -0.58649,-1.58199 0,-1.21928 0.8643,-1.88294 0.86431,-0.66366 2.45401,-0.66366 0.78713,0 1.48166,0.11575 0.69453,0.11576 1.28102,0.34727 z"
       style=""
       id="path78" />
    <path
       d="m 292.10429,185.29473 0,4.5839 -1.42764,0 0,-11.93047 1.42764,0 0,1.31188 q 0.44759,-0.7717 1.12668,-1.14211 0.68681,-0.37813 1.636,-0.37813 1.57427,0 2.55433,1.25015 0.98777,1.25015 0.98777,3.28744 0,2.03728 -0.98777,3.28744 -0.98006,1.25015 -2.55433,1.25015 -0.94919,0 -1.636,-0.37042 -0.67909,-0.37813 -1.12668,-1.14983 z m 4.83084,-3.01734 q 0,-1.56655 -0.64823,-2.45401 -0.64051,-0.89517 -1.76719,-0.89517 -1.12668,0 -1.77491,0.89517 -0.64051,0.88746 -0.64051,2.45401 0,1.56655 0.64051,2.46172 0.64823,0.88745 1.77491,0.88745 1.12668,0 1.76719,-0.88745 0.64823,-0.89517 0.64823,-2.46172 z"
       style=""
       id="path80" />
    <path
       d="m 301.23349,185.2793 2.54661,0 0,-8.78966 -2.7704,0.55563 0,-1.41993 2.75497,-0.55562 1.55883,0 0,10.20958 2.54661,0 0,1.31189 -6.63662,0 0,-1.31189 z"
       style=""
       id="path82" />
  </g>
  <g
     style="font-style:normal;font-weight:normal;font-size:15.80440044px;font-family:sans-serif;text-anchor:end;fill:#000000"
     id="text24">
    <path
       d="m 287.99885,208.20282 0,1.34275 q -0.60193,-0.30868 -1.25015,-0.46302 -0.64823,-0.15434 -1.34276,-0.15434 -1.05723,0 -1.5897,0.32412 -0.52476,0.32411 -0.52476,0.97234 0,0.49389 0.37814,0.77941 0.37813,0.27782 1.52024,0.53248 l 0.48618,0.10803 q 1.51253,0.32412 2.14532,0.91833 0.64051,0.58649 0.64051,1.64372 0,1.20385 -0.95691,1.90609 -0.94919,0.70225 -2.61606,0.70225 -0.69453,0 -1.45079,-0.13891 -0.74855,-0.13119 -1.58199,-0.40128 l 0,-1.46623 q 0.78714,0.409 1.55112,0.61736 0.76398,0.20064 1.51253,0.20064 1.00321,0 1.5434,-0.33955 0.54019,-0.34726 0.54019,-0.97234 0,-0.57877 -0.39357,-0.88745 -0.38585,-0.30868 -1.70545,-0.59421 l -0.49389,-0.11575 q -1.31961,-0.27782 -1.9061,-0.84887 -0.58649,-0.57878 -0.58649,-1.58199 0,-1.21928 0.8643,-1.88294 0.86431,-0.66366 2.45401,-0.66366 0.78713,0 1.48166,0.11575 0.69453,0.11576 1.28102,0.34727 z"
       style=""
       id="path85" />
    <path
       d="m 292.10429,215.29473 0,4.5839 -1.42764,0 0,-11.93047 1.42764,0 0,1.31188 q 0.44759,-0.7717 1.12668,-1.14211 0.68681,-0.37813 1.636,-0.37813 1.57427,0 2.55433,1.25015 0.98777,1.25015 0.98777,3.28744 0,2.03728 -0.98777,3.28744 -0.98006,1.25015 -2.55433,1.25015 -0.94919,0 -1.636,-0.37042 -0.67909,-0.37813 -1.12668,-1.14983 z m 4.83084,-3.01734 q 0,-1.56655 -0.64823,-2.45401 -0.64051,-0.89517 -1.76719,-0.89517 -1.12668,0 -1.77491,0.89517 -0.64051,0.88746 -0.64051,2.45401 0,1.56655 0.64051,2.46172 0.64823,0.88745 1.77491,0.88745 1.12668,0 1.76719,-0.88745 0.64823,-0.89517 0.64823,-2.46172 z"
       style=""
       id="path87" />
    <path
       d="m 302.30615,215.2793 5.44048,0 0,1.31189 -7.3157,0 0,-1.31189 q 0.88745,-0.91832 2.41541,-2.46172 1.53569,-1.55112 1.92925,-1.9987 0.74855,-0.84116 1.0418,-1.41993 0.30096,-0.58649 0.30096,-1.14983 0,-0.91832 -0.64823,-1.4971 -0.64051,-0.57877 -1.67459,-0.57877 -0.73311,0 -1.55111,0.25466 -0.81029,0.25466 -1.73633,0.7717 l 0,-1.57427 q 0.94148,-0.37813 1.75948,-0.57106 0.818,-0.19292 1.4971,-0.19292 1.79034,0 2.85528,0.89517 1.06495,0.89517 1.06495,2.39227 0,0.70996 -0.2701,1.35047 -0.26237,0.63279 -0.96462,1.4971 -0.19293,0.22379 -1.227,1.29645 -1.03408,1.06495 -2.91703,2.98648 z"
       style=""
       id="path89" />
  </g>
  <g
     id="g28"
     transform="translate(-0.66365251,-8.8588181)">
    <path
       style="fill:#ffffff"
       d="m 320,300 20,0 0,20 -20,0 z"
       id="rect30" />
    <path
       style="fill:none;fill-opacity:0;stroke:#000000;stroke-width:2"
       d="m 320,300 20,0 0,20 -20,0 z"
       id="rect32" />
  </g>
  <g
     style="font-style:normal;font-weight:normal;font-size:15.80440044px;font-family:sans-serif;text-anchor:start;fill:#000000"
     id="text34">
    <path
       d="m 270,272.49814 1.41992,0 1.77491,6.74465 1.76719,-6.74465 1.67459,0 1.77491,6.74465 1.76719,-6.74465 1.41993,0 -2.26108,8.64303 -1.67459,0 -1.8598,-7.08419 -1.86751,7.08419 -1.67459,0 L 270,272.49814 Z"
       style=""
       id="path94" />
    <path
       d="m 291.15227,276.46468 0,0.69453 -6.52857,0 q 0.0926,1.46622 0.87973,2.23792 0.79485,0.76399 2.20706,0.76399 0.818,0 1.58199,-0.20065 0.7717,-0.20064 1.52796,-0.60192 l 0,1.34276 q -0.76398,0.32411 -1.56655,0.49388 -0.80257,0.16978 -1.62828,0.16978 -2.06816,0 -3.27973,-1.20385 -1.20385,-1.20385 -1.20385,-3.25657 0,-2.12218 1.14212,-3.36461 1.14983,-1.25016 3.09451,-1.25016 1.74404,0 2.75497,1.12668 1.01864,1.11897 1.01864,3.04822 z m -1.41992,-0.41672 q -0.0154,-1.16527 -0.65595,-1.8598 -0.63279,-0.69453 -1.6823,-0.69453 -1.18842,0 -1.9061,0.67138 -0.70996,0.67138 -0.818,1.89067 l 5.06235,-0.008 z"
       style=""
       id="path96" />
    <path
       d="m 297.41075,276.79651 q -1.72089,0 -2.38455,0.39356 -0.66366,0.39357 -0.66366,1.34276 0,0.75627 0.49389,1.20385 0.5016,0.43987 1.35819,0.43987 1.1807,0 1.89066,-0.83343 0.71768,-0.84116 0.71768,-2.23022 l 0,-0.31639 -1.41221,0 z m 2.83214,-0.58649 0,4.93115 -1.41993,0 0,-1.31188 q -0.48617,0.78713 -1.21157,1.16526 -0.72539,0.37042 -1.7749,0.37042 -1.32733,0 -2.11446,-0.74083 -0.77942,-0.74855 -0.77942,-1.99871 0,-1.45851 0.97234,-2.19934 0.98006,-0.74083 2.91703,-0.74083 l 1.99098,0 0,-0.13891 q 0,-0.98005 -0.64823,-1.51253 -0.64051,-0.54019 -1.80577,-0.54019 -0.74083,0 -1.44308,0.1775 -0.70225,0.17749 -1.35047,0.53247 l 0,-1.31189 q 0.77941,-0.30096 1.51253,-0.44759 0.73311,-0.15434 1.42764,-0.15434 1.87523,0 2.80127,0.97235 0.92604,0.97234 0.92604,2.94789 z"
       style=""
       id="path98" />
    <path
       d="m 303.12133,269.13353 1.42764,0 0,7.09192 4.23663,-3.72731 1.81349,0 -4.58389,4.04371 4.77682,4.59932 -1.85208,0 -4.39097,-4.22119 0,4.22119 -1.42764,0 0,-12.00764 z"
       style=""
       id="path100" />
    <path
       d="m 318.91029,283.76495 0,1.10353 -8.21088,0 0,-1.10353 8.21088,0 z"
       style=""
       id="path102" />
    <path
       d="m 321.61896,279.84472 0,4.58389 -1.42764,0 0,-11.93047 1.42764,0 0,1.31189 q 0.44758,-0.7717 1.12668,-1.14211 0.68681,-0.37814 1.636,-0.37814 1.57427,0 2.55433,1.25016 0.98777,1.25015 0.98777,3.28744 0,2.03728 -0.98777,3.28743 -0.98006,1.25016 -2.55433,1.25016 -0.94919,0 -1.636,-0.37042 -0.6791,-0.37813 -1.12668,-1.14983 z m 4.83084,-3.01734 q 0,-1.56655 -0.64823,-2.45401 -0.64051,-0.89517 -1.76719,-0.89517 -1.12668,0 -1.77491,0.89517 -0.64051,0.88746 -0.64051,2.45401 0,1.56655 0.64051,2.46172 0.64823,0.88745 1.77491,0.88745 1.12668,0 1.76719,-0.88745 0.64823,-0.89517 0.64823,-2.46172 z"
       style=""
       id="path104" />
    <path
       d="m 331.68192,270.04414 0,2.454 2.92474,0 0,1.10353 -2.92474,0 0,4.69193 q 0,1.05723 0.28552,1.35819 0.29325,0.30097 1.1807,0.30097 l 1.45852,0 0,1.18841 -1.45852,0 q -1.64371,0 -2.26879,-0.60964 -0.62508,-0.61736 -0.62508,-2.23793 l 0,-4.69193 -1.04179,0 0,-1.10353 1.04179,0 0,-2.454 1.42765,0 z"
       style=""
       id="path106" />
    <path
       d="m 341.49022,273.82547 q -0.23923,-0.13891 -0.52476,-0.20065 -0.27781,-0.0695 -0.61736,-0.0695 -1.20385,0 -1.85208,0.78713 -0.64051,0.77942 -0.64051,2.24565 l 0,4.55302 -1.42764,0 0,-8.64303 1.42764,0 0,1.34276 q 0.44759,-0.78713 1.16527,-1.16527 0.71768,-0.38585 1.74404,-0.38585 0.14662,0 0.32411,0.0232 0.17749,0.0154 0.39357,0.054 l 0.008,1.45852 z"
       style=""
       id="path108" />
  </g>
  <g
     style="font-style:normal;font-weight:normal;font-size:15.80440044px;font-family:sans-serif;text-anchor:end;fill:#000000"
     id="text38">
    <path
       d="m 276.97127,297.94816 1.41992,0 1.77491,6.74465 1.76719,-6.74465 1.67459,0 1.77491,6.74465 1.76719,-6.74465 1.41993,0 -2.26108,8.64303 -1.67459,0 -1.85979,-7.0842 -1.86752,7.0842 -1.67458,0 -2.26108,-8.64303 z"
       style=""
       id="path111" />
    <path
       d="m 292.10429,305.29473 0,4.5839 -1.42764,0 0,-11.93047 1.42764,0 0,1.31188 q 0.44759,-0.7717 1.12668,-1.14211 0.68681,-0.37813 1.636,-0.37813 1.57427,0 2.55433,1.25015 0.98777,1.25015 0.98777,3.28744 0,2.03728 -0.98777,3.28744 -0.98006,1.25015 -2.55433,1.25015 -0.94919,0 -1.636,-0.37042 -0.67909,-0.37813 -1.12668,-1.14983 z m 4.83084,-3.01734 q 0,-1.56655 -0.64823,-2.45401 -0.64051,-0.89517 -1.76719,-0.89517 -1.12668,0 -1.77491,0.89517 -0.64051,0.88746 -0.64051,2.45401 0,1.56655 0.64051,2.46172 0.64823,0.88745 1.77491,0.88745 1.12668,0 1.76719,-0.88745 0.64823,-0.89517 0.64823,-2.46172 z"
       style=""
       id="path113" />
    <path
       d="m 301.23349,305.2793 2.54661,0 0,-8.78966 -2.7704,0.55563 0,-1.41993 2.75497,-0.55562 1.55883,0 0,10.20958 2.54661,0 0,1.31189 -6.63662,0 0,-1.31189 z"
       style=""
       id="path115" />
  </g>
  <g
     id="g42"
     transform="translate(-0.66365251,-8.8588181)">
    <path
       style="fill:#ffffff"
       d="m 420,210 160,0 0,70 -160,0 z"
       id="rect44" />
    <path
       style="fill:none;fill-opacity:0;stroke:#000000;stroke-width:2"
       d="m 420,210 160,0 0,70 -160,0 z"
       id="rect46" />
  </g>
  <g
     style="font-style:normal;font-weight:normal;font-size:15.80440044px;font-family:sans-serif;text-anchor:start;fill:#000000"
     id="text48">
    <path
       d="m 427.55493,184.15731 q 0.53247,-0.95691 1.2733,-1.41221 0.74084,-0.4553 1.74405,-0.4553 1.35047,0 2.08358,0.94919 0.73312,0.94147 0.73312,2.68551 l 0,5.21669 -1.42765,0 0,-5.17039 q 0,-1.24243 -0.43986,-1.84436 -0.43987,-0.60192 -1.34276,-0.60192 -1.10353,0 -1.74404,0.73311 -0.64051,0.73312 -0.64051,1.9987 l 0,4.88486 -1.42765,0 0,-5.17039 q 0,-1.25015 -0.43986,-1.84436 -0.43987,-0.60192 -1.35819,-0.60192 -1.0881,0 -1.72861,0.74083 -0.64051,0.73311 -0.64051,1.99098 l 0,4.88486 -1.42765,0 0,-8.64303 1.42765,0 0,1.34275 q 0.48617,-0.79485 1.16526,-1.17298 0.6791,-0.37813 1.61286,-0.37813 0.94147,0 1.59741,0.47845 0.66366,0.47846 0.98006,1.38906 z"
       style=""
       id="path120" />
    <path
       d="m 443.62171,186.46469 0,0.69453 -6.52858,0 q 0.0926,1.46623 0.87974,2.23793 0.79485,0.76398 2.20706,0.76398 0.818,0 1.58198,-0.20064 0.7717,-0.20064 1.52797,-0.60193 l 0,1.34276 q -0.76398,0.32411 -1.56655,0.49389 -0.80257,0.16977 -1.62829,0.16977 -2.06815,0 -3.27972,-1.20385 -1.20385,-1.20385 -1.20385,-3.25657 0,-2.12217 1.14212,-3.36461 1.14983,-1.25015 3.09451,-1.25015 1.74404,0 2.75497,1.12668 1.01864,1.11896 1.01864,3.04821 z m -1.41993,-0.41672 q -0.0154,-1.16526 -0.65594,-1.85979 -0.63279,-0.69453 -1.68231,-0.69453 -1.18841,0 -1.90609,0.67138 -0.70997,0.67138 -0.818,1.89066 l 5.06234,-0.008 z"
       style=""
       id="path122" />
    <path
       d="m 453.13676,185.9245 0,5.21669 -1.41993,0 0,-5.17039 q 0,-1.227 -0.47845,-1.83664 -0.47845,-0.60964 -1.43536,-0.60964 -1.14983,0 -1.81349,0.73311 -0.66366,0.73312 -0.66366,1.9987 l 0,4.88486 -1.42765,0 0,-8.64303 1.42765,0 0,1.34275 q 0.50932,-0.77941 1.19613,-1.16526 0.69453,-0.38585 1.59742,-0.38585 1.48938,0 2.25336,0.92604 0.76398,0.91832 0.76398,2.70866 z"
       style=""
       id="path124" />
    <path
       d="m 463.37721,186.46469 0,0.69453 -6.52857,0 q 0.0926,1.46623 0.87973,2.23793 0.79485,0.76398 2.20706,0.76398 0.818,0 1.58199,-0.20064 0.7717,-0.20064 1.52796,-0.60193 l 0,1.34276 q -0.76398,0.32411 -1.56655,0.49389 -0.80257,0.16977 -1.62828,0.16977 -2.06816,0 -3.27973,-1.20385 -1.20385,-1.20385 -1.20385,-3.25657 0,-2.12217 1.14212,-3.36461 1.14983,-1.25015 3.09451,-1.25015 1.74404,0 2.75497,1.12668 1.01864,1.11896 1.01864,3.04821 z m -1.41993,-0.41672 q -0.0154,-1.16526 -0.65594,-1.85979 -0.63279,-0.69453 -1.6823,-0.69453 -1.18842,0 -1.9061,0.67138 -0.70996,0.67138 -0.818,1.89066 l 5.06234,-0.008 z"
       style=""
       id="path126" />
    <path
       d="m 471.39516,183.81005 0,-4.6765 1.41993,0 0,12.00764 -1.41993,0 0,-1.29646 q -0.44758,0.7717 -1.13439,1.14984 -0.6791,0.37041 -1.63601,0.37041 -1.56655,0 -2.55432,-1.25015 -0.98006,-1.25015 -0.98006,-3.28744 0,-2.03729 0.98006,-3.28744 0.98777,-1.25015 2.55432,-1.25015 0.95691,0 1.63601,0.37813 0.68681,0.37042 1.13439,1.14212 z m -4.83855,3.01734 q 0,1.56655 0.64051,2.46172 0.64823,0.88746 1.77491,0.88746 1.12668,0 1.77491,-0.88746 0.64822,-0.89517 0.64822,-2.46172 0,-1.56655 -0.64822,-2.454 -0.64823,-0.89517 -1.77491,-0.89517 -1.12668,0 -1.77491,0.89517 -0.64051,0.88745 -0.64051,2.454 z"
       style=""
       id="path128" />
    <path
       d="m 475.12247,182.49816 6.74466,0 0,1.29645 -5.34016,6.21218 5.34016,0 0,1.1344 -6.93758,0 0,-1.29646 5.34016,-6.21217 -5.14724,0 0,-1.1344 z"
       style=""
       id="path130" />
    <path
       d="m 489.55325,182.75282 0,1.34276 q -0.60193,-0.30868 -1.25015,-0.46302 -0.64823,-0.15434 -1.34276,-0.15434 -1.05723,0 -1.5897,0.32411 -0.52476,0.32411 -0.52476,0.97234 0,0.49389 0.37814,0.77942 0.37813,0.27781 1.52024,0.53247 l 0.48617,0.10804 q 1.51253,0.32411 2.14533,0.91832 0.64051,0.58649 0.64051,1.64372 0,1.20385 -0.95691,1.9061 -0.94919,0.70224 -2.61606,0.70224 -0.69453,0 -1.45079,-0.1389 -0.74855,-0.13119 -1.58199,-0.40129 l 0,-1.46623 q 0.78714,0.409 1.55112,0.61736 0.76398,0.20065 1.51253,0.20065 1.00321,0 1.5434,-0.33955 0.54019,-0.34727 0.54019,-0.97234 0,-0.57878 -0.39357,-0.88746 -0.38585,-0.30868 -1.70546,-0.59421 l -0.49388,-0.11575 q -1.31961,-0.27781 -1.9061,-0.84887 -0.58649,-0.57877 -0.58649,-1.58198 0,-1.21929 0.8643,-1.88295 0.8643,-0.66366 2.454,-0.66366 0.78714,0 1.48167,0.11575 0.69453,0.11576 1.28102,0.34727 z"
       style=""
       id="path132" />
    <path
       d="m 499.67794,186.46469 0,0.69453 -6.52857,0 q 0.0926,1.46623 0.87973,2.23793 0.79485,0.76398 2.20706,0.76398 0.81801,0 1.58199,-0.20064 0.7717,-0.20064 1.52796,-0.60193 l 0,1.34276 q -0.76398,0.32411 -1.56655,0.49389 -0.80256,0.16977 -1.62828,0.16977 -2.06816,0 -3.27972,-1.20385 -1.20386,-1.20385 -1.20386,-3.25657 0,-2.12217 1.14212,-3.36461 1.14983,-1.25015 3.09451,-1.25015 1.74404,0 2.75497,1.12668 1.01864,1.11896 1.01864,3.04821 z m -1.41992,-0.41672 q -0.0154,-1.16526 -0.65595,-1.85979 -0.63279,-0.69453 -1.6823,-0.69453 -1.18842,0 -1.9061,0.67138 -0.70996,0.67138 -0.818,1.89066 l 5.06235,-0.008 z"
       style=""
       id="path134" />
    <path
       d="m 507.0168,183.82548 q -0.23922,-0.13891 -0.52475,-0.20064 -0.27781,-0.0695 -0.61736,-0.0695 -1.20385,0 -1.85208,0.78713 -0.64051,0.77942 -0.64051,2.24564 l 0,4.55303 -1.42764,0 0,-8.64303 1.42764,0 0,1.34275 q 0.44759,-0.78713 1.16527,-1.16526 0.71768,-0.38585 1.74404,-0.38585 0.14662,0 0.32411,0.0231 0.17749,0.0154 0.39357,0.054 l 0.008,1.45851 z"
       style=""
       id="path136" />
  </g>
  <g
     id="g52"
     transform="translate(-0.66365251,-8.8588181)">
    <path
       style="fill:#ffffff"
       d="m 620,210 80,0 0,70 -80,0 z"
       id="rect54" />
    <path
       style="fill:none;fill-opacity:0;stroke:#000000;stroke-width:2"
       d="m 620,210 80,0 0,70 -80,0 z"
       id="rect56" />
  </g>
  <g
     style="font-style:normal;font-weight:normal;font-size:15.80440044px;font-family:sans-serif;text-anchor:start;fill:#000000"
     id="text58">
    <path
       d="m 620.77173,179.13355 1.42764,0 0,7.09192 4.23663,-3.72731 1.81349,0 -4.58389,4.0437 4.77682,4.59933 -1.85208,0 -4.39097,-4.2212 0,4.2212 -1.42764,0 0,-12.00764 z"
       style=""
       id="path141" />
    <path
       d="m 636.83079,186.46469 0,0.69453 -6.52858,0 q 0.0926,1.46623 0.87974,2.23793 0.79485,0.76398 2.20706,0.76398 0.818,0 1.58198,-0.20064 0.7717,-0.20064 1.52797,-0.60193 l 0,1.34276 q -0.76399,0.32411 -1.56655,0.49389 -0.80257,0.16977 -1.62829,0.16977 -2.06815,0 -3.27972,-1.20385 -1.20385,-1.20385 -1.20385,-3.25657 0,-2.12217 1.14211,-3.36461 1.14984,-1.25015 3.09452,-1.25015 1.74404,0 2.75496,1.12668 1.01865,1.11896 1.01865,3.04821 z m -1.41993,-0.41672 q -0.0154,-1.16526 -0.65594,-1.85979 -0.6328,-0.69453 -1.68231,-0.69453 -1.18842,0 -1.9061,0.67138 -0.70996,0.67138 -0.818,1.89066 l 5.06235,-0.008 z"
       style=""
       id="path143" />
    <path
       d="m 638.54396,182.49816 6.74465,0 0,1.29645 -5.34016,6.21218 5.34016,0 0,1.1344 -6.93757,0 0,-1.29646 5.34015,-6.21217 -5.14723,0 0,-1.1344 z"
       style=""
       id="path145" />
    <path
       d="m 654.85768,186.46469 0,0.69453 -6.52858,0 q 0.0926,1.46623 0.87974,2.23793 0.79485,0.76398 2.20706,0.76398 0.818,0 1.58198,-0.20064 0.7717,-0.20064 1.52797,-0.60193 l 0,1.34276 q -0.76398,0.32411 -1.56655,0.49389 -0.80257,0.16977 -1.62829,0.16977 -2.06815,0 -3.27972,-1.20385 -1.20385,-1.20385 -1.20385,-3.25657 0,-2.12217 1.14212,-3.36461 1.14983,-1.25015 3.09451,-1.25015 1.74404,0 2.75497,1.12668 1.01864,1.11896 1.01864,3.04821 z m -1.41993,-0.41672 q -0.0154,-1.16526 -0.65594,-1.85979 -0.63279,-0.69453 -1.68231,-0.69453 -1.18841,0 -1.90609,0.67138 -0.70997,0.67138 -0.818,1.89066 l 5.06234,-0.008 z"
       style=""
       id="path147" />
    <path
       d="m 657.18821,179.13355 1.41993,0 0,12.00764 -1.41993,0 0,-12.00764 z"
       style=""
       id="path149" />
    <path
       d="m 662.97596,180.04415 0,2.45401 2.92474,0 0,1.10353 -2.92474,0 0,4.69193 q 0,1.05723 0.28553,1.35819 0.29324,0.30096 1.1807,0.30096 l 1.45851,0 0,1.18842 -1.45851,0 q -1.64372,0 -2.2688,-0.60964 -0.62508,-0.61736 -0.62508,-2.23793 l 0,-4.69193 -1.04179,0 0,-1.10353 1.04179,0 0,-2.45401 1.42765,0 z"
       style=""
       id="path151" />
    <path
       d="m 676.15658,183.49365 q -1.14211,0 -1.80577,0.89517 -0.66367,0.88746 -0.66367,2.43857 0,1.55112 0.65595,2.44629 0.66366,0.88745 1.81349,0.88745 1.1344,0 1.79806,-0.89517 0.66366,-0.89517 0.66366,-2.43857 0,-1.53568 -0.66366,-2.43085 -0.66366,-0.90289 -1.79806,-0.90289 z m 0,-1.20385 q 1.85208,0 2.90931,1.20385 1.05723,1.20385 1.05723,3.33374 0,2.12217 -1.05723,3.33374 -1.05723,1.20385 -2.90931,1.20385 -1.85979,0 -2.91702,-1.20385 -1.04951,-1.21157 -1.04951,-3.33374 0,-2.12989 1.04951,-3.33374 1.05723,-1.20385 2.91702,-1.20385 z"
       style=""
       id="path153" />
    <path
       d="m 688.67354,186.82739 q 0,-1.56655 -0.64822,-2.454 -0.64051,-0.89517 -1.7672,-0.89517 -1.12668,0 -1.7749,0.89517 -0.64051,0.88745 -0.64051,2.454 0,1.56655 0.64051,2.46172 0.64822,0.88746 1.7749,0.88746 1.12669,0 1.7672,-0.88746 0.64822,-0.89517 0.64822,-2.46172 z m -4.83083,-3.01734 q 0.44758,-0.7717 1.12668,-1.14212 0.68681,-0.37813 1.636,-0.37813 1.57427,0 2.55432,1.25015 0.98778,1.25015 0.98778,3.28744 0,2.03729 -0.98778,3.28744 -0.98005,1.25015 -2.55432,1.25015 -0.94919,0 -1.636,-0.37041 -0.6791,-0.37814 -1.12668,-1.14984 l 0,1.29646 -1.42765,0 0,-12.00764 1.42765,0 0,4.6765 z"
       style=""
       id="path155" />
    <path
       d="m 692.50117,182.49816 1.41992,0 0,8.79737 q 0,1.65144 -0.63279,2.39227 -0.62508,0.74083 -2.02185,0.74083 l -0.54019,0 0,-1.20385 0.37813,0 q 0.81029,0 1.10353,-0.37814 0.29325,-0.37041 0.29325,-1.55111 l 0,-8.79737 z m 0,-3.36461 1.41992,0 0,1.79806 -1.41992,0 0,-1.79806 z"
       style=""
       id="path157" />
    <path
       d="m 704.2773,186.46469 0,0.69453 -6.52857,0 q 0.0926,1.46623 0.87973,2.23793 0.79485,0.76398 2.20706,0.76398 0.818,0 1.58199,-0.20064 0.77169,-0.20064 1.52796,-0.60193 l 0,1.34276 q -0.76398,0.32411 -1.56655,0.49389 -0.80257,0.16977 -1.62828,0.16977 -2.06816,0 -3.27973,-1.20385 -1.20385,-1.20385 -1.20385,-3.25657 0,-2.12217 1.14212,-3.36461 1.14983,-1.25015 3.09451,-1.25015 1.74404,0 2.75497,1.12668 1.01864,1.11896 1.01864,3.04821 z m -1.41993,-0.41672 q -0.0154,-1.16526 -0.65594,-1.85979 -0.63279,-0.69453 -1.6823,-0.69453 -1.18842,0 -1.9061,0.67138 -0.70997,0.67138 -0.818,1.89066 l 5.06234,-0.008 z"
       style=""
       id="path159" />
    <path
       d="m 706.55381,179.13355 1.42765,0 0,7.09192 4.23663,-3.72731 1.81349,0 -4.58389,4.0437 4.77682,4.59933 -1.85208,0 -4.39097,-4.2212 0,4.2212 -1.42765,0 0,-12.00764 z"
       style=""
       id="path161" />
    <path
       d="m 717.18011,180.04415 0,2.45401 2.92474,0 0,1.10353 -2.92474,0 0,4.69193 q 0,1.05723 0.28553,1.35819 0.29325,0.30096 1.1807,0.30096 l 1.45851,0 0,1.18842 -1.45851,0 q -1.64372,0 -2.2688,-0.60964 -0.62507,-0.61736 -0.62507,-2.23793 l 0,-4.69193 -1.0418,0 0,-1.10353 1.0418,0 0,-2.45401 1.42764,0 z"
       style=""
       id="path163" />
    <path
       d="m 721.83346,187.73028 0,-5.23212 1.41992,0 0,5.1781 q 0,1.227 0.47846,1.84436 0.47845,0.60964 1.43536,0.60964 1.14983,0 1.81349,-0.73311 0.67138,-0.73311 0.67138,-1.9987 l 0,-4.90029 1.41993,0 0,8.64303 -1.41993,0 0,-1.32732 q -0.51704,0.78713 -1.20385,1.17298 -0.6791,0.37813 -1.58199,0.37813 -1.48938,0 -2.26107,-0.92604 -0.7717,-0.92604 -0.7717,-2.70866 z m 3.57296,-5.44048 0,0 z"
       style=""
       id="path165" />
    <path
       d="m 738.74139,184.15731 q 0.53247,-0.95691 1.2733,-1.41221 0.74083,-0.4553 1.74404,-0.4553 1.35047,0 2.08359,0.94919 0.73311,0.94147 0.73311,2.68551 l 0,5.21669 -1.42764,0 0,-5.17039 q 0,-1.24243 -0.43987,-1.84436 -0.43987,-0.60192 -1.34276,-0.60192 -1.10353,0 -1.74404,0.73311 -0.64051,0.73312 -0.64051,1.9987 l 0,4.88486 -1.42764,0 0,-5.17039 q 0,-1.25015 -0.43987,-1.84436 -0.43987,-0.60192 -1.35819,-0.60192 -1.0881,0 -1.72861,0.74083 -0.64051,0.73311 -0.64051,1.99098 l 0,4.88486 -1.42764,0 0,-8.64303 1.42764,0 0,1.34275 q 0.48617,-0.79485 1.16527,-1.17298 0.67909,-0.37813 1.61285,-0.37813 0.94147,0 1.59742,0.47845 0.66366,0.47846 0.98006,1.38906 z"
       style=""
       id="path167" />
  </g>
  <g
     style="font-style:normal;font-weight:normal;font-size:15.80440044px;font-family:sans-serif;text-anchor:start;fill:#000000"
     id="text62">
    <path
       d="m 432.19934,219.84473 0,4.5839 -1.42765,0 0,-11.93047 1.42765,0 0,1.31189 q 0.44758,-0.7717 1.12668,-1.14212 0.68681,-0.37813 1.636,-0.37813 1.57427,0 2.55433,1.25015 0.98777,1.25015 0.98777,3.28744 0,2.03729 -0.98777,3.28744 -0.98006,1.25015 -2.55433,1.25015 -0.94919,0 -1.636,-0.37041 -0.6791,-0.37814 -1.12668,-1.14984 z m 4.83084,-3.01734 q 0,-1.56655 -0.64823,-2.454 -0.64051,-0.89517 -1.76719,-0.89517 -1.12668,0 -1.77491,0.89517 -0.64051,0.88745 -0.64051,2.454 0,1.56655 0.64051,2.46172 0.64823,0.88746 1.77491,0.88746 1.12668,0 1.76719,-0.88746 0.64823,-0.89517 0.64823,-2.46172 z"
       style=""
       id="path170" />
    <path
       d="m 442.2623,210.04415 0,2.45401 2.92474,0 0,1.10353 -2.92474,0 0,4.69193 q 0,1.05723 0.28553,1.35819 0.29324,0.30096 1.1807,0.30096 l 1.45851,0 0,1.18842 -1.45851,0 q -1.64372,0 -2.2688,-0.60964 -0.62508,-0.61736 -0.62508,-2.23793 l 0,-4.69193 -1.04179,0 0,-1.10353 1.04179,0 0,-2.45401 1.42765,0 z"
       style=""
       id="path172" />
    <path
       d="m 452.0706,213.82548 q -0.23923,-0.13891 -0.52476,-0.20064 -0.27781,-0.0695 -0.61736,-0.0695 -1.20385,0 -1.85208,0.78713 -0.64051,0.77942 -0.64051,2.24564 l 0,4.55303 -1.42764,0 0,-8.64303 1.42764,0 0,1.34275 q 0.44759,-0.78713 1.16527,-1.16526 0.71768,-0.38585 1.74404,-0.38585 0.14662,0 0.32411,0.0231 0.17749,0.0154 0.39357,0.054 l 0.008,1.45851 z"
       style=""
       id="path174" />
    <path
       d="m 436.33565,232.50882 0,1.34275 q -0.60193,-0.30868 -1.25016,-0.46302 -0.64822,-0.15434 -1.34275,-0.15434 -1.05723,0 -1.5897,0.32412 -0.52476,0.32411 -0.52476,0.97234 0,0.49389 0.37813,0.77941 0.37814,0.27782 1.52025,0.53248 l 0.48617,0.10803 q 1.51253,0.32412 2.14533,0.91833 0.64051,0.58649 0.64051,1.64372 0,1.20385 -0.95691,1.90609 -0.94919,0.70225 -2.61606,0.70225 -0.69453,0 -1.4508,-0.13891 -0.74854,-0.13119 -1.58198,-0.40128 l 0,-1.46623 q 0.78713,0.409 1.55112,0.61736 0.76398,0.20064 1.51253,0.20064 1.00321,0 1.54339,-0.33955 0.54019,-0.34726 0.54019,-0.97234 0,-0.57877 -0.39356,-0.88745 -0.38585,-0.30868 -1.70546,-0.59421 l -0.49389,-0.11575 q -1.3196,-0.27782 -1.90609,-0.84887 -0.58649,-0.57878 -0.58649,-1.58199 0,-1.21928 0.8643,-1.88294 0.8643,-0.66366 2.454,-0.66366 0.78714,0 1.48167,0.11575 0.69452,0.11576 1.28102,0.34727 z"
       style=""
       id="path176" />
    <path
       d="m 446.25198,235.6805 0,5.21669 -1.41993,0 0,-5.17039 q 0,-1.227 -0.47845,-1.83664 -0.47845,-0.60965 -1.43536,-0.60965 -1.14983,0 -1.81349,0.73312 -0.66366,0.73311 -0.66366,1.9987 l 0,4.88486 -1.42765,0 0,-12.00764 1.42765,0 0,4.70736 q 0.50932,-0.77941 1.19613,-1.16526 0.69453,-0.38585 1.59742,-0.38585 1.48938,0 2.25336,0.92604 0.76398,0.91832 0.76398,2.70866 z"
       style=""
       id="path178" />
    <path
       d="m 453.0275,236.55252 q -1.72089,0 -2.38455,0.39357 -0.66366,0.39356 -0.66366,1.34275 0,0.75627 0.49389,1.20385 0.5016,0.43987 1.35819,0.43987 1.1807,0 1.89066,-0.83343 0.71768,-0.84116 0.71768,-2.23021 l 0,-0.3164 -1.41221,0 z m 2.83214,-0.58649 0,4.93116 -1.41993,0 0,-1.31189 q -0.48617,0.78713 -1.21157,1.16526 -0.72539,0.37042 -1.77491,0.37042 -1.32732,0 -2.11445,-0.74083 -0.77942,-0.74855 -0.77942,-1.9987 0,-1.45851 0.97234,-2.19935 0.98006,-0.74083 2.91703,-0.74083 l 1.99098,0 0,-0.1389 q 0,-0.98006 -0.64823,-1.51253 -0.64051,-0.54019 -1.80577,-0.54019 -0.74083,0 -1.44308,0.17749 -0.70225,0.17749 -1.35047,0.53247 l 0,-1.31189 q 0.77941,-0.30096 1.51253,-0.44758 0.73311,-0.15434 1.42764,-0.15434 1.87523,0 2.80127,0.97234 0.92604,0.97234 0.92604,2.94789 z"
       style=""
       id="path180" />
    <path
       d="m 463.80042,233.58148 q -0.23922,-0.13891 -0.52475,-0.20064 -0.27781,-0.0695 -0.61736,-0.0695 -1.20385,0 -1.85208,0.78714 -0.64051,0.77941 -0.64051,2.24564 l 0,4.55303 -1.42764,0 0,-8.64304 1.42764,0 0,1.34276 q 0.44759,-0.78713 1.16527,-1.16526 0.71768,-0.38585 1.74404,-0.38585 0.14662,0 0.32411,0.0231 0.17749,0.0154 0.39357,0.054 l 0.008,1.45851 z"
       style=""
       id="path182" />
    <path
       d="m 472.35857,236.22069 0,0.69453 -6.52858,0 q 0.0926,1.46623 0.87974,2.23793 0.79485,0.76398 2.20706,0.76398 0.818,0 1.58198,-0.20064 0.7717,-0.20065 1.52796,-0.60193 l 0,1.34276 q -0.76398,0.32411 -1.56654,0.49389 -0.80257,0.16977 -1.62829,0.16977 -2.06815,0 -3.27972,-1.20385 -1.20385,-1.20385 -1.20385,-3.25657 0,-2.12218 1.14211,-3.36461 1.14983,-1.25015 3.09452,-1.25015 1.74404,0 2.75496,1.12668 1.01865,1.11896 1.01865,3.04821 z m -1.41993,-0.41672 q -0.0154,-1.16526 -0.65595,-1.85979 -0.63279,-0.69453 -1.6823,-0.69453 -1.18842,0 -1.9061,0.67138 -0.70996,0.67137 -0.818,1.89066 l 5.06235,-0.008 z"
       style=""
       id="path184" />
    <path
       d="m 480.37652,233.56604 0,-4.67649 1.41993,0 0,12.00764 -1.41993,0 0,-1.29646 q -0.44758,0.7717 -1.1344,1.14983 -0.67909,0.37042 -1.636,0.37042 -1.56655,0 -2.55432,-1.25015 -0.98006,-1.25016 -0.98006,-3.28744 0,-2.03729 0.98006,-3.28744 0.98777,-1.25015 2.55432,-1.25015 0.95691,0 1.636,0.37813 0.68682,0.37041 1.1344,1.14211 z m -4.83855,3.01735 q 0,1.56655 0.64051,2.46172 0.64822,0.88745 1.77491,0.88745 1.12668,0 1.7749,-0.88745 0.64823,-0.89517 0.64823,-2.46172 0,-1.56655 -0.64823,-2.45401 -0.64822,-0.89517 -1.7749,-0.89517 -1.12669,0 -1.77491,0.89517 -0.64051,0.88746 -0.64051,2.45401 z"
       style=""
       id="path186" />
    <path
       d="m 491.28835,243.52096 0,1.10353 -8.21088,0 0,-1.10353 8.21088,0 z"
       style=""
       id="path188" />
    <path
       d="m 498.84329,232.58599 0,1.32732 q -0.60193,-0.33183 -1.21157,-0.49389 -0.60193,-0.16977 -1.21929,-0.16977 -1.38134,0 -2.14532,0.87973 -0.76398,0.87202 -0.76398,2.45401 0,1.58198 0.76398,2.46172 0.76398,0.87202 2.14532,0.87202 0.61736,0 1.21929,-0.16206 0.60964,-0.16977 1.21157,-0.5016 l 0,1.31189 q -0.59421,0.27781 -1.23472,0.41671 -0.6328,0.13891 -1.35048,0.13891 -1.9524,0 -3.10223,-1.227 -1.14983,-1.227 -1.14983,-3.31059 0,-2.11446 1.15755,-3.32603 1.16527,-1.21156 3.18712,-1.21156 0.65594,0 1.28102,0.1389 0.62507,0.13119 1.21157,0.40129 z"
       style=""
       id="path190" />
    <path
       d="m 504.67733,233.24965 q -1.14212,0 -1.80578,0.89517 -0.66366,0.88745 -0.66366,2.43857 0,1.55111 0.65595,2.44628 0.66366,0.88746 1.81349,0.88746 1.1344,0 1.79806,-0.89517 0.66366,-0.89517 0.66366,-2.43857 0,-1.53568 -0.66366,-2.43086 -0.66366,-0.90288 -1.79806,-0.90288 z m 0,-1.20385 q 1.85208,0 2.90931,1.20385 1.05722,1.20385 1.05722,3.33374 0,2.12217 -1.05722,3.33374 -1.05723,1.20385 -2.90931,1.20385 -1.8598,0 -2.91702,-1.20385 -1.04951,-1.21157 -1.04951,-3.33374 0,-2.12989 1.04951,-3.33374 1.05722,-1.20385 2.91702,-1.20385 z"
       style=""
       id="path192" />
    <path
       d="m 510.84321,237.48628 0,-5.23213 1.41992,0 0,5.17811 q 0,1.227 0.47846,1.84436 0.47845,0.60964 1.43536,0.60964 1.14983,0 1.81349,-0.73311 0.67138,-0.73312 0.67138,-1.99871 l 0,-4.90029 1.41993,0 0,8.64304 -1.41993,0 0,-1.32733 q -0.51704,0.78714 -1.20385,1.17299 -0.6791,0.37813 -1.58199,0.37813 -1.48937,0 -2.26107,-0.92604 -0.7717,-0.92604 -0.7717,-2.70866 z m 3.57296,-5.44048 0,0 z"
       style=""
       id="path194" />
    <path
       d="m 528.20644,235.6805 0,5.21669 -1.41993,0 0,-5.17039 q 0,-1.227 -0.47845,-1.83664 -0.47845,-0.60965 -1.43536,-0.60965 -1.14983,0 -1.8135,0.73312 -0.66366,0.73311 -0.66366,1.9987 l 0,4.88486 -1.42764,0 0,-8.64304 1.42764,0 0,1.34276 q 0.50933,-0.77941 1.19614,-1.16526 0.69453,-0.38585 1.59741,-0.38585 1.48938,0 2.25337,0.92604 0.76398,0.91832 0.76398,2.70866 z"
       style=""
       id="path196" />
    <path
       d="m 532.4585,229.80015 0,2.454 2.92474,0 0,1.10353 -2.92474,0 0,4.69194 q 0,1.05722 0.28553,1.35819 0.29325,0.30096 1.1807,0.30096 l 1.45851,0 0,1.18842 -1.45851,0 q -1.64372,0 -2.2688,-0.60965 -0.62507,-0.61736 -0.62507,-2.23792 l 0,-4.69194 -1.0418,0 0,-1.10353 1.0418,0 0,-2.454 1.42764,0 z"
       style=""
       id="path198" />
    <path
       d="m 537.62117,238.93707 1.62829,0 0,1.96012 -1.62829,0 0,-1.96012 z m 0,-6.21218 1.62829,0 0,1.96012 -1.62829,0 0,-1.96012 z"
       style=""
       id="path200" />
    <path
       d="m 549.17351,239.5853 5.44048,0 0,1.31189 -7.31571,0 0,-1.31189 q 0.88745,-0.91832 2.41542,-2.46172 1.53568,-1.55112 1.92925,-1.9987 0.74855,-0.84116 1.04179,-1.41993 0.30096,-0.58649 0.30096,-1.14983 0,-0.91832 -0.64822,-1.4971 -0.64051,-0.57877 -1.67459,-0.57877 -0.73311,0 -1.55112,0.25466 -0.81028,0.25466 -1.73632,0.7717 l 0,-1.57427 q 0.94147,-0.37813 1.75947,-0.57106 0.81801,-0.19292 1.4971,-0.19292 1.79034,0 2.85529,0.89517 1.06494,0.89517 1.06494,2.39227 0,0.70996 -0.27009,1.35047 -0.26238,0.63279 -0.96463,1.4971 -0.19292,0.22379 -1.227,1.29645 -1.03407,1.06495 -2.91702,2.98648 z"
       style=""
       id="path202" />
    <path
       d="m 430,252.00913 1.41992,0 1.77491,6.74465 1.76719,-6.74465 1.67459,0 1.77491,6.74465 1.76719,-6.74465 1.41993,0 -2.26108,8.64303 -1.67459,0 -1.8598,-7.0842 -1.86751,7.0842 -1.67459,0 L 430,252.00913 Z"
       style=""
       id="path204" />
    <path
       d="m 451.15227,255.97566 0,0.69453 -6.52857,0 q 0.0926,1.46623 0.87973,2.23793 0.79485,0.76398 2.20706,0.76398 0.818,0 1.58199,-0.20064 0.7717,-0.20064 1.52796,-0.60192 l 0,1.34275 q -0.76398,0.32412 -1.56655,0.49389 -0.80257,0.16977 -1.62828,0.16977 -2.06816,0 -3.27973,-1.20385 -1.20385,-1.20385 -1.20385,-3.25657 0,-2.12217 1.14212,-3.36461 1.14983,-1.25015 3.09451,-1.25015 1.74404,0 2.75497,1.12668 1.01864,1.11897 1.01864,3.04821 z m -1.41992,-0.41671 q -0.0154,-1.16527 -0.65595,-1.8598 -0.63279,-0.69453 -1.6823,-0.69453 -1.18842,0 -1.9061,0.67138 -0.70996,0.67138 -0.818,1.89066 l 5.06235,-0.008 z"
       style=""
       id="path206" />
    <path
       d="m 457.41075,256.30749 q -1.72089,0 -2.38455,0.39357 -0.66366,0.39357 -0.66366,1.34276 0,0.75626 0.49389,1.20385 0.5016,0.43987 1.35819,0.43987 1.1807,0 1.89066,-0.83344 0.71768,-0.84115 0.71768,-2.23021 l 0,-0.3164 -1.41221,0 z m 2.83214,-0.58649 0,4.93116 -1.41993,0 0,-1.31189 q -0.48617,0.78714 -1.21157,1.16527 -0.72539,0.37041 -1.7749,0.37041 -1.32733,0 -2.11446,-0.74083 -0.77942,-0.74855 -0.77942,-1.9987 0,-1.45851 0.97234,-2.19934 0.98006,-0.74083 2.91703,-0.74083 l 1.99098,0 0,-0.13891 q 0,-0.98006 -0.64823,-1.51253 -0.64051,-0.54019 -1.80577,-0.54019 -0.74083,0 -1.44308,0.17749 -0.70225,0.17749 -1.35047,0.53247 l 0,-1.31188 q 0.77941,-0.30097 1.51253,-0.44759 0.73311,-0.15434 1.42764,-0.15434 1.87523,0 2.80127,0.97234 0.92604,0.97234 0.92604,2.94789 z"
       style=""
       id="path208" />
    <path
       d="m 463.12133,248.64452 1.42764,0 0,7.09192 4.23663,-3.72731 1.81349,0 -4.58389,4.0437 4.77682,4.59933 -1.85208,0 -4.39097,-4.22119 0,4.22119 -1.42764,0 0,-12.00764 z"
       style=""
       id="path210" />
    <path
       d="m 478.91029,263.27594 0,1.10353 -8.21088,0 0,-1.10353 8.21088,0 z"
       style=""
       id="path212" />
    <path
       d="m 486.46523,252.34096 0,1.32732 q -0.60193,-0.33183 -1.21157,-0.49388 -0.60192,-0.16978 -1.21928,-0.16978 -1.38134,0 -2.14533,0.87974 -0.76398,0.87202 -0.76398,2.454 0,1.58199 0.76398,2.46172 0.76399,0.87202 2.14533,0.87202 0.61736,0 1.21928,-0.16205 0.60964,-0.16978 1.21157,-0.50161 l 0,1.31189 q -0.59421,0.27781 -1.23472,0.41672 -0.63279,0.1389 -1.35047,0.1389 -1.9524,0 -3.10223,-1.227 -1.14984,-1.227 -1.14984,-3.31059 0,-2.11445 1.15755,-3.32602 1.16527,-1.21157 3.18712,-1.21157 0.65595,0 1.28102,0.13891 0.62508,0.13119 1.21157,0.40128 z"
       style=""
       id="path214" />
    <path
       d="m 492.29927,253.00462 q -1.14211,0 -1.80577,0.89517 -0.66366,0.88746 -0.66366,2.43857 0,1.55112 0.65594,2.44629 0.66366,0.88745 1.81349,0.88745 1.1344,0 1.79806,-0.89517 0.66366,-0.89517 0.66366,-2.43857 0,-1.53568 -0.66366,-2.43085 -0.66366,-0.90289 -1.79806,-0.90289 z m 0,-1.20385 q 1.85208,0 2.90931,1.20385 1.05723,1.20385 1.05723,3.33374 0,2.12217 -1.05723,3.33374 -1.05723,1.20385 -2.90931,1.20385 -1.85979,0 -2.91702,-1.20385 -1.04951,-1.21157 -1.04951,-3.33374 0,-2.12989 1.04951,-3.33374 1.05723,-1.20385 2.91702,-1.20385 z"
       style=""
       id="path216" />
    <path
       d="m 498.46516,257.24125 0,-5.23212 1.41992,0 0,5.1781 q 0,1.227 0.47846,1.84436 0.47845,0.60964 1.43536,0.60964 1.14983,0 1.81349,-0.73311 0.67138,-0.73311 0.67138,-1.9987 l 0,-4.90029 1.41992,0 0,8.64303 -1.41992,0 0,-1.32732 q -0.51704,0.78713 -1.20385,1.17298 -0.6791,0.37813 -1.58199,0.37813 -1.48938,0 -2.26108,-0.92604 -0.77169,-0.92603 -0.77169,-2.70866 z m 3.57296,-5.44048 0,0 z"
       style=""
       id="path218" />
    <path
       d="m 515.82839,255.43547 0,5.21669 -1.41993,0 0,-5.17038 q 0,-1.22701 -0.47845,-1.83665 -0.47846,-0.60964 -1.43536,-0.60964 -1.14984,0 -1.8135,0.73311 -0.66366,0.73312 -0.66366,1.9987 l 0,4.88486 -1.42764,0 0,-8.64303 1.42764,0 0,1.34276 q 0.50932,-0.77942 1.19614,-1.16527 0.69452,-0.38585 1.59741,-0.38585 1.48938,0 2.25336,0.92604 0.76399,0.91832 0.76399,2.70866 z"
       style=""
       id="path220" />
    <path
       d="m 520.08045,249.55513 0,2.454 2.92474,0 0,1.10353 -2.92474,0 0,4.69193 q 0,1.05723 0.28553,1.35819 0.29324,0.30096 1.1807,0.30096 l 1.45851,0 0,1.18842 -1.45851,0 q -1.64372,0 -2.2688,-0.60964 -0.62507,-0.61736 -0.62507,-2.23793 l 0,-4.69193 -1.0418,0 0,-1.10353 1.0418,0 0,-2.454 1.42764,0 z"
       style=""
       id="path222" />
    <path
       d="m 525.24312,258.69204 1.62828,0 0,1.96012 -1.62828,0 0,-1.96012 z m 0,-6.21217 1.62828,0 0,1.96011 -1.62828,0 0,-1.96011 z"
       style=""
       id="path224" />
    <path
       d="m 535.72279,259.34027 2.54661,0 0,-8.78965 -2.7704,0.55562 0,-1.41993 2.75496,-0.55562 1.55883,0 0,10.20958 2.54661,0 0,1.31189 -6.63661,0 0,-1.31189 z"
       style=""
       id="path226" />
  </g>
  <g
     id="g70"
     transform="translate(-0.66365251,-8.8588181)">
    <path
       style="fill:none;fill-opacity:0;stroke:#000000;stroke-width:2"
       d="m 341.009,193.562 74.38401,24.065"
       id="line72" />
    <path
       style="fill:none;fill-opacity:0;stroke:#000000;stroke-width:2"
       d="m 406.467,219.995 11.054,-1.679 -7.975,-7.836"
       id="polyline74" />
  </g>
  <g
     id="g76"
     transform="translate(-0.66365251,-8.8588181)">
    <path
       style="fill:none;fill-opacity:0;stroke:#000000;stroke-width:2"
       d="m 341.009,221.619 74.215,10.914"
       id="line78" />
    <path
       style="fill:none;fill-opacity:0;stroke:#000000;stroke-width:2"
       d="m 406.815,236.35 10.621,-3.492 -9.166,-6.401"
       id="polyline80" />
  </g>
  <g
     id="g82"
     transform="translate(-0.66365251,-8.8588181)">
    <path
       style="fill:none;fill-opacity:0;stroke:#000000;stroke-width:2"
       d="m 341.009,305.79099 74.46201,-28.47098"
       id="line84" />
    <path
       style="fill:none;fill-opacity:0;stroke:#000000;stroke-width:2"
       d="m 410.005,284.763 7.555,-8.242 -11.126,-1.099"
       id="polyline86" />
  </g>
  <g
     id="g88"
     transform="translate(-0.66365251,-8.8588181)">
    <path
       style="fill:none;fill-opacity:0;stroke:#000000;stroke-width:2"
       d="m 580.97699,245 33.57404,0"
       id="line90" />
    <path
       style="fill:none;fill-opacity:0;stroke:#000000;stroke-width:2"
       d="m 606.787,250 10,-5 -10,-5"
       id="polyline92" />
  </g>
</svg>
