<?xml version="1.0" encoding="UTF-8" standalone="no"?>
<!-- Created with Inkscape (http://www.inkscape.org/) -->
<svg id="svg2" xmlns:rdf="http://www.w3.org/1999/02/22-rdf-syntax-ns#" xmlns="http://www.w3.org/2000/svg" height="682.31" width="669.69" version="1.1" xmlns:cc="http://creativecommons.org/ns#" xmlns:dc="http://purl.org/dc/elements/1.1/" viewBox="257 99 362.88 385.1267">
 <metadata id="metadata104">
  <rdf:RDF>
   <cc:Work rdf:about="">
    <dc:format>image/svg+xml</dc:format>
    <dc:type rdf:resource="http://purl.org/dc/dcmitype/StillImage"/>
   </cc:Work>
  </rdf:RDF>
 </metadata>
 <g id="g4" transform="translate(-8.56 -11)">
  <path id="ellipse6" fill="#fff" d="m616 118c0 3.3137-2.6863 6-6 6s-6-2.6863-6-6 2.6863-6 6-6 6 2.6863 6 6z"/>
  <path id="ellipse8" d="m616 118c0 3.3137-2.6863 6-6 6s-6-2.6863-6-6 2.6863-6 6-6 6 2.6863 6 6z" stroke="#000" stroke-width="4" fill="none"/>
  <path id="line10" d="m586 130h48" stroke="#000" stroke-width="4" fill="none"/>
  <path id="line12" d="m610 124v30" stroke="#000" stroke-width="4" fill="none"/>
  <path id="line14" d="m610 154-24 26" stroke="#000" stroke-width="4" fill="none"/>
  <path id="line16" d="m610 154 24 26" stroke="#000" stroke-width="4" fill="none"/>
  <g id="text18">
   <path id="path3037" style="" d="m600.76 209.23v5.8936h-1.8355v-15.339h1.8355v1.6867c0.38365-0.66145 0.86651-1.1509 1.4486-1.4684 0.58869-0.32411 1.2898-0.48617 2.1034-0.48618 1.3494 0.00001 2.4441 0.5358 3.2841 1.6074 0.84665 1.0716 1.27 2.4805 1.27 4.2267-0.00002 1.7462-0.42335 3.1552-1.27 4.2267-0.84007 1.0716-1.9348 1.6074-3.2841 1.6074-0.8136 0-1.5148-0.15875-2.1034-0.47625-0.58209-0.32412-1.065-0.8169-1.4486-1.4784m6.2111-3.8794c-0.00001-1.3428-0.27782-2.3945-0.83344-3.1552-0.54902-0.76728-1.3064-1.1509-2.2721-1.1509-0.96573 0.00001-1.7264 0.38366-2.282 1.1509-0.54901 0.76068-0.82352 1.8124-0.82352 3.1552s0.27451 2.3978 0.82352 3.1651c0.55562 0.76068 1.3163 1.141 2.282 1.141 0.96572 0 1.7231-0.38034 2.2721-1.141 0.55562-0.76728 0.83343-1.8223 0.83344-3.1651"/>
   <path id="path3039" style="" d="m612.5 209.21h3.2742v-11.301l-3.562 0.71437v-1.8256l3.5421-0.71438h2.0042v13.127h3.2742v1.6867h-8.5328v-1.6867"/>
  </g>
 </g>
 <g id="g22" transform="translate(-8.56 -11)">
  <path id="ellipse24" fill="#fff" d="m616 258c0 3.3137-2.6863 6-6 6s-6-2.6863-6-6 2.6863-6 6-6 6 2.6863 6 6z"/>
  <path id="ellipse26" d="m616 258c0 3.3137-2.6863 6-6 6s-6-2.6863-6-6 2.6863-6 6-6 6 2.6863 6 6z" stroke="#000" stroke-width="4" fill="none"/>
  <path id="line28" d="m586 270h48" stroke="#000" stroke-width="4" fill="none"/>
  <path id="line30" d="m610 264v30" stroke="#000" stroke-width="4" fill="none"/>
  <path id="line32" d="m610 294-24 26" stroke="#000" stroke-width="4" fill="none"/>
  <path id="line34" d="m610 294 24 26" stroke="#000" stroke-width="4" fill="none"/>
  <g id="text36">
   <path id="path3048" style="" d="m600.76 349.23v5.8936h-1.8355v-15.339h1.8355v1.6867c0.38365-0.66145 0.86651-1.1509 1.4486-1.4684 0.58869-0.32411 1.2898-0.48617 2.1034-0.48618 1.3494 0.00001 2.4441 0.5358 3.2841 1.6074 0.84665 1.0716 1.27 2.4805 1.27 4.2267-0.00002 1.7462-0.42335 3.1552-1.27 4.2267-0.84007 1.0716-1.9348 1.6074-3.2841 1.6074-0.8136 0-1.5148-0.15875-2.1034-0.47625-0.58209-0.32412-1.065-0.8169-1.4486-1.4784m6.2111-3.8794c-0.00001-1.3428-0.27782-2.3945-0.83344-3.1552-0.54902-0.76728-1.3064-1.1509-2.2721-1.1509-0.96573 0.00001-1.7264 0.38366-2.282 1.1509-0.54901 0.76068-0.82352 1.8124-0.82352 3.1552s0.27451 2.3978 0.82352 3.1651c0.55562 0.76068 1.3163 1.141 2.282 1.141 0.96572 0 1.7231-0.38034 2.2721-1.141 0.55562-0.76728 0.83343-1.8223 0.83344-3.1651"/>
   <path id="path3050" style="" d="m613.88 349.21h6.9949v1.6867h-9.4059v-1.6867c0.76067-0.78714 1.7958-1.8422 3.1055-3.1651 1.3163-1.3295 2.1431-2.1861 2.4805-2.5698 0.64161-0.72098 1.0881-1.3295 1.3395-1.8256 0.25796-0.5027 0.38694-0.99549 0.38695-1.4784-0.00001-0.78713-0.27782-1.4287-0.83344-1.9248-0.54902-0.49608-1.2667-0.74412-2.153-0.74414-0.6284 0.00002-1.2932 0.10916-1.9943 0.32742-0.69454 0.2183-1.4387 0.54903-2.2324 0.99219v-2.0241c0.80697-0.3241 1.561-0.56884 2.2622-0.73422 0.70115-0.16535 1.3428-0.24803 1.9248-0.24805 1.5346 0.00002 2.7583 0.38366 3.6711 1.1509 0.9128 0.76731 1.3692 1.7926 1.3692 3.0758-0.00001 0.60855-0.11577 1.1873-0.34727 1.7363-0.2249 0.54241-0.63831 1.184-1.2402 1.9248-0.16537 0.19183-0.69123 0.74746-1.5776 1.6669-0.88636 0.91282-2.1365 2.1927-3.7505 3.8398"/>
  </g>
 </g>
 <g id="g40" transform="translate(-8.56 -11)">
  <path id="ellipse42" fill="#fff" d="m616 398c0 3.3137-2.6863 6-6 6s-6-2.6863-6-6 2.6863-6 6-6 6 2.6863 6 6z"/>
  <path id="ellipse44" d="m616 398c0 3.3137-2.6863 6-6 6s-6-2.6863-6-6 2.6863-6 6-6 6 2.6863 6 6z" stroke="#000" stroke-width="4" fill="none"/>
  <path id="line46" d="m586 410h48" stroke="#000" stroke-width="4" fill="none"/>
  <path id="line48" d="m610 404v30" stroke="#000" stroke-width="4" fill="none"/>
  <path id="line50" d="m610 434-24 26" stroke="#000" stroke-width="4" fill="none"/>
  <path id="line52" d="m610 434 24 26" stroke="#000" stroke-width="4" fill="none"/>
  <g id="text54">
   <path id="path3059" style="" d="m600.76 489.23v5.8936h-1.8355v-15.339h1.8355v1.6867c0.38365-0.66145 0.86651-1.1509 1.4486-1.4684 0.58869-0.32411 1.2898-0.48617 2.1034-0.48618 1.3494 0.00001 2.4441 0.5358 3.2841 1.6074 0.84665 1.0716 1.27 2.4805 1.27 4.2267-0.00002 1.7462-0.42335 3.1552-1.27 4.2267-0.84007 1.0716-1.9348 1.6074-3.2841 1.6074-0.8136 0-1.5148-0.15875-2.1034-0.47625-0.58209-0.32412-1.065-0.8169-1.4486-1.4784m6.2111-3.8794c-0.00001-1.3428-0.27782-2.3945-0.83344-3.1552-0.54902-0.76728-1.3064-1.1509-2.2721-1.1509-0.96573 0.00001-1.7264 0.38366-2.282 1.1509-0.54901 0.76068-0.82352 1.8124-0.82352 3.1552s0.27451 2.3978 0.82352 3.1651c0.55562 0.76068 1.3163 1.141 2.282 1.141 0.96572 0 1.7231-0.38034 2.2721-1.141 0.55562-0.76728 0.83343-1.8223 0.83344-3.1651"/>
   <path id="path3061" style="" d="m618.23 482.91c0.95911 0.20506 1.7066 0.6317 2.2424 1.2799 0.54238 0.64823 0.81358 1.4486 0.81359 2.4011-0.00001 1.4618-0.50272 2.5929-1.5081 3.3933-1.0054 0.80037-2.4342 1.2006-4.2862 1.2006-0.62178 0-1.2634-0.0628-1.9248-0.18852-0.65484-0.11906-1.3328-0.30096-2.034-0.5457v-1.9348c0.55562 0.32412 1.1642 0.56886 1.8256 0.73422 0.66146 0.16537 1.3527 0.24805 2.0737 0.24805 1.2568 0 2.2126-0.24805 2.8674-0.74414 0.66145-0.49609 0.99218-1.2171 0.99219-2.163-0.00001-0.87312-0.30759-1.5544-0.92274-2.0439-0.60855-0.49608-1.4585-0.74413-2.5499-0.74414h-1.7264v-1.647h1.8058c0.98557 0.00001 1.7396-0.19512 2.2622-0.58539 0.52254-0.39686 0.78382-0.96572 0.78383-1.7066-0.00001-0.76067-0.27121-1.3428-0.81359-1.7462-0.53579-0.41009-1.3064-0.61514-2.3118-0.61516-0.54902 0.00002-1.1377 0.0595-1.7661 0.1786-0.62839 0.11907-1.3196 0.30428-2.0737 0.55562v-1.7859c0.76068-0.21165 1.4717-0.3704 2.1332-0.47625 0.66806-0.10581 1.2964-0.15873 1.8852-0.15875 1.5214 0.00002 2.7252 0.34728 3.6116 1.0418 0.88634 0.68793 1.3295 1.6206 1.3295 2.798-0.00001 0.82022-0.23483 1.5148-0.70446 2.0836-0.46964 0.56225-1.1377 0.95251-2.0042 1.1708"/>
  </g>
 </g>
 <g id="g58" transform="translate(-8.56 -11)">
  <path id="rect60" fill="#fff" d="m260 140h180v260h-180z"/>
  <path id="rect62" d="m260 140h180v260h-180z" stroke="#000" stroke-width="4" fill="none"/>
 </g>
 <g id="g64" stroke="#000" stroke-width="4" fill="none" transform="translate(-8.56 -11)">
  <path id="line66" d="m460 160 91.695-36.678"/>
  <path id="polyline68" d="m548.42 130.02 7.428-8.356-11.142-0.929"/>
 </g>
 <g id="g70" stroke="#000" stroke-width="4" fill="none" transform="translate(-8.56 -11)">
  <path id="line72" d="m560 140-91.695 36.678"/>
  <path id="polyline74" d="m471.58 169.98-7.428 8.356 11.142 0.929"/>
 </g>
 <g id="g76" stroke="#000" stroke-width="4" fill="none" transform="translate(-8.56 -11)">
  <path id="line78" d="m460 260h91.056"/>
  <path id="polyline80" d="m545.53 265 10-5-10-5"/>
 </g>
 <g id="g82" stroke="#000" stroke-width="4" fill="none" transform="translate(-8.56 -11)">
  <path id="line84" d="m560 280h-91.056"/>
  <path id="polyline86" d="m474.47 275-10 5 10 5"/>
 </g>
 <g id="g88" stroke="#000" stroke-width="4" fill="none" transform="translate(-8.56 -11)">
  <path id="line90" d="m460 360 91.695 36.678"/>
  <path id="polyline92" d="m544.71 399.27 11.142-0.929-7.428-8.356"/>
 </g>
 <g id="g94" stroke="#000" stroke-width="4" fill="none" transform="translate(-8.56 -11)">
  <path id="line96" d="m560 420-91.7-36.68"/>
  <path id="polyline98" d="m475.29 380.73-11.142 0.929 7.428 8.356"/>
 </g>
</svg>
