<svg width="320.000000" height="240.000000" xmlns="http://www.w3.org/2000/svg"><line x1="60.000000" y1="970.000000" x2="62.000000" y2="912.330000" stroke="blue" /><line x1="62.000000" y1="912.330000" x2="64.000000" y2="857.280000" stroke="blue" /><line x1="64.000000" y1="857.280000" x2="66.000000" y2="804.790000" stroke="blue" /><line x1="66.000000" y1="804.790000" x2="68.000000" y2="754.800000" stroke="blue" /><line x1="68.000000" y1="754.800000" x2="70.000000" y2="707.250000" stroke="blue" /><line x1="70.000000" y1="707.250000" x2="72.000000" y2="662.080000" stroke="blue" /><line x1="72.000000" y1="662.080000" x2="74.000000" y2="619.230000" stroke="blue" /><line x1="74.000000" y1="619.230000" x2="76.000000" y2="578.640000" stroke="blue" /><line x1="76.000000" y1="578.640000" x2="78.000000" y2="540.250000" stroke="blue" /><line x1="78.000000" y1="540.250000" x2="80.000000" y2="504.000000" stroke="blue" /><line x1="80.000000" y1="504.000000" x2="82.000000" y2="469.830000" stroke="blue" /><line x1="82.000000" y1="469.830000" x2="84.000000" y2="437.680000" stroke="blue" /><line x1="84.000000" y1="437.680000" x2="86.000000" y2="407.490000" stroke="blue" /><line x1="86.000000" y1="407.490000" x2="88.000000" y2="379.200000" stroke="blue" /><line x1="88.000000" y1="379.200000" x2="90.000000" y2="352.750000" stroke="blue" /><line x1="90.000000" y1="352.750000" x2="92.000000" y2="328.080000" stroke="blue" /><line x1="92.000000" y1="328.080000" x2="94.000000" y2="305.130000" stroke="blue" /><line x1="94.000000" y1="305.130000" x2="96.000000" y2="283.840000" stroke="blue" /><line x1="96.000000" y1="283.840000" x2="98.000000" y2="264.150000" stroke="blue" /><line x1="98.000000" y1="264.150000" x2="100.000000" y2="246.000000" stroke="blue" /><line x1="100.000000" y1="246.000000" x2="102.000000" y2="229.330000" stroke="blue" /><line x1="102.000000" y1="229.330000" x2="104.000000" y2="214.080000" stroke="blue" /><line x1="104.000000" y1="214.080000" x2="106.000000" y2="200.190000" stroke="blue" /><line x1="106.000000" y1="200.190000" x2="108.000000" y2="187.600000" stroke="blue" /><line x1="108.000000" y1="187.600000" x2="110.000000" y2="176.250000" stroke="blue" /><line x1="110.000000" y1="176.250000" x2="112.000000" y2="166.080000" stroke="blue" /><line x1="112.000000" y1="166.080000" x2="114.000000" y2="157.030000" stroke="blue" /><line x1="114.000000" y1="157.030000" x2="116.000000" y2="149.040000" stroke="blue" /><line x1="116.000000" y1="149.040000" x2="118.000000" y2="142.050000" stroke="blue" /><line x1="118.000000" y1="142.050000" x2="120.000000" y2="136.000000" stroke="blue" /><line x1="120.000000" y1="136.000000" x2="122.000000" y2="130.830000" stroke="blue" /><line x1="122.000000" y1="130.830000" x2="124.000000" y2="126.480000" stroke="blue" /><line x1="124.000000" y1="126.480000" x2="126.000000" y2="122.890000" stroke="blue" /><line x1="126.000000" y1="122.890000" x2="128.000000" y2="120.000000" stroke="blue" /><line x1="128.000000" y1="120.000000" x2="130.000000" y2="117.750000" stroke="blue" /><line x1="130.000000" y1="117.750000" x2="132.000000" y2="116.080000" stroke="blue" /><line x1="132.000000" y1="116.080000" x2="134.000000" y2="114.930000" stroke="blue" /><line x1="134.000000" y1="114.930000" x2="136.000000" y2="114.240000" stroke="blue" /><line x1="136.000000" y1="114.240000" x2="138.000000" y2="113.950000" stroke="blue" /><line x1="138.000000" y1="113.950000" x2="140.000000" y2="114.000000" stroke="blue" /><line x1="140.000000" y1="114.000000" x2="142.000000" y2="114.330000" stroke="blue" /><line x1="142.000000" y1="114.330000" x2="144.000000" y2="114.880000" stroke="blue" /><line x1="144.000000" y1="114.880000" x2="146.000000" y2="115.590000" stroke="blue" /><line x1="146.000000" y1="115.590000" x2="148.000000" y2="116.400000" stroke="blue" /><line x1="148.000000" y1="116.400000" x2="150.000000" y2="117.250000" stroke="blue" /><line x1="150.000000" y1="117.250000" x2="152.000000" y2="118.080000" stroke="blue" /><line x1="152.000000" y1="118.080000" x2="154.000000" y2="118.830000" stroke="blue" /><line x1="154.000000" y1="118.830000" x2="156.000000" y2="119.440000" stroke="blue" /><line x1="156.000000" y1="119.440000" x2="158.000000" y2="119.850000" stroke="blue" /><line x1="158.000000" y1="119.850000" x2="160.000000" y2="120.000000" stroke="blue" /><line x1="160.000000" y1="120.000000" x2="162.000000" y2="119.830000" stroke="blue" /><line x1="162.000000" y1="119.830000" x2="164.000000" y2="119.280000" stroke="blue" /><line x1="164.000000" y1="119.280000" x2="166.000000" y2="118.290000" stroke="blue" /><line x1="166.000000" y1="118.290000" x2="168.000000" y2="116.800000" stroke="blue" /><line x1="168.000000" y1="116.800000" x2="170.000000" y2="114.750000" stroke="blue" /><line x1="170.000000" y1="114.750000" x2="172.000000" y2="112.080000" stroke="blue" /><line x1="172.000000" y1="112.080000" x2="174.000000" y2="108.730000" stroke="blue" /><line x1="174.000000" y1="108.730000" x2="176.000000" y2="104.640000" stroke="blue" /><line x1="176.000000" y1="104.640000" x2="178.000000" y2="99.750000" stroke="blue" /><line x1="178.000000" y1="99.750000" x2="180.000000" y2="94.000000" stroke="blue" /><line x1="180.000000" y1="94.000000" x2="182.000000" y2="87.330000" stroke="blue" /><line x1="182.000000" y1="87.330000" x2="184.000000" y2="79.680000" stroke="blue" /><line x1="184.000000" y1="79.680000" x2="186.000000" y2="70.990000" stroke="blue" /><line x1="186.000000" y1="70.990000" x2="188.000000" y2="61.200000" stroke="blue" /><line x1="188.000000" y1="61.200000" x2="190.000000" y2="50.250000" stroke="blue" /><line x1="190.000000" y1="50.250000" x2="192.000000" y2="38.080000" stroke="blue" /><line x1="192.000000" y1="38.080000" x2="194.000000" y2="24.630000" stroke="blue" /><line x1="194.000000" y1="24.630000" x2="196.000000" y2="9.840000" stroke="blue" /><line x1="196.000000" y1="9.840000" x2="198.000000" y2="-6.350000" stroke="blue" /><line x1="198.000000" y1="-6.350000" x2="200.000000" y2="-24.000000" stroke="blue" /><line x1="200.000000" y1="-24.000000" x2="202.000000" y2="-43.170000" stroke="blue" /><line x1="202.000000" y1="-43.170000" x2="204.000000" y2="-63.920000" stroke="blue" /><line x1="204.000000" y1="-63.920000" x2="206.000000" y2="-86.310000" stroke="blue" /><line x1="206.000000" y1="-86.310000" x2="208.000000" y2="-110.400000" stroke="blue" /><line x1="208.000000" y1="-110.400000" x2="210.000000" y2="-136.250000" stroke="blue" /><line x1="210.000000" y1="-136.250000" x2="212.000000" y2="-163.920000" stroke="blue" /><line x1="212.000000" y1="-163.920000" x2="214.000000" y2="-193.470000" stroke="blue" /><line x1="214.000000" y1="-193.470000" x2="216.000000" y2="-224.960000" stroke="blue" /><line x1="216.000000" y1="-224.960000" x2="218.000000" y2="-258.450000" stroke="blue" /><line x1="218.000000" y1="-258.450000" x2="220.000000" y2="-294.000000" stroke="blue" /><line x1="220.000000" y1="-294.000000" x2="222.000000" y2="-331.670000" stroke="blue" /><line x1="222.000000" y1="-331.670000" x2="224.000000" y2="-371.520000" stroke="blue" /><line x1="224.000000" y1="-371.520000" x2="226.000000" y2="-413.610000" stroke="blue" /><line x1="226.000000" y1="-413.610000" x2="228.000000" y2="-458.000000" stroke="blue" /><line x1="228.000000" y1="-458.000000" x2="230.000000" y2="-504.750000" stroke="blue" /><line x1="230.000000" y1="-504.750000" x2="232.000000" y2="-553.920000" stroke="blue" /><line x1="232.000000" y1="-553.920000" x2="234.000000" y2="-605.570000" stroke="blue" /><line x1="234.000000" y1="-605.570000" x2="236.000000" y2="-659.760000" stroke="blue" /><line x1="236.000000" y1="-659.760000" x2="238.000000" y2="-716.550000" stroke="blue" /><line x1="238.000000" y1="-716.550000" x2="240.000000" y2="-776.000000" stroke="blue" /><line x1="240.000000" y1="-776.000000" x2="242.000000" y2="-838.170000" stroke="blue" /><line x1="242.000000" y1="-838.170000" x2="244.000000" y2="-903.120000" stroke="blue" /><line x1="244.000000" y1="-903.120000" x2="246.000000" y2="-970.910000" stroke="blue" /><line x1="246.000000" y1="-970.910000" x2="248.000000" y2="-1041.600000" stroke="blue" /><line x1="248.000000" y1="-1041.600000" x2="250.000000" y2="-1115.250000" stroke="blue" /><line x1="250.000000" y1="-1115.250000" x2="252.000000" y2="-1191.920000" stroke="blue" /><line x1="252.000000" y1="-1191.920000" x2="254.000000" y2="-1271.670000" stroke="blue" /><line x1="254.000000" y1="-1271.670000" x2="256.000000" y2="-1354.560000" stroke="blue" /><line x1="256.000000" y1="-1354.560000" x2="258.000000" y2="-1440.650000" stroke="blue" /><line x1="258.000000" y1="-1440.650000" x2="260.000000" y2="-1530.000000" stroke="blue" /><line x1="260.000000" y1="-1530.000000" x2="262.000000" y2="-1622.670000" stroke="blue" /></svg>